<svg width="54" height="56" viewBox="0 0 54 56" fill="none" xmlns="http://www.w3.org/2000/svg">
<g id="&#235;&#175;&#188;&#236;&#134;&#140;&#235;&#167;&#164;">
<g id="Group 67">
<path id="Rectangle 260" d="M14.1478 54H39.8663C40.4681 54 40.933 53.471 40.8625 52.8733C40.0586 46.0668 39.9381 40.6368 40.8276 31.2473C40.9369 30.0927 40.8561 28.9246 40.5749 27.7995L40.5 27.5C39.8732 23.0812 39.7072 20.4854 39.9519 16.2718C39.9782 15.8176 39.6989 15.3996 39.2672 15.2557L36.4779 14.326C35.9427 14.1476 35.3642 14.4513 35.2041 14.9923C34.2673 18.1579 34.657 17.1126 33.9269 19.5792C33.6769 20.4237 32.8979 21 32.0171 21H22.0169C21.12 21 20.3313 20.4003 20.0922 19.5359C19.3535 16.866 19.7405 18.137 18.7975 14.992C18.6355 14.4516 18.0573 14.1476 17.5221 14.326L14.7231 15.259C14.296 15.4013 14.0172 15.8125 14.039 16.2622C14.2439 20.4854 14.1654 23.0691 13.5 27.5L13.4548 27.6807C13.1542 28.8831 13.083 30.1311 13.227 31.3621C14.2129 39.7898 14.1949 44.9109 13.1536 52.8601C13.0748 53.4617 13.541 54 14.1478 54Z" fill="#298CFF" fill-opacity="0.8" stroke="white" stroke-opacity="0.5" stroke-linejoin="round"/>
<path id="Union" fill-rule="evenodd" clip-rule="evenodd" d="M29.2247 8.9159C28.7487 9.19921 28.2243 9.38748 27.681 9.47335V11.2207C27.7829 11.2524 27.8831 11.2914 27.9808 11.3376L45.7075 19.7324C47.8865 20.7644 47.1429 24 44.7267 24H9.27328C6.85707 24 6.11346 20.7644 8.29251 19.7324L26.0192 11.3376C26.1169 11.2914 26.2171 11.2524 26.319 11.2207V8.38549C26.319 8.27227 26.4118 8.18049 26.5264 8.18049C27.1254 8.15759 28.05 7.95621 28.4831 7.69841C28.9703 7.40845 29.3596 6.98219 29.6017 6.47354C29.8439 5.96488 29.928 5.39668 29.8434 4.84078C29.7588 4.28488 29.5094 3.76625 29.1267 3.35047C28.7439 2.9347 28.245 2.64045 27.6931 2.50495C27.1412 2.36944 26.561 2.39876 26.026 2.58919C25.4909 2.77963 25.025 3.12263 24.6871 3.57481C24.4396 3.90608 24.269 4.28506 24.1849 4.68483C24.1338 4.92749 23.9248 5.12014 23.6743 5.10847L23.1453 5.08382C22.8948 5.07215 22.6989 4.86131 22.737 4.61633C22.8427 3.93565 23.1141 3.28804 23.5307 2.73052C24.0374 2.05224 24.7363 1.53774 25.5389 1.25209C26.3415 0.966435 27.2118 0.922458 28.0397 1.12572C28.8676 1.32898 29.6159 1.77034 30.19 2.39401C30.7641 3.01767 31.1383 3.79561 31.2651 4.62946C31.3919 5.46331 31.2658 6.31561 30.9026 7.07859C30.5394 7.84157 29.9555 8.48096 29.2247 8.9159ZM27.3923 12.5518L45.119 20.9466C45.9907 21.3594 45.6932 22.6537 44.7267 22.6537H9.27328C8.30679 22.6537 8.00935 21.3594 8.88097 20.9466L26.6077 12.5518C26.8557 12.4344 27.1443 12.4344 27.3923 12.5518Z" fill="black"/>
<g id="Rectangle 259">
<path d="M14.039 16.2622C14.0172 15.8125 14.296 15.4013 14.7231 15.259L17.2619 14.4127C17.8862 14.2046 18.5375 14.6468 18.5801 15.3036C18.8517 19.4872 19.1974 22.2177 20.3413 26.4251C20.4411 26.7921 20.6892 27.1019 21.0241 27.2822C24.7548 29.2911 29.2586 29.2838 32.9893 27.275C33.3157 27.0993 33.5617 26.8002 33.6652 26.4442C34.82 22.4735 35.0785 19.6445 35.4047 15.282C35.4533 14.6321 36.1001 14.2 36.7183 14.4061L39.2672 15.2557C39.6989 15.3996 39.9782 15.8176 39.9519 16.2718C39.7072 20.4854 39.8732 23.0812 40.5 27.5L40.5749 27.7995C40.8561 28.9246 40.9369 30.0927 40.8276 31.2473C39.9381 40.6368 40.0586 46.0668 40.8625 52.8733C40.933 53.471 40.4681 54 39.8663 54H14.1478C13.541 54 13.0748 53.4617 13.1536 52.8601C14.1949 44.9109 14.2129 39.7898 13.227 31.3621C13.083 30.1311 13.1542 28.8831 13.4548 27.6807L13.5 27.5C14.1654 23.0691 14.2439 20.4854 14.039 16.2622Z" fill="white"/>
<path d="M14.039 16.2622C14.0172 15.8125 14.296 15.4013 14.7231 15.259L17.2619 14.4127C17.8862 14.2046 18.5375 14.6468 18.5801 15.3036C18.8517 19.4872 19.1974 22.2177 20.3413 26.4251C20.4411 26.7921 20.6892 27.1019 21.0241 27.2822C24.7548 29.2911 29.2586 29.2838 32.9893 27.275C33.3157 27.0993 33.5617 26.8002 33.6652 26.4442C34.82 22.4735 35.0785 19.6445 35.4047 15.282C35.4533 14.6321 36.1001 14.2 36.7183 14.4061L39.2672 15.2557C39.6989 15.3996 39.9782 15.8176 39.9519 16.2718C39.7072 20.4854 39.8732 23.0812 40.5 27.5L40.5749 27.7995C40.8561 28.9246 40.9369 30.0927 40.8276 31.2473C39.9381 40.6368 40.0586 46.0668 40.8625 52.8733C40.933 53.471 40.4681 54 39.8663 54H14.1478C13.541 54 13.0748 53.4617 13.1536 52.8601C14.1949 44.9109 14.2129 39.7898 13.227 31.3621C13.083 30.1311 13.1542 28.8831 13.4548 27.6807L13.5 27.5C14.1654 23.0691 14.2439 20.4854 14.039 16.2622Z" fill="#5EB0FF" fill-opacity="0.8"/>
<path d="M14.039 16.2622C14.0172 15.8125 14.296 15.4013 14.7231 15.259L17.2619 14.4127C17.8862 14.2046 18.5375 14.6468 18.5801 15.3036C18.8517 19.4872 19.1974 22.2177 20.3413 26.4251C20.4411 26.7921 20.6892 27.1019 21.0241 27.2822C24.7548 29.2911 29.2586 29.2838 32.9893 27.275C33.3157 27.0993 33.5617 26.8002 33.6652 26.4442C34.82 22.4735 35.0785 19.6445 35.4047 15.282C35.4533 14.6321 36.1001 14.2 36.7183 14.4061L39.2672 15.2557C39.6989 15.3996 39.9782 15.8176 39.9519 16.2718C39.7072 20.4854 39.8732 23.0812 40.5 27.5L40.5749 27.7995C40.8561 28.9246 40.9369 30.0927 40.8276 31.2473C39.9381 40.6368 40.0586 46.0668 40.8625 52.8733C40.933 53.471 40.4681 54 39.8663 54H14.1478C13.541 54 13.0748 53.4617 13.1536 52.8601C14.1949 44.9109 14.2129 39.7898 13.227 31.3621C13.083 30.1311 13.1542 28.8831 13.4548 27.6807L13.5 27.5C14.1654 23.0691 14.2439 20.4854 14.039 16.2622Z" stroke="white" stroke-opacity="0.5" stroke-linejoin="round"/>
</g>
</g>
</g>
</svg>
