<svg width="66" height="37" viewBox="0 0 66 37" fill="none" xmlns="http://www.w3.org/2000/svg">
<path d="M47.585 30.1103C50.0515 29.6966 57.1462 30.746 61.7005 31.5517C62.764 31.7399 63.9041 31.2192 64.1318 30.1634C64.7367 27.3597 65.4228 21.4894 63.6046 14.0832C61.8197 8.54483 57.3601 4.13888 50.9857 2.49574C47.7703 1.46777 44.3144 1.25574 40.1937 1.33699C36.0202 1.60713 32.5758 2.33033 29.4016 4.81322C25.0205 8.79138 21.3317 14.9675 20.2925 20.5564L4.56893 25.4103C3.93983 25.5237 3.36238 25.6919 2.88343 25.9307C2.47391 26.1348 2.13638 26.3904 1.90012 26.7074C1.23132 27.2123 0.590797 28.4854 2.41638 30.0214C3.17177 30.6569 4.21417 30.7733 5.17963 30.5672L18.5129 27.722C21.9756 29.2642 24.5904 32.5086 26.4049 34.7792C27.3554 35.9685 28.9197 36.3719 30.3631 35.8877L47.585 30.1103Z" fill="#0854AD" fill-opacity="0.8"/>
<path d="M50.9857 2.49574C57.3601 4.13888 61.8197 8.54483 63.6046 14.0832C65.4228 21.4894 64.7367 27.3597 64.1318 30.1634C63.9041 31.2192 62.764 31.7399 61.7005 31.5517C57.1462 30.746 50.0515 29.6966 47.585 30.1103M50.9857 2.49574C47.7703 1.46777 44.3144 1.25574 40.1937 1.33699M50.9857 2.49574C51.5364 8.76934 51.5387 14.5102 50.2423 20.5564C49.1402 24.237 48.243 27.3951 47.585 30.1103M20.2925 20.5564L2.88343 25.9307M20.2925 20.5564H26.226M20.2925 20.5564C21.3317 14.9675 25.0205 8.79138 29.4016 4.81322C32.5758 2.33033 36.0202 1.60713 40.1937 1.33699M47.585 30.1103L30.3631 35.8877C28.9197 36.3719 27.3554 35.9685 26.4049 34.7792C24.5904 32.5086 21.9756 29.2642 18.5129 27.722M47.585 30.1103C43.4321 27.722 35.719 21.7503 26.226 20.5564M18.5129 27.722C16.1395 26.6649 13.5214 25.8355 10.7998 25.5132C8.82034 25.1812 4.94213 24.9046 2.88343 25.9307M18.5129 27.722L5.17963 30.5672C4.21417 30.7733 3.17177 30.6569 2.41638 30.0214C0.590796 28.4854 1.23132 27.2123 1.90012 26.7074C2.13638 26.3904 2.47391 26.1348 2.88343 25.9307M26.226 20.5564C27.043 9.9764 36.0781 3.268 40.1937 1.33699" stroke="white" stroke-opacity="0.5" stroke-linejoin="round"/>
</svg>
