<svg width="102" height="77" viewBox="0 0 102 77" fill="none" xmlns="http://www.w3.org/2000/svg">
<g id="&#235;&#170;&#168;&#236;&#158;&#144;" filter="url(#filter0_bdd_6551_19456)">
<g id="Vector 77">
<path d="M63.585 46.1103C66.0515 45.6966 73.1462 46.746 77.7005 47.5517C78.764 47.7399 79.9041 47.2192 80.1318 46.1634C80.7367 43.3597 81.4228 37.4894 79.6046 30.0832C77.8197 24.5448 73.3601 20.1389 66.9857 18.4957C63.7703 17.4678 60.3144 17.2557 56.1937 17.337C52.0202 17.6071 48.5758 18.3303 45.4016 20.8132C41.0205 24.7914 37.3317 30.9675 36.2925 36.5564L20.5689 41.4103C19.9398 41.5237 19.3624 41.6919 18.8834 41.9307C18.4739 42.1348 18.1364 42.3904 17.9001 42.7074C17.2313 43.2123 16.5908 44.4854 18.4164 46.0214C19.1718 46.6569 20.2142 46.7733 21.1796 46.5672L34.5129 43.722C37.9756 45.2642 40.5904 48.5086 42.4049 50.7792C43.3554 51.9685 44.9197 52.3719 46.3631 51.8877L63.585 46.1103Z" fill="#0854AD" fill-opacity="0.8"/>
<path d="M66.9857 18.4957C73.3601 20.1389 77.8197 24.5448 79.6046 30.0832C81.4228 37.4894 80.7367 43.3597 80.1318 46.1634C79.9041 47.2192 78.764 47.7399 77.7005 47.5517C73.1462 46.746 66.0515 45.6966 63.585 46.1103M66.9857 18.4957C63.7703 17.4678 60.3144 17.2557 56.1937 17.337M66.9857 18.4957C67.5364 24.7693 67.5387 30.5102 66.2423 36.5564C65.1402 40.237 64.243 43.3951 63.585 46.1103M36.2925 36.5564L18.8834 41.9307M36.2925 36.5564H42.226M36.2925 36.5564C37.3317 30.9675 41.0205 24.7914 45.4016 20.8132C48.5758 18.3303 52.0202 17.6071 56.1937 17.337M63.585 46.1103L46.3631 51.8877C44.9197 52.3719 43.3554 51.9685 42.4049 50.7792C40.5904 48.5086 37.9756 45.2642 34.5129 43.722M63.585 46.1103C59.4321 43.722 51.719 37.7503 42.226 36.5564M34.5129 43.722C32.1395 42.6649 29.5214 41.8355 26.7998 41.5132C24.8203 41.1812 20.9421 40.9046 18.8834 41.9307M34.5129 43.722L21.1796 46.5672C20.2142 46.7733 19.1718 46.6569 18.4164 46.0214C16.5908 44.4854 17.2313 43.2123 17.9001 42.7074C18.1364 42.3904 18.4739 42.1348 18.8834 41.9307M42.226 36.5564C43.043 25.9764 52.0781 19.268 56.1937 17.337" stroke="white" stroke-opacity="0.5" stroke-linejoin="round"/>
</g>
</g>
<defs>
<filter id="filter0_bdd_6551_19456" x="0" y="-14" width="106" height="106" filterUnits="userSpaceOnUse" color-interpolation-filters="sRGB">
<feFlood flood-opacity="0" result="BackgroundImageFix"/>
<feGaussianBlur in="BackgroundImageFix" stdDeviation="5"/>
<feComposite in2="SourceAlpha" operator="in" result="effect1_backgroundBlur_6551_19456"/>
<feColorMatrix in="SourceAlpha" type="matrix" values="0 0 0 0 0 0 0 0 0 0 0 0 0 0 0 0 0 0 127 0" result="hardAlpha"/>
<feOffset dx="4" dy="4"/>
<feGaussianBlur stdDeviation="10"/>
<feComposite in2="hardAlpha" operator="out"/>
<feColorMatrix type="matrix" values="0 0 0 0 0 0 0 0 0 0 0 0 0 0 0 0 0 0 0.05 0"/>
<feBlend mode="normal" in2="effect1_backgroundBlur_6551_19456" result="effect2_dropShadow_6551_19456"/>
<feColorMatrix in="SourceAlpha" type="matrix" values="0 0 0 0 0 0 0 0 0 0 0 0 0 0 0 0 0 0 127 0" result="hardAlpha"/>
<feOffset/>
<feGaussianBlur stdDeviation="1"/>
<feComposite in2="hardAlpha" operator="out"/>
<feColorMatrix type="matrix" values="0 0 0 0 0 0 0 0 0 0 0 0 0 0 0 0 0 0 0.05 0"/>
<feBlend mode="normal" in2="effect2_dropShadow_6551_19456" result="effect3_dropShadow_6551_19456"/>
<feBlend mode="normal" in="SourceGraphic" in2="effect3_dropShadow_6551_19456" result="shape"/>
</filter>
</defs>
</svg>
