<svg width="102" height="77" viewBox="0 0 102 77" fill="none" xmlns="http://www.w3.org/2000/svg">
<g id="&#235;&#170;&#168;&#236;&#158;&#144;" filter="url(#filter0_bdd_7124_1812)">
<g id="Vector 77">
<path d="M63.585 46.1106C66.0515 45.6969 73.1462 46.7463 77.7005 47.552C78.764 47.7401 79.9041 47.2194 80.1318 46.1637C80.7367 43.3599 81.4228 37.4897 79.6046 30.0834C77.8197 24.5451 73.3601 20.1391 66.9857 18.496C63.7703 17.468 60.3144 17.256 56.1937 17.3372C52.0202 17.6074 48.5758 18.3306 45.4016 20.8135C41.0205 24.7916 37.3317 30.9678 36.2925 36.5567L20.5689 41.4106C19.9398 41.524 19.3624 41.6922 18.8834 41.9309C18.4739 42.135 18.1364 42.3907 17.9001 42.7077C17.2313 43.2125 16.5908 44.4856 18.4164 46.0216C19.1718 46.6572 20.2142 46.7735 21.1796 46.5675L34.5129 43.7222C37.9756 45.2644 40.5904 48.5089 42.4049 50.7794C43.3554 51.9688 44.9197 52.3721 46.3631 51.8879L63.585 46.1106Z" fill="#0854AD" fill-opacity="0.8"/>
<path d="M66.9857 18.496C73.3601 20.1391 77.8197 24.5451 79.6046 30.0834C81.4228 37.4897 80.7367 43.3599 80.1318 46.1637C79.9041 47.2194 78.764 47.7401 77.7005 47.552C73.1462 46.7463 66.0515 45.6969 63.585 46.1106M66.9857 18.496C63.7703 17.468 60.3144 17.256 56.1937 17.3372M66.9857 18.496C67.5364 24.7696 67.5387 30.5105 66.2423 36.5567C65.1402 40.2373 64.243 43.3954 63.585 46.1106M36.2925 36.5567L18.8834 41.9309M36.2925 36.5567H42.226M36.2925 36.5567C37.3317 30.9678 41.0205 24.7916 45.4016 20.8135C48.5758 18.3306 52.0202 17.6074 56.1937 17.3372M63.585 46.1106L46.3631 51.8879C44.9197 52.3721 43.3554 51.9688 42.4049 50.7794C40.5904 48.5089 37.9756 45.2644 34.5129 43.7222M63.585 46.1106C59.4321 43.7222 51.719 37.7505 42.226 36.5567M34.5129 43.7222C32.1395 42.6651 29.5214 41.8357 26.7998 41.5135C24.8203 41.1815 20.9421 40.9048 18.8834 41.9309M34.5129 43.7222L21.1796 46.5675C20.2142 46.7735 19.1718 46.6572 18.4164 46.0216C16.5908 44.4856 17.2313 43.2125 17.9001 42.7077C18.1364 42.3907 18.4739 42.135 18.8834 41.9309M42.226 36.5567C43.043 25.9766 52.0781 19.2682 56.1937 17.3372" stroke="white" stroke-opacity="0.5" stroke-linejoin="round"/>
</g>
</g>
<defs>
<filter id="filter0_bdd_7124_1812" x="0" y="-14" width="106" height="106" filterUnits="userSpaceOnUse" color-interpolation-filters="sRGB">
<feFlood flood-opacity="0" result="BackgroundImageFix"/>
<feGaussianBlur in="BackgroundImageFix" stdDeviation="5"/>
<feComposite in2="SourceAlpha" operator="in" result="effect1_backgroundBlur_7124_1812"/>
<feColorMatrix in="SourceAlpha" type="matrix" values="0 0 0 0 0 0 0 0 0 0 0 0 0 0 0 0 0 0 127 0" result="hardAlpha"/>
<feOffset dx="4" dy="4"/>
<feGaussianBlur stdDeviation="10"/>
<feComposite in2="hardAlpha" operator="out"/>
<feColorMatrix type="matrix" values="0 0 0 0 0 0 0 0 0 0 0 0 0 0 0 0 0 0 0.05 0"/>
<feBlend mode="normal" in2="effect1_backgroundBlur_7124_1812" result="effect2_dropShadow_7124_1812"/>
<feColorMatrix in="SourceAlpha" type="matrix" values="0 0 0 0 0 0 0 0 0 0 0 0 0 0 0 0 0 0 127 0" result="hardAlpha"/>
<feOffset/>
<feGaussianBlur stdDeviation="1"/>
<feComposite in2="hardAlpha" operator="out"/>
<feColorMatrix type="matrix" values="0 0 0 0 0 0 0 0 0 0 0 0 0 0 0 0 0 0 0.05 0"/>
<feBlend mode="normal" in2="effect2_dropShadow_7124_1812" result="effect3_dropShadow_7124_1812"/>
<feBlend mode="normal" in="SourceGraphic" in2="effect3_dropShadow_7124_1812" result="shape"/>
</filter>
</defs>
</svg>
