<svg width="429" height="252" viewBox="0 0 429 252" fill="none" xmlns="http://www.w3.org/2000/svg">
<g clip-path="url(#clip0_7932_22140)">
<path d="M348.5 252C392.959 252 429 215.959 429 171.5C429 127.041 392.959 91 348.5 91C346.035 91 343.597 91.1108 341.189 91.3276C338.863 91.537 336.651 90.2245 335.706 88.0887C324.216 62.1197 298.224 44 268 44C262.853 44 257.829 44.5255 252.979 45.5256C250.728 45.9896 248.41 44.992 247.222 43.0256C231.634 17.2387 203.33 0 171 0C128.265 0 92.5646 30.1202 83.9701 70.2896C83.4842 72.5605 81.5846 74.2742 79.2758 74.5251C34.697 79.3692 0 117.133 0 163C0 212.153 39.8467 252 89 252H348.5Z" fill="white" fill-opacity="0.7"/>
<path d="M428.5 171.5C428.5 215.683 392.683 251.5 348.5 251.5H89C40.1228 251.5 0.5 211.877 0.5 163C0.5 117.391 35.0019 79.839 79.3299 75.0222C81.8531 74.748 83.9279 72.8762 84.459 70.3942C93.0052 30.4506 128.506 0.5 171 0.5C203.148 0.5 231.293 17.6409 246.794 43.2843C248.093 45.4341 250.624 46.5215 253.08 46.0153C257.897 45.022 262.887 44.5 268 44.5C298.019 44.5 323.836 62.4964 335.248 88.291C336.279 90.6213 338.692 92.0544 341.233 91.8256C343.627 91.6101 346.05 91.5 348.5 91.5C392.683 91.5 428.5 127.317 428.5 171.5Z" stroke="white" stroke-opacity="0.4"/>
</g>
<defs>
<clipPath id="clip0_7932_22140">
<rect width="429" height="252" fill="white"/>
</clipPath>
</defs>
</svg>
