<svg width="279" height="163" viewBox="0 0 279 163" fill="none" xmlns="http://www.w3.org/2000/svg">
<g id="weather piece/cloud" clip-path="url(#clip0_7932_22138)">
<g id="Union" filter="url(#filter0_bd_7932_22138)">
<path fill-rule="evenodd" clip-rule="evenodd" d="M145.35 162.976C144.727 162.992 144.101 163 143.474 163C127.405 163 129.67 162.976 109.174 163C70.2729 163 80.6354 163 58.5607 163C26.2183 163 0 136.803 0 104.487C0 72.1715 26.2183 45.9744 58.5607 45.9744C61.6301 45.9744 64.6441 46.2103 67.5858 46.665C72.4655 47.4193 77.443 44.8778 79.5593 40.4167C90.8939 16.5237 115.252 0 143.474 0C171.631 0 195.943 16.449 207.311 40.2545C208.923 43.6304 212.23 45.9508 215.964 46.1784C256.977 48.6782 279 73.8292 279 104.487C279 136.803 254.425 163 209.145 163C183.374 163 178.61 162.976 145.35 162.976Z" fill="white" fill-opacity="0.7" shape-rendering="crispEdges"/>
<path d="M145.35 162.475L145.337 162.476C144.718 162.492 144.097 162.5 143.474 162.5C137.471 162.5 134.027 162.497 130.999 162.494C125.921 162.489 122.013 162.485 109.173 162.5H108.947H108.72H108.495H108.271H108.048H107.826H107.606H107.386H107.168H106.95H106.734H106.519H106.305H106.092H105.88H105.669H105.459H105.25H105.042H104.836H104.63H104.426H104.222H104.02H103.818H103.618H103.419H103.22H103.023H102.827H102.632H102.437H102.244H102.052H101.861H101.67H101.481H101.293H101.106H100.92H100.734H100.55H100.367H100.184H100.003H99.8226H99.6431H99.4646H99.2871H99.1105H98.9348H98.7601H98.5863H98.4135H98.2416H98.0706H97.9006H97.7314H97.5632H97.3959H97.2295H97.064H96.8994H96.7357H96.5729H96.4109H96.2499H96.0898H95.9305H95.7721H95.6146H95.4579H95.3022H95.1472H94.9932H94.84H94.6876H94.5361H94.3854H94.2355H94.0865H93.9384H93.791H93.6445H93.4988H93.3539H93.2099H93.0666H92.9242H92.7825H92.6417H92.5016H92.3624H92.2239H92.0862H91.9493H91.8131H91.6778H91.5432H91.4094H91.2763H91.144H91.0125H90.8817H90.7516H90.6223H90.4938H90.3659H90.2388H90.1125H89.9868H89.8619H89.7377H89.6142H89.4914H89.3694H89.248H89.1274H89.0074H88.8881H88.7695H88.6516H88.5344H88.4179H88.302H88.1868H88.0723H87.9585H87.8453H87.7327H87.6208H87.5096H87.399H87.289H87.1797H87.071H86.963H86.8556H86.7488H86.6426H86.537H86.4321H86.3277H86.224H86.1209H86.0183H85.9164H85.815H85.7143H85.6141H85.5145H85.4155H85.317H85.2191H85.1218H85.025H84.9288H84.8332H84.7381H84.6435H84.5495H84.4561H84.3631H84.2707H84.1789H84.0875H83.9967H83.9064H83.8166H83.7273H83.6386H83.5503H83.4625H83.3752H83.2885H83.2022H83.1163H83.031H82.9462H82.8618H82.7779H82.6944H82.6115H82.5289H82.4469H82.3652H82.2841H82.2034H82.1231H82.0432H81.9638H81.8849H81.8063H81.7282H81.6505H81.5732H81.4963H81.4198H81.3437H81.2681H81.1928H81.1179H81.0434H80.9693H80.8956H80.8223H80.7493H80.6767H80.6045H80.5326H80.4611H80.3899H80.3192H80.2487H80.1786H80.1089H80.0394H79.9704H79.9016H79.8332H79.7651H79.6973H79.6299H79.5627H79.4959H79.4293H79.3631H79.2972H79.2315H79.1662H79.1011H79.0363H78.9719H78.9076H78.8437H78.78H78.7166H78.6535H78.5906H78.5279H78.4655H78.4034H78.3415H78.2799H78.2184H78.1573H78.0963H78.0356H77.9751H77.9148H77.8547H77.7948H77.7352H77.6757H77.6165H77.5574H77.4985H77.4399H77.3814H77.3231H77.2649H77.207H77.1492H77.0916H77.0341H76.9768H76.9197H76.8627H76.8059H76.7492H76.6926H76.6362H76.5799H76.5238H76.4677H76.4118H76.3561H76.3004H76.2448H76.1894H76.134H76.0788H76.0237H75.9686H75.9137H75.8588H75.804H75.7493H75.6947H75.6401H75.5856H75.5312H75.4768H75.4225H75.3683H75.3141H75.2599H75.2058H75.1517H75.0977H75.0437H74.9897H74.9357H74.8818H74.8279H74.774H74.7201H74.6662H74.6123H74.5584H74.5045H74.4506H74.3967H74.3428H74.2888H74.2349H74.1809H74.1269H74.0728H74.0187H73.9646H73.9104H73.8562H73.8019H73.7475H73.6931H73.6387H73.5841H73.5295H73.4749H73.4201H73.3653H73.3104H73.2554H73.2003H73.1451H73.0898H73.0344H72.9789H72.9233H72.8675H72.8117H72.7557H72.6996H72.6434H72.5871H72.5306H72.4739H72.4172H72.3602H72.3032H72.2459H72.1885H72.131H72.0733H72.0154H71.9574H71.8991H71.8407H71.7821H71.7233H71.6644H71.6052H71.5458H71.4863H71.4265H71.3665H71.3063H71.2459H71.1853H71.1244H71.0634H71.002H70.9405H70.8787H70.8167H70.7544H70.6919H70.6291H70.5661H70.5028H70.4392H70.3754H70.3113H70.2469H70.1823H70.1174H70.0521H69.9866H69.9208H69.8547H69.7883H69.7216H69.6546H69.5873H69.5197H69.4517H69.3834H69.3148H69.2459H69.1766H69.107H69.0371H68.9668H68.8962H68.8252H68.7538H68.6821H68.6101H68.5376H68.4648H68.3917H68.3181H68.2442H68.1699H68.0952H68.0201H67.9446H67.8687H67.7924H67.7157H67.6386H67.561H67.4831H67.4047H67.326H67.2467H67.1671H67.087H67.0065H66.9255H66.8441H66.7622H66.6799H66.5972H66.5139H66.4302H66.346H66.2614H66.1763H66.0907H66.0046H65.918H65.831H65.7434H65.6554H65.5668H65.4778H65.3882H65.2981H65.2076H65.1164H65.0248H64.9327H64.84H64.7467H64.653H64.5587H64.4638H64.3684H64.2725H64.176H64.0789H63.9813H63.8831H63.7843H63.6849H63.585H63.4845H63.3834H63.2817H63.1795H63.0766H62.9731H62.8691H62.7644H62.6591H62.5532H62.4467H62.3395H62.2318H62.1234H62.0143H61.9047H61.7944H61.6834H61.5718H61.4596H61.3467H61.2331H61.1189H61.004H60.8884H60.7722H60.6553H60.5377H60.4194H60.3004H60.1808H60.0604H59.9394H59.8176H59.6952H59.572H59.4481H59.3235H59.1982H59.0722H58.9454H58.8179H58.6897H58.5607C26.4941 162.5 0.5 136.526 0.5 104.487C0.5 72.448 26.4941 46.4744 58.5607 46.4744C61.6045 46.4744 64.593 46.7083 67.5095 47.1591C72.6003 47.946 77.7968 45.2985 80.0111 40.631C91.2659 16.9061 115.452 0.5 143.474 0.5C171.431 0.5 195.572 16.8319 206.859 40.4699C208.546 44.0025 212.01 46.4383 215.934 46.6775C236.343 47.9215 251.981 54.7975 262.512 65.1304C273.041 75.4618 278.5 89.2821 278.5 104.487C278.5 120.513 272.409 135.002 260.719 145.49C249.025 155.98 231.689 162.5 209.145 162.5C197.081 162.5 189.62 162.495 181.684 162.489L180.056 162.488C171.486 162.482 161.98 162.476 145.35 162.475Z" stroke="white" stroke-opacity="0.4" shape-rendering="crispEdges"/>
</g>
</g>
<defs>
<filter id="filter0_bd_7932_22138" x="-30" y="-30" width="339" height="223" filterUnits="userSpaceOnUse" color-interpolation-filters="sRGB">
<feFlood flood-opacity="0" result="BackgroundImageFix"/>
<feGaussianBlur in="BackgroundImageFix" stdDeviation="15"/>
<feComposite in2="SourceAlpha" operator="in" result="effect1_backgroundBlur_7932_22138"/>
<feColorMatrix in="SourceAlpha" type="matrix" values="0 0 0 0 0 0 0 0 0 0 0 0 0 0 0 0 0 0 127 0" result="hardAlpha"/>
<feOffset dx="4" dy="4"/>
<feGaussianBlur stdDeviation="10"/>
<feComposite in2="hardAlpha" operator="out"/>
<feColorMatrix type="matrix" values="0 0 0 0 1 0 0 0 0 1 0 0 0 0 1 0 0 0 0.1 0"/>
<feBlend mode="normal" in2="effect1_backgroundBlur_7932_22138" result="effect2_dropShadow_7932_22138"/>
<feBlend mode="normal" in="SourceGraphic" in2="effect2_dropShadow_7932_22138" result="shape"/>
</filter>
<clipPath id="clip0_7932_22138">
<rect width="279" height="163" fill="white"/>
</clipPath>
</defs>
</svg>
