<svg width="95" height="96" viewBox="0 0 95 96" fill="none" xmlns="http://www.w3.org/2000/svg">
<g id="&#235;&#176;&#152;&#235;&#176;&#148;&#236;&#167;&#128;" filter="url(#filter0_bdd_5082_12547)">
<g id="Group 58" filter="url(#filter1_bd_5082_12547)">
<g id="Vector 36" filter="url(#filter2_bd_5082_12547)">
<path d="M20.4953 80.8214C19.3399 80.8214 18.4249 79.8453 18.4994 78.6924L20.4916 47.871C20.5596 46.8187 21.433 46 22.4875 46H63.7525C64.807 46 65.6804 46.8187 65.7484 47.871L67.7405 78.6924C67.815 79.8454 66.9 80.8214 65.7447 80.8214H47.0385C46.0725 80.8214 45.2446 80.131 45.071 79.1808L43.12 68.5L41.1689 79.1808C40.9953 80.1311 40.1674 80.8214 39.2015 80.8214H20.4953Z" fill="#FFB751" shape-rendering="crispEdges"/>
<path d="M20.4953 80.8214C19.3399 80.8214 18.4249 79.8453 18.4994 78.6924L20.4916 47.871C20.5596 46.8187 21.433 46 22.4875 46H63.7525C64.807 46 65.6804 46.8187 65.7484 47.871L67.7405 78.6924C67.815 79.8454 66.9 80.8214 65.7447 80.8214H47.0385C46.0725 80.8214 45.2446 80.131 45.071 79.1808L43.12 68.5L41.1689 79.1808C40.9953 80.1311 40.1674 80.8214 39.2015 80.8214H20.4953Z" stroke="white" stroke-opacity="0.5" stroke-linejoin="round" shape-rendering="crispEdges"/>
</g>
<path id="Union" fill-rule="evenodd" clip-rule="evenodd" d="M46.1243 26.1242C45.4816 26.4866 44.7733 26.7274 44.0397 26.8372V29.072C44.1772 29.1125 44.3125 29.1624 44.4444 29.2216L68.3835 39.9583C71.3262 41.2781 70.3219 45.4165 67.059 45.4165H59.9804V46.9949C59.9804 47.6289 59.4314 48.1429 58.7542 48.1429H57.528C56.8508 48.1429 56.3018 47.6289 56.3018 46.9949V45.4165H29.3251V46.9949C29.3251 47.6289 28.7761 48.1429 28.0989 48.1429H26.8727C26.1955 48.1429 25.6465 47.6289 25.6465 46.9949V45.4165H19.181C15.9181 45.4165 14.9139 41.2781 17.8565 39.9583L41.7956 29.2216C41.8435 29.2001 41.8919 29.1798 41.9407 29.1607C42.0261 29.1274 42.1128 29.0978 42.2004 29.072V25.4459C42.2004 25.301 42.3258 25.1837 42.4804 25.1837C43.2893 25.1544 44.538 24.8968 45.1229 24.5671C45.7808 24.1962 46.3065 23.651 46.6335 23.0005C46.9605 22.35 47.0741 21.6233 46.9599 20.9122C46.8457 20.2013 46.5089 19.538 45.992 19.0062C45.4751 18.4744 44.8014 18.0981 44.056 17.9248C43.3107 17.7515 42.5271 17.789 41.8046 18.0325C41.0821 18.2761 40.4528 18.7148 39.9966 19.2931C39.6623 19.7168 39.4318 20.2015 39.3183 20.7128C39.2493 21.0232 38.9672 21.2696 38.6289 21.2547L37.9145 21.2231C37.5762 21.2082 37.3115 20.9385 37.363 20.6252C37.5058 19.7546 37.8722 18.9264 38.4349 18.2133C39.1193 17.3457 40.063 16.6878 41.1469 16.3224C42.2307 15.957 43.4061 15.9008 44.5241 16.1608C45.642 16.4207 46.6526 16.9853 47.4279 17.7829C48.2033 18.5805 48.7085 19.5755 48.8799 20.642C49.0511 21.7085 48.8808 22.7986 48.3902 23.7744C47.8999 24.7502 47.1112 25.568 46.1243 26.1242ZM59.9804 43.6945V42.4031C59.9804 41.769 59.4314 41.2551 58.7542 41.2551H57.528C56.8508 41.2551 56.3018 41.769 56.3018 42.4031V43.6945H29.3251V42.4031C29.3251 41.769 28.7761 41.2551 28.0989 41.2551H26.8727C26.1955 41.2551 25.6465 41.769 25.6465 42.4031V43.6945H19.181C17.8758 43.6945 17.4742 42.0392 18.6512 41.5113L42.5903 30.7745C42.9251 30.6243 43.3149 30.6243 43.6497 30.7745L67.5889 41.5113C68.7658 42.0392 68.3642 43.6945 67.059 43.6945H59.9804Z" fill="black"/>
<path id="Rectangle 209" d="M19.7778 46.6431H66.2223H19.7778ZM66.2223 50.6788H19.7778V49.6788H66.2223V50.6788ZM19.7778 50.1788V46.6431V50.1788ZM66.2223 46.6431V50.1788V46.6431Z" fill="white" fill-opacity="0.5"/>
<path id="Rectangle 210" d="M43 50.1787H45.4444V63.3216C45.4444 63.8739 44.9967 64.3216 44.4444 64.3216H43V50.1787Z" stroke="white" stroke-opacity="0.5"/>
</g>
</g>
<defs>
<filter id="filter0_bdd_5082_12547" x="-30" y="-24" width="146" height="146" filterUnits="userSpaceOnUse" color-interpolation-filters="sRGB">
<feFlood flood-opacity="0" result="BackgroundImageFix"/>
<feGaussianBlur in="BackgroundImageFix" stdDeviation="20"/>
<feComposite in2="SourceAlpha" operator="in" result="effect1_backgroundBlur_5082_12547"/>
<feColorMatrix in="SourceAlpha" type="matrix" values="0 0 0 0 0 0 0 0 0 0 0 0 0 0 0 0 0 0 127 0" result="hardAlpha"/>
<feOffset dx="4" dy="4"/>
<feGaussianBlur stdDeviation="10"/>
<feComposite in2="hardAlpha" operator="out"/>
<feColorMatrix type="matrix" values="0 0 0 0 0 0 0 0 0 0 0 0 0 0 0 0 0 0 0.05 0"/>
<feBlend mode="normal" in2="effect1_backgroundBlur_5082_12547" result="effect2_dropShadow_5082_12547"/>
<feColorMatrix in="SourceAlpha" type="matrix" values="0 0 0 0 0 0 0 0 0 0 0 0 0 0 0 0 0 0 127 0" result="hardAlpha"/>
<feOffset/>
<feGaussianBlur stdDeviation="1"/>
<feComposite in2="hardAlpha" operator="out"/>
<feColorMatrix type="matrix" values="0 0 0 0 0 0 0 0 0 0 0 0 0 0 0 0 0 0 0.05 0"/>
<feBlend mode="normal" in2="effect2_dropShadow_5082_12547" result="effect3_dropShadow_5082_12547"/>
<feBlend mode="normal" in="SourceGraphic" in2="effect3_dropShadow_5082_12547" result="shape"/>
</filter>
<filter id="filter1_bd_5082_12547" x="6.11108" y="6" width="74.0178" height="85.3213" filterUnits="userSpaceOnUse" color-interpolation-filters="sRGB">
<feFlood flood-opacity="0" result="BackgroundImageFix"/>
<feGaussianBlur in="BackgroundImageFix" stdDeviation="5"/>
<feComposite in2="SourceAlpha" operator="in" result="effect1_backgroundBlur_5082_12547"/>
<feColorMatrix in="SourceAlpha" type="matrix" values="0 0 0 0 0 0 0 0 0 0 0 0 0 0 0 0 0 0 127 0" result="hardAlpha"/>
<feOffset dy="1"/>
<feGaussianBlur stdDeviation="1"/>
<feComposite in2="hardAlpha" operator="out"/>
<feColorMatrix type="matrix" values="0 0 0 0 0 0 0 0 0 0 0 0 0 0 0 0 0 0 0.1 0"/>
<feBlend mode="normal" in2="effect1_backgroundBlur_5082_12547" result="effect2_dropShadow_5082_12547"/>
<feBlend mode="normal" in="SourceGraphic" in2="effect2_dropShadow_5082_12547" result="shape"/>
</filter>
<filter id="filter2_bd_5082_12547" x="7.99512" y="35.5" width="70.2498" height="55.8213" filterUnits="userSpaceOnUse" color-interpolation-filters="sRGB">
<feFlood flood-opacity="0" result="BackgroundImageFix"/>
<feGaussianBlur in="BackgroundImageFix" stdDeviation="5"/>
<feComposite in2="SourceAlpha" operator="in" result="effect1_backgroundBlur_5082_12547"/>
<feColorMatrix in="SourceAlpha" type="matrix" values="0 0 0 0 0 0 0 0 0 0 0 0 0 0 0 0 0 0 127 0" result="hardAlpha"/>
<feOffset dy="1"/>
<feGaussianBlur stdDeviation="1"/>
<feComposite in2="hardAlpha" operator="out"/>
<feColorMatrix type="matrix" values="0 0 0 0 0 0 0 0 0 0 0 0 0 0 0 0 0 0 0.1 0"/>
<feBlend mode="normal" in2="effect1_backgroundBlur_5082_12547" result="effect2_dropShadow_5082_12547"/>
<feBlend mode="normal" in="SourceGraphic" in2="effect2_dropShadow_5082_12547" result="shape"/>
</filter>
</defs>
</svg>
