<svg width="82" height="82" viewBox="0 0 82 82" fill="none" xmlns="http://www.w3.org/2000/svg">
<g filter="url(#filter0_bdd_5561_9006)">
<g filter="url(#filter1_bd_5561_9006)">
<path d="M19.9701 71C18.8166 71 17.9022 70.0269 17.974 68.8756L19.5662 43.3302C19.6319 42.276 20.506 41.4546 21.5623 41.4546H54.6342C55.6905 41.4546 56.5646 42.276 56.6303 43.3302L58.2225 68.8756C58.2943 70.0269 57.3799 71 56.2264 71H41.6182C40.6475 71 39.8169 70.303 39.6486 69.347L38.0982 60.5455L36.5479 69.347C36.3795 70.303 35.5489 71 34.5782 71H19.9701Z" fill="#FFB751" shape-rendering="crispEdges"/>
<path d="M19.9701 71C18.8166 71 17.9022 70.0269 17.974 68.8756L19.5662 43.3302C19.6319 42.276 20.506 41.4546 21.5623 41.4546H54.6342C55.6905 41.4546 56.5646 42.276 56.6303 43.3302L58.2225 68.8756C58.2943 70.0269 57.3799 71 56.2264 71H41.6182C40.6475 71 39.8169 70.303 39.6486 69.347L38.0982 60.5455L36.5479 69.347C36.3795 70.303 35.5489 71 34.5782 71H19.9701Z" stroke="white" stroke-opacity="0.5" stroke-linejoin="round" shape-rendering="crispEdges"/>
</g>
<path fill-rule="evenodd" clip-rule="evenodd" d="M40.5563 24.5903C40.0304 24.8977 39.4509 25.102 38.8507 25.1952V27.0914C38.9632 27.1258 39.0739 27.1681 39.1818 27.2183L58.7684 36.3283C61.176 37.4481 60.3543 40.9594 57.6846 40.9594H51.8931V42.2987C51.8931 42.8367 51.4439 43.2727 50.8898 43.2727H49.8866C49.3325 43.2727 48.8833 42.8367 48.8833 42.2987V40.9594H26.8115V42.2987C26.8115 42.8367 26.3623 43.2727 25.8082 43.2727H24.805C24.2509 43.2727 23.8017 42.8367 23.8017 42.2987V40.9594H18.5118C15.8421 40.9594 15.0204 37.4481 17.4281 36.3283L37.0146 27.2183C37.0538 27.2 37.0934 27.1829 37.1333 27.1667C37.2032 27.1384 37.2741 27.1133 37.3458 27.0914V24.0147C37.3458 23.8918 37.4484 23.7922 37.5749 23.7922C38.2367 23.7674 39.2584 23.5488 39.737 23.269C40.2752 22.9544 40.7053 22.4918 40.9729 21.9398C41.2404 21.3879 41.3334 20.7713 41.2399 20.168C41.1465 19.5647 40.8709 19.0019 40.448 18.5507C40.0251 18.0995 39.4739 17.7802 38.864 17.6331C38.2542 17.4861 37.6131 17.5179 37.022 17.7246C36.4308 17.9312 35.9159 18.3034 35.5427 18.7941C35.2692 19.1536 35.0806 19.5649 34.9878 19.9988C34.9313 20.2621 34.7004 20.4712 34.4237 20.4585L33.8391 20.4317C33.5623 20.4191 33.3458 20.1903 33.3879 19.9244C33.5048 19.1857 33.8046 18.483 34.2649 17.878C34.8249 17.1418 35.597 16.5836 36.4838 16.2736C37.3706 15.9635 38.3323 15.9159 39.247 16.1364C40.1617 16.357 40.9885 16.836 41.6229 17.5128C42.2573 18.1895 42.6706 19.0338 42.8108 19.9387C42.9509 20.8435 42.8115 21.7685 42.4102 22.5964C42.009 23.4244 41.3637 24.1183 40.5563 24.5903ZM51.8931 39.4984V38.4026C51.8931 37.8646 51.4439 37.4286 50.8898 37.4286H49.8866C49.3325 37.4286 48.8833 37.8646 48.8833 38.4026V39.4984H26.8115V38.4026C26.8115 37.8646 26.3623 37.4286 25.8082 37.4286H24.805C24.2509 37.4286 23.8017 37.8646 23.8017 38.4026V39.4984H18.5118C17.4439 39.4984 17.1153 38.0939 18.0782 37.6459L37.6648 28.5359C37.9388 28.4085 38.2577 28.4085 38.5316 28.5359L58.1182 37.6459C59.0812 38.0939 58.7526 39.4984 57.6846 39.4984H51.8931Z" fill="black"/>
<path d="M19 42H57H19ZM57 45.5H19V44.5H57V45.5ZM19 45V42V45ZM57 42V45V42Z" fill="white" fill-opacity="0.5"/>
<path d="M38 45H40V56C40 56.5523 39.5523 57 39 57H38V45Z" stroke="white" stroke-opacity="0.5"/>
</g>
<defs>
<filter id="filter0_bdd_5561_9006" x="-29" y="-24" width="134" height="136" filterUnits="userSpaceOnUse" color-interpolation-filters="sRGB">
<feFlood flood-opacity="0" result="BackgroundImageFix"/>
<feGaussianBlur in="BackgroundImageFix" stdDeviation="20"/>
<feComposite in2="SourceAlpha" operator="in" result="effect1_backgroundBlur_5561_9006"/>
<feColorMatrix in="SourceAlpha" type="matrix" values="0 0 0 0 0 0 0 0 0 0 0 0 0 0 0 0 0 0 127 0" result="hardAlpha"/>
<feOffset dx="4" dy="4"/>
<feGaussianBlur stdDeviation="10"/>
<feComposite in2="hardAlpha" operator="out"/>
<feColorMatrix type="matrix" values="0 0 0 0 0 0 0 0 0 0 0 0 0 0 0 0 0 0 0.05 0"/>
<feBlend mode="normal" in2="effect1_backgroundBlur_5561_9006" result="effect2_dropShadow_5561_9006"/>
<feColorMatrix in="SourceAlpha" type="matrix" values="0 0 0 0 0 0 0 0 0 0 0 0 0 0 0 0 0 0 127 0" result="hardAlpha"/>
<feOffset/>
<feGaussianBlur stdDeviation="1"/>
<feComposite in2="hardAlpha" operator="out"/>
<feColorMatrix type="matrix" values="0 0 0 0 0 0 0 0 0 0 0 0 0 0 0 0 0 0 0.05 0"/>
<feBlend mode="normal" in2="effect2_dropShadow_5561_9006" result="effect3_dropShadow_5561_9006"/>
<feBlend mode="normal" in="SourceGraphic" in2="effect3_dropShadow_5561_9006" result="shape"/>
</filter>
<filter id="filter1_bd_5561_9006" x="7.46997" y="30.9546" width="61.2566" height="50.5454" filterUnits="userSpaceOnUse" color-interpolation-filters="sRGB">
<feFlood flood-opacity="0" result="BackgroundImageFix"/>
<feGaussianBlur in="BackgroundImageFix" stdDeviation="5"/>
<feComposite in2="SourceAlpha" operator="in" result="effect1_backgroundBlur_5561_9006"/>
<feColorMatrix in="SourceAlpha" type="matrix" values="0 0 0 0 0 0 0 0 0 0 0 0 0 0 0 0 0 0 127 0" result="hardAlpha"/>
<feOffset dy="1"/>
<feGaussianBlur stdDeviation="1"/>
<feComposite in2="hardAlpha" operator="out"/>
<feColorMatrix type="matrix" values="0 0 0 0 0 0 0 0 0 0 0 0 0 0 0 0 0 0 0.1 0"/>
<feBlend mode="normal" in2="effect1_backgroundBlur_5561_9006" result="effect2_dropShadow_5561_9006"/>
<feBlend mode="normal" in="SourceGraphic" in2="effect2_dropShadow_5561_9006" result="shape"/>
</filter>
</defs>
</svg>
