<svg width="120" height="86" viewBox="0 0 120 86" fill="none" xmlns="http://www.w3.org/2000/svg">
<g filter="url(#filter0_b_6765_18220)">
<path d="M0 58.5278C0 73.7002 12.2657 86 27.3963 86H115.711C116.994 86 118.259 85.92 119.5 85.7646V24.9953C118.212 24.1942 117.222 22.9433 116.768 21.4586C112.969 9.0341 101.439 0 87.8042 0C77.7257 0 68.7969 4.93611 63.2908 12.529C61.9399 14.3919 59.6379 15.3757 57.3484 15.1443C56.5079 15.0594 55.6553 15.0159 54.7925 15.0159C45.3904 15.0159 37.1917 20.1825 32.8657 27.8388C31.7582 29.799 29.6477 31.0556 27.3963 31.0556C12.2657 31.0556 0 43.3553 0 58.5278Z" fill="white" fill-opacity="0.7"/>
<path d="M27.3963 85.5C12.5431 85.5 0.5 73.4254 0.5 58.5278C0.5 43.6301 12.5431 31.5556 27.3963 31.5556C29.8317 31.5556 32.1067 30.1986 33.301 28.0848C37.5422 20.5786 45.5784 15.5159 54.7925 15.5159C55.6385 15.5159 56.4743 15.5585 57.2981 15.6418C59.7573 15.8904 62.2358 14.8356 63.6956 12.8225C69.1118 5.35347 77.893 0.5 87.8042 0.5C101.212 0.5 112.553 9.38383 116.29 21.6048C116.752 23.1166 117.728 24.4012 119 25.2663V85.32C117.92 85.4389 116.823 85.5 115.711 85.5H27.3963Z" stroke="white" stroke-opacity="0.4"/>
</g>
<defs>
<filter id="filter0_b_6765_18220" x="-20" y="-20" width="159.5" height="126" filterUnits="userSpaceOnUse" color-interpolation-filters="sRGB">
<feFlood flood-opacity="0" result="BackgroundImageFix"/>
<feGaussianBlur in="BackgroundImageFix" stdDeviation="10"/>
<feComposite in2="SourceAlpha" operator="in" result="effect1_backgroundBlur_6765_18220"/>
<feBlend mode="normal" in="SourceGraphic" in2="effect1_backgroundBlur_6765_18220" result="shape"/>
</filter>
</defs>
</svg>
