<svg width="66" height="66" viewBox="0 0 66 66" fill="none" xmlns="http://www.w3.org/2000/svg">
<g id="&#235;&#170;&#168;&#236;&#158;&#144;">
<g id="Vector 77">
<path d="M47.585 44.1103C50.0515 43.6966 57.1462 44.746 61.7005 45.5517C62.764 45.7399 63.9041 45.2192 64.1318 44.1634C64.7367 41.3597 65.4228 35.4894 63.6046 28.0832C61.8197 22.5448 57.3601 18.1389 50.9857 16.4957C47.7703 15.4678 44.3144 15.2557 40.1937 15.337C36.0202 15.6071 32.5758 16.3303 29.4016 18.8132C25.0205 22.7914 21.3317 28.9675 20.2925 34.5564L4.56893 39.4103C3.93983 39.5237 3.36238 39.6919 2.88343 39.9307C2.47391 40.1348 2.13638 40.3904 1.90012 40.7074C1.23132 41.2123 0.590797 42.4854 2.41638 44.0214C3.17177 44.6569 4.21417 44.7733 5.17963 44.5672L18.5129 41.722C21.9756 43.2642 24.5904 46.5086 26.4049 48.7792C27.3554 49.9685 28.9197 50.3719 30.3631 49.8877L47.585 44.1103Z" fill="#0854AD" fill-opacity="0.8"/>
<path d="M50.9857 16.4957C57.3601 18.1389 61.8197 22.5448 63.6046 28.0832C65.4228 35.4894 64.7367 41.3597 64.1318 44.1634C63.9041 45.2192 62.764 45.7399 61.7005 45.5517C57.1462 44.746 50.0515 43.6966 47.585 44.1103M50.9857 16.4957C47.7703 15.4678 44.3144 15.2557 40.1937 15.337M50.9857 16.4957C51.5364 22.7693 51.5387 28.5102 50.2423 34.5564C49.1402 38.237 48.243 41.3951 47.585 44.1103M20.2925 34.5564L2.88343 39.9307M20.2925 34.5564H26.226M20.2925 34.5564C21.3317 28.9675 25.0205 22.7914 29.4016 18.8132C32.5758 16.3303 36.0202 15.6071 40.1937 15.337M47.585 44.1103L30.3631 49.8877C28.9197 50.3719 27.3554 49.9685 26.4049 48.7792C24.5904 46.5086 21.9756 43.2642 18.5129 41.722M47.585 44.1103C43.4321 41.722 35.719 35.7503 26.226 34.5564M18.5129 41.722C16.1395 40.6649 13.5214 39.8355 10.7998 39.5132C8.82034 39.1812 4.94213 38.9046 2.88343 39.9307M18.5129 41.722L5.17963 44.5672C4.21417 44.7733 3.17177 44.6569 2.41638 44.0214C0.590796 42.4854 1.23132 41.2123 1.90012 40.7074C2.13638 40.3904 2.47391 40.1348 2.88343 39.9307M26.226 34.5564C27.043 23.9764 36.0781 17.268 40.1937 15.337" stroke="white" stroke-opacity="0.5" stroke-linejoin="round"/>
</g>
</g>
</svg>
