<svg width="66" height="66" viewBox="0 0 66 66" fill="none" xmlns="http://www.w3.org/2000/svg">
<g id="&#235;&#175;&#188;&#236;&#134;&#140;&#235;&#167;&#164;">
<g id="Group 67">
<path id="Rectangle 260" d="M15.9044 65.0001H49.7664C50.3708 65.0001 50.8366 64.4667 50.7611 63.8669C49.6859 55.3287 49.522 48.6096 50.7154 36.7921C50.8379 35.5788 50.7485 34.3482 50.438 33.1689L50.2619 32.5C49.4441 27.0253 49.2338 23.8323 49.5639 18.5703C49.5928 18.1093 49.3059 17.6848 48.8655 17.5453L44.7588 16.2453C44.2321 16.0786 43.6685 16.3742 43.5036 16.9016C42.1435 21.2506 42.7781 19.5874 41.6638 23.136C41.4031 23.9659 40.6317 24.5283 39.7618 24.5283H25.9292C25.0425 24.5283 24.2606 23.9426 24.0119 23.0915C22.8935 19.2649 23.5203 21.2291 22.1536 16.9012C21.9872 16.3743 21.4238 16.0786 20.8971 16.2453L16.78 17.5486C16.3444 17.6865 16.0582 18.1038 16.0819 18.5601C16.3567 23.8333 16.262 27.0109 15.394 32.5L15.2508 33.044C14.919 34.3044 14.8401 35.6201 15.0014 36.9134C16.3262 47.5321 16.3051 53.859 14.9116 63.8544C14.8274 64.4582 15.2948 65.0001 15.9044 65.0001Z" fill="#298CFF" fill-opacity="0.8" stroke="white" stroke-opacity="0.5" stroke-linejoin="round"/>
<path id="Union" fill-rule="evenodd" clip-rule="evenodd" d="M35.7011 9.70821C35.0864 10.0557 34.4091 10.2866 33.7075 10.3919V12.5349C33.8391 12.5737 33.9685 12.6215 34.0947 12.6783L56.987 22.9738C59.8011 24.2394 58.8408 28.2076 55.7205 28.2076H9.93572C6.81542 28.2076 5.85511 24.2394 8.66915 22.9738L31.5615 12.6783C31.6877 12.6215 31.817 12.5737 31.9486 12.5349V9.0577C31.9486 8.91884 32.0686 8.80628 32.2165 8.80628C32.99 8.7782 34.184 8.53122 34.7434 8.21505C35.3726 7.85944 35.8753 7.33666 36.188 6.71284C36.5007 6.08902 36.6093 5.39216 36.5001 4.7104C36.3909 4.02863 36.0688 3.39257 35.5745 2.88266C35.0802 2.37275 34.4359 2.01188 33.7232 1.84569C33.0104 1.67951 32.2612 1.71546 31.5702 1.94901C30.8792 2.18257 30.2775 2.60323 29.8412 3.1578C29.5216 3.56407 29.3012 4.02885 29.1926 4.51914C29.1267 4.81675 28.8568 5.05301 28.5333 5.0387L27.8501 5.00847C27.5266 4.99415 27.2736 4.73558 27.3228 4.43513C27.4593 3.60033 27.8098 2.8061 28.3478 2.12234C29.0022 1.29048 29.9048 0.659492 30.9413 0.309164C31.9777 -0.0411649 33.1016 -0.0950986 34.1707 0.154183C35.2399 0.403464 36.2062 0.944764 36.9477 1.70963C37.6891 2.4745 38.1722 3.42858 38.3361 4.45123C38.4999 5.47388 38.337 6.51916 37.8679 7.45489C37.3989 8.39063 36.6448 9.17479 35.7011 9.70821ZM33.3347 14.1674L56.2271 24.4629C57.3527 24.9691 56.9686 26.5564 55.7205 26.5564H9.93572C8.6876 26.5564 8.30347 24.9691 9.42909 24.4629L32.3215 14.1674C32.6418 14.0233 33.0144 14.0233 33.3347 14.1674Z" fill="black"/>
<g id="Rectangle 259">
<path d="M16.0819 18.5601C16.0582 18.1038 16.3444 17.6865 16.78 17.5486L20.63 16.3299C21.2502 16.1335 21.8896 16.5736 21.9329 17.2227C22.2857 22.5124 22.7173 25.8856 24.209 31.1122C24.35 31.6063 24.6929 32.0193 25.1503 32.2532C29.9718 34.7187 35.7029 34.7091 40.5244 32.2436C40.9699 32.0158 41.3097 31.6178 41.4557 31.1392C42.9588 26.209 43.2751 22.7061 43.7067 17.1994C43.757 16.5576 44.3916 16.1291 45.0054 16.3234L48.8655 17.5453C49.3059 17.6848 49.5928 18.1093 49.5639 18.5703C49.2338 23.8323 49.4441 27.0253 50.2619 32.5L50.438 33.1689C50.7485 34.3482 50.8379 35.5788 50.7154 36.7921C49.522 48.6096 49.6859 55.3287 50.7611 63.8669C50.8366 64.4667 50.3708 65.0001 49.7664 65.0001H15.9044C15.2948 65.0001 14.8274 64.4582 14.9116 63.8544C16.3051 53.859 16.3262 47.5321 15.0014 36.9134C14.8401 35.6201 14.919 34.3044 15.2508 33.044L15.394 32.5C16.262 27.0109 16.3567 23.8333 16.0819 18.5601Z" fill="white"/>
<path d="M16.0819 18.5601C16.0582 18.1038 16.3444 17.6865 16.78 17.5486L20.63 16.3299C21.2502 16.1335 21.8896 16.5736 21.9329 17.2227C22.2857 22.5124 22.7173 25.8856 24.209 31.1122C24.35 31.6063 24.6929 32.0193 25.1503 32.2532C29.9718 34.7187 35.7029 34.7091 40.5244 32.2436C40.9699 32.0158 41.3097 31.6178 41.4557 31.1392C42.9588 26.209 43.2751 22.7061 43.7067 17.1994C43.757 16.5576 44.3916 16.1291 45.0054 16.3234L48.8655 17.5453C49.3059 17.6848 49.5928 18.1093 49.5639 18.5703C49.2338 23.8323 49.4441 27.0253 50.2619 32.5L50.438 33.1689C50.7485 34.3482 50.8379 35.5788 50.7154 36.7921C49.522 48.6096 49.6859 55.3287 50.7611 63.8669C50.8366 64.4667 50.3708 65.0001 49.7664 65.0001H15.9044C15.2948 65.0001 14.8274 64.4582 14.9116 63.8544C16.3051 53.859 16.3262 47.5321 15.0014 36.9134C14.8401 35.6201 14.919 34.3044 15.2508 33.044L15.394 32.5C16.262 27.0109 16.3567 23.8333 16.0819 18.5601Z" fill="#5EB0FF" fill-opacity="0.8"/>
<path d="M16.0819 18.5601C16.0582 18.1038 16.3444 17.6865 16.78 17.5486L20.63 16.3299C21.2502 16.1335 21.8896 16.5736 21.9329 17.2227C22.2857 22.5124 22.7173 25.8856 24.209 31.1122C24.35 31.6063 24.6929 32.0193 25.1503 32.2532C29.9718 34.7187 35.7029 34.7091 40.5244 32.2436C40.9699 32.0158 41.3097 31.6178 41.4557 31.1392C42.9588 26.209 43.2751 22.7061 43.7067 17.1994C43.757 16.5576 44.3916 16.1291 45.0054 16.3234L48.8655 17.5453C49.3059 17.6848 49.5928 18.1093 49.5639 18.5703C49.2338 23.8323 49.4441 27.0253 50.2619 32.5L50.438 33.1689C50.7485 34.3482 50.8379 35.5788 50.7154 36.7921C49.522 48.6096 49.6859 55.3287 50.7611 63.8669C50.8366 64.4667 50.3708 65.0001 49.7664 65.0001H15.9044C15.2948 65.0001 14.8274 64.4582 14.9116 63.8544C16.3051 53.859 16.3262 47.5321 15.0014 36.9134C14.8401 35.6201 14.919 34.3044 15.2508 33.044L15.394 32.5C16.262 27.0109 16.3567 23.8333 16.0819 18.5601Z" stroke="white" stroke-opacity="0.5" stroke-linejoin="round"/>
</g>
</g>
</g>
</svg>
