<svg width="66" height="66" viewBox="0 0 66 66" fill="none" xmlns="http://www.w3.org/2000/svg">
<g id="&#235;&#176;&#152;&#237;&#140;&#148;&#237;&#139;&#176;" clip-path="url(#clip0_6551_19400)">
<g id="Group 65">
<g id="Subtract">
<path d="M17.296 16.1463L20.9119 14.898C21.1937 14.8007 21.49 14.7519 21.7882 14.7537L44.262 14.891C44.539 14.8927 44.8141 14.9381 45.077 15.0254L48.6201 16.2025C54.309 18.0923 58.9247 22.3139 61.3135 27.8119L64.9349 36.1467C65.5379 37.5348 64.8511 39.1445 63.4316 39.6695L52.8454 43.5853V63.4093C52.8454 64.8651 51.6652 66.0453 50.2093 66.0453H15.8815C14.4256 66.0453 13.2454 64.8651 13.2454 63.4093V43.5853L2.65919 39.6695C1.23975 39.1445 0.552868 37.5348 1.15597 36.1467L4.83606 27.6767C7.19066 22.2574 11.7108 18.0745 17.296 16.1463Z" fill="#FFC329" fill-opacity="0.8"/>
<path d="M13.2454 43.5853L2.65919 39.6695C1.23975 39.1445 0.552868 37.5348 1.15597 36.1467L4.83606 27.6767C7.19066 22.2574 11.7108 18.0745 17.296 16.1463L20.9119 14.898C21.1937 14.8007 21.49 14.7519 21.7882 14.7537L44.262 14.891C44.539 14.8927 44.8141 14.9381 45.077 15.0254L48.6201 16.2025C54.309 18.0923 58.9247 22.3139 61.3135 27.8119L64.9349 36.1467C65.538 37.5348 64.8511 39.1445 63.4316 39.6695L52.8454 43.5853M13.2454 43.5853V63.4093C13.2454 64.8651 14.4256 66.0453 15.8815 66.0453H50.2093C51.6652 66.0453 52.8454 64.8651 52.8454 63.4093V43.5853M13.2454 43.5853V34.7966M52.8454 43.5853V34.7966" stroke="white" stroke-opacity="0.4" stroke-width="1.31805" stroke-linecap="round"/>
</g>
<path id="Union" fill-rule="evenodd" clip-rule="evenodd" d="M35.7987 9.12107C35.2097 9.44913 34.5607 9.66715 33.8884 9.76659V11.79C34.0145 11.8267 34.1385 11.8718 34.2594 11.9254L56.1962 21.6464C58.8927 22.8414 57.9725 26.5882 54.9825 26.5882H11.1088C8.11877 26.5882 7.19856 22.8414 9.89513 21.6464L31.832 11.9254C31.9528 11.8718 32.0768 11.8267 32.2029 11.79V8.50686C32.2029 8.37576 32.3178 8.26947 32.4596 8.26947C33.2008 8.24296 34.345 8.00977 34.881 7.71124C35.484 7.37547 35.9657 6.88187 36.2653 6.29285C36.5649 5.70384 36.669 5.04587 36.5644 4.40214C36.4597 3.75842 36.1511 3.15786 35.6774 2.6764C35.2038 2.19494 34.5864 1.85421 33.9034 1.69729C33.2204 1.54038 32.5024 1.57433 31.8403 1.79485C31.1781 2.01537 30.6015 2.41255 30.1834 2.93618C29.8771 3.31979 29.666 3.75863 29.5619 4.22156C29.4988 4.50256 29.2401 4.72564 28.9302 4.71213L28.2754 4.68358C27.9655 4.67007 27.723 4.42593 27.7701 4.14224C27.901 3.35402 28.2368 2.60411 28.7523 1.9585C29.3795 1.17306 30.2444 0.577282 31.2376 0.246502C32.2308 -0.084278 33.3077 -0.135202 34.3322 0.100169C35.3568 0.335541 36.2828 0.846636 36.9933 1.56882C37.7037 2.29101 38.1667 3.19186 38.3237 4.15744C38.4807 5.12302 38.3246 6.10998 37.8751 6.9935C37.4257 7.87702 36.7031 8.61742 35.7987 9.12107ZM33.5311 13.3314L55.468 23.0525C56.5466 23.5304 56.1785 25.0292 54.9825 25.0292H11.1088C9.91281 25.0292 9.54472 23.5304 10.6234 23.0525L32.5602 13.3314C32.8671 13.1954 33.2242 13.1954 33.5311 13.3314Z" fill="black"/>
<g id="Subtract_2">
<path fill-rule="evenodd" clip-rule="evenodd" d="M43.6922 14.6323C42.4649 14.2305 41.1406 14.7854 40.5196 15.9177C38.8065 19.041 37.2021 20.9259 32.9965 20.9259C28.7495 20.9259 27.1586 19.0996 25.4675 15.9555C24.8494 14.8063 23.5124 14.2376 22.273 14.6458L17.5087 16.2151C11.7974 18.0964 7.16075 22.3263 4.76451 27.8414L1.15597 36.1467C0.552868 37.5348 1.23975 39.1445 2.65919 39.6696L13.2454 43.5854V63.4093C13.2454 64.8652 14.4256 66.0454 15.8815 66.0454H50.2093C51.6652 66.0454 52.8454 64.8652 52.8454 63.4093V43.5854L63.4316 39.6696C64.8511 39.1445 65.5379 37.5348 64.9349 36.1467L61.3355 27.8625C58.9339 22.3352 54.2823 18.0993 48.5549 16.2243L43.6922 14.6323Z" fill="white"/>
<path fill-rule="evenodd" clip-rule="evenodd" d="M43.6922 14.6323C42.4649 14.2305 41.1406 14.7854 40.5196 15.9177C38.8065 19.041 37.2021 20.9259 32.9965 20.9259C28.7495 20.9259 27.1586 19.0996 25.4675 15.9555C24.8494 14.8063 23.5124 14.2376 22.273 14.6458L17.5087 16.2151C11.7974 18.0964 7.16075 22.3263 4.76451 27.8414L1.15597 36.1467C0.552868 37.5348 1.23975 39.1445 2.65919 39.6696L13.2454 43.5854V63.4093C13.2454 64.8652 14.4256 66.0454 15.8815 66.0454H50.2093C51.6652 66.0454 52.8454 64.8652 52.8454 63.4093V43.5854L63.4316 39.6696C64.8511 39.1445 65.5379 37.5348 64.9349 36.1467L61.3355 27.8625C58.9339 22.3352 54.2823 18.0993 48.5549 16.2243L43.6922 14.6323Z" fill="#FFD65E" fill-opacity="0.8"/>
<path d="M13.2454 43.5854L2.65919 39.6696C1.23975 39.1445 0.552868 37.5348 1.15597 36.1467L4.76451 27.8414C7.16075 22.3263 11.7974 18.0964 17.5087 16.2151L22.273 14.6458C23.5124 14.2376 24.8494 14.8063 25.4675 15.9555C27.1586 19.0996 28.7495 20.9259 32.9965 20.9259C37.2021 20.9259 38.8065 19.041 40.5196 15.9177C41.1406 14.7854 42.4649 14.2305 43.6922 14.6323L48.5549 16.2243C54.2823 18.0993 58.9339 22.3352 61.3355 27.8625L64.9349 36.1467C65.538 37.5348 64.8511 39.1445 63.4316 39.6696L52.8454 43.5854M13.2454 43.5854V63.4093C13.2454 64.8652 14.4256 66.0454 15.8815 66.0454H50.2093C51.6652 66.0454 52.8454 64.8652 52.8454 63.4093V43.5854M13.2454 43.5854V34.7966M52.8454 43.5854V34.7966" stroke="white" stroke-opacity="0.4" stroke-width="1.31805" stroke-linecap="round"/>
</g>
</g>
</g>
<defs>
<clipPath id="clip0_6551_19400">
<rect width="66" height="66" fill="white"/>
</clipPath>
</defs>
</svg>
