<svg width="70" height="66" viewBox="0 0 70 66" fill="none" xmlns="http://www.w3.org/2000/svg">
<g filter="url(#filter0_bd_6551_19445)">
<path fill-rule="evenodd" clip-rule="evenodd" d="M55.7169 19.5302C55.0576 18.4978 54.1194 17.9207 53.2355 17.941C51.7685 17.9748 50.4327 18.4686 48.134 19.918C47.5008 20.3173 46.6477 20.1521 46.2285 19.549C45.8093 18.9459 45.9827 18.1334 46.6159 17.7341C49.0626 16.1913 50.9267 15.3743 53.1689 15.3226C55.3905 15.2714 57.1114 16.6737 58.0664 18.169L58.1419 18.2872C62.2545 24.7266 65.2945 29.4865 67.3361 36.7856C67.7552 37.5978 67.9929 38.5039 67.9993 39.5058C68.0003 39.5344 68.0002 39.563 67.9993 39.5913C67.9796 42.4883 66.0165 45.2703 63.2213 47.2686C60.3746 49.3037 56.4766 50.6788 52.1871 50.6788C50.1283 50.6788 47.9535 50.5805 45.9364 50.2712C43.9368 49.9646 41.9883 49.4358 40.4529 48.512C40.396 48.4777 40.3417 48.4395 40.2907 48.3977C38.3607 46.8168 37.2884 44.2325 36.6475 42.0242C36.0352 41.8658 35.5007 41.7999 34.9887 41.8047C34.4775 41.8095 33.9489 41.8851 33.3465 42.0436C32.7052 44.247 31.6337 46.8212 29.709 48.3977C29.6579 48.4395 29.6037 48.4777 29.5468 48.512C28.0114 49.4358 26.0628 49.9646 24.0633 50.2712C22.0462 50.5805 19.8713 50.6788 17.8125 50.6788C13.5231 50.6788 9.62506 49.3037 6.77839 47.2686C3.97823 45.2667 2.0131 42.4784 2.00031 39.5759C1.9999 39.5577 1.9999 39.5395 2.0003 39.5212C2.00435 38.5126 2.24261 37.6008 2.66432 36.7841C4.70591 29.4858 7.74578 24.7261 11.8581 18.2872L11.9336 18.169C12.8886 16.6737 14.6095 15.2714 16.8311 15.3227C19.0733 15.3743 20.9374 16.1913 23.3841 17.7341C24.0173 18.1334 24.1907 18.9459 23.7715 19.549C23.3523 20.1521 22.4992 20.3173 21.866 19.918C19.5673 18.4686 18.2315 17.9748 16.7645 17.941C15.8806 17.9207 14.9424 18.4978 14.2831 19.5302L14.2646 19.5591C11.0594 24.5777 8.60997 28.413 6.76828 33.1168C6.84539 33.0793 6.92308 33.0423 7.00132 33.006C9.8658 31.6761 13.7026 31.0352 17.8125 31.0352C20.2526 31.0352 22.6245 31.1584 24.7501 31.5729C26.874 31.987 28.8405 32.7085 30.3916 33.967C31.6529 34.9905 32.5488 36.476 33.0705 37.927C34.4258 38.106 35.5559 38.1273 36.9207 37.9507C37.4413 36.4918 38.3402 34.9958 39.6081 33.967C41.1591 32.7085 43.1257 31.987 45.2496 31.5729C47.3751 31.1584 49.747 31.0352 52.1871 31.0352C56.2971 31.0352 60.1338 31.6761 62.9983 33.006C63.0767 33.0424 63.1545 33.0794 63.2318 33.117C61.3901 28.4131 58.9406 24.5778 55.7354 19.5591L55.7169 19.5302Z" fill="black"/>
<path d="M27.7971 46.3969C29.1126 45.3906 29.9618 43.7371 30.529 42.0981C30.7803 41.3721 30.8294 40.5948 30.7404 39.8317C30.7041 39.5202 30.6477 39.2105 30.5427 38.915C30.1353 37.769 29.4045 36.6161 28.42 35.87C26.0424 34.0683 22.1851 33.6538 17.831 33.6538C10.6068 33.6538 4.75049 35.7704 4.75049 39.7484C4.75049 43.7263 10.6068 48.0591 17.831 48.0591C21.4911 48.0591 25.4229 47.731 27.7971 46.3969Z" fill="#D9D9D9" fill-opacity="0.3"/>
<path d="M42.2029 46.3969C40.8874 45.3906 40.0382 43.7371 39.471 42.0981C39.2197 41.3721 39.1706 40.5948 39.2596 39.8317C39.2959 39.5202 39.3523 39.2105 39.4573 38.915C39.8647 37.769 40.5955 36.6161 41.58 35.87C43.9576 34.0683 47.8149 33.6538 52.169 33.6538C59.3932 33.6538 65.2495 35.7704 65.2495 39.7484C65.2495 43.7263 59.3932 48.0591 52.169 48.0591C48.5089 48.0591 44.5771 47.731 42.2029 46.3969Z" fill="#D9D9D9" fill-opacity="0.3"/>
</g>
<defs>
<filter id="filter0_bd_6551_19445" x="-8" y="5.32129" width="86" height="55.3574" filterUnits="userSpaceOnUse" color-interpolation-filters="sRGB">
<feFlood flood-opacity="0" result="BackgroundImageFix"/>
<feGaussianBlur in="BackgroundImageFix" stdDeviation="5"/>
<feComposite in2="SourceAlpha" operator="in" result="effect1_backgroundBlur_6551_19445"/>
<feColorMatrix in="SourceAlpha" type="matrix" values="0 0 0 0 0 0 0 0 0 0 0 0 0 0 0 0 0 0 127 0" result="hardAlpha"/>
<feOffset dy="1"/>
<feGaussianBlur stdDeviation="1"/>
<feComposite in2="hardAlpha" operator="out"/>
<feColorMatrix type="matrix" values="0 0 0 0 0 0 0 0 0 0 0 0 0 0 0 0 0 0 0.1 0"/>
<feBlend mode="normal" in2="effect1_backgroundBlur_6551_19445" result="effect2_dropShadow_6551_19445"/>
<feBlend mode="normal" in="SourceGraphic" in2="effect2_dropShadow_6551_19445" result="shape"/>
</filter>
</defs>
</svg>
