<svg width="66" height="66" viewBox="0 0 66 66" fill="none" xmlns="http://www.w3.org/2000/svg">
<g id="&#236;&#132;&#160;&#234;&#184;&#128;&#235;&#157;&#188;&#236;&#138;&#164;" clip-path="url(#clip0_6551_19445)">
<g id="Group 70" filter="url(#filter0_bd_6551_19445)">
<path id="Union" fill-rule="evenodd" clip-rule="evenodd" d="M53.7169 19.5302C53.0576 18.4978 52.1194 17.9207 51.2355 17.941C49.7685 17.9748 48.4327 18.4686 46.134 19.918C45.5008 20.3173 44.6477 20.1521 44.2285 19.549C43.8093 18.9459 43.9827 18.1334 44.6159 17.7341C47.0626 16.1913 48.9267 15.3743 51.1689 15.3226C53.3905 15.2714 55.1114 16.6737 56.0664 18.169L56.1419 18.2872C60.2545 24.7266 63.2945 29.4865 65.3361 36.7856C65.7552 37.5978 65.9929 38.5039 65.9993 39.5058C66.0003 39.5344 66.0002 39.563 65.9993 39.5913C65.9796 42.4883 64.0165 45.2703 61.2213 47.2686C58.3746 49.3037 54.4766 50.6788 50.1871 50.6788C48.1283 50.6788 45.9535 50.5805 43.9364 50.2712C41.9368 49.9646 39.9883 49.4358 38.4529 48.512C38.396 48.4777 38.3417 48.4395 38.2907 48.3977C36.3607 46.8168 35.2884 44.2325 34.6475 42.0242C34.0352 41.8658 33.5007 41.7999 32.9887 41.8047C32.4775 41.8095 31.9489 41.8851 31.3465 42.0436C30.7052 44.247 29.6337 46.8212 27.709 48.3977C27.6579 48.4395 27.6037 48.4777 27.5468 48.512C26.0114 49.4358 24.0628 49.9646 22.0633 50.2712C20.0462 50.5805 17.8713 50.6788 15.8125 50.6788C11.5231 50.6788 7.62506 49.3037 4.77839 47.2686C1.97823 45.2667 0.0131041 42.4784 0.000307014 39.5759C-9.78042e-05 39.5577 -0.000103383 39.5395 0.000296782 39.5212C0.0043524 38.5126 0.24261 37.6008 0.664317 36.7841C2.70591 29.4858 5.74578 24.7261 9.85813 18.2872L9.93363 18.169C10.8886 16.6737 12.6095 15.2714 14.8311 15.3227C17.0733 15.3743 18.9374 16.1913 21.3841 17.7341C22.0173 18.1334 22.1907 18.9459 21.7715 19.549C21.3523 20.1521 20.4992 20.3173 19.866 19.918C17.5673 18.4686 16.2315 17.9748 14.7645 17.941C13.8806 17.9207 12.9424 18.4978 12.2831 19.5302L12.2646 19.5591C9.05942 24.5777 6.60997 28.413 4.76828 33.1168C4.84539 33.0793 4.92308 33.0423 5.00132 33.006C7.8658 31.6761 11.7026 31.0352 15.8125 31.0352C18.2526 31.0352 20.6245 31.1584 22.7501 31.5729C24.874 31.987 26.8405 32.7085 28.3916 33.967C29.6529 34.9905 30.5488 36.476 31.0705 37.927C32.4258 38.106 33.5559 38.1273 34.9207 37.9507C35.4413 36.4918 36.3402 34.9958 37.6081 33.967C39.1591 32.7085 41.1257 31.987 43.2496 31.5729C45.3751 31.1584 47.747 31.0352 50.1871 31.0352C54.2971 31.0352 58.1338 31.6761 60.9983 33.006C61.0767 33.0424 61.1545 33.0794 61.2318 33.117C59.3901 28.4131 56.9406 24.5778 53.7354 19.5591L53.7169 19.5302Z" fill="black"/>
<path id="Union_2" d="M25.7971 46.3969C27.1126 45.3906 27.9618 43.7371 28.529 42.0981C28.7803 41.3721 28.8294 40.5948 28.7404 39.8317C28.7041 39.5202 28.6477 39.2105 28.5427 38.915C28.1353 37.769 27.4045 36.6161 26.42 35.87C24.0424 34.0683 20.1851 33.6538 15.831 33.6538C8.60683 33.6538 2.75049 35.7704 2.75049 39.7484C2.75049 43.7263 8.60683 48.0591 15.831 48.0591C19.4911 48.0591 23.4229 47.731 25.7971 46.3969Z" fill="#D9D9D9" fill-opacity="0.3"/>
<path id="Union_3" d="M40.2029 46.3969C38.8874 45.3906 38.0382 43.7371 37.471 42.0981C37.2197 41.3721 37.1706 40.5948 37.2596 39.8317C37.2959 39.5202 37.3523 39.2105 37.4573 38.915C37.8647 37.769 38.5955 36.6161 39.58 35.87C41.9576 34.0683 45.8149 33.6538 50.169 33.6538C57.3932 33.6538 63.2495 35.7704 63.2495 39.7484C63.2495 43.7263 57.3932 48.0591 50.169 48.0591C46.5089 48.0591 42.5771 47.731 40.2029 46.3969Z" fill="#D9D9D9" fill-opacity="0.3"/>
</g>
</g>
<defs>
<filter id="filter0_bd_6551_19445" x="-10" y="5.32129" width="86" height="55.3574" filterUnits="userSpaceOnUse" color-interpolation-filters="sRGB">
<feFlood flood-opacity="0" result="BackgroundImageFix"/>
<feGaussianBlur in="BackgroundImageFix" stdDeviation="5"/>
<feComposite in2="SourceAlpha" operator="in" result="effect1_backgroundBlur_6551_19445"/>
<feColorMatrix in="SourceAlpha" type="matrix" values="0 0 0 0 0 0 0 0 0 0 0 0 0 0 0 0 0 0 127 0" result="hardAlpha"/>
<feOffset dy="1"/>
<feGaussianBlur stdDeviation="1"/>
<feComposite in2="hardAlpha" operator="out"/>
<feColorMatrix type="matrix" values="0 0 0 0 0 0 0 0 0 0 0 0 0 0 0 0 0 0 0.1 0"/>
<feBlend mode="normal" in2="effect1_backgroundBlur_6551_19445" result="effect2_dropShadow_6551_19445"/>
<feBlend mode="normal" in="SourceGraphic" in2="effect2_dropShadow_6551_19445" result="shape"/>
</filter>
<clipPath id="clip0_6551_19445">
<rect width="66" height="66" fill="white"/>
</clipPath>
</defs>
</svg>
