<svg width="66" height="66" viewBox="0 0 66 66" fill="none" xmlns="http://www.w3.org/2000/svg">
<g clip-path="url(#clip0_6551_19437)">
<path d="M32.4993 35.0605L23.0821 50.7891" stroke="#E6E6E6" stroke-opacity="0.6"/>
<path d="M14.9176 14.7863C24.9048 17.8869 30.3052 19.7624 39.5622 23.2639C47.2547 29.2238 51.8731 32.5216 59.4983 39.6057C62.1956 44.4137 62.0344 47.1123 62.7913 51.9248C61.6662 52.8259 60.926 52.2665 60.4543 50.3793C59.2147 51.3872 58.4832 50.9277 58.3302 48.9975C56.9377 50.1313 56.1622 49.7604 56.0818 47.5638C54.7454 48.7417 54.0099 48.2214 53.8176 46.1563C52.4644 47.7153 51.8109 47.1869 51.5348 44.78C50.0383 46.1496 49.3008 45.6097 49.2305 43.4394C47.6317 45.0282 46.9816 44.2929 46.903 42.1378C45.0175 43.9377 44.5467 42.8886 44.5516 40.8761C42.4681 42.7121 42.2554 41.8298 42.1769 39.6531C40.5889 41.1349 39.8127 40.6696 39.7813 38.4653C37.467 40.2723 37.9412 39.1466 37.3769 37.3119C35.8836 38.6197 35.0241 38.3359 34.9392 36.1743C33.4689 37.4024 32.5634 37.2623 32.4993 35.0603C30.6749 35.888 30.1328 35.6537 30.2481 33.6312C28.4225 34.572 27.8396 33.8741 27.9881 32.2168C25.8305 33.3159 25.5304 32.7693 25.7172 30.8206C23.9859 31.9659 23.1737 31.5621 23.4332 29.4461C21.5191 30.5008 21.0781 30.1125 21.1343 28.0968C19.0713 29.3571 18.5448 28.5941 18.8188 26.775C16.6688 27.9111 16.3583 27.3635 16.4863 25.4817C14.3453 26.6119 13.7405 25.9908 14.1372 24.2161C11.9614 25.327 11.465 25.0452 11.7729 22.9758C9.5249 24.0589 8.91354 23.4705 9.39554 21.7574C6.9895 22.7937 6.75715 22.2277 7.00735 20.5571C4.83434 21.4525 4.23619 20.8748 4.61062 19.371C2.58844 20.3665 1.85496 19.9033 2.20737 18.1958C6.71669 16.5681 9.05331 15.5248 14.9176 14.7863Z" fill="#CBB3E4"/>
<path d="M39.5622 23.2639C30.3052 19.7624 24.9048 17.8869 14.9176 14.7863M39.5622 23.2639C47.2547 29.2238 51.8731 32.5216 59.4983 39.6057M39.5622 23.2639C39.1382 23.9721 38.9206 24.3356 37.8806 26.0726M14.9176 14.7863C9.05331 15.5248 6.71669 16.5681 2.20737 18.1958M14.9176 14.7863L37.8806 26.0726M2.20737 18.1958C1.85496 19.9033 2.58844 20.3665 4.61062 19.371M2.20737 18.1958L4.61062 19.371M32.4993 35.0603C33.6544 33.1312 36.2808 28.7445 37.8806 26.0726M32.4993 35.0603C31.7285 34.568 30.9792 34.0922 30.2481 33.6312M32.4993 35.0603C30.6749 35.888 30.1328 35.6537 30.2481 33.6312M32.4993 35.0603C32.5634 37.2623 33.4689 37.4024 34.9392 36.1743M32.4993 35.0603L34.9392 36.1743M59.4983 39.6057C62.1956 44.4137 62.0344 47.1123 62.7913 51.9248C61.6662 52.8259 60.926 52.2665 60.4543 50.3793C59.2147 51.3872 58.4832 50.9277 58.3302 48.9975M59.4983 39.6057L37.8806 26.0726M4.61062 19.371C4.23619 20.8748 4.83434 21.4525 7.00735 20.5571M7.00735 20.5571C7.82571 20.9649 8.62035 21.3642 9.39554 21.7574M7.00735 20.5571C6.75715 22.2277 6.9895 22.7937 9.39554 21.7574M9.39554 21.7574C8.91354 23.4705 9.5249 24.0589 11.7729 22.9758M11.7729 22.9758C12.5769 23.3924 13.3632 23.8048 14.1372 24.2161M11.7729 22.9758C11.465 25.0452 11.9614 25.327 14.1372 24.2161M14.1372 24.2161C13.7405 25.9908 14.3453 26.6119 16.4863 25.4817M16.4863 25.4817C17.2689 25.9093 18.0444 26.3393 18.8188 26.775M16.4863 25.4817C16.3583 27.3635 16.6688 27.9111 18.8188 26.775M18.8188 26.775C18.5448 28.5941 19.0713 29.3571 21.1343 28.0968M21.1343 28.0968C21.8939 28.5367 22.6583 28.9854 23.4332 29.4461M21.1343 28.0968C21.0781 30.1125 21.5191 30.5008 23.4332 29.4461M23.4332 29.4461C23.1737 31.5621 23.9859 31.9659 25.7172 30.8206M25.7172 30.8206C26.4589 31.272 27.2144 31.7366 27.9881 32.2168M25.7172 30.8206C25.5304 32.7693 25.8305 33.3159 27.9881 32.2168M27.9881 32.2168C27.8396 33.8741 28.4225 34.572 30.2481 33.6312M34.9392 36.1743C35.0241 38.3359 35.8836 38.6197 37.3769 37.3119M37.3769 37.3119C38.1988 37.7004 38.9986 38.0839 39.7813 38.4653M37.3769 37.3119C37.9412 39.1466 37.467 40.2723 39.7813 38.4653M39.7813 38.4653C39.8127 40.6696 40.5889 41.1349 42.1769 39.6531M42.1769 39.6531C42.9804 40.0588 43.7699 40.4654 44.5516 40.8761M42.1769 39.6531C42.2554 41.8298 42.4681 42.7121 44.5516 40.8761M44.5516 40.8761C44.5467 42.8886 45.0175 43.9377 46.903 42.1378M46.903 42.1378C46.9816 44.2929 47.6317 45.0282 49.2305 43.4394M46.903 42.1378L49.2305 43.4394M49.2305 43.4394C49.3008 45.6097 50.0383 46.1496 51.5348 44.78M51.5348 44.78C51.8109 47.1869 52.4644 47.7153 53.8176 46.1563M51.5348 44.78L53.8176 46.1563M53.8176 46.1563C54.0099 48.2214 54.7454 48.7417 56.0818 47.5638M56.0818 47.5638C56.1622 49.7604 56.9377 50.1313 58.3302 48.9975M56.0818 47.5638L58.3302 48.9975" stroke="white" stroke-opacity="0.5" stroke-linejoin="round"/>
<path d="M41.0079 21.8218C41.1498 21.5849 41.0692 21.284 40.8279 21.1496C40.5866 21.0153 40.276 21.0985 40.1342 21.3354L41.0079 21.8218ZM40.3352 22.9453L41.0079 21.8218L40.1342 21.3354L39.4615 22.4589L40.3352 22.9453Z" fill="#93620D"/>
<rect width="3.92491" height="2.61889" rx="1" transform="matrix(0.873721 0.486427 -0.513697 0.857972 21.3674 49.835)" fill="#93620D"/>
</g>
<defs>
<clipPath id="clip0_6551_19437">
<rect width="66" height="66" fill="white"/>
</clipPath>
</defs>
</svg>
