<svg width="66" height="66" viewBox="0 0 66 66" fill="none" xmlns="http://www.w3.org/2000/svg">
<g id="&#236;&#167;&#167;&#236;&#157;&#128; &#236;&#185;&#152;&#235;&#167;&#136;">
<g id="Group 58">
<path id="Vector 36" d="M8.49943 62.6924L10.4916 31.871C10.5596 30.8187 11.433 30 12.4875 30H53.7525C54.807 30 55.6804 30.8187 55.7484 31.871L57.7405 62.6924C57.815 63.8453 56.9 64.8214 55.7447 64.8214H35.3707H30.8692H10.4953C9.33994 64.8214 8.42491 63.8453 8.49943 62.6924Z" fill="#333333" stroke="white" stroke-opacity="0.5" stroke-linejoin="round"/>
<path id="Union" fill-rule="evenodd" clip-rule="evenodd" d="M36.1243 10.1242C35.4816 10.4866 34.7733 10.7274 34.0397 10.8372V13.072C34.1772 13.1125 34.3125 13.1624 34.4444 13.2216L58.3835 23.9583C61.3262 25.2781 60.3219 29.4165 57.059 29.4165H49.9804V30.9949C49.9804 31.6289 49.4314 32.1429 48.7542 32.1429H47.528C46.8508 32.1429 46.3018 31.6289 46.3018 30.9949V29.4165H19.3251V30.9949C19.3251 31.6289 18.7761 32.1429 18.0989 32.1429H16.8727C16.1955 32.1429 15.6465 31.6289 15.6465 30.9949V29.4165H9.18105C5.91809 29.4165 4.91386 25.2781 7.85649 23.9583L31.7956 13.2216C31.8435 13.2001 31.8919 13.1798 31.9407 13.1607C32.0261 13.1274 32.1128 13.0978 32.2004 13.072V9.44585C32.2004 9.30103 32.3258 9.18367 32.4804 9.18367C33.2893 9.15438 34.538 8.89682 35.1229 8.56709C35.7808 8.19623 36.3065 7.65104 36.6335 7.00048C36.9605 6.34999 37.0741 5.62327 36.9599 4.91224C36.8457 4.20128 36.5089 3.53797 35.992 3.00617C35.4751 2.47444 34.8014 2.09811 34.056 1.92477C33.3107 1.7515 32.5271 1.78898 31.8046 2.03253C31.0821 2.27608 30.4528 2.71476 29.9966 3.29309C29.6623 3.71677 29.4318 4.20149 29.3183 4.71283C29.2493 5.02315 28.9672 5.26957 28.6289 5.25465L27.9145 5.22312C27.5762 5.2082 27.3115 4.93851 27.363 4.62518C27.5058 3.75461 27.8722 2.92636 28.4349 2.2133C29.1193 1.34574 30.063 0.687756 31.1469 0.322432C32.2307 -0.0429614 33.4061 -0.0991543 34.5241 0.16079C35.642 0.420735 36.6526 0.985255 37.4279 1.78289C38.2033 2.58052 38.7085 3.57552 38.8799 4.64199C39.0511 5.70847 38.8808 6.79855 38.3902 7.77436C37.8999 8.75017 37.1112 9.56798 36.1243 10.1242ZM49.9804 27.6945V26.4031C49.9804 25.769 49.4314 25.2551 48.7542 25.2551H47.528C46.8508 25.2551 46.3018 25.769 46.3018 26.4031V27.6945H19.3251V26.4031C19.3251 25.769 18.7761 25.2551 18.0989 25.2551H16.8727C16.1955 25.2551 15.6465 25.769 15.6465 26.4031V27.6945H9.18105C7.8758 27.6945 7.4742 26.0392 8.65117 25.5113L32.5903 14.7745C32.9251 14.6243 33.3149 14.6243 33.6497 14.7745L57.5889 25.5113C58.7658 26.0392 58.3642 27.6945 57.059 27.6945H49.9804Z" fill="black"/>
<path id="Rectangle 209" d="M9.77783 30.6431H56.2223H9.77783ZM56.2223 34.6788H9.77783V33.6788H56.2223V34.6788ZM9.77783 34.1788V30.6431V34.1788ZM56.2223 30.6431V34.1788V30.6431Z" fill="white" fill-opacity="0.5"/>
<path id="Rectangle 210" d="M33 30.6431V30.1431H32.5V30.6431H33ZM35.4444 30.6431H35.9444V30.1431H35.4444V30.6431ZM35.4444 34.1788V34.6788H35.9444V34.1788H35.4444ZM33 34.1788H32.5V34.6788H33V34.1788ZM33 31.1431H35.4444V30.1431H33V31.1431ZM34.9444 30.6431V34.1788H35.9444V30.6431H34.9444ZM35.4444 33.6788H33V34.6788H35.4444V33.6788ZM33.5 34.1788V30.6431H32.5V34.1788H33.5Z" fill="#989898"/>
</g>
</g>
</svg>
