<svg width="108" height="88" viewBox="0 0 108 88" fill="none" xmlns="http://www.w3.org/2000/svg">
<g clip-path="url(#clip0_7542_24276)">
<g opacity="0.7" clip-path="url(#clip1_7542_24276)">
<path fill-rule="evenodd" clip-rule="evenodd" d="M22.4242 57.3639C22.3077 57.0833 22.0245 56.9107 21.7339 56.9609C19.733 57.306 17.9453 58.3224 16.4977 60.0595C15.9455 60.5419 16.14 61.3562 16.4817 61.9389C18.5221 65.4181 20.1051 67.5027 25.5703 71.4296C25.9172 71.6789 26.0719 72.1199 25.9518 72.5299L24.6716 76.8996C24.5669 77.2572 24.7657 77.6387 25.1157 77.7518C25.4657 77.8648 25.8344 77.6666 25.9391 77.309L27.3207 72.593C27.3581 72.4653 27.4718 72.3782 27.601 72.3463C27.6203 72.3415 27.6405 72.3378 27.6604 72.3363C32.1145 71.9856 34.7946 71.5277 40.9062 68.7222C41.6097 68.5306 42.0251 67.7848 41.7697 67.0781C41.3887 65.3988 40.6507 63.855 39.3801 62.5611C39.1762 62.3535 38.8637 62.3204 38.618 62.4647L33.6144 65.4043L37.4189 61.4322C37.674 61.1659 37.6669 60.7331 37.3946 60.4769C35.5276 58.7202 33.3696 57.3119 30.9312 56.6347C28.8734 56.0632 26.6462 56.0677 24.5425 56.3824C24.1936 56.4346 23.96 56.7682 24.0101 57.1281L24.8589 63.2254L22.4242 57.3639Z" fill="#FFD65E"/>
</g>
<g opacity="0.7" clip-path="url(#clip2_7542_24276)">
<path d="M84.5565 24.1941C87.4802 27.6137 89.4786 28.2781 93.256 28.8913C93.1796 24.5843 92.4375 22.2369 90.1219 19.3653C93.9197 20.4739 95.3469 19.715 97.7001 17.8532C95.5307 15.609 94.111 14.6844 91.2247 13.7613C93.6478 12.4394 94.3495 11.3245 95.4938 9.27227C91.0324 8.83125 89.0469 9.37954 85.9285 11.0056C86.178 9.76687 86.2036 9.16564 86.2713 8.07401L86.2018 8.13908C83.9715 10.2276 82.6991 11.4191 81.4484 14.7807C78.3644 15.3006 76.82 16.215 74.1704 18.2C75.1972 18.5387 75.7563 18.7407 77.1456 18.3812C74.8509 21.443 73.8519 23.3214 73.6472 27.5534C76.0331 26.856 77.1846 26.0661 78.9343 24.0062C78.9741 26.5466 79.6036 28.1401 81.8324 31.1312C83.8492 28.7507 84.4856 27.2784 84.5565 24.1941Z" fill="#E25D32"/>
<g filter="url(#filter0_f_7542_24276)">
<path d="M82.1811 15.6557L91.2425 26.4844" stroke="black" stroke-opacity="0.05" stroke-linecap="round" stroke-linejoin="round"/>
</g>
<g filter="url(#filter1_f_7542_24276)">
<path d="M82.1306 15.5961C82.5169 20.6403 83.0108 23.6491 82.3413 28.4787" stroke="black" stroke-opacity="0.05" stroke-linecap="round" stroke-linejoin="round"/>
</g>
<g filter="url(#filter2_f_7542_24276)">
<path d="M82.1303 15.5955C80.1056 19.31 79.3054 21.2196 75.9402 25.3107" stroke="black" stroke-opacity="0.05" stroke-linecap="round" stroke-linejoin="round"/>
</g>
<g filter="url(#filter3_f_7542_24276)">
<path d="M82.5317 15.26C87.0526 13.3321 89.6085 12.0746 93.3866 10.7119" stroke="black" stroke-opacity="0.05" stroke-linecap="round" stroke-linejoin="round"/>
</g>
<g filter="url(#filter4_f_7542_24276)">
<path d="M82.1303 15.5959C87.8084 16.8929 90.6579 17.386 94.6389 17.5059" stroke="black" stroke-opacity="0.05" stroke-linecap="round" stroke-linejoin="round"/>
</g>
<path d="M81.4526 14.9023C80.4458 13.6992 78.0442 11.4811 76.4923 12.2342" stroke="#E25D32" stroke-linecap="round" stroke-linejoin="round"/>
</g>
<g clip-path="url(#clip3_7542_24276)">
<path fill-rule="evenodd" clip-rule="evenodd" d="M9.88933 38.1727C9.22776 38.0835 8.58683 38.43 8.3604 39.0372C6.80166 43.2173 6.75296 47.7354 8.44861 52.4054C8.75334 53.9875 10.5141 54.5193 11.9986 54.5154C21.0283 54.4914 26.7843 53.7669 40.8457 47.4164C41.235 47.2405 41.7001 47.3266 41.9938 47.6368L49.46 55.5228C50.0229 56.1173 50.9671 56.162 51.569 55.6227C52.1709 55.0834 52.2025 54.1643 51.6397 53.5698L44.2161 45.7289C44.0152 45.5167 43.9756 45.2043 44.0579 44.9238C44.0702 44.8818 44.0857 44.8394 44.1047 44.8C48.3675 35.9569 50.4638 30.3626 51.9007 15.6569C52.3154 14.1094 51.3594 12.4958 49.7352 12.1986C46.1259 11.0637 42.3788 10.7563 38.5168 11.7366C37.8971 11.8939 37.4883 12.4506 37.4904 13.0768L37.5341 25.8275L34.2037 14.2103C33.9804 13.4314 33.1511 12.966 32.3633 13.1995C26.9629 14.7997 21.9016 17.3379 17.918 21.2173C14.5563 24.4911 12.1005 28.7241 10.3702 33.0656C10.0831 33.7857 10.4579 34.5983 11.1965 34.9015L23.7099 40.0368L9.88933 38.1727Z" fill="#FFD65E"/>
</g>
<g clip-path="url(#clip4_7542_24276)">
<path d="M82.5123 52.1334C87.5664 44.7716 87.8136 40.5992 87.0487 33.0422C78.8308 35.4011 74.7117 38.0298 70.3958 43.9442C70.5703 36.0939 68.3823 33.7475 63.604 30.1925C60.416 35.5045 59.3726 38.7011 59.0856 44.7089C55.3066 40.7424 52.8087 39.9699 48.2864 38.8303C49.7327 47.6102 51.8038 51.135 56.5232 56.2781C54.0201 56.4361 52.8544 56.6959 50.7268 57.1269L50.8872 57.2267C56.0369 60.4296 58.9749 62.2569 66.0621 62.928C68.6431 68.5733 71.1895 71.0645 76.356 75.1245C76.478 72.9819 76.5781 71.8063 75.1752 69.3274C82.2239 72.154 86.3383 73.1042 94.5567 71.3226C91.9941 67.1068 89.8883 65.305 85.0404 63.0086C89.8902 61.6273 92.6219 59.602 97.2113 53.7925C91.6114 51.1488 88.4619 50.685 82.5123 52.1334Z" fill="#E25D32"/>
<g filter="url(#filter5_f_7542_24276)">
<path d="M67.3641 61.0734L83.4695 38.1387" stroke="black" stroke-opacity="0.05" stroke-linecap="round" stroke-linejoin="round"/>
</g>
<g filter="url(#filter6_f_7542_24276)">
<path d="M67.2741 61.2015C76.7462 57.8698 82.2607 55.3773 91.8638 54.1799" stroke="black" stroke-opacity="0.05" stroke-linecap="round" stroke-linejoin="round"/>
</g>
<g filter="url(#filter7_f_7542_24276)">
<path d="M67.2743 61.2014C75.4356 63.175 79.5077 63.7281 89.0798 68.0781" stroke="black" stroke-opacity="0.05" stroke-linecap="round" stroke-linejoin="round"/>
</g>
<g filter="url(#filter8_f_7542_24276)">
<path d="M66.4249 60.6047C60.4065 52.9278 56.6826 48.6737 52.1292 42.1305" stroke="black" stroke-opacity="0.05" stroke-linecap="round" stroke-linejoin="round"/>
</g>
<g filter="url(#filter9_f_7542_24276)">
<path d="M67.2742 61.2023C66.8438 49.6502 66.3253 43.9339 64.5102 36.2402" stroke="black" stroke-opacity="0.05" stroke-linecap="round" stroke-linejoin="round"/>
</g>
<path d="M66.2924 62.8574C64.503 65.4057 61.4842 71.1494 63.7252 73.7377" stroke="#E25D32" stroke-linecap="round" stroke-linejoin="round"/>
</g>
</g>
<defs>
<filter id="filter0_f_7542_24276" x="80.6811" y="14.1553" width="12.0613" height="13.8291" filterUnits="userSpaceOnUse" color-interpolation-filters="sRGB">
<feFlood flood-opacity="0" result="BackgroundImageFix"/>
<feBlend mode="normal" in="SourceGraphic" in2="BackgroundImageFix" result="shape"/>
<feGaussianBlur stdDeviation="0.5" result="effect1_foregroundBlur_7542_24276"/>
</filter>
<filter id="filter1_f_7542_24276" x="80.6306" y="14.0957" width="3.54053" height="15.8828" filterUnits="userSpaceOnUse" color-interpolation-filters="sRGB">
<feFlood flood-opacity="0" result="BackgroundImageFix"/>
<feBlend mode="normal" in="SourceGraphic" in2="BackgroundImageFix" result="shape"/>
<feGaussianBlur stdDeviation="0.5" result="effect1_foregroundBlur_7542_24276"/>
</filter>
<filter id="filter2_f_7542_24276" x="74.4402" y="14.0957" width="9.19028" height="12.7148" filterUnits="userSpaceOnUse" color-interpolation-filters="sRGB">
<feFlood flood-opacity="0" result="BackgroundImageFix"/>
<feBlend mode="normal" in="SourceGraphic" in2="BackgroundImageFix" result="shape"/>
<feGaussianBlur stdDeviation="0.5" result="effect1_foregroundBlur_7542_24276"/>
</filter>
<filter id="filter3_f_7542_24276" x="81.0315" y="9.21191" width="13.8552" height="7.54785" filterUnits="userSpaceOnUse" color-interpolation-filters="sRGB">
<feFlood flood-opacity="0" result="BackgroundImageFix"/>
<feBlend mode="normal" in="SourceGraphic" in2="BackgroundImageFix" result="shape"/>
<feGaussianBlur stdDeviation="0.5" result="effect1_foregroundBlur_7542_24276"/>
</filter>
<filter id="filter4_f_7542_24276" x="80.6302" y="14.0957" width="15.5087" height="4.91016" filterUnits="userSpaceOnUse" color-interpolation-filters="sRGB">
<feFlood flood-opacity="0" result="BackgroundImageFix"/>
<feBlend mode="normal" in="SourceGraphic" in2="BackgroundImageFix" result="shape"/>
<feGaussianBlur stdDeviation="0.5" result="effect1_foregroundBlur_7542_24276"/>
</filter>
<filter id="filter5_f_7542_24276" x="65.8641" y="36.6387" width="19.1054" height="25.9346" filterUnits="userSpaceOnUse" color-interpolation-filters="sRGB">
<feFlood flood-opacity="0" result="BackgroundImageFix"/>
<feBlend mode="normal" in="SourceGraphic" in2="BackgroundImageFix" result="shape"/>
<feGaussianBlur stdDeviation="0.5" result="effect1_foregroundBlur_7542_24276"/>
</filter>
<filter id="filter6_f_7542_24276" x="65.7739" y="52.6797" width="27.5899" height="10.0225" filterUnits="userSpaceOnUse" color-interpolation-filters="sRGB">
<feFlood flood-opacity="0" result="BackgroundImageFix"/>
<feBlend mode="normal" in="SourceGraphic" in2="BackgroundImageFix" result="shape"/>
<feGaussianBlur stdDeviation="0.5" result="effect1_foregroundBlur_7542_24276"/>
</filter>
<filter id="filter7_f_7542_24276" x="65.7742" y="59.7012" width="24.8058" height="9.87695" filterUnits="userSpaceOnUse" color-interpolation-filters="sRGB">
<feFlood flood-opacity="0" result="BackgroundImageFix"/>
<feBlend mode="normal" in="SourceGraphic" in2="BackgroundImageFix" result="shape"/>
<feGaussianBlur stdDeviation="0.5" result="effect1_foregroundBlur_7542_24276"/>
</filter>
<filter id="filter8_f_7542_24276" x="50.6291" y="40.6309" width="17.2958" height="21.4736" filterUnits="userSpaceOnUse" color-interpolation-filters="sRGB">
<feFlood flood-opacity="0" result="BackgroundImageFix"/>
<feBlend mode="normal" in="SourceGraphic" in2="BackgroundImageFix" result="shape"/>
<feGaussianBlur stdDeviation="0.5" result="effect1_foregroundBlur_7542_24276"/>
</filter>
<filter id="filter9_f_7542_24276" x="63.0101" y="34.7402" width="5.7641" height="27.9619" filterUnits="userSpaceOnUse" color-interpolation-filters="sRGB">
<feFlood flood-opacity="0" result="BackgroundImageFix"/>
<feBlend mode="normal" in="SourceGraphic" in2="BackgroundImageFix" result="shape"/>
<feGaussianBlur stdDeviation="0.5" result="effect1_foregroundBlur_7542_24276"/>
</filter>
<clipPath id="clip0_7542_24276">
<rect width="108" height="88" fill="white"/>
</clipPath>
<clipPath id="clip1_7542_24276">
<rect width="23.6663" height="23.6663" fill="white" transform="translate(32.4463 50) rotate(59.7621)"/>
</clipPath>
<clipPath id="clip2_7542_24276">
<rect width="27.2069" height="28.2146" fill="white" transform="translate(104.038 14.1074) rotate(120)"/>
</clipPath>
<clipPath id="clip3_7542_24276">
<rect width="52" height="52" fill="white" transform="translate(7 11)"/>
</clipPath>
<clipPath id="clip4_7542_24276">
<rect width="54" height="56" fill="white" transform="translate(53.167 19.9658) rotate(15)"/>
</clipPath>
</defs>
</svg>
