<svg width="132" height="135" viewBox="0 0 132 135" fill="none" xmlns="http://www.w3.org/2000/svg">
<path fill-rule="evenodd" clip-rule="evenodd" d="M76.6241 23.0665C75.7006 23.317 74.7375 23.3894 73.7877 23.2849L73.0218 26.158C73.179 26.2562 73.3302 26.3655 73.4739 26.4858L99.5599 48.3055C102.766 50.9877 100.1 55.9714 96.0426 54.8787L36.5118 38.8449C32.4547 37.7522 32.6243 32.0958 36.7355 31.3846L70.1802 25.5987C70.3645 25.5668 70.5498 25.548 70.7348 25.542L71.9775 20.8803C72.0271 20.6941 72.2232 20.5852 72.4156 20.637C73.4314 20.8703 75.0722 20.9573 75.9125 20.7293C76.8577 20.4729 77.6981 19.9481 78.3276 19.2213C78.9571 18.4944 79.3474 17.5982 79.449 16.6459C79.5507 15.6937 79.3592 14.7281 78.8987 13.8714C78.4383 13.0147 77.7296 12.3053 76.8622 11.8329C75.9949 11.3605 75.0078 11.1463 74.0259 11.2174C73.044 11.2886 72.1113 11.6418 71.3458 12.2325C70.785 12.6652 70.3324 13.2112 70.016 13.8305C69.8239 14.2064 69.3885 14.4286 68.9731 14.2961L68.0955 14.0163C67.6801 13.8839 67.4435 13.4486 67.6148 13.063C68.0907 11.9917 68.8302 11.0496 69.7741 10.3213C70.9223 9.43526 72.3213 8.90539 73.7942 8.79869C75.2671 8.692 76.7476 9.01327 78.0486 9.72188C79.3497 10.4305 80.4127 11.4946 81.1034 12.7797C81.7941 14.0648 82.0813 15.5131 81.9289 16.9415C81.7764 18.3698 81.191 19.7142 80.2467 20.8044C79.3025 21.8947 78.0418 22.6819 76.6241 23.0665ZM71.9536 28.216L98.0396 50.0357C99.3222 51.1086 98.2555 53.1021 96.6327 52.665L37.1019 36.6312C35.4791 36.1941 35.5469 33.9316 37.1914 33.6471L70.6362 27.8612C71.1041 27.7802 71.5886 27.9107 71.9536 28.216Z" fill="black"/>
<g filter="url(#filter0_bdd_5484_15224)">
<path fill-rule="evenodd" clip-rule="evenodd" d="M87.8965 35.4768C87.093 34.9302 86.0178 35.0761 85.3168 35.7504C80.7082 40.1834 74.2553 42.193 67.9803 40.5014C61.6424 38.7928 57.0238 33.723 55.2746 27.4804C55.0068 26.5245 54.1294 25.8435 53.1457 25.9258L42.6151 26.807C38.2908 27.1689 34.3171 29.3434 31.6654 32.799L18.1425 50.4217C17.4776 51.2882 17.6551 52.5361 18.5349 53.1803L32.9914 63.7653L24.9974 93.781C24.7213 94.8177 25.3328 95.8832 26.3631 96.1609L76.3606 109.639C77.391 109.917 78.45 109.302 78.7261 108.265L86.7201 78.2496L104.5 76.355C105.582 76.2397 106.356 75.2483 106.211 74.1633L103.273 52.2103C102.685 47.819 100.263 43.8887 96.6141 41.4069L87.8965 35.4768Z" fill="#FFD65E"/>
</g>
<g filter="url(#filter1_bdd_5484_15224)">
<path fill-rule="evenodd" clip-rule="evenodd" d="M53.0656 24.9576C54.559 24.8326 55.8246 25.8624 56.2041 27.2167C57.8712 33.1664 62.2564 37.9525 68.2302 39.5629C74.1449 41.1574 80.2576 39.2726 84.6495 35.0481C85.6433 34.0922 87.2179 33.8423 88.4374 34.6719L97.155 40.6021C101.031 43.239 103.605 47.4149 104.23 52.0806L107.168 74.0337C107.386 75.6611 106.225 77.1483 104.602 77.3212L87.4812 79.1455L79.6589 108.517C79.2448 110.072 77.6562 110.994 76.1107 110.578L26.1132 97.0994C24.5677 96.6828 23.6505 95.0845 24.0646 93.5296L31.887 64.1583L17.9666 53.9659C16.6469 52.9996 16.3807 51.1278 17.3781 49.8279L30.901 32.2053C33.7184 28.5337 37.9405 26.2233 42.535 25.8388L53.0656 24.9576ZM32.4226 62.1472L35.3823 51.0341C35.5203 50.5158 36.0499 50.2082 36.565 50.3471C37.0802 50.486 37.3859 51.0187 37.2479 51.537L25.9302 94.0325C25.7922 94.5508 26.0979 95.0836 26.6131 95.2224L76.6106 108.701C77.1257 108.84 77.6553 108.532 77.7933 108.014L89.111 65.5184C89.249 65.0001 89.7785 64.6925 90.2937 64.8314C90.8088 64.9702 91.1146 65.503 90.9765 66.0213L88.0168 77.1344L104.399 75.3888C104.94 75.3312 105.326 74.8355 105.254 74.293L102.316 52.3399C101.765 48.2231 99.4936 44.5385 96.0732 42.2118L87.3556 36.2816C86.9682 36.0181 86.3924 36.06 85.9841 36.4527C81.1587 41.0942 74.3656 43.2286 67.7303 41.4399C61.0284 39.6331 56.1764 34.2796 54.3451 27.744C54.1889 27.1865 53.6997 26.8544 53.2257 26.8941L42.6951 27.7753C38.6411 28.1145 34.9158 30.1531 32.4298 33.3928L18.9069 51.0154C18.5745 51.4487 18.6632 52.0726 19.1031 52.3947L32.4226 62.1472Z" fill="white" fill-opacity="0.4" shape-rendering="crispEdges"/>
</g>
<defs>
<filter id="filter0_bdd_5484_15224" x="-22.2602" y="-14.0809" width="168.489" height="163.787" filterUnits="userSpaceOnUse" color-interpolation-filters="sRGB">
<feFlood flood-opacity="0" result="BackgroundImageFix"/>
<feGaussianBlur in="BackgroundImageFix" stdDeviation="20"/>
<feComposite in2="SourceAlpha" operator="in" result="effect1_backgroundBlur_5484_15224"/>
<feColorMatrix in="SourceAlpha" type="matrix" values="0 0 0 0 0 0 0 0 0 0 0 0 0 0 0 0 0 0 127 0" result="hardAlpha"/>
<feOffset dx="4" dy="4"/>
<feGaussianBlur stdDeviation="10"/>
<feComposite in2="hardAlpha" operator="out"/>
<feColorMatrix type="matrix" values="0 0 0 0 0 0 0 0 0 0 0 0 0 0 0 0 0 0 0.05 0"/>
<feBlend mode="normal" in2="effect1_backgroundBlur_5484_15224" result="effect2_dropShadow_5484_15224"/>
<feColorMatrix in="SourceAlpha" type="matrix" values="0 0 0 0 0 0 0 0 0 0 0 0 0 0 0 0 0 0 127 0" result="hardAlpha"/>
<feOffset/>
<feGaussianBlur stdDeviation="1"/>
<feComposite in2="hardAlpha" operator="out"/>
<feColorMatrix type="matrix" values="0 0 0 0 0 0 0 0 0 0 0 0 0 0 0 0 0 0 0.05 0"/>
<feBlend mode="normal" in2="effect2_dropShadow_5484_15224" result="effect3_dropShadow_5484_15224"/>
<feBlend mode="normal" in="SourceGraphic" in2="effect3_dropShadow_5484_15224" result="shape"/>
</filter>
<filter id="filter1_bdd_5484_15224" x="-23.2259" y="-15.0527" width="170.42" height="165.731" filterUnits="userSpaceOnUse" color-interpolation-filters="sRGB">
<feFlood flood-opacity="0" result="BackgroundImageFix"/>
<feGaussianBlur in="BackgroundImageFix" stdDeviation="20"/>
<feComposite in2="SourceAlpha" operator="in" result="effect1_backgroundBlur_5484_15224"/>
<feColorMatrix in="SourceAlpha" type="matrix" values="0 0 0 0 0 0 0 0 0 0 0 0 0 0 0 0 0 0 127 0" result="hardAlpha"/>
<feOffset dx="4" dy="4"/>
<feGaussianBlur stdDeviation="10"/>
<feComposite in2="hardAlpha" operator="out"/>
<feColorMatrix type="matrix" values="0 0 0 0 0 0 0 0 0 0 0 0 0 0 0 0 0 0 0.05 0"/>
<feBlend mode="normal" in2="effect1_backgroundBlur_5484_15224" result="effect2_dropShadow_5484_15224"/>
<feColorMatrix in="SourceAlpha" type="matrix" values="0 0 0 0 0 0 0 0 0 0 0 0 0 0 0 0 0 0 127 0" result="hardAlpha"/>
<feOffset/>
<feGaussianBlur stdDeviation="1"/>
<feComposite in2="hardAlpha" operator="out"/>
<feColorMatrix type="matrix" values="0 0 0 0 0 0 0 0 0 0 0 0 0 0 0 0 0 0 0.05 0"/>
<feBlend mode="normal" in2="effect2_dropShadow_5484_15224" result="effect3_dropShadow_5484_15224"/>
<feBlend mode="normal" in="SourceGraphic" in2="effect3_dropShadow_5484_15224" result="shape"/>
</filter>
</defs>
</svg>
