<svg width="135" height="142" viewBox="0 0 135 142" fill="none" xmlns="http://www.w3.org/2000/svg">
<path fill-rule="evenodd" clip-rule="evenodd" d="M78.4553 26.8567C77.4992 27.1144 76.5021 27.1887 75.5185 27.081L74.7261 30.0382C74.8889 30.1393 75.0455 30.2519 75.1943 30.3757L102.208 52.8416C105.529 55.6032 102.769 60.7328 98.5678 59.6071L36.9261 43.0903C32.7251 41.9646 32.8995 36.1422 37.1561 35.4109L71.7839 29.4619C71.9747 29.4291 72.1665 29.4098 72.3581 29.4037L73.6438 24.6053C73.6951 24.4137 73.8982 24.3016 74.0973 24.355C75.1492 24.5953 76.848 24.6852 77.7181 24.4507C78.6967 24.187 79.5668 23.6469 80.2184 22.8989C80.87 22.1508 81.2739 21.2284 81.379 20.2481C81.4841 19.2679 81.2856 18.274 80.8087 17.392C80.3317 16.5101 79.5978 15.7797 78.6996 15.2932C77.8015 14.8068 76.7794 14.5861 75.7628 14.6591C74.7461 14.7321 73.7805 15.0955 72.988 15.7034C72.4074 16.1488 71.9389 16.7106 71.6114 17.3481C71.4126 17.735 70.9619 17.9636 70.5317 17.8272L69.623 17.539C69.1928 17.4025 68.9478 16.9545 69.125 16.5576C69.6175 15.4548 70.3831 14.4853 71.3602 13.7358C72.5489 12.824 73.9974 12.2788 75.5223 12.1693C77.0473 12.0597 78.5804 12.3908 79.9276 13.1204C81.2748 13.8501 82.3758 14.9457 83.0912 16.2687C83.8065 17.5916 84.1043 19.0825 83.9467 20.5528C83.7891 22.0231 83.1832 23.4068 82.2058 24.5289C81.2283 25.651 79.9232 26.461 78.4553 26.8567ZM73.6206 32.1565L100.635 54.6223C101.963 55.727 100.859 57.7788 99.1784 57.3286L37.5366 40.8117C35.8563 40.3614 35.926 38.0325 37.6286 37.74L72.2564 31.7909C72.7409 31.7077 73.2426 31.8421 73.6206 32.1565Z" fill="black"/>
<g filter="url(#filter0_bdd_2959_2511)">
<path fill-rule="evenodd" clip-rule="evenodd" d="M90.1275 39.6203C89.2955 39.0578 88.1821 39.2079 87.4562 39.902C82.6838 44.4646 76.0017 46.533 69.5038 44.7919C62.9408 43.0334 58.1581 37.8153 56.3468 31.39C56.0694 30.4062 55.1608 29.7053 54.1422 29.79L43.2375 30.697C38.7596 31.0694 34.6447 33.3076 31.8989 36.8643L17.8956 55.0024C17.207 55.8943 17.3908 57.1787 18.3019 57.8417L33.272 68.7363L24.994 99.6301C24.7081 100.697 25.3413 101.794 26.4082 102.08L78.1818 115.952C79.2488 116.238 80.3454 115.605 80.6313 114.538L88.9093 83.6443L107.321 81.6943C108.442 81.5757 109.243 80.5552 109.093 79.4385L106.05 56.8433C105.441 52.3236 102.933 48.2784 99.1548 45.724L90.1275 39.6203Z" fill="#FFD65E" shape-rendering="crispEdges"/>
<path d="M33.272 68.7363L18.3019 57.8417C17.3908 57.1787 17.207 55.8943 17.8956 55.0024L31.8989 36.8643C34.6447 33.3076 38.7596 31.0694 43.2375 30.697L54.1422 29.79C55.1608 29.7053 56.0694 30.4062 56.3468 31.39C58.1581 37.8153 62.9408 43.0334 69.5038 44.7919C76.0017 46.533 82.6838 44.4646 87.4562 39.902C88.1821 39.2079 89.2955 39.0578 90.1275 39.6203L99.1548 45.724C102.933 48.2784 105.441 52.3236 106.05 56.8433L109.093 79.4385C109.243 80.5552 108.442 81.5757 107.321 81.6943L88.9093 83.6443M33.272 68.7363L24.994 99.6301C24.7081 100.697 25.3413 101.794 26.4082 102.08L78.1818 115.952C79.2488 116.238 80.3454 115.605 80.6313 114.538L88.9093 83.6443M33.272 68.7363L36.7137 55.8915M88.9093 83.6443L92.351 70.7995" stroke="white" stroke-opacity="0.4" stroke-width="2" stroke-linecap="round" shape-rendering="crispEdges"/>
</g>
<defs>
<filter id="filter0_bdd_2959_2511" x="-23.5215" y="-11.2172" width="173.632" height="168.238" filterUnits="userSpaceOnUse" color-interpolation-filters="sRGB">
<feFlood flood-opacity="0" result="BackgroundImageFix"/>
<feGaussianBlur in="BackgroundImageFix" stdDeviation="20"/>
<feComposite in2="SourceAlpha" operator="in" result="effect1_backgroundBlur_2959_2511"/>
<feColorMatrix in="SourceAlpha" type="matrix" values="0 0 0 0 0 0 0 0 0 0 0 0 0 0 0 0 0 0 127 0" result="hardAlpha"/>
<feOffset dx="4" dy="4"/>
<feGaussianBlur stdDeviation="10"/>
<feComposite in2="hardAlpha" operator="out"/>
<feColorMatrix type="matrix" values="0 0 0 0 0 0 0 0 0 0 0 0 0 0 0 0 0 0 0.05 0"/>
<feBlend mode="normal" in2="effect1_backgroundBlur_2959_2511" result="effect2_dropShadow_2959_2511"/>
<feColorMatrix in="SourceAlpha" type="matrix" values="0 0 0 0 0 0 0 0 0 0 0 0 0 0 0 0 0 0 127 0" result="hardAlpha"/>
<feOffset/>
<feGaussianBlur stdDeviation="1"/>
<feComposite in2="hardAlpha" operator="out"/>
<feColorMatrix type="matrix" values="0 0 0 0 0 0 0 0 0 0 0 0 0 0 0 0 0 0 0.05 0"/>
<feBlend mode="normal" in2="effect2_dropShadow_2959_2511" result="effect3_dropShadow_2959_2511"/>
<feBlend mode="normal" in="SourceGraphic" in2="effect3_dropShadow_2959_2511" result="shape"/>
</filter>
</defs>
</svg>
