<svg width="237" height="61" viewBox="0 0 237 61" fill="none" xmlns="http://www.w3.org/2000/svg">
<g filter="url(#filter0_bd_5323_8865)">
<rect x="3" y="2" width="231" height="55" rx="27.5" fill="#FFC329" fill-opacity="0.8" shape-rendering="crispEdges"/>
<rect x="3" y="2" width="231" height="55" rx="27.5" stroke="url(#paint0_linear_5323_8865)" stroke-opacity="0.5" stroke-width="2" shape-rendering="crispEdges"/>
<path d="M29.438 21.288H31.75V21.696C31.75 26.218 28.418 29.754 23.216 31.046L22.06 28.802C26.446 27.816 29.438 24.96 29.438 21.696V21.288ZM29.948 21.288H32.26V21.696C32.26 24.79 35.218 27.408 39.57 28.394L38.414 30.604C33.28 29.38 29.948 26.014 29.948 21.696V21.288ZM22.706 19.384H38.992V21.628H22.706V19.384ZM29.404 15.984H32.26V20.88H29.404V15.984ZM29.472 33.494H32.294V45.768H29.472V33.494ZM43.072 15.916H45.86V46.686H43.072V15.916ZM21.006 35.568L20.632 33.188C26.446 33.188 34.164 33.154 40.896 32.202L41.1 34.276C34.198 35.466 26.718 35.568 21.006 35.568ZM74.2813 21.22H79.6193V23.566H74.2813V21.22ZM74.2813 27.782H79.6193V30.128H74.2813V27.782ZM72.3093 15.916H75.1313V35.704H72.3093V15.916ZM65.4753 35.976C71.6973 35.976 75.4713 37.914 75.4713 41.28C75.4713 44.646 71.6973 46.584 65.4753 46.584C59.2873 46.584 55.4793 44.646 55.4793 41.28C55.4793 37.914 59.2873 35.976 65.4753 35.976ZM65.4753 38.152C60.9873 38.152 58.2673 39.308 58.2673 41.28C58.2673 43.286 60.9873 44.408 65.4753 44.408C69.9973 44.408 72.7173 43.286 72.7173 41.28C72.7173 39.308 69.9973 38.152 65.4753 38.152ZM51.3653 19.384H69.5213V21.628H51.3653V19.384ZM60.4433 23.192C64.8293 23.192 67.7873 25.3 67.7873 28.598C67.7873 31.93 64.8293 34.038 60.4433 34.038C56.0233 34.038 53.0653 31.93 53.0653 28.598C53.0653 25.3 56.0233 23.192 60.4433 23.192ZM60.4433 25.334C57.6213 25.334 55.7513 26.626 55.7513 28.598C55.7513 30.604 57.6213 31.896 60.4433 31.896C63.1973 31.896 65.1013 30.604 65.1013 28.598C65.1013 26.626 63.1973 25.334 60.4433 25.334ZM59.0153 15.644H61.8373V20.642H59.0153V15.644ZM92.1162 18.908H111.632V21.22H92.1162V18.908ZM88.7842 40.158H116.562V42.47H88.7842V40.158ZM110.476 18.908H113.23V21.832C113.23 25.572 113.23 29.788 111.972 36.078L109.15 35.738C110.476 29.788 110.476 25.47 110.476 21.832V18.908ZM111.088 26.286V28.428L91.7082 29.516L91.2662 27.068L111.088 26.286ZM99.5962 32.202H102.418V41.008H99.5962V32.202ZM141.72 15.916H144.542V46.72H141.72V15.916ZM121.388 36.69H123.87C129.956 36.69 133.9 36.486 138.456 35.636L138.762 38.016C134.07 38.9 130.058 39.07 123.87 39.07H121.388V36.69ZM121.388 18.84H135.906V21.186H124.176V37.574H121.388V18.84ZM164.586 20.982H166.898V22.308C166.898 27.544 163.43 31.794 158.262 33.426L156.936 31.216C161.492 29.822 164.586 26.32 164.586 22.308V20.982ZM165.096 20.982H167.408V22.308C167.408 25.98 170.4 29.312 174.922 30.638L173.596 32.814C168.462 31.284 165.096 27.204 165.096 22.308V20.982ZM157.786 19.486H174.174V21.764H157.786V19.486ZM164.586 15.78H167.408V20.438H164.586V15.78ZM177.948 15.916H180.77V33.766H177.948V15.916ZM179.988 23.498H185.326V25.844H179.988V23.498ZM169.754 36.316H172.168V37.132C172.168 41.96 167.068 45.53 161.05 46.55L159.962 44.374C165.266 43.558 169.754 40.566 169.754 37.132V36.316ZM170.298 36.316H172.712V37.132C172.712 40.498 177.268 43.558 182.47 44.408L181.416 46.584C175.398 45.564 170.298 41.858 170.298 37.132V36.316ZM161.152 35.432H181.314V37.71H161.152V35.432ZM209.906 15.916H212.728V46.652H209.906V15.916ZM200.896 19.214H203.684C203.684 28.122 199.672 35.908 189.404 40.94L187.908 38.662C196.782 34.378 200.896 27.85 200.896 19.69V19.214ZM189.302 19.214H202.12V21.526H189.302V19.214Z" fill="#121212"/>
</g>
<defs>
<filter id="filter0_bd_5323_8865" x="-8" y="-9" width="253" height="77" filterUnits="userSpaceOnUse" color-interpolation-filters="sRGB">
<feFlood flood-opacity="0" result="BackgroundImageFix"/>
<feGaussianBlur in="BackgroundImageFix" stdDeviation="5"/>
<feComposite in2="SourceAlpha" operator="in" result="effect1_backgroundBlur_5323_8865"/>
<feColorMatrix in="SourceAlpha" type="matrix" values="0 0 0 0 0 0 0 0 0 0 0 0 0 0 0 0 0 0 127 0" result="hardAlpha"/>
<feOffset dy="1"/>
<feGaussianBlur stdDeviation="1"/>
<feComposite in2="hardAlpha" operator="out"/>
<feColorMatrix type="matrix" values="0 0 0 0 0 0 0 0 0 0 0 0 0 0 0 0 0 0 0.1 0"/>
<feBlend mode="normal" in2="effect1_backgroundBlur_5323_8865" result="effect2_dropShadow_5323_8865"/>
<feBlend mode="normal" in="SourceGraphic" in2="effect2_dropShadow_5323_8865" result="shape"/>
</filter>
<linearGradient id="paint0_linear_5323_8865" x1="29.25" y1="2" x2="45.548" y2="106.133" gradientUnits="userSpaceOnUse">
<stop stop-color="white"/>
<stop offset="1" stop-color="white" stop-opacity="0"/>
</linearGradient>
</defs>
</svg>
