<svg width="95" height="105" viewBox="0 0 95 105" fill="none" xmlns="http://www.w3.org/2000/svg">
<g filter="url(#filter0_bdd_2959_2514)">
<path d="M29.5165 79.3105C28.4025 79.609 27.2676 78.906 27.0386 77.7757L21.4239 50.0528C21.2142 49.0174 21.846 47.9974 22.8665 47.724L57.8721 38.3443C58.8926 38.0708 59.9497 38.6382 60.2859 39.6398L69.2847 66.4559C69.6517 67.5493 69.0203 68.7255 67.9063 69.024L52.2658 73.2149C51.3276 73.4663 50.3444 73.0072 49.9347 72.1266L45.7596 63.1509L46.6316 73.0117C46.7171 73.9792 46.0952 74.8683 45.157 75.1197L29.5165 79.3105Z" fill="#FFB751" stroke="white" stroke-opacity="0.5" stroke-width="2" stroke-linejoin="round"/>
<path fill-rule="evenodd" clip-rule="evenodd" d="M38.1863 24.5726C37.7214 25.0444 37.1712 25.4226 36.5678 25.6895L37.1032 27.6876C37.231 27.6922 37.3591 27.7057 37.4864 27.7282L60.606 31.8221C63.4479 32.3254 63.5773 36.2563 60.7767 37.0067L54.701 38.6347L55.0792 40.046C55.2311 40.6128 54.8829 41.1986 54.3017 41.3543L53.2492 41.6363C52.668 41.7921 52.0736 41.4589 51.9217 40.892L51.5436 39.4807L28.3891 45.685L28.7672 47.0962C28.9191 47.6631 28.571 48.2489 27.9898 48.4046L26.9373 48.6866C26.3561 48.8424 25.7617 48.5091 25.6098 47.9423L25.2317 46.531L19.6822 48.018C16.8816 48.7684 15.0282 45.2994 17.2378 43.4426L35.2129 28.3374C35.2489 28.3072 35.2855 28.2779 35.3229 28.2497C35.3882 28.2002 35.4555 28.1538 35.5245 28.1106L34.6558 24.8685C34.6211 24.7391 34.7006 24.6053 34.8334 24.5697C35.5206 24.3575 36.5307 23.84 36.9538 23.4107C37.4296 22.9278 37.7502 22.3195 37.875 21.6626C37.9998 21.0058 37.9232 20.33 37.6548 19.7205C37.3865 19.1111 36.9385 18.5955 36.3675 18.2389C35.7965 17.8824 35.128 17.7009 34.4467 17.7173C33.7655 17.7338 33.1019 17.9475 32.5401 18.3315C31.9783 18.7154 31.5433 19.2523 31.2902 19.8743C31.1048 20.33 31.0231 20.8164 31.0482 21.2997C31.0633 21.593 30.8802 21.8782 30.5863 21.9427L29.9655 22.0788C29.6716 22.1432 29.3798 21.963 29.3489 21.671C29.2629 20.8598 29.379 20.035 29.6911 19.2681C30.0707 18.335 30.7231 17.5297 31.5659 16.9538C32.4087 16.3778 33.404 16.0572 34.4258 16.0325C35.4477 16.0078 36.4503 16.2801 37.3069 16.815C38.1635 17.3498 38.8355 18.1232 39.2381 19.0373C39.6405 19.9514 39.7555 20.9652 39.5682 21.9505C39.3811 22.9357 38.9001 23.8483 38.1863 24.5726ZM54.2885 37.0952L53.9791 35.9405C53.8272 35.3736 53.2329 35.0404 52.6516 35.1961L51.5992 35.4781C51.0179 35.6339 50.6698 36.2196 50.8217 36.7865L51.1311 37.9412L27.9766 44.1454L27.6672 42.9908C27.5153 42.4239 26.9209 42.0907 26.3397 42.2464L25.2872 42.5284C24.706 42.6841 24.3578 43.2699 24.5097 43.8368L24.8191 44.9914L19.2697 46.4784C18.1494 46.7786 17.4081 45.391 18.2919 44.6483L36.267 29.5431C36.5185 29.3318 36.853 29.2421 37.1764 29.2994L60.2959 33.3933C61.4326 33.5947 61.4845 35.167 60.3642 35.4672L54.2885 37.0952Z" fill="#121212"/>
</g>
<defs>
<filter id="filter0_bdd_2959_2514" x="-23.7386" y="-23.969" width="134.128" height="144.349" filterUnits="userSpaceOnUse" color-interpolation-filters="sRGB">
<feFlood flood-opacity="0" result="BackgroundImageFix"/>
<feGaussianBlur in="BackgroundImageFix" stdDeviation="20"/>
<feComposite in2="SourceAlpha" operator="in" result="effect1_backgroundBlur_2959_2514"/>
<feColorMatrix in="SourceAlpha" type="matrix" values="0 0 0 0 0 0 0 0 0 0 0 0 0 0 0 0 0 0 127 0" result="hardAlpha"/>
<feOffset dx="4" dy="4"/>
<feGaussianBlur stdDeviation="10"/>
<feComposite in2="hardAlpha" operator="out"/>
<feColorMatrix type="matrix" values="0 0 0 0 0 0 0 0 0 0 0 0 0 0 0 0 0 0 0.05 0"/>
<feBlend mode="normal" in2="effect1_backgroundBlur_2959_2514" result="effect2_dropShadow_2959_2514"/>
<feColorMatrix in="SourceAlpha" type="matrix" values="0 0 0 0 0 0 0 0 0 0 0 0 0 0 0 0 0 0 127 0" result="hardAlpha"/>
<feOffset/>
<feGaussianBlur stdDeviation="1"/>
<feComposite in2="hardAlpha" operator="out"/>
<feColorMatrix type="matrix" values="0 0 0 0 0 0 0 0 0 0 0 0 0 0 0 0 0 0 0.05 0"/>
<feBlend mode="normal" in2="effect2_dropShadow_2959_2514" result="effect3_dropShadow_2959_2514"/>
<feBlend mode="normal" in="SourceGraphic" in2="effect3_dropShadow_2959_2514" result="shape"/>
</filter>
</defs>
</svg>
