<svg width="108" height="88" viewBox="0 0 108 88" fill="none" xmlns="http://www.w3.org/2000/svg">
<g clip-path="url(#clip0_7542_24267)">
<path d="M89.0657 70.3076C89.1414 71.4847 88.143 72.4531 86.9686 72.3427C72.4896 70.9817 69.6341 65.5987 68.567 53.9474C68.4588 52.7655 69.4277 51.7614 70.6123 51.8337C83.2149 52.6025 88.171 56.3997 89.0657 70.3076Z" fill="#77C000"/>
<g filter="url(#filter0_f_7542_24267)">
<path d="M84.896 67.1964C80.2643 61.0346 76.5197 58.1059 70.508 53.6076" stroke="#E6E6E6" stroke-opacity="0.6" stroke-linecap="round" stroke-linejoin="round"/>
</g>
</g>
<g clip-path="url(#clip1_7542_24267)">
<path d="M6.01465 53.1783C5.27743 54.099 5.53976 55.465 6.56498 56.0482C19.2057 63.2389 24.6326 60.4676 32.1901 51.5359C32.9567 50.6299 32.7391 49.2516 31.7272 48.6313C20.9632 42.0319 14.7254 42.2993 6.01465 53.1783Z" fill="#77C000"/>
<g filter="url(#filter1_f_7542_24267)">
<path d="M11.2147 53.0222C18.5432 50.6318 23.2904 50.3808 30.7951 50.1447" stroke="#E6E6E6" stroke-opacity="0.6" stroke-linecap="round" stroke-linejoin="round"/>
</g>
</g>
<g filter="url(#filter2_b_7542_24267)">
<path fill-rule="evenodd" clip-rule="evenodd" d="M84.3085 15.9321C81.1247 15.079 77.7543 16.9416 77.2651 20.2013C76.9503 22.2988 76.8602 24.2716 77.0107 26.3663C75.6363 24.7894 74.1353 23.4154 72.338 22.0571C69.6512 20.0266 65.8467 21.0492 64.1629 23.9658L61.9941 27.7222C60.346 30.5768 61.2729 34.3143 64.2949 35.6306C66.2525 36.4832 68.1469 37.0831 70.2253 37.4798C67.9758 38.4855 65.9952 39.7017 63.9316 41.3094C61.2749 43.3791 61.278 47.3186 63.6593 49.6999L66.7264 52.767C69.0572 55.0978 72.9073 55.1699 74.9608 52.5915C76.7353 50.3635 78.0464 48.1277 79.1592 45.3476C78.803 48.0961 78.8374 50.6363 79.2365 53.5045C79.7006 56.8401 83.1138 58.8072 86.3668 57.9355L90.5565 56.8129C93.7404 55.9598 95.7279 52.6615 94.5217 49.594C93.5161 47.0364 92.2885 44.8488 90.5407 42.584C92.5028 43.2527 94.475 43.687 96.6918 43.9623C100.034 44.3774 102.817 41.5895 102.817 38.2218L102.817 33.8843C102.817 30.5881 100.146 27.8147 96.8706 28.1858C94.3058 28.4764 92.0057 29.0406 89.5483 30.0212C90.6956 28.3054 91.6215 26.5189 92.4578 24.4573C93.7237 21.3365 91.7512 17.9264 88.4983 17.0547L84.3085 15.9321ZM82.8608 36.2047L80.505 35.5734L79.61 37.1237C79.5731 37.1876 79.5329 37.2489 79.4898 37.3076L80.3669 38.1847C80.5915 38.4094 80.7556 38.6805 80.8514 38.9728C81.0798 38.7691 81.3563 38.6176 81.6617 38.5358L82.9132 38.2004C82.8787 38.053 82.8608 37.9005 82.8608 37.7456L82.8608 36.2047Z" fill="#F6AAD3" fill-opacity="0.7"/>
</g>
<g filter="url(#filter3_f_7542_24267)">
<ellipse cx="81.0223" cy="36.9275" rx="3.52174" ry="3.52174" transform="rotate(15 81.0223 36.9275)" fill="#FF4732" fill-opacity="0.5"/>
</g>
<g clip-path="url(#clip2_7542_24267)">
<g filter="url(#filter4_b_7542_24267)">
<path d="M55.229 15.6178C56.4466 14.9854 57.9102 15.7945 58.0256 17.1617C59.4588 34.1306 54.363 39.9244 42.3585 46.5351C41.1502 47.2005 39.6577 46.4353 39.4994 45.065C37.8171 30.4935 40.8545 23.0827 55.229 15.6178Z" fill="#FFC329" fill-opacity="0.8"/>
</g>
<g filter="url(#filter5_b_7542_24267)">
<path d="M41.6393 47.2701C41.4865 45.9066 39.9994 45.1415 38.7995 45.8069C23.9068 54.0654 21.9319 61.5243 23.1254 75.1766C23.2456 76.5508 24.7122 77.3644 25.9386 76.7328C38.9788 70.0162 43.443 63.3667 41.6393 47.2701Z" fill="#FFC329" fill-opacity="0.8"/>
</g>
<g filter="url(#filter6_b_7542_24267)">
<path d="M71.2837 61.3279C71.9161 62.5456 71.107 64.0091 69.7398 64.1246C52.7709 65.5577 46.9771 60.4619 40.3664 48.4575C39.701 47.2491 40.4662 45.7566 41.8365 45.5984C56.408 43.916 63.8188 46.9534 71.2837 61.3279Z" fill="#FFC329" fill-opacity="0.8"/>
</g>
<g filter="url(#filter7_b_7542_24267)">
<path d="M38.9867 47.3945C40.3502 47.2418 41.1153 45.7547 40.4499 44.5548C32.1914 29.6621 24.7325 27.6872 11.0803 28.8807C9.70608 29.0009 8.89243 30.4675 9.52406 31.6939C16.2406 44.734 22.8902 49.1983 38.9867 47.3945Z" fill="#FFC329" fill-opacity="0.8"/>
</g>
<ellipse cx="40.6793" cy="46.5276" rx="2.92116" ry="2.92116" transform="rotate(-16.9187 40.6793 46.5276)" fill="#7A4D07"/>
</g>
<defs>
<filter id="filter0_f_7542_24267" x="69.0079" y="52.1074" width="17.3881" height="16.5889" filterUnits="userSpaceOnUse" color-interpolation-filters="sRGB">
<feFlood flood-opacity="0" result="BackgroundImageFix"/>
<feBlend mode="normal" in="SourceGraphic" in2="BackgroundImageFix" result="shape"/>
<feGaussianBlur stdDeviation="0.5" result="effect1_foregroundBlur_7542_24267"/>
</filter>
<filter id="filter1_f_7542_24267" x="9.71457" y="48.6445" width="22.5805" height="5.87793" filterUnits="userSpaceOnUse" color-interpolation-filters="sRGB">
<feFlood flood-opacity="0" result="BackgroundImageFix"/>
<feBlend mode="normal" in="SourceGraphic" in2="BackgroundImageFix" result="shape"/>
<feGaussianBlur stdDeviation="0.5" result="effect1_foregroundBlur_7542_24267"/>
</filter>
<filter id="filter2_b_7542_24267" x="51.1865" y="5.72559" width="61.6308" height="62.416" filterUnits="userSpaceOnUse" color-interpolation-filters="sRGB">
<feFlood flood-opacity="0" result="BackgroundImageFix"/>
<feGaussianBlur in="BackgroundImageFix" stdDeviation="5"/>
<feComposite in2="SourceAlpha" operator="in" result="effect1_backgroundBlur_7542_24267"/>
<feBlend mode="normal" in="SourceGraphic" in2="effect1_backgroundBlur_7542_24267" result="shape"/>
</filter>
<filter id="filter3_f_7542_24267" x="73.4997" y="29.4053" width="15.0452" height="15.0449" filterUnits="userSpaceOnUse" color-interpolation-filters="sRGB">
<feFlood flood-opacity="0" result="BackgroundImageFix"/>
<feBlend mode="normal" in="SourceGraphic" in2="BackgroundImageFix" result="shape"/>
<feGaussianBlur stdDeviation="2" result="effect1_foregroundBlur_7542_24267"/>
</filter>
<filter id="filter4_b_7542_24267" x="29.0815" y="5.39941" width="39.1796" height="51.3799" filterUnits="userSpaceOnUse" color-interpolation-filters="sRGB">
<feFlood flood-opacity="0" result="BackgroundImageFix"/>
<feGaussianBlur in="BackgroundImageFix" stdDeviation="5"/>
<feComposite in2="SourceAlpha" operator="in" result="effect1_backgroundBlur_7542_24267"/>
<feBlend mode="normal" in="SourceGraphic" in2="effect1_backgroundBlur_7542_24267" result="shape"/>
</filter>
<filter id="filter5_b_7542_24267" x="12.835" y="35.5635" width="39.1869" height="51.3867" filterUnits="userSpaceOnUse" color-interpolation-filters="sRGB">
<feFlood flood-opacity="0" result="BackgroundImageFix"/>
<feGaussianBlur in="BackgroundImageFix" stdDeviation="5"/>
<feComposite in2="SourceAlpha" operator="in" result="effect1_backgroundBlur_7542_24267"/>
<feBlend mode="normal" in="SourceGraphic" in2="effect1_backgroundBlur_7542_24267" result="shape"/>
</filter>
<filter id="filter6_b_7542_24267" x="30.1227" y="35.1807" width="51.3795" height="39.1797" filterUnits="userSpaceOnUse" color-interpolation-filters="sRGB">
<feFlood flood-opacity="0" result="BackgroundImageFix"/>
<feGaussianBlur in="BackgroundImageFix" stdDeviation="5"/>
<feComposite in2="SourceAlpha" operator="in" result="effect1_backgroundBlur_7542_24267"/>
<feBlend mode="normal" in="SourceGraphic" in2="effect1_backgroundBlur_7542_24267" result="shape"/>
</filter>
<filter id="filter7_b_7542_24267" x="-0.693268" y="18.5898" width="51.387" height="39.1875" filterUnits="userSpaceOnUse" color-interpolation-filters="sRGB">
<feFlood flood-opacity="0" result="BackgroundImageFix"/>
<feGaussianBlur in="BackgroundImageFix" stdDeviation="5"/>
<feComposite in2="SourceAlpha" operator="in" result="effect1_backgroundBlur_7542_24267"/>
<feBlend mode="normal" in="SourceGraphic" in2="effect1_backgroundBlur_7542_24267" result="shape"/>
</filter>
<clipPath id="clip0_7542_24267">
<rect width="26" height="26" fill="white" transform="translate(91.9011 49) rotate(90)"/>
</clipPath>
<clipPath id="clip1_7542_24267">
<rect width="26" height="26" fill="white" transform="matrix(-0.573625 0.819118 0.819118 0.573625 15.9142 34.0996)"/>
</clipPath>
<clipPath id="clip2_7542_24267">
<rect width="63" height="63" fill="white" transform="translate(8.90106 15)"/>
</clipPath>
</defs>
</svg>
