<svg width="108" height="88" viewBox="0 0 108 88" fill="none" xmlns="http://www.w3.org/2000/svg">
<g clip-path="url(#clip0_7542_24272)">
<g clip-path="url(#clip1_7542_24272)">
<g filter="url(#filter0_f_7542_24272)">
<circle cx="87.5" cy="16.5" r="10.125" fill="#FFD65E" fill-opacity="0.8"/>
</g>
<g filter="url(#filter1_b_7542_24272)">
<circle cx="87.5" cy="16.5" r="10.125" fill="#FFC329" fill-opacity="0.8"/>
<circle cx="87.5" cy="16.5" r="9.625" stroke="white" stroke-opacity="0.4"/>
</g>
</g>
<g opacity="0.8" clip-path="url(#clip2_7542_24272)">
<g filter="url(#filter2_bd_7542_24272)">
<path d="M23.8511 24.7068L50.7343 72.2513" stroke="#454545" stroke-width="1.5" stroke-linecap="round"/>
<path d="M58.8125 24.422C61.911 26.465 64.4302 29.1177 66.2262 32.2284C63.6455 31.8715 62.6466 32.6343 61.3443 35.047C55.0663 35.0204 51.527 37.3237 45.1573 44.3926C36.7838 44.6097 33.385 46.9925 28.9208 53.7667C21.6372 54.1773 18.131 55.5672 14.0283 62.3649C11.4801 62.2878 10.1702 62.499 8.94887 65.2975C7.15287 62.1867 6.11521 58.6788 5.89515 54.9738C5.67508 51.2689 6.27692 47.4396 7.6663 43.7046C9.05568 39.9696 11.2054 36.402 13.9927 33.2055C16.78 30.009 20.1503 27.2462 23.9112 25.0748C27.672 22.9035 31.7499 21.3661 35.9118 20.5505C40.0737 19.7349 44.2382 19.657 48.1675 20.3213C52.0968 20.9855 55.714 22.379 58.8125 24.422Z" fill="white"/>
<path d="M58.7803 24.2535C61.8788 26.2965 64.398 28.9492 66.194 32.0599C63.6134 31.703 62.6144 32.4658 61.3122 34.8785C56.0649 27.3799 41.2322 14.8875 23.879 24.9063C23.7389 24.9949 23.6001 25.0838 23.4626 25.1731C23.5954 25.079 23.7341 24.99 23.879 24.9063C27.6399 22.735 31.7177 21.1976 35.8796 20.382C40.0415 19.5664 44.206 19.4885 48.1353 20.1527C52.0646 20.817 55.6818 22.2104 58.7803 24.2535Z" fill="#7EC0FF"/>
<path d="M28.7715 53.6143C24.258 45.9084 17.0149 29.6784 23.3455 25.1892C23.4782 25.0951 23.617 25.0061 23.7619 24.9224C30.6952 20.9194 40.8148 36.133 45.008 44.2402C36.6345 44.4573 33.2357 46.8401 28.7715 53.6143Z" fill="#5EB0FF" fill-opacity="0.8"/>
<path d="M14.5984 32.7633C17.3857 29.5668 19.5678 27.4318 23.3287 25.2605C23.1885 25.349 23.2992 25.6612 23.1617 25.7505C4.94435 37.5849 10.3983 55.927 14.1931 62.7022C11.6449 62.6252 10.0856 62.6131 8.86423 65.4116C7.06823 62.3009 6.09151 58.2694 5.87145 54.5645C5.65138 50.8596 6.25322 47.0303 7.6426 43.2953C9.03197 39.5603 11.8111 35.9598 14.5984 32.7633Z" fill="#7EC0FF"/>
<path fill-rule="evenodd" clip-rule="evenodd" d="M22.0776 21.6708C22.4214 21.4723 22.8702 21.606 23.08 21.9694L24.5996 24.6014L23.3545 25.3203L21.8349 22.6883C21.6251 22.3249 21.7337 21.8693 22.0776 21.6708Z" fill="black"/>
</g>
</g>
<g clip-path="url(#clip3_7542_24272)">
<g filter="url(#filter3_b_7542_24272)">
<path fill-rule="evenodd" clip-rule="evenodd" d="M63.4105 83.9525C74.6961 83.9525 83.8449 76.5463 83.8449 67.4103C83.8449 58.2743 74.6961 50.8682 63.4105 50.8682C52.1248 50.8682 42.976 58.2743 42.976 67.4103C42.976 76.5463 52.1248 83.9525 63.4105 83.9525ZM63.4103 69.6158C68.1621 69.6158 72.0143 67.394 72.0143 64.6532C72.0143 61.9124 68.1621 59.6905 63.4103 59.6905C58.6585 59.6905 54.8063 61.9124 54.8063 64.6532C54.8063 67.394 58.6585 69.6158 63.4103 69.6158Z" fill="#FFC329" fill-opacity="0.8"/>
<path fill-rule="evenodd" clip-rule="evenodd" d="M55.0117 66.4369C54.1651 65.5743 53.6798 64.5696 53.6798 63.4973C53.442 59.9437 57.7765 56.8278 63.4105 57.1933C69.3188 56.9335 73.6177 60.0473 73.1411 63.4973C73.1411 64.5699 72.6556 65.5747 71.8087 66.4374C71.9433 66.0584 72.0143 65.6644 72.0143 65.26C72.0143 62.2808 68.1621 59.8656 63.4103 59.8656C58.6584 59.8656 54.8063 62.2808 54.8063 65.26C54.8063 65.6642 54.8772 66.058 55.0117 66.4369Z" fill="#905E12" fill-opacity="0.1"/>
<path d="M83.8449 65.2051C83.8449 73.732 74.6961 80.6444 63.4105 80.6444C52.1248 80.6444 42.976 73.732 42.976 65.2051" stroke="#FCE19D" stroke-linecap="round"/>
<path d="M77.2995 64.5625C77.5252 63.699 78.4058 63.1907 79.2664 63.4272C80.127 63.6636 80.6417 64.5553 80.4161 65.4188L79.8414 67.618C79.6158 68.4815 78.7352 68.9898 77.8746 68.7533C77.014 68.5169 76.4992 67.6252 76.7249 66.7617L77.2995 64.5625Z" fill="#7EC0FF"/>
<rect width="3.23204" height="5.50501" rx="1.61602" transform="matrix(0.964266 -0.264936 0.252823 0.967512 45.127 63.8555)" fill="#7EC0FF"/>
</g>
</g>
</g>
<defs>
<filter id="filter0_f_7542_24272" x="72.375" y="1.375" width="30.25" height="30.25" filterUnits="userSpaceOnUse" color-interpolation-filters="sRGB">
<feFlood flood-opacity="0" result="BackgroundImageFix"/>
<feBlend mode="normal" in="SourceGraphic" in2="BackgroundImageFix" result="shape"/>
<feGaussianBlur stdDeviation="2.5" result="effect1_foregroundBlur_7542_24272"/>
</filter>
<filter id="filter1_b_7542_24272" x="57.375" y="-13.625" width="60.25" height="60.25" filterUnits="userSpaceOnUse" color-interpolation-filters="sRGB">
<feFlood flood-opacity="0" result="BackgroundImageFix"/>
<feGaussianBlur in="BackgroundImageFix" stdDeviation="10"/>
<feComposite in2="SourceAlpha" operator="in" result="effect1_backgroundBlur_7542_24272"/>
<feBlend mode="normal" in="SourceGraphic" in2="effect1_backgroundBlur_7542_24272" result="shape"/>
</filter>
<filter id="filter2_bd_7542_24272" x="-4.17282" y="9.70605" width="80.399" height="73.2949" filterUnits="userSpaceOnUse" color-interpolation-filters="sRGB">
<feFlood flood-opacity="0" result="BackgroundImageFix"/>
<feGaussianBlur in="BackgroundImageFix" stdDeviation="5"/>
<feComposite in2="SourceAlpha" operator="in" result="effect1_backgroundBlur_7542_24272"/>
<feColorMatrix in="SourceAlpha" type="matrix" values="0 0 0 0 0 0 0 0 0 0 0 0 0 0 0 0 0 0 127 0" result="hardAlpha"/>
<feOffset dy="1"/>
<feGaussianBlur stdDeviation="1"/>
<feComposite in2="hardAlpha" operator="out"/>
<feColorMatrix type="matrix" values="0 0 0 0 0 0 0 0 0 0 0 0 0 0 0 0 0 0 0.1 0"/>
<feBlend mode="normal" in2="effect1_backgroundBlur_7542_24272" result="effect2_dropShadow_7542_24272"/>
<feBlend mode="normal" in="SourceGraphic" in2="effect2_dropShadow_7542_24272" result="shape"/>
</filter>
<filter id="filter3_b_7542_24272" x="38.476" y="46.8682" width="49.8689" height="41.084" filterUnits="userSpaceOnUse" color-interpolation-filters="sRGB">
<feFlood flood-opacity="0" result="BackgroundImageFix"/>
<feGaussianBlur in="BackgroundImageFix" stdDeviation="2"/>
<feComposite in2="SourceAlpha" operator="in" result="effect1_backgroundBlur_7542_24272"/>
<feBlend mode="normal" in="SourceGraphic" in2="effect1_backgroundBlur_7542_24272" result="shape"/>
</filter>
<clipPath id="clip0_7542_24272">
<rect width="108" height="88" fill="white"/>
</clipPath>
<clipPath id="clip1_7542_24272">
<rect width="27" height="27" fill="white" transform="translate(74 3)"/>
</clipPath>
<clipPath id="clip2_7542_24272">
<rect width="70" height="70" fill="white" transform="translate(2 9)"/>
</clipPath>
<clipPath id="clip3_7542_24272">
<rect width="44.7611" height="44.7611" fill="white" transform="translate(36 51.585) rotate(-15)"/>
</clipPath>
</defs>
</svg>
