<svg width="104" height="112" viewBox="0 0 104 112" fill="none" xmlns="http://www.w3.org/2000/svg">
<g filter="url(#filter0_bdd_2959_2517)">
<path d="M67.4407 33.3982L47.5682 28.0734C47.2665 27.9925 46.9926 28.2733 47.081 28.5729L52.3829 46.5529C52.5944 47.2702 53.4895 47.51 54.0313 46.9946L67.6129 34.0744C67.8392 33.8591 67.7424 33.4791 67.4407 33.3982Z" fill="#7EC5FF" fill-opacity="0.6"/>
<path d="M67.5701 32.9153L47.6976 27.5904C47.0187 27.4085 46.4026 28.0402 46.6014 28.7143L51.9033 46.6943C52.2206 47.7702 53.5632 48.13 54.3759 47.3569L67.9575 34.4367C68.4667 33.9522 68.249 33.0972 67.5701 32.9153Z" stroke="white" stroke-opacity="0.5" stroke-linecap="square"/>
<path fill-rule="evenodd" clip-rule="evenodd" d="M61.5603 25.9138C60.9225 26.0872 60.2574 26.1378 59.6016 26.0665L59.0707 28.0479C59.1792 28.1154 59.2835 28.1907 59.3827 28.2735L77.3793 43.2981C79.5915 45.145 77.7465 48.583 74.9459 47.8326L33.8514 36.8213C31.0507 36.0709 31.1719 32.171 34.0112 31.6777L57.109 27.6643C57.2363 27.6422 57.3643 27.6291 57.492 27.6248L58.3534 24.4099C58.3878 24.2816 58.5234 24.2063 58.6561 24.2419C59.3574 24.402 60.4903 24.4608 61.0707 24.303C61.7235 24.1255 62.3042 23.7631 62.7394 23.2615C63.1746 22.7599 63.4447 22.1418 63.5156 21.4852C63.5865 20.8285 63.455 20.163 63.1376 19.5727C62.8203 18.9823 62.3315 18.4938 61.7329 18.1687C61.1343 17.8436 60.4529 17.6967 59.7749 17.7464C59.0968 17.7962 58.4525 18.0404 57.9235 18.4482C57.536 18.747 57.2231 19.1237 57.0041 19.5509C56.8712 19.8102 56.5704 19.9637 56.2837 19.8727L55.6779 19.6804C55.3911 19.5894 55.2281 19.2895 55.3466 19.0235C55.676 18.2845 56.1874 17.6345 56.8396 17.1317C57.6331 16.52 58.5995 16.1536 59.6166 16.079C60.6337 16.0044 61.6558 16.2248 62.5536 16.7124C63.4515 17.2 64.1848 17.9329 64.6608 18.8184C65.1367 19.7039 65.334 20.7022 65.2277 21.6871C65.1214 22.672 64.7162 23.5993 64.0634 24.3516C63.4106 25.104 62.5396 25.6476 61.5603 25.9138ZM58.3317 29.4675L76.3283 44.4921C77.2132 45.2309 76.4752 46.6061 75.3549 46.3059L34.2604 35.2947C33.1402 34.9945 33.1886 33.4346 34.3244 33.2372L57.4222 29.2239C57.7454 29.1677 58.0799 29.2573 58.3317 29.4675Z" fill="black"/>
<path d="M46.8793 27.8888L53.3634 46.1906L68.1296 33.5828L76.3631 39.573C78.2169 40.9218 79.1401 43.2089 78.7421 45.4666L72.4206 81.32L71.7527 85.4031C71.671 85.9029 71.2286 86.2626 70.7227 86.2408L62.3985 85.8815L44.0459 80.964L25.6933 76.0464L18.3046 72.1954C17.8556 71.9614 17.6524 71.4286 17.8315 70.955L19.2946 67.085L31.7467 32.8743C32.5309 30.72 34.474 29.2009 36.7538 28.9597L46.8793 27.8888Z" fill="white"/>
<path d="M46.8793 27.8888L53.3634 46.1906L68.1296 33.5828L76.3631 39.573C78.2169 40.9218 79.1401 43.2089 78.7421 45.4666L72.4206 81.32L71.7527 85.4031C71.671 85.9029 71.2286 86.2626 70.7227 86.2408L62.3985 85.8815L44.0459 80.964L25.6933 76.0464L18.3046 72.1954C17.8556 71.9614 17.6524 71.4286 17.8315 70.955L19.2946 67.085L31.7467 32.8743C32.5309 30.72 34.474 29.2009 36.7538 28.9597L46.8793 27.8888Z" fill="#7EC5FF" fill-opacity="0.6"/>
<path d="M44.0459 80.964L53.3634 46.1906M44.0459 80.964L25.6933 76.0464M44.0459 80.964L62.3985 85.8815M53.3634 46.1906L46.8793 27.8888M53.3634 46.1906L42.8769 35.0986L46.8793 27.8888M53.3634 46.1906L68.1296 33.5828M53.3634 46.1906L67.9909 41.8279L68.1296 33.5828M46.8793 27.8888L36.7538 28.9597C34.474 29.2009 32.5309 30.72 31.7467 32.8743L19.2946 67.085M25.6933 76.0464L18.3046 72.1954C17.8556 71.9614 17.6524 71.4286 17.8315 70.955L19.2946 67.085M25.6933 76.0464L26.9874 71.2168M35.9767 41.5319L26.9874 71.2168M19.2946 67.085L26.9874 71.2168M68.1296 33.5828L76.3631 39.573C78.2169 40.9218 79.1401 43.2089 78.7421 45.4666L72.4206 81.32M62.3985 85.8815L70.7227 86.2408C71.2286 86.2626 71.671 85.9029 71.7527 85.4031L72.4206 81.32M62.3985 85.8815L63.6926 81.0519M70.75 50.8494L63.6926 81.0519M72.4206 81.32L63.6926 81.0519" stroke="white" stroke-opacity="0.5" stroke-width="2" stroke-linecap="round"/>
</g>
<defs>
<filter id="filter0_bdd_2959_2517" x="-23.2335" y="-23.9352" width="143.067" height="151.177" filterUnits="userSpaceOnUse" color-interpolation-filters="sRGB">
<feFlood flood-opacity="0" result="BackgroundImageFix"/>
<feGaussianBlur in="BackgroundImageFix" stdDeviation="20"/>
<feComposite in2="SourceAlpha" operator="in" result="effect1_backgroundBlur_2959_2517"/>
<feColorMatrix in="SourceAlpha" type="matrix" values="0 0 0 0 0 0 0 0 0 0 0 0 0 0 0 0 0 0 127 0" result="hardAlpha"/>
<feOffset dx="4" dy="4"/>
<feGaussianBlur stdDeviation="10"/>
<feComposite in2="hardAlpha" operator="out"/>
<feColorMatrix type="matrix" values="0 0 0 0 0 0 0 0 0 0 0 0 0 0 0 0 0 0 0.05 0"/>
<feBlend mode="normal" in2="effect1_backgroundBlur_2959_2517" result="effect2_dropShadow_2959_2517"/>
<feColorMatrix in="SourceAlpha" type="matrix" values="0 0 0 0 0 0 0 0 0 0 0 0 0 0 0 0 0 0 127 0" result="hardAlpha"/>
<feOffset/>
<feGaussianBlur stdDeviation="1"/>
<feComposite in2="hardAlpha" operator="out"/>
<feColorMatrix type="matrix" values="0 0 0 0 0 0 0 0 0 0 0 0 0 0 0 0 0 0 0.05 0"/>
<feBlend mode="normal" in2="effect2_dropShadow_2959_2517" result="effect3_dropShadow_2959_2517"/>
<feBlend mode="normal" in="SourceGraphic" in2="effect3_dropShadow_2959_2517" result="shape"/>
</filter>
</defs>
</svg>
