<svg width="108" height="88" viewBox="0 0 108 88" fill="none" xmlns="http://www.w3.org/2000/svg">
<g filter="url(#filter0_b_7542_24260)">
<path d="M70.6913 29.7448C71.1232 29.313 71.8233 29.313 72.2551 29.7448C72.6869 30.1766 72.6869 30.8768 72.2551 31.3086L61.3086 42.2551C60.8767 42.687 60.1766 42.687 59.7448 42.2551C59.3129 41.8233 59.3129 41.1232 59.7448 40.6913L70.6913 29.7448Z" fill="#7EC5FF" fill-opacity="0.6"/>
</g>
<g filter="url(#filter1_b_7542_24260)">
<path d="M59.7448 31.3092C59.3129 30.8774 59.3129 30.1773 59.7448 29.7454C60.1766 29.3136 60.8767 29.3136 61.3086 29.7454L72.2551 40.692C72.687 41.1238 72.687 41.824 72.2551 42.2558C71.8233 42.6876 71.1232 42.6876 70.6913 42.2558L59.7448 31.3092Z" fill="#7EC5FF" fill-opacity="0.6"/>
</g>
<g filter="url(#filter2_b_7542_24260)">
<path d="M73.7404 34.8945C74.3511 34.8945 74.8461 35.3896 74.8461 36.0003C74.8461 36.611 74.3511 37.1061 73.7404 37.1061L58.2596 37.1061C57.6489 37.1061 57.1538 36.611 57.1538 36.0003C57.1538 35.3896 57.6489 34.8945 58.2596 34.8945L73.7404 34.8945Z" fill="#7EC5FF" fill-opacity="0.6"/>
</g>
<g filter="url(#filter3_b_7542_24260)">
<path d="M64.8942 28.2601C64.8942 27.6494 65.3893 27.1543 66 27.1543C66.6107 27.1543 67.1058 27.6494 67.1058 28.2601V43.7408C67.1058 44.3515 66.6107 44.8466 66 44.8466C65.3893 44.8466 64.8942 44.3515 64.8942 43.7408V28.2601Z" fill="#7EC5FF" fill-opacity="0.6"/>
</g>
<g clip-path="url(#clip0_7542_24260)">
<g filter="url(#filter4_b_7542_24260)">
<path d="M91.5494 10.434C91.8301 10.1533 92.2851 10.1533 92.5658 10.434C92.8465 10.7147 92.8465 11.1698 92.5658 11.4505L85.4506 18.5657C85.1699 18.8464 84.7148 18.8464 84.4341 18.5657C84.1534 18.2851 84.1534 17.83 84.4341 17.5493L91.5494 10.434Z" fill="#7EC5FF" fill-opacity="0.6"/>
</g>
<g filter="url(#filter5_b_7542_24260)">
<path d="M84.4341 11.4506C84.1534 11.1699 84.1534 10.7148 84.4341 10.4341C84.7148 10.1535 85.1699 10.1535 85.4506 10.4341L92.5658 17.5494C92.8465 17.8301 92.8465 18.2852 92.5658 18.5659C92.2851 18.8466 91.8301 18.8466 91.5494 18.5659L84.4341 11.4506Z" fill="#7EC5FF" fill-opacity="0.6"/>
</g>
<g filter="url(#filter6_b_7542_24260)">
<path d="M93.5312 13.7812C93.9282 13.7812 94.25 14.103 94.25 14.5C94.25 14.897 93.9282 15.2187 93.5312 15.2187L83.4687 15.2187C83.0718 15.2187 82.75 14.897 82.75 14.5C82.75 14.103 83.0718 13.7812 83.4688 13.7812L93.5312 13.7812Z" fill="#7EC5FF" fill-opacity="0.6"/>
</g>
<g filter="url(#filter7_b_7542_24260)">
<path d="M87.7812 9.46875C87.7812 9.0718 88.103 8.75 88.5 8.75C88.897 8.75 89.2188 9.0718 89.2188 9.46875V19.5312C89.2188 19.9282 88.897 20.25 88.5 20.25C88.103 20.25 87.7812 19.9282 87.7812 19.5312V9.46875Z" fill="#7EC5FF" fill-opacity="0.6"/>
</g>
</g>
<g clip-path="url(#clip1_7542_24260)">
<g filter="url(#filter8_b_7542_24260)">
<path d="M28.4876 8.18317C28.8547 7.81611 29.4498 7.81611 29.8169 8.18317C30.1839 8.55022 30.1839 9.14534 29.8169 9.51239L20.5123 18.817C20.1452 19.184 19.5501 19.184 19.1831 18.817C18.816 18.4499 18.816 17.8548 19.1831 17.4877L28.4876 8.18317Z" fill="#7EC5FF" fill-opacity="0.6"/>
</g>
<g filter="url(#filter9_b_7542_24260)">
<path d="M19.1831 9.51227C18.816 9.14521 18.816 8.5501 19.1831 8.18304C19.5501 7.81599 20.1452 7.81599 20.5123 8.18304L29.8169 17.4876C30.1839 17.8547 30.1839 18.4498 29.8169 18.8168C29.4498 19.1839 28.8547 19.1839 28.4876 18.8168L19.1831 9.51227Z" fill="#7EC5FF" fill-opacity="0.6"/>
</g>
<g filter="url(#filter10_b_7542_24260)">
<path d="M31.0793 12.5596C31.5984 12.5596 32.0192 12.9804 32.0192 13.4995C32.0192 14.0186 31.5984 14.4394 31.0793 14.4394L17.9207 14.4394C17.4016 14.4394 16.9808 14.0186 16.9808 13.4995C16.9808 12.9804 17.4016 12.5596 17.9207 12.5596L31.0793 12.5596Z" fill="#7EC5FF" fill-opacity="0.6"/>
</g>
<g filter="url(#filter11_b_7542_24260)">
<path d="M23.5601 6.92037C23.5601 6.40128 23.9809 5.98047 24.5 5.98047C25.0191 5.98047 25.4399 6.40128 25.4399 6.92037V20.079C25.4399 20.5981 25.0191 21.0189 24.5 21.0189C23.9809 21.0189 23.5601 20.5981 23.5601 20.079V6.92037Z" fill="#7EC5FF" fill-opacity="0.6"/>
</g>
</g>
<g clip-path="url(#clip2_7542_24260)">
<g filter="url(#filter12_b_7542_24260)">
<path d="M93.5494 54.434C93.8301 54.1533 94.2851 54.1533 94.5658 54.434C94.8465 54.7147 94.8465 55.1698 94.5658 55.4505L87.4506 62.5657C87.1699 62.8464 86.7148 62.8464 86.4341 62.5657C86.1534 62.2851 86.1534 61.83 86.4341 61.5493L93.5494 54.434Z" fill="#7EC5FF" fill-opacity="0.6"/>
</g>
<g filter="url(#filter13_b_7542_24260)">
<path d="M86.4341 55.4506C86.1534 55.1699 86.1534 54.7148 86.4341 54.4341C86.7148 54.1535 87.1699 54.1535 87.4506 54.4341L94.5658 61.5494C94.8465 61.8301 94.8465 62.2852 94.5658 62.5659C94.2851 62.8466 93.8301 62.8466 93.5494 62.5659L86.4341 55.4506Z" fill="#7EC5FF" fill-opacity="0.6"/>
</g>
<g filter="url(#filter14_b_7542_24260)">
<path d="M95.5312 57.7812C95.9282 57.7812 96.25 58.103 96.25 58.5C96.25 58.897 95.9282 59.2187 95.5312 59.2187L85.4687 59.2187C85.0718 59.2187 84.75 58.897 84.75 58.5C84.75 58.103 85.0718 57.7812 85.4688 57.7812L95.5312 57.7812Z" fill="#7EC5FF" fill-opacity="0.6"/>
</g>
<g filter="url(#filter15_b_7542_24260)">
<path d="M89.7812 53.4688C89.7812 53.0718 90.103 52.75 90.5 52.75C90.897 52.75 91.2188 53.0718 91.2188 53.4688V63.5312C91.2188 63.9282 90.897 64.25 90.5 64.25C90.103 64.25 89.7812 63.9282 89.7812 63.5312V53.4688Z" fill="#7EC5FF" fill-opacity="0.6"/>
</g>
</g>
<g clip-path="url(#clip3_7542_24260)">
<g filter="url(#filter16_b_7542_24260)">
<path d="M22.0185 66.8081C22.3424 66.4842 22.8675 66.4842 23.1913 66.8081C23.5152 67.132 23.5152 67.6571 23.1913 67.9809L14.9814 76.1909C14.6576 76.5147 14.1325 76.5147 13.8086 76.1909C13.4847 75.867 13.4847 75.3419 13.8086 75.018L22.0185 66.8081Z" fill="#7EC5FF" fill-opacity="0.6"/>
</g>
<g filter="url(#filter17_b_7542_24260)">
<path d="M13.8086 67.981C13.4847 67.6571 13.4847 67.132 13.8086 66.8081C14.1325 66.4842 14.6576 66.4842 14.9814 66.8081L23.1914 75.018C23.5152 75.3419 23.5152 75.867 23.1914 76.1909C22.8675 76.5147 22.3424 76.5147 22.0185 76.1909L13.8086 67.981Z" fill="#7EC5FF" fill-opacity="0.6"/>
</g>
<g filter="url(#filter18_b_7542_24260)">
<path d="M24.3053 70.6709C24.7633 70.6709 25.1346 71.0422 25.1346 71.5002C25.1346 71.9582 24.7633 72.3296 24.3053 72.3296L12.6947 72.3296C12.2367 72.3296 11.8654 71.9582 11.8654 71.5002C11.8654 71.0422 12.2367 70.6709 12.6947 70.6709L24.3053 70.6709Z" fill="#7EC5FF" fill-opacity="0.6"/>
</g>
<g filter="url(#filter19_b_7542_24260)">
<path d="M17.6707 65.6946C17.6707 65.2365 18.042 64.8652 18.5 64.8652C18.958 64.8652 19.3293 65.2365 19.3293 65.6946V77.3051C19.3293 77.7632 18.958 78.1345 18.5 78.1345C18.042 78.1345 17.6707 77.7632 17.6707 77.3051V65.6946Z" fill="#7EC5FF" fill-opacity="0.6"/>
</g>
</g>
<g clip-path="url(#clip4_7542_24260)">
<g filter="url(#filter20_bd_7542_24260)">
<circle cx="46.5206" cy="65.4066" r="15.8261" transform="rotate(-15 46.5206 65.4066)" fill="white" fill-opacity="0.5"/>
<rect x="36.6294" y="56.7139" width="4.86957" height="13.3913" transform="rotate(-15 36.6294 56.7139)" fill="#FF6262"/>
<circle cx="40.534" cy="43.0643" r="12.1739" transform="rotate(-15 40.534 43.0643)" fill="white" fill-opacity="0.5"/>
<path d="M49.1292 43.5105C49.5456 43.5035 49.6941 44.0581 49.3301 44.2602L44.5941 46.8893C44.3665 47.0156 44.0809 46.8945 44.0135 46.6431L43.3335 44.1051C43.2661 43.8537 43.4529 43.606 43.7131 43.6016L49.1292 43.5105Z" fill="#FFA14A"/>
<circle cx="37.0063" cy="44.0093" r="1.21739" transform="rotate(-15 37.0063 44.0093)" fill="black"/>
<circle cx="47.5894" cy="41.1743" r="1.21739" transform="rotate(-15 47.5894 41.1743)" fill="black"/>
<path d="M32.8011 54.1861C32.6368 53.573 33.0792 52.9643 33.7127 52.9245C40.5296 52.4961 45.5898 51.6946 51.4448 48.6428C52.0234 48.3413 52.7413 48.6426 52.9102 49.2728L53.4466 51.2748C53.5549 51.6788 53.4004 52.109 53.0549 52.3447C46.7658 56.635 41.5167 57.3712 34.2474 56.9578C33.8197 56.9335 33.4574 56.6356 33.3466 56.2218L32.8011 54.1861Z" fill="#FF6262"/>
</g>
</g>
<defs>
<filter id="filter0_b_7542_24260" x="49.4209" y="19.4209" width="33.1581" height="33.1582" filterUnits="userSpaceOnUse" color-interpolation-filters="sRGB">
<feFlood flood-opacity="0" result="BackgroundImageFix"/>
<feGaussianBlur in="BackgroundImageFix" stdDeviation="5"/>
<feComposite in2="SourceAlpha" operator="in" result="effect1_backgroundBlur_7542_24260"/>
<feBlend mode="normal" in="SourceGraphic" in2="effect1_backgroundBlur_7542_24260" result="shape"/>
</filter>
<filter id="filter1_b_7542_24260" x="49.4209" y="19.4219" width="33.1581" height="33.1582" filterUnits="userSpaceOnUse" color-interpolation-filters="sRGB">
<feFlood flood-opacity="0" result="BackgroundImageFix"/>
<feGaussianBlur in="BackgroundImageFix" stdDeviation="5"/>
<feComposite in2="SourceAlpha" operator="in" result="effect1_backgroundBlur_7542_24260"/>
<feBlend mode="normal" in="SourceGraphic" in2="effect1_backgroundBlur_7542_24260" result="shape"/>
</filter>
<filter id="filter2_b_7542_24260" x="47.1538" y="24.8945" width="37.6923" height="22.2119" filterUnits="userSpaceOnUse" color-interpolation-filters="sRGB">
<feFlood flood-opacity="0" result="BackgroundImageFix"/>
<feGaussianBlur in="BackgroundImageFix" stdDeviation="5"/>
<feComposite in2="SourceAlpha" operator="in" result="effect1_backgroundBlur_7542_24260"/>
<feBlend mode="normal" in="SourceGraphic" in2="effect1_backgroundBlur_7542_24260" result="shape"/>
</filter>
<filter id="filter3_b_7542_24260" x="54.8942" y="17.1543" width="22.2115" height="37.6924" filterUnits="userSpaceOnUse" color-interpolation-filters="sRGB">
<feFlood flood-opacity="0" result="BackgroundImageFix"/>
<feGaussianBlur in="BackgroundImageFix" stdDeviation="5"/>
<feComposite in2="SourceAlpha" operator="in" result="effect1_backgroundBlur_7542_24260"/>
<feBlend mode="normal" in="SourceGraphic" in2="effect1_backgroundBlur_7542_24260" result="shape"/>
</filter>
<filter id="filter4_b_7542_24260" x="74.2236" y="0.223633" width="28.5528" height="28.5527" filterUnits="userSpaceOnUse" color-interpolation-filters="sRGB">
<feFlood flood-opacity="0" result="BackgroundImageFix"/>
<feGaussianBlur in="BackgroundImageFix" stdDeviation="5"/>
<feComposite in2="SourceAlpha" operator="in" result="effect1_backgroundBlur_7542_24260"/>
<feBlend mode="normal" in="SourceGraphic" in2="effect1_backgroundBlur_7542_24260" result="shape"/>
</filter>
<filter id="filter5_b_7542_24260" x="74.2236" y="0.223633" width="28.5528" height="28.5527" filterUnits="userSpaceOnUse" color-interpolation-filters="sRGB">
<feFlood flood-opacity="0" result="BackgroundImageFix"/>
<feGaussianBlur in="BackgroundImageFix" stdDeviation="5"/>
<feComposite in2="SourceAlpha" operator="in" result="effect1_backgroundBlur_7542_24260"/>
<feBlend mode="normal" in="SourceGraphic" in2="effect1_backgroundBlur_7542_24260" result="shape"/>
</filter>
<filter id="filter6_b_7542_24260" x="72.75" y="3.78125" width="31.5" height="21.4375" filterUnits="userSpaceOnUse" color-interpolation-filters="sRGB">
<feFlood flood-opacity="0" result="BackgroundImageFix"/>
<feGaussianBlur in="BackgroundImageFix" stdDeviation="5"/>
<feComposite in2="SourceAlpha" operator="in" result="effect1_backgroundBlur_7542_24260"/>
<feBlend mode="normal" in="SourceGraphic" in2="effect1_backgroundBlur_7542_24260" result="shape"/>
</filter>
<filter id="filter7_b_7542_24260" x="77.7812" y="-1.25" width="21.4375" height="31.5" filterUnits="userSpaceOnUse" color-interpolation-filters="sRGB">
<feFlood flood-opacity="0" result="BackgroundImageFix"/>
<feGaussianBlur in="BackgroundImageFix" stdDeviation="5"/>
<feComposite in2="SourceAlpha" operator="in" result="effect1_backgroundBlur_7542_24260"/>
<feBlend mode="normal" in="SourceGraphic" in2="effect1_backgroundBlur_7542_24260" result="shape"/>
</filter>
<filter id="filter8_b_7542_24260" x="8.90778" y="-2.0918" width="31.1844" height="31.1836" filterUnits="userSpaceOnUse" color-interpolation-filters="sRGB">
<feFlood flood-opacity="0" result="BackgroundImageFix"/>
<feGaussianBlur in="BackgroundImageFix" stdDeviation="5"/>
<feComposite in2="SourceAlpha" operator="in" result="effect1_backgroundBlur_7542_24260"/>
<feBlend mode="normal" in="SourceGraphic" in2="effect1_backgroundBlur_7542_24260" result="shape"/>
</filter>
<filter id="filter9_b_7542_24260" x="8.90778" y="-2.0918" width="31.1844" height="31.1836" filterUnits="userSpaceOnUse" color-interpolation-filters="sRGB">
<feFlood flood-opacity="0" result="BackgroundImageFix"/>
<feGaussianBlur in="BackgroundImageFix" stdDeviation="5"/>
<feComposite in2="SourceAlpha" operator="in" result="effect1_backgroundBlur_7542_24260"/>
<feBlend mode="normal" in="SourceGraphic" in2="effect1_backgroundBlur_7542_24260" result="shape"/>
</filter>
<filter id="filter10_b_7542_24260" x="6.98077" y="2.55957" width="35.0385" height="21.8799" filterUnits="userSpaceOnUse" color-interpolation-filters="sRGB">
<feFlood flood-opacity="0" result="BackgroundImageFix"/>
<feGaussianBlur in="BackgroundImageFix" stdDeviation="5"/>
<feComposite in2="SourceAlpha" operator="in" result="effect1_backgroundBlur_7542_24260"/>
<feBlend mode="normal" in="SourceGraphic" in2="effect1_backgroundBlur_7542_24260" result="shape"/>
</filter>
<filter id="filter11_b_7542_24260" x="13.5601" y="-4.01953" width="21.8798" height="35.0381" filterUnits="userSpaceOnUse" color-interpolation-filters="sRGB">
<feFlood flood-opacity="0" result="BackgroundImageFix"/>
<feGaussianBlur in="BackgroundImageFix" stdDeviation="5"/>
<feComposite in2="SourceAlpha" operator="in" result="effect1_backgroundBlur_7542_24260"/>
<feBlend mode="normal" in="SourceGraphic" in2="effect1_backgroundBlur_7542_24260" result="shape"/>
</filter>
<filter id="filter12_b_7542_24260" x="76.2236" y="44.2236" width="28.5528" height="28.5527" filterUnits="userSpaceOnUse" color-interpolation-filters="sRGB">
<feFlood flood-opacity="0" result="BackgroundImageFix"/>
<feGaussianBlur in="BackgroundImageFix" stdDeviation="5"/>
<feComposite in2="SourceAlpha" operator="in" result="effect1_backgroundBlur_7542_24260"/>
<feBlend mode="normal" in="SourceGraphic" in2="effect1_backgroundBlur_7542_24260" result="shape"/>
</filter>
<filter id="filter13_b_7542_24260" x="76.2236" y="44.2236" width="28.5528" height="28.5527" filterUnits="userSpaceOnUse" color-interpolation-filters="sRGB">
<feFlood flood-opacity="0" result="BackgroundImageFix"/>
<feGaussianBlur in="BackgroundImageFix" stdDeviation="5"/>
<feComposite in2="SourceAlpha" operator="in" result="effect1_backgroundBlur_7542_24260"/>
<feBlend mode="normal" in="SourceGraphic" in2="effect1_backgroundBlur_7542_24260" result="shape"/>
</filter>
<filter id="filter14_b_7542_24260" x="74.75" y="47.7812" width="31.5" height="21.4375" filterUnits="userSpaceOnUse" color-interpolation-filters="sRGB">
<feFlood flood-opacity="0" result="BackgroundImageFix"/>
<feGaussianBlur in="BackgroundImageFix" stdDeviation="5"/>
<feComposite in2="SourceAlpha" operator="in" result="effect1_backgroundBlur_7542_24260"/>
<feBlend mode="normal" in="SourceGraphic" in2="effect1_backgroundBlur_7542_24260" result="shape"/>
</filter>
<filter id="filter15_b_7542_24260" x="79.7812" y="42.75" width="21.4375" height="31.5" filterUnits="userSpaceOnUse" color-interpolation-filters="sRGB">
<feFlood flood-opacity="0" result="BackgroundImageFix"/>
<feGaussianBlur in="BackgroundImageFix" stdDeviation="5"/>
<feComposite in2="SourceAlpha" operator="in" result="effect1_backgroundBlur_7542_24260"/>
<feBlend mode="normal" in="SourceGraphic" in2="effect1_backgroundBlur_7542_24260" result="shape"/>
</filter>
<filter id="filter16_b_7542_24260" x="3.56567" y="56.5654" width="29.8686" height="29.8682" filterUnits="userSpaceOnUse" color-interpolation-filters="sRGB">
<feFlood flood-opacity="0" result="BackgroundImageFix"/>
<feGaussianBlur in="BackgroundImageFix" stdDeviation="5"/>
<feComposite in2="SourceAlpha" operator="in" result="effect1_backgroundBlur_7542_24260"/>
<feBlend mode="normal" in="SourceGraphic" in2="effect1_backgroundBlur_7542_24260" result="shape"/>
</filter>
<filter id="filter17_b_7542_24260" x="3.56567" y="56.5654" width="29.8686" height="29.8682" filterUnits="userSpaceOnUse" color-interpolation-filters="sRGB">
<feFlood flood-opacity="0" result="BackgroundImageFix"/>
<feGaussianBlur in="BackgroundImageFix" stdDeviation="5"/>
<feComposite in2="SourceAlpha" operator="in" result="effect1_backgroundBlur_7542_24260"/>
<feBlend mode="normal" in="SourceGraphic" in2="effect1_backgroundBlur_7542_24260" result="shape"/>
</filter>
<filter id="filter18_b_7542_24260" x="1.86539" y="60.6709" width="33.2692" height="21.6582" filterUnits="userSpaceOnUse" color-interpolation-filters="sRGB">
<feFlood flood-opacity="0" result="BackgroundImageFix"/>
<feGaussianBlur in="BackgroundImageFix" stdDeviation="5"/>
<feComposite in2="SourceAlpha" operator="in" result="effect1_backgroundBlur_7542_24260"/>
<feBlend mode="normal" in="SourceGraphic" in2="effect1_backgroundBlur_7542_24260" result="shape"/>
</filter>
<filter id="filter19_b_7542_24260" x="7.67068" y="54.8652" width="21.6587" height="33.2695" filterUnits="userSpaceOnUse" color-interpolation-filters="sRGB">
<feFlood flood-opacity="0" result="BackgroundImageFix"/>
<feGaussianBlur in="BackgroundImageFix" stdDeviation="5"/>
<feComposite in2="SourceAlpha" operator="in" result="effect1_backgroundBlur_7542_24260"/>
<feBlend mode="normal" in="SourceGraphic" in2="effect1_backgroundBlur_7542_24260" result="shape"/>
</filter>
<filter id="filter20_bd_7542_24260" x="18.3571" y="20.8877" width="53.9935" height="70.3486" filterUnits="userSpaceOnUse" color-interpolation-filters="sRGB">
<feFlood flood-opacity="0" result="BackgroundImageFix"/>
<feGaussianBlur in="BackgroundImageFix" stdDeviation="5"/>
<feComposite in2="SourceAlpha" operator="in" result="effect1_backgroundBlur_7542_24260"/>
<feColorMatrix in="SourceAlpha" type="matrix" values="0 0 0 0 0 0 0 0 0 0 0 0 0 0 0 0 0 0 127 0" result="hardAlpha"/>
<feOffset dy="2"/>
<feGaussianBlur stdDeviation="2"/>
<feComposite in2="hardAlpha" operator="out"/>
<feColorMatrix type="matrix" values="0 0 0 0 0 0 0 0 0 0 0 0 0 0 0 0 0 0 0.1 0"/>
<feBlend mode="normal" in2="effect1_backgroundBlur_7542_24260" result="effect2_dropShadow_7542_24260"/>
<feBlend mode="normal" in="SourceGraphic" in2="effect2_dropShadow_7542_24260" result="shape"/>
</filter>
<clipPath id="clip0_7542_24260">
<rect width="13" height="13" fill="white" transform="translate(82 8)"/>
</clipPath>
<clipPath id="clip1_7542_24260">
<rect width="17" height="17" fill="white" transform="translate(16 5)"/>
</clipPath>
<clipPath id="clip2_7542_24260">
<rect width="13" height="13" fill="white" transform="translate(84 52)"/>
</clipPath>
<clipPath id="clip3_7542_24260">
<rect width="15" height="15" fill="white" transform="translate(11 64)"/>
</clipPath>
<clipPath id="clip4_7542_24260">
<rect width="56" height="56" fill="white" transform="translate(16 28)"/>
</clipPath>
</defs>
</svg>
