<svg width="52" height="52" viewBox="0 0 52 52" fill="none" xmlns="http://www.w3.org/2000/svg">
<g id="Property 1=&#236;&#157;&#128;&#237;&#150;&#137;&#236;&#158;&#142;" clip-path="url(#clip0_7111_9464)">
<path id="Union" fill-rule="evenodd" clip-rule="evenodd" d="M2.8893 27.1727C2.22773 27.0835 1.5868 27.43 1.36037 28.0372C-0.198374 32.2173 -0.247069 36.7354 1.44858 41.4054C1.75331 42.9875 3.5141 43.5193 4.99855 43.5154C14.0283 43.4914 19.7843 42.7669 33.8457 36.4164C34.235 36.2405 34.7 36.3266 34.9938 36.6368L42.46 44.5228C43.0229 45.1173 43.9671 45.162 44.569 44.6227C45.1709 44.0834 45.2025 43.1643 44.6396 42.5698L37.2161 34.7289C37.0151 34.5167 36.9756 34.2043 37.0578 33.9238C37.0702 33.8818 37.0857 33.8394 37.1047 33.8C41.3674 24.9569 43.4637 19.3626 44.9007 4.65687C45.3153 3.10944 44.3594 1.49577 42.7352 1.19863C39.1258 0.0636969 35.3787 -0.243669 31.5168 0.736604C30.897 0.893905 30.4883 1.45061 30.4904 2.07675L30.5341 14.8275L27.2036 3.21028C26.9803 2.4314 26.151 1.96603 25.3632 2.19948C19.9629 3.79971 14.9015 6.33792 10.9179 10.2173C7.55622 13.4911 5.10046 17.7241 3.37014 22.0656C3.08312 22.7857 3.45782 23.5983 4.19649 23.9015L16.7098 29.0368L2.8893 27.1727Z" fill="#FFD65E"/>
</g>
<defs>
<clipPath id="clip0_7111_9464">
<rect width="52" height="52" fill="white"/>
</clipPath>
</defs>
</svg>
