<svg width="56" height="56" viewBox="0 0 56 56" fill="none" xmlns="http://www.w3.org/2000/svg">
<g id="Property 1=&#237;&#140;&#140;&#235;&#157;&#188;&#236;&#134;&#148;" clip-path="url(#clip0_7113_9532)">
<g id="Group 66" filter="url(#filter0_bd_7113_9532)">
<path id="Vector 92" d="M17.481 12.5658L38.9876 50.6015" stroke="#454545" stroke-width="1.5" stroke-linecap="round"/>
<path id="Ellipse 151" d="M45.4499 12.338C47.9287 13.9724 49.944 16.0945 51.3808 18.5831C49.3163 18.2976 48.5172 18.9078 47.4754 20.838C42.4529 20.8167 39.6215 22.6594 34.5257 28.3145C27.827 28.4882 25.1079 30.3944 21.5365 35.8138C15.7097 36.1422 12.9047 37.2541 9.62255 42.6923C7.584 42.6306 6.53607 42.7996 5.559 45.0384C4.1222 42.5498 3.29207 39.7434 3.11602 36.7795C2.93997 33.8155 3.42144 30.7521 4.53294 27.7641C5.64444 24.7761 7.36421 21.922 9.59405 19.3648C11.8239 16.8076 14.5201 14.5973 17.5288 12.8603C20.5375 11.1232 23.7998 9.89329 27.1293 9.24079C30.4588 8.5883 33.7904 8.52598 36.9339 9.0574C40.0773 9.58882 42.9711 10.7036 45.4499 12.338Z" fill="white"/>
<path id="Ellipse 154" d="M45.4242 12.203C47.903 13.8374 49.9183 15.9595 51.3551 18.4481C49.2906 18.1626 48.4915 18.7728 47.4497 20.703C43.2519 14.7041 31.3857 4.71016 17.5031 12.7253C17.391 12.7961 17.28 12.8672 17.17 12.9387C17.2762 12.8634 17.3872 12.7922 17.5031 12.7253C20.5118 10.9882 23.7741 9.75828 27.1036 9.10578C30.4331 8.45328 33.7647 8.39097 36.9082 8.92239C40.0516 9.45381 42.9454 10.5686 45.4242 12.203Z" fill="#7EC0FF"/>
<path id="Ellipse 154_2" d="M21.4173 35.6917C17.8065 29.527 12.012 16.543 17.0764 12.9517C17.1827 12.8763 17.2937 12.8051 17.4096 12.7382C22.9562 9.53585 31.0519 21.7067 34.4064 28.1924C27.7077 28.3661 24.9886 30.2724 21.4173 35.6917Z" fill="#5EB0FF" fill-opacity="0.8"/>
<path id="Ellipse 152" d="M10.0787 19.0107C12.3086 16.4535 14.0543 14.7456 17.063 13.0085C16.9509 13.0793 17.0394 13.329 16.9294 13.4005C2.35553 22.8681 6.7187 37.5417 9.75452 42.9619C7.71598 42.9002 6.4685 42.8906 5.49143 45.1294C4.05463 42.6408 3.27326 39.4156 3.09721 36.4517C2.92115 33.4878 3.40263 30.4243 4.51413 27.4363C5.62563 24.4483 7.8489 21.5679 10.0787 19.0107Z" fill="#7EC0FF"/>
<path id="Vector 75 (Stroke)" fill-rule="evenodd" clip-rule="evenodd" d="M16.062 10.1363C16.3371 9.97746 16.6962 10.0844 16.864 10.3751L18.0797 12.4807L17.0836 13.0558L15.8679 10.9502C15.7 10.6595 15.787 10.2951 16.062 10.1363Z" fill="black"/>
</g>
</g>
<defs>
<filter id="filter0_bd_7113_9532" x="-6.93823" y="-1.43457" width="68.3191" height="62.7861" filterUnits="userSpaceOnUse" color-interpolation-filters="sRGB">
<feFlood flood-opacity="0" result="BackgroundImageFix"/>
<feGaussianBlur in="BackgroundImageFix" stdDeviation="5"/>
<feComposite in2="SourceAlpha" operator="in" result="effect1_backgroundBlur_7113_9532"/>
<feColorMatrix in="SourceAlpha" type="matrix" values="0 0 0 0 0 0 0 0 0 0 0 0 0 0 0 0 0 0 127 0" result="hardAlpha"/>
<feOffset dy="1"/>
<feGaussianBlur stdDeviation="1"/>
<feComposite in2="hardAlpha" operator="out"/>
<feColorMatrix type="matrix" values="0 0 0 0 0 0 0 0 0 0 0 0 0 0 0 0 0 0 0.1 0"/>
<feBlend mode="normal" in2="effect1_backgroundBlur_7113_9532" result="effect2_dropShadow_7113_9532"/>
<feBlend mode="normal" in="SourceGraphic" in2="effect2_dropShadow_7113_9532" result="shape"/>
</filter>
<clipPath id="clip0_7113_9532">
<rect width="56" height="56" fill="white"/>
</clipPath>
</defs>
</svg>
