<svg width="52" height="52" viewBox="0 0 52 52" fill="none" xmlns="http://www.w3.org/2000/svg">
<g id="Property 1=snow">
<g id="weather piece/snow">
<g id="Rectangle 165" filter="url(#filter0_b_3289_8172)">
<path d="M38.1975 9.73655C39.3203 8.61379 41.1406 8.61379 42.2634 9.73655C43.3862 10.8593 43.3862 12.6797 42.2634 13.8024L13.8024 42.2635C12.6796 43.3862 10.8592 43.3862 9.73649 42.2635C8.61373 41.1407 8.61374 39.3203 9.73649 38.1976L38.1975 9.73655Z" fill="#7EC5FF" fill-opacity="0.6"/>
</g>
<g id="Rectangle 166" filter="url(#filter1_b_3289_8172)">
<path d="M9.7363 13.8025C8.61354 12.6797 8.61354 10.8594 9.7363 9.7366C10.8591 8.61384 12.6794 8.61384 13.8022 9.7366L42.2632 38.1976C43.386 39.3204 43.386 41.1408 42.2632 42.2635C41.1405 43.3863 39.3201 43.3863 38.1973 42.2635L9.7363 13.8025Z" fill="#7EC5FF" fill-opacity="0.6"/>
</g>
<g id="Rectangle 164" filter="url(#filter2_b_3289_8172)">
<path d="M46.125 23.125C47.7128 23.125 49 24.4122 49 26C49 27.5878 47.7128 28.875 46.125 28.875L5.875 28.875C4.28718 28.875 3 27.5878 3 26C3 24.4122 4.28718 23.125 5.875 23.125L46.125 23.125Z" fill="#7EC5FF" fill-opacity="0.6"/>
</g>
<g id="Rectangle 161" filter="url(#filter3_b_3289_8172)">
<path d="M23.125 5.875C23.125 4.28718 24.4122 3 26 3C27.5878 3 28.875 4.28718 28.875 5.875V46.125C28.875 47.7128 27.5878 49 26 49C24.4122 49 23.125 47.7128 23.125 46.125V5.875Z" fill="#7EC5FF" fill-opacity="0.6"/>
</g>
</g>
</g>
<defs>
<filter id="filter0_b_3289_8172" x="-1.10547" y="-1.10547" width="54.2109" height="54.2109" filterUnits="userSpaceOnUse" color-interpolation-filters="sRGB">
<feFlood flood-opacity="0" result="BackgroundImageFix"/>
<feGaussianBlur in="BackgroundImageFix" stdDeviation="5"/>
<feComposite in2="SourceAlpha" operator="in" result="effect1_backgroundBlur_3289_8172"/>
<feBlend mode="normal" in="SourceGraphic" in2="effect1_backgroundBlur_3289_8172" result="shape"/>
</filter>
<filter id="filter1_b_3289_8172" x="-1.10571" y="-1.10547" width="54.2109" height="54.2109" filterUnits="userSpaceOnUse" color-interpolation-filters="sRGB">
<feFlood flood-opacity="0" result="BackgroundImageFix"/>
<feGaussianBlur in="BackgroundImageFix" stdDeviation="5"/>
<feComposite in2="SourceAlpha" operator="in" result="effect1_backgroundBlur_3289_8172"/>
<feBlend mode="normal" in="SourceGraphic" in2="effect1_backgroundBlur_3289_8172" result="shape"/>
</filter>
<filter id="filter2_b_3289_8172" x="-7" y="13.125" width="66" height="25.75" filterUnits="userSpaceOnUse" color-interpolation-filters="sRGB">
<feFlood flood-opacity="0" result="BackgroundImageFix"/>
<feGaussianBlur in="BackgroundImageFix" stdDeviation="5"/>
<feComposite in2="SourceAlpha" operator="in" result="effect1_backgroundBlur_3289_8172"/>
<feBlend mode="normal" in="SourceGraphic" in2="effect1_backgroundBlur_3289_8172" result="shape"/>
</filter>
<filter id="filter3_b_3289_8172" x="13.125" y="-7" width="25.75" height="66" filterUnits="userSpaceOnUse" color-interpolation-filters="sRGB">
<feFlood flood-opacity="0" result="BackgroundImageFix"/>
<feGaussianBlur in="BackgroundImageFix" stdDeviation="5"/>
<feComposite in2="SourceAlpha" operator="in" result="effect1_backgroundBlur_3289_8172"/>
<feBlend mode="normal" in="SourceGraphic" in2="effect1_backgroundBlur_3289_8172" result="shape"/>
</filter>
</defs>
</svg>
