<svg width="56" height="56" viewBox="0 0 56 56" fill="none" xmlns="http://www.w3.org/2000/svg">
<g id="Property 1=&#235;&#176;&#128;&#236;&#167;&#154;&#235;&#170;&#168;&#236;&#158;&#144;" clip-path="url(#clip0_7111_9463)">
<g id="Group 89">
<path id="Ellipse 157" d="M38.398 15.247C36.6591 13.5081 34.6378 12.0856 32.4495 11.0608C30.2612 10.0361 27.9488 9.42901 25.6442 9.27436C23.3397 9.11971 21.0882 9.42049 19.0183 10.1595C16.9483 10.8986 15.1005 12.0614 13.5803 13.5816C12.0601 15.1018 10.8973 16.9496 10.1583 19.0195C9.41922 21.0895 9.11845 23.341 9.2731 25.6455C9.42775 27.95 10.0348 30.2625 11.0596 32.4508C12.0844 34.6391 13.5068 36.6604 15.2457 38.3993L26.8219 26.8231L38.398 15.247Z" fill="#EED1A6"/>
<path id="Intersect" fill-rule="evenodd" clip-rule="evenodd" d="M34.58 12.2177C35.9553 13.0713 37.2393 14.0895 38.398 15.2481L26.8218 26.8243L15.2459 38.4002L15.1632 38.3174C14.0386 37.1806 13.0485 35.925 12.2152 34.5824C12.3649 34.3111 12.5087 34.0492 12.6482 33.7952C14.8658 29.758 15.9748 27.7391 21.8559 21.8579C27.7373 15.9765 29.7562 14.8677 33.7939 12.6501C34.0475 12.5108 34.3091 12.3672 34.58 12.2177Z" fill="#886C4C"/>
<ellipse id="Ellipse 158" cx="27.9252" cy="27.9268" rx="34.1066" ry="4.68161" transform="rotate(-45 27.9252 27.9268)" fill="#E2BF8C"/>
<ellipse id="Ellipse 159" cx="29.0285" cy="29.0302" rx="16.3711" ry="1.56054" transform="rotate(-45 29.0285 29.0302)" fill="#734706"/>
</g>
</g>
<defs>
<clipPath id="clip0_7111_9463">
<rect width="56" height="56" fill="white"/>
</clipPath>
</defs>
</svg>
