<svg width="52" height="52" viewBox="0 0 52 52" fill="none" xmlns="http://www.w3.org/2000/svg">
<g id="Property 1=&#237;&#138;&#156;&#235;&#184;&#140;" clip-path="url(#clip0_7113_9513)">
<g id="Group 92">
<path id="Subtract" fill-rule="evenodd" clip-rule="evenodd" d="M21.0263 44.5627C33.6903 47.9561 46.1834 42.3961 48.9304 32.1443C51.6773 21.8925 43.638 10.8309 30.9739 7.4376C18.3099 4.04428 5.81684 9.60421 3.06987 19.856C0.322905 30.1079 8.36226 41.1694 21.0263 44.5627ZM25.3368 28.475C30.669 29.9037 35.6597 28.5688 36.4838 25.4932C37.3079 22.4177 33.6533 18.7662 28.3211 17.3374C22.9889 15.9087 17.9982 17.2437 17.1741 20.3192C16.35 23.3947 20.0046 27.0462 25.3368 28.475Z" fill="#FDD56D" fill-opacity="0.9"/>
<path id="Intersect" fill-rule="evenodd" clip-rule="evenodd" d="M16.8683 22.3824C16.1777 21.1599 15.9352 19.8866 16.2576 18.6832C17.0593 14.6242 22.86 12.431 29.0722 14.5351C35.7803 16.0201 39.668 20.8067 38.0959 24.5348C37.7734 25.7384 36.9264 26.72 35.7167 27.4335C35.9817 27.0486 36.1798 26.6278 36.3014 26.174C37.1972 22.8309 33.6007 18.9626 28.2685 17.5338C22.9363 16.105 17.8875 17.6569 16.9917 21C16.8702 21.4536 16.8313 21.9168 16.8683 22.3824Z" fill="#905E12" fill-opacity="0.1"/>
<path id="Ellipse 163" d="M49.5936 29.6691C47.0298 39.2375 34.6852 44.2434 22.0212 40.8501C9.35713 37.4568 1.16932 26.9492 3.73315 17.3809" stroke="#FCE19D" stroke-linecap="round"/>
<path id="Rectangle 309" d="M42.4418 26.9808C42.9546 26.0796 44.0956 25.774 44.9902 26.2981C45.8849 26.8222 46.1944 27.9776 45.6815 28.8787L44.3754 31.1736C43.8626 32.0748 42.7216 32.3804 41.827 31.8563C40.9324 31.3322 40.6229 30.1768 41.1357 29.2757L42.4418 26.9808Z" fill="#7EC0FF"/>
<rect id="Rectangle 310" width="3.75474" height="6.39529" rx="1.87737" transform="matrix(0.99998 -0.0063383 -0.00620213 0.999981 6.55249 16.5137)" fill="#7EC0FF"/>
</g>
</g>
<defs>
<clipPath id="clip0_7113_9513">
<rect width="52" height="52" fill="white"/>
</clipPath>
</defs>
</svg>
