<svg width="18" height="18" viewBox="0 0 18 18" fill="none" xmlns="http://www.w3.org/2000/svg">
<path fill-rule="evenodd" clip-rule="evenodd" d="M0.32698 1.63803C0 2.27976 0 3.11984 0 4.8V13.2C0 14.8802 0 15.7202 0.32698 16.362C0.614601 16.9265 1.07354 17.3854 1.63803 17.673C2.27976 18 3.11984 18 4.8 18H13.2C14.8802 18 15.7202 18 16.362 17.673C16.9265 17.3854 17.3854 16.9265 17.673 16.362C18 15.7202 18 14.8802 18 13.2V4.8C18 3.11984 18 2.27976 17.673 1.63803C17.3854 1.07354 16.9265 0.614601 16.362 0.32698C15.7202 0 14.8802 0 13.2 0H4.8C3.11984 0 2.27976 0 1.63803 0.32698C1.07354 0.614601 0.614601 1.07354 0.32698 1.63803ZM15.4205 6.7955C15.8598 6.35616 15.8598 5.64384 15.4205 5.2045C14.9812 4.76516 14.2688 4.76516 13.8295 5.2045L8.25 10.784L4.5455 7.0795C4.10616 6.64017 3.39384 6.64017 2.9545 7.0795C2.51516 7.51884 2.51516 8.23116 2.9545 8.6705L6.92417 12.6402C7.65641 13.3724 8.84359 13.3724 9.57582 12.6402L15.4205 6.7955Z" fill="#298CFF" fill-opacity="0.8"/>
</svg>
