<svg width="86" height="82" viewBox="0 0 86 82" fill="none" xmlns="http://www.w3.org/2000/svg">
<g filter="url(#filter0_bdd_3686_9013)">
<path d="M16.7 49.9426C16.3766 49.2784 16.8603 48.5049 17.5991 48.5049H31.0723C31.4549 48.5049 31.8039 48.7232 31.9714 49.0671L32.7187 50.602L40.7628 67.1246C41.4096 68.453 40.4422 70 38.9646 70H27.7158C26.9507 70 26.2526 69.5635 25.9176 68.8755L16.7 49.9426Z" fill="#E9D5B8" fill-opacity="0.7"/>
<path d="M17.0465 50.602H32.7187M32.7187 50.602L31.9714 49.0671C31.8039 48.7232 31.4549 48.5049 31.0723 48.5049H17.5991C16.8603 48.5049 16.3766 49.2784 16.7 49.9426L25.9176 68.8755C26.2526 69.5635 26.9507 70 27.7158 70H38.9646C40.4422 70 41.4096 68.453 40.7628 67.1246L32.7187 50.602Z" stroke="white" stroke-opacity="0.5"/>
<path d="M36.2371 51.3804C35.5903 50.0519 36.5578 48.5049 38.0353 48.5049H49.2841C50.0493 48.5049 50.7474 48.9414 51.0823 49.6294L59.6 67.1246C60.2468 68.453 59.2793 70 57.8018 70H46.553C45.7878 70 45.0897 69.5635 44.7548 68.8755L36.2371 51.3804Z" fill="#E9D5B8" fill-opacity="0.7" stroke="white" stroke-opacity="0.5"/>
<g filter="url(#filter1_bd_3686_9013)">
<path d="M43.7325 35.3979H28.4651C27.3605 35.3979 26.4651 36.2934 26.4651 37.3979V68.9999C26.4651 69.5522 26.9128 69.9999 27.4651 69.9999H41.2576C41.7714 69.9999 42.2016 69.6105 42.2526 69.0992L43.7325 54.2668L45.2124 69.0992C45.2634 69.6105 45.6936 69.9999 46.2075 69.9999H60C60.5522 69.9999 61 69.5522 61 68.9999V37.3979C61 36.2934 60.1045 35.3979 59 35.3979H43.7325Z" fill="#F6E8D2" fill-opacity="0.76"/>
<path d="M43.7325 35.3979H28.4651C27.3605 35.3979 26.4651 36.2934 26.4651 37.3979V68.9999C26.4651 69.5522 26.9128 69.9999 27.4651 69.9999H41.2576C41.7714 69.9999 42.2016 69.6105 42.2526 69.0992L43.7325 54.2668L45.2124 69.0992C45.2634 69.6105 45.6936 69.9999 46.2075 69.9999H60C60.5522 69.9999 61 69.5522 61 68.9999V37.3979C61 36.2934 60.1045 35.3979 59 35.3979H43.7325Z" stroke="white" stroke-opacity="0.5" stroke-linejoin="round"/>
</g>
<path d="M43.7324 38.0195H45.8254H43.7324ZM46.3254 50.6991C46.3254 52.0799 45.2062 53.1991 43.8254 53.1991H43.2324L44.2324 52.1991H43.8254C44.6539 52.1991 45.3254 51.5276 45.3254 50.6991H46.3254ZM43.2324 53.1991V38.0195H44.2324V52.6577C44.0985 52.6851 43.9621 52.6991 43.8254 52.6991L43.2324 53.1991ZM46.3254 38.0195V50.6991C46.3254 52.0799 45.2062 53.1991 43.8254 53.1991V52.1991C44.6539 52.1991 45.3254 51.5276 45.3254 50.6991V38.0195H46.3254Z" fill="white" fill-opacity="0.5"/>
<path d="M26.4651 35.3979H61H26.4651ZM61 37.0193C61 37.8477 60.3284 38.5193 59.5 38.5193H27.9651C27.1367 38.5193 26.4651 37.8477 26.4651 37.0193C26.4651 37.2955 26.9128 37.5193 27.4651 37.5193H60C60.5522 37.5193 61 37.2955 61 37.0193ZM26.4651 38.0193V35.3979V38.0193ZM61 35.3979V38.0193V35.3979Z" fill="white" fill-opacity="0.5"/>
<path fill-rule="evenodd" clip-rule="evenodd" d="M45.4466 22.2995C45.0301 22.525 44.5712 22.6748 44.0959 22.7432V24.1337C44.185 24.1589 44.2727 24.19 44.3581 24.2268L59.8691 30.9074C61.7757 31.7286 61.125 34.3036 59.0109 34.3036H54.4244V35.2857C54.4244 35.6802 54.0687 36 53.6299 36H52.8354C52.3967 36 52.0409 35.6802 52.0409 35.2857V34.3036H34.5618V35.2857C34.5618 35.6802 34.2061 36 33.7673 36H32.9728C32.5341 36 32.1783 35.6802 32.1783 35.2857V34.3036H27.9891C25.875 34.3036 25.2243 31.7286 27.1309 30.9074L42.6419 24.2268C42.6729 24.2134 42.7042 24.2008 42.7359 24.1889C42.7912 24.1682 42.8474 24.1498 42.9041 24.1337V21.8774C42.9041 21.7873 42.9854 21.7143 43.0856 21.7143C43.6097 21.6961 44.4187 21.5358 44.7978 21.3306C45.224 21.0999 45.5646 20.7606 45.7765 20.3559C45.9884 19.9511 46.062 19.4989 45.988 19.0565C45.914 18.6141 45.6957 18.2014 45.3609 17.8705C45.026 17.5396 44.5894 17.3055 44.1065 17.1976C43.6236 17.0898 43.1158 17.1131 42.6477 17.2647C42.1795 17.4162 41.7718 17.6892 41.4762 18.049C41.2596 18.3127 41.1103 18.6143 41.0368 18.9324C40.9921 19.1255 40.8092 19.2788 40.5901 19.2696L40.1271 19.2499C39.908 19.2407 39.7365 19.0729 39.7698 18.8779C39.8624 18.3362 40.0998 17.8208 40.4644 17.3772C40.9078 16.8374 41.5193 16.4279 42.2215 16.2006C42.9238 15.9733 43.6853 15.9383 44.4097 16.1C45.1341 16.2618 45.7889 16.613 46.2912 17.1094C46.7936 17.6057 47.1209 18.2248 47.232 18.8884C47.3429 19.5519 47.2326 20.2302 46.9148 20.8374C46.597 21.4445 46.086 21.9534 45.4466 22.2995ZM54.4244 33.2321V32.4286C54.4244 32.0341 54.0687 31.7143 53.6299 31.7143H52.8354C52.3967 31.7143 52.0409 32.0341 52.0409 32.4286V33.2321H34.5618V32.4286C34.5618 32.0341 34.2061 31.7143 33.7673 31.7143H32.9728C32.5341 31.7143 32.1783 32.0341 32.1783 32.4286V33.2321H27.9891C27.1434 33.2321 26.8832 32.2022 27.6458 31.8737L43.1568 25.193C43.3737 25.0996 43.6263 25.0996 43.8432 25.193L59.3542 31.8737C60.1168 32.2022 59.8566 33.2321 59.0109 33.2321H54.4244Z" fill="black"/>
</g>
<defs>
<filter id="filter0_bdd_3686_9013" x="-5" y="-4" width="100" height="98.5" filterUnits="userSpaceOnUse" color-interpolation-filters="sRGB">
<feFlood flood-opacity="0" result="BackgroundImageFix"/>
<feGaussianBlur in="BackgroundImageFix" stdDeviation="10"/>
<feComposite in2="SourceAlpha" operator="in" result="effect1_backgroundBlur_3686_9013"/>
<feColorMatrix in="SourceAlpha" type="matrix" values="0 0 0 0 0 0 0 0 0 0 0 0 0 0 0 0 0 0 127 0" result="hardAlpha"/>
<feOffset dx="4" dy="4"/>
<feGaussianBlur stdDeviation="10"/>
<feComposite in2="hardAlpha" operator="out"/>
<feColorMatrix type="matrix" values="0 0 0 0 0 0 0 0 0 0 0 0 0 0 0 0 0 0 0.05 0"/>
<feBlend mode="normal" in2="effect1_backgroundBlur_3686_9013" result="effect2_dropShadow_3686_9013"/>
<feColorMatrix in="SourceAlpha" type="matrix" values="0 0 0 0 0 0 0 0 0 0 0 0 0 0 0 0 0 0 127 0" result="hardAlpha"/>
<feOffset/>
<feGaussianBlur stdDeviation="1"/>
<feComposite in2="hardAlpha" operator="out"/>
<feColorMatrix type="matrix" values="0 0 0 0 0 0 0 0 0 0 0 0 0 0 0 0 0 0 0.05 0"/>
<feBlend mode="normal" in2="effect2_dropShadow_3686_9013" result="effect3_dropShadow_3686_9013"/>
<feBlend mode="normal" in="SourceGraphic" in2="effect3_dropShadow_3686_9013" result="shape"/>
</filter>
<filter id="filter1_bd_3686_9013" x="21.9651" y="30.8979" width="43.5349" height="43.6021" filterUnits="userSpaceOnUse" color-interpolation-filters="sRGB">
<feFlood flood-opacity="0" result="BackgroundImageFix"/>
<feGaussianBlur in="BackgroundImageFix" stdDeviation="2"/>
<feComposite in2="SourceAlpha" operator="in" result="effect1_backgroundBlur_3686_9013"/>
<feColorMatrix in="SourceAlpha" type="matrix" values="0 0 0 0 0 0 0 0 0 0 0 0 0 0 0 0 0 0 127 0" result="hardAlpha"/>
<feOffset dx="-1" dy="1"/>
<feGaussianBlur stdDeviation="1"/>
<feColorMatrix type="matrix" values="0 0 0 0 0 0 0 0 0 0 0 0 0 0 0 0 0 0 0.1 0"/>
<feBlend mode="normal" in2="effect1_backgroundBlur_3686_9013" result="effect2_dropShadow_3686_9013"/>
<feBlend mode="normal" in="SourceGraphic" in2="effect2_dropShadow_3686_9013" result="shape"/>
</filter>
</defs>
</svg>
