<svg width="87" height="71" viewBox="0 0 87 71" fill="none" xmlns="http://www.w3.org/2000/svg">
<path fill-rule="evenodd" clip-rule="evenodd" d="M45.212 12.6282C44.7387 12.9012 44.2172 13.0827 43.6769 13.1654V14.8493C43.7783 14.8798 43.8779 14.9174 43.975 14.962L61.6028 23.0517C63.7697 24.0461 63.0303 27.1642 60.6275 27.1642H25.3719C22.9692 27.1642 22.2297 24.0461 24.3966 23.0517L42.0244 14.962C42.1216 14.9174 42.2212 14.8798 42.3225 14.8493V12.1171C42.3225 12.008 42.4149 11.9196 42.5287 11.9196C43.1244 11.8975 44.0438 11.7034 44.4746 11.455C44.9591 11.1756 45.3462 10.7648 45.5869 10.2746C45.8277 9.78446 45.9113 9.2369 45.8273 8.7012C45.7432 8.1655 45.4951 7.66572 45.1145 7.26506C44.7339 6.86439 44.2378 6.58084 43.689 6.45026C43.1401 6.31968 42.5632 6.34793 42.0311 6.53144C41.499 6.71496 41.0357 7.04549 40.6997 7.48125C40.4536 7.80048 40.2839 8.16568 40.2003 8.55092C40.1495 8.78477 39.9417 8.97041 39.6926 8.95917L39.1665 8.93541C38.9174 8.92417 38.7226 8.72099 38.7605 8.48491C38.8656 7.82897 39.1355 7.2049 39.5497 6.66763C40.0537 6.014 40.7487 5.5182 41.5468 5.24293C42.3449 4.96765 43.2103 4.92528 44.0336 5.12115C44.8569 5.31702 45.601 5.74235 46.1719 6.34335C46.7428 6.94434 47.1149 7.69402 47.241 8.49756C47.3671 9.30111 47.2417 10.1224 46.8805 10.8577C46.5194 11.593 45.9387 12.2091 45.212 12.6282ZM43.3898 16.132L61.0176 24.2218C61.8844 24.6196 61.5886 25.8668 60.6275 25.8668H25.3719C24.4108 25.8668 24.115 24.6196 24.9818 24.2218L42.6096 16.132C42.8563 16.0188 43.1432 16.0188 43.3898 16.132Z" fill="black"/>
<g filter="url(#filter0_bdd_3289_7718)">
<path fill-rule="evenodd" clip-rule="evenodd" d="M54.0039 18.0014C53.0564 17.6755 52.0292 18.1141 51.4499 18.9316C49.5126 21.6656 46.4484 23.4308 42.9998 23.4308C39.5201 23.4308 36.4318 21.6336 34.4976 18.8574C33.9146 18.0207 32.865 17.5733 31.9048 17.9166L29.9404 18.619C25.7103 20.1314 22.3109 23.3524 20.5729 27.495L17.2804 35.3427C16.8435 36.384 17.3547 37.5802 18.4092 37.9841L27.0891 41.3091V58.0001C27.0891 59.1046 27.9845 60.0001 29.0891 60.0001H56.9105C58.0151 60.0001 58.9105 59.1046 58.9105 58.0001V41.3091L67.5904 37.9841C68.6448 37.5802 69.1561 36.384 68.7192 35.3427L65.4712 27.6011C63.7073 23.3968 60.2336 20.1447 55.9223 18.6615L54.0039 18.0014Z" fill="#FFD65E" shape-rendering="crispEdges"/>
<path d="M27.0891 41.3091L18.4092 37.9841C17.3547 37.5802 16.8435 36.384 17.2804 35.3427L20.5729 27.495C22.3109 23.3524 25.7103 20.1314 29.9404 18.619L31.9048 17.9166C32.865 17.5733 33.9146 18.0207 34.4976 18.8574C36.4318 21.6336 39.5201 23.4308 42.9998 23.4308C46.4484 23.4308 49.5126 21.6656 51.4499 18.9316C52.0292 18.1141 53.0565 17.6755 54.0039 18.0014L55.9223 18.6615C60.2336 20.1447 63.7073 23.3968 65.4712 27.6011L68.7192 35.3427C69.1561 36.384 68.6448 37.5802 67.5904 37.9841L58.9105 41.3091M27.0891 41.3091V58.0001C27.0891 59.1046 27.9845 60.0001 29.0891 60.0001H56.9105C58.0151 60.0001 58.9105 59.1046 58.9105 58.0001V41.3091M27.0891 41.3091V33.9952M58.9105 41.3091V33.9952" stroke="white" stroke-opacity="0.4" stroke-width="2" stroke-linecap="round" shape-rendering="crispEdges"/>
</g>
<defs>
<filter id="filter0_bdd_3289_7718" x="-3.87646" y="-3.20166" width="97.7522" height="88.2017" filterUnits="userSpaceOnUse" color-interpolation-filters="sRGB">
<feFlood flood-opacity="0" result="BackgroundImageFix"/>
<feGaussianBlur in="BackgroundImageFix" stdDeviation="10"/>
<feComposite in2="SourceAlpha" operator="in" result="effect1_backgroundBlur_3289_7718"/>
<feColorMatrix in="SourceAlpha" type="matrix" values="0 0 0 0 0 0 0 0 0 0 0 0 0 0 0 0 0 0 127 0" result="hardAlpha"/>
<feOffset dx="4" dy="4"/>
<feGaussianBlur stdDeviation="10"/>
<feComposite in2="hardAlpha" operator="out"/>
<feColorMatrix type="matrix" values="0 0 0 0 0 0 0 0 0 0 0 0 0 0 0 0 0 0 0.05 0"/>
<feBlend mode="normal" in2="effect1_backgroundBlur_3289_7718" result="effect2_dropShadow_3289_7718"/>
<feColorMatrix in="SourceAlpha" type="matrix" values="0 0 0 0 0 0 0 0 0 0 0 0 0 0 0 0 0 0 127 0" result="hardAlpha"/>
<feOffset/>
<feGaussianBlur stdDeviation="1"/>
<feComposite in2="hardAlpha" operator="out"/>
<feColorMatrix type="matrix" values="0 0 0 0 0 0 0 0 0 0 0 0 0 0 0 0 0 0 0.05 0"/>
<feBlend mode="normal" in2="effect2_dropShadow_3289_7718" result="effect3_dropShadow_3289_7718"/>
<feBlend mode="normal" in="SourceGraphic" in2="effect3_dropShadow_3289_7718" result="shape"/>
</filter>
</defs>
</svg>
