<svg width="12" height="12" viewBox="0 0 12 12" fill="none" xmlns="http://www.w3.org/2000/svg">
<path fill-rule="evenodd" clip-rule="evenodd" d="M10.6667 6C10.6667 8.57733 8.57733 10.6667 6 10.6667C3.42267 10.6667 1.33333 8.57733 1.33333 6C1.33333 3.42267 3.42267 1.33333 6 1.33333C8.57733 1.33333 10.6667 3.42267 10.6667 6ZM12 6C12 9.31371 9.31371 12 6 12C2.68629 12 0 9.31371 0 6C0 2.68629 2.68629 0 6 0C9.31371 0 12 2.68629 12 6ZM6 2C6.36819 2 6.66667 2.29848 6.66667 2.66667V7.33333C6.66667 7.70152 6.36819 8 6 8C5.63181 8 5.33333 7.70152 5.33333 7.33333V2.66667C5.33333 2.29848 5.63181 2 6 2ZM6 8.66667C6.36819 8.66667 6.66667 8.96514 6.66667 9.33333V9.3334C6.66667 9.70159 6.36819 10.0001 6 10.0001C5.63181 10.0001 5.33333 9.70159 5.33333 9.3334V9.33333C5.33333 8.96514 5.63181 8.66667 6 8.66667Z" fill="#4D4D4D"/>
</svg>
