<svg width="22" height="20" viewBox="0 0 22 20" fill="none" xmlns="http://www.w3.org/2000/svg">
<g filter="url(#filter0_bd_6335_6832)">
<path d="M8.6781 16.1339C8.53575 16.0555 8.34359 15.9467 8.11767 15.8112C7.67538 15.546 7.05845 15.1515 6.41667 14.6566C5.80141 14.1822 5.00772 13.4976 4.32727 12.6231C3.6978 11.8142 2.75 10.3123 2.75 8.29533C2.75 5.69292 4.80203 3.58325 7.33333 3.58325C8.83263 3.58325 10.1638 4.32337 11 5.46762C11.8362 4.32337 13.1674 3.58325 14.6667 3.58325C17.198 3.58325 19.25 5.69292 19.25 8.29533C19.25 10.3123 18.3022 11.8142 17.6727 12.6231C16.9923 13.4976 16.1986 14.1822 15.5833 14.6566C14.9415 15.1515 14.3246 15.546 13.8823 15.8112C13.6564 15.9467 13.4643 16.0555 13.3219 16.1339L12.8357 16.3851C11.6842 16.9799 10.3158 16.9799 9.1643 16.3851L8.6781 16.1339Z" fill="#4D4D4D"/>
</g>
<defs>
<filter id="filter0_bd_6335_6832" x="-1.25" y="-0.416748" width="24.5" height="21.2478" filterUnits="userSpaceOnUse" color-interpolation-filters="sRGB">
<feFlood flood-opacity="0" result="BackgroundImageFix"/>
<feGaussianBlur in="BackgroundImageFix" stdDeviation="2"/>
<feComposite in2="SourceAlpha" operator="in" result="effect1_backgroundBlur_6335_6832"/>
<feColorMatrix in="SourceAlpha" type="matrix" values="0 0 0 0 0 0 0 0 0 0 0 0 0 0 0 0 0 0 127 0" result="hardAlpha"/>
<feOffset/>
<feGaussianBlur stdDeviation="1.5"/>
<feComposite in2="hardAlpha" operator="out"/>
<feColorMatrix type="matrix" values="0 0 0 0 0 0 0 0 0 0 0 0 0 0 0 0 0 0 0.15 0"/>
<feBlend mode="normal" in2="effect1_backgroundBlur_6335_6832" result="effect2_dropShadow_6335_6832"/>
<feBlend mode="normal" in="SourceGraphic" in2="effect2_dropShadow_6335_6832" result="shape"/>
</filter>
</defs>
</svg>
