<svg width="24" height="24" viewBox="0 0 24 24" fill="none" xmlns="http://www.w3.org/2000/svg">
<path fill-rule="evenodd" clip-rule="evenodd" d="M8.50472 5.99402L15.5022 5.99402L18.994 11.9941L15.4953 18.006H8.49779L5.00597 12.0059L8.50472 5.99402ZM6.76749 4.99107C7.12459 4.37747 7.78361 4 8.4978 4L15.4953 4C16.2132 4 16.8777 4.38136 17.2377 4.99999L20.7295 11C21.0895 11.6186 21.0902 12.3802 20.7313 12.997L17.2325 19.0089C16.8754 19.6225 16.2164 20 15.5022 20H8.50471C7.78681 20 7.12233 19.6186 6.7623 19L3.27048 13C2.91046 12.3814 2.9098 11.6198 3.26875 11.003L6.76749 4.99107ZM12 14.0528C13.1428 14.0528 14.0692 13.1337 14.0692 12C14.0692 10.8662 13.1428 9.94717 12 9.94717C10.8572 9.94717 9.93079 10.8662 9.93079 12C9.93079 13.1337 10.8572 14.0528 12 14.0528Z" fill="#121212"/>
</svg>
