<svg width="66" height="69" viewBox="0 0 66 69" fill="none" xmlns="http://www.w3.org/2000/svg">
<g filter="url(#filter0_bd_5082_12745)">
<path d="M44.1451 15.6553H22.5221C22.227 15.6553 22.0335 15.9638 22.162 16.2294L32.4333 37.4676C32.7974 38.2204 33.8697 38.2204 34.2338 37.4676L44.5052 16.2294C44.6336 15.9638 44.4401 15.6553 44.1451 15.6553Z" fill="#F9D7CD"/>
<path d="M44.1451 15.1553H22.5221C21.8582 15.1553 21.4228 15.8495 21.7118 16.4471L31.9832 37.6853C32.5293 38.8145 34.1378 38.8145 34.6839 37.6853L44.9553 16.4471C45.2443 15.8495 44.809 15.1553 44.1451 15.1553Z" stroke="white" stroke-opacity="0.5" stroke-linecap="square"/>
<path fill-rule="evenodd" clip-rule="evenodd" d="M35.8444 9.59949C35.3072 9.90725 34.7154 10.1118 34.1022 10.2051V12.1033C34.2172 12.1378 34.3303 12.1801 34.4405 12.2303L54.4464 21.3501C56.9057 22.4711 56.0664 25.9862 53.3396 25.9862H13.3278C10.6009 25.9862 9.76168 22.4711 12.2209 21.3501L32.2268 12.2303C32.337 12.1801 32.4501 12.1378 32.5651 12.1033V9.02327C32.5651 8.90027 32.6699 8.80056 32.7992 8.80056C33.4752 8.77569 34.5186 8.55692 35.0075 8.27686C35.5573 7.96185 35.9967 7.49879 36.2699 6.94621C36.5432 6.39363 36.6381 5.77635 36.5427 5.17245C36.4472 4.56854 36.1657 4.00513 35.7338 3.55345C35.3018 3.10177 34.7388 2.78212 34.1159 2.63491C33.493 2.4877 32.8382 2.51955 32.2344 2.72643C31.6305 2.93331 31.1047 3.30593 30.7234 3.79716C30.4441 4.15704 30.2515 4.56874 30.1566 5.00303C30.099 5.26665 29.8631 5.47593 29.5804 5.46326L28.9833 5.43648C28.7007 5.4238 28.4796 5.19476 28.5225 4.92862C28.6418 4.18916 28.9481 3.48563 29.4183 2.87996C29.9902 2.1431 30.7789 1.58418 31.6847 1.27386C32.5905 0.963536 33.5727 0.915762 34.507 1.13657C35.4413 1.35739 36.2859 1.83687 36.9338 2.51439C37.5817 3.1919 38.004 4.03702 38.1471 4.94288C38.2903 5.84874 38.1479 6.77464 37.738 7.60351C37.3282 8.43238 36.6692 9.12699 35.8444 9.59949ZM33.7764 13.5494L53.7823 22.6691C54.766 23.1176 54.4303 24.5236 53.3396 24.5236H13.3278C12.237 24.5236 11.9013 23.1176 12.885 22.6691L32.8909 13.5494C33.1709 13.4218 33.4965 13.4218 33.7764 13.5494Z" fill="black"/>
<path d="M22.9881 14.5278C22.9881 14.5278 24.7464 25.4477 33.3334 29.3345C41.9203 26.0113 43.6786 14.5278 43.6786 14.5278L52.5209 17.8742C54.6023 18.6619 56.0816 20.541 56.3374 22.7517C57.8605 35.9147 58.0407 43.7512 57.3769 56.1715L59.0991 59.6515C59.3875 60.2343 59.0517 60.933 58.4164 61.0719L51.2024 62.6494L49.008 63.0389L45.2461 63.7066L42.0715 64.27C36.2913 65.296 30.3755 65.296 24.5953 64.27L17.6587 63.0389L15.4643 62.6494L8.2503 61.0719C7.61503 60.933 7.27924 60.2343 7.56766 59.6515L9.28986 56.1715C7.77293 42.9428 8.44227 35.0211 10.2454 22.6338C10.558 20.4865 12.0184 18.6794 14.0479 17.9113L22.9881 14.5278Z" fill="white"/>
<path d="M22.9881 14.5278C22.9881 14.5278 24.7464 25.4477 33.3334 29.3345C41.9203 26.0113 43.6786 14.5278 43.6786 14.5278L52.5209 17.8742C54.6023 18.6619 56.0816 20.541 56.3374 22.7517C57.8605 35.9147 58.0407 43.7512 57.3769 56.1715L59.0991 59.6515C59.3875 60.2343 59.0517 60.933 58.4164 61.0719L51.2024 62.6494L49.008 63.0389L45.2461 63.7066L42.0715 64.27C36.2913 65.296 30.3755 65.296 24.5953 64.27L17.6587 63.0389L15.4643 62.6494L8.2503 61.0719C7.61503 60.933 7.27924 60.2343 7.56766 59.6515L9.28986 56.1715C7.77293 42.9428 8.44227 35.0211 10.2454 22.6338C10.558 20.4865 12.0184 18.6794 14.0479 17.9113L22.9881 14.5278Z" fill="#F9D7CD"/>
<path d="M33.3334 29.3345C24.7464 25.4477 22.9881 14.5278 22.9881 14.5278M33.3334 29.3345C41.9203 26.0113 43.6786 14.5278 43.6786 14.5278M33.3334 29.3345C20.9681 32.6121 21.2844 20.8291 22.9881 14.5278M33.3334 29.3345C45.6986 32.1612 45.3824 20.6412 43.6786 14.5278M22.9881 14.5278L14.0479 17.9113C12.0184 18.6794 10.558 20.4865 10.2454 22.6338C8.44227 35.0211 7.77293 42.9428 9.28986 56.1715M15.4643 62.6494L8.2503 61.0719C7.61503 60.933 7.27924 60.2343 7.56766 59.6515L9.28986 56.1715M15.4643 62.6494V58.0223M15.4643 62.6494L17.6587 63.0389M16.4048 29.3345C16.878 41.5232 16.5855 47.7031 15.4643 58.0223M9.28986 56.1715L15.4643 58.0223M43.6786 14.5278L52.5209 17.8742C54.6023 18.6619 56.0816 20.541 56.3374 22.7517C57.8605 35.9147 58.0407 43.7512 57.3769 56.1715M51.2024 62.6494L58.4164 61.0719C59.0517 60.933 59.3875 60.2343 59.0991 59.6515L57.3769 56.1715M51.2024 62.6494V58.0223M51.2024 62.6494L49.008 63.0389M50.262 29.3345C49.5097 38.9178 49.5049 44.8983 50.5356 53.2164M57.3769 56.1715L51.2024 58.0223M51.2024 58.0223C50.9448 56.3192 50.7231 54.7291 50.5356 53.2164M45.2461 63.7066L42.0715 64.27C36.2913 65.296 30.3755 65.296 24.5953 64.27L17.6587 63.0389M45.2461 63.7066C45.2521 62.7204 45.2542 61.4989 45.2487 59.0523C45.2473 58.449 45.66 57.9225 46.2465 57.7811V57.7811C47.0334 57.5914 47.7918 58.1586 47.8753 58.9636C48.0233 60.3897 48.2863 61.4909 49.008 63.0389M45.2461 63.7066L49.008 63.0389M50.5356 53.2164C51.0714 52.016 52.1429 48.895 52.1429 46.014M17.6587 63.0389C18.0767 61.5653 18.7873 58.258 18.2857 56.8175" stroke="white" stroke-opacity="0.5" stroke-linecap="round"/>
<path d="M31.5803 29.5822C31.6002 29.0447 32.0417 28.6191 32.5796 28.6191H34.0905C34.627 28.6191 35.0679 29.0425 35.0896 29.5785L36.1692 56.1519C36.1852 56.5473 35.9667 56.9149 35.6117 57.0897L31.9738 58.8807C31.2947 59.215 30.5048 58.7029 30.5328 57.9466L31.5803 29.5822Z" fill="#F9D7CD" stroke="white" stroke-opacity="0.5"/>
</g>
<defs>
<filter id="filter0_bd_5082_12745" x="-3.03711" y="-9" width="72.741" height="84.5396" filterUnits="userSpaceOnUse" color-interpolation-filters="sRGB">
<feFlood flood-opacity="0" result="BackgroundImageFix"/>
<feGaussianBlur in="BackgroundImageFix" stdDeviation="5"/>
<feComposite in2="SourceAlpha" operator="in" result="effect1_backgroundBlur_5082_12745"/>
<feColorMatrix in="SourceAlpha" type="matrix" values="0 0 0 0 0 0 0 0 0 0 0 0 0 0 0 0 0 0 127 0" result="hardAlpha"/>
<feOffset dy="1"/>
<feGaussianBlur stdDeviation="1"/>
<feComposite in2="hardAlpha" operator="out"/>
<feColorMatrix type="matrix" values="0 0 0 0 0 0 0 0 0 0 0 0 0 0 0 0 0 0 0.1 0"/>
<feBlend mode="normal" in2="effect1_backgroundBlur_5082_12745" result="effect2_dropShadow_5082_12745"/>
<feBlend mode="normal" in="SourceGraphic" in2="effect2_dropShadow_5082_12745" result="shape"/>
</filter>
</defs>
</svg>
