<svg width="146" height="158" viewBox="0 0 146 158" fill="none" xmlns="http://www.w3.org/2000/svg">
<g filter="url(#filter0_bdd_5082_12743)">
<rect x="16" y="16" width="106" height="118" rx="16" fill="white" fill-opacity="0.4" shape-rendering="crispEdges"/>
<rect x="16.5" y="16.5" width="105" height="117" rx="15.5" stroke="url(#paint0_linear_5082_12743)" stroke-opacity="0.5" shape-rendering="crispEdges"/>
<path d="M49.1779 31.28H50.1619V32.288H55.4059V31.28H56.4019V34.856H49.1779V31.28ZM50.1619 33.056V34.088H55.4059V33.056H50.1619ZM47.8699 35.768H57.6739V36.572H47.8699V35.768ZM49.0579 37.556H56.4259V39.98H50.0659V41.312H49.0819V39.26H55.4419V38.312H49.0579V37.556ZM49.0819 41.048H56.7499V41.816H49.0819V41.048ZM66.0249 31.076H67.0209V41.948H66.0249V31.076ZM66.7809 35.396H68.7969V36.236H66.7809V35.396ZM59.1129 38.504H59.9769C62.0169 38.504 63.4329 38.432 65.0769 38.12L65.1849 38.948C63.4929 39.248 62.0529 39.332 59.9769 39.332H59.1129V38.504ZM59.0889 32.096H63.9969V35.984H60.0969V38.84H59.1129V35.168H63.0129V32.912H59.0889V32.096ZM69.468 37.304H79.308V38.12H69.468V37.304ZM73.86 37.808H74.844V41.936H73.86V37.808ZM74.364 31.52C76.632 31.52 78.156 32.444 78.156 33.896C78.156 35.348 76.632 36.272 74.364 36.272C72.108 36.272 70.572 35.348 70.572 33.896C70.572 32.444 72.108 31.52 74.364 31.52ZM74.364 32.324C72.708 32.324 71.58 32.936 71.58 33.896C71.58 34.856 72.708 35.468 74.364 35.468C76.02 35.468 77.136 34.856 77.136 33.896C77.136 32.936 76.02 32.324 74.364 32.324ZM84.6231 31.832H85.4871V32.66C85.4871 35.024 83.2911 36.86 81.1191 37.352L80.6751 36.524C82.5831 36.164 84.6231 34.508 84.6231 32.66V31.832ZM84.8031 31.832H85.6671V32.66C85.6671 34.52 87.7191 36.164 89.6151 36.524L89.1711 37.352C87.0111 36.86 84.8031 35.036 84.8031 32.66V31.832ZM80.2791 39.656H90.1071V40.472H80.2791V39.656Z" fill="#121212" fill-opacity="0.7"/>
<g filter="url(#filter1_bd_5082_12743)">
<path d="M80.1451 69.6553H58.5221C58.227 69.6553 58.0335 69.9638 58.162 70.2294L68.4333 91.4676C68.7974 92.2204 69.8697 92.2204 70.2338 91.4676L80.5052 70.2294C80.6336 69.9638 80.4401 69.6553 80.1451 69.6553Z" fill="#F9D7CD"/>
<path d="M80.1451 69.1553H58.5221C57.8582 69.1553 57.4228 69.8495 57.7118 70.4471L67.9832 91.6853C68.5293 92.8145 70.1378 92.8145 70.6839 91.6853L80.9553 70.4471C81.2443 69.8495 80.809 69.1553 80.1451 69.1553Z" stroke="white" stroke-opacity="0.5" stroke-linecap="square"/>
<path fill-rule="evenodd" clip-rule="evenodd" d="M71.8444 63.5995C71.3072 63.9073 70.7154 64.1118 70.1022 64.2051V66.1033C70.2172 66.1378 70.3303 66.1801 70.4405 66.2303L90.4464 75.3501C92.9057 76.4711 92.0664 79.9862 89.3396 79.9862H49.3278C46.6009 79.9862 45.7617 76.4711 48.2209 75.3501L68.2268 66.2303C68.337 66.1801 68.4501 66.1378 68.5651 66.1033V63.0233C68.5651 62.9003 68.6699 62.8006 68.7992 62.8006C69.4752 62.7757 70.5186 62.5569 71.0075 62.2769C71.5573 61.9619 71.9967 61.4988 72.2699 60.9462C72.5432 60.3936 72.6381 59.7764 72.5427 59.1724C72.4472 58.5685 72.1657 58.0051 71.7338 57.5534C71.3018 57.1018 70.7388 56.7821 70.1159 56.6349C69.493 56.4877 68.8382 56.5195 68.2344 56.7264C67.6305 56.9333 67.1047 57.3059 66.7234 57.7972C66.4441 58.157 66.2515 58.5687 66.1566 59.003C66.099 59.2667 65.8631 59.4759 65.5804 59.4633L64.9833 59.4365C64.7007 59.4238 64.4796 59.1948 64.5225 58.9286C64.6418 58.1892 64.9481 57.4856 65.4183 56.88C65.9902 56.1431 66.7789 55.5842 67.6847 55.2739C68.5905 54.9635 69.5727 54.9158 70.507 55.1366C71.4413 55.3574 72.2859 55.8369 72.9338 56.5144C73.5817 57.1919 74.004 58.037 74.1471 58.9429C74.2903 59.8487 74.1479 60.7746 73.738 61.6035C73.3282 62.4324 72.6692 63.127 71.8444 63.5995ZM69.7764 67.5494L89.7823 76.6691C90.766 77.1176 90.4303 78.5236 89.3396 78.5236H49.3278C48.237 78.5236 47.9013 77.1176 48.885 76.6691L68.8909 67.5494C69.1709 67.4218 69.4965 67.4218 69.7764 67.5494Z" fill="black"/>
<path d="M58.9881 68.5278C58.9881 68.5278 60.7464 79.4477 69.3334 83.3345C77.9203 80.0113 79.6786 68.5278 79.6786 68.5278L88.5209 71.8742C90.6023 72.6619 92.0816 74.541 92.3374 76.7517C93.8605 89.9147 94.0407 97.7512 93.3769 110.171L95.0991 113.651C95.3875 114.234 95.0517 114.933 94.4164 115.072L87.2024 116.649L85.008 117.039L81.2461 117.707L78.0715 118.27C72.2913 119.296 66.3755 119.296 60.5953 118.27L53.6587 117.039L51.4643 116.649L44.2503 115.072C43.615 114.933 43.2792 114.234 43.5677 113.651L45.2899 110.171C43.7729 96.9428 44.4423 89.0211 46.2454 76.6338C46.558 74.4865 48.0184 72.6794 50.0479 71.9113L58.9881 68.5278Z" fill="white"/>
<path d="M58.9881 68.5278C58.9881 68.5278 60.7464 79.4477 69.3334 83.3345C77.9203 80.0113 79.6786 68.5278 79.6786 68.5278L88.5209 71.8742C90.6023 72.6619 92.0816 74.541 92.3374 76.7517C93.8605 89.9147 94.0407 97.7512 93.3769 110.171L95.0991 113.651C95.3875 114.234 95.0517 114.933 94.4164 115.072L87.2024 116.649L85.008 117.039L81.2461 117.707L78.0715 118.27C72.2913 119.296 66.3755 119.296 60.5953 118.27L53.6587 117.039L51.4643 116.649L44.2503 115.072C43.615 114.933 43.2792 114.234 43.5677 113.651L45.2899 110.171C43.7729 96.9428 44.4423 89.0211 46.2454 76.6338C46.558 74.4865 48.0184 72.6794 50.0479 71.9113L58.9881 68.5278Z" fill="#F9D7CD"/>
<path d="M69.3334 83.3345C60.7464 79.4477 58.9881 68.5278 58.9881 68.5278M69.3334 83.3345C77.9203 80.0113 79.6786 68.5278 79.6786 68.5278M69.3334 83.3345C56.9681 86.6121 57.2844 74.8291 58.9881 68.5278M69.3334 83.3345C81.6986 86.1612 81.3824 74.6412 79.6786 68.5278M58.9881 68.5278L50.0479 71.9113C48.0184 72.6794 46.558 74.4865 46.2454 76.6338C44.4423 89.0211 43.7729 96.9428 45.2899 110.171M51.4643 116.649L44.2503 115.072C43.615 114.933 43.2792 114.234 43.5677 113.651L45.2899 110.171M51.4643 116.649V112.022M51.4643 116.649L53.6587 117.039M52.4048 83.3345C52.878 95.5232 52.5855 101.703 51.4643 112.022M45.2899 110.171L51.4643 112.022M79.6786 68.5278L88.5209 71.8742C90.6023 72.6619 92.0816 74.541 92.3374 76.7517C93.8605 89.9147 94.0407 97.7512 93.3769 110.171M87.2024 116.649L94.4164 115.072C95.0517 114.933 95.3875 114.234 95.0991 113.651L93.3769 110.171M87.2024 116.649V112.022M87.2024 116.649L85.008 117.039M86.262 83.3345C85.5097 92.9178 85.5049 98.8983 86.5356 107.216M93.3769 110.171L87.2024 112.022M87.2024 112.022C86.9448 110.319 86.7231 108.729 86.5356 107.216M81.2461 117.707L78.0715 118.27C72.2913 119.296 66.3755 119.296 60.5953 118.27L53.6587 117.039M81.2461 117.707C81.2521 116.72 81.2542 115.499 81.2487 113.052C81.2473 112.449 81.66 111.923 82.2465 111.781V111.781C83.0334 111.591 83.7918 112.159 83.8753 112.964C84.0233 114.39 84.2863 115.491 85.008 117.039M81.2461 117.707L85.008 117.039M86.5356 107.216C87.0714 106.016 88.1429 102.895 88.1429 100.014M53.6587 117.039C54.0767 115.565 54.7873 112.258 54.2857 110.818" stroke="white" stroke-opacity="0.5" stroke-linecap="round"/>
<path d="M67.5803 83.5822C67.6002 83.0447 68.0417 82.6191 68.5796 82.6191H70.0905C70.627 82.6191 71.0679 83.0425 71.0896 83.5785L72.1692 110.152C72.1852 110.547 71.9667 110.915 71.6117 111.09L67.9738 112.881C67.2947 113.215 66.5048 112.703 66.5328 111.947L67.5803 83.5822Z" fill="#F9D7CD" stroke="white" stroke-opacity="0.5"/>
</g>
</g>
<defs>
<filter id="filter0_bdd_5082_12743" x="-4" y="-4" width="150" height="162" filterUnits="userSpaceOnUse" color-interpolation-filters="sRGB">
<feFlood flood-opacity="0" result="BackgroundImageFix"/>
<feGaussianBlur in="BackgroundImageFix" stdDeviation="10"/>
<feComposite in2="SourceAlpha" operator="in" result="effect1_backgroundBlur_5082_12743"/>
<feColorMatrix in="SourceAlpha" type="matrix" values="0 0 0 0 0 0 0 0 0 0 0 0 0 0 0 0 0 0 127 0" result="hardAlpha"/>
<feOffset dx="4" dy="4"/>
<feGaussianBlur stdDeviation="10"/>
<feComposite in2="hardAlpha" operator="out"/>
<feColorMatrix type="matrix" values="0 0 0 0 0 0 0 0 0 0 0 0 0 0 0 0 0 0 0.05 0"/>
<feBlend mode="normal" in2="effect1_backgroundBlur_5082_12743" result="effect2_dropShadow_5082_12743"/>
<feColorMatrix in="SourceAlpha" type="matrix" values="0 0 0 0 0 0 0 0 0 0 0 0 0 0 0 0 0 0 127 0" result="hardAlpha"/>
<feOffset/>
<feGaussianBlur stdDeviation="1"/>
<feComposite in2="hardAlpha" operator="out"/>
<feColorMatrix type="matrix" values="0 0 0 0 0 0 0 0 0 0 0 0 0 0 0 0 0 0 0.05 0"/>
<feBlend mode="normal" in2="effect2_dropShadow_5082_12743" result="effect3_dropShadow_5082_12743"/>
<feBlend mode="normal" in="SourceGraphic" in2="effect3_dropShadow_5082_12743" result="shape"/>
</filter>
<filter id="filter1_bd_5082_12743" x="32.9629" y="45" width="72.741" height="84.5396" filterUnits="userSpaceOnUse" color-interpolation-filters="sRGB">
<feFlood flood-opacity="0" result="BackgroundImageFix"/>
<feGaussianBlur in="BackgroundImageFix" stdDeviation="5"/>
<feComposite in2="SourceAlpha" operator="in" result="effect1_backgroundBlur_5082_12743"/>
<feColorMatrix in="SourceAlpha" type="matrix" values="0 0 0 0 0 0 0 0 0 0 0 0 0 0 0 0 0 0 127 0" result="hardAlpha"/>
<feOffset dy="1"/>
<feGaussianBlur stdDeviation="1"/>
<feComposite in2="hardAlpha" operator="out"/>
<feColorMatrix type="matrix" values="0 0 0 0 0 0 0 0 0 0 0 0 0 0 0 0 0 0 0.1 0"/>
<feBlend mode="normal" in2="effect1_backgroundBlur_5082_12743" result="effect2_dropShadow_5082_12743"/>
<feBlend mode="normal" in="SourceGraphic" in2="effect2_dropShadow_5082_12743" result="shape"/>
</filter>
<linearGradient id="paint0_linear_5082_12743" x1="28.0455" y1="16" x2="137.125" y2="165.064" gradientUnits="userSpaceOnUse">
<stop stop-color="white"/>
<stop offset="1" stop-color="white" stop-opacity="0"/>
</linearGradient>
</defs>
</svg>
