<svg width="146" height="158" viewBox="0 0 146 158" fill="none" xmlns="http://www.w3.org/2000/svg">
<g filter="url(#filter0_bdd_5082_12751)">
<rect x="16" y="16" width="106" height="118" rx="16" fill="white" fill-opacity="0.4" shape-rendering="crispEdges"/>
<rect x="16.5" y="16.5" width="105" height="117" rx="15.5" stroke="url(#paint0_linear_5082_12751)" stroke-opacity="0.5" shape-rendering="crispEdges"/>
<path d="M60.1134 31.076H61.1214V41.936H60.1134V31.076ZM60.8454 35.48H62.8494V36.308H60.8454V35.48ZM57.3414 32.252H58.3134C58.3134 35.336 56.8974 38.12 53.3934 39.884L52.8414 39.116C55.8414 37.592 57.3414 35.276 57.3414 32.408V32.252ZM53.3454 32.252H57.8574V33.068H53.3454V32.252ZM71.4525 31.088H72.4485V41.96H71.4525V31.088ZM64.2765 38.42H65.1525C67.3005 38.42 68.6925 38.348 70.3005 38.048L70.4085 38.888C68.7525 39.2 67.3365 39.26 65.1525 39.26H64.2765V38.42ZM64.2765 32.12H69.4005V32.948H65.2605V38.732H64.2765V32.12ZM82.2995 31.088H83.2955V39.104H82.2995V31.088ZM79.9595 34.436H82.4915V35.264H79.9595V34.436ZM78.9515 31.928H79.9955C79.9955 34.724 78.0275 36.848 74.9675 37.868L74.5355 37.064C77.1875 36.176 78.9515 34.472 78.9515 32.324V31.928ZM75.0755 31.928H79.5995V32.744H75.0755V31.928ZM76.4435 40.88H83.5715V41.696H76.4435V40.88ZM76.4435 38.3H77.4395V41.288H76.4435V38.3Z" fill="#121212" fill-opacity="0.7"/>
<g filter="url(#filter1_bd_5082_12751)">
<path fill-rule="evenodd" clip-rule="evenodd" d="M81.6035 69.9415C80.6952 69.657 79.7253 70.0633 79.1618 70.8303C76.8274 74.0075 73.0131 76.0772 68.704 76.0772C64.3547 76.0772 60.5095 73.9688 58.1813 70.7413C57.6143 69.9552 56.6235 69.5399 55.7018 69.8399L49.9677 71.7069C46.8557 72.7202 44.6748 75.5267 44.4614 78.7925L42.2219 113.081C42.158 114.059 42.8122 114.939 43.7671 115.16L49.4086 116.464H88.4938L94.2027 115.162C95.1709 114.941 95.8304 114.043 95.7516 113.053L93.0219 78.769C92.7629 75.5156 90.5535 72.7457 87.439 71.7699L81.6035 69.9415Z" fill="#D3BA88"/>
<path d="M49.4086 116.464L43.7671 115.16C42.8122 114.939 42.158 114.059 42.2219 113.081L44.4614 78.7925C44.6748 75.5267 46.8557 72.7202 49.9677 71.7069L55.7018 69.8399C56.6235 69.5399 57.6143 69.9552 58.1813 70.7413C60.5095 73.9688 64.3547 76.0772 68.704 76.0772C73.0131 76.0772 76.8274 74.0075 79.1618 70.8303C79.7253 70.0633 80.6952 69.657 81.6035 69.9415L87.439 71.7699C90.5535 72.7457 92.7629 75.5156 93.0219 78.769L95.7516 113.053C95.8304 114.043 95.1709 114.941 94.2027 115.162L88.4938 116.464M49.4086 116.464H88.4938M49.4086 116.464L51.3876 87.2183M88.4938 116.464L86.6385 87.2183" stroke="white" stroke-opacity="0.5" stroke-width="2" stroke-linecap="round"/>
<path fill-rule="evenodd" clip-rule="evenodd" d="M71.0401 63.3295C70.4729 63.6634 69.8479 63.8852 69.2005 63.9865V66.0459C69.322 66.0832 69.4414 66.1291 69.5577 66.1836L90.6821 76.0775C93.2788 77.2937 92.3927 81.1071 89.5133 81.1071H47.2647C44.3853 81.1071 43.4992 77.2937 46.0959 76.0775L67.2202 66.1836C67.3366 66.1291 67.456 66.0832 67.5775 66.0459V62.7043C67.5775 62.5709 67.6881 62.4627 67.8246 62.4627C68.5384 62.4357 69.6402 62.1984 70.1564 61.8946C70.737 61.5528 71.2009 61.0504 71.4894 60.451C71.7779 59.8515 71.8782 59.1818 71.7774 58.5266C71.6766 57.8715 71.3794 57.2602 70.9233 56.7702C70.4672 56.2802 69.8727 55.9334 69.215 55.7737C68.5573 55.614 67.8659 55.6485 67.2283 55.873C66.5906 56.0974 66.0354 56.5017 65.6328 57.0346C65.3378 57.425 65.1345 57.8717 65.0343 58.3428C64.9735 58.6288 64.7244 58.8559 64.4259 58.8421L63.7954 58.8131C63.497 58.7993 63.2635 58.5508 63.3089 58.2621C63.4349 57.4599 63.7583 56.6966 64.2547 56.0395C64.8586 55.2401 65.6915 54.6338 66.6479 54.2971C67.6043 53.9604 68.6414 53.9086 69.6279 54.1482C70.6145 54.3877 71.5062 54.9079 72.1904 55.6429C72.8746 56.378 73.3204 57.2948 73.4716 58.2776C73.6227 59.2603 73.4724 60.2648 73.0396 61.1641C72.6068 62.0633 71.911 62.8168 71.0401 63.3295ZM68.8565 67.6147L89.9808 77.5085C91.0195 77.995 90.6651 79.5204 89.5133 79.5204H47.2647C46.1129 79.5204 45.7585 77.995 46.7972 77.5085L67.9215 67.6147C68.2171 67.4762 68.5609 67.4762 68.8565 67.6147Z" fill="black"/>
<path fill-rule="evenodd" clip-rule="evenodd" d="M80.5057 69.4526C78.7548 74.7833 79.0446 94.0712 68.9271 98.5712C58.8174 94.0712 57.9186 74.7573 56.653 69.3213L48.3009 71.9206C45.4005 72.8232 43.2553 75.3056 42.7904 78.3073C38.3488 106.984 38.7321 115.425 43.3787 116.531C43.5017 116.56 43.6302 116.571 43.7567 116.571H50.4588C57.2811 118.259 61.5717 118.821 68.9271 118.821C77.1293 118.821 78.3911 118.413 87.4226 116.571H94.4135C94.5843 116.571 94.7574 116.552 94.9189 116.496C100.146 114.694 98.8388 100.615 94.5823 78.1333C94.0301 75.2168 91.8869 72.861 89.0434 72.0094L80.5057 69.4526Z" fill="white"/>
<path fill-rule="evenodd" clip-rule="evenodd" d="M80.5057 69.4526C78.7548 74.7833 79.0446 94.0712 68.9271 98.5712C58.8174 94.0712 57.9186 74.7573 56.653 69.3213L48.3009 71.9206C45.4005 72.8232 43.2553 75.3056 42.7904 78.3073C38.3488 106.984 38.7321 115.425 43.3787 116.531C43.5017 116.56 43.6302 116.571 43.7567 116.571H50.4588C57.2811 118.259 61.5717 118.821 68.9271 118.821C77.1293 118.821 78.3911 118.413 87.4226 116.571H94.4135C94.5843 116.571 94.7574 116.552 94.9189 116.496C100.146 114.694 98.8388 100.615 94.5823 78.1333C94.0301 75.2168 91.8869 72.861 89.0434 72.0094L80.5057 69.4526Z" fill="#E2CEA6"/>
<path d="M68.9271 98.5712C79.0446 94.0712 78.7548 74.7833 80.5057 69.4526L89.0434 72.0094C91.8869 72.861 94.0301 75.2168 94.5823 78.1333C98.8388 100.615 100.146 114.694 94.9189 116.496C94.7574 116.552 94.5843 116.571 94.4135 116.571H87.4226M68.9271 98.5712C58.8174 94.0712 57.9186 74.7573 56.653 69.3213L48.3009 71.9206C45.4005 72.8232 43.2553 75.3056 42.7904 78.3073C38.3488 106.984 38.7321 115.425 43.3787 116.531C43.5017 116.56 43.6302 116.571 43.7567 116.571H50.4588M68.9271 98.5712V118.821M50.4588 116.571C49.4293 109.199 50.0063 102.012 51.7647 87.259M50.4588 116.571C57.2811 118.259 61.5717 118.821 68.9271 118.821M87.4226 116.571C88.5026 109.883 87.8069 102.65 85.4767 87.259M87.4226 116.571C78.3911 118.413 77.1293 118.821 68.9271 118.821" stroke="white" stroke-opacity="0.5" stroke-linecap="round"/>
</g>
</g>
<defs>
<filter id="filter0_bdd_5082_12751" x="-4" y="-4" width="150" height="162" filterUnits="userSpaceOnUse" color-interpolation-filters="sRGB">
<feFlood flood-opacity="0" result="BackgroundImageFix"/>
<feGaussianBlur in="BackgroundImageFix" stdDeviation="10"/>
<feComposite in2="SourceAlpha" operator="in" result="effect1_backgroundBlur_5082_12751"/>
<feColorMatrix in="SourceAlpha" type="matrix" values="0 0 0 0 0 0 0 0 0 0 0 0 0 0 0 0 0 0 127 0" result="hardAlpha"/>
<feOffset dx="4" dy="4"/>
<feGaussianBlur stdDeviation="10"/>
<feComposite in2="hardAlpha" operator="out"/>
<feColorMatrix type="matrix" values="0 0 0 0 0 0 0 0 0 0 0 0 0 0 0 0 0 0 0.05 0"/>
<feBlend mode="normal" in2="effect1_backgroundBlur_5082_12751" result="effect2_dropShadow_5082_12751"/>
<feColorMatrix in="SourceAlpha" type="matrix" values="0 0 0 0 0 0 0 0 0 0 0 0 0 0 0 0 0 0 127 0" result="hardAlpha"/>
<feOffset/>
<feGaussianBlur stdDeviation="1"/>
<feComposite in2="hardAlpha" operator="out"/>
<feColorMatrix type="matrix" values="0 0 0 0 0 0 0 0 0 0 0 0 0 0 0 0 0 0 0.05 0"/>
<feBlend mode="normal" in2="effect2_dropShadow_5082_12751" result="effect3_dropShadow_5082_12751"/>
<feBlend mode="normal" in="SourceGraphic" in2="effect3_dropShadow_5082_12751" result="shape"/>
</filter>
<filter id="filter1_bd_5082_12751" x="29.1667" y="44" width="79.6667" height="85.3213" filterUnits="userSpaceOnUse" color-interpolation-filters="sRGB">
<feFlood flood-opacity="0" result="BackgroundImageFix"/>
<feGaussianBlur in="BackgroundImageFix" stdDeviation="5"/>
<feComposite in2="SourceAlpha" operator="in" result="effect1_backgroundBlur_5082_12751"/>
<feColorMatrix in="SourceAlpha" type="matrix" values="0 0 0 0 0 0 0 0 0 0 0 0 0 0 0 0 0 0 127 0" result="hardAlpha"/>
<feOffset dy="1"/>
<feGaussianBlur stdDeviation="1"/>
<feComposite in2="hardAlpha" operator="out"/>
<feColorMatrix type="matrix" values="0 0 0 0 0 0 0 0 0 0 0 0 0 0 0 0 0 0 0.1 0"/>
<feBlend mode="normal" in2="effect1_backgroundBlur_5082_12751" result="effect2_dropShadow_5082_12751"/>
<feBlend mode="normal" in="SourceGraphic" in2="effect2_dropShadow_5082_12751" result="shape"/>
</filter>
<linearGradient id="paint0_linear_5082_12751" x1="28.0455" y1="16" x2="137.125" y2="165.064" gradientUnits="userSpaceOnUse">
<stop stop-color="white"/>
<stop offset="1" stop-color="white" stop-opacity="0"/>
</linearGradient>
</defs>
</svg>
