<svg width="66" height="70" viewBox="0 0 66 70" fill="none" xmlns="http://www.w3.org/2000/svg">
<g filter="url(#filter0_bd_5082_12753)">
<path fill-rule="evenodd" clip-rule="evenodd" d="M45.6035 16.9415C44.6952 16.657 43.7253 17.0633 43.1618 17.8303C40.8274 21.0075 37.0131 23.0772 32.704 23.0772C28.3547 23.0772 24.5095 20.9688 22.1813 17.7413C21.6143 16.9552 20.6235 16.5399 19.7018 16.8399L13.9677 18.7069C10.8557 19.7202 8.67475 22.5267 8.46145 25.7925L6.22187 60.081C6.15799 61.059 6.81223 61.9392 7.76714 62.16L13.4086 63.4641H52.4938L58.2027 62.1618C59.1709 61.9409 59.8304 61.0431 59.7516 60.0531L57.0219 25.769C56.7629 22.5156 54.5535 19.7457 51.439 18.7699L45.6035 16.9415Z" fill="#D3BA88"/>
<path d="M13.4086 63.4641L7.76714 62.1599C6.81223 61.9392 6.15799 61.059 6.22187 60.081L8.46145 25.7925C8.67475 22.5267 10.8557 19.7202 13.9677 18.7069L19.7018 16.8399C20.6235 16.5399 21.6143 16.9552 22.1813 17.7413C24.5095 20.9688 28.3547 23.0772 32.704 23.0772C37.0131 23.0772 40.8274 21.0075 43.1618 17.8303C43.7253 17.0633 44.6952 16.657 45.6035 16.9415L51.439 18.7699C54.5535 19.7457 56.7629 22.5156 57.0219 25.769L59.7516 60.0531C59.8304 61.0431 59.1709 61.9409 58.2027 62.1618L52.4938 63.4641M13.4086 63.4641H52.4938M13.4086 63.4641L15.3876 34.2183M52.4938 63.4641L50.6385 34.2183" stroke="white" stroke-opacity="0.5" stroke-width="2" stroke-linecap="round"/>
<path fill-rule="evenodd" clip-rule="evenodd" d="M35.0401 10.3295C34.4729 10.6634 33.8479 10.8852 33.2005 10.9865V13.0459C33.322 13.0832 33.4414 13.1291 33.5577 13.1836L54.6821 23.0775C57.2788 24.2937 56.3927 28.1071 53.5133 28.1071H11.2647C8.38534 28.1071 7.4992 24.2937 10.0959 23.0775L31.2202 13.1836C31.3366 13.1291 31.456 13.0832 31.5775 13.0459V9.70433C31.5775 9.57089 31.6881 9.46272 31.8246 9.46272C32.5384 9.43573 33.6402 9.19839 34.1564 8.89456C34.737 8.55282 35.2009 8.05044 35.4894 7.45095C35.7779 6.85147 35.8782 6.1818 35.7774 5.52663C35.6766 4.87146 35.3794 4.26022 34.9233 3.7702C34.4672 3.28018 33.8727 2.93339 33.215 2.77369C32.5573 2.61398 31.8659 2.64854 31.2283 2.87298C30.5906 3.09742 30.0354 3.50167 29.6328 4.0346C29.3378 4.42503 29.1345 4.87167 29.0343 5.34283C28.9735 5.62883 28.7244 5.85588 28.4259 5.84212L27.7954 5.81307C27.497 5.79932 27.2635 5.55083 27.3089 5.2621C27.4349 4.45987 27.7583 3.69662 28.2547 3.03954C28.8586 2.24014 29.6915 1.63376 30.6479 1.2971C31.6043 0.960441 32.6414 0.908612 33.6279 1.14817C34.6145 1.38772 35.5062 1.90791 36.1904 2.64293C36.8746 3.37796 37.3204 4.29482 37.4716 5.27758C37.6227 6.26033 37.4724 7.26483 37.0396 8.16406C36.6068 9.06328 35.911 9.81685 35.0401 10.3295ZM32.8565 14.6147L53.9808 24.5085C55.0195 24.995 54.6651 26.5204 53.5133 26.5204H11.2647C10.1129 26.5204 9.75847 24.995 10.7972 24.5085L31.9215 14.6147C32.2171 14.4762 32.5609 14.4762 32.8565 14.6147Z" fill="black"/>
<path fill-rule="evenodd" clip-rule="evenodd" d="M44.5057 16.4526C42.7548 21.7833 43.0446 41.0712 32.9271 45.5712C22.8174 41.0712 21.9186 21.7573 20.653 16.3213L12.3009 18.9206C9.40055 19.8232 7.25531 22.3056 6.79039 25.3073C2.34882 53.9842 2.73209 62.4249 7.37869 63.5312C7.50172 63.5605 7.6302 63.5715 7.75667 63.5715H14.4588C21.2811 65.259 25.5717 65.8215 32.9271 65.8213C41.1293 65.8211 42.3911 65.4132 51.4226 63.5715H58.4135C58.5843 63.5715 58.7574 63.5521 58.9189 63.4964C64.1461 61.6941 62.8388 47.615 58.5823 25.1333C58.0301 22.2168 55.8869 19.861 53.0434 19.0094L44.5057 16.4526Z" fill="white"/>
<path fill-rule="evenodd" clip-rule="evenodd" d="M44.5057 16.4526C42.7548 21.7833 43.0446 41.0712 32.9271 45.5712C22.8174 41.0712 21.9186 21.7573 20.653 16.3213L12.3009 18.9206C9.40055 19.8232 7.25531 22.3056 6.79039 25.3073C2.34882 53.9842 2.73209 62.4249 7.37869 63.5312C7.50172 63.5605 7.6302 63.5715 7.75667 63.5715H14.4588C21.2811 65.259 25.5717 65.8215 32.9271 65.8213C41.1293 65.8211 42.3911 65.4132 51.4226 63.5715H58.4135C58.5843 63.5715 58.7574 63.5521 58.9189 63.4964C64.1461 61.6941 62.8388 47.615 58.5823 25.1333C58.0301 22.2168 55.8869 19.861 53.0434 19.0094L44.5057 16.4526Z" fill="#E2CEA6"/>
<path d="M32.9271 45.5712C43.0446 41.0712 42.7548 21.7833 44.5057 16.4526L53.0434 19.0094C55.8869 19.861 58.0301 22.2168 58.5823 25.1333C62.8388 47.615 64.1461 61.6941 58.9189 63.4964C58.7574 63.5521 58.5843 63.5715 58.4135 63.5715H51.4226M32.9271 45.5712C22.8174 41.0712 21.9186 21.7573 20.653 16.3213L12.3009 18.9206C9.40055 19.8232 7.25531 22.3056 6.79039 25.3073C2.34882 53.9842 2.73209 62.4249 7.37869 63.5312C7.50172 63.5605 7.6302 63.5715 7.75667 63.5715H14.4588M32.9271 45.5712V65.8213M14.4588 63.5715C13.4293 56.199 14.0063 49.0118 15.7647 34.259M14.4588 63.5715C21.2811 65.259 25.5717 65.8215 32.9271 65.8213M51.4226 63.5715C52.5026 56.8825 51.8069 49.6496 49.4767 34.259M51.4226 63.5715C42.3911 65.4132 41.1293 65.8211 32.9271 65.8213" stroke="white" stroke-opacity="0.5" stroke-linecap="round"/>
</g>
<defs>
<filter id="filter0_bd_5082_12753" x="-6.83325" y="-9" width="79.6667" height="85.3213" filterUnits="userSpaceOnUse" color-interpolation-filters="sRGB">
<feFlood flood-opacity="0" result="BackgroundImageFix"/>
<feGaussianBlur in="BackgroundImageFix" stdDeviation="5"/>
<feComposite in2="SourceAlpha" operator="in" result="effect1_backgroundBlur_5082_12753"/>
<feColorMatrix in="SourceAlpha" type="matrix" values="0 0 0 0 0 0 0 0 0 0 0 0 0 0 0 0 0 0 127 0" result="hardAlpha"/>
<feOffset dy="1"/>
<feGaussianBlur stdDeviation="1"/>
<feComposite in2="hardAlpha" operator="out"/>
<feColorMatrix type="matrix" values="0 0 0 0 0 0 0 0 0 0 0 0 0 0 0 0 0 0 0.1 0"/>
<feBlend mode="normal" in2="effect1_backgroundBlur_5082_12753" result="effect2_dropShadow_5082_12753"/>
<feBlend mode="normal" in="SourceGraphic" in2="effect2_dropShadow_5082_12753" result="shape"/>
</filter>
</defs>
</svg>
