<svg width="78" height="96" viewBox="0 0 78 96" fill="none" xmlns="http://www.w3.org/2000/svg">
<g filter="url(#filter0_bdd_3448_8172)">
<path d="M31.8658 55.2014C30.7612 55.2014 29.8658 54.306 29.8658 53.2014V45.2881C29.8658 44.2125 30.718 43.3378 31.7887 43.2353C34.9991 42.9278 37.6035 42.155 39.6018 40.9167C41.9851 39.3889 43.1767 37.0208 43.1767 33.8125V32.7431C43.1767 30.1968 42.4161 28.3125 40.8949 27.0903C39.4243 25.8681 37.4467 25.2569 34.962 25.2569C32.3251 25.2569 30.1954 26.0208 28.5727 27.5486C27.4828 28.5406 26.6217 29.7163 25.9893 31.0759C25.4826 32.1653 24.2426 32.8064 23.1277 32.3585L19.678 30.9727C18.7252 30.5899 18.2062 29.5424 18.5909 28.5904C18.9865 27.6115 19.4741 26.6531 20.0537 25.7153C21.0172 24.1875 22.1834 22.8634 23.5526 21.7431C24.9724 20.6227 26.6458 19.7315 28.5727 19.0694C30.4996 18.3565 32.7308 18 35.2662 18C37.8016 18 40.0835 18.3565 42.1119 19.0694C44.1909 19.7824 45.9657 20.8009 47.4362 22.125C48.9068 23.3981 50.0224 24.9769 50.783 26.8611C51.5943 28.6944 52 30.7315 52 32.9722C52 35.2639 51.5943 37.3009 50.783 39.0833C49.9717 40.8657 48.9068 42.3935 47.5884 43.6667C46.2699 44.9398 44.7487 45.9838 43.0246 46.7986C41.8731 47.3593 40.6975 47.7995 39.4979 48.119C38.5571 48.3697 37.8524 49.1906 37.8524 50.1643V53.2014C37.8524 54.306 36.9569 55.2014 35.8524 55.2014H31.8658ZM34.0492 73C31.7166 73 30.0686 72.5162 29.1051 71.5486C28.1417 70.581 27.66 69.3588 27.66 67.8819V66.0486C27.66 64.5718 28.1417 63.3495 29.1051 62.3819C30.0686 61.4144 31.7166 60.9306 34.0492 60.9306C36.3818 60.9306 38.0298 61.4144 38.9933 62.3819C39.9567 63.3495 40.4385 64.5718 40.4385 66.0486V67.8819C40.4385 69.3588 39.9567 70.581 38.9933 71.5486C38.0298 72.5162 36.3818 73 34.0492 73Z" fill="#FFD65E" fill-opacity="0.8" shape-rendering="crispEdges"/>
<path d="M40.2557 27.8593L40.2621 27.8646L40.2685 27.8698C41.4854 28.8475 42.1767 30.4001 42.1767 32.7431V33.8125C42.1767 36.7306 41.1185 38.7538 39.0685 40.0707C37.2409 41.2014 34.8009 41.9422 31.6934 42.2398C30.1478 42.3878 28.8658 43.6597 28.8658 45.2881V53.2014C28.8658 54.8582 30.2089 56.2014 31.8658 56.2014H35.8524C37.5092 56.2014 38.8524 54.8582 38.8524 53.2014V50.1643C38.8524 49.6958 39.2 49.2333 39.7554 49.0853C41.0172 48.7492 42.2513 48.287 43.4572 47.7002C45.2737 46.8411 46.8844 45.7366 48.283 44.386C49.6978 43.0198 50.8334 41.3864 51.6931 39.4976C52.5729 37.5648 53 35.3827 53 32.9722C53 30.6145 52.5737 28.4425 51.7041 26.4715C50.8882 24.4567 49.6863 22.7524 48.0982 21.3754C46.5193 19.9557 44.6273 18.8754 42.4398 18.1247C40.2887 17.3692 37.8933 17 35.2662 17C32.6438 17 30.2947 17.3678 28.2368 18.1275C26.2212 18.8212 24.449 19.7618 22.9331 20.958L22.9261 20.9635L22.9193 20.9691C21.4651 22.1591 20.2275 23.5649 19.2078 25.1819L19.2078 25.1818L19.203 25.1895C18.595 26.1734 18.0814 27.1821 17.6637 28.2157C17.0471 29.7417 17.9026 31.3372 19.3052 31.9006L22.755 33.2864C24.465 33.9734 26.2146 32.9627 26.896 31.4976C27.4734 30.2563 28.2558 29.1892 29.2458 28.2882L29.2521 28.2825L29.2582 28.2767C30.6621 26.9549 32.5302 26.2569 34.962 26.2569C37.2842 26.2569 39.0126 26.8262 40.2557 27.8593ZM28.3965 72.2542C29.6433 73.5064 31.627 74 34.0492 74C36.4715 74 38.4551 73.5064 39.7019 72.2542C40.8681 71.083 41.4385 69.5995 41.4385 67.8819V66.0486C41.4385 64.3311 40.8681 62.8476 39.7019 61.6764C38.4551 60.4242 36.4715 59.9306 34.0492 59.9306C31.627 59.9306 29.6433 60.4242 28.3965 61.6763C27.2303 62.8476 26.66 64.3311 26.66 66.0486V67.8819C26.66 69.5995 27.2303 71.083 28.3965 72.2542Z" stroke="white" stroke-opacity="0.5" stroke-width="2" shape-rendering="crispEdges"/>
</g>
<defs>
<filter id="filter0_bdd_3448_8172" x="0.458008" y="0" width="77.542" height="99" filterUnits="userSpaceOnUse" color-interpolation-filters="sRGB">
<feFlood flood-opacity="0" result="BackgroundImageFix"/>
<feGaussianBlur in="BackgroundImageFix" stdDeviation="5"/>
<feComposite in2="SourceAlpha" operator="in" result="effect1_backgroundBlur_3448_8172"/>
<feColorMatrix in="SourceAlpha" type="matrix" values="0 0 0 0 0 0 0 0 0 0 0 0 0 0 0 0 0 0 127 0" result="hardAlpha"/>
<feOffset dx="4" dy="4"/>
<feGaussianBlur stdDeviation="10"/>
<feComposite in2="hardAlpha" operator="out"/>
<feColorMatrix type="matrix" values="0 0 0 0 0 0 0 0 0 0 0 0 0 0 0 0 0 0 0.05 0"/>
<feBlend mode="normal" in2="effect1_backgroundBlur_3448_8172" result="effect2_dropShadow_3448_8172"/>
<feColorMatrix in="SourceAlpha" type="matrix" values="0 0 0 0 0 0 0 0 0 0 0 0 0 0 0 0 0 0 127 0" result="hardAlpha"/>
<feOffset/>
<feGaussianBlur stdDeviation="1"/>
<feComposite in2="hardAlpha" operator="out"/>
<feColorMatrix type="matrix" values="0 0 0 0 0 0 0 0 0 0 0 0 0 0 0 0 0 0 0.05 0"/>
<feBlend mode="normal" in2="effect2_dropShadow_3448_8172" result="effect3_dropShadow_3448_8172"/>
<feBlend mode="normal" in="SourceGraphic" in2="effect3_dropShadow_3448_8172" result="shape"/>
</filter>
</defs>
</svg>
