<svg width="146" height="158" viewBox="0 0 146 158" fill="none" xmlns="http://www.w3.org/2000/svg">
<g filter="url(#filter0_bdd_5082_12650)">
<rect x="16" y="16" width="106" height="118" rx="16" fill="white" fill-opacity="0.4" shape-rendering="crispEdges"/>
<rect x="16.5" y="16.5" width="105" height="117" rx="15.5" stroke="url(#paint0_linear_5082_12650)" stroke-opacity="0.5" shape-rendering="crispEdges"/>
<path d="M55.4814 32.936H56.2974V33.404C56.2974 35.288 55.0974 36.872 53.2854 37.484L52.8054 36.704C54.4014 36.188 55.4814 34.868 55.4814 33.404V32.936ZM55.6614 32.936H56.4774V33.404C56.4774 34.748 57.5934 35.96 59.1894 36.428L58.7334 37.208C56.9094 36.644 55.6614 35.18 55.6614 33.404V32.936ZM53.0814 32.396H58.8654V33.2H53.0814V32.396ZM55.4814 31.04H56.4774V32.684H55.4814V31.04ZM58.5414 34.172H60.9894V35H58.5414V34.172ZM60.7014 31.088H61.6974V37.652H60.7014V31.088ZM58.1334 37.94C60.3774 37.94 61.7454 38.672 61.7454 39.932C61.7454 41.18 60.3774 41.912 58.1334 41.912C55.8774 41.912 54.5094 41.18 54.5094 39.932C54.5094 38.672 55.8774 37.94 58.1334 37.94ZM58.1334 38.72C56.4894 38.72 55.5054 39.164 55.5054 39.932C55.5054 40.688 56.4894 41.132 58.1334 41.132C59.7654 41.132 60.7614 40.688 60.7614 39.932C60.7614 39.164 59.7654 38.72 58.1334 38.72ZM66.2565 32.636H67.0485V34.4C67.0485 36.656 65.6685 38.984 63.9765 39.848L63.4005 39.056C64.9485 38.3 66.2565 36.236 66.2565 34.4V32.636ZM66.4365 32.636H67.2285V34.4C67.2285 36.116 68.4525 38.048 70.0245 38.792L69.4605 39.584C67.7445 38.732 66.4365 36.548 66.4365 34.4V32.636ZM63.7845 32.192H69.6285V33.032H63.7845V32.192ZM70.9125 31.088H71.9205V41.936H70.9125V31.088ZM71.6805 35.468H73.6965V36.308H71.6805V35.468ZM78.3275 34.268H80.7155V35.072H78.3275V34.268ZM82.6115 31.088H83.5595V38.456H82.6115V31.088ZM80.4635 31.28H81.4115V37.484H80.4635V31.28ZM79.4315 37.82H80.2835V38.168C80.2835 40.112 78.3035 41.516 76.1195 41.9L75.7355 41.108C77.6555 40.808 79.4315 39.608 79.4315 38.168V37.82ZM79.5635 37.82H80.4275V38.168C80.4275 39.608 82.2155 40.808 84.1235 41.108L83.7395 41.9C81.5555 41.516 79.5635 40.112 79.5635 38.168V37.82ZM78.2075 32H79.1795C79.1795 34.664 78.0155 36.8 74.9555 38.132L74.4635 37.4C77.1755 36.248 78.2075 34.472 78.2075 32.264V32ZM74.9675 32H78.5555V32.816H74.9675V32ZM78.1115 34.04V34.736L74.6195 35.108L74.4635 34.28L78.1115 34.04Z" fill="#121212" fill-opacity="0.7"/>
<g filter="url(#filter1_bd_5082_12650)">
<path d="M48.4528 72.0346L57.62 68.6369C57.8425 68.5544 58.0778 68.5122 58.3151 68.5122H79.685C79.9222 68.5122 80.1576 68.5544 80.38 68.6369L89.5472 72.0346C91.715 72.8381 93.2284 74.8156 93.4374 77.118L96.6092 112.049L97.0185 115.993C97.0712 116.501 96.7326 116.967 96.2332 117.074L88.0754 118.821H69H49.9246L41.7668 117.074C41.2674 116.967 40.9289 116.501 40.9816 115.993L41.3909 112.049L44.5626 77.118C44.7717 74.8156 46.285 72.8381 48.4528 72.0346Z" fill="white"/>
<path d="M48.4528 72.0346L57.62 68.6369C57.8425 68.5544 58.0778 68.5122 58.3151 68.5122H79.685C79.9222 68.5122 80.1576 68.5544 80.38 68.6369L89.5472 72.0346C91.715 72.8381 93.2284 74.8156 93.4374 77.118L96.6092 112.049L97.0185 115.993C97.0712 116.501 96.7326 116.967 96.2332 117.074L88.0754 118.821H69H49.9246L41.7668 117.074C41.2674 116.967 40.9289 116.501 40.9816 115.993L41.3909 112.049L44.5626 77.118C44.7717 74.8156 46.285 72.8381 48.4528 72.0346Z" fill="#29597D"/>
<path d="M49.9246 118.821L41.7668 117.074C41.2674 116.967 40.9289 116.501 40.9816 115.993L41.3909 112.049M49.9246 118.821H69H88.0754M49.9246 118.821V113.984M50.9286 83.9919L49.9246 113.984M41.3909 112.049L44.5626 77.118C44.7717 74.8156 46.285 72.8381 48.4528 72.0346L57.62 68.6369C57.8425 68.5544 58.0778 68.5122 58.3151 68.5122H79.685C79.9222 68.5122 80.1576 68.5544 80.38 68.6369L89.5472 72.0346C91.715 72.8381 93.2284 74.8156 93.4374 77.118L96.6092 112.049M41.3909 112.049L49.9246 113.984M88.0754 118.821L96.2332 117.074C96.7326 116.967 97.0712 116.501 97.0185 115.993L96.6092 112.049M88.0754 118.821V113.984M87.0715 83.9919L88.0754 113.984M96.6092 112.049L88.0754 113.984" stroke="white" stroke-opacity="0.5" stroke-linecap="round"/>
<path fill-rule="evenodd" clip-rule="evenodd" d="M71.6803 62.9904C71.1068 63.3122 70.475 63.526 69.8205 63.6235V65.6081C69.9432 65.6441 70.0639 65.6883 70.1816 65.7409L91.5381 75.2752C94.1633 76.4472 93.2675 80.1221 90.3565 80.1221H47.6435C44.7326 80.1221 43.8367 76.4472 46.4619 75.2752L67.8184 65.7409C67.9361 65.6883 68.0568 65.6441 68.1796 65.6081V62.388C68.1796 62.2594 68.2914 62.1552 68.4294 62.1552C69.1511 62.1292 70.265 61.9005 70.7869 61.6077C71.3738 61.2783 71.8428 60.7942 72.1345 60.2165C72.4262 59.6388 72.5275 58.9935 72.4256 58.3621C72.3238 57.7308 72.0233 57.1417 71.5621 56.6695C71.101 56.1973 70.5 55.8631 69.8351 55.7092C69.1701 55.5553 68.4712 55.5886 67.8265 55.8049C67.1819 56.0212 66.6206 56.4108 66.2135 56.9243C65.9153 57.3006 65.7098 57.731 65.6084 58.185C65.547 58.4606 65.2951 58.6794 64.9934 58.6662L64.356 58.6382C64.0542 58.6249 63.8182 58.3855 63.8641 58.1072C63.9914 57.3341 64.3184 56.5986 64.8203 55.9654C65.4308 55.1951 66.2728 54.6107 67.2398 54.2863C68.2067 53.9619 69.2552 53.9119 70.2526 54.1428C71.25 54.3736 72.1515 54.8749 72.8432 55.5832C73.5349 56.2915 73.9856 57.1751 74.1384 58.1221C74.2913 59.0692 74.1393 60.0372 73.7017 60.9037C73.2642 61.7703 72.5607 62.4964 71.6803 62.9904ZM69.4727 67.1199L90.8291 76.6542C91.8792 77.123 91.5209 78.593 90.3565 78.593H47.6435C46.4792 78.593 46.1208 77.123 47.1709 76.6542L68.5274 67.1199C68.8262 66.9865 69.1738 66.9865 69.4727 67.1199Z" fill="black"/>
<path d="M44.9048 73.3496C49.6733 70.8831 52.5723 69.8954 57.9564 68.5122L62.8889 83.992V116.821C62.8889 117.926 61.9935 118.821 60.8889 118.821H49.9246L41.7668 117.074C41.2674 116.967 40.9289 116.501 40.9816 115.993L41.3909 112.049L44.9048 73.3496Z" fill="white"/>
<path d="M44.9048 73.3496C49.6733 70.8831 52.5723 69.8954 57.9564 68.5122L62.8889 83.992V116.821C62.8889 117.926 61.9935 118.821 60.8889 118.821H49.9246L41.7668 117.074C41.2674 116.967 40.9289 116.501 40.9816 115.993L41.3909 112.049L44.9048 73.3496Z" fill="#146098"/>
<path d="M96.2332 117.074L88.0754 118.821H76.5C75.3955 118.821 74.5 117.926 74.5 116.821V83.992L80.0437 68.5122C85.2226 69.7522 88.0779 70.8505 93.0953 73.3496L96.6092 112.049L97.0185 115.993C97.0712 116.501 96.7326 116.967 96.2332 117.074Z" fill="white"/>
<path d="M96.2332 117.074L88.0754 118.821H76.5C75.3955 118.821 74.5 117.926 74.5 116.821V83.992L80.0437 68.5122C85.2226 69.7522 88.0779 70.8505 93.0953 73.3496L96.6092 112.049L97.0185 115.993C97.0712 116.501 96.7326 116.967 96.2332 117.074Z" fill="#146098"/>
<path d="M57.9564 68.5122C52.5723 69.8954 49.6733 70.8831 44.9048 73.3496M57.9564 68.5122L62.8889 83.9919M57.9564 68.5122L56.8758 84.3815C56.8284 85.0782 57.4914 85.6077 58.1603 85.4075L62.8889 83.9919M44.9048 73.3496L41.3909 112.049M44.9048 73.3496L50.6514 83.5022C50.8327 83.8225 50.9221 84.1866 50.9098 84.5543L49.9246 113.984M49.9246 118.821L41.7668 117.074C41.2674 116.967 40.9289 116.501 40.9816 115.993L41.3909 112.049M49.9246 118.821H60.8889C61.9935 118.821 62.8889 117.926 62.8889 116.821V83.9919M49.9246 118.821V115.286M41.3909 112.049L49.9246 113.984M49.9246 113.984V115.286M80.0437 68.5122C85.2226 69.7522 88.0779 70.8505 93.0953 73.3496M80.0437 68.5122L74.5 83.9919M80.0437 68.5122V84.4383C80.0437 85.1196 79.3773 85.6014 78.7303 85.3879L74.5 83.9919M88.0754 118.821L96.2332 117.074C96.7326 116.967 97.0712 116.501 97.0185 115.993L96.6092 112.049M88.0754 118.821H76.5C75.3955 118.821 74.5 117.926 74.5 116.821V83.9919M88.0754 118.821V115.286M93.0953 73.3496L96.6092 112.049M93.0953 73.3496L87.3486 83.5022C87.1674 83.8225 87.078 84.1866 87.0903 84.5543L88.0754 113.984M96.6092 112.049L88.0754 113.984M88.0754 113.984V115.286M88.0754 115.286C87.0133 114.5 84.8889 110.571 84.8889 105.857M49.9246 115.286C50.5794 115.089 53.1111 111.986 53.1111 105.857" stroke="white" stroke-opacity="0.5" stroke-linecap="round" stroke-linejoin="round"/>
</g>
</g>
<defs>
<filter id="filter0_bdd_5082_12650" x="-4" y="-4" width="150" height="162" filterUnits="userSpaceOnUse" color-interpolation-filters="sRGB">
<feFlood flood-opacity="0" result="BackgroundImageFix"/>
<feGaussianBlur in="BackgroundImageFix" stdDeviation="10"/>
<feComposite in2="SourceAlpha" operator="in" result="effect1_backgroundBlur_5082_12650"/>
<feColorMatrix in="SourceAlpha" type="matrix" values="0 0 0 0 0 0 0 0 0 0 0 0 0 0 0 0 0 0 127 0" result="hardAlpha"/>
<feOffset dx="4" dy="4"/>
<feGaussianBlur stdDeviation="10"/>
<feComposite in2="hardAlpha" operator="out"/>
<feColorMatrix type="matrix" values="0 0 0 0 0 0 0 0 0 0 0 0 0 0 0 0 0 0 0.05 0"/>
<feBlend mode="normal" in2="effect1_backgroundBlur_5082_12650" result="effect2_dropShadow_5082_12650"/>
<feColorMatrix in="SourceAlpha" type="matrix" values="0 0 0 0 0 0 0 0 0 0 0 0 0 0 0 0 0 0 127 0" result="hardAlpha"/>
<feOffset/>
<feGaussianBlur stdDeviation="1"/>
<feComposite in2="hardAlpha" operator="out"/>
<feColorMatrix type="matrix" values="0 0 0 0 0 0 0 0 0 0 0 0 0 0 0 0 0 0 0.05 0"/>
<feBlend mode="normal" in2="effect2_dropShadow_5082_12650" result="effect3_dropShadow_5082_12650"/>
<feBlend mode="normal" in="SourceGraphic" in2="effect3_dropShadow_5082_12650" result="shape"/>
</filter>
<filter id="filter1_bd_5082_12650" x="30.4761" y="44" width="77.0479" height="85.3213" filterUnits="userSpaceOnUse" color-interpolation-filters="sRGB">
<feFlood flood-opacity="0" result="BackgroundImageFix"/>
<feGaussianBlur in="BackgroundImageFix" stdDeviation="5"/>
<feComposite in2="SourceAlpha" operator="in" result="effect1_backgroundBlur_5082_12650"/>
<feColorMatrix in="SourceAlpha" type="matrix" values="0 0 0 0 0 0 0 0 0 0 0 0 0 0 0 0 0 0 127 0" result="hardAlpha"/>
<feOffset dy="1"/>
<feGaussianBlur stdDeviation="1"/>
<feComposite in2="hardAlpha" operator="out"/>
<feColorMatrix type="matrix" values="0 0 0 0 0 0 0 0 0 0 0 0 0 0 0 0 0 0 0.1 0"/>
<feBlend mode="normal" in2="effect1_backgroundBlur_5082_12650" result="effect2_dropShadow_5082_12650"/>
<feBlend mode="normal" in="SourceGraphic" in2="effect2_dropShadow_5082_12650" result="shape"/>
</filter>
<linearGradient id="paint0_linear_5082_12650" x1="28.0455" y1="16" x2="137.125" y2="165.064" gradientUnits="userSpaceOnUse">
<stop stop-color="white"/>
<stop offset="1" stop-color="white" stop-opacity="0"/>
</linearGradient>
</defs>
</svg>
