<svg width="66" height="66" viewBox="0 0 66 66" fill="none" xmlns="http://www.w3.org/2000/svg">
<g filter="url(#filter0_bd_5082_12679)">
<path fill-rule="evenodd" clip-rule="evenodd" d="M32.8015 5.89258C24.3244 5.89258 17.4524 12.7646 17.4524 21.2416V46.1997H48.1505V43.4312L55.5031 29.9042C56.8218 27.478 55.8565 24.5771 53.347 23.4248L52.6269 23.0942C51.1803 22.4299 49.5363 22.4918 48.1505 23.1281V21.2416C48.1505 12.7646 41.2785 5.89258 32.8015 5.89258Z" fill="#FFA483"/>
<path d="M17.4524 46.1997H16.9524V46.6997H17.4524V46.1997ZM48.1505 46.1997V46.6997H48.6505V46.1997H48.1505ZM48.1505 43.4312L47.7112 43.1925L47.6505 43.3041V43.4312H48.1505ZM55.5031 29.9042L55.0638 29.6654L55.5031 29.9042ZM53.347 23.4248L53.1383 23.8792V23.8792L53.347 23.4248ZM52.6269 23.0942L52.8356 22.6398V22.6398L52.6269 23.0942ZM48.1505 23.1281H47.6505V23.9079L48.3592 23.5825L48.1505 23.1281ZM17.9524 21.2416C17.9524 13.0407 24.6005 6.39258 32.8015 6.39258V5.39258C24.0483 5.39258 16.9524 12.4885 16.9524 21.2416H17.9524ZM17.9524 46.1997V21.2416H16.9524V46.1997H17.9524ZM48.1505 45.6997H17.4524V46.6997H48.1505V45.6997ZM47.6505 43.4312V46.1997H48.6505V43.4312H47.6505ZM55.0638 29.6654L47.7112 43.1925L48.5898 43.67L55.9424 30.143L55.0638 29.6654ZM53.1383 23.8792C55.3849 24.9107 56.2443 27.4935 55.0638 29.6654L55.9424 30.143C57.3993 27.4625 56.3282 24.2434 53.5556 22.9704L53.1383 23.8792ZM52.4183 23.5485L53.1383 23.8792L53.5556 22.9704L52.8356 22.6398L52.4183 23.5485ZM48.3592 23.5825C49.6231 23.0021 51.1143 22.9498 52.4183 23.5486L52.8356 22.6398C51.2462 21.91 49.4494 21.9814 47.9419 22.6737L48.3592 23.5825ZM47.6505 21.2416V23.1281H48.6505V21.2416H47.6505ZM32.8015 6.39258C41.0024 6.39258 47.6505 13.0407 47.6505 21.2416H48.6505C48.6505 12.4884 41.5547 5.39258 32.8015 5.39258V6.39258Z" fill="white" fill-opacity="0.5"/>
<rect x="15.2595" y="46.2002" width="35.0836" height="12.7286" rx="2" fill="#E6E6E6" fill-opacity="0.6" stroke="white" stroke-opacity="0.5"/>
<g filter="url(#filter1_bd_5082_12679)">
<path fill-rule="evenodd" clip-rule="evenodd" d="M27.3195 5.89258C18.8425 5.89258 11.9705 12.7646 11.9705 21.2416V46.1997H42.6686V43.4303L50.0206 29.9042C51.3394 27.478 50.3741 24.5771 47.8645 23.4248L47.1445 23.0942C45.698 22.43 44.0542 22.4917 42.6686 23.1279V21.2416C42.6686 12.7646 35.7966 5.89258 27.3195 5.89258Z" fill="#FFA483" shape-rendering="crispEdges"/>
<path d="M11.9705 46.1997H11.4705V46.6997H11.9705V46.1997ZM42.6686 46.1997V46.6997H43.1686V46.1997H42.6686ZM42.6686 43.4303L42.2293 43.1915L42.1686 43.3032V43.4303H42.6686ZM50.0206 29.9042L49.5813 29.6654L50.0206 29.9042ZM47.8645 23.4248L47.6559 23.8792V23.8792L47.8645 23.4248ZM47.1445 23.0942L47.3531 22.6398V22.6398L47.1445 23.0942ZM42.6686 23.1279H42.1686V23.9076L42.8772 23.5823L42.6686 23.1279ZM12.4705 21.2416C12.4705 13.0407 19.1186 6.39258 27.3195 6.39258V5.39258C18.5663 5.39258 11.4705 12.4885 11.4705 21.2416H12.4705ZM12.4705 46.1997V21.2416H11.4705V46.1997H12.4705ZM42.6686 45.6997H11.9705V46.6997H42.6686V45.6997ZM42.1686 43.4303V46.1997H43.1686V43.4303H42.1686ZM49.5813 29.6654L42.2293 43.1915L43.1079 43.6691L50.4599 30.143L49.5813 29.6654ZM47.6559 23.8792C49.9024 24.9107 50.7619 27.4935 49.5813 29.6654L50.4599 30.143C51.9169 27.4625 50.8457 24.2434 48.0732 22.9704L47.6559 23.8792ZM46.9359 23.5485L47.6559 23.8792L48.0732 22.9704L47.3531 22.6398L46.9359 23.5485ZM42.8772 23.5823C44.141 23.0021 45.6321 22.9499 46.9359 23.5486L47.3531 22.6398C45.764 21.9101 43.9674 21.9814 42.46 22.6734L42.8772 23.5823ZM42.1686 21.2416V23.1279H43.1686V21.2416H42.1686ZM27.3195 6.39258C35.5204 6.39258 42.1686 13.0407 42.1686 21.2416H43.1686C43.1686 12.4884 36.0727 5.39258 27.3195 5.39258V6.39258Z" fill="white" fill-opacity="0.5"/>
</g>
<g filter="url(#filter2_bd_5082_12679)">
<rect x="9.77783" y="46.2002" width="35.0836" height="12.7286" rx="2" fill="#E6E6E6" fill-opacity="0.6" shape-rendering="crispEdges"/>
<rect x="9.77783" y="46.2002" width="35.0836" height="12.7286" rx="2" stroke="white" stroke-opacity="0.5" shape-rendering="crispEdges"/>
</g>
<g filter="url(#filter3_bd_5082_12679)">
<path d="M30.7085 23.9477C31.1214 23.5182 31.7907 23.5182 32.2036 23.9477C32.6165 24.3773 32.6165 25.0738 32.2036 25.5034L21.7378 36.3928C21.3249 36.8224 20.6556 36.8224 20.2427 36.3928C19.8298 35.9632 19.8298 35.2668 20.2427 34.8372L30.7085 23.9477Z" fill="white" fill-opacity="0.7" shape-rendering="crispEdges"/>
</g>
<g filter="url(#filter4_bd_5082_12679)">
<path d="M20.2429 25.5044C19.8301 25.0748 19.8301 24.3783 20.2429 23.9487C20.6558 23.5192 21.3252 23.5192 21.738 23.9487L32.2038 34.8382C32.6167 35.2678 32.6167 35.9642 32.2038 36.3938C31.791 36.8234 31.1216 36.8234 30.7087 36.3938L20.2429 25.5044Z" fill="white" fill-opacity="0.7" shape-rendering="crispEdges"/>
</g>
<g filter="url(#filter5_bd_5082_12679)">
<path d="M33.6235 29.0703C34.2073 29.0703 34.6807 29.5628 34.6807 30.1703C34.6807 30.7778 34.2073 31.2703 33.6235 31.2703L18.8226 31.2703C18.2387 31.2703 17.7654 30.7778 17.7654 30.1703C17.7654 29.5628 18.2387 29.0703 18.8226 29.0703L33.6235 29.0703Z" fill="white" fill-opacity="0.7" shape-rendering="crispEdges"/>
</g>
<g filter="url(#filter6_bd_5082_12679)">
<path d="M25.166 22.4711C25.166 21.8636 25.6393 21.3711 26.2232 21.3711C26.8071 21.3711 27.2804 21.8636 27.2804 22.4711V37.8711C27.2804 38.4786 26.8071 38.9711 26.2232 38.9711C25.6393 38.9711 25.166 38.4786 25.166 37.8711V22.4711Z" fill="white" fill-opacity="0.7" shape-rendering="crispEdges"/>
</g>
</g>
<defs>
<filter id="filter0_bd_5082_12679" x="-0.722168" y="-4.60742" width="67.3157" height="74.0361" filterUnits="userSpaceOnUse" color-interpolation-filters="sRGB">
<feFlood flood-opacity="0" result="BackgroundImageFix"/>
<feGaussianBlur in="BackgroundImageFix" stdDeviation="5"/>
<feComposite in2="SourceAlpha" operator="in" result="effect1_backgroundBlur_5082_12679"/>
<feColorMatrix in="SourceAlpha" type="matrix" values="0 0 0 0 0 0 0 0 0 0 0 0 0 0 0 0 0 0 127 0" result="hardAlpha"/>
<feOffset dy="1"/>
<feGaussianBlur stdDeviation="1"/>
<feComposite in2="hardAlpha" operator="out"/>
<feColorMatrix type="matrix" values="0 0 0 0 0 0 0 0 0 0 0 0 0 0 0 0 0 0 0.1 0"/>
<feBlend mode="normal" in2="effect1_backgroundBlur_5082_12679" result="effect2_dropShadow_5082_12679"/>
<feBlend mode="normal" in="SourceGraphic" in2="effect2_dropShadow_5082_12679" result="shape"/>
</filter>
<filter id="filter1_bd_5082_12679" x="1.47046" y="-4.60742" width="59.6406" height="61.3076" filterUnits="userSpaceOnUse" color-interpolation-filters="sRGB">
<feFlood flood-opacity="0" result="BackgroundImageFix"/>
<feGaussianBlur in="BackgroundImageFix" stdDeviation="5"/>
<feComposite in2="SourceAlpha" operator="in" result="effect1_backgroundBlur_5082_12679"/>
<feColorMatrix in="SourceAlpha" type="matrix" values="0 0 0 0 0 0 0 0 0 0 0 0 0 0 0 0 0 0 127 0" result="hardAlpha"/>
<feOffset dx="1"/>
<feGaussianBlur stdDeviation="1"/>
<feComposite in2="hardAlpha" operator="out"/>
<feColorMatrix type="matrix" values="0 0 0 0 0 0 0 0 0 0 0 0 0 0 0 0 0 0 0.1 0"/>
<feBlend mode="normal" in2="effect1_backgroundBlur_5082_12679" result="effect2_dropShadow_5082_12679"/>
<feBlend mode="normal" in="SourceGraphic" in2="effect2_dropShadow_5082_12679" result="shape"/>
</filter>
<filter id="filter2_bd_5082_12679" x="-0.722168" y="35.7002" width="56.0835" height="33.7285" filterUnits="userSpaceOnUse" color-interpolation-filters="sRGB">
<feFlood flood-opacity="0" result="BackgroundImageFix"/>
<feGaussianBlur in="BackgroundImageFix" stdDeviation="5"/>
<feComposite in2="SourceAlpha" operator="in" result="effect1_backgroundBlur_5082_12679"/>
<feColorMatrix in="SourceAlpha" type="matrix" values="0 0 0 0 0 0 0 0 0 0 0 0 0 0 0 0 0 0 127 0" result="hardAlpha"/>
<feOffset dx="1"/>
<feGaussianBlur stdDeviation="1"/>
<feComposite in2="hardAlpha" operator="out"/>
<feColorMatrix type="matrix" values="0 0 0 0 0 0 0 0 0 0 0 0 0 0 0 0 0 0 0.1 0"/>
<feBlend mode="normal" in2="effect1_backgroundBlur_5082_12679" result="effect2_dropShadow_5082_12679"/>
<feBlend mode="normal" in="SourceGraphic" in2="effect2_dropShadow_5082_12679" result="shape"/>
</filter>
<filter id="filter3_bd_5082_12679" x="17.9331" y="21.626" width="16.5801" height="17.0889" filterUnits="userSpaceOnUse" color-interpolation-filters="sRGB">
<feFlood flood-opacity="0" result="BackgroundImageFix"/>
<feGaussianBlur in="BackgroundImageFix" stdDeviation="1"/>
<feComposite in2="SourceAlpha" operator="in" result="effect1_backgroundBlur_5082_12679"/>
<feColorMatrix in="SourceAlpha" type="matrix" values="0 0 0 0 0 0 0 0 0 0 0 0 0 0 0 0 0 0 127 0" result="hardAlpha"/>
<feOffset dx="0.5" dy="0.5"/>
<feGaussianBlur stdDeviation="0.5"/>
<feComposite in2="hardAlpha" operator="out"/>
<feColorMatrix type="matrix" values="0 0 0 0 0 0 0 0 0 0 0 0 0 0 0 0 0 0 0.1 0"/>
<feBlend mode="normal" in2="effect1_backgroundBlur_5082_12679" result="effect2_dropShadow_5082_12679"/>
<feBlend mode="normal" in="SourceGraphic" in2="effect2_dropShadow_5082_12679" result="shape"/>
</filter>
<filter id="filter4_bd_5082_12679" x="17.9333" y="21.627" width="16.5801" height="17.0889" filterUnits="userSpaceOnUse" color-interpolation-filters="sRGB">
<feFlood flood-opacity="0" result="BackgroundImageFix"/>
<feGaussianBlur in="BackgroundImageFix" stdDeviation="1"/>
<feComposite in2="SourceAlpha" operator="in" result="effect1_backgroundBlur_5082_12679"/>
<feColorMatrix in="SourceAlpha" type="matrix" values="0 0 0 0 0 0 0 0 0 0 0 0 0 0 0 0 0 0 127 0" result="hardAlpha"/>
<feOffset dx="0.5" dy="0.5"/>
<feGaussianBlur stdDeviation="0.5"/>
<feComposite in2="hardAlpha" operator="out"/>
<feColorMatrix type="matrix" values="0 0 0 0 0 0 0 0 0 0 0 0 0 0 0 0 0 0 0.1 0"/>
<feBlend mode="normal" in2="effect1_backgroundBlur_5082_12679" result="effect2_dropShadow_5082_12679"/>
<feBlend mode="normal" in="SourceGraphic" in2="effect2_dropShadow_5082_12679" result="shape"/>
</filter>
<filter id="filter5_bd_5082_12679" x="15.7654" y="27.0703" width="20.9153" height="6.2002" filterUnits="userSpaceOnUse" color-interpolation-filters="sRGB">
<feFlood flood-opacity="0" result="BackgroundImageFix"/>
<feGaussianBlur in="BackgroundImageFix" stdDeviation="1"/>
<feComposite in2="SourceAlpha" operator="in" result="effect1_backgroundBlur_5082_12679"/>
<feColorMatrix in="SourceAlpha" type="matrix" values="0 0 0 0 0 0 0 0 0 0 0 0 0 0 0 0 0 0 127 0" result="hardAlpha"/>
<feOffset dx="0.5" dy="0.5"/>
<feGaussianBlur stdDeviation="0.5"/>
<feComposite in2="hardAlpha" operator="out"/>
<feColorMatrix type="matrix" values="0 0 0 0 0 0 0 0 0 0 0 0 0 0 0 0 0 0 0.1 0"/>
<feBlend mode="normal" in2="effect1_backgroundBlur_5082_12679" result="effect2_dropShadow_5082_12679"/>
<feBlend mode="normal" in="SourceGraphic" in2="effect2_dropShadow_5082_12679" result="shape"/>
</filter>
<filter id="filter6_bd_5082_12679" x="23.166" y="19.3711" width="6.1145" height="21.5996" filterUnits="userSpaceOnUse" color-interpolation-filters="sRGB">
<feFlood flood-opacity="0" result="BackgroundImageFix"/>
<feGaussianBlur in="BackgroundImageFix" stdDeviation="1"/>
<feComposite in2="SourceAlpha" operator="in" result="effect1_backgroundBlur_5082_12679"/>
<feColorMatrix in="SourceAlpha" type="matrix" values="0 0 0 0 0 0 0 0 0 0 0 0 0 0 0 0 0 0 127 0" result="hardAlpha"/>
<feOffset dx="0.5" dy="0.5"/>
<feGaussianBlur stdDeviation="0.5"/>
<feComposite in2="hardAlpha" operator="out"/>
<feColorMatrix type="matrix" values="0 0 0 0 0 0 0 0 0 0 0 0 0 0 0 0 0 0 0.1 0"/>
<feBlend mode="normal" in2="effect1_backgroundBlur_5082_12679" result="effect2_dropShadow_5082_12679"/>
<feBlend mode="normal" in="SourceGraphic" in2="effect2_dropShadow_5082_12679" result="shape"/>
</filter>
</defs>
</svg>
