<svg width="66" height="69" viewBox="0 0 66 69" fill="none" xmlns="http://www.w3.org/2000/svg">
<g filter="url(#filter0_bd_5082_12730)">
<path fill-rule="evenodd" clip-rule="evenodd" d="M35.3871 10.0057C34.813 10.3216 34.1806 10.5315 33.5255 10.6273V12.5758C33.6484 12.6111 33.7692 12.6546 33.887 12.7062L55.2645 22.0672C57.8923 23.2179 56.9956 26.8259 54.0818 26.8259H11.3267C8.41283 26.8259 7.51608 23.2179 10.1439 22.0672L31.5215 12.7062C31.6392 12.6546 31.7601 12.6111 31.883 12.5758V9.41423C31.883 9.28798 31.9949 9.18564 32.1331 9.18564C32.8554 9.1601 33.9704 8.93555 34.4928 8.64807C35.0803 8.32474 35.5498 7.84942 35.8418 7.28222C36.1338 6.71502 36.2352 6.08142 36.1332 5.46154C36.0312 4.84166 35.7304 4.26334 35.2689 3.79971C34.8073 3.33608 34.2057 3.00797 33.5401 2.85687C32.8745 2.70577 32.1748 2.73846 31.5296 2.95081C30.8843 3.16316 30.3224 3.54564 29.915 4.04987C29.6165 4.41927 29.4107 4.84186 29.3093 5.28764C29.2477 5.55824 28.9957 5.77305 28.6936 5.76004L28.0556 5.73255C27.7536 5.71954 27.5173 5.48444 27.5632 5.21126C27.6907 4.45224 28.018 3.7301 28.5204 3.1084C29.1315 2.35205 29.9743 1.77834 30.9422 1.45981C31.9101 1.14128 32.9596 1.09224 33.958 1.3189C34.9564 1.54555 35.8588 2.03772 36.5512 2.73316C37.2435 3.4286 37.6947 4.29608 37.8477 5.2259C38.0007 6.15572 37.8485 7.10612 37.4106 7.95692C36.9726 8.80771 36.2684 9.52069 35.3871 10.0057ZM33.1773 14.0601L54.5549 23.4211C55.606 23.8814 55.2473 25.3246 54.0818 25.3246H11.3267C10.1611 25.3246 9.80243 23.8814 10.8536 23.4211L32.2311 14.0601C32.5302 13.9291 32.8782 13.9291 33.1773 14.0601Z" fill="black"/>
<path d="M14.0921 18.0523L21.2019 15.8538C22.0398 15.5947 22.6111 14.82 22.6111 13.943V10.7138C22.6111 10.059 23.231 9.58169 23.8668 9.73861C30.1125 11.2801 34.1949 11.5128 40.8726 9.66514C41.5185 9.48642 42.1666 9.96593 42.1666 10.6361V13.932C42.1666 14.8186 42.7503 15.5993 43.6006 15.8502L51.2987 18.1218C54.4858 19.0623 56.7597 21.8751 57.0115 25.1886L59.8243 62.2034C59.8615 62.6933 59.5374 63.1376 59.0596 63.2518L53.6524 64.5443C53.0479 64.6888 52.4594 64.2526 52.4218 63.6321L50.6385 34.1785C48.4053 45.8917 47.4731 52.5055 49.2999 63.6455C49.4005 64.259 48.9301 64.8212 48.3084 64.8212H17.6979C17.0741 64.8212 16.6032 64.2551 16.7058 63.6398C18.5193 52.764 17.32 46.0895 15.3876 34.1785L13.4853 63.6336C13.4453 64.2535 12.8557 64.6873 12.252 64.5411L6.92589 63.251C6.45455 63.1368 6.13307 62.7009 6.16325 62.2169L8.47097 25.1975C8.67783 21.8791 10.9156 19.0345 14.0921 18.0523Z" fill="#4D4D4D" stroke="white" stroke-opacity="0.5" stroke-linecap="round" stroke-linejoin="round"/>
</g>
<defs>
<filter id="filter0_bd_5082_12730" x="-4.33862" y="-8.82129" width="74.6658" height="84.1426" filterUnits="userSpaceOnUse" color-interpolation-filters="sRGB">
<feFlood flood-opacity="0" result="BackgroundImageFix"/>
<feGaussianBlur in="BackgroundImageFix" stdDeviation="5"/>
<feComposite in2="SourceAlpha" operator="in" result="effect1_backgroundBlur_5082_12730"/>
<feColorMatrix in="SourceAlpha" type="matrix" values="0 0 0 0 0 0 0 0 0 0 0 0 0 0 0 0 0 0 127 0" result="hardAlpha"/>
<feOffset dy="1"/>
<feGaussianBlur stdDeviation="1"/>
<feComposite in2="hardAlpha" operator="out"/>
<feColorMatrix type="matrix" values="0 0 0 0 0 0 0 0 0 0 0 0 0 0 0 0 0 0 0.1 0"/>
<feBlend mode="normal" in2="effect1_backgroundBlur_5082_12730" result="effect2_dropShadow_5082_12730"/>
<feBlend mode="normal" in="SourceGraphic" in2="effect2_dropShadow_5082_12730" result="shape"/>
</filter>
</defs>
</svg>
