<svg width="146" height="158" viewBox="0 0 146 158" fill="none" xmlns="http://www.w3.org/2000/svg">
<g filter="url(#filter0_bdd_5082_12728)">
<g clip-path="url(#clip0_5082_12728)">
<rect x="16" y="16" width="106" height="118" rx="16" fill="white" fill-opacity="0.4" shape-rendering="crispEdges"/>
<path d="M60.6534 31.088H61.6494V41.936H60.6534V31.088ZM53.0214 32.84H59.5254V33.644H53.0214V32.84ZM56.2854 34.532C57.8454 34.532 58.9734 35.564 58.9734 37.028C58.9734 38.492 57.8454 39.524 56.2854 39.524C54.7254 39.524 53.6094 38.492 53.6094 37.028C53.6094 35.564 54.7254 34.532 56.2854 34.532ZM56.2854 35.36C55.2894 35.36 54.5574 36.044 54.5574 37.028C54.5574 38 55.2894 38.696 56.2854 38.696C57.2814 38.696 58.0134 38 58.0134 37.028C58.0134 36.044 57.2814 35.36 56.2854 35.36ZM55.7694 31.196H56.7654V33.332H55.7694V31.196ZM64.8405 36.932H72.2925V37.736H64.8405V36.932ZM63.5805 39.716H73.4085V40.544H63.5805V39.716ZM64.8405 32.012H72.1725V32.828H65.8485V37.184H64.8405V32.012ZM65.5245 34.436H71.9445V35.228H65.5245V34.436ZM79.0355 33.932H80.8835V34.748H79.0355V33.932ZM74.8715 36.344H75.5555C77.2475 36.344 78.2555 36.296 79.4555 36.056L79.5515 36.86C78.3035 37.112 77.2835 37.148 75.5555 37.148H74.8715V36.344ZM74.8715 31.856H78.9635V32.66H75.8315V36.704H74.8715V31.856ZM75.5315 34.064H78.5315V34.844H75.5315V34.064ZM76.2155 38.324H83.5115V41.936H82.5275V39.128H76.2155V38.324ZM82.5635 31.088H83.5115V37.808H82.5635V31.088ZM80.4755 31.316H81.4115V37.724H80.4755V31.316Z" fill="#121212" fill-opacity="0.7"/>
<g filter="url(#filter1_bd_5082_12728)">
<path fill-rule="evenodd" clip-rule="evenodd" d="M71.3871 64.0057C70.813 64.3216 70.1806 64.5315 69.5255 64.6273V66.5758C69.6484 66.6111 69.7692 66.6546 69.887 66.7062L91.2645 76.0672C93.8923 77.2179 92.9956 80.8259 90.0818 80.8259H47.3267C44.4128 80.8259 43.5161 77.2179 46.1439 76.0672L67.5215 66.7062C67.6392 66.6546 67.7601 66.6111 67.883 66.5758V63.4142C67.883 63.288 67.9949 63.1856 68.1331 63.1856C68.8554 63.1601 69.9704 62.9355 70.4928 62.6481C71.0803 62.3247 71.5498 61.8494 71.8418 61.2822C72.1338 60.715 72.2352 60.0814 72.1332 59.4615C72.0312 58.8417 71.7304 58.2633 71.2689 57.7997C70.8073 57.3361 70.2057 57.008 69.5401 56.8569C68.8745 56.7058 68.1748 56.7385 67.5296 56.9508C66.8843 57.1632 66.3224 57.5456 65.915 58.0499C65.6165 58.4193 65.4107 58.8419 65.3093 59.2876C65.2477 59.5582 64.9957 59.7731 64.6936 59.76L64.0556 59.7326C63.7536 59.7195 63.5173 59.4844 63.5632 59.2113C63.6907 58.4522 64.018 57.7301 64.5204 57.1084C65.1315 56.3521 65.9743 55.7783 66.9422 55.4598C67.9101 55.1413 68.9596 55.0922 69.958 55.3189C70.9564 55.5456 71.8588 56.0377 72.5512 56.7332C73.2435 57.4286 73.6947 58.2961 73.8477 59.2259C74.0007 60.1557 73.8485 61.1061 73.4106 61.9569C72.9726 62.8077 72.2684 63.5207 71.3871 64.0057ZM69.1773 68.0601L90.5549 77.4211C91.606 77.8814 91.2473 79.3246 90.0818 79.3246H47.3267C46.1611 79.3246 45.8024 77.8814 46.8536 77.4211L68.2311 68.0601C68.5302 67.9291 68.8782 67.9291 69.1773 68.0601Z" fill="black"/>
<g filter="url(#filter2_bdd_5082_12728)">
<path d="M50.0921 72.0523L57.2019 69.8538C58.0398 69.5947 58.6111 68.82 58.6111 67.943V64.7138C58.6111 64.059 59.231 63.5817 59.8668 63.7386C66.1125 65.2801 70.1949 65.5128 76.8726 63.6651C77.5185 63.4864 78.1666 63.9659 78.1666 64.6361V67.932C78.1666 68.8186 78.7503 69.5993 79.6006 69.8502L87.2987 72.1218C90.4858 73.0623 92.7597 75.8751 93.0115 79.1886L95.8243 116.203C95.8615 116.693 95.5374 117.138 95.0596 117.252L89.6524 118.544C89.0479 118.689 88.4594 118.253 88.4218 117.632L86.6385 88.1785C84.4053 99.8917 83.4731 106.505 85.2999 117.646C85.4005 118.259 84.9301 118.821 84.3084 118.821H53.6979C53.0741 118.821 52.6032 118.255 52.7058 117.64C54.5193 106.764 53.32 100.089 51.3876 88.1785L49.4853 117.634C49.4453 118.254 48.8557 118.687 48.252 118.541L42.9259 117.251C42.4546 117.137 42.1331 116.701 42.1632 116.217L44.471 79.1975C44.6778 75.8791 46.9156 73.0345 50.0921 72.0523Z" fill="#4D4D4D"/>
<path d="M50.0921 72.0523L57.2019 69.8538C58.0398 69.5947 58.6111 68.82 58.6111 67.943V64.7138C58.6111 64.059 59.231 63.5817 59.8668 63.7386C66.1125 65.2801 70.1949 65.5128 76.8726 63.6651C77.5185 63.4864 78.1666 63.9659 78.1666 64.6361V67.932C78.1666 68.8186 78.7503 69.5993 79.6006 69.8502L87.2987 72.1218C90.4858 73.0623 92.7597 75.8751 93.0115 79.1886L95.8243 116.203C95.8615 116.693 95.5374 117.138 95.0596 117.252L89.6524 118.544C89.0479 118.689 88.4594 118.253 88.4218 117.632L86.6385 88.1785C84.4053 99.8917 83.4731 106.505 85.2999 117.646C85.4005 118.259 84.9301 118.821 84.3084 118.821H53.6979C53.0741 118.821 52.6032 118.255 52.7058 117.64C54.5193 106.764 53.32 100.089 51.3876 88.1785L49.4853 117.634C49.4453 118.254 48.8557 118.687 48.252 118.541L42.9259 117.251C42.4546 117.137 42.1331 116.701 42.1632 116.217L44.471 79.1975C44.6778 75.8791 46.9156 73.0345 50.0921 72.0523Z" stroke="white" stroke-opacity="0.5" stroke-linecap="round" stroke-linejoin="round"/>
</g>
</g>
</g>
<rect x="16.5" y="16.5" width="105" height="117" rx="15.5" stroke="url(#paint0_linear_5082_12728)" stroke-opacity="0.5" shape-rendering="crispEdges"/>
</g>
<defs>
<filter id="filter0_bdd_5082_12728" x="-4" y="-4" width="150" height="162" filterUnits="userSpaceOnUse" color-interpolation-filters="sRGB">
<feFlood flood-opacity="0" result="BackgroundImageFix"/>
<feGaussianBlur in="BackgroundImageFix" stdDeviation="10"/>
<feComposite in2="SourceAlpha" operator="in" result="effect1_backgroundBlur_5082_12728"/>
<feColorMatrix in="SourceAlpha" type="matrix" values="0 0 0 0 0 0 0 0 0 0 0 0 0 0 0 0 0 0 127 0" result="hardAlpha"/>
<feOffset dx="4" dy="4"/>
<feGaussianBlur stdDeviation="10"/>
<feComposite in2="hardAlpha" operator="out"/>
<feColorMatrix type="matrix" values="0 0 0 0 0 0 0 0 0 0 0 0 0 0 0 0 0 0 0.05 0"/>
<feBlend mode="normal" in2="effect1_backgroundBlur_5082_12728" result="effect2_dropShadow_5082_12728"/>
<feColorMatrix in="SourceAlpha" type="matrix" values="0 0 0 0 0 0 0 0 0 0 0 0 0 0 0 0 0 0 127 0" result="hardAlpha"/>
<feOffset/>
<feGaussianBlur stdDeviation="1"/>
<feComposite in2="hardAlpha" operator="out"/>
<feColorMatrix type="matrix" values="0 0 0 0 0 0 0 0 0 0 0 0 0 0 0 0 0 0 0.05 0"/>
<feBlend mode="normal" in2="effect2_dropShadow_5082_12728" result="effect3_dropShadow_5082_12728"/>
<feBlend mode="normal" in="SourceGraphic" in2="effect3_dropShadow_5082_12728" result="shape"/>
</filter>
<filter id="filter1_bd_5082_12728" x="31.6614" y="45.1787" width="74.6658" height="84.1426" filterUnits="userSpaceOnUse" color-interpolation-filters="sRGB">
<feFlood flood-opacity="0" result="BackgroundImageFix"/>
<feGaussianBlur in="BackgroundImageFix" stdDeviation="5"/>
<feComposite in2="SourceAlpha" operator="in" result="effect1_backgroundBlur_5082_12728"/>
<feColorMatrix in="SourceAlpha" type="matrix" values="0 0 0 0 0 0 0 0 0 0 0 0 0 0 0 0 0 0 127 0" result="hardAlpha"/>
<feOffset dy="1"/>
<feGaussianBlur stdDeviation="1"/>
<feComposite in2="hardAlpha" operator="out"/>
<feColorMatrix type="matrix" values="0 0 0 0 0 0 0 0 0 0 0 0 0 0 0 0 0 0 0.1 0"/>
<feBlend mode="normal" in2="effect1_backgroundBlur_5082_12728" result="effect2_dropShadow_5082_12728"/>
<feBlend mode="normal" in="SourceGraphic" in2="effect2_dropShadow_5082_12728" result="shape"/>
</filter>
<filter id="filter2_bdd_5082_12728" x="21.6614" y="43.1279" width="98.6658" height="100.193" filterUnits="userSpaceOnUse" color-interpolation-filters="sRGB">
<feFlood flood-opacity="0" result="BackgroundImageFix"/>
<feGaussianBlur in="BackgroundImageFix" stdDeviation="10"/>
<feComposite in2="SourceAlpha" operator="in" result="effect1_backgroundBlur_5082_12728"/>
<feColorMatrix in="SourceAlpha" type="matrix" values="0 0 0 0 0 0 0 0 0 0 0 0 0 0 0 0 0 0 127 0" result="hardAlpha"/>
<feOffset dx="4" dy="4"/>
<feGaussianBlur stdDeviation="10"/>
<feColorMatrix type="matrix" values="0 0 0 0 0 0 0 0 0 0 0 0 0 0 0 0 0 0 0.05 0"/>
<feBlend mode="normal" in2="effect1_backgroundBlur_5082_12728" result="effect2_dropShadow_5082_12728"/>
<feColorMatrix in="SourceAlpha" type="matrix" values="0 0 0 0 0 0 0 0 0 0 0 0 0 0 0 0 0 0 127 0" result="hardAlpha"/>
<feOffset/>
<feGaussianBlur stdDeviation="1"/>
<feColorMatrix type="matrix" values="0 0 0 0 0 0 0 0 0 0 0 0 0 0 0 0 0 0 0.05 0"/>
<feBlend mode="normal" in2="effect2_dropShadow_5082_12728" result="effect3_dropShadow_5082_12728"/>
<feBlend mode="normal" in="SourceGraphic" in2="effect3_dropShadow_5082_12728" result="shape"/>
</filter>
<linearGradient id="paint0_linear_5082_12728" x1="28.0455" y1="16" x2="137.125" y2="165.064" gradientUnits="userSpaceOnUse">
<stop stop-color="white"/>
<stop offset="1" stop-color="white" stop-opacity="0"/>
</linearGradient>
<clipPath id="clip0_5082_12728">
<rect x="16" y="16" width="106" height="118" rx="16" fill="white"/>
</clipPath>
</defs>
</svg>
