<svg width="146" height="158" viewBox="0 0 146 158" fill="none" xmlns="http://www.w3.org/2000/svg">
<g filter="url(#filter0_bdd_5082_12628)">
<g clip-path="url(#clip0_5082_12628)">
<rect x="16" y="16" width="106" height="118" rx="16" fill="white" fill-opacity="0.4" shape-rendering="crispEdges"/>
<path d="M59.1849 32.324H67.9089V33.128H59.1849V32.324ZM58.6809 38.12H68.5089V38.936H58.6809V38.12ZM63.0729 38.78H64.0689V41.948H63.0729V38.78ZM63.5769 33.752C65.7849 33.752 67.0929 34.4 67.0929 35.564C67.0929 36.716 65.7849 37.376 63.5769 37.376C61.3569 37.376 60.0489 36.716 60.0489 35.564C60.0489 34.4 61.3569 33.752 63.5769 33.752ZM63.5769 34.52C61.9929 34.52 61.0809 34.892 61.0809 35.564C61.0809 36.236 61.9929 36.608 63.5769 36.608C65.1609 36.608 66.0729 36.236 66.0729 35.564C66.0729 34.892 65.1609 34.52 63.5769 34.52ZM63.0729 31.028H64.0689V32.864H63.0729V31.028ZM70.716 36.284H78.168V37.1H70.716V36.284ZM69.48 39.644H79.308V40.472H69.48V39.644ZM70.716 32.084H78.06V32.912H71.712V36.644H70.716V32.084Z" fill="#121212" fill-opacity="0.7"/>
<g filter="url(#filter1_bd_5082_12628)">
<path d="M53.6457 71.6639C53.6865 70.7074 53.6844 69.7035 53.5008 68.7324C52.9541 65.84 50.6925 66.0476 68.3764 64.128C69.0395 64.0561 69.7314 64.067 70.3919 64.1604C84.1204 66.102 84.6674 65.8544 84.6674 68.7324C84.5379 69.295 84.5249 69.9319 84.5571 70.5996C84.7277 74.1283 81.8371 75.4151 78.545 74.1335C69.2264 70.5058 67.1693 71.2034 58.7352 74.5858C55.9474 75.7038 53.5178 74.6648 53.6457 71.6639Z" fill="#AEAEAE"/>
<path d="M53.5008 68.7324C53.6844 69.7035 53.6865 70.7074 53.6457 71.6639C53.5178 74.6648 55.9474 75.7038 58.7352 74.5858C67.1693 71.2034 69.2264 70.5058 78.545 74.1335C81.8371 75.4151 84.7277 74.1283 84.5571 70.5996C84.5249 69.9319 84.5379 69.295 84.6674 68.7324M53.5008 68.7324C52.9541 65.84 50.6925 66.0476 68.3764 64.128C69.0395 64.0561 69.7314 64.067 70.3919 64.1604C84.1204 66.102 84.6674 65.8544 84.6674 68.7324M53.5008 68.7324C54.9674 70.1466 57.7788 71.6788 62.0566 71.0895H75.4508C75.891 71.0895 76.3307 71.1278 76.766 71.1931C83.5414 72.2104 84.0748 70.4466 84.6674 68.7324" stroke="white" stroke-opacity="0.5" stroke-linecap="round"/>
<g filter="url(#filter2_bdd_5082_12628)">
<path d="M50.2526 71.9619L56.8436 69.7134C57.3786 69.5309 57.9594 69.592 58.4816 69.8086C63.3336 71.8208 73.8487 71.4093 79.8186 69.7444C80.2189 69.6327 80.6433 69.6337 81.0382 69.7634L87.9294 72.0255C90.9906 73.0305 93.1503 75.7738 93.4085 78.9855L96.1418 112.989C96.2207 113.972 95.5719 114.866 94.6132 115.095L88.8839 116.464H49.7988L44.1367 115.093C43.1914 114.864 42.5479 113.988 42.6119 113.018L44.853 79.0074C45.0654 75.7841 47.1954 73.0048 50.2526 71.9619Z" fill="#D9D9D9"/>
<path d="M49.7988 116.464L44.1367 115.093C43.1914 114.864 42.5479 113.988 42.6119 113.018L44.853 79.0074C45.0654 75.7841 47.1954 73.0048 50.2526 71.9619L56.8436 69.7134C57.3786 69.5309 57.9594 69.592 58.4816 69.8086C63.3336 71.8208 73.8487 71.4093 79.8186 69.7444C80.2189 69.6327 80.6433 69.6337 81.0382 69.7634L87.9294 72.0255C90.9906 73.0305 93.1503 75.7738 93.4085 78.9855L96.1418 112.989C96.2208 113.972 95.5719 114.866 94.6132 115.095L88.8839 116.464M49.7988 116.464H88.8839M49.7988 116.464L51.7767 88.1786M88.8839 116.464L87.0276 88.1786" stroke="white" stroke-opacity="0.5" stroke-linecap="round"/>
</g>
<path fill-rule="evenodd" clip-rule="evenodd" d="M71.7767 64.0057C71.2027 64.3216 70.5703 64.5315 69.9151 64.6273V66.5758C70.038 66.6111 70.1588 66.6546 70.2766 66.7062L91.6542 76.0672C94.282 77.2179 93.3852 80.8259 90.4714 80.8259H47.7163C44.8025 80.8259 43.9057 77.2179 46.5336 76.0672L67.9111 66.7062C68.0289 66.6546 68.1497 66.6111 68.2726 66.5758V63.4142C68.2726 63.288 68.3846 63.1856 68.5227 63.1856C69.2451 63.1601 70.3601 62.9355 70.8825 62.6481C71.47 62.3247 71.9394 61.8494 72.2314 61.2822C72.5234 60.715 72.6248 60.0814 72.5229 59.4615C72.4209 58.8417 72.1201 58.2633 71.6585 57.7997C71.1969 57.3361 70.5953 57.008 69.9297 56.8569C69.2641 56.7058 68.5645 56.7385 67.9192 56.9508C67.2739 57.1632 66.7121 57.5456 66.3046 58.0499C66.0061 58.4193 65.8004 58.8419 65.6989 59.2876C65.6374 59.5582 65.3853 59.7731 65.0833 59.76L64.4452 59.7326C64.1432 59.7195 63.9069 59.4844 63.9528 59.2113C64.0803 58.4522 64.4076 57.7301 64.91 57.1084C65.5212 56.3521 66.364 55.7783 67.3319 55.4598C68.2998 55.1413 69.3493 55.0922 70.3477 55.3189C71.346 55.5456 72.2485 56.0377 72.9408 56.7332C73.6332 57.4286 74.0844 58.2961 74.2373 59.2259C74.3903 60.1557 74.2382 61.1061 73.8002 61.9569C73.3622 62.8077 72.6581 63.5207 71.7767 64.0057ZM69.567 68.0601L90.9445 77.4211C91.9956 77.8814 91.6369 79.3246 90.4714 79.3246H47.7163C46.5508 79.3246 46.1921 77.8814 47.2432 77.4211L68.6208 68.0601C68.9199 67.9291 69.2678 67.9291 69.567 68.0601Z" fill="black"/>
<path d="M69.0937 76.5054C73.4029 76.5054 77.2171 74.3369 79.5515 71.0079C80.1123 70.2082 81.1116 69.7872 82.0396 70.0919L88.0847 72.0763C91.0674 73.0554 93.2012 75.689 93.548 78.8091C96.2564 103.171 97.9717 116.426 94.12 117.032C93.9343 117.061 93.7425 117.08 93.5619 117.132L89.0009 118.452C88.3614 118.637 87.7231 118.157 87.7231 117.491V116.464H51.0564V117.475C51.0564 118.145 50.4093 118.626 49.7673 118.432L45.3718 117.104C45.2672 117.073 45.1572 117.051 45.0496 117.03L45.0291 117.026C40.6253 116.165 42.1529 103.225 44.6804 78.7896C45.0022 75.6789 47.1019 73.037 50.0617 72.0273L56.0449 69.9861C56.986 69.6651 58.0069 70.095 58.5708 70.914C60.8989 74.296 64.7442 76.5054 69.0937 76.5054Z" fill="#D9D9D9"/>
<path d="M51.0564 116.464H87.7231M51.0564 116.464L51.7774 88.1786M51.0564 116.464V117.475C51.0564 118.145 50.4093 118.626 49.7673 118.432L45.3718 117.104C45.2605 117.071 45.1432 117.048 45.0291 117.026C40.6253 116.165 42.1529 103.225 44.6804 78.7896C45.0022 75.6789 47.1019 73.037 50.0617 72.0273L56.0449 69.9861C56.986 69.6651 58.0069 70.095 58.5708 70.914C60.8989 74.296 64.7442 76.5054 69.0937 76.5054C73.4029 76.5054 77.2171 74.3369 79.5515 71.0079C80.1123 70.2082 81.1116 69.7872 82.0396 70.0919L88.0847 72.0763C91.0674 73.0554 93.2012 75.689 93.548 78.8091C96.2564 103.171 97.9717 116.426 94.12 117.032C93.9343 117.061 93.7425 117.08 93.5619 117.132L89.0009 118.452C88.3614 118.637 87.7231 118.157 87.7231 117.491V116.464M87.7231 116.464L87.0283 88.1786" stroke="white" stroke-opacity="0.5" stroke-linecap="round"/>
<path d="M70.001 76.9824V91.1253" stroke="white" stroke-opacity="0.5" stroke-linecap="round"/>
<path d="M67.5564 76.9824V97.0181" stroke="white" stroke-opacity="0.5" stroke-linecap="round"/>
<path d="M69.3899 76.9822L81.6121 65.7856C84.218 66.1508 85.4276 68.7217 85.8033 70.3603C85.9971 71.2052 85.4701 71.8891 84.6759 72.2366C80.2872 74.1566 76.251 74.8816 69.3899 76.9822Z" fill="#D9D9D9" stroke="white" stroke-opacity="0.5" stroke-linecap="round" stroke-linejoin="round"/>
<path d="M68.1675 76.9822L55.076 65.792C52.5854 66.5815 51.5613 69.2397 51.2063 70.7013C51.0752 71.2409 51.4593 71.892 51.9564 72.1393C58.0538 75.1721 61.0224 74.7947 68.1675 76.9822Z" fill="#D9D9D9" stroke="white" stroke-opacity="0.5" stroke-linecap="round" stroke-linejoin="round"/>
</g>
</g>
<rect x="16.5" y="16.5" width="105" height="117" rx="15.5" stroke="url(#paint0_linear_5082_12628)" stroke-opacity="0.5" shape-rendering="crispEdges"/>
</g>
<defs>
<filter id="filter0_bdd_5082_12628" x="-4" y="-4" width="150" height="162" filterUnits="userSpaceOnUse" color-interpolation-filters="sRGB">
<feFlood flood-opacity="0" result="BackgroundImageFix"/>
<feGaussianBlur in="BackgroundImageFix" stdDeviation="10"/>
<feComposite in2="SourceAlpha" operator="in" result="effect1_backgroundBlur_5082_12628"/>
<feColorMatrix in="SourceAlpha" type="matrix" values="0 0 0 0 0 0 0 0 0 0 0 0 0 0 0 0 0 0 127 0" result="hardAlpha"/>
<feOffset dx="4" dy="4"/>
<feGaussianBlur stdDeviation="10"/>
<feComposite in2="hardAlpha" operator="out"/>
<feColorMatrix type="matrix" values="0 0 0 0 0 0 0 0 0 0 0 0 0 0 0 0 0 0 0.05 0"/>
<feBlend mode="normal" in2="effect1_backgroundBlur_5082_12628" result="effect2_dropShadow_5082_12628"/>
<feColorMatrix in="SourceAlpha" type="matrix" values="0 0 0 0 0 0 0 0 0 0 0 0 0 0 0 0 0 0 127 0" result="hardAlpha"/>
<feOffset/>
<feGaussianBlur stdDeviation="1"/>
<feComposite in2="hardAlpha" operator="out"/>
<feColorMatrix type="matrix" values="0 0 0 0 0 0 0 0 0 0 0 0 0 0 0 0 0 0 0.05 0"/>
<feBlend mode="normal" in2="effect2_dropShadow_5082_12628" result="effect3_dropShadow_5082_12628"/>
<feBlend mode="normal" in="SourceGraphic" in2="effect3_dropShadow_5082_12628" result="shape"/>
</filter>
<filter id="filter1_bd_5082_12628" x="31.7371" y="45.1787" width="75.1289" height="83.8135" filterUnits="userSpaceOnUse" color-interpolation-filters="sRGB">
<feFlood flood-opacity="0" result="BackgroundImageFix"/>
<feGaussianBlur in="BackgroundImageFix" stdDeviation="5"/>
<feComposite in2="SourceAlpha" operator="in" result="effect1_backgroundBlur_5082_12628"/>
<feColorMatrix in="SourceAlpha" type="matrix" values="0 0 0 0 0 0 0 0 0 0 0 0 0 0 0 0 0 0 127 0" result="hardAlpha"/>
<feOffset dy="1"/>
<feGaussianBlur stdDeviation="1"/>
<feComposite in2="hardAlpha" operator="out"/>
<feColorMatrix type="matrix" values="0 0 0 0 0 0 0 0 0 0 0 0 0 0 0 0 0 0 0.1 0"/>
<feBlend mode="normal" in2="effect1_backgroundBlur_5082_12628" result="effect2_dropShadow_5082_12628"/>
<feBlend mode="normal" in="SourceGraphic" in2="effect2_dropShadow_5082_12628" result="shape"/>
</filter>
<filter id="filter2_bdd_5082_12628" x="22.1074" y="49.1055" width="98.5408" height="91.8589" filterUnits="userSpaceOnUse" color-interpolation-filters="sRGB">
<feFlood flood-opacity="0" result="BackgroundImageFix"/>
<feGaussianBlur in="BackgroundImageFix" stdDeviation="10"/>
<feComposite in2="SourceAlpha" operator="in" result="effect1_backgroundBlur_5082_12628"/>
<feColorMatrix in="SourceAlpha" type="matrix" values="0 0 0 0 0 0 0 0 0 0 0 0 0 0 0 0 0 0 127 0" result="hardAlpha"/>
<feOffset dx="4" dy="4"/>
<feGaussianBlur stdDeviation="10"/>
<feColorMatrix type="matrix" values="0 0 0 0 0 0 0 0 0 0 0 0 0 0 0 0 0 0 0.05 0"/>
<feBlend mode="normal" in2="effect1_backgroundBlur_5082_12628" result="effect2_dropShadow_5082_12628"/>
<feColorMatrix in="SourceAlpha" type="matrix" values="0 0 0 0 0 0 0 0 0 0 0 0 0 0 0 0 0 0 127 0" result="hardAlpha"/>
<feOffset/>
<feGaussianBlur stdDeviation="1"/>
<feColorMatrix type="matrix" values="0 0 0 0 0 0 0 0 0 0 0 0 0 0 0 0 0 0 0.05 0"/>
<feBlend mode="normal" in2="effect2_dropShadow_5082_12628" result="effect3_dropShadow_5082_12628"/>
<feBlend mode="normal" in="SourceGraphic" in2="effect3_dropShadow_5082_12628" result="shape"/>
</filter>
<linearGradient id="paint0_linear_5082_12628" x1="28.0455" y1="16" x2="137.125" y2="165.064" gradientUnits="userSpaceOnUse">
<stop stop-color="white"/>
<stop offset="1" stop-color="white" stop-opacity="0"/>
</linearGradient>
<clipPath id="clip0_5082_12628">
<rect x="16" y="16" width="106" height="118" rx="16" fill="white"/>
</clipPath>
</defs>
</svg>
