<svg width="66" height="68" viewBox="0 0 66 68" fill="none" xmlns="http://www.w3.org/2000/svg">
<g filter="url(#filter0_bd_5082_12630)">
<path d="M17.6457 17.6639C17.6865 16.7074 17.6844 15.7035 17.5008 14.7324C16.9541 11.84 14.6925 12.0476 32.3764 10.128C33.0395 10.0561 33.7314 10.067 34.3919 10.1604C48.1204 12.102 48.6674 11.8544 48.6674 14.7324C48.5379 15.295 48.5249 15.9319 48.5571 16.5996C48.7277 20.1283 45.8371 21.4151 42.545 20.1335C33.2264 16.5058 31.1693 17.2034 22.7352 20.5858C19.9474 21.7038 17.5178 20.6648 17.6457 17.6639Z" fill="#AEAEAE"/>
<path d="M17.5008 14.7324C17.6844 15.7035 17.6865 16.7074 17.6457 17.6639C17.5178 20.6648 19.9474 21.7038 22.7352 20.5858C31.1693 17.2034 33.2264 16.5058 42.545 20.1335C45.8371 21.4151 48.7277 20.1283 48.5571 16.5996C48.5249 15.9319 48.5379 15.295 48.6674 14.7324M17.5008 14.7324C16.9541 11.84 14.6925 12.0476 32.3764 10.128C33.0395 10.0561 33.7314 10.067 34.3919 10.1604C48.1204 12.102 48.6674 11.8544 48.6674 14.7324M17.5008 14.7324C18.9674 16.1466 21.7788 17.6788 26.0566 17.0895H39.4508C39.891 17.0895 40.3307 17.1278 40.766 17.1931C47.5414 18.2104 48.0748 16.4466 48.6674 14.7324" stroke="white" stroke-opacity="0.5" stroke-linecap="round"/>
<path d="M14.2526 17.9619L20.8436 15.7134C21.3786 15.5309 21.9594 15.592 22.4816 15.8086C27.3336 17.8208 37.8487 17.4093 43.8186 15.7444C44.2189 15.6327 44.6433 15.6337 45.0382 15.7634L51.9294 18.0255C54.9906 19.0305 57.1503 21.7738 57.4085 24.9855L60.1418 58.9894C60.2207 59.972 59.5719 60.8657 58.6132 61.0949L52.8839 62.4643H13.7988L8.13671 61.0928C7.19143 60.8639 6.54792 59.988 6.61187 59.0175L8.85296 25.0074C9.06536 21.7841 11.1954 19.0048 14.2526 17.9619Z" fill="#D9D9D9"/>
<path d="M13.7988 62.4643L8.13671 61.0928C7.19143 60.8639 6.54792 59.988 6.61187 59.0175L8.85296 25.0074C9.06536 21.7841 11.1954 19.0048 14.2526 17.9619L20.8436 15.7134C21.3786 15.5309 21.9594 15.592 22.4816 15.8086C27.3336 17.8208 37.8487 17.4093 43.8186 15.7444C44.2189 15.6327 44.6433 15.6337 45.0382 15.7634L51.9294 18.0255C54.9906 19.0305 57.1503 21.7738 57.4085 24.9855L60.1418 58.9894C60.2208 59.972 59.5719 60.8657 58.6132 61.0949L52.8839 62.4643M13.7988 62.4643H52.8839M13.7988 62.4643L15.7767 34.1786M52.8839 62.4643L51.0276 34.1786" stroke="white" stroke-opacity="0.5" stroke-linecap="round"/>
<path fill-rule="evenodd" clip-rule="evenodd" d="M35.7767 10.0057C35.2027 10.3216 34.5703 10.5315 33.9151 10.6273V12.5758C34.038 12.6111 34.1588 12.6546 34.2766 12.7062L55.6542 22.0672C58.282 23.2179 57.3852 26.8259 54.4714 26.8259H11.7163C8.80248 26.8259 7.90573 23.2179 10.5336 22.0672L31.9111 12.7062C32.0289 12.6546 32.1497 12.6111 32.2726 12.5758V9.41423C32.2726 9.28798 32.3846 9.18564 32.5227 9.18564C33.2451 9.1601 34.3601 8.93555 34.8825 8.64807C35.47 8.32474 35.9394 7.84942 36.2314 7.28222C36.5234 6.71502 36.6248 6.08142 36.5229 5.46154C36.4209 4.84166 36.1201 4.26334 35.6585 3.79971C35.1969 3.33608 34.5953 3.00797 33.9297 2.85687C33.2641 2.70577 32.5645 2.73846 31.9192 2.95081C31.2739 3.16316 30.7121 3.54564 30.3046 4.04987C30.0061 4.41927 29.8004 4.84186 29.6989 5.28764C29.6374 5.55824 29.3853 5.77305 29.0833 5.76004L28.4452 5.73255C28.1432 5.71954 27.9069 5.48444 27.9528 5.21126C28.0803 4.45224 28.4076 3.7301 28.91 3.1084C29.5212 2.35205 30.364 1.77834 31.3319 1.45981C32.2998 1.14128 33.3493 1.09224 34.3477 1.3189C35.346 1.54555 36.2485 2.03772 36.9408 2.73316C37.6332 3.4286 38.0844 4.29608 38.2373 5.2259C38.3903 6.15572 38.2382 7.10612 37.8002 7.95692C37.3622 8.80771 36.6581 9.52069 35.7767 10.0057ZM33.567 14.0601L54.9445 23.4211C55.9956 23.8814 55.6369 25.3246 54.4714 25.3246H11.7163C10.5508 25.3246 10.1921 23.8814 11.2432 23.4211L32.6208 14.0601C32.9199 13.9291 33.2678 13.9291 33.567 14.0601Z" fill="black"/>
<path d="M33.0937 22.5054C37.4029 22.5054 41.2171 20.3369 43.5515 17.0079C44.1123 16.2082 45.1116 15.7872 46.0396 16.0919L52.0847 18.0763C55.0674 19.0554 57.2012 21.689 57.548 24.8091C60.2564 49.1709 61.9717 62.4263 58.12 63.032C57.9343 63.0612 57.7425 63.0802 57.5619 63.1325L53.0009 64.4517C52.3614 64.6367 51.7231 64.1568 51.7231 63.4911V62.4642H15.0564V63.4746C15.0564 64.1453 14.4093 64.6259 13.7673 64.4319L9.37181 63.1042C9.26719 63.0726 9.15721 63.0512 9.04961 63.0302L9.02909 63.0262C4.62527 62.1652 6.15288 49.2249 8.68044 24.7896C9.0022 21.6789 11.1019 19.037 14.0617 18.0273L20.0449 15.9861C20.986 15.6651 22.0069 16.095 22.5708 16.914C24.8989 20.296 28.7442 22.5054 33.0937 22.5054Z" fill="#D9D9D9"/>
<path d="M15.0564 62.4642H51.7231M15.0564 62.4642L15.7774 34.1786M15.0564 62.4642V63.4746C15.0564 64.1453 14.4093 64.6258 13.7673 64.4319L9.37181 63.1042C9.26053 63.0706 9.14318 63.0485 9.02909 63.0262C4.62527 62.1652 6.15288 49.2249 8.68044 24.7896C9.0022 21.6789 11.1019 19.037 14.0617 18.0273L20.0449 15.9861C20.986 15.6651 22.0069 16.095 22.5708 16.914C24.8989 20.296 28.7442 22.5054 33.0937 22.5054C37.4029 22.5054 41.2171 20.3369 43.5515 17.0079C44.1123 16.2082 45.1116 15.7872 46.0396 16.0919L52.0847 18.0763C55.0674 19.0554 57.2012 21.689 57.548 24.8091C60.2564 49.1709 61.9717 62.4263 58.12 63.032C57.9343 63.0612 57.7425 63.0802 57.5619 63.1325L53.0009 64.4517C52.3614 64.6367 51.7231 64.1568 51.7231 63.4911V62.4642M51.7231 62.4642L51.0283 34.1786" stroke="white" stroke-opacity="0.5" stroke-linecap="round"/>
<path d="M34.001 22.9824V37.1253" stroke="white" stroke-opacity="0.5" stroke-linecap="round"/>
<path d="M31.5564 22.9824V43.0181" stroke="white" stroke-opacity="0.5" stroke-linecap="round"/>
<path d="M33.3899 22.9822L45.6121 11.7856C48.218 12.1508 49.4276 14.7217 49.8033 16.3603C49.9971 17.2052 49.4701 17.8891 48.6759 18.2366C44.2872 20.1566 40.251 20.8816 33.3899 22.9822Z" fill="#D9D9D9" stroke="white" stroke-opacity="0.5" stroke-linecap="round" stroke-linejoin="round"/>
<path d="M32.1675 22.9822L19.076 11.792C16.5854 12.5815 15.5613 15.2397 15.2063 16.7013C15.0752 17.2409 15.4593 17.892 15.9564 18.1393C22.0538 21.1721 25.0224 20.7947 32.1675 22.9822Z" fill="#D9D9D9" stroke="white" stroke-opacity="0.5" stroke-linecap="round" stroke-linejoin="round"/>
</g>
<defs>
<filter id="filter0_bd_5082_12630" x="-4.26294" y="-8.82129" width="75.1289" height="83.8135" filterUnits="userSpaceOnUse" color-interpolation-filters="sRGB">
<feFlood flood-opacity="0" result="BackgroundImageFix"/>
<feGaussianBlur in="BackgroundImageFix" stdDeviation="5"/>
<feComposite in2="SourceAlpha" operator="in" result="effect1_backgroundBlur_5082_12630"/>
<feColorMatrix in="SourceAlpha" type="matrix" values="0 0 0 0 0 0 0 0 0 0 0 0 0 0 0 0 0 0 127 0" result="hardAlpha"/>
<feOffset dy="1"/>
<feGaussianBlur stdDeviation="1"/>
<feComposite in2="hardAlpha" operator="out"/>
<feColorMatrix type="matrix" values="0 0 0 0 0 0 0 0 0 0 0 0 0 0 0 0 0 0 0.1 0"/>
<feBlend mode="normal" in2="effect1_backgroundBlur_5082_12630" result="effect2_dropShadow_5082_12630"/>
<feBlend mode="normal" in="SourceGraphic" in2="effect2_dropShadow_5082_12630" result="shape"/>
</filter>
</defs>
</svg>
