<svg width="146" height="158" viewBox="0 0 146 158" fill="none" xmlns="http://www.w3.org/2000/svg">
<g filter="url(#filter0_bdd_5082_12577)">
<rect x="16" y="16" width="106" height="118" rx="16" fill="white" fill-opacity="0.4" shape-rendering="crispEdges"/>
<rect x="16.5" y="16.5" width="105" height="117" rx="15.5" stroke="url(#paint0_linear_5082_12577)" stroke-opacity="0.5" shape-rendering="crispEdges"/>
<path d="M61.3569 32.636H62.1489V34.4C62.1489 36.656 60.7689 38.984 59.0769 39.848L58.5009 39.056C60.0489 38.3 61.3569 36.236 61.3569 34.4V32.636ZM61.5369 32.636H62.3289V34.4C62.3289 36.116 63.5529 38.048 65.1249 38.792L64.5609 39.584C62.8449 38.732 61.5369 36.548 61.5369 34.4V32.636ZM58.8849 32.192H64.7289V33.032H58.8849V32.192ZM66.0129 31.088H67.0209V41.936H66.0129V31.088ZM66.7809 35.468H68.7969V36.308H66.7809V35.468ZM73.428 34.268H75.816V35.072H73.428V34.268ZM77.712 31.088H78.66V38.456H77.712V31.088ZM75.564 31.28H76.512V37.484H75.564V31.28ZM74.532 37.82H75.384V38.168C75.384 40.112 73.404 41.516 71.22 41.9L70.836 41.108C72.756 40.808 74.532 39.608 74.532 38.168V37.82ZM74.664 37.82H75.528V38.168C75.528 39.608 77.316 40.808 79.224 41.108L78.84 41.9C76.656 41.516 74.664 40.112 74.664 38.168V37.82ZM73.308 32H74.28C74.28 34.664 73.116 36.8 70.056 38.132L69.564 37.4C72.276 36.248 73.308 34.472 73.308 32.264V32ZM70.068 32H73.656V32.816H70.068V32ZM73.212 34.04V34.736L69.72 35.108L69.564 34.28L73.212 34.04Z" fill="#121212" fill-opacity="0.7"/>
<g filter="url(#filter1_bd_5082_12577)">
<path d="M91.2207 109.127L91.2194 109.163L91.223 109.198L91.6806 113.608C91.6948 113.744 91.6522 113.881 91.5629 113.985L87.8455 118.321H69H50.0842L46.5432 115.805C46.3962 115.701 46.3168 115.525 46.3354 115.346L46.7772 111.089L46.7808 111.054L46.7795 111.019L45.5627 77.668C45.4761 75.2956 46.9215 73.1354 49.1476 72.3103L57.7938 69.1057C57.9606 69.0439 58.1371 69.0122 58.3151 69.0122H79.685C79.8629 69.0122 80.0394 69.0439 80.2063 69.1057L88.8442 72.3073C91.0739 73.1337 92.52 75.2994 92.4287 77.6755L91.2207 109.127Z" fill="white"/>
<path d="M91.2207 109.127L91.2194 109.163L91.223 109.198L91.6806 113.608C91.6948 113.744 91.6522 113.881 91.5629 113.985L87.8455 118.321H69H50.0842L46.5432 115.805C46.3962 115.701 46.3168 115.525 46.3354 115.346L46.7772 111.089L46.7808 111.054L46.7795 111.019L45.5627 77.668C45.4761 75.2956 46.9215 73.1354 49.1476 72.3103L57.7938 69.1057C57.9606 69.0439 58.1371 69.0122 58.3151 69.0122H79.685C79.8629 69.0122 80.0394 69.0439 80.2063 69.1057L88.8442 72.3073C91.0739 73.1337 92.52 75.2994 92.4287 77.6755L91.2207 109.127Z" fill="#BABABA"/>
<path d="M91.2207 109.127L91.2194 109.163L91.223 109.198L91.6806 113.608C91.6948 113.744 91.6522 113.881 91.5629 113.985L87.8455 118.321H69H50.0842L46.5432 115.805C46.3962 115.701 46.3168 115.525 46.3354 115.346L46.7772 111.089L46.7808 111.054L46.7795 111.019L45.5627 77.668C45.4761 75.2956 46.9215 73.1354 49.1476 72.3103L57.7938 69.1057C57.9606 69.0439 58.1371 69.0122 58.3151 69.0122H79.685C79.8629 69.0122 80.0394 69.0439 80.2063 69.1057L88.8442 72.3073C91.0739 73.1337 92.52 75.2994 92.4287 77.6755L91.2207 109.127Z" stroke="#121212" stroke-linecap="round"/>
<path fill-rule="evenodd" clip-rule="evenodd" d="M71.6803 62.9904C71.3565 63.1721 71.0142 63.3193 70.6597 63.4306C70.1871 63.5791 69.8205 63.9902 69.8205 64.4856V65.223C69.8205 65.4513 69.9732 65.6478 70.1816 65.7409L91.5381 75.2752C94.1633 76.4472 93.2675 80.1221 90.3565 80.1221H47.6435C44.7326 80.1221 43.8367 76.4472 46.4619 75.2752L67.8184 65.7409C68.0269 65.6478 68.1796 65.4513 68.1796 65.223V62.388C68.1796 62.2594 68.2914 62.1552 68.4294 62.1552C69.1511 62.1292 70.265 61.9005 70.7869 61.6077C71.3738 61.2783 71.8428 60.7942 72.1345 60.2165C72.4262 59.6388 72.5275 58.9935 72.4256 58.3621C72.3238 57.7308 72.0233 57.1417 71.5621 56.6695C71.101 56.1973 70.5 55.8631 69.8351 55.7092C69.1701 55.5553 68.4712 55.5886 67.8265 55.8049C67.1819 56.0212 66.6206 56.4108 66.2135 56.9243C65.9153 57.3006 65.7098 57.731 65.6084 58.185C65.547 58.4606 65.2951 58.6794 64.9934 58.6662L64.356 58.6382C64.0542 58.6249 63.8182 58.3855 63.8641 58.1072C63.9914 57.3341 64.3184 56.5986 64.8203 55.9654C65.4308 55.1951 66.2728 54.6107 67.2398 54.2863C68.2067 53.9619 69.2552 53.9119 70.2526 54.1428C71.25 54.3736 72.1515 54.8749 72.8432 55.5832C73.5349 56.2915 73.9856 57.1751 74.1384 58.1221C74.2913 59.0692 74.1393 60.0372 73.7017 60.9037C73.2642 61.7703 72.5607 62.4964 71.6803 62.9904ZM69.4727 67.1199L90.8291 76.6542C91.8792 77.123 91.5209 78.593 90.3565 78.593H47.6435C46.4792 78.593 46.1208 77.123 47.1709 76.6542L68.5274 67.1199C68.8262 66.9865 69.1738 66.9865 69.4727 67.1199Z" fill="black"/>
<path d="M45.1667 73.3496L57.9563 68.5122L69 96.135L80.0437 68.5122L93.0952 73.3496L95.8889 112.339L96.3708 115.592C96.4446 116.091 96.1362 116.566 95.6511 116.702L88.0754 118.821H71.4444H49.9246L42.3699 116.708C41.8758 116.569 41.5665 116.08 41.654 115.574L42.2639 112.049L45.1667 73.3496Z" fill="white"/>
<path d="M45.1667 73.3496L57.9563 68.5122L69 96.135L80.0437 68.5122L93.0952 73.3496L95.8889 112.339L96.3708 115.592C96.4446 116.091 96.1362 116.566 95.6511 116.702L88.0754 118.821H71.4444H49.9246L42.3699 116.708C41.8758 116.569 41.5665 116.08 41.654 115.574L42.2639 112.049L45.1667 73.3496Z" fill="black"/>
<path d="M57.9563 68.5122L45.1667 73.3496M57.9563 68.5122L55.0954 77.6772C55.0005 77.9811 55.056 78.312 55.2449 78.5683L71.4444 100.553M57.9563 68.5122L69 96.135M45.1667 73.3496L42.2639 112.049M45.1667 73.3496C47.1669 74.5194 51.1196 78.2856 50.9286 83.9919L49.9246 113.984M49.9246 118.821L42.3699 116.708C41.8758 116.569 41.5665 116.08 41.654 115.574L42.2639 112.049M49.9246 118.821V113.984M49.9246 118.821H71.4444M42.2639 112.049L49.9246 113.984M80.0437 68.5122L93.0952 73.3496M80.0437 68.5122L82.9115 77.6993C83.0025 77.9907 82.9554 78.3077 82.7836 78.5601L69.8144 97.607M80.0437 68.5122L69 96.135M88.0754 118.821L95.6511 116.702C96.1362 116.566 96.4446 116.091 96.3708 115.592L95.8889 112.339M88.0754 118.821V113.984M88.0754 118.821H71.4444M93.0952 73.3496L95.8889 112.339M93.0952 73.3496C91.0209 74.9123 86.912 79.2285 87.0714 83.9919L88.0754 113.984M95.8889 112.339L88.0754 113.984M71.4444 100.553V118.821M71.4444 100.553L69.8144 97.607M69 96.135L69.8144 97.607" stroke="white" stroke-opacity="0.5" stroke-linecap="square"/>
<ellipse cx="69.0001" cy="104.679" rx="1.22222" ry="1.17857" fill="white" fill-opacity="0.5"/>
<ellipse cx="43.9444" cy="114.696" rx="0.611111" ry="0.589286" fill="white" fill-opacity="0.5"/>
<ellipse cx="94.0555" cy="114.696" rx="0.611111" ry="0.589286" fill="white" fill-opacity="0.5"/>
</g>
</g>
<defs>
<filter id="filter0_bdd_5082_12577" x="-4" y="-4" width="150" height="162" filterUnits="userSpaceOnUse" color-interpolation-filters="sRGB">
<feFlood flood-opacity="0" result="BackgroundImageFix"/>
<feGaussianBlur in="BackgroundImageFix" stdDeviation="10"/>
<feComposite in2="SourceAlpha" operator="in" result="effect1_backgroundBlur_5082_12577"/>
<feColorMatrix in="SourceAlpha" type="matrix" values="0 0 0 0 0 0 0 0 0 0 0 0 0 0 0 0 0 0 127 0" result="hardAlpha"/>
<feOffset dx="4" dy="4"/>
<feGaussianBlur stdDeviation="10"/>
<feComposite in2="hardAlpha" operator="out"/>
<feColorMatrix type="matrix" values="0 0 0 0 0 0 0 0 0 0 0 0 0 0 0 0 0 0 0.05 0"/>
<feBlend mode="normal" in2="effect1_backgroundBlur_5082_12577" result="effect2_dropShadow_5082_12577"/>
<feColorMatrix in="SourceAlpha" type="matrix" values="0 0 0 0 0 0 0 0 0 0 0 0 0 0 0 0 0 0 127 0" result="hardAlpha"/>
<feOffset/>
<feGaussianBlur stdDeviation="1"/>
<feComposite in2="hardAlpha" operator="out"/>
<feColorMatrix type="matrix" values="0 0 0 0 0 0 0 0 0 0 0 0 0 0 0 0 0 0 0.05 0"/>
<feBlend mode="normal" in2="effect2_dropShadow_5082_12577" result="effect3_dropShadow_5082_12577"/>
<feBlend mode="normal" in="SourceGraphic" in2="effect3_dropShadow_5082_12577" result="shape"/>
</filter>
<filter id="filter1_bd_5082_12577" x="31.1392" y="44" width="75.7427" height="85.3213" filterUnits="userSpaceOnUse" color-interpolation-filters="sRGB">
<feFlood flood-opacity="0" result="BackgroundImageFix"/>
<feGaussianBlur in="BackgroundImageFix" stdDeviation="5"/>
<feComposite in2="SourceAlpha" operator="in" result="effect1_backgroundBlur_5082_12577"/>
<feColorMatrix in="SourceAlpha" type="matrix" values="0 0 0 0 0 0 0 0 0 0 0 0 0 0 0 0 0 0 127 0" result="hardAlpha"/>
<feOffset dy="1"/>
<feGaussianBlur stdDeviation="1"/>
<feComposite in2="hardAlpha" operator="out"/>
<feColorMatrix type="matrix" values="0 0 0 0 0 0 0 0 0 0 0 0 0 0 0 0 0 0 0.1 0"/>
<feBlend mode="normal" in2="effect1_backgroundBlur_5082_12577" result="effect2_dropShadow_5082_12577"/>
<feBlend mode="normal" in="SourceGraphic" in2="effect2_dropShadow_5082_12577" result="shape"/>
</filter>
<linearGradient id="paint0_linear_5082_12577" x1="28.0455" y1="16" x2="137.125" y2="165.064" gradientUnits="userSpaceOnUse">
<stop stop-color="white"/>
<stop offset="1" stop-color="white" stop-opacity="0"/>
</linearGradient>
</defs>
</svg>
