<svg width="66" height="70" viewBox="0 0 66 70" fill="none" xmlns="http://www.w3.org/2000/svg">
<g filter="url(#filter0_bd_5082_12579)">
<path d="M55.2207 56.1273L55.2194 56.1628L55.223 56.1981L55.6806 60.6079C55.6948 60.7444 55.6522 60.8808 55.5629 60.9849L51.8455 65.3214H33H14.0842L10.5432 62.8053C10.3962 62.7009 10.3168 62.5254 10.3354 62.3461L10.7772 58.0891L10.7808 58.0542L10.7795 58.0192L9.56268 24.668C9.47612 22.2956 10.9215 20.1354 13.1476 19.3103L21.7938 16.1057C21.9606 16.0439 22.1371 16.0122 22.3151 16.0122H43.685C43.8629 16.0122 44.0394 16.0439 44.2063 16.1057L52.8442 19.3073C55.0739 20.1337 56.52 22.2994 56.4287 24.6755L55.2207 56.1273Z" fill="white"/>
<path d="M55.2207 56.1273L55.2194 56.1628L55.223 56.1981L55.6806 60.6079C55.6948 60.7444 55.6522 60.8808 55.5629 60.9849L51.8455 65.3214H33H14.0842L10.5432 62.8053C10.3962 62.7009 10.3168 62.5254 10.3354 62.3461L10.7772 58.0891L10.7808 58.0542L10.7795 58.0192L9.56268 24.668C9.47612 22.2956 10.9215 20.1354 13.1476 19.3103L21.7938 16.1057C21.9606 16.0439 22.1371 16.0122 22.3151 16.0122H43.685C43.8629 16.0122 44.0394 16.0439 44.2063 16.1057L52.8442 19.3073C55.0739 20.1337 56.52 22.2994 56.4287 24.6755L55.2207 56.1273Z" fill="#BABABA"/>
<path d="M55.2207 56.1273L55.2194 56.1628L55.223 56.1981L55.6806 60.6079C55.6948 60.7444 55.6522 60.8808 55.5629 60.9849L51.8455 65.3214H33H14.0842L10.5432 62.8053C10.3962 62.7009 10.3168 62.5254 10.3354 62.3461L10.7772 58.0891L10.7808 58.0542L10.7795 58.0192L9.56268 24.668C9.47612 22.2956 10.9215 20.1354 13.1476 19.3103L21.7938 16.1057C21.9606 16.0439 22.1371 16.0122 22.3151 16.0122H43.685C43.8629 16.0122 44.0394 16.0439 44.2063 16.1057L52.8442 19.3073C55.0739 20.1337 56.52 22.2994 56.4287 24.6755L55.2207 56.1273Z" stroke="#121212" stroke-linecap="round"/>
<path fill-rule="evenodd" clip-rule="evenodd" d="M35.6803 9.99042C35.3565 10.1721 35.0142 10.3193 34.6597 10.4306C34.1871 10.5791 33.8205 10.9902 33.8205 11.4856V12.223C33.8205 12.4513 33.9732 12.6478 34.1816 12.7409L55.5381 22.2752C58.1633 23.4472 57.2675 27.1221 54.3565 27.1221H11.6435C8.73258 27.1221 7.83671 23.4472 10.4619 22.2752L31.8184 12.7409C32.0269 12.6478 32.1796 12.4513 32.1796 12.223V9.38801C32.1796 9.25942 32.2914 9.15518 32.4294 9.15518C33.1511 9.12918 34.265 8.90046 34.7869 8.60767C35.3738 8.27835 35.8428 7.79422 36.1345 7.21652C36.4262 6.63882 36.5275 5.99349 36.4256 5.36213C36.3238 4.73077 36.0233 4.14174 35.5621 3.66953C35.101 3.19732 34.5 2.86313 33.8351 2.70923C33.1701 2.55533 32.4712 2.58863 31.8265 2.80491C31.1819 3.0212 30.6206 3.41076 30.2135 3.92432C29.9153 4.30056 29.7098 4.73098 29.6084 5.18502C29.547 5.46062 29.2951 5.67941 28.9934 5.66616L28.356 5.63816C28.0542 5.62491 27.8182 5.38546 27.8641 5.10722C27.9914 4.33414 28.3184 3.59863 28.8203 2.96542C29.4308 2.19507 30.2728 1.61073 31.2398 1.28631C32.2067 0.961879 33.2552 0.911933 34.2526 1.14278C35.25 1.37363 36.1515 1.87491 36.8432 2.58323C37.5349 3.29155 37.9856 4.17509 38.1384 5.12213C38.2913 6.06917 38.1393 7.03716 37.7017 7.90371C37.2642 8.77026 36.5607 9.49644 35.6803 9.99042ZM33.4727 14.1199L54.8291 23.6542C55.8792 24.123 55.5209 25.593 54.3565 25.593H11.6435C10.4792 25.593 10.1208 24.123 11.1709 23.6542L32.5274 14.1199C32.8262 13.9865 33.1738 13.9865 33.4727 14.1199Z" fill="black"/>
<path d="M9.16667 20.3496L21.9563 15.5122L33 43.135L44.0437 15.5122L57.0952 20.3496L59.8889 59.3392L60.3708 62.5922C60.4446 63.0905 60.1362 63.566 59.6511 63.7017L52.0754 65.8214H35.4444H13.9246L6.36991 63.7076C5.87584 63.5693 5.56653 63.0796 5.654 62.5741L6.26389 59.049L9.16667 20.3496Z" fill="white"/>
<path d="M9.16667 20.3496L21.9563 15.5122L33 43.135L44.0437 15.5122L57.0952 20.3496L59.8889 59.3392L60.3708 62.5922C60.4446 63.0905 60.1362 63.566 59.6511 63.7017L52.0754 65.8214H35.4444H13.9246L6.36991 63.7076C5.87584 63.5693 5.56653 63.0796 5.654 62.5741L6.26389 59.049L9.16667 20.3496Z" fill="black"/>
<path d="M21.9563 15.5122L9.16667 20.3496M21.9563 15.5122L19.0954 24.6772C19.0005 24.9811 19.056 25.312 19.2449 25.5683L35.4444 47.5535M21.9563 15.5122L33 43.135M9.16667 20.3496L6.26389 59.049M9.16667 20.3496C11.1669 21.5194 15.1196 25.2856 14.9286 30.9919L13.9246 60.984M13.9246 65.8214L6.36991 63.7076C5.87584 63.5693 5.56653 63.0796 5.654 62.5741L6.26389 59.049M13.9246 65.8214V60.984M13.9246 65.8214H35.4444M6.26389 59.049L13.9246 60.984M44.0437 15.5122L57.0952 20.3496M44.0437 15.5122L46.9115 24.6993C47.0025 24.9907 46.9554 25.3077 46.7836 25.5601L33.8144 44.607M44.0437 15.5122L33 43.135M52.0754 65.8214L59.6511 63.7017C60.1362 63.566 60.4446 63.0905 60.3708 62.5922L59.8889 59.3392M52.0754 65.8214V60.984M52.0754 65.8214H35.4444M57.0952 20.3496L59.8889 59.3392M57.0952 20.3496C55.0209 21.9123 50.912 26.2285 51.0714 30.9919L52.0754 60.984M59.8889 59.3392L52.0754 60.984M35.4444 47.5535V65.8214M35.4444 47.5535L33.8144 44.607M33 43.135L33.8144 44.607" stroke="white" stroke-opacity="0.5" stroke-linecap="square"/>
<ellipse cx="33.0001" cy="51.6786" rx="1.22222" ry="1.17857" fill="white" fill-opacity="0.5"/>
<ellipse cx="7.94436" cy="61.6962" rx="0.611111" ry="0.589286" fill="white" fill-opacity="0.5"/>
<ellipse cx="58.0554" cy="61.6962" rx="0.611111" ry="0.589286" fill="white" fill-opacity="0.5"/>
</g>
<defs>
<filter id="filter0_bd_5082_12579" x="-4.86084" y="-9" width="75.7427" height="85.3213" filterUnits="userSpaceOnUse" color-interpolation-filters="sRGB">
<feFlood flood-opacity="0" result="BackgroundImageFix"/>
<feGaussianBlur in="BackgroundImageFix" stdDeviation="5"/>
<feComposite in2="SourceAlpha" operator="in" result="effect1_backgroundBlur_5082_12579"/>
<feColorMatrix in="SourceAlpha" type="matrix" values="0 0 0 0 0 0 0 0 0 0 0 0 0 0 0 0 0 0 127 0" result="hardAlpha"/>
<feOffset dy="1"/>
<feGaussianBlur stdDeviation="1"/>
<feComposite in2="hardAlpha" operator="out"/>
<feColorMatrix type="matrix" values="0 0 0 0 0 0 0 0 0 0 0 0 0 0 0 0 0 0 0.1 0"/>
<feBlend mode="normal" in2="effect1_backgroundBlur_5082_12579" result="effect2_dropShadow_5082_12579"/>
<feBlend mode="normal" in="SourceGraphic" in2="effect2_dropShadow_5082_12579" result="shape"/>
</filter>
</defs>
</svg>
