<svg width="68" height="69" viewBox="0 0 68 69" fill="none" xmlns="http://www.w3.org/2000/svg">
<g filter="url(#filter0_bd_5082_12642)">
<path d="M2.73245 40.9385C2.39663 40.2734 2.88003 39.4878 3.62512 39.4878H20.5707C20.9481 39.4878 21.2933 39.7002 21.4634 40.0371L22.4339 41.9594L32.5118 61.92C33.1835 63.2502 32.2167 64.8214 30.7265 64.8214H16.0214C15.2666 64.8214 14.5762 64.3965 14.236 63.7228L2.73245 40.9385Z" fill="#29597D" fill-opacity="0.7"/>
<path d="M3.27907 41.9594H22.4339M22.4339 41.9594L21.4634 40.0371C21.2933 39.7002 20.9481 39.4878 20.5707 39.4878H3.62512C2.88003 39.4878 2.39663 40.2734 2.73245 40.9385L14.236 63.7228C14.5762 64.3965 15.2666 64.8214 16.0214 64.8214H30.7265C32.2167 64.8214 33.1835 63.2502 32.5118 61.92L22.4339 41.9594Z" stroke="white" stroke-opacity="0.5"/>
<path d="M26.4881 42.3892C25.8165 41.059 26.7833 39.4878 28.2734 39.4878H42.9786C43.7333 39.4878 44.4237 39.9127 44.7639 40.5864L55.535 61.92C56.2067 63.2502 55.2399 64.8214 53.7497 64.8214H39.0446C38.2898 64.8214 37.5994 64.3965 37.2592 63.7228L26.4881 42.3892Z" fill="#29597D" fill-opacity="0.7" stroke="white" stroke-opacity="0.5"/>
<g filter="url(#filter1_b_5082_12642)">
<path d="M35.8953 24.0405H16.7906C15.6861 24.0405 14.7906 24.936 14.7906 26.0405V63.8214C14.7906 64.3737 15.2384 64.8214 15.7906 64.8214H33.0748C33.5873 64.8214 34.0168 64.434 34.0695 63.9243L35.8953 46.2788L37.7211 63.9243C37.7738 64.434 38.2033 64.8214 38.7158 64.8214H55.9999C56.5522 64.8214 56.9999 64.3737 56.9999 63.8214V26.0405C56.9999 24.936 56.1045 24.0405 55 24.0405H35.8953Z" fill="#146098" fill-opacity="0.76"/>
<path d="M35.8953 24.0405H16.7906C15.6861 24.0405 14.7906 24.936 14.7906 26.0405V63.8214C14.7906 64.3737 15.2384 64.8214 15.7906 64.8214H33.0748C33.5873 64.8214 34.0168 64.434 34.0695 63.9243L35.8953 46.2788L37.7211 63.9243C37.7738 64.434 38.2033 64.8214 38.7158 64.8214H55.9999C56.5522 64.8214 56.9999 64.3737 56.9999 63.8214V26.0405C56.9999 24.936 56.1045 24.0405 55 24.0405H35.8953Z" stroke="white" stroke-opacity="0.5" stroke-linejoin="round"/>
</g>
<path d="M35.8951 27.1304H38.4533H35.8951ZM38.9533 42.4313C38.9533 43.8121 37.834 44.9313 36.4533 44.9313H35.3951L36.3951 43.9313H36.4533C37.2817 43.9313 37.9533 43.2598 37.9533 42.4313H38.9533ZM35.3951 44.9313V27.1304H36.3951V43.9313L35.3951 44.9313ZM38.9533 27.1304V42.4313C38.9533 43.8121 37.834 44.9313 36.4533 44.9313V43.9313C37.2817 43.9313 37.9533 43.2598 37.9533 42.4313V27.1304H38.9533Z" fill="white" fill-opacity="0.5"/>
<path d="M14.7906 24.0405H56.9999H14.7906ZM56.9999 26.13C56.9999 26.9584 56.3284 27.63 55.4999 27.63H16.2906C15.4622 27.63 14.7906 26.9584 14.7906 26.13C14.7906 26.4061 15.2384 26.63 15.7906 26.63H55.9999C56.5522 26.63 56.9999 26.4061 56.9999 26.13ZM14.7906 27.13V24.0405V27.13ZM56.9999 24.0405V27.13V24.0405Z" fill="white" fill-opacity="0.5"/>
<path fill-rule="evenodd" clip-rule="evenodd" d="M37.9902 9.34559C37.4812 9.63791 36.9203 9.83211 36.3394 9.92074V11.7235C36.4483 11.7562 36.5554 11.7964 36.6599 11.8441L55.6177 18.1479C57.9481 19.2126 57.1528 22.5508 54.5688 22.5508H48.9631V23.8241C48.9631 24.3356 48.5283 24.7501 47.9921 24.7501H47.021C46.4848 24.7501 46.05 24.3356 46.05 23.8241V22.5508H24.6866V23.8241C24.6866 24.3356 24.2518 24.7501 23.7156 24.7501H22.7445C22.2082 24.7501 21.7734 24.3356 21.7734 23.8241V22.5508H16.6533C14.0693 22.5508 13.2741 19.2126 15.6044 18.1479L34.5622 11.8441C34.6002 11.8268 34.6385 11.8104 34.6771 11.795C34.7448 11.7681 34.8134 11.7443 34.8828 11.7235V8.79837C34.8828 8.68154 34.9821 8.58687 35.1045 8.58687C35.7451 8.56324 36.734 8.35548 37.1972 8.08949C37.7182 7.79033 38.1345 7.35055 38.3935 6.82577C38.6524 6.30104 38.7423 5.71481 38.6519 5.14125C38.5615 4.56774 38.2948 4.03267 37.8854 3.60369C37.4761 3.17476 36.9426 2.87119 36.3523 2.73136C35.7621 2.59158 35.1415 2.62182 34.5693 2.81829C33.9972 3.01475 33.4988 3.36862 33.1375 3.83513C32.8728 4.17691 32.6903 4.56791 32.6004 4.98039C32.5458 5.23072 32.3224 5.4295 32.0545 5.41746L31.4887 5.39203C31.2208 5.37999 31.0112 5.16245 31.052 4.90969C31.1651 4.20743 31.4552 3.53931 31.9008 2.96411C32.4428 2.26428 33.1902 1.7335 34.0485 1.43881C34.9068 1.14406 35.8376 1.09873 36.7229 1.30841C37.6083 1.5181 38.4085 1.97348 39.0226 2.61691C39.6366 3.26033 40.0367 4.06297 40.1724 4.92325C40.308 5.78354 40.1731 6.66288 39.7847 7.45003C39.3963 8.23718 38.7717 8.89688 37.9902 9.34559ZM48.9631 21.1618V20.12C48.9631 19.6086 48.5283 19.194 47.9921 19.194H47.021C46.4848 19.194 46.05 19.6086 46.05 20.12V21.1618H24.6866V20.12C24.6866 19.6086 24.2518 19.194 23.7156 19.194H22.7445C22.2082 19.194 21.7734 19.6086 21.7734 20.12V21.1618H16.6533C15.6197 21.1618 15.3016 19.8265 16.2337 19.4007L35.1916 13.0968C35.4567 12.9756 35.7654 12.9756 36.0306 13.0968L54.9884 19.4007C55.9205 19.8265 55.6024 21.1618 54.5688 21.1618H48.9631Z" fill="black"/>
</g>
<defs>
<filter id="filter0_bd_5082_12642" x="-7.87683" y="-8.82129" width="75.3768" height="84.1426" filterUnits="userSpaceOnUse" color-interpolation-filters="sRGB">
<feFlood flood-opacity="0" result="BackgroundImageFix"/>
<feGaussianBlur in="BackgroundImageFix" stdDeviation="5"/>
<feComposite in2="SourceAlpha" operator="in" result="effect1_backgroundBlur_5082_12642"/>
<feColorMatrix in="SourceAlpha" type="matrix" values="0 0 0 0 0 0 0 0 0 0 0 0 0 0 0 0 0 0 127 0" result="hardAlpha"/>
<feOffset dy="1"/>
<feGaussianBlur stdDeviation="1"/>
<feComposite in2="hardAlpha" operator="out"/>
<feColorMatrix type="matrix" values="0 0 0 0 0 0 0 0 0 0 0 0 0 0 0 0 0 0 0.1 0"/>
<feBlend mode="normal" in2="effect1_backgroundBlur_5082_12642" result="effect2_dropShadow_5082_12642"/>
<feBlend mode="normal" in="SourceGraphic" in2="effect2_dropShadow_5082_12642" result="shape"/>
</filter>
<filter id="filter1_b_5082_12642" x="4.29065" y="13.5405" width="63.2094" height="61.7808" filterUnits="userSpaceOnUse" color-interpolation-filters="sRGB">
<feFlood flood-opacity="0" result="BackgroundImageFix"/>
<feGaussianBlur in="BackgroundImageFix" stdDeviation="5"/>
<feComposite in2="SourceAlpha" operator="in" result="effect1_backgroundBlur_5082_12642"/>
<feBlend mode="normal" in="SourceGraphic" in2="effect1_backgroundBlur_5082_12642" result="shape"/>
</filter>
</defs>
</svg>
