<svg width="69" height="70" viewBox="0 0 69 70" fill="none" xmlns="http://www.w3.org/2000/svg">
<g filter="url(#filter0_bd_5082_12589)">
<path d="M4.82799 58.6964C4.39032 48.5041 4.82006 40.857 6.40712 31.1813C7.57822 24.0415 12.2908 17.7583 19.2862 15.9113C20.2351 15.6607 21.2503 15.4091 22.3663 15.1426H45.7509C46.9086 15.4003 47.9567 15.6517 48.9398 15.9113C55.8101 17.7252 60.2688 24.1194 61.2531 31.1567C63.0533 44.0274 63.4873 51.1357 63.2894 58.6964L63.1739 62.921L56.0568 64.0811L54.2544 60.6009V62.921L53.4689 65.8212H14.6485L13.8628 62.921L13.863 60.6009L12.0604 64.0811L4.8279 62.921L4.82799 58.6964Z" fill="white"/>
<path d="M4.82799 58.6964C4.39032 48.5041 4.82006 40.857 6.40712 31.1813C7.57822 24.0415 12.2908 17.7583 19.2862 15.9113C20.2351 15.6607 21.2503 15.4091 22.3663 15.1426H45.7509C46.9086 15.4003 47.9567 15.6517 48.9398 15.9113C55.8101 17.7252 60.2688 24.1194 61.2531 31.1567C63.0533 44.0274 63.4873 51.1357 63.2894 58.6964L63.1739 62.921L56.0568 64.0811L54.2544 60.6009V62.921L53.4689 65.8212H14.6485L13.8628 62.921L13.863 60.6009L12.0604 64.0811L4.8279 62.921L4.82799 58.6964Z" fill="#603E06"/>
<path d="M13.8628 62.921L13.863 60.6009M13.8628 62.921L14.6485 65.8212C27.2102 65.8212 52.5605 65.8212 53.4689 65.8212L54.2544 62.921M13.8628 62.921H54.2544M14.9257 30.3791L13.863 60.6009M4.82799 58.6964C4.39032 48.5041 4.82006 40.857 6.40712 31.1813C7.57822 24.0415 12.2908 17.7583 19.2862 15.9113V15.9113C20.2351 15.6607 21.2503 15.4091 22.3663 15.1426H45.7509C46.9087 15.4003 47.9567 15.6517 48.9398 15.9113V15.9113C55.8101 17.7252 60.2688 24.1194 61.2531 31.1567C63.0533 44.0274 63.4873 51.1357 63.2894 58.6964M4.82799 58.6964L4.8279 62.921L12.0604 64.0811L13.863 60.6009M4.82799 58.6964C8.80231 60.5137 10.6487 60.6135 13.863 60.6009M54.2544 62.921V60.6009M53.1915 30.3791L54.2544 60.6009M63.2894 58.6964L63.1739 62.921L56.0568 64.0811L54.2544 60.6009M63.2894 58.6964C60.208 60.1137 58.172 60.4537 54.2544 60.6009" stroke="white" stroke-opacity="0.5" stroke-linecap="round" stroke-linejoin="round"/>
<path fill-rule="evenodd" clip-rule="evenodd" d="M36.6803 9.99043C36.1068 10.3122 35.475 10.526 34.8205 10.6235V12.6081C34.9432 12.6441 35.0639 12.6883 35.1816 12.7409L56.5381 22.2752C59.1633 23.4472 58.2675 27.1221 55.3565 27.1221H12.6435C9.73258 27.1221 8.83671 23.4472 11.4619 22.2752L32.8184 12.7409C32.9361 12.6883 33.0568 12.6441 33.1796 12.6081V9.38801C33.1796 9.25942 33.2914 9.15518 33.4294 9.15518C34.1511 9.12918 35.265 8.90046 35.7869 8.60767C36.3738 8.27835 36.8428 7.79422 37.1345 7.21652C37.4262 6.63882 37.5275 5.99349 37.4256 5.36213C37.3238 4.73077 37.0233 4.14174 36.5621 3.66953C36.101 3.19732 35.5 2.86313 34.8351 2.70923C34.1701 2.55533 33.4712 2.58863 32.8265 2.80491C32.1819 3.0212 31.6206 3.41076 31.2135 3.92432C30.9153 4.30056 30.7098 4.73098 30.6084 5.18502C30.547 5.46062 30.2951 5.67941 29.9934 5.66616L29.356 5.63816C29.0542 5.62491 28.8182 5.38546 28.8641 5.10722C28.9914 4.33414 29.3184 3.59863 29.8203 2.96542C30.4308 2.19507 31.2728 1.61073 32.2398 1.28631C33.2067 0.961879 34.2552 0.911933 35.2526 1.14278C36.25 1.37363 37.1515 1.87491 37.8432 2.58323C38.5349 3.29155 38.9856 4.17509 39.1384 5.12213C39.2913 6.06917 39.1393 7.03716 38.7017 7.90371C38.2642 8.77026 37.5607 9.49644 36.6803 9.99043ZM34.4727 14.1199L55.8291 23.6542C56.8792 24.123 56.5209 25.593 55.3565 25.593H12.6435C11.4792 25.593 11.1208 24.123 12.1709 23.6542L33.5274 14.1199C33.8262 13.9865 34.1738 13.9865 34.4727 14.1199Z" fill="black"/>
<path d="M4.82788 58.6964C1.34547 57.9933 2.78633 46.7891 6.0768 31.1137C7.56666 24.0162 12.2742 17.7627 19.2861 15.9113C20.235 15.6607 21.2502 15.4091 22.3662 15.1426C24.1398 19.6134 25.0551 22.2791 27.5884 25.2194C28.7122 28.034 28.5866 29.5471 27.5884 32.1797C26.8336 48.4128 27.7296 61.3243 27.5884 62.921V65.8212C21.409 66.3231 18.9318 66.1643 14.6484 65.8212L13.8627 62.921L13.2222 60.6009L12.0603 64.0811C9.25122 64.3345 7.67636 64.3408 4.82779 62.921L4.82788 58.6964Z" fill="white"/>
<path d="M4.82788 58.6964C1.34547 57.9933 2.78633 46.7891 6.0768 31.1137C7.56666 24.0162 12.2742 17.7627 19.2861 15.9113C20.235 15.6607 21.2502 15.4091 22.3662 15.1426C24.1398 19.6134 25.0551 22.2791 27.5884 25.2194C28.7122 28.034 28.5866 29.5471 27.5884 32.1797C26.8336 48.4128 27.7296 61.3243 27.5884 62.921V65.8212C21.409 66.3231 18.9318 66.1643 14.6484 65.8212L13.8627 62.921L13.2222 60.6009L12.0603 64.0811C9.25122 64.3345 7.67636 64.3408 4.82779 62.921L4.82788 58.6964Z" fill="#794C07"/>
<path d="M63.2893 58.6964L63.1738 62.921C60.5948 64.0569 59.0178 64.247 56.0567 64.0811L54.7777 60.6009L54.2543 62.921L53.4688 65.8212C48.1635 66.1972 45.1871 66.2375 39.8816 65.8212V62.921C39.4931 59.4446 40.1453 47.6163 39.8816 32.1797C39.0418 29.3071 38.5163 27.6839 39.8816 25.2194C42.1524 22.7586 43.4417 20.2115 45.7508 15.1426C46.9085 15.4003 47.9566 15.6517 48.9396 15.9113C55.8767 17.7428 60.5396 23.9896 62.0942 30.9939C66.1964 49.4759 67.3709 58.3449 63.2893 58.6964Z" fill="white"/>
<path d="M63.2893 58.6964L63.1738 62.921C60.5948 64.0569 59.0178 64.247 56.0567 64.0811L54.7777 60.6009L54.2543 62.921L53.4688 65.8212C48.1635 66.1972 45.1871 66.2375 39.8816 65.8212V62.921C39.4931 59.4446 40.1453 47.6163 39.8816 32.1797C39.0418 29.3071 38.5163 27.6839 39.8816 25.2194C42.1524 22.7586 43.4417 20.2115 45.7508 15.1426C46.9085 15.4003 47.9566 15.6517 48.9396 15.9113C55.8767 17.7428 60.5396 23.9896 62.0942 30.9939C66.1964 49.4759 67.3709 58.3449 63.2893 58.6964Z" fill="#794C07"/>
<path d="M13.8627 62.921C17.3566 63.3171 18.6297 63.6841 27.5884 62.921M13.8627 62.921L13.2222 60.6009M13.8627 62.921L14.6484 65.8212C18.9318 66.1643 21.409 66.3231 27.5884 65.8212V62.921M14.9256 30.3791C13.5174 44.2363 12.3835 51.3935 13.2222 60.6009M4.82788 58.6964C1.34547 57.9933 2.78633 46.7891 6.0768 31.1137C7.56666 24.0162 12.2742 17.7627 19.2861 15.9113V15.9113M4.82788 58.6964L4.82779 62.921C7.67636 64.3408 9.25122 64.3345 12.0603 64.0811L13.2222 60.6009M4.82788 58.6964C8.80219 60.5137 10.0079 60.6135 13.2222 60.6009M54.2543 62.921C50.5401 63.5452 48.0673 63.7705 39.8816 62.921M54.2543 62.921L54.7777 60.6009M54.2543 62.921L53.4688 65.8212C48.1635 66.1972 45.1871 66.2375 39.8816 65.8212V62.921M53.1914 30.3791C53.9239 40.1594 55.85 45.4436 54.7777 60.6009M63.2893 58.6964L63.1738 62.921C60.5948 64.0569 59.0178 64.247 56.0567 64.0811L54.7777 60.6009M63.2893 58.6964C67.3709 58.3449 66.1964 49.4759 62.0942 30.9939C60.5396 23.9896 55.8767 17.7428 48.9396 15.9113V15.9113M63.2893 58.6964C60.2079 60.1137 58.6953 60.4537 54.7777 60.6009M27.5884 62.921C27.7296 61.3243 26.8336 48.4128 27.5884 32.1797M39.8816 62.921C39.4931 59.4446 40.1453 47.6163 39.8816 32.1797M48.9396 15.9113C47.9566 15.6517 46.9085 15.4003 45.7508 15.1426C43.4417 20.2115 42.1524 22.7586 39.8816 25.2194C38.5163 27.6839 39.0418 29.3071 39.8816 32.1797M48.9396 15.9113C47.0453 21.3791 46.533 24.1501 39.8816 32.1797M27.5884 32.1797C28.5866 29.5471 28.7122 28.034 27.5884 25.2194C25.0551 22.2791 24.1398 19.6134 22.3662 15.1426C21.2502 15.4091 20.235 15.6607 19.2861 15.9113M27.5884 32.1797C21.9848 25.4026 20.4536 21.8892 19.2861 15.9113" stroke="white" stroke-opacity="0.5" stroke-linecap="round" stroke-linejoin="round"/>
</g>
<defs>
<filter id="filter0_bd_5082_12589" x="-7.68481" y="-9" width="84.009" height="85.6406" filterUnits="userSpaceOnUse" color-interpolation-filters="sRGB">
<feFlood flood-opacity="0" result="BackgroundImageFix"/>
<feGaussianBlur in="BackgroundImageFix" stdDeviation="5"/>
<feComposite in2="SourceAlpha" operator="in" result="effect1_backgroundBlur_5082_12589"/>
<feColorMatrix in="SourceAlpha" type="matrix" values="0 0 0 0 0 0 0 0 0 0 0 0 0 0 0 0 0 0 127 0" result="hardAlpha"/>
<feOffset dy="1"/>
<feGaussianBlur stdDeviation="1"/>
<feComposite in2="hardAlpha" operator="out"/>
<feColorMatrix type="matrix" values="0 0 0 0 0 0 0 0 0 0 0 0 0 0 0 0 0 0 0.1 0"/>
<feBlend mode="normal" in2="effect1_backgroundBlur_5082_12589" result="effect2_dropShadow_5082_12589"/>
<feBlend mode="normal" in="SourceGraphic" in2="effect2_dropShadow_5082_12589" result="shape"/>
</filter>
</defs>
</svg>
