<svg width="146" height="158" viewBox="0 0 146 158" fill="none" xmlns="http://www.w3.org/2000/svg">
<g filter="url(#filter0_bdd_5082_12587)">
<rect x="16" y="16" width="106" height="118" rx="16" fill="white" fill-opacity="0.4" shape-rendering="crispEdges"/>
<rect x="16.5" y="16.5" width="105" height="117" rx="15.5" stroke="url(#paint0_linear_5082_12587)" stroke-opacity="0.5" shape-rendering="crispEdges"/>
<path d="M64.4649 33.8H66.8769V34.628H64.4649V33.8ZM66.6009 31.088H67.5969V37.436H66.6009V31.088ZM60.5649 37.964H67.5969V41.792H60.5649V37.964ZM66.6249 38.756H61.5369V40.988H66.6249V38.756ZM61.4409 32.12H62.2569V32.996C62.2569 34.976 61.0329 36.668 59.2209 37.34L58.7049 36.548C60.3249 35.972 61.4409 34.532 61.4409 32.996V32.12ZM61.6329 32.12H62.4369V32.984C62.4369 34.388 63.4929 35.744 65.0649 36.296L64.5609 37.088C62.7969 36.452 61.6329 34.808 61.6329 32.984V32.12ZM59.0169 31.784H64.8129V32.588H59.0169V31.784ZM69.72 32.228H75.708V33.044H69.72V32.228ZM69.504 39.272L69.384 38.42C71.304 38.42 73.896 38.384 76.044 38.132L76.116 38.876C73.92 39.212 71.388 39.272 69.504 39.272ZM70.812 32.864H71.784V38.636H70.812V32.864ZM73.524 32.864H74.496V38.636H73.524V32.864ZM77.424 31.088H78.408V41.936H77.424V31.088ZM75.348 35.168H78.096V35.996H75.348V35.168Z" fill="#121212" fill-opacity="0.7"/>
<g filter="url(#filter1_bd_5082_12587)">
<path d="M39.828 111.696C39.3903 101.504 39.8201 93.857 41.4071 84.1813C42.5782 77.0415 47.2908 70.7583 54.2862 68.9113C55.2351 68.6607 56.2503 68.4091 57.3663 68.1426H80.7509C81.9086 68.4003 82.9567 68.6517 83.9398 68.9113C90.8101 70.7252 95.2688 77.1194 96.2531 84.1567C98.0533 97.0274 98.4873 104.136 98.2894 111.696L98.1739 115.921L91.0568 117.081L89.2544 113.601V115.921L88.4689 118.821H49.6485L48.8628 115.921L48.863 113.601L47.0604 117.081L39.8279 115.921L39.828 111.696Z" fill="white"/>
<path d="M39.828 111.696C39.3903 101.504 39.8201 93.857 41.4071 84.1813C42.5782 77.0415 47.2908 70.7583 54.2862 68.9113C55.2351 68.6607 56.2503 68.4091 57.3663 68.1426H80.7509C81.9086 68.4003 82.9567 68.6517 83.9398 68.9113C90.8101 70.7252 95.2688 77.1194 96.2531 84.1567C98.0533 97.0274 98.4873 104.136 98.2894 111.696L98.1739 115.921L91.0568 117.081L89.2544 113.601V115.921L88.4689 118.821H49.6485L48.8628 115.921L48.863 113.601L47.0604 117.081L39.8279 115.921L39.828 111.696Z" fill="#603E06"/>
<path d="M48.8628 115.921L48.863 113.601M48.8628 115.921L49.6485 118.821C62.2102 118.821 87.5605 118.821 88.4689 118.821L89.2544 115.921M48.8628 115.921H89.2544M49.9257 83.3791L48.863 113.601M39.828 111.696C39.3903 101.504 39.8201 93.857 41.4071 84.1813C42.5782 77.0415 47.2908 70.7583 54.2862 68.9113V68.9113C55.2351 68.6607 56.2503 68.4091 57.3663 68.1426H80.7509C81.9087 68.4003 82.9567 68.6517 83.9398 68.9113V68.9113C90.8101 70.7252 95.2688 77.1194 96.2531 84.1567C98.0533 97.0274 98.4873 104.136 98.2894 111.696M39.828 111.696L39.8279 115.921L47.0604 117.081L48.863 113.601M39.828 111.696C43.8023 113.514 45.6487 113.614 48.863 113.601M89.2544 115.921V113.601M88.1915 83.3791L89.2544 113.601M98.2894 111.696L98.1739 115.921L91.0568 117.081L89.2544 113.601M98.2894 111.696C95.208 113.114 93.172 113.454 89.2544 113.601" stroke="white" stroke-opacity="0.5" stroke-linecap="round" stroke-linejoin="round"/>
<path fill-rule="evenodd" clip-rule="evenodd" d="M71.6803 62.9904C71.1068 63.3122 70.475 63.526 69.8205 63.6235V65.6081C69.9432 65.6441 70.0639 65.6883 70.1816 65.7409L91.5381 75.2752C94.1633 76.4472 93.2675 80.1221 90.3565 80.1221H47.6435C44.7326 80.1221 43.8367 76.4472 46.4619 75.2752L67.8184 65.7409C67.9361 65.6883 68.0568 65.6441 68.1796 65.6081V62.388C68.1796 62.2594 68.2914 62.1552 68.4294 62.1552C69.1511 62.1292 70.265 61.9005 70.7869 61.6077C71.3738 61.2783 71.8428 60.7942 72.1345 60.2165C72.4262 59.6388 72.5275 58.9935 72.4256 58.3621C72.3238 57.7308 72.0233 57.1417 71.5621 56.6695C71.101 56.1973 70.5 55.8631 69.8351 55.7092C69.1701 55.5553 68.4712 55.5886 67.8265 55.8049C67.1819 56.0212 66.6206 56.4108 66.2135 56.9243C65.9153 57.3006 65.7098 57.731 65.6084 58.185C65.547 58.4606 65.2951 58.6794 64.9934 58.6662L64.356 58.6382C64.0542 58.6249 63.8182 58.3855 63.8641 58.1072C63.9914 57.3341 64.3184 56.5986 64.8203 55.9654C65.4308 55.1951 66.2728 54.6107 67.2398 54.2863C68.2067 53.9619 69.2552 53.9119 70.2526 54.1428C71.25 54.3736 72.1515 54.8749 72.8432 55.5832C73.5349 56.2915 73.9856 57.1751 74.1384 58.1221C74.2913 59.0692 74.1393 60.0372 73.7017 60.9037C73.2642 61.7703 72.5607 62.4964 71.6803 62.9904ZM69.4727 67.1199L90.8291 76.6542C91.8792 77.123 91.5209 78.593 90.3565 78.593H47.6435C46.4792 78.593 46.1208 77.123 47.1709 76.6542L68.5274 67.1199C68.8262 66.9865 69.1738 66.9865 69.4727 67.1199Z" fill="black"/>
<path d="M39.8279 111.696C36.3455 110.993 37.7863 99.7891 41.0768 84.1137C42.5667 77.0162 47.2742 70.7627 54.2861 68.9113C55.235 68.6607 56.2502 68.4091 57.3662 68.1426C59.1398 72.6134 60.0551 75.2791 62.5884 78.2194C63.7122 81.034 63.5866 82.5471 62.5884 85.1797C61.8336 101.413 62.7296 114.324 62.5884 115.921V118.821C56.409 119.323 53.9318 119.164 49.6484 118.821L48.8627 115.921L48.2222 113.601L47.0603 117.081C44.2512 117.334 42.6764 117.341 39.8278 115.921L39.8279 111.696Z" fill="white"/>
<path d="M39.8279 111.696C36.3455 110.993 37.7863 99.7891 41.0768 84.1137C42.5667 77.0162 47.2742 70.7627 54.2861 68.9113C55.235 68.6607 56.2502 68.4091 57.3662 68.1426C59.1398 72.6134 60.0551 75.2791 62.5884 78.2194C63.7122 81.034 63.5866 82.5471 62.5884 85.1797C61.8336 101.413 62.7296 114.324 62.5884 115.921V118.821C56.409 119.323 53.9318 119.164 49.6484 118.821L48.8627 115.921L48.2222 113.601L47.0603 117.081C44.2512 117.334 42.6764 117.341 39.8278 115.921L39.8279 111.696Z" fill="#794C07"/>
<path d="M98.2893 111.696L98.1738 115.921C95.5948 117.057 94.0178 117.247 91.0567 117.081L89.7777 113.601L89.2543 115.921L88.4688 118.821C83.1635 119.197 80.1871 119.238 74.8816 118.821V115.921C74.4931 112.445 75.1453 100.616 74.8816 85.1797C74.0418 82.3071 73.5163 80.6839 74.8816 78.2194C77.1524 75.7586 78.4417 73.2115 80.7508 68.1426C81.9085 68.4003 82.9566 68.6517 83.9396 68.9113C90.8767 70.7428 95.5396 76.9896 97.0942 83.9939C101.196 102.476 102.371 111.345 98.2893 111.696Z" fill="white"/>
<path d="M98.2893 111.696L98.1738 115.921C95.5948 117.057 94.0178 117.247 91.0567 117.081L89.7777 113.601L89.2543 115.921L88.4688 118.821C83.1635 119.197 80.1871 119.238 74.8816 118.821V115.921C74.4931 112.445 75.1453 100.616 74.8816 85.1797C74.0418 82.3071 73.5163 80.6839 74.8816 78.2194C77.1524 75.7586 78.4417 73.2115 80.7508 68.1426C81.9085 68.4003 82.9566 68.6517 83.9396 68.9113C90.8767 70.7428 95.5396 76.9896 97.0942 83.9939C101.196 102.476 102.371 111.345 98.2893 111.696Z" fill="#794C07"/>
<path d="M48.8627 115.921C52.3566 116.317 53.6297 116.684 62.5884 115.921M48.8627 115.921L48.2222 113.601M48.8627 115.921L49.6484 118.821C53.9318 119.164 56.409 119.323 62.5884 118.821V115.921M49.9256 83.3791C48.5174 97.2363 47.3835 104.394 48.2222 113.601M39.8279 111.696C36.3455 110.993 37.7863 99.7891 41.0768 84.1137C42.5667 77.0162 47.2742 70.7627 54.2861 68.9113V68.9113M39.8279 111.696L39.8278 115.921C42.6764 117.341 44.2512 117.335 47.0603 117.081L48.2222 113.601M39.8279 111.696C43.8022 113.514 45.0079 113.614 48.2222 113.601M89.2543 115.921C85.5401 116.545 83.0673 116.771 74.8816 115.921M89.2543 115.921L89.7777 113.601M89.2543 115.921L88.4688 118.821C83.1635 119.197 80.1871 119.238 74.8816 118.821V115.921M88.1914 83.3791C88.9239 93.1594 90.85 98.4436 89.7777 113.601M98.2893 111.696L98.1738 115.921C95.5948 117.057 94.0178 117.247 91.0567 117.081L89.7777 113.601M98.2893 111.696C102.371 111.345 101.196 102.476 97.0942 83.9939C95.5396 76.9896 90.8767 70.7428 83.9396 68.9113V68.9113M98.2893 111.696C95.2079 113.114 93.6953 113.454 89.7777 113.601M62.5884 115.921C62.7296 114.324 61.8336 101.413 62.5884 85.1797M74.8816 115.921C74.4931 112.445 75.1453 100.616 74.8816 85.1797M83.9396 68.9113C82.9566 68.6517 81.9085 68.4003 80.7508 68.1426C78.4417 73.2115 77.1524 75.7586 74.8816 78.2194C73.5163 80.6839 74.0418 82.3071 74.8816 85.1797M83.9396 68.9113C82.0453 74.3791 81.533 77.1501 74.8816 85.1797M62.5884 85.1797C63.5866 82.5471 63.7122 81.034 62.5884 78.2194C60.0551 75.2791 59.1398 72.6134 57.3662 68.1426C56.2502 68.4091 55.235 68.6607 54.2861 68.9113M62.5884 85.1797C56.9848 78.4026 55.4536 74.8892 54.2861 68.9113" stroke="white" stroke-opacity="0.5" stroke-linecap="round" stroke-linejoin="round"/>
</g>
</g>
<defs>
<filter id="filter0_bdd_5082_12587" x="-4" y="-4" width="150" height="162" filterUnits="userSpaceOnUse" color-interpolation-filters="sRGB">
<feFlood flood-opacity="0" result="BackgroundImageFix"/>
<feGaussianBlur in="BackgroundImageFix" stdDeviation="10"/>
<feComposite in2="SourceAlpha" operator="in" result="effect1_backgroundBlur_5082_12587"/>
<feColorMatrix in="SourceAlpha" type="matrix" values="0 0 0 0 0 0 0 0 0 0 0 0 0 0 0 0 0 0 127 0" result="hardAlpha"/>
<feOffset dx="4" dy="4"/>
<feGaussianBlur stdDeviation="10"/>
<feComposite in2="hardAlpha" operator="out"/>
<feColorMatrix type="matrix" values="0 0 0 0 0 0 0 0 0 0 0 0 0 0 0 0 0 0 0.05 0"/>
<feBlend mode="normal" in2="effect1_backgroundBlur_5082_12587" result="effect2_dropShadow_5082_12587"/>
<feColorMatrix in="SourceAlpha" type="matrix" values="0 0 0 0 0 0 0 0 0 0 0 0 0 0 0 0 0 0 127 0" result="hardAlpha"/>
<feOffset/>
<feGaussianBlur stdDeviation="1"/>
<feComposite in2="hardAlpha" operator="out"/>
<feColorMatrix type="matrix" values="0 0 0 0 0 0 0 0 0 0 0 0 0 0 0 0 0 0 0.05 0"/>
<feBlend mode="normal" in2="effect2_dropShadow_5082_12587" result="effect3_dropShadow_5082_12587"/>
<feBlend mode="normal" in="SourceGraphic" in2="effect3_dropShadow_5082_12587" result="shape"/>
</filter>
<filter id="filter1_bd_5082_12587" x="27.3152" y="44" width="84.009" height="85.6406" filterUnits="userSpaceOnUse" color-interpolation-filters="sRGB">
<feFlood flood-opacity="0" result="BackgroundImageFix"/>
<feGaussianBlur in="BackgroundImageFix" stdDeviation="5"/>
<feComposite in2="SourceAlpha" operator="in" result="effect1_backgroundBlur_5082_12587"/>
<feColorMatrix in="SourceAlpha" type="matrix" values="0 0 0 0 0 0 0 0 0 0 0 0 0 0 0 0 0 0 127 0" result="hardAlpha"/>
<feOffset dy="1"/>
<feGaussianBlur stdDeviation="1"/>
<feComposite in2="hardAlpha" operator="out"/>
<feColorMatrix type="matrix" values="0 0 0 0 0 0 0 0 0 0 0 0 0 0 0 0 0 0 0.1 0"/>
<feBlend mode="normal" in2="effect1_backgroundBlur_5082_12587" result="effect2_dropShadow_5082_12587"/>
<feBlend mode="normal" in="SourceGraphic" in2="effect2_dropShadow_5082_12587" result="shape"/>
</filter>
<linearGradient id="paint0_linear_5082_12587" x1="28.0455" y1="16" x2="137.125" y2="165.064" gradientUnits="userSpaceOnUse">
<stop stop-color="white"/>
<stop offset="1" stop-color="white" stop-opacity="0"/>
</linearGradient>
</defs>
</svg>
