<svg width="146" height="158" viewBox="0 0 146 158" fill="none" xmlns="http://www.w3.org/2000/svg">
<g filter="url(#filter0_bdd_5581_14077)">
<rect x="16" y="16" width="106" height="118" rx="16" fill="white" fill-opacity="0.4" shape-rendering="crispEdges"/>
<rect x="16.5" y="16.5" width="105" height="117" rx="15.5" stroke="url(#paint0_linear_5581_14077)" stroke-opacity="0.5" shape-rendering="crispEdges"/>
<path d="M66.5649 31.088H67.5609V41.936H66.5649V31.088ZM59.3649 32.144H60.3489V38.864H59.3649V32.144ZM59.3649 38.276H60.2529C61.8969 38.276 63.6129 38.156 65.4489 37.772L65.5689 38.624C63.6849 39.008 61.9689 39.14 60.2529 39.14H59.3649V38.276ZM70.74 36.932H78.192V37.736H70.74V36.932ZM69.48 39.716H79.308V40.544H69.48V39.716ZM70.74 32.012H78.072V32.828H71.748V37.184H70.74V32.012ZM71.424 34.436H77.844V35.228H71.424V34.436Z" fill="#121212" fill-opacity="0.7"/>
<g filter="url(#filter1_bd_5581_14077)">
<path d="M83.5028 115.982H52.9029C52.5353 114.961 52.1753 113.812 51.8432 112.539L45.1782 111.495C44.7783 111.432 44.4545 111.135 44.3669 110.74C42.5285 102.443 43.4387 92.8937 46.2849 78.3716C46.6798 76.3569 47.8527 74.5803 49.5372 73.4065L53.5018 70.6437L60.0111 67.5252C60.4483 67.3157 60.9479 67.2743 61.4168 67.3979C66.4199 68.7165 69.7467 68.697 75.5378 67.3699C76.0047 67.2629 76.4963 67.321 76.922 67.5406L84.0485 71.2176L88.8115 74.6406C90.375 75.7642 91.4877 77.4174 91.91 79.2959C95.3788 94.7267 95.2995 102.167 93.1923 110.754C93.0974 111.141 92.7784 111.433 92.3852 111.496L85.9188 112.539C85.7855 113.125 85.6574 113.694 85.5422 114.264C85.3446 115.244 84.502 115.982 83.5028 115.982Z" fill="#999999"/>
<path d="M52.304 80.9741C49.0231 94.7217 50.0078 105.508 51.8432 112.539M85.2465 80.9741C88.6486 101.007 87.0875 107.406 85.9188 112.539M51.8432 112.539C52.1753 113.812 52.5353 114.961 52.9029 115.982H83.5028C84.502 115.982 85.3446 115.244 85.5422 114.264C85.6574 113.694 85.7855 113.125 85.9188 112.539M51.8432 112.539L45.1782 111.495C44.7783 111.432 44.4545 111.135 44.3669 110.74C42.5285 102.443 43.4387 92.8937 46.2849 78.3716C46.6798 76.3569 47.8527 74.5803 49.5372 73.4065L53.5018 70.6437L60.0111 67.5252C60.4483 67.3157 60.9479 67.2743 61.4168 67.3979C66.4199 68.7165 69.7467 68.697 75.5378 67.3699C76.0047 67.2629 76.4963 67.321 76.922 67.5406L84.0485 71.2176L88.8115 74.6406C90.375 75.7642 91.4877 77.4174 91.91 79.2959C95.3788 94.7267 95.2995 102.167 93.1923 110.754C93.0974 111.141 92.7784 111.433 92.3852 111.496L85.9188 112.539" stroke="white" stroke-opacity="0.5" stroke-linecap="round"/>
<path fill-rule="evenodd" clip-rule="evenodd" d="M71.4144 62.5967C70.8518 62.9044 70.2319 63.1088 69.5898 63.2021V65.0998C69.7102 65.1342 69.8287 65.1765 69.9441 65.2267L88.8014 74.3435C91.3769 75.4642 90.498 78.9781 87.6421 78.9781H49.9082C47.0524 78.9781 46.1735 75.4642 48.749 74.3435L67.6257 65.2267C67.7411 65.1765 67.8595 65.1342 67.98 65.0998V62.0207C67.98 61.8977 68.0897 61.798 68.2251 61.798C68.9331 61.7732 70.0259 61.5545 70.5379 61.2745C71.1137 60.9596 71.5738 60.4967 71.86 59.9443C72.1462 59.3919 72.2456 58.7748 72.1457 58.1711C72.0457 57.5674 71.7509 57.0042 71.2985 56.5526C70.8461 56.1011 70.2565 55.7815 69.6041 55.6344C68.9518 55.4872 68.266 55.5191 67.6336 55.7259C67.0012 55.9327 66.4505 56.3052 66.0511 56.7963C65.7586 57.156 65.5569 57.5676 65.4575 58.0017C65.3972 58.2653 65.1501 58.4745 64.8541 58.4618L64.2287 58.435C63.9327 58.4224 63.7011 58.1934 63.7461 57.9274C63.8711 57.1881 64.1919 56.4848 64.6843 55.8793C65.2833 55.1427 66.1093 54.584 67.0579 54.2738C68.0066 53.9635 69.0352 53.9158 70.0137 54.1365C70.9922 54.3573 71.8767 54.8366 72.5553 55.5139C73.2339 56.1912 73.6761 57.036 73.826 57.9416C73.976 58.8472 73.8269 59.7728 73.3976 60.6014C72.9683 61.43 72.2782 62.1244 71.4144 62.5967ZM69.2486 66.5453L88.1058 75.6621C89.1361 76.1104 88.7845 77.516 87.6421 77.516H49.9082C48.7659 77.516 48.4143 76.1104 49.4445 75.6621L68.3212 66.5453C68.6144 66.4178 68.9554 66.4178 69.2486 66.5453Z" fill="black"/>
<path d="M57.6948 68.4036C58.3793 68.1159 59.101 67.8234 59.863 67.523C60.3885 67.3159 60.9786 67.3427 61.4741 67.6139C61.927 67.8618 62.3967 68.1311 62.875 68.4036C63.5349 68.7794 64.2111 69.1611 64.8822 69.5004C65.4907 69.808 66.095 70.0808 66.6791 70.2827C67.3082 70.5002 67.9138 70.6355 68.476 70.6437C69.0899 70.6526 69.7376 70.5141 70.4014 70.2827C70.981 70.0807 71.573 69.8078 72.1655 69.5004C72.8203 69.1607 73.4758 68.7787 74.1162 68.4036L74.2168 68.3446C74.6606 68.0845 75.0968 67.8289 75.5199 67.5943C75.99 67.3336 76.5488 67.2983 77.0573 67.4727C77.9886 67.792 78.8739 68.0977 79.7169 68.4036C84.8936 70.2818 88.4807 72.1693 91.4003 77.3064C91.6981 77.8303 91.9135 78.3973 92.0569 78.9825C95.0768 91.3021 94.8013 106.404 92.9909 115.982C92.8429 116.765 92.6847 117.511 92.5173 118.215C92.4251 118.603 92.1061 118.893 91.7129 118.957L90.6004 119.136L90.131 119.212L88.8404 119.42L87.8861 119.574L86.5555 119.589C86.0044 119.595 85.5522 119.154 85.5446 118.603L85.524 117.12L85.4556 117.131L85.4743 116.683C85.4806 116.467 85.487 116.195 85.4934 115.902C84.8715 115.962 84.263 116.018 83.6667 116.072C82.8288 116.147 82.0151 116.215 81.2223 116.278C80.3854 116.345 79.5719 116.405 78.7778 116.458C77.943 116.514 77.1296 116.562 76.3334 116.604C75.5016 116.647 74.6885 116.683 73.8889 116.711C73.0614 116.74 72.2485 116.761 71.4445 116.774C70.6223 116.787 69.8095 116.792 69 116.789C68.1838 116.786 67.3711 116.775 66.5556 116.755C65.7455 116.736 64.9327 116.709 64.1112 116.674C63.3066 116.64 62.4936 116.598 61.6667 116.549C60.8665 116.502 60.0532 116.448 59.2216 116.388C58.4252 116.33 57.6121 116.266 56.7778 116.196C55.9835 116.129 55.17 116.057 54.3334 115.98C53.748 115.926 53.1513 115.87 52.542 115.811V117.131V118.499C52.542 119.019 52.1425 119.453 51.6236 119.496L50.3487 119.6L47.7942 119.2L46.2382 118.956C45.8382 118.893 45.5149 118.596 45.4243 118.201C45.262 117.495 45.1045 116.755 44.9536 115.982C43.2109 107.065 42.3428 93.8846 45.1304 79.3172C45.2843 78.513 45.5635 77.7334 45.9994 77.0403C48.457 73.132 51.6075 70.9611 57.6948 68.4036Z" fill="#C58F3D"/>
<path d="M52.304 80.9741C50.1435 92.9895 51.4641 105.444 52.4054 113.518M85.2465 80.9741C87.2689 97.0505 86.1738 106.693 85.5584 113.518M57.6948 68.4036C58.3793 68.1159 59.101 67.8234 59.863 67.523C60.3885 67.3159 60.9786 67.3427 61.4741 67.6139C61.927 67.8618 62.3967 68.1311 62.875 68.4036M57.6948 68.4036C51.6075 70.9611 48.457 73.132 45.9994 77.0403C45.5635 77.7334 45.2843 78.513 45.1304 79.3172C42.3428 93.8846 43.2109 107.065 44.9536 115.982M57.6948 68.4036L60.0906 69.9216M79.7169 68.4036C84.8936 70.2818 88.4807 72.1693 91.4003 77.3064C91.6981 77.8303 91.9135 78.3973 92.0569 78.9825C95.0768 91.3021 94.8014 106.404 92.9909 115.982M79.7169 68.4036C78.8739 68.0977 77.9886 67.792 77.0573 67.4727C76.5488 67.2983 75.99 67.3336 75.5199 67.5943C75.0648 67.8466 74.5947 68.1232 74.1162 68.4036M79.7169 68.4036L77.0164 70.0448M68.476 74.0871L65.6755 73.4605M68.476 74.0871L71.3959 73.4605M68.476 74.0871V70.6437M68.476 70.6437C67.9138 70.6355 67.3082 70.5002 66.6791 70.2827M68.476 70.6437C69.0899 70.6526 69.7376 70.5141 70.4014 70.2827M52.542 117.131L50.1174 116.764M52.542 117.131C52.4977 116.765 52.452 113.918 52.4054 113.518M52.542 117.131V115.811M44.9536 115.982C45.1045 116.755 45.262 117.495 45.4243 118.201C45.5149 118.596 45.8382 118.893 46.2382 118.956L47.7942 119.2M44.9536 115.982L47.5126 116.37M85.4556 117.131L87.1869 116.867L88.1368 116.722M85.4556 117.131C85.4877 116.766 85.5223 113.919 85.5584 113.518M85.4556 117.131L85.507 115.901M92.9909 115.982C92.8429 116.765 92.6847 117.511 92.5173 118.215C92.4251 118.603 92.1061 118.893 91.7129 118.957L90.6004 119.136L90.131 119.212M92.9909 115.982L90.9096 116.3L90.3893 116.379M60.0906 69.9216L62.875 68.4036M60.0906 69.9216L62.875 71.6859M62.875 68.4036C63.5349 68.7794 64.2111 69.1611 64.8822 69.5004M62.875 71.6859L64.8822 69.5004M62.875 71.6859L65.6755 73.4605M64.8822 69.5004C65.4907 69.808 66.095 70.0808 66.6791 70.2827M65.6755 73.4605L66.6791 70.2827M71.3959 73.4605L70.4014 70.2827M71.3959 73.4605L74.3158 71.6859M70.4014 70.2827C70.981 70.0807 71.573 69.8078 72.1655 69.5004M74.3158 71.6859L72.1655 69.5004M74.3158 71.6859L77.0164 70.0448M72.1655 69.5004C72.8203 69.1607 73.4758 68.7787 74.1162 68.4036M77.0164 70.0448L74.1162 68.4036M47.5126 116.37L47.7942 119.2M47.5126 116.37L50.1174 116.764M47.7942 119.2L50.3487 119.6M50.3487 119.6L50.1174 116.764M50.3487 119.6L51.6236 119.496C52.1425 119.453 52.542 119.019 52.542 118.499V115.811M87.8861 119.574L88.8404 119.42L90.131 119.212M87.8861 119.574L88.1368 116.722M87.8861 119.574L86.5555 119.589C86.0044 119.595 85.5522 119.154 85.5446 118.603L85.507 115.901M88.1368 116.722L89.0867 116.577L90.3893 116.379M90.131 119.212L90.3893 116.379M85.5584 113.518C84.9146 113.567 84.2844 113.613 83.6667 113.658M52.4054 113.518C53.0619 113.573 53.704 113.624 54.3334 113.673M52.542 115.811C53.1513 115.87 53.748 115.926 54.3334 115.98M85.507 115.901C84.8804 115.961 84.2673 116.018 83.6667 116.072M83.6667 116.072V113.658M83.6667 116.072C82.8288 116.147 82.0151 116.215 81.2223 116.278M83.6667 113.658C82.8303 113.718 82.0167 113.774 81.2223 113.826M81.2223 113.826V116.278M81.2223 113.826C80.3875 113.881 79.574 113.93 78.7778 113.976M81.2223 116.278C80.3854 116.345 79.5719 116.405 78.7778 116.458M78.7778 113.976V116.458M78.7778 113.976C77.9456 114.023 77.1322 114.065 76.3334 114.102M78.7778 116.458C77.943 116.514 77.1296 116.562 76.3334 116.604M76.3334 114.102V116.604M76.3334 114.102C75.5047 114.14 74.6916 114.172 73.8889 114.199M76.3334 116.604C75.5016 116.647 74.6885 116.683 73.8889 116.711M73.8889 114.199V116.711M73.8889 114.199C73.0649 114.226 72.2519 114.247 71.4445 114.262M73.8889 116.711C73.0614 116.74 72.2485 116.761 71.4445 116.774M71.4445 114.262V116.774M71.4445 114.262C70.6258 114.277 69.8129 114.286 69 114.288M71.4445 116.774C70.6223 116.787 69.8095 116.792 69 116.789M69 114.288V116.789M69 114.288C68.187 114.29 67.3741 114.286 66.5556 114.274M69 116.789C68.1838 116.786 67.3711 116.775 66.5556 116.755M66.5556 114.274V116.755M66.5556 114.274C65.7481 114.263 64.9351 114.245 64.1112 114.221M66.5556 116.755C65.7455 116.736 64.9327 116.709 64.1112 116.674M64.1112 114.221V116.674M64.1112 114.221C63.3084 114.197 62.4953 114.167 61.6667 114.13M64.1112 116.674C63.3066 116.64 62.4936 116.598 61.6667 116.549M61.6667 114.13V116.549M61.6667 114.13C60.8677 114.095 60.0544 114.053 59.2223 114.005M61.6667 116.549C60.8665 116.502 60.0532 116.448 59.2216 116.388M59.2223 114.005L59.2216 116.388M59.2223 114.005C58.426 113.96 57.6125 113.909 56.7778 113.852M59.2216 116.388C58.4252 116.33 57.6121 116.266 56.7778 116.196M56.7778 113.852V116.196M56.7778 113.852C55.9834 113.797 55.1697 113.738 54.3334 113.673M56.7778 116.196C55.9835 116.129 55.17 116.057 54.3334 115.98M54.3334 113.673V115.98" stroke="white" stroke-opacity="0.5" stroke-linecap="round" stroke-linejoin="round"/>
</g>
</g>
<defs>
<filter id="filter0_bdd_5581_14077" x="-4" y="-4" width="150" height="162" filterUnits="userSpaceOnUse" color-interpolation-filters="sRGB">
<feFlood flood-opacity="0" result="BackgroundImageFix"/>
<feGaussianBlur in="BackgroundImageFix" stdDeviation="10"/>
<feComposite in2="SourceAlpha" operator="in" result="effect1_backgroundBlur_5581_14077"/>
<feColorMatrix in="SourceAlpha" type="matrix" values="0 0 0 0 0 0 0 0 0 0 0 0 0 0 0 0 0 0 127 0" result="hardAlpha"/>
<feOffset dx="4" dy="4"/>
<feGaussianBlur stdDeviation="10"/>
<feComposite in2="hardAlpha" operator="out"/>
<feColorMatrix type="matrix" values="0 0 0 0 0 0 0 0 0 0 0 0 0 0 0 0 0 0 0.05 0"/>
<feBlend mode="normal" in2="effect1_backgroundBlur_5581_14077" result="effect2_dropShadow_5581_14077"/>
<feColorMatrix in="SourceAlpha" type="matrix" values="0 0 0 0 0 0 0 0 0 0 0 0 0 0 0 0 0 0 127 0" result="hardAlpha"/>
<feOffset/>
<feGaussianBlur stdDeviation="1"/>
<feComposite in2="hardAlpha" operator="out"/>
<feColorMatrix type="matrix" values="0 0 0 0 0 0 0 0 0 0 0 0 0 0 0 0 0 0 0.05 0"/>
<feBlend mode="normal" in2="effect2_dropShadow_5581_14077" result="effect3_dropShadow_5581_14077"/>
<feBlend mode="normal" in="SourceGraphic" in2="effect3_dropShadow_5581_14077" result="shape"/>
</filter>
<filter id="filter1_bd_5581_14077" x="32.8334" y="44" width="72.3334" height="86.1001" filterUnits="userSpaceOnUse" color-interpolation-filters="sRGB">
<feFlood flood-opacity="0" result="BackgroundImageFix"/>
<feGaussianBlur in="BackgroundImageFix" stdDeviation="5"/>
<feComposite in2="SourceAlpha" operator="in" result="effect1_backgroundBlur_5581_14077"/>
<feColorMatrix in="SourceAlpha" type="matrix" values="0 0 0 0 0 0 0 0 0 0 0 0 0 0 0 0 0 0 127 0" result="hardAlpha"/>
<feOffset dy="1"/>
<feGaussianBlur stdDeviation="1"/>
<feComposite in2="hardAlpha" operator="out"/>
<feColorMatrix type="matrix" values="0 0 0 0 0 0 0 0 0 0 0 0 0 0 0 0 0 0 0.1 0"/>
<feBlend mode="normal" in2="effect1_backgroundBlur_5581_14077" result="effect2_dropShadow_5581_14077"/>
<feBlend mode="normal" in="SourceGraphic" in2="effect2_dropShadow_5581_14077" result="shape"/>
</filter>
<linearGradient id="paint0_linear_5581_14077" x1="28.0455" y1="16" x2="137.125" y2="165.064" gradientUnits="userSpaceOnUse">
<stop stop-color="white"/>
<stop offset="1" stop-color="white" stop-opacity="0"/>
</linearGradient>
</defs>
</svg>
