<svg width="66" height="71" viewBox="0 0 66 71" fill="none" xmlns="http://www.w3.org/2000/svg">
<g filter="url(#filter0_bd_5082_12713)">
<path d="M47.5027 62.9824H16.9028C16.5352 61.9608 16.1752 60.8115 15.8431 59.5393L9.17812 58.495C8.77821 58.4324 8.45435 58.1354 8.36678 57.7402C6.52838 49.4429 7.4386 39.8937 10.2848 25.3716C10.6796 23.3569 11.8526 21.5803 13.537 20.4065L17.5017 17.6437L24.011 14.5252C24.4482 14.3157 24.9478 14.2743 25.4167 14.3979C30.4198 15.7165 33.7466 15.697 39.5377 14.3699C40.0046 14.2629 40.4962 14.321 40.9219 14.5406L48.0483 18.2176L52.8114 21.6406C54.3749 22.7642 55.4876 24.4174 55.9099 26.2959C59.3787 41.7267 59.2993 49.1671 57.1922 57.7541C57.0973 58.1409 56.7783 58.4325 56.3851 58.496L49.9187 59.5393C49.7854 60.1247 49.6572 60.6936 49.5421 61.2644C49.3445 62.2438 48.5019 62.9824 47.5027 62.9824Z" fill="#999999"/>
<path d="M16.3039 27.9741C13.023 41.7217 14.0077 52.5083 15.8431 59.5393M49.2464 27.9741C52.6485 48.0071 51.0874 54.4064 49.9187 59.5393M15.8431 59.5393C16.1752 60.8115 16.5352 61.9608 16.9028 62.9824H47.5027C48.5019 62.9824 49.3445 62.2438 49.5421 61.2644C49.6572 60.6936 49.7854 60.1247 49.9187 59.5393M15.8431 59.5393L9.17812 58.495C8.77821 58.4324 8.45435 58.1354 8.36678 57.7402C6.52838 49.4429 7.4386 39.8937 10.2848 25.3716C10.6796 23.3569 11.8526 21.5803 13.537 20.4065L17.5017 17.6437L24.011 14.5252C24.4482 14.3157 24.9478 14.2743 25.4167 14.3979C30.4198 15.7165 33.7466 15.697 39.5377 14.3699C40.0046 14.2629 40.4962 14.321 40.9219 14.5406L48.0483 18.2176L52.8114 21.6406C54.3749 22.7642 55.4876 24.4174 55.9099 26.2959C59.3786 41.7267 59.2993 49.1671 57.1922 57.7541C57.0973 58.1409 56.7783 58.4325 56.3851 58.496L49.9187 59.5393" stroke="white" stroke-opacity="0.5" stroke-linecap="round"/>
<path fill-rule="evenodd" clip-rule="evenodd" d="M35.4143 9.59671C34.8516 9.90438 34.2318 10.1088 33.5897 10.2021V12.0998C33.7101 12.1342 33.8285 12.1765 33.944 12.2267L52.8012 21.3435C55.3768 22.4642 54.4979 25.9781 51.642 25.9781H13.9081C11.0522 25.9781 10.1733 22.4642 12.7489 21.3435L31.6255 12.2267C31.741 12.1765 31.8594 12.1342 31.9798 12.0998V9.02068C31.9798 8.89772 32.0896 8.79805 32.225 8.79805C32.933 8.77318 34.0258 8.55448 34.5378 8.27451C35.1136 7.95961 35.5737 7.49669 35.8599 6.94429C36.1461 6.39188 36.2455 5.77481 36.1455 5.1711C36.0456 4.56739 35.7508 4.00416 35.2984 3.55262C34.846 3.10109 34.2563 2.78154 33.604 2.63438C32.9516 2.48722 32.2659 2.51906 31.6335 2.72587C31.001 2.93268 30.4503 3.30518 30.051 3.79626C29.7585 4.15602 29.5568 4.56759 29.4574 5.00174C29.397 5.26528 29.15 5.47449 28.854 5.46182L28.2286 5.43505C27.9326 5.42237 27.701 5.1934 27.746 4.92735C27.871 4.18813 28.1918 3.48483 28.6841 2.87935C29.2831 2.14273 30.1092 1.58399 31.0578 1.27377C32.0065 0.963548 33.0351 0.915789 34.0136 1.13653C34.9921 1.35727 35.8766 1.8366 36.5552 2.5139C37.2338 3.19119 37.676 4.03604 37.8259 4.94161C37.9758 5.84717 37.8267 6.77278 37.3975 7.60138C36.9682 8.42998 36.278 9.12436 35.4143 9.59671ZM33.2484 13.5453L52.1057 22.6621C53.1359 23.1104 52.7844 24.516 51.642 24.516H13.9081C12.7658 24.516 12.4142 23.1104 13.4444 22.6621L32.3211 13.5453C32.6142 13.4178 32.9553 13.4178 33.2484 13.5453Z" fill="black"/>
<path d="M21.6947 15.4036C22.3792 15.1159 23.1009 14.8234 23.8629 14.523C24.3884 14.3159 24.9784 14.3427 25.474 14.6139C25.9269 14.8618 26.3966 15.1311 26.8749 15.4036C27.5347 15.7794 28.211 16.1611 28.8821 16.5004C29.4906 16.808 30.0949 17.0808 30.679 17.2827C31.3081 17.5002 31.9137 17.6355 32.4758 17.6437C33.0898 17.6526 33.7375 17.5141 34.4012 17.2827C34.9809 17.0807 35.5728 16.8078 36.1653 16.5004C36.8202 16.1607 37.4757 15.7787 38.116 15.4036L38.2167 15.3446C38.6605 15.0845 39.0966 14.8289 39.5197 14.5943C39.9899 14.3336 40.5487 14.2983 41.0572 14.4727C41.9885 14.792 42.8737 15.0977 43.7168 15.4036C48.8935 17.2818 52.4805 19.1693 55.4002 24.3064C55.698 24.8303 55.9134 25.3973 56.0568 25.9825C59.0767 38.3021 58.8012 53.4037 56.9908 62.9824C56.8428 63.7652 56.6846 64.511 56.5171 65.2155C56.425 65.603 56.1059 65.8934 55.7128 65.9568L54.6003 66.1363L54.1309 66.2121L52.8403 66.4203L51.886 66.5743L50.5554 66.5889C50.0042 66.595 49.5521 66.154 49.5444 65.6029L49.5238 64.1202L49.4555 64.1306L49.4742 63.683C49.4805 63.4671 49.4868 63.1954 49.4933 62.902C48.8714 62.9616 48.2629 63.0181 47.6666 63.0715C46.8287 63.1466 46.015 63.2155 45.2221 63.2784C44.3853 63.3448 43.5718 63.4046 42.7777 63.4577C41.9428 63.5136 41.1295 63.5623 40.3333 63.6039C39.5015 63.6473 38.6883 63.6829 37.8888 63.711C37.0613 63.74 36.2484 63.761 35.4444 63.774C34.6222 63.7873 33.8094 63.7923 32.9999 63.7892C32.1837 63.7861 31.371 63.7747 30.5555 63.7553C29.7453 63.7361 28.9325 63.7089 28.111 63.674C27.3065 63.6399 26.4935 63.5983 25.6666 63.5495C24.8664 63.5023 24.053 63.4483 23.2214 63.3878C22.4251 63.3298 21.612 63.2657 20.7777 63.1958C19.9834 63.1293 19.1699 63.0574 18.3333 62.9803C17.7479 62.9263 17.1512 62.8699 16.5419 62.8109V64.1306V65.4989C16.5419 66.0195 16.1424 66.453 15.6235 66.4955L14.3486 66.5999L11.7941 66.1997L10.238 65.9559C9.83812 65.8932 9.51474 65.5958 9.42413 65.2013C9.26189 64.4949 9.10441 63.7546 8.95349 62.9824C7.21073 54.0653 6.34264 40.8846 9.13032 26.3172C9.2842 25.513 9.56341 24.7334 9.99923 24.0403C12.4568 20.132 15.6074 17.9611 21.6947 15.4036Z" fill="#C58F3D"/>
<path d="M16.3039 27.9741C14.1434 39.9895 15.464 52.4443 16.4053 60.5178M49.2463 27.9741C51.2688 44.0505 50.1737 53.6932 49.5583 60.5178M21.6947 15.4036C22.3792 15.1159 23.1009 14.8234 23.8629 14.523C24.3884 14.3159 24.9784 14.3427 25.474 14.6139C25.9269 14.8618 26.3966 15.1311 26.8749 15.4036M21.6947 15.4036C15.6074 17.9611 12.4568 20.132 9.99923 24.0403C9.56341 24.7334 9.2842 25.513 9.13032 26.3172C6.34264 40.8846 7.21073 54.0653 8.95349 62.9824M21.6947 15.4036L24.0905 16.9216M43.7168 15.4036C48.8935 17.2818 52.4805 19.1693 55.4002 24.3064C55.698 24.8303 55.9134 25.3973 56.0568 25.9825C59.0767 38.3021 58.8012 53.4037 56.9908 62.9824M43.7168 15.4036C42.8737 15.0977 41.9885 14.792 41.0572 14.4727C40.5487 14.2983 39.9899 14.3336 39.5197 14.5943C39.0647 14.8466 38.5946 15.1232 38.116 15.4036M43.7168 15.4036L41.0162 17.0448M32.4758 21.0871L29.6754 20.4605M32.4758 21.0871L35.3958 20.4605M32.4758 21.0871V17.6437M32.4758 17.6437C31.9137 17.6355 31.3081 17.5002 30.679 17.2827M32.4758 17.6437C33.0898 17.6526 33.7375 17.5141 34.4012 17.2827M16.5419 64.1306L14.1173 63.7637M16.5419 64.1306C16.4976 63.7655 16.4519 60.9177 16.4053 60.5178M16.5419 64.1306V62.8109M8.95349 62.9824C9.10441 63.7546 9.26189 64.4949 9.42413 65.2013C9.51474 65.5958 9.83812 65.8932 10.238 65.9559L11.7941 66.1997M8.95349 62.9824L11.5125 63.3696M49.4555 64.1306L51.1867 63.8668L52.1367 63.7221M49.4555 64.1306C49.4876 63.7663 49.5221 60.9189 49.5583 60.5178M49.4555 64.1306L49.5069 62.9007M56.9908 62.9824C56.8428 63.7652 56.6846 64.511 56.5171 65.2155C56.425 65.603 56.1059 65.8934 55.7128 65.9568L54.6003 66.1363L54.1309 66.2121M56.9908 62.9824L54.9095 63.2995L54.3892 63.3788M24.0905 16.9216L26.8749 15.4036M24.0905 16.9216L26.8749 18.6859M26.8749 15.4036C27.5347 15.7794 28.211 16.1611 28.8821 16.5004M26.8749 18.6859L28.8821 16.5004M26.8749 18.6859L29.6754 20.4605M28.8821 16.5004C29.4906 16.808 30.0949 17.0808 30.679 17.2827M29.6754 20.4605L30.679 17.2827M35.3958 20.4605L34.4012 17.2827M35.3958 20.4605L38.3157 18.6859M34.4012 17.2827C34.9809 17.0807 35.5728 16.8078 36.1653 16.5004M38.3157 18.6859L36.1653 16.5004M38.3157 18.6859L41.0162 17.0448M36.1653 16.5004C36.8202 16.1607 37.4757 15.7787 38.116 15.4036M41.0162 17.0448L38.116 15.4036M11.5125 63.3696L11.7941 66.1997M11.5125 63.3696L14.1173 63.7637M11.7941 66.1997L14.3486 66.5999M14.3486 66.5999L14.1173 63.7637M14.3486 66.5999L15.6235 66.4955C16.1424 66.453 16.5419 66.0195 16.5419 65.4989V62.8109M51.886 66.5743L52.8403 66.4203L54.1309 66.2121M51.886 66.5743L52.1367 63.7221M51.886 66.5743L50.5554 66.5889C50.0042 66.595 49.5521 66.154 49.5444 65.6029L49.5069 62.9007M52.1367 63.7221L53.0866 63.5773L54.3892 63.3788M54.1309 66.2121L54.3892 63.3788M49.5583 60.5178C48.9144 60.5667 48.2843 60.6134 47.6666 60.6578M16.4053 60.5178C17.0617 60.5726 17.7039 60.6244 18.3333 60.6731M16.5419 62.8109C17.1512 62.8699 17.7479 62.9263 18.3333 62.9803M49.5069 62.9007C48.8803 62.9608 48.2672 63.0177 47.6666 63.0715M47.6666 63.0715V60.6578M47.6666 63.0715C46.8287 63.1466 46.015 63.2155 45.2221 63.2784M47.6666 60.6578C46.8302 60.718 46.0165 60.7741 45.2221 60.826M45.2221 60.826V63.2784M45.2221 60.826C44.3873 60.8805 43.5739 60.9304 42.7777 60.9756M45.2221 63.2784C44.3853 63.3448 43.5718 63.4046 42.7777 63.4577M42.7777 60.9756V63.4577M42.7777 60.9756C41.9454 61.0228 41.1321 61.0649 40.3333 61.1016M42.7777 63.4577C41.9428 63.5136 41.1295 63.5623 40.3333 63.6039M40.3333 61.1016V63.6039M40.3333 61.1016C39.5046 61.1397 38.6914 61.1722 37.8888 61.1988M40.3333 63.6039C39.5015 63.6473 38.6883 63.6829 37.8888 63.711M37.8888 61.1988V63.711M37.8888 61.1988C37.0647 61.2261 36.2517 61.2473 35.4444 61.2622M37.8888 63.711C37.0613 63.74 36.2484 63.761 35.4444 63.774M35.4444 61.2622V63.774M35.4444 61.2622C34.6257 61.2773 33.8128 61.286 32.9999 61.288M35.4444 63.774C34.6222 63.7873 33.8094 63.7923 32.9999 63.7892M32.9999 61.288V63.7892M32.9999 61.288C32.1869 61.2901 31.374 61.2855 30.5555 61.2742M32.9999 63.7892C32.1837 63.7861 31.371 63.7747 30.5555 63.7553M30.5555 61.2742V63.7553M30.5555 61.2742C29.7479 61.263 28.9349 61.2453 28.111 61.2208M30.5555 63.7553C29.7453 63.7361 28.9325 63.7089 28.111 63.674M28.111 61.2208V63.674M28.111 61.2208C27.3083 61.197 26.4951 61.1668 25.6666 61.13M28.111 63.674C27.3065 63.6399 26.4935 63.5983 25.6666 63.5495M25.6666 61.13V63.5495M25.6666 61.13C24.8676 61.0946 24.0543 61.0531 23.2221 61.0055M25.6666 63.5495C24.8664 63.5023 24.053 63.4483 23.2214 63.3878M23.2221 61.0055L23.2214 63.3878M23.2221 61.0055C22.4259 60.9599 21.6124 60.9086 20.7777 60.8516M23.2214 63.3878C22.4251 63.3298 21.612 63.2657 20.7777 63.1958M20.7777 60.8516V63.1958M20.7777 60.8516C19.9833 60.7974 19.1696 60.7379 18.3333 60.6731M20.7777 63.1958C19.9834 63.1293 19.1699 63.0574 18.3333 62.9803M18.3333 60.6731V62.9803" stroke="white" stroke-opacity="0.5" stroke-linecap="round" stroke-linejoin="round"/>
</g>
<defs>
<filter id="filter0_bd_5082_12713" x="-3.16675" y="-9" width="72.3333" height="86.1001" filterUnits="userSpaceOnUse" color-interpolation-filters="sRGB">
<feFlood flood-opacity="0" result="BackgroundImageFix"/>
<feGaussianBlur in="BackgroundImageFix" stdDeviation="5"/>
<feComposite in2="SourceAlpha" operator="in" result="effect1_backgroundBlur_5082_12713"/>
<feColorMatrix in="SourceAlpha" type="matrix" values="0 0 0 0 0 0 0 0 0 0 0 0 0 0 0 0 0 0 127 0" result="hardAlpha"/>
<feOffset dy="1"/>
<feGaussianBlur stdDeviation="1"/>
<feComposite in2="hardAlpha" operator="out"/>
<feColorMatrix type="matrix" values="0 0 0 0 0 0 0 0 0 0 0 0 0 0 0 0 0 0 0.1 0"/>
<feBlend mode="normal" in2="effect1_backgroundBlur_5082_12713" result="effect2_dropShadow_5082_12713"/>
<feBlend mode="normal" in="SourceGraphic" in2="effect2_dropShadow_5082_12713" result="shape"/>
</filter>
</defs>
</svg>
