<svg width="146" height="158" viewBox="0 0 146 158" fill="none" xmlns="http://www.w3.org/2000/svg">
<g filter="url(#filter0_bdd_5082_12594)">
<rect x="16" y="16" width="106" height="118" rx="16" fill="white" fill-opacity="0.4" shape-rendering="crispEdges"/>
<rect x="16.5" y="16.5" width="105" height="117" rx="15.5" stroke="url(#paint0_linear_5082_12594)" stroke-opacity="0.5" shape-rendering="crispEdges"/>
<path d="M59.3916 31.076H60.3996V41.936H59.3916V31.076ZM60.1236 35.48H62.1276V36.308H60.1236V35.48ZM56.6196 32.252H57.5916C57.5916 35.336 56.1756 38.12 52.6716 39.884L52.1196 39.116C55.1196 37.592 56.6196 35.276 56.6196 32.408V32.252ZM52.6236 32.252H57.1356V33.068H52.6236V32.252ZM67.2627 36.788H68.2467V38.684H67.2627V36.788ZM67.1067 31.952H67.9947V32.276C67.9947 34.028 66.0027 35.228 63.7587 35.504L63.3987 34.724C65.3427 34.496 67.1067 33.512 67.1067 32.276V31.952ZM67.5267 31.952H68.4027V32.276C68.4027 33.512 70.1667 34.508 72.1107 34.724L71.7507 35.504C69.5067 35.228 67.5267 34.028 67.5267 32.276V31.952ZM63.7467 31.532H71.7747V32.336H63.7467V31.532ZM62.8467 36.188H72.6867V37.004H62.8467V36.188ZM63.9387 38.42H71.4387V41.936H70.4427V39.224H63.9387V38.42ZM76.0893 36.452H85.8933V37.244H76.0893V36.452ZM80.4933 37.976H81.3453V38.324C81.3453 40.256 79.4493 41.528 77.2413 41.9L76.8453 41.12C78.8253 40.832 80.4933 39.752 80.4933 38.324V37.976ZM80.6493 37.976H81.5013V38.324C81.5013 39.752 83.1573 40.832 85.1373 41.12L84.7413 41.9C82.5333 41.528 80.6493 40.256 80.6493 38.324V37.976ZM80.4933 35.096H81.4773V36.8H80.4933V35.096ZM80.9973 31.304C83.3373 31.304 84.8133 32.072 84.8133 33.356C84.8133 34.64 83.3373 35.408 80.9973 35.408C78.6453 35.408 77.1813 34.64 77.1813 33.356C77.1813 32.072 78.6453 31.304 80.9973 31.304ZM80.9973 32.096C79.2693 32.096 78.2013 32.564 78.2013 33.356C78.2013 34.148 79.2693 34.616 80.9973 34.616C82.7133 34.616 83.7933 34.148 83.7933 33.356C83.7933 32.564 82.7133 32.096 80.9973 32.096Z" fill="#121212" fill-opacity="0.7"/>
<g filter="url(#filter1_bd_5082_12594)">
<path d="M48.4528 72.0351L57.62 68.6374C57.8425 68.5549 58.0778 68.5127 58.3151 68.5127H79.685C79.9222 68.5127 80.1576 68.5549 80.38 68.6374L89.5472 72.0351C91.715 72.8386 93.2284 74.8161 93.4374 77.1185L96.6092 112.049L97.0185 115.994C97.0712 116.502 96.7326 116.968 96.2332 117.075L88.0754 118.822H69H49.9246L41.7668 117.075C41.2674 116.968 40.9289 116.502 40.9816 115.994L41.3909 112.049L44.5626 77.1185C44.7717 74.8161 46.285 72.8386 48.4528 72.0351Z" fill="white"/>
<path d="M48.4528 72.0351L57.62 68.6374C57.8425 68.5549 58.0778 68.5127 58.3151 68.5127H79.685C79.9222 68.5127 80.1576 68.5549 80.38 68.6374L89.5472 72.0351C91.715 72.8386 93.2284 74.8161 93.4374 77.1185L96.6092 112.049L97.0185 115.994C97.0712 116.502 96.7326 116.968 96.2332 117.075L88.0754 118.822H69H49.9246L41.7668 117.075C41.2674 116.968 40.9289 116.502 40.9816 115.994L41.3909 112.049L44.5626 77.1185C44.7717 74.8161 46.285 72.8386 48.4528 72.0351Z" fill="#37301D"/>
<path d="M49.9246 118.822L41.7668 117.075C41.2674 116.968 40.9289 116.502 40.9816 115.994L41.3909 112.049M49.9246 118.822H69H88.0754M49.9246 118.822V113.984M50.9286 83.9924L49.9246 113.984M41.3909 112.049L44.5626 77.1185C44.7717 74.8161 46.285 72.8386 48.4528 72.0351L57.62 68.6374C57.8425 68.5549 58.0778 68.5127 58.3151 68.5127H79.685C79.9222 68.5127 80.1576 68.5549 80.38 68.6374L89.5472 72.0351C91.715 72.8386 93.2284 74.8161 93.4374 77.1185L96.6092 112.049M41.3909 112.049L49.9246 113.984M88.0754 118.822L96.2332 117.075C96.7326 116.968 97.0712 116.502 97.0185 115.994L96.6092 112.049M88.0754 118.822V113.984M87.0715 83.9924L88.0754 113.984M96.6092 112.049L88.0754 113.984" stroke="white" stroke-opacity="0.5" stroke-linecap="round"/>
<path fill-rule="evenodd" clip-rule="evenodd" d="M71.6803 62.9904C71.1068 63.3122 70.475 63.526 69.8205 63.6235V65.6081C69.9432 65.6441 70.0639 65.6883 70.1816 65.7409L91.5381 75.2752C94.1633 76.4472 93.2675 80.1221 90.3565 80.1221H47.6435C44.7326 80.1221 43.8367 76.4472 46.4619 75.2752L67.8184 65.7409C67.9361 65.6883 68.0568 65.6441 68.1796 65.6081V62.388C68.1796 62.2594 68.2914 62.1552 68.4294 62.1552C69.1511 62.1292 70.265 61.9005 70.7869 61.6077C71.3738 61.2783 71.8428 60.7942 72.1345 60.2165C72.4262 59.6388 72.5275 58.9935 72.4256 58.3621C72.3238 57.7308 72.0233 57.1417 71.5621 56.6695C71.101 56.1973 70.5 55.8631 69.8351 55.7092C69.1701 55.5553 68.4712 55.5886 67.8265 55.8049C67.1819 56.0212 66.6206 56.4108 66.2135 56.9243C65.9153 57.3006 65.7098 57.731 65.6084 58.185C65.547 58.4606 65.2951 58.6794 64.9934 58.6662L64.356 58.6382C64.0542 58.6249 63.8182 58.3855 63.8641 58.1072C63.9914 57.3341 64.3184 56.5986 64.8203 55.9654C65.4308 55.1951 66.2728 54.6107 67.2398 54.2863C68.2067 53.9619 69.2552 53.9119 70.2526 54.1428C71.25 54.3736 72.1515 54.8749 72.8432 55.5832C73.5349 56.2915 73.9856 57.1751 74.1384 58.1221C74.2913 59.0692 74.1393 60.0372 73.7017 60.9037C73.2642 61.7703 72.5607 62.4964 71.6803 62.9904ZM69.4727 67.1199L90.8291 76.6542C91.8792 77.123 91.5209 78.593 90.3565 78.593H47.6435C46.4792 78.593 46.1208 77.123 47.1709 76.6542L68.5274 67.1199C68.8262 66.9865 69.1738 66.9865 69.4727 67.1199Z" fill="black"/>
<path d="M44.9048 73.3501C49.6733 70.8836 52.5723 69.8959 57.9564 68.5127L62.8889 83.9924V116.822C62.8889 117.926 61.9935 118.822 60.8889 118.822H49.9246L41.7668 117.075C41.2674 116.968 40.9289 116.502 40.9816 115.994L41.3909 112.049L44.9048 73.3501Z" fill="white"/>
<path d="M44.9048 73.3501C49.6733 70.8836 52.5723 69.8959 57.9564 68.5127L62.8889 83.9924V116.822C62.8889 117.926 61.9935 118.822 60.8889 118.822H49.9246L41.7668 117.075C41.2674 116.968 40.9289 116.502 40.9816 115.994L41.3909 112.049L44.9048 73.3501Z" fill="#453C26"/>
<path d="M96.2332 117.075L88.0754 118.822H76.5C75.3955 118.822 74.5 117.926 74.5 116.822V83.9924L80.0437 68.5127C85.2226 69.7526 88.0779 70.851 93.0953 73.3501L96.6092 112.049L97.0185 115.994C97.0712 116.502 96.7326 116.968 96.2332 117.075Z" fill="white"/>
<path d="M96.2332 117.075L88.0754 118.822H76.5C75.3955 118.822 74.5 117.926 74.5 116.822V83.9924L80.0437 68.5127C85.2226 69.7526 88.0779 70.851 93.0953 73.3501L96.6092 112.049L97.0185 115.994C97.0712 116.502 96.7326 116.968 96.2332 117.075Z" fill="#453C26"/>
<path d="M57.9564 68.5127C52.5723 69.8959 49.6733 70.8836 44.9048 73.3501M57.9564 68.5127L62.8889 83.9924M57.9564 68.5127L56.8758 84.382C56.8284 85.0787 57.4914 85.6082 58.1603 85.408L62.8889 83.9924M44.9048 73.3501L41.3909 112.049M44.9048 73.3501L50.6514 83.5027C50.8327 83.823 50.9221 84.187 50.9098 84.5548L49.9246 113.984M49.9246 118.822L41.7668 117.075C41.2674 116.968 40.9289 116.502 40.9816 115.994L41.3909 112.049M49.9246 118.822H60.8889C61.9935 118.822 62.8889 117.926 62.8889 116.822V83.9924M49.9246 118.822V115.286M41.3909 112.049L49.9246 113.984M49.9246 113.984V115.286M80.0437 68.5127C85.2226 69.7526 88.0779 70.851 93.0953 73.3501M80.0437 68.5127L74.5 83.9924M80.0437 68.5127V84.4388C80.0437 85.1201 79.3773 85.6019 78.7303 85.3884L74.5 83.9924M88.0754 118.822L96.2332 117.075C96.7326 116.968 97.0712 116.502 97.0185 115.994L96.6092 112.049M88.0754 118.822H76.5C75.3955 118.822 74.5 117.926 74.5 116.822V83.9924M88.0754 118.822V115.286M93.0953 73.3501L96.6092 112.049M93.0953 73.3501L87.3486 83.5027C87.1674 83.823 87.078 84.187 87.0903 84.5548L88.0754 113.984M96.6092 112.049L88.0754 113.984M88.0754 113.984V115.286M88.0754 115.286C87.0133 114.5 84.8889 110.572 84.8889 105.858M49.9246 115.286C50.5794 115.09 53.1111 111.986 53.1111 105.858" stroke="white" stroke-opacity="0.5" stroke-linecap="round" stroke-linejoin="round"/>
</g>
</g>
<defs>
<filter id="filter0_bdd_5082_12594" x="-4" y="-4" width="150" height="162" filterUnits="userSpaceOnUse" color-interpolation-filters="sRGB">
<feFlood flood-opacity="0" result="BackgroundImageFix"/>
<feGaussianBlur in="BackgroundImageFix" stdDeviation="10"/>
<feComposite in2="SourceAlpha" operator="in" result="effect1_backgroundBlur_5082_12594"/>
<feColorMatrix in="SourceAlpha" type="matrix" values="0 0 0 0 0 0 0 0 0 0 0 0 0 0 0 0 0 0 127 0" result="hardAlpha"/>
<feOffset dx="4" dy="4"/>
<feGaussianBlur stdDeviation="10"/>
<feComposite in2="hardAlpha" operator="out"/>
<feColorMatrix type="matrix" values="0 0 0 0 0 0 0 0 0 0 0 0 0 0 0 0 0 0 0.05 0"/>
<feBlend mode="normal" in2="effect1_backgroundBlur_5082_12594" result="effect2_dropShadow_5082_12594"/>
<feColorMatrix in="SourceAlpha" type="matrix" values="0 0 0 0 0 0 0 0 0 0 0 0 0 0 0 0 0 0 127 0" result="hardAlpha"/>
<feOffset/>
<feGaussianBlur stdDeviation="1"/>
<feComposite in2="hardAlpha" operator="out"/>
<feColorMatrix type="matrix" values="0 0 0 0 0 0 0 0 0 0 0 0 0 0 0 0 0 0 0.05 0"/>
<feBlend mode="normal" in2="effect2_dropShadow_5082_12594" result="effect3_dropShadow_5082_12594"/>
<feBlend mode="normal" in="SourceGraphic" in2="effect3_dropShadow_5082_12594" result="shape"/>
</filter>
<filter id="filter1_bd_5082_12594" x="30.4761" y="44" width="77.0479" height="85.3223" filterUnits="userSpaceOnUse" color-interpolation-filters="sRGB">
<feFlood flood-opacity="0" result="BackgroundImageFix"/>
<feGaussianBlur in="BackgroundImageFix" stdDeviation="5"/>
<feComposite in2="SourceAlpha" operator="in" result="effect1_backgroundBlur_5082_12594"/>
<feColorMatrix in="SourceAlpha" type="matrix" values="0 0 0 0 0 0 0 0 0 0 0 0 0 0 0 0 0 0 127 0" result="hardAlpha"/>
<feOffset dy="1"/>
<feGaussianBlur stdDeviation="1"/>
<feComposite in2="hardAlpha" operator="out"/>
<feColorMatrix type="matrix" values="0 0 0 0 0 0 0 0 0 0 0 0 0 0 0 0 0 0 0.1 0"/>
<feBlend mode="normal" in2="effect1_backgroundBlur_5082_12594" result="effect2_dropShadow_5082_12594"/>
<feBlend mode="normal" in="SourceGraphic" in2="effect2_dropShadow_5082_12594" result="shape"/>
</filter>
<linearGradient id="paint0_linear_5082_12594" x1="28.0455" y1="16" x2="137.125" y2="165.064" gradientUnits="userSpaceOnUse">
<stop stop-color="white"/>
<stop offset="1" stop-color="white" stop-opacity="0"/>
</linearGradient>
</defs>
</svg>
