<svg width="66" height="70" viewBox="0 0 66 70" fill="none" xmlns="http://www.w3.org/2000/svg">
<g filter="url(#filter0_bd_5082_12596)">
<path d="M12.4528 19.0351L21.62 15.6374C21.8425 15.5549 22.0778 15.5127 22.3151 15.5127H43.685C43.9222 15.5127 44.1576 15.5549 44.38 15.6374L53.5472 19.0351C55.715 19.8386 57.2284 21.8161 57.4374 24.1185L60.6092 59.0495L61.0185 62.9939C61.0712 63.5019 60.7326 63.968 60.2332 64.0749L52.0754 65.8219H33H13.9246L5.76685 64.0749C5.26744 63.968 4.92887 63.5019 4.98159 62.9939L5.3909 59.0495L8.56262 24.1185C8.77168 21.8161 10.285 19.8386 12.4528 19.0351Z" fill="white"/>
<path d="M12.4528 19.0351L21.62 15.6374C21.8425 15.5549 22.0778 15.5127 22.3151 15.5127H43.685C43.9222 15.5127 44.1576 15.5549 44.38 15.6374L53.5472 19.0351C55.715 19.8386 57.2284 21.8161 57.4374 24.1185L60.6092 59.0495L61.0185 62.9939C61.0712 63.5019 60.7326 63.968 60.2332 64.0749L52.0754 65.8219H33H13.9246L5.76685 64.0749C5.26744 63.968 4.92887 63.5019 4.98159 62.9939L5.3909 59.0495L8.56262 24.1185C8.77168 21.8161 10.285 19.8386 12.4528 19.0351Z" fill="#37301D"/>
<path d="M13.9246 65.8219L5.76685 64.0749C5.26744 63.968 4.92887 63.5019 4.98159 62.9939L5.3909 59.0495M13.9246 65.8219H33H52.0754M13.9246 65.8219V60.9844M14.9286 30.9924L13.9246 60.9844M5.3909 59.0495L8.56262 24.1185C8.77168 21.8161 10.285 19.8386 12.4528 19.0351L21.62 15.6374C21.8425 15.5549 22.0778 15.5127 22.3151 15.5127H43.685C43.9222 15.5127 44.1576 15.5549 44.38 15.6374L53.5472 19.0351C55.715 19.8386 57.2284 21.8161 57.4374 24.1185L60.6092 59.0495M5.3909 59.0495L13.9246 60.9844M52.0754 65.8219L60.2332 64.0749C60.7326 63.968 61.0712 63.5019 61.0185 62.9939L60.6092 59.0495M52.0754 65.8219V60.9844M51.0715 30.9924L52.0754 60.9844M60.6092 59.0495L52.0754 60.9844" stroke="white" stroke-opacity="0.5" stroke-linecap="round"/>
<path fill-rule="evenodd" clip-rule="evenodd" d="M35.6803 9.99043C35.1068 10.3122 34.475 10.526 33.8205 10.6235V12.6081C33.9432 12.6441 34.0639 12.6883 34.1816 12.7409L55.5381 22.2752C58.1633 23.4472 57.2675 27.1221 54.3565 27.1221H11.6435C8.73258 27.1221 7.83671 23.4472 10.4619 22.2752L31.8184 12.7409C31.9361 12.6883 32.0568 12.6441 32.1796 12.6081V9.38801C32.1796 9.25942 32.2914 9.15518 32.4294 9.15518C33.1511 9.12918 34.265 8.90046 34.7869 8.60767C35.3738 8.27835 35.8428 7.79422 36.1345 7.21652C36.4262 6.63882 36.5275 5.99349 36.4256 5.36213C36.3238 4.73077 36.0233 4.14174 35.5621 3.66953C35.101 3.19732 34.5 2.86313 33.8351 2.70923C33.1701 2.55533 32.4712 2.58863 31.8265 2.80491C31.1819 3.0212 30.6206 3.41076 30.2135 3.92432C29.9153 4.30056 29.7098 4.73098 29.6084 5.18502C29.547 5.46062 29.2951 5.67941 28.9934 5.66616L28.356 5.63816C28.0542 5.62491 27.8182 5.38546 27.8641 5.10722C27.9914 4.33414 28.3184 3.59863 28.8203 2.96542C29.4308 2.19507 30.2728 1.61073 31.2398 1.28631C32.2067 0.961879 33.2552 0.911933 34.2526 1.14278C35.25 1.37363 36.1515 1.87491 36.8432 2.58323C37.5349 3.29155 37.9856 4.17509 38.1384 5.12213C38.2913 6.06917 38.1393 7.03716 37.7017 7.90371C37.2642 8.77026 36.5607 9.49644 35.6803 9.99043ZM33.4727 14.1199L54.8291 23.6542C55.8792 24.123 55.5209 25.593 54.3565 25.593H11.6435C10.4792 25.593 10.1208 24.123 11.1709 23.6542L32.5274 14.1199C32.8262 13.9865 33.1738 13.9865 33.4727 14.1199Z" fill="black"/>
<path d="M8.90479 20.3501C13.6733 17.8836 16.5723 16.8959 21.9564 15.5127L26.8889 30.9924V63.8219C26.8889 64.9264 25.9935 65.8219 24.8889 65.8219H13.9246L5.76685 64.0749C5.26744 63.968 4.92887 63.5019 4.98159 62.9939L5.3909 59.0495L8.90479 20.3501Z" fill="white"/>
<path d="M8.90479 20.3501C13.6733 17.8836 16.5723 16.8959 21.9564 15.5127L26.8889 30.9924V63.8219C26.8889 64.9264 25.9935 65.8219 24.8889 65.8219H13.9246L5.76685 64.0749C5.26744 63.968 4.92887 63.5019 4.98159 62.9939L5.3909 59.0495L8.90479 20.3501Z" fill="#453C26"/>
<path d="M60.2332 64.0749L52.0754 65.8219H40.5C39.3955 65.8219 38.5 64.9264 38.5 63.8219V30.9924L44.0437 15.5127C49.2226 16.7526 52.0779 17.851 57.0953 20.3501L60.6092 59.0495L61.0185 62.9939C61.0712 63.5019 60.7326 63.968 60.2332 64.0749Z" fill="white"/>
<path d="M60.2332 64.0749L52.0754 65.8219H40.5C39.3955 65.8219 38.5 64.9264 38.5 63.8219V30.9924L44.0437 15.5127C49.2226 16.7526 52.0779 17.851 57.0953 20.3501L60.6092 59.0495L61.0185 62.9939C61.0712 63.5019 60.7326 63.968 60.2332 64.0749Z" fill="#453C26"/>
<path d="M21.9564 15.5127C16.5723 16.8959 13.6733 17.8836 8.90479 20.3501M21.9564 15.5127L26.8889 30.9924M21.9564 15.5127L20.8758 31.382C20.8284 32.0787 21.4914 32.6082 22.1603 32.408L26.8889 30.9924M8.90479 20.3501L5.3909 59.0495M8.90479 20.3501L14.6514 30.5027C14.8327 30.823 14.9221 31.187 14.9098 31.5548L13.9246 60.9844M13.9246 65.8219L5.76685 64.0749C5.26744 63.968 4.92887 63.5019 4.98159 62.9939L5.3909 59.0495M13.9246 65.8219H24.8889C25.9935 65.8219 26.8889 64.9264 26.8889 63.8219V30.9924M13.9246 65.8219V62.2861M5.3909 59.0495L13.9246 60.9844M13.9246 60.9844V62.2861M44.0437 15.5127C49.2226 16.7526 52.0779 17.851 57.0953 20.3501M44.0437 15.5127L38.5 30.9924M44.0437 15.5127V31.4388C44.0437 32.1201 43.3773 32.6019 42.7303 32.3884L38.5 30.9924M52.0754 65.8219L60.2332 64.0749C60.7326 63.968 61.0712 63.5019 61.0185 62.9939L60.6092 59.0495M52.0754 65.8219H40.5C39.3955 65.8219 38.5 64.9264 38.5 63.8219V30.9924M52.0754 65.8219V62.2861M57.0953 20.3501L60.6092 59.0495M57.0953 20.3501L51.3486 30.5027C51.1674 30.823 51.078 31.187 51.0903 31.5548L52.0754 60.9844M60.6092 59.0495L52.0754 60.9844M52.0754 60.9844V62.2861M52.0754 62.2861C51.0133 61.5004 48.8889 57.5718 48.8889 52.8575M13.9246 62.2861C14.5794 62.0897 17.1111 58.9861 17.1111 52.8575" stroke="white" stroke-opacity="0.5" stroke-linecap="round" stroke-linejoin="round"/>
</g>
<defs>
<filter id="filter0_bd_5082_12596" x="-5.52393" y="-9" width="77.0479" height="85.3223" filterUnits="userSpaceOnUse" color-interpolation-filters="sRGB">
<feFlood flood-opacity="0" result="BackgroundImageFix"/>
<feGaussianBlur in="BackgroundImageFix" stdDeviation="5"/>
<feComposite in2="SourceAlpha" operator="in" result="effect1_backgroundBlur_5082_12596"/>
<feColorMatrix in="SourceAlpha" type="matrix" values="0 0 0 0 0 0 0 0 0 0 0 0 0 0 0 0 0 0 127 0" result="hardAlpha"/>
<feOffset dy="1"/>
<feGaussianBlur stdDeviation="1"/>
<feComposite in2="hardAlpha" operator="out"/>
<feColorMatrix type="matrix" values="0 0 0 0 0 0 0 0 0 0 0 0 0 0 0 0 0 0 0.1 0"/>
<feBlend mode="normal" in2="effect1_backgroundBlur_5082_12596" result="effect2_dropShadow_5082_12596"/>
<feBlend mode="normal" in="SourceGraphic" in2="effect2_dropShadow_5082_12596" result="shape"/>
</filter>
</defs>
</svg>
