<svg width="66" height="69" viewBox="0 0 66 69" fill="none" xmlns="http://www.w3.org/2000/svg">
<g filter="url(#filter0_bd_5082_12706)">
<path d="M12.8607 17.9058L20.4542 15.4227C20.6586 15.3558 20.8724 15.3224 21.0874 15.3237L44.2427 15.4576C44.4425 15.4588 44.6409 15.4899 44.8315 15.5498L52.5185 17.9687C55.6292 18.9476 57.8344 21.7167 58.0922 24.9676L60.9746 61.3286C61.053 62.3176 60.3946 63.2146 59.4276 63.4361L53.3799 64.8218H12.5182L6.54253 63.4343C5.58875 63.2129 4.93554 62.3335 4.99908 61.3564L7.36407 24.9904C7.57627 21.7275 9.75282 18.9221 12.8607 17.9058Z" fill="#FF9518"/>
<path d="M12.5182 64.8218L6.54253 63.4343C5.58875 63.2129 4.93554 62.3334 4.99908 61.3564L7.36407 24.9904C7.57627 21.7275 9.75282 18.9221 12.8607 17.9058L20.4542 15.4227C20.6586 15.3558 20.8724 15.3224 21.0874 15.3237L44.2427 15.4576C44.4425 15.4588 44.6409 15.4899 44.8315 15.5498L52.5185 17.9687C55.6292 18.9476 57.8345 21.7167 58.0922 24.9676L60.9746 61.3286C61.053 62.3176 60.3946 63.2146 59.4276 63.4361L53.3799 64.8218M12.5182 64.8218H53.3799M12.5182 64.8218L14.5871 34.1136M53.3799 64.8218L51.4403 34.1136" stroke="white" stroke-opacity="0.5" stroke-linecap="round"/>
<path fill-rule="evenodd" clip-rule="evenodd" d="M35.3871 10.0057C34.813 10.3216 34.1806 10.5315 33.5255 10.6273V12.5758C33.6484 12.6111 33.7692 12.6546 33.887 12.7062L55.2645 22.0672C57.8923 23.2179 56.9956 26.8259 54.0818 26.8259H11.3267C8.41283 26.8259 7.51608 23.2179 10.1439 22.0672L31.5215 12.7062C31.6392 12.6546 31.7601 12.6111 31.883 12.5758V9.41423C31.883 9.28798 31.9949 9.18564 32.1331 9.18564C32.8554 9.1601 33.9704 8.93555 34.4928 8.64807C35.0803 8.32474 35.5498 7.84942 35.8418 7.28222C36.1338 6.71502 36.2352 6.08142 36.1332 5.46154C36.0312 4.84166 35.7304 4.26334 35.2689 3.79971C34.8073 3.33608 34.2057 3.00797 33.5401 2.85687C32.8745 2.70577 32.1748 2.73846 31.5296 2.95081C30.8843 3.16316 30.3224 3.54564 29.915 4.04987C29.6165 4.41927 29.4107 4.84186 29.3093 5.28764C29.2477 5.55824 28.9957 5.77305 28.6936 5.76004L28.0556 5.73255C27.7536 5.71954 27.5173 5.48444 27.5632 5.21126C27.6907 4.45224 28.018 3.7301 28.5204 3.1084C29.1315 2.35205 29.9743 1.77834 30.9422 1.45981C31.9101 1.14128 32.9596 1.09224 33.958 1.3189C34.9564 1.54555 35.8588 2.03772 36.5512 2.73316C37.2435 3.4286 37.6947 4.29608 37.8477 5.2259C38.0007 6.15572 37.8485 7.10612 37.4106 7.95692C36.9726 8.80771 36.2684 9.52069 35.3871 10.0057ZM33.1773 14.0601L54.5549 23.4211C55.606 23.8814 55.2473 25.3246 54.0818 25.3246H11.3267C10.1611 25.3246 9.80243 23.8814 10.8536 23.4211L32.2311 14.0601C32.5302 13.9291 32.8782 13.9291 33.1773 14.0601Z" fill="black"/>
<path fill-rule="evenodd" clip-rule="evenodd" d="M46.1097 15.9521C45.1996 15.6657 44.2266 16.0727 43.6675 16.846C41.2312 20.2161 37.2227 22.4155 32.6906 22.4155C28.1158 22.4155 24.0746 20.1746 21.6453 16.7507C21.083 15.9582 20.089 15.5421 19.1655 15.8441L12.8607 17.9058C9.75282 18.9221 7.57627 21.7275 7.36407 24.9904L4.99908 61.3564C4.93554 62.3334 5.58875 63.2129 6.54253 63.4343L12.5182 64.8218H53.3799L59.4276 63.4361C60.3946 63.2146 61.053 62.3176 60.9746 61.3286L58.0922 24.9676C57.8345 21.7167 55.6292 18.9476 52.5185 17.9687L46.1097 15.9521Z" fill="white"/>
<path fill-rule="evenodd" clip-rule="evenodd" d="M46.1097 15.9521C45.1996 15.6657 44.2266 16.0727 43.6675 16.846C41.2312 20.2161 37.2227 22.4155 32.6906 22.4155C28.1158 22.4155 24.0746 20.1746 21.6453 16.7507C21.083 15.9582 20.089 15.5421 19.1655 15.8441L12.8607 17.9058C9.75282 18.9221 7.57627 21.7275 7.36407 24.9904L4.99908 61.3564C4.93554 62.3334 5.58875 63.2129 6.54253 63.4343L12.5182 64.8218H53.3799L59.4276 63.4361C60.3946 63.2146 61.053 62.3176 60.9746 61.3286L58.0922 24.9676C57.8345 21.7167 55.6292 18.9476 52.5185 17.9687L46.1097 15.9521Z" fill="#FFB751"/>
<path d="M12.5182 64.8218L6.54253 63.4343C5.58875 63.2129 4.93554 62.3334 4.99908 61.3564L7.36407 24.9904C7.57627 21.7275 9.75282 18.9221 12.8607 17.9058L19.1655 15.8441C20.089 15.5421 21.0831 15.9582 21.6453 16.7507C24.0746 20.1746 28.1158 22.4155 32.6906 22.4155C37.2227 22.4155 41.2312 20.2161 43.6675 16.846C44.2266 16.0727 45.1996 15.6657 46.1097 15.9521L52.5185 17.9687C55.6292 18.9476 57.8345 21.7167 58.0922 24.9676L60.9746 61.3286C61.053 62.3176 60.3946 63.2146 59.4276 63.4361L53.3799 64.8218M12.5182 64.8218H53.3799M12.5182 64.8218L14.5871 34.1136M53.3799 64.8218L51.4403 34.1136" stroke="white" stroke-opacity="0.5" stroke-linecap="round"/>
</g>
<defs>
<filter id="filter0_bd_5082_12706" x="-5.50513" y="-8.82129" width="76.9861" height="84.1431" filterUnits="userSpaceOnUse" color-interpolation-filters="sRGB">
<feFlood flood-opacity="0" result="BackgroundImageFix"/>
<feGaussianBlur in="BackgroundImageFix" stdDeviation="5"/>
<feComposite in2="SourceAlpha" operator="in" result="effect1_backgroundBlur_5082_12706"/>
<feColorMatrix in="SourceAlpha" type="matrix" values="0 0 0 0 0 0 0 0 0 0 0 0 0 0 0 0 0 0 127 0" result="hardAlpha"/>
<feOffset dy="1"/>
<feGaussianBlur stdDeviation="1"/>
<feComposite in2="hardAlpha" operator="out"/>
<feColorMatrix type="matrix" values="0 0 0 0 0 0 0 0 0 0 0 0 0 0 0 0 0 0 0.1 0"/>
<feBlend mode="normal" in2="effect1_backgroundBlur_5082_12706" result="effect2_dropShadow_5082_12706"/>
<feBlend mode="normal" in="SourceGraphic" in2="effect2_dropShadow_5082_12706" result="shape"/>
</filter>
</defs>
</svg>
