<svg width="146" height="158" viewBox="0 0 146 158" fill="none" xmlns="http://www.w3.org/2000/svg">
<g filter="url(#filter0_bdd_5082_12704)">
<rect x="16" y="16" width="106" height="118" rx="16" fill="white" fill-opacity="0.4" shape-rendering="crispEdges"/>
<rect x="16.5" y="16.5" width="105" height="117" rx="15.5" stroke="url(#paint0_linear_5082_12704)" stroke-opacity="0.5" shape-rendering="crispEdges"/>
<path d="M59.9436 31.088H60.9396V38.972H59.9436V31.088ZM56.7516 31.904H57.7956C57.7956 34.724 55.8156 36.812 52.6356 37.808L52.2276 36.992C55.0236 36.14 56.7516 34.448 56.7516 32.324V31.904ZM52.8036 31.904H57.3156V32.732H52.8036V31.904ZM53.9076 40.88H61.2156V41.708H53.9076V40.88ZM53.9076 38.336H54.9036V41.18H53.9076V38.336ZM63.1827 31.82H68.9787V32.612H63.1827V31.82ZM62.9907 36.344L62.8827 35.516C64.7787 35.516 67.3587 35.492 69.4827 35.24L69.5427 35.972C67.3587 36.308 64.8627 36.332 62.9907 36.344ZM64.2507 32.156H65.2107V35.984H64.2507V32.156ZM66.9387 32.156H67.8987V35.984H66.9387V32.156ZM70.2747 31.088H71.2707V36.704H70.2747V31.088ZM70.8387 33.452H72.8667V34.28H70.8387V33.452ZM64.3827 37.232H71.2707V39.848H65.3907V41.456H64.4067V39.092H70.2987V38.024H64.3827V37.232ZM64.4067 41.024H71.6667V41.816H64.4067V41.024ZM76.7853 38.504H77.6493C79.6773 38.504 81.0933 38.444 82.7613 38.168L82.8573 38.972C81.1533 39.272 79.7133 39.332 77.6493 39.332H76.7853V38.504ZM76.7853 32.072H82.0413V32.9H77.7693V38.792H76.7853V32.072ZM77.5293 35.108H81.6453V35.912H77.5293V35.108ZM83.9973 31.088H84.9933V41.936H83.9973V31.088Z" fill="#121212" fill-opacity="0.7"/>
<g filter="url(#filter1_bd_5082_12704)">
<path d="M48.8607 71.9058L56.4542 69.4227C56.6586 69.3558 56.8724 69.3224 57.0874 69.3237L80.2427 69.4576C80.4425 69.4588 80.6409 69.4899 80.8315 69.5498L88.5185 71.9687C91.6292 72.9476 93.8344 75.7167 94.0922 78.9676L96.9746 115.329C97.053 116.318 96.3946 117.215 95.4276 117.436L89.3799 118.822H48.5182L42.5425 117.434C41.5888 117.213 40.9355 116.333 40.9991 115.356L43.3641 78.9904C43.5763 75.7275 45.7528 72.9221 48.8607 71.9058Z" fill="#FF9518"/>
<path d="M48.5182 118.822L42.5425 117.434C41.5888 117.213 40.9355 116.333 40.9991 115.356L43.3641 78.9904C43.5763 75.7275 45.7528 72.9221 48.8607 71.9058L56.4542 69.4227C56.6586 69.3558 56.8724 69.3224 57.0874 69.3237L80.2427 69.4576C80.4425 69.4588 80.6409 69.4899 80.8315 69.5498L88.5185 71.9687C91.6292 72.9476 93.8345 75.7167 94.0922 78.9676L96.9746 115.329C97.053 116.318 96.3946 117.215 95.4276 117.436L89.3799 118.822M48.5182 118.822H89.3799M48.5182 118.822L50.5871 88.1136M89.3799 118.822L87.4403 88.1136" stroke="white" stroke-opacity="0.5" stroke-linecap="round"/>
<path fill-rule="evenodd" clip-rule="evenodd" d="M71.3871 64.0057C70.813 64.3216 70.1806 64.5315 69.5255 64.6273V66.5758C69.6484 66.6111 69.7692 66.6546 69.887 66.7062L91.2645 76.0672C93.8923 77.2179 92.9956 80.8259 90.0818 80.8259H47.3267C44.4128 80.8259 43.5161 77.2179 46.1439 76.0672L67.5215 66.7062C67.6392 66.6546 67.7601 66.6111 67.883 66.5758V63.4142C67.883 63.288 67.9949 63.1856 68.1331 63.1856C68.8554 63.1601 69.9704 62.9355 70.4928 62.6481C71.0803 62.3247 71.5498 61.8494 71.8418 61.2822C72.1338 60.715 72.2352 60.0814 72.1332 59.4615C72.0312 58.8417 71.7304 58.2633 71.2689 57.7997C70.8073 57.3361 70.2057 57.008 69.5401 56.8569C68.8745 56.7058 68.1748 56.7385 67.5296 56.9508C66.8843 57.1632 66.3224 57.5456 65.915 58.0499C65.6165 58.4193 65.4107 58.8419 65.3093 59.2876C65.2477 59.5582 64.9957 59.7731 64.6936 59.76L64.0556 59.7326C63.7536 59.7195 63.5173 59.4844 63.5632 59.2113C63.6907 58.4522 64.018 57.7301 64.5204 57.1084C65.1315 56.3521 65.9743 55.7783 66.9422 55.4598C67.9101 55.1413 68.9596 55.0922 69.958 55.3189C70.9564 55.5456 71.8588 56.0377 72.5512 56.7332C73.2435 57.4286 73.6947 58.2961 73.8477 59.2259C74.0007 60.1557 73.8485 61.1061 73.4106 61.9569C72.9726 62.8077 72.2684 63.5207 71.3871 64.0057ZM69.1773 68.0601L90.5549 77.4211C91.606 77.8814 91.2473 79.3246 90.0818 79.3246H47.3267C46.1611 79.3246 45.8024 77.8814 46.8536 77.4211L68.2311 68.0601C68.5302 67.9291 68.8782 67.9291 69.1773 68.0601Z" fill="black"/>
<path fill-rule="evenodd" clip-rule="evenodd" d="M82.1097 69.9521C81.1996 69.6657 80.2266 70.0727 79.6675 70.846C77.2312 74.2161 73.2227 76.4155 68.6906 76.4155C64.1158 76.4155 60.0746 74.1746 57.6453 70.7507C57.083 69.9582 56.089 69.5421 55.1655 69.8441L48.8607 71.9058C45.7528 72.9221 43.5763 75.7275 43.3641 78.9904L40.9991 115.356C40.9355 116.333 41.5888 117.213 42.5425 117.434L48.5182 118.822H89.3799L95.4276 117.436C96.3946 117.215 97.053 116.318 96.9746 115.329L94.0922 78.9676C93.8345 75.7167 91.6292 72.9476 88.5185 71.9687L82.1097 69.9521Z" fill="white"/>
<path fill-rule="evenodd" clip-rule="evenodd" d="M82.1097 69.9521C81.1996 69.6657 80.2266 70.0727 79.6675 70.846C77.2312 74.2161 73.2227 76.4155 68.6906 76.4155C64.1158 76.4155 60.0746 74.1746 57.6453 70.7507C57.083 69.9582 56.089 69.5421 55.1655 69.8441L48.8607 71.9058C45.7528 72.9221 43.5763 75.7275 43.3641 78.9904L40.9991 115.356C40.9355 116.333 41.5888 117.213 42.5425 117.434L48.5182 118.822H89.3799L95.4276 117.436C96.3946 117.215 97.053 116.318 96.9746 115.329L94.0922 78.9676C93.8345 75.7167 91.6292 72.9476 88.5185 71.9687L82.1097 69.9521Z" fill="#FFB751"/>
<path d="M48.5182 118.822L42.5425 117.434C41.5888 117.213 40.9355 116.333 40.9991 115.356L43.3641 78.9904C43.5763 75.7275 45.7528 72.9221 48.8607 71.9058L55.1655 69.8441C56.089 69.5421 57.0831 69.9582 57.6453 70.7507C60.0746 74.1746 64.1158 76.4155 68.6906 76.4155C73.2227 76.4155 77.2312 74.2161 79.6675 70.846C80.2266 70.0727 81.1996 69.6657 82.1097 69.9521L88.5185 71.9687C91.6292 72.9476 93.8345 75.7167 94.0922 78.9676L96.9746 115.329C97.053 116.318 96.3946 117.215 95.4276 117.436L89.3799 118.822M48.5182 118.822H89.3799M48.5182 118.822L50.5871 88.1136M89.3799 118.822L87.4403 88.1136" stroke="white" stroke-opacity="0.5" stroke-linecap="round"/>
</g>
</g>
<defs>
<filter id="filter0_bdd_5082_12704" x="-4" y="-4" width="150" height="162" filterUnits="userSpaceOnUse" color-interpolation-filters="sRGB">
<feFlood flood-opacity="0" result="BackgroundImageFix"/>
<feGaussianBlur in="BackgroundImageFix" stdDeviation="10"/>
<feComposite in2="SourceAlpha" operator="in" result="effect1_backgroundBlur_5082_12704"/>
<feColorMatrix in="SourceAlpha" type="matrix" values="0 0 0 0 0 0 0 0 0 0 0 0 0 0 0 0 0 0 127 0" result="hardAlpha"/>
<feOffset dx="4" dy="4"/>
<feGaussianBlur stdDeviation="10"/>
<feComposite in2="hardAlpha" operator="out"/>
<feColorMatrix type="matrix" values="0 0 0 0 0 0 0 0 0 0 0 0 0 0 0 0 0 0 0.05 0"/>
<feBlend mode="normal" in2="effect1_backgroundBlur_5082_12704" result="effect2_dropShadow_5082_12704"/>
<feColorMatrix in="SourceAlpha" type="matrix" values="0 0 0 0 0 0 0 0 0 0 0 0 0 0 0 0 0 0 127 0" result="hardAlpha"/>
<feOffset/>
<feGaussianBlur stdDeviation="1"/>
<feComposite in2="hardAlpha" operator="out"/>
<feColorMatrix type="matrix" values="0 0 0 0 0 0 0 0 0 0 0 0 0 0 0 0 0 0 0.05 0"/>
<feBlend mode="normal" in2="effect2_dropShadow_5082_12704" result="effect3_dropShadow_5082_12704"/>
<feBlend mode="normal" in="SourceGraphic" in2="effect3_dropShadow_5082_12704" result="shape"/>
</filter>
<filter id="filter1_bd_5082_12704" x="30.4949" y="45.1787" width="76.9861" height="84.1431" filterUnits="userSpaceOnUse" color-interpolation-filters="sRGB">
<feFlood flood-opacity="0" result="BackgroundImageFix"/>
<feGaussianBlur in="BackgroundImageFix" stdDeviation="5"/>
<feComposite in2="SourceAlpha" operator="in" result="effect1_backgroundBlur_5082_12704"/>
<feColorMatrix in="SourceAlpha" type="matrix" values="0 0 0 0 0 0 0 0 0 0 0 0 0 0 0 0 0 0 127 0" result="hardAlpha"/>
<feOffset dy="1"/>
<feGaussianBlur stdDeviation="1"/>
<feComposite in2="hardAlpha" operator="out"/>
<feColorMatrix type="matrix" values="0 0 0 0 0 0 0 0 0 0 0 0 0 0 0 0 0 0 0.1 0"/>
<feBlend mode="normal" in2="effect1_backgroundBlur_5082_12704" result="effect2_dropShadow_5082_12704"/>
<feBlend mode="normal" in="SourceGraphic" in2="effect2_dropShadow_5082_12704" result="shape"/>
</filter>
<linearGradient id="paint0_linear_5082_12704" x1="28.0455" y1="16" x2="137.125" y2="165.064" gradientUnits="userSpaceOnUse">
<stop stop-color="white"/>
<stop offset="1" stop-color="white" stop-opacity="0"/>
</linearGradient>
</defs>
</svg>
