<svg width="66" height="69" viewBox="0 0 66 69" fill="none" xmlns="http://www.w3.org/2000/svg">
<g filter="url(#filter0_bd_5082_12801)">
<path d="M48.2691 64.8218H18.1539C16.9005 64.8218 15.7694 64.0454 15.3978 62.8484C15.2471 62.3627 15.0997 61.8558 14.9573 61.328L7.9303 60.2632C7.53104 60.2027 7.20618 59.9086 7.11586 59.5151C5.18268 51.0909 6.13801 41.3964 9.12734 26.6478C9.54008 24.6114 10.7482 22.8255 12.4712 21.6643L16.6975 18.8159L23.5785 15.6277C24.0051 15.4301 24.4886 15.3909 24.944 15.5076C30.2426 16.8648 33.7418 16.8454 39.8763 15.481C40.3299 15.3802 40.8056 15.4352 41.2213 15.6427L48.7477 19.3983L53.8069 22.9146C55.4063 24.0262 56.5524 25.6866 56.9935 27.5837C60.6375 43.2571 60.553 50.8083 58.3385 59.5292C58.2407 59.9142 57.9207 60.2029 57.5283 60.2641L50.7101 61.328C50.5675 61.9339 50.4304 62.5224 50.3078 63.1132C50.1054 64.0881 49.2648 64.8218 48.2691 64.8218Z" fill="#B7CBD8"/>
<path d="M15.4408 29.2984C11.9983 43.2482 13.0315 54.1935 14.9573 61.328M50.0047 29.2984C53.5743 49.6261 51.9364 56.1195 50.7101 61.328M14.9573 61.328C15.0997 61.8558 15.2471 62.3627 15.3978 62.8484C15.7694 64.0454 16.9005 64.8218 18.1539 64.8218H48.2691C49.2648 64.8218 50.1054 64.0881 50.3078 63.1132C50.4304 62.5224 50.5675 61.9339 50.7101 61.328M14.9573 61.328L7.9303 60.2632C7.53104 60.2027 7.20618 59.9086 7.11586 59.5151C5.18268 51.0909 6.13801 41.3964 9.12734 26.6478C9.54008 24.6114 10.7482 22.8255 12.4712 21.6643L16.6975 18.8159L23.5785 15.6277C24.0051 15.4301 24.4887 15.3909 24.9441 15.5076C30.2426 16.8648 33.7418 16.8454 39.8763 15.481C40.3299 15.3802 40.8056 15.4352 41.2213 15.6427L48.7477 19.3983L53.8069 22.9146C55.4063 24.0262 56.5524 25.6866 56.9935 27.5837C60.6375 43.2571 60.553 50.8083 58.3385 59.5292C58.2407 59.9142 57.9207 60.2029 57.5283 60.2641L50.7101 61.328" stroke="white" stroke-opacity="0.5" stroke-linecap="round"/>
<path fill-rule="evenodd" clip-rule="evenodd" d="M35.2611 10.0057C34.687 10.3216 34.0546 10.5315 33.3994 10.6273V12.5758C33.5223 12.6111 33.6431 12.6546 33.7609 12.7062L53.001 22.0672C55.6288 23.2179 54.732 26.8259 51.8182 26.8259H13.3184C10.4045 26.8259 9.50778 23.2179 12.1356 22.0672L31.3954 12.7062C31.5132 12.6546 31.634 12.6111 31.7569 12.5758V9.41423C31.7569 9.28798 31.8689 9.18564 32.007 9.18564C32.7294 9.1601 33.8444 8.93555 34.3668 8.64807C34.9543 8.32474 35.4238 7.84942 35.7157 7.28222C36.0077 6.71502 36.1092 6.08142 36.0072 5.46154C35.9052 4.84166 35.6044 4.26334 35.1428 3.79971C34.6813 3.33608 34.0796 3.00797 33.414 2.85687C32.7485 2.70577 32.0488 2.73846 31.4035 2.95081C30.7583 3.16316 30.1964 3.54564 29.7889 4.04987C29.4904 4.41927 29.2847 4.84186 29.1833 5.28764C29.1217 5.55824 28.8696 5.77305 28.5676 5.76004L27.9296 5.73255C27.6275 5.71954 27.3913 5.48444 27.4371 5.21126C27.5647 4.45224 27.892 3.7301 28.3943 3.1084C29.0055 2.35205 29.8483 1.77834 30.8162 1.45981C31.7841 1.14128 32.8336 1.09224 33.832 1.3189C34.8303 1.54555 35.7328 2.03772 36.4251 2.73316C37.1175 3.4286 37.5687 4.29608 37.7217 5.2259C37.8746 6.15572 37.7225 7.10612 37.2845 7.95692C36.8465 8.80771 36.1424 9.52069 35.2611 10.0057ZM33.0513 14.0601L52.2913 23.4211C53.3424 23.8814 52.9837 25.3246 51.8182 25.3246H13.3184C12.1528 25.3246 11.7941 23.8814 12.8453 23.4211L32.1051 14.0601C32.4042 13.9291 32.7521 13.9291 33.0513 14.0601Z" fill="black"/>
<path d="M32.7954 21.7277C35.8734 21.5051 37.0998 20.3742 39.9814 16.4902C40.4961 15.7964 41.3971 15.4991 42.2148 15.7777C48.0213 17.7565 51.5428 19.7032 55.4237 23.6024C57.1781 25.3652 58.3168 27.6456 58.8727 30.0696C62.1295 44.2695 61.4124 50.3992 59.3828 58.2713C59.086 59.4226 58.123 60.2787 56.9477 60.4576L51.2284 61.328C51.0815 61.9364 50.9404 62.5273 50.8143 63.1206C50.6077 64.0919 49.7687 64.8218 48.7756 64.8218H17.0875C16.258 64.8218 15.5099 64.3113 15.2439 63.5255C15.0116 62.839 14.7853 62.1062 14.5699 61.328L8.66318 60.4551C7.46721 60.2783 6.48763 59.4017 6.21864 58.2231C4.42246 50.3526 4.2143 43.0428 7.04233 29.0755C7.4028 27.2952 8.02332 25.5478 9.14117 24.1161C11.9224 20.5539 15.6703 18.4801 22.6845 15.8413C23.5128 15.5297 24.4472 15.8111 24.9727 16.5231C27.1082 19.4169 28.5795 21.1899 32.7954 21.7277Z" fill="#D7E1E7"/>
<path d="M15.0657 29.2984C11.536 43.2482 12.5954 54.1935 14.5699 61.328M50.5051 29.2984C54.1651 49.6261 52.4857 56.1195 51.2284 61.328M14.5699 61.328C14.7853 62.1062 15.0116 62.839 15.2439 63.5255C15.5099 64.3113 16.258 64.8218 17.0875 64.8218H48.7756C49.7687 64.8218 50.6077 64.0919 50.8143 63.1206C50.9404 62.5273 51.0815 61.9364 51.2284 61.328M14.5699 61.328L8.66318 60.4551C7.46721 60.2783 6.48763 59.4017 6.21864 58.2231C4.42246 50.3526 4.2143 43.0428 7.04233 29.0755C7.4028 27.2952 8.02332 25.5478 9.14117 24.1161C11.9224 20.5539 15.6703 18.4801 22.6845 15.8413C23.5128 15.5297 24.4472 15.8111 24.9727 16.5231C27.1082 19.4169 28.5795 21.1899 32.7954 21.7277C35.8734 21.5051 37.0998 20.3742 39.9814 16.4902C40.4961 15.7964 41.3971 15.4991 42.2148 15.7777C48.0213 17.7565 51.5428 19.7032 55.4237 23.6024C57.1781 25.3652 58.3168 27.6456 58.8728 30.0696C62.1295 44.2695 61.4124 50.3992 59.3828 58.2713C59.086 59.4226 58.123 60.2787 56.9477 60.4576L51.2284 61.328" stroke="white" stroke-opacity="0.5" stroke-linecap="round"/>
<ellipse cx="32.9999" cy="37.1252" rx="9.77778" ry="6.48214" fill="#1F4988"/>
<g clip-path="url(#clip0_5082_12801)">
<g filter="url(#filter1_b_5082_12801)">
<path fill-rule="evenodd" clip-rule="evenodd" d="M37.2258 38.6542C37.3155 38.4994 37.1527 38.3278 36.9732 38.3671C36.7107 38.4245 36.4375 38.4548 36.157 38.4548C34.1294 38.4548 32.4857 36.8721 32.4857 34.9198C32.4857 34.0001 32.8504 33.1624 33.4482 32.5336C33.5725 32.4029 33.498 32.1819 33.3139 32.1804C33.3001 32.1802 33.2862 32.1802 33.2724 32.1802C30.7741 32.1802 28.7488 34.1302 28.7488 36.5358C28.7488 38.9413 30.7741 40.8914 33.2724 40.8914C34.972 40.8914 36.4528 39.9888 37.2258 38.6542Z" fill="#FFC329"/>
</g>
</g>
</g>
<defs>
<filter id="filter0_bd_5082_12801" x="-10" y="-10" width="86" height="86" filterUnits="userSpaceOnUse" color-interpolation-filters="sRGB">
<feFlood flood-opacity="0" result="BackgroundImageFix"/>
<feGaussianBlur in="BackgroundImageFix" stdDeviation="5"/>
<feComposite in2="SourceAlpha" operator="in" result="effect1_backgroundBlur_5082_12801"/>
<feColorMatrix in="SourceAlpha" type="matrix" values="0 0 0 0 0 0 0 0 0 0 0 0 0 0 0 0 0 0 127 0" result="hardAlpha"/>
<feOffset dy="1"/>
<feGaussianBlur stdDeviation="1"/>
<feComposite in2="hardAlpha" operator="out"/>
<feColorMatrix type="matrix" values="0 0 0 0 0 0 0 0 0 0 0 0 0 0 0 0 0 0 0.1 0"/>
<feBlend mode="normal" in2="effect1_backgroundBlur_5082_12801" result="effect2_dropShadow_5082_12801"/>
<feBlend mode="normal" in="SourceGraphic" in2="effect2_dropShadow_5082_12801" result="shape"/>
</filter>
<filter id="filter1_b_5082_12801" x="20.7488" y="24.1802" width="24.5024" height="24.7109" filterUnits="userSpaceOnUse" color-interpolation-filters="sRGB">
<feFlood flood-opacity="0" result="BackgroundImageFix"/>
<feGaussianBlur in="BackgroundImageFix" stdDeviation="4"/>
<feComposite in2="SourceAlpha" operator="in" result="effect1_backgroundBlur_5082_12801"/>
<feBlend mode="normal" in="SourceGraphic" in2="effect1_backgroundBlur_5082_12801" result="shape"/>
</filter>
<clipPath id="clip0_5082_12801">
<rect width="12.2222" height="11.7857" fill="white" transform="translate(26.8889 30.6431)"/>
</clipPath>
</defs>
</svg>
