<svg width="146" height="158" viewBox="0 0 146 158" fill="none" xmlns="http://www.w3.org/2000/svg">
<g filter="url(#filter0_bdd_5082_12568)">
<rect x="16" y="16" width="106" height="118" rx="16" fill="white" fill-opacity="0.4" shape-rendering="crispEdges"/>
<rect x="16.5" y="16.5" width="105" height="117" rx="15.5" stroke="url(#paint0_linear_5082_12568)" stroke-opacity="0.5" shape-rendering="crispEdges"/>
<path d="M53.2614 32.18H57.4494V37.1H53.2614V32.18ZM56.5134 32.948H54.1854V36.308H56.5134V32.948ZM60.9654 31.1H61.9134V39.176H60.9654V31.1ZM59.2254 34.28H61.2654V35.108H59.2254V34.28ZM58.6374 31.292H59.5854V38.792H58.6374V31.292ZM54.8454 40.88H62.2494V41.696H54.8454V40.88ZM54.8454 38.192H55.8414V41.288H54.8454V38.192ZM63.5685 37.652H73.3965V38.48H63.5685V37.652ZM67.9845 37.892H68.9685V41.948H67.9845V37.892ZM64.8765 35.732H72.3045V36.548H64.8765V35.732ZM64.8765 31.592H72.1845V32.396H65.8605V35.972H64.8765V31.592ZM65.5725 33.644H71.9205V34.424H65.5725V33.644ZM74.8595 32.18H79.0475V37.1H74.8595V32.18ZM78.1115 32.948H75.7835V36.308H78.1115V32.948ZM82.5635 31.1H83.5115V39.176H82.5635V31.1ZM80.8235 34.28H82.8635V35.108H80.8235V34.28ZM80.2355 31.292H81.1835V38.792H80.2355V31.292ZM76.4435 40.88H83.8475V41.696H76.4435V40.88ZM76.4435 38.192H77.4395V41.288H76.4435V38.192Z" fill="#121212" fill-opacity="0.7"/>
<g filter="url(#filter1_bd_5082_12568)">
<path d="M84.2691 118.822H54.1539C52.9005 118.822 51.7694 118.045 51.3978 116.848C51.2471 116.363 51.0997 115.856 50.9573 115.328L43.9303 114.263C43.531 114.203 43.2062 113.909 43.1159 113.515C41.1827 105.091 42.138 95.3964 45.1273 80.6478C45.5401 78.6114 46.7482 76.8255 48.4712 75.6643L52.6975 72.8159L59.5785 69.6277C60.0051 69.4301 60.4886 69.3909 60.944 69.5076C66.2426 70.8648 69.7418 70.8454 75.8763 69.481C76.3299 69.3802 76.8056 69.4352 77.2213 69.6427L84.7477 73.3983L89.8069 76.9146C91.4063 78.0262 92.5524 79.6866 92.9935 81.5837C96.6375 97.2571 96.553 104.808 94.3385 113.529C94.2407 113.914 93.9207 114.203 93.5283 114.264L86.7101 115.328C86.5675 115.934 86.4304 116.522 86.3078 117.113C86.1054 118.088 85.2648 118.822 84.2691 118.822Z" fill="#B7CBD8"/>
<path d="M51.4408 83.2984C47.9983 97.2482 49.0315 108.194 50.9573 115.328M86.0047 83.2984C89.5743 103.626 87.9364 110.12 86.7101 115.328M50.9573 115.328C51.0997 115.856 51.2471 116.363 51.3978 116.848C51.7694 118.045 52.9005 118.822 54.1539 118.822H84.2691C85.2648 118.822 86.1054 118.088 86.3078 117.113C86.4304 116.522 86.5675 115.934 86.7101 115.328M50.9573 115.328L43.9303 114.263C43.531 114.203 43.2062 113.909 43.1159 113.515C41.1827 105.091 42.138 95.3964 45.1273 80.6478C45.5401 78.6114 46.7482 76.8255 48.4712 75.6643L52.6975 72.8159L59.5785 69.6277C60.0051 69.4301 60.4887 69.3909 60.9441 69.5076C66.2426 70.8648 69.7418 70.8454 75.8763 69.481C76.3299 69.3802 76.8056 69.4352 77.2213 69.6427L84.7477 73.3983L89.8069 76.9146C91.4063 78.0262 92.5524 79.6866 92.9935 81.5837C96.6375 97.2571 96.553 104.808 94.3385 113.529C94.2407 113.914 93.9207 114.203 93.5283 114.264L86.7101 115.328" stroke="white" stroke-opacity="0.5" stroke-linecap="round"/>
<path fill-rule="evenodd" clip-rule="evenodd" d="M71.2611 64.0057C70.687 64.3216 70.0546 64.5315 69.3994 64.6273V66.5758C69.5223 66.6111 69.6431 66.6546 69.7609 66.7062L89.001 76.0672C91.6288 77.2179 90.732 80.8259 87.8182 80.8259H49.3184C46.4045 80.8259 45.5078 77.2179 48.1356 76.0672L67.3954 66.7062C67.5132 66.6546 67.634 66.6111 67.7569 66.5758V63.4142C67.7569 63.288 67.8689 63.1856 68.007 63.1856C68.7294 63.1601 69.8444 62.9355 70.3668 62.6481C70.9543 62.3247 71.4238 61.8494 71.7157 61.2822C72.0077 60.715 72.1092 60.0814 72.0072 59.4615C71.9052 58.8417 71.6044 58.2633 71.1428 57.7997C70.6813 57.3361 70.0796 57.008 69.414 56.8569C68.7485 56.7058 68.0488 56.7385 67.4035 56.9508C66.7583 57.1632 66.1964 57.5456 65.7889 58.0499C65.4904 58.4193 65.2847 58.8419 65.1833 59.2876C65.1217 59.5582 64.8696 59.7731 64.5676 59.76L63.9296 59.7326C63.6275 59.7195 63.3913 59.4844 63.4371 59.2113C63.5647 58.4522 63.892 57.7301 64.3943 57.1084C65.0055 56.3521 65.8483 55.7783 66.8162 55.4598C67.7841 55.1413 68.8336 55.0922 69.832 55.3189C70.8303 55.5456 71.7328 56.0377 72.4251 56.7332C73.1175 57.4286 73.5687 58.2961 73.7217 59.2259C73.8746 60.1557 73.7225 61.1061 73.2845 61.9569C72.8465 62.8077 72.1424 63.5207 71.2611 64.0057ZM69.0513 68.0601L88.2913 77.4211C89.3424 77.8814 88.9837 79.3246 87.8182 79.3246H49.3184C48.1528 79.3246 47.7941 77.8814 48.8453 77.4211L68.1051 68.0601C68.4042 67.9291 68.7521 67.9291 69.0513 68.0601Z" fill="black"/>
<path d="M68.7954 75.7277C71.8734 75.5051 73.0998 74.3742 75.9814 70.4902C76.4961 69.7964 77.3971 69.4991 78.2148 69.7777C84.0213 71.7565 87.5428 73.7032 91.4237 77.6024C93.1781 79.3652 94.3168 81.6456 94.8727 84.0696C98.1295 98.2695 97.4124 104.399 95.3828 112.271C95.086 113.423 94.123 114.279 92.9477 114.458L87.2284 115.328C87.0815 115.936 86.9404 116.527 86.8143 117.121C86.6077 118.092 85.7687 118.822 84.7756 118.822H53.0875C52.258 118.822 51.5099 118.311 51.2439 117.526C51.0116 116.839 50.7853 116.106 50.5699 115.328L44.6632 114.455C43.4672 114.278 42.4876 113.402 42.2186 112.223C40.4225 104.353 40.2143 97.0428 43.0423 83.0755C43.4028 81.2952 44.0233 79.5478 45.1412 78.1161C47.9224 74.5539 51.6703 72.4801 58.6845 69.8413C59.5128 69.5297 60.4472 69.8111 60.9727 70.5231C63.1082 73.4169 64.5795 75.1899 68.7954 75.7277Z" fill="#D7E1E7"/>
<path d="M51.0657 83.2984C47.536 97.2482 48.5954 108.194 50.5699 115.328M86.5051 83.2984C90.1651 103.626 88.4857 110.12 87.2284 115.328M50.5699 115.328C50.7853 116.106 51.0116 116.839 51.2439 117.526C51.5099 118.311 52.258 118.822 53.0875 118.822H84.7756C85.7687 118.822 86.6077 118.092 86.8143 117.121C86.9404 116.527 87.0815 115.936 87.2284 115.328M50.5699 115.328L44.6632 114.455C43.4672 114.278 42.4876 113.402 42.2186 112.223C40.4225 104.353 40.2143 97.0428 43.0423 83.0755C43.4028 81.2952 44.0233 79.5478 45.1412 78.1161C47.9224 74.5539 51.6703 72.4801 58.6845 69.8413C59.5128 69.5297 60.4472 69.8111 60.9727 70.5231C63.1082 73.4169 64.5795 75.1899 68.7954 75.7277C71.8734 75.5051 73.0998 74.3742 75.9814 70.4902C76.4961 69.7964 77.3971 69.4991 78.2148 69.7777C84.0213 71.7565 87.5428 73.7032 91.4237 77.6024C93.1781 79.3652 94.3168 81.6456 94.8728 84.0696C98.1295 98.2695 97.4124 104.399 95.3828 112.271C95.086 113.423 94.123 114.279 92.9477 114.458L87.2284 115.328" stroke="white" stroke-opacity="0.5" stroke-linecap="round"/>
<ellipse cx="68.9999" cy="91.1252" rx="9.77778" ry="6.48214" fill="#1F4988"/>
<g clip-path="url(#clip0_5082_12568)">
<g filter="url(#filter2_b_5082_12568)">
<path fill-rule="evenodd" clip-rule="evenodd" d="M73.2258 92.6542C73.3155 92.4994 73.1527 92.3278 72.9732 92.3671C72.7107 92.4245 72.4375 92.4548 72.157 92.4548C70.1294 92.4548 68.4857 90.8721 68.4857 88.9198C68.4857 88.0001 68.8504 87.1624 69.4482 86.5336C69.5725 86.4029 69.498 86.1819 69.3139 86.1804C69.3001 86.1802 69.2862 86.1802 69.2724 86.1802C66.7741 86.1802 64.7488 88.1302 64.7488 90.5358C64.7488 92.9413 66.7741 94.8914 69.2724 94.8914C70.972 94.8914 72.4528 93.9888 73.2258 92.6542Z" fill="#FFC329"/>
</g>
</g>
</g>
</g>
<defs>
<filter id="filter0_bdd_5082_12568" x="-4" y="-4" width="150" height="162" filterUnits="userSpaceOnUse" color-interpolation-filters="sRGB">
<feFlood flood-opacity="0" result="BackgroundImageFix"/>
<feGaussianBlur in="BackgroundImageFix" stdDeviation="10"/>
<feComposite in2="SourceAlpha" operator="in" result="effect1_backgroundBlur_5082_12568"/>
<feColorMatrix in="SourceAlpha" type="matrix" values="0 0 0 0 0 0 0 0 0 0 0 0 0 0 0 0 0 0 127 0" result="hardAlpha"/>
<feOffset dx="4" dy="4"/>
<feGaussianBlur stdDeviation="10"/>
<feComposite in2="hardAlpha" operator="out"/>
<feColorMatrix type="matrix" values="0 0 0 0 0 0 0 0 0 0 0 0 0 0 0 0 0 0 0.05 0"/>
<feBlend mode="normal" in2="effect1_backgroundBlur_5082_12568" result="effect2_dropShadow_5082_12568"/>
<feColorMatrix in="SourceAlpha" type="matrix" values="0 0 0 0 0 0 0 0 0 0 0 0 0 0 0 0 0 0 127 0" result="hardAlpha"/>
<feOffset/>
<feGaussianBlur stdDeviation="1"/>
<feComposite in2="hardAlpha" operator="out"/>
<feColorMatrix type="matrix" values="0 0 0 0 0 0 0 0 0 0 0 0 0 0 0 0 0 0 0.05 0"/>
<feBlend mode="normal" in2="effect2_dropShadow_5082_12568" result="effect3_dropShadow_5082_12568"/>
<feBlend mode="normal" in="SourceGraphic" in2="effect3_dropShadow_5082_12568" result="shape"/>
</filter>
<filter id="filter1_bd_5082_12568" x="26" y="44" width="86" height="86" filterUnits="userSpaceOnUse" color-interpolation-filters="sRGB">
<feFlood flood-opacity="0" result="BackgroundImageFix"/>
<feGaussianBlur in="BackgroundImageFix" stdDeviation="5"/>
<feComposite in2="SourceAlpha" operator="in" result="effect1_backgroundBlur_5082_12568"/>
<feColorMatrix in="SourceAlpha" type="matrix" values="0 0 0 0 0 0 0 0 0 0 0 0 0 0 0 0 0 0 127 0" result="hardAlpha"/>
<feOffset dy="1"/>
<feGaussianBlur stdDeviation="1"/>
<feComposite in2="hardAlpha" operator="out"/>
<feColorMatrix type="matrix" values="0 0 0 0 0 0 0 0 0 0 0 0 0 0 0 0 0 0 0.1 0"/>
<feBlend mode="normal" in2="effect1_backgroundBlur_5082_12568" result="effect2_dropShadow_5082_12568"/>
<feBlend mode="normal" in="SourceGraphic" in2="effect2_dropShadow_5082_12568" result="shape"/>
</filter>
<filter id="filter2_b_5082_12568" x="56.7488" y="78.1802" width="24.5024" height="24.7109" filterUnits="userSpaceOnUse" color-interpolation-filters="sRGB">
<feFlood flood-opacity="0" result="BackgroundImageFix"/>
<feGaussianBlur in="BackgroundImageFix" stdDeviation="4"/>
<feComposite in2="SourceAlpha" operator="in" result="effect1_backgroundBlur_5082_12568"/>
<feBlend mode="normal" in="SourceGraphic" in2="effect1_backgroundBlur_5082_12568" result="shape"/>
</filter>
<linearGradient id="paint0_linear_5082_12568" x1="28.0455" y1="16" x2="137.125" y2="165.064" gradientUnits="userSpaceOnUse">
<stop stop-color="white"/>
<stop offset="1" stop-color="white" stop-opacity="0"/>
</linearGradient>
<clipPath id="clip0_5082_12568">
<rect width="12.2222" height="11.7857" fill="white" transform="translate(62.8889 84.6431)"/>
</clipPath>
</defs>
</svg>
