<svg width="66" height="66" viewBox="0 0 66 66" fill="none" xmlns="http://www.w3.org/2000/svg">
<g clip-path="url(#clip0_5082_12603)">
<g filter="url(#filter0_bd_5082_12603)">
<path d="M54.5 63.6427C54.5 63.9189 54.7239 64.1427 55 64.1427C55.2761 64.1427 55.5 63.9189 55.5 63.6427H54.5ZM54.5 56.5713V63.6427H55.5V56.5713H54.5Z" fill="white" fill-opacity="0.5"/>
<path d="M23.9443 63.6427C23.9443 63.9189 24.1682 64.1427 24.4443 64.1427C24.7205 64.1427 24.9443 63.9189 24.9443 63.6427H23.9443ZM23.9443 56.5713V63.6427H24.9443V56.5713H23.9443Z" fill="white" fill-opacity="0.5"/>
<path d="M52.0557 63.6427C52.0557 63.9189 52.2795 64.1427 52.5557 64.1427C52.8318 64.1427 53.0557 63.9189 53.0557 63.6427H52.0557ZM52.0557 56.5713V63.6427H53.0557V56.5713H52.0557Z" fill="white" fill-opacity="0.5"/>
<path d="M21.5 63.6427C21.5 63.9189 21.7239 64.1427 22 64.1427C22.2761 64.1427 22.5 63.9189 22.5 63.6427H21.5ZM21.5 56.5713V63.6427H22.5V56.5713H21.5Z" fill="white" fill-opacity="0.5"/>
<path d="M49.6111 63.6427C49.6111 63.9189 49.8349 64.1427 50.1111 64.1427C50.3872 64.1427 50.6111 63.9189 50.6111 63.6427H49.6111ZM49.6111 56.5713V63.6427H50.6111V56.5713H49.6111Z" fill="white" fill-opacity="0.5"/>
<path d="M19.0557 63.6427C19.0557 63.9189 19.2795 64.1427 19.5557 64.1427C19.8318 64.1427 20.0557 63.9189 20.0557 63.6427H19.0557ZM19.0557 56.5713V63.6427H20.0557V56.5713H19.0557Z" fill="white" fill-opacity="0.5"/>
<path d="M44.7222 63.6427C44.7222 63.9189 44.946 64.1427 45.2222 64.1427C45.4983 64.1427 45.7222 63.9189 45.7222 63.6427H44.7222ZM44.7222 56.5713V63.6427H45.7222V56.5713H44.7222Z" fill="white" fill-opacity="0.5"/>
<path d="M14.1667 63.6427C14.1667 63.9189 14.3906 64.1427 14.6667 64.1427C14.9429 64.1427 15.1667 63.9189 15.1667 63.6427H14.1667ZM14.1667 56.5713V63.6427H15.1667V56.5713H14.1667Z" fill="white" fill-opacity="0.5"/>
<path d="M47.1667 63.6427C47.1667 63.9189 47.3906 64.1427 47.6667 64.1427C47.9429 64.1427 48.1667 63.9189 48.1667 63.6427H47.1667ZM47.1667 56.5713V63.6427H48.1667V56.5713H47.1667Z" fill="white" fill-opacity="0.5"/>
<path d="M16.6111 63.6427C16.6111 63.9189 16.8349 64.1427 17.1111 64.1427C17.3872 64.1427 17.6111 63.9189 17.6111 63.6427H16.6111ZM16.6111 56.5713V63.6427H17.6111V56.5713H16.6111Z" fill="white" fill-opacity="0.5"/>
<path d="M42.2778 63.6427C42.2778 63.9189 42.5017 64.1427 42.7778 64.1427C43.054 64.1427 43.2778 63.9189 43.2778 63.6427H42.2778ZM42.2778 56.5713V63.6427H43.2778V56.5713H42.2778Z" fill="white" fill-opacity="0.5"/>
<path d="M11.7222 63.6427C11.7222 63.9189 11.946 64.1427 12.2222 64.1427C12.4983 64.1427 12.7222 63.9189 12.7222 63.6427H11.7222ZM11.7222 56.5713V63.6427H12.7222V56.5713H11.7222Z" fill="white" fill-opacity="0.5"/>
<path fill-rule="evenodd" clip-rule="evenodd" d="M54.5011 16.9085C55.6374 19.7683 56.2222 21.6548 56.2222 24.7503V51.2681V52.4467V54.2146V56.5717C56.2222 57.2226 55.675 57.7503 55 57.7503H44H42.7778C42.1028 57.7503 41.5556 57.2226 41.5556 56.5717V54.2146V52.4467V51.2681V24.7503H41.5423C41.5423 23.6645 41.3371 22.5894 40.9386 21.5863C40.54 20.5831 39.9558 19.6717 39.2193 18.9039C38.4828 18.1362 37.6085 17.5271 36.6462 17.1116C35.684 16.6961 34.6526 16.4823 33.6111 16.4823C32.5696 16.4823 31.5382 16.6961 30.576 17.1116C29.6137 17.5271 28.7394 18.1362 28.0029 18.9039C27.2665 19.6717 26.6823 20.5831 26.2837 21.5863C25.8851 22.5894 25.6799 23.6645 25.6799 24.7503H25.6667V51.2681V52.4467V56.5717C25.6667 57.2226 25.1195 57.7503 24.4444 57.7503H23.2222H12.2222C11.5472 57.7503 11 57.2226 11 56.5717V52.4467V51.2681V24.7503C11 21.6548 11.5849 19.7683 12.7212 16.9085C13.8575 14.0486 15.523 11.4501 17.6226 9.26133C19.7223 7.07253 22.2149 5.33627 24.9582 4.15169C27.7015 2.96712 30.6418 2.35742 33.6111 2.35742C36.5804 2.35742 39.5207 2.96711 42.264 4.15169C45.0073 5.33626 47.5 7.07252 49.5996 9.26133C51.6992 11.4501 53.3647 14.0486 54.5011 16.9085Z" fill="#EADBC3" fill-opacity="0.85"/>
<path d="M23.2222 57.7503H12.2222C11.5472 57.7503 11 57.2226 11 56.5717V52.4467M23.2222 57.7503H24.4444C25.1195 57.7503 25.6667 57.2226 25.6667 56.5717V52.4467M23.2222 57.7503V24.7503C23.2222 18.8574 28.0029 14.1431 33.6111 14.1431C39.4565 14.1431 44 18.2681 44 24.7503V57.7503M44 57.7503H42.7778C42.1028 57.7503 41.5556 57.2226 41.5556 56.5717V54.2146V52.4467M44 57.7503H55C55.675 57.7503 56.2222 57.2226 56.2222 56.5717V54.2146V52.4467M18.3333 57.7503V24.7503C18.3333 18.8574 23.2222 9.42885 33.6111 9.42885C45.2222 9.42885 48.8889 18.9039 48.8889 24.7503V57.7503M53.7778 57.7503V24.7503C53.7778 18.9039 49.5996 4.71456 33.6111 4.71456C17.6226 4.71456 13.4444 18.8574 13.4444 24.7503V57.7503M41.5556 52.4467H56.2222M41.5556 52.4467V51.2681M56.2222 52.4467V51.2681M56.2222 51.2681V24.7503C56.2222 21.6548 55.6374 19.7683 54.5011 16.9085C53.3647 14.0486 51.6992 11.4501 49.5996 9.26133C47.4999 7.07252 45.0073 5.33626 42.264 4.15169C39.5207 2.96711 36.5804 2.35742 33.6111 2.35742C30.6418 2.35742 27.7015 2.96712 24.9582 4.15169C22.2149 5.33627 19.7223 7.07252 17.6226 9.26133C15.523 11.4501 13.8575 14.0486 12.7212 16.9085C11.5849 19.7683 11 21.6548 11 24.7503V51.2681M56.2222 51.2681H41.5556M41.5556 51.2681V24.7503H41.5423C41.5423 23.6645 41.3371 22.5894 40.9386 21.5862C40.54 20.5831 39.9558 19.6717 39.2193 18.9039C38.4828 18.1362 37.6085 17.5271 36.6462 17.1116C35.684 16.6961 34.6526 16.4823 33.6111 16.4823C32.5696 16.4823 31.5382 16.6961 30.576 17.1116C29.6137 17.5271 28.7394 18.1362 28.0029 18.9039C27.2665 19.6717 26.6823 20.5831 26.2837 21.5862C25.8851 22.5894 25.6799 23.6645 25.6799 24.7503H25.6667V51.2681M25.6667 52.4467H11M25.6667 52.4467V51.2681M11 52.4467V51.2681M11 51.2681H25.6667" stroke="white" stroke-opacity="0.5"/>
</g>
</g>
<defs>
<filter id="filter0_bd_5082_12603" x="0.5" y="-8.14258" width="66.2222" height="82.2852" filterUnits="userSpaceOnUse" color-interpolation-filters="sRGB">
<feFlood flood-opacity="0" result="BackgroundImageFix"/>
<feGaussianBlur in="BackgroundImageFix" stdDeviation="5"/>
<feComposite in2="SourceAlpha" operator="in" result="effect1_backgroundBlur_5082_12603"/>
<feColorMatrix in="SourceAlpha" type="matrix" values="0 0 0 0 0 0 0 0 0 0 0 0 0 0 0 0 0 0 127 0" result="hardAlpha"/>
<feOffset dy="1"/>
<feGaussianBlur stdDeviation="1"/>
<feComposite in2="hardAlpha" operator="out"/>
<feColorMatrix type="matrix" values="0 0 0 0 0 0 0 0 0 0 0 0 0 0 0 0 0 0 0.1 0"/>
<feBlend mode="normal" in2="effect1_backgroundBlur_5082_12603" result="effect2_dropShadow_5082_12603"/>
<feBlend mode="normal" in="SourceGraphic" in2="effect2_dropShadow_5082_12603" result="shape"/>
</filter>
<clipPath id="clip0_5082_12603">
<rect width="66" height="66" fill="white"/>
</clipPath>
</defs>
</svg>
