<svg width="146" height="158" viewBox="0 0 146 158" fill="none" xmlns="http://www.w3.org/2000/svg">
<g filter="url(#filter0_bdd_5082_12601)">
<rect x="16" y="16" width="106" height="118" rx="16" fill="white" fill-opacity="0.4" shape-rendering="crispEdges"/>
<rect x="16.5" y="16.5" width="105" height="117" rx="15.5" stroke="url(#paint0_linear_5082_12601)" stroke-opacity="0.5" shape-rendering="crispEdges"/>
<path d="M55.0294 31.532H62.3254V35.228H55.0294V31.532ZM61.3414 32.336H56.0014V34.424H61.3414V32.336ZM53.7694 36.584H63.5734V37.388H53.7694V36.584ZM58.1854 35.012H59.1694V36.884H58.1854V35.012ZM54.8614 38.504H62.3614V41.936H61.3654V39.32H54.8614V38.504ZM65.8165 36.152H73.2685V36.968H65.8165V36.152ZM64.5805 39.74H74.4085V40.58H64.5805V39.74ZM68.9725 36.5H69.9685V40.076H68.9725V36.5ZM65.8165 31.952H73.1605V32.768H66.8125V36.512H65.8165V31.952ZM83.2755 31.076H84.2715V41.948H83.2755V31.076ZM76.0035 38.504H76.9035C78.7155 38.504 80.3355 38.432 82.2555 38.12L82.3635 38.936C80.3955 39.26 78.7635 39.332 76.9035 39.332H76.0035V38.504ZM75.9795 32.096H80.9955V35.972H76.9995V38.816H76.0035V35.156H79.9875V32.912H75.9795V32.096Z" fill="#121212" fill-opacity="0.7"/>
<g clip-path="url(#clip0_5082_12601)">
<g filter="url(#filter1_bd_5082_12601)">
<path d="M90.5 117.643C90.5 117.919 90.7239 118.143 91 118.143C91.2761 118.143 91.5 117.919 91.5 117.643H90.5ZM90.5 110.571V117.643H91.5V110.571H90.5Z" fill="white" fill-opacity="0.5"/>
<path d="M59.9443 117.643C59.9443 117.919 60.1682 118.143 60.4443 118.143C60.7205 118.143 60.9443 117.919 60.9443 117.643H59.9443ZM59.9443 110.571V117.643H60.9443V110.571H59.9443Z" fill="white" fill-opacity="0.5"/>
<path d="M88.0557 117.643C88.0557 117.919 88.2795 118.143 88.5557 118.143C88.8318 118.143 89.0557 117.919 89.0557 117.643H88.0557ZM88.0557 110.571V117.643H89.0557V110.571H88.0557Z" fill="white" fill-opacity="0.5"/>
<path d="M57.5 117.643C57.5 117.919 57.7239 118.143 58 118.143C58.2761 118.143 58.5 117.919 58.5 117.643H57.5ZM57.5 110.571V117.643H58.5V110.571H57.5Z" fill="white" fill-opacity="0.5"/>
<path d="M85.6111 117.643C85.6111 117.919 85.8349 118.143 86.1111 118.143C86.3872 118.143 86.6111 117.919 86.6111 117.643H85.6111ZM85.6111 110.571V117.643H86.6111V110.571H85.6111Z" fill="white" fill-opacity="0.5"/>
<path d="M55.0557 117.643C55.0557 117.919 55.2795 118.143 55.5557 118.143C55.8318 118.143 56.0557 117.919 56.0557 117.643H55.0557ZM55.0557 110.571V117.643H56.0557V110.571H55.0557Z" fill="white" fill-opacity="0.5"/>
<path d="M80.7222 117.643C80.7222 117.919 80.946 118.143 81.2222 118.143C81.4983 118.143 81.7222 117.919 81.7222 117.643H80.7222ZM80.7222 110.571V117.643H81.7222V110.571H80.7222Z" fill="white" fill-opacity="0.5"/>
<path d="M50.1667 117.643C50.1667 117.919 50.3906 118.143 50.6667 118.143C50.9429 118.143 51.1667 117.919 51.1667 117.643H50.1667ZM50.1667 110.571V117.643H51.1667V110.571H50.1667Z" fill="white" fill-opacity="0.5"/>
<path d="M83.1667 117.643C83.1667 117.919 83.3906 118.143 83.6667 118.143C83.9429 118.143 84.1667 117.919 84.1667 117.643H83.1667ZM83.1667 110.571V117.643H84.1667V110.571H83.1667Z" fill="white" fill-opacity="0.5"/>
<path d="M52.6111 117.643C52.6111 117.919 52.8349 118.143 53.1111 118.143C53.3872 118.143 53.6111 117.919 53.6111 117.643H52.6111ZM52.6111 110.571V117.643H53.6111V110.571H52.6111Z" fill="white" fill-opacity="0.5"/>
<path d="M78.2778 117.643C78.2778 117.919 78.5017 118.143 78.7778 118.143C79.054 118.143 79.2778 117.919 79.2778 117.643H78.2778ZM78.2778 110.571V117.643H79.2778V110.571H78.2778Z" fill="white" fill-opacity="0.5"/>
<path d="M47.7222 117.643C47.7222 117.919 47.946 118.143 48.2222 118.143C48.4983 118.143 48.7222 117.919 48.7222 117.643H47.7222ZM47.7222 110.571V117.643H48.7222V110.571H47.7222Z" fill="white" fill-opacity="0.5"/>
<path fill-rule="evenodd" clip-rule="evenodd" d="M90.5011 70.9085C91.6374 73.7683 92.2222 75.6548 92.2222 78.7503V105.268V106.447V108.215V110.572C92.2222 111.223 91.675 111.75 91 111.75H80H78.7778C78.1028 111.75 77.5556 111.223 77.5556 110.572V108.215V106.447V105.268V78.7503H77.5423C77.5423 77.6645 77.3371 76.5894 76.9386 75.5863C76.54 74.5831 75.9558 73.6717 75.2193 72.9039C74.4828 72.1362 73.6085 71.5271 72.6462 71.1116C71.684 70.6961 70.6526 70.4823 69.6111 70.4823C68.5696 70.4823 67.5382 70.6961 66.576 71.1116C65.6137 71.5271 64.7394 72.1362 64.0029 72.9039C63.2665 73.6717 62.6823 74.5831 62.2837 75.5863C61.8851 76.5894 61.6799 77.6645 61.6799 78.7503H61.6667V105.268V106.447V110.572C61.6667 111.223 61.1195 111.75 60.4444 111.75H59.2222H48.2222C47.5472 111.75 47 111.223 47 110.572V106.447V105.268V78.7503C47 75.6548 47.5849 73.7683 48.7212 70.9085C49.8575 68.0486 51.523 65.4501 53.6226 63.2613C55.7223 61.0725 58.2149 59.3363 60.9582 58.1517C63.7015 56.9671 66.6418 56.3574 69.6111 56.3574C72.5804 56.3574 75.5207 56.9671 78.264 58.1517C81.0073 59.3363 83.5 61.0725 85.5996 63.2613C87.6992 65.4501 89.3647 68.0486 90.5011 70.9085Z" fill="#EADBC3" fill-opacity="0.85"/>
<path d="M59.2222 111.75H48.2222C47.5472 111.75 47 111.223 47 110.572V106.447M59.2222 111.75H60.4444C61.1195 111.75 61.6667 111.223 61.6667 110.572V106.447M59.2222 111.75V78.7503C59.2222 72.8574 64.0029 68.1431 69.6111 68.1431C75.4565 68.1431 80 72.2681 80 78.7503V111.75M80 111.75H78.7778C78.1028 111.75 77.5556 111.223 77.5556 110.572V108.215V106.447M80 111.75H91C91.675 111.75 92.2222 111.223 92.2222 110.572V108.215V106.447M54.3333 111.75V78.7503C54.3333 72.8574 59.2222 63.4289 69.6111 63.4289C81.2222 63.4289 84.8889 72.9039 84.8889 78.7503V111.75M89.7778 111.75V78.7503C89.7778 72.9039 85.5996 58.7146 69.6111 58.7146C53.6226 58.7146 49.4444 72.8574 49.4444 78.7503V111.75M77.5556 106.447H92.2222M77.5556 106.447V105.268M92.2222 106.447V105.268M92.2222 105.268V78.7503C92.2222 75.6548 91.6374 73.7683 90.5011 70.9085C89.3647 68.0486 87.6992 65.4501 85.5996 63.2613C83.4999 61.0725 81.0073 59.3363 78.264 58.1517C75.5207 56.9671 72.5804 56.3574 69.6111 56.3574C66.6418 56.3574 63.7015 56.9671 60.9582 58.1517C58.2149 59.3363 55.7223 61.0725 53.6226 63.2613C51.523 65.4501 49.8575 68.0486 48.7212 70.9085C47.5849 73.7683 47 75.6548 47 78.7503V105.268M92.2222 105.268H77.5556M77.5556 105.268V78.7503H77.5423C77.5423 77.6645 77.3371 76.5894 76.9386 75.5862C76.54 74.5831 75.9558 73.6717 75.2193 72.9039C74.4828 72.1362 73.6085 71.5271 72.6462 71.1116C71.684 70.6961 70.6526 70.4823 69.6111 70.4823C68.5696 70.4823 67.5382 70.6961 66.576 71.1116C65.6137 71.5271 64.7394 72.1362 64.0029 72.9039C63.2665 73.6717 62.6823 74.5831 62.2837 75.5862C61.8851 76.5894 61.6799 77.6645 61.6799 78.7503H61.6667V105.268M61.6667 106.447H47M61.6667 106.447V105.268M47 106.447V105.268M47 105.268H61.6667" stroke="white" stroke-opacity="0.5"/>
</g>
</g>
</g>
<defs>
<filter id="filter0_bdd_5082_12601" x="-4" y="-4" width="150" height="162" filterUnits="userSpaceOnUse" color-interpolation-filters="sRGB">
<feFlood flood-opacity="0" result="BackgroundImageFix"/>
<feGaussianBlur in="BackgroundImageFix" stdDeviation="10"/>
<feComposite in2="SourceAlpha" operator="in" result="effect1_backgroundBlur_5082_12601"/>
<feColorMatrix in="SourceAlpha" type="matrix" values="0 0 0 0 0 0 0 0 0 0 0 0 0 0 0 0 0 0 127 0" result="hardAlpha"/>
<feOffset dx="4" dy="4"/>
<feGaussianBlur stdDeviation="10"/>
<feComposite in2="hardAlpha" operator="out"/>
<feColorMatrix type="matrix" values="0 0 0 0 0 0 0 0 0 0 0 0 0 0 0 0 0 0 0.05 0"/>
<feBlend mode="normal" in2="effect1_backgroundBlur_5082_12601" result="effect2_dropShadow_5082_12601"/>
<feColorMatrix in="SourceAlpha" type="matrix" values="0 0 0 0 0 0 0 0 0 0 0 0 0 0 0 0 0 0 127 0" result="hardAlpha"/>
<feOffset/>
<feGaussianBlur stdDeviation="1"/>
<feComposite in2="hardAlpha" operator="out"/>
<feColorMatrix type="matrix" values="0 0 0 0 0 0 0 0 0 0 0 0 0 0 0 0 0 0 0.05 0"/>
<feBlend mode="normal" in2="effect2_dropShadow_5082_12601" result="effect3_dropShadow_5082_12601"/>
<feBlend mode="normal" in="SourceGraphic" in2="effect3_dropShadow_5082_12601" result="shape"/>
</filter>
<filter id="filter1_bd_5082_12601" x="36.5" y="45.8574" width="66.2222" height="82.2852" filterUnits="userSpaceOnUse" color-interpolation-filters="sRGB">
<feFlood flood-opacity="0" result="BackgroundImageFix"/>
<feGaussianBlur in="BackgroundImageFix" stdDeviation="5"/>
<feComposite in2="SourceAlpha" operator="in" result="effect1_backgroundBlur_5082_12601"/>
<feColorMatrix in="SourceAlpha" type="matrix" values="0 0 0 0 0 0 0 0 0 0 0 0 0 0 0 0 0 0 127 0" result="hardAlpha"/>
<feOffset dy="1"/>
<feGaussianBlur stdDeviation="1"/>
<feComposite in2="hardAlpha" operator="out"/>
<feColorMatrix type="matrix" values="0 0 0 0 0 0 0 0 0 0 0 0 0 0 0 0 0 0 0.1 0"/>
<feBlend mode="normal" in2="effect1_backgroundBlur_5082_12601" result="effect2_dropShadow_5082_12601"/>
<feBlend mode="normal" in="SourceGraphic" in2="effect2_dropShadow_5082_12601" result="shape"/>
</filter>
<linearGradient id="paint0_linear_5082_12601" x1="28.0455" y1="16" x2="137.125" y2="165.064" gradientUnits="userSpaceOnUse">
<stop stop-color="white"/>
<stop offset="1" stop-color="white" stop-opacity="0"/>
</linearGradient>
<clipPath id="clip0_5082_12601">
<rect width="66" height="66" fill="white" transform="translate(36 54)"/>
</clipPath>
</defs>
</svg>
