<svg width="146" height="158" viewBox="0 0 146 158" fill="none" xmlns="http://www.w3.org/2000/svg">
<g filter="url(#filter0_bdd_5082_12711)">
<g clip-path="url(#clip0_5082_12711)">
<rect x="16" y="16" width="106" height="118" rx="16" fill="white" fill-opacity="0.4" shape-rendering="crispEdges"/>
<path d="M66.5649 31.088H67.5609V41.936H66.5649V31.088ZM59.3649 32.144H60.3489V38.864H59.3649V32.144ZM59.3649 38.276H60.2529C61.8969 38.276 63.6129 38.156 65.4489 37.772L65.5689 38.624C63.6849 39.008 61.9689 39.14 60.2529 39.14H59.3649V38.276ZM70.74 36.932H78.192V37.736H70.74V36.932ZM69.48 39.716H79.308V40.544H69.48V39.716ZM70.74 32.012H78.072V32.828H71.748V37.184H70.74V32.012ZM71.424 34.436H77.844V35.228H71.424V34.436Z" fill="#121212" fill-opacity="0.7"/>
<g filter="url(#filter1_bd_5082_12711)">
<g filter="url(#filter2_bdd_5082_12711)">
<path d="M83.5027 115.982H52.9028C52.5352 114.961 52.1752 113.812 51.8431 112.539L45.1781 111.495C44.7782 111.432 44.4543 111.135 44.3668 110.74C42.5284 102.443 43.4386 92.8937 46.2848 78.3716C46.6796 76.3569 47.8526 74.5803 49.537 73.4065L53.5017 70.6437L60.011 67.5252C60.4482 67.3157 60.9478 67.2743 61.4167 67.3979C66.4198 68.7165 69.7466 68.697 75.5377 67.3699C76.0046 67.2629 76.4962 67.321 76.9219 67.5406L84.0483 71.2176L88.8114 74.6406C90.3749 75.7642 91.4876 77.4174 91.9099 79.2959C95.3787 94.7267 95.2993 102.167 93.1922 110.754C93.0973 111.141 92.7783 111.433 92.3851 111.496L85.9187 112.539C85.7854 113.125 85.6572 113.694 85.5421 114.264C85.3445 115.244 84.5019 115.982 83.5027 115.982Z" fill="#999999"/>
<path d="M52.3039 80.9741C49.023 94.7217 50.0077 105.508 51.8431 112.539M85.2464 80.9741C88.6485 101.007 87.0874 107.406 85.9187 112.539M51.8431 112.539C52.1752 113.812 52.5352 114.961 52.9028 115.982H83.5027C84.5019 115.982 85.3445 115.244 85.5421 114.264C85.6572 113.694 85.7854 113.125 85.9187 112.539M51.8431 112.539L45.1781 111.495C44.7782 111.432 44.4543 111.135 44.3668 110.74C42.5284 102.443 43.4386 92.8937 46.2848 78.3716C46.6796 76.3569 47.8526 74.5803 49.537 73.4065L53.5017 70.6437L60.011 67.5252C60.4482 67.3157 60.9478 67.2743 61.4167 67.3979C66.4198 68.7165 69.7466 68.697 75.5377 67.3699C76.0046 67.2629 76.4962 67.321 76.9219 67.5406L84.0483 71.2176L88.8114 74.6406C90.3749 75.7642 91.4876 77.4174 91.9099 79.2959C95.3786 94.7267 95.2993 102.167 93.1922 110.754C93.0973 111.141 92.7783 111.433 92.3851 111.496L85.9187 112.539" stroke="white" stroke-opacity="0.5" stroke-linecap="round"/>
</g>
<path fill-rule="evenodd" clip-rule="evenodd" d="M71.4143 62.5967C70.8516 62.9044 70.2318 63.1088 69.5897 63.2021V65.0998C69.7101 65.1342 69.8285 65.1765 69.944 65.2267L88.8012 74.3435C91.3768 75.4642 90.4979 78.9781 87.642 78.9781H49.9081C47.0522 78.9781 46.1733 75.4642 48.7489 74.3435L67.6255 65.2267C67.741 65.1765 67.8594 65.1342 67.9798 65.0998V62.0207C67.9798 61.8977 68.0896 61.798 68.225 61.798C68.933 61.7732 70.0258 61.5545 70.5378 61.2745C71.1136 60.9596 71.5737 60.4967 71.8599 59.9443C72.1461 59.3919 72.2455 58.7748 72.1455 58.1711C72.0456 57.5674 71.7508 57.0042 71.2984 56.5526C70.846 56.1011 70.2563 55.7815 69.604 55.6344C68.9516 55.4872 68.2659 55.5191 67.6335 55.7259C67.001 55.9327 66.4503 56.3052 66.051 56.7963C65.7585 57.156 65.5568 57.5676 65.4574 58.0017C65.397 58.2653 65.15 58.4745 64.854 58.4618L64.2286 58.435C63.9326 58.4224 63.701 58.1934 63.746 57.9274C63.871 57.1881 64.1918 56.4848 64.6841 55.8793C65.2831 55.1427 66.1092 54.584 67.0578 54.2738C68.0065 53.9635 69.0351 53.9158 70.0136 54.1365C70.9921 54.3573 71.8766 54.8366 72.5552 55.5139C73.2338 56.1912 73.676 57.036 73.8259 57.9416C73.9758 58.8472 73.8267 59.7728 73.3975 60.6014C72.9682 61.43 72.278 62.1244 71.4143 62.5967ZM69.2484 66.5453L88.1057 75.6621C89.1359 76.1104 88.7844 77.516 87.642 77.516H49.9081C48.7658 77.516 48.4142 76.1104 49.4444 75.6621L68.3211 66.5453C68.6142 66.4178 68.9553 66.4178 69.2484 66.5453Z" fill="black"/>
<path d="M57.6947 68.4036C58.3792 68.1159 59.1009 67.8234 59.8629 67.523C60.3884 67.3159 60.9784 67.3427 61.474 67.6139C61.9269 67.8618 62.3966 68.1311 62.8749 68.4036C63.5347 68.7794 64.211 69.1611 64.8821 69.5004C65.4906 69.808 66.0949 70.0808 66.679 70.2827C67.3081 70.5002 67.9137 70.6355 68.4758 70.6437C69.0898 70.6526 69.7375 70.5141 70.4012 70.2827C70.9809 70.0807 71.5728 69.8078 72.1653 69.5004C72.8202 69.1607 73.4757 68.7787 74.116 68.4036L74.2167 68.3446C74.6605 68.0845 75.0966 67.8289 75.5197 67.5943C75.9899 67.3336 76.5487 67.2983 77.0572 67.4727C77.9885 67.792 78.8737 68.0977 79.7168 68.4036C84.8935 70.2818 88.4805 72.1693 91.4002 77.3064C91.698 77.8303 91.9134 78.3973 92.0568 78.9825C95.0767 91.3021 94.8012 106.404 92.9908 115.982C92.8428 116.765 92.6846 117.511 92.5171 118.215C92.425 118.603 92.1059 118.893 91.7128 118.957L90.6003 119.136L90.1309 119.212L88.8403 119.42L87.886 119.574L86.5554 119.589C86.0042 119.595 85.5521 119.154 85.5444 118.603L85.5238 117.12L85.4555 117.131L85.4742 116.683C85.4805 116.467 85.4868 116.195 85.4933 115.902C84.8714 115.962 84.2629 116.018 83.6666 116.072C82.8287 116.147 82.015 116.215 81.2221 116.278C80.3853 116.345 79.5718 116.405 78.7777 116.458C77.9428 116.514 77.1295 116.562 76.3333 116.604C75.5015 116.647 74.6883 116.683 73.8888 116.711C73.0613 116.74 72.2484 116.761 71.4444 116.774C70.6222 116.787 69.8094 116.792 68.9999 116.789C68.1837 116.786 67.371 116.775 66.5555 116.755C65.7453 116.736 64.9325 116.709 64.111 116.674C63.3065 116.64 62.4935 116.598 61.6666 116.549C60.8664 116.502 60.053 116.448 59.2214 116.388C58.4251 116.33 57.612 116.266 56.7777 116.196C55.9834 116.129 55.1699 116.057 54.3333 115.98C53.7479 115.926 53.1512 115.87 52.5419 115.811V117.131V118.499C52.5419 119.019 52.1424 119.453 51.6235 119.496L50.3486 119.6L47.7941 119.2L46.238 118.956C45.8381 118.893 45.5147 118.596 45.4241 118.201C45.2619 117.495 45.1044 116.755 44.9535 115.982C43.2107 107.065 42.3426 93.8846 45.1303 79.3172C45.2842 78.513 45.5634 77.7334 45.9992 77.0403C48.4568 73.132 51.6074 70.9611 57.6947 68.4036Z" fill="#C58F3D"/>
<path d="M52.3039 80.9741C50.1434 92.9895 51.464 105.444 52.4053 113.518M85.2463 80.9741C87.2688 97.0505 86.1737 106.693 85.5583 113.518M57.6947 68.4036C58.3792 68.1159 59.1009 67.8234 59.8629 67.523C60.3884 67.3159 60.9784 67.3427 61.474 67.6139C61.9269 67.8618 62.3966 68.1311 62.8749 68.4036M57.6947 68.4036C51.6074 70.9611 48.4568 73.132 45.9992 77.0403C45.5634 77.7334 45.2842 78.513 45.1303 79.3172C42.3426 93.8846 43.2107 107.065 44.9535 115.982M57.6947 68.4036L60.0905 69.9216M79.7168 68.4036C84.8935 70.2818 88.4805 72.1693 91.4002 77.3064C91.698 77.8303 91.9134 78.3973 92.0568 78.9825C95.0767 91.3021 94.8012 106.404 92.9908 115.982M79.7168 68.4036C78.8737 68.0977 77.9885 67.792 77.0572 67.4727C76.5487 67.2983 75.9899 67.3336 75.5197 67.5943C75.0647 67.8466 74.5946 68.1232 74.116 68.4036M79.7168 68.4036L77.0162 70.0448M68.4758 74.0871L65.6754 73.4605M68.4758 74.0871L71.3958 73.4605M68.4758 74.0871V70.6437M68.4758 70.6437C67.9137 70.6355 67.3081 70.5002 66.679 70.2827M68.4758 70.6437C69.0898 70.6526 69.7375 70.5141 70.4012 70.2827M52.5419 117.131L50.1173 116.764M52.5419 117.131C52.4976 116.765 52.4519 113.918 52.4053 113.518M52.5419 117.131V115.811M44.9535 115.982C45.1044 116.755 45.2619 117.495 45.4241 118.201C45.5147 118.596 45.8381 118.893 46.238 118.956L47.7941 119.2M44.9535 115.982L47.5125 116.37M85.4555 117.131L87.1867 116.867L88.1367 116.722M85.4555 117.131C85.4876 116.766 85.5221 113.919 85.5583 113.518M85.4555 117.131L85.5069 115.901M92.9908 115.982C92.8428 116.765 92.6846 117.511 92.5171 118.215C92.425 118.603 92.1059 118.893 91.7128 118.957L90.6003 119.136L90.1309 119.212M92.9908 115.982L90.9095 116.3L90.3892 116.379M60.0905 69.9216L62.8749 68.4036M60.0905 69.9216L62.8749 71.6859M62.8749 68.4036C63.5347 68.7794 64.211 69.1611 64.8821 69.5004M62.8749 71.6859L64.8821 69.5004M62.8749 71.6859L65.6754 73.4605M64.8821 69.5004C65.4906 69.808 66.0949 70.0808 66.679 70.2827M65.6754 73.4605L66.679 70.2827M71.3958 73.4605L70.4012 70.2827M71.3958 73.4605L74.3157 71.6859M70.4012 70.2827C70.9809 70.0807 71.5728 69.8078 72.1653 69.5004M74.3157 71.6859L72.1653 69.5004M74.3157 71.6859L77.0162 70.0448M72.1653 69.5004C72.8202 69.1607 73.4757 68.7787 74.116 68.4036M77.0162 70.0448L74.116 68.4036M47.5125 116.37L47.7941 119.2M47.5125 116.37L50.1173 116.764M47.7941 119.2L50.3486 119.6M50.3486 119.6L50.1173 116.764M50.3486 119.6L51.6235 119.496C52.1424 119.453 52.5419 119.019 52.5419 118.499V115.811M87.886 119.574L88.8403 119.42L90.1309 119.212M87.886 119.574L88.1367 116.722M87.886 119.574L86.5554 119.589C86.0042 119.595 85.5521 119.154 85.5444 118.603L85.5069 115.901M88.1367 116.722L89.0866 116.577L90.3892 116.379M90.1309 119.212L90.3892 116.379M85.5583 113.518C84.9144 113.567 84.2843 113.613 83.6666 113.658M52.4053 113.518C53.0617 113.573 53.7039 113.624 54.3333 113.673M52.5419 115.811C53.1512 115.87 53.7479 115.926 54.3333 115.98M85.5069 115.901C84.8803 115.961 84.2672 116.018 83.6666 116.072M83.6666 116.072V113.658M83.6666 116.072C82.8287 116.147 82.015 116.215 81.2221 116.278M83.6666 113.658C82.8302 113.718 82.0165 113.774 81.2221 113.826M81.2221 113.826V116.278M81.2221 113.826C80.3873 113.881 79.5739 113.93 78.7777 113.976M81.2221 116.278C80.3853 116.345 79.5718 116.405 78.7777 116.458M78.7777 113.976V116.458M78.7777 113.976C77.9454 114.023 77.1321 114.065 76.3333 114.102M78.7777 116.458C77.9428 116.514 77.1295 116.562 76.3333 116.604M76.3333 114.102V116.604M76.3333 114.102C75.5046 114.14 74.6914 114.172 73.8888 114.199M76.3333 116.604C75.5015 116.647 74.6883 116.683 73.8888 116.711M73.8888 114.199V116.711M73.8888 114.199C73.0647 114.226 72.2517 114.247 71.4444 114.262M73.8888 116.711C73.0613 116.74 72.2484 116.761 71.4444 116.774M71.4444 114.262V116.774M71.4444 114.262C70.6257 114.277 69.8128 114.286 68.9999 114.288M71.4444 116.774C70.6222 116.787 69.8094 116.792 68.9999 116.789M68.9999 114.288V116.789M68.9999 114.288C68.1869 114.29 67.374 114.286 66.5555 114.274M68.9999 116.789C68.1837 116.786 67.371 116.775 66.5555 116.755M66.5555 114.274V116.755M66.5555 114.274C65.7479 114.263 64.9349 114.245 64.111 114.221M66.5555 116.755C65.7453 116.736 64.9325 116.709 64.111 116.674M64.111 114.221V116.674M64.111 114.221C63.3083 114.197 62.4951 114.167 61.6666 114.13M64.111 116.674C63.3065 116.64 62.4935 116.598 61.6666 116.549M61.6666 114.13V116.549M61.6666 114.13C60.8676 114.095 60.0543 114.053 59.2221 114.005M61.6666 116.549C60.8664 116.502 60.053 116.448 59.2214 116.388M59.2221 114.005L59.2214 116.388M59.2221 114.005C58.4259 113.96 57.6124 113.909 56.7777 113.852M59.2214 116.388C58.4251 116.33 57.612 116.266 56.7777 116.196M56.7777 113.852V116.196M56.7777 113.852C55.9833 113.797 55.1696 113.738 54.3333 113.673M56.7777 116.196C55.9834 116.129 55.1699 116.057 54.3333 115.98M54.3333 113.673V115.98" stroke="white" stroke-opacity="0.5" stroke-linecap="round" stroke-linejoin="round"/>
</g>
</g>
<rect x="16.5" y="16.5" width="105" height="117" rx="15.5" stroke="url(#paint0_linear_5082_12711)" stroke-opacity="0.5" shape-rendering="crispEdges"/>
</g>
<defs>
<filter id="filter0_bdd_5082_12711" x="-4" y="-4" width="150" height="162" filterUnits="userSpaceOnUse" color-interpolation-filters="sRGB">
<feFlood flood-opacity="0" result="BackgroundImageFix"/>
<feGaussianBlur in="BackgroundImageFix" stdDeviation="10"/>
<feComposite in2="SourceAlpha" operator="in" result="effect1_backgroundBlur_5082_12711"/>
<feColorMatrix in="SourceAlpha" type="matrix" values="0 0 0 0 0 0 0 0 0 0 0 0 0 0 0 0 0 0 127 0" result="hardAlpha"/>
<feOffset dx="4" dy="4"/>
<feGaussianBlur stdDeviation="10"/>
<feComposite in2="hardAlpha" operator="out"/>
<feColorMatrix type="matrix" values="0 0 0 0 0 0 0 0 0 0 0 0 0 0 0 0 0 0 0.05 0"/>
<feBlend mode="normal" in2="effect1_backgroundBlur_5082_12711" result="effect2_dropShadow_5082_12711"/>
<feColorMatrix in="SourceAlpha" type="matrix" values="0 0 0 0 0 0 0 0 0 0 0 0 0 0 0 0 0 0 127 0" result="hardAlpha"/>
<feOffset/>
<feGaussianBlur stdDeviation="1"/>
<feComposite in2="hardAlpha" operator="out"/>
<feColorMatrix type="matrix" values="0 0 0 0 0 0 0 0 0 0 0 0 0 0 0 0 0 0 0.05 0"/>
<feBlend mode="normal" in2="effect2_dropShadow_5082_12711" result="effect3_dropShadow_5082_12711"/>
<feBlend mode="normal" in="SourceGraphic" in2="effect3_dropShadow_5082_12711" result="shape"/>
</filter>
<filter id="filter1_bd_5082_12711" x="32.8333" y="44" width="72.3333" height="86.1001" filterUnits="userSpaceOnUse" color-interpolation-filters="sRGB">
<feFlood flood-opacity="0" result="BackgroundImageFix"/>
<feGaussianBlur in="BackgroundImageFix" stdDeviation="5"/>
<feComposite in2="SourceAlpha" operator="in" result="effect1_backgroundBlur_5082_12711"/>
<feColorMatrix in="SourceAlpha" type="matrix" values="0 0 0 0 0 0 0 0 0 0 0 0 0 0 0 0 0 0 127 0" result="hardAlpha"/>
<feOffset dy="1"/>
<feGaussianBlur stdDeviation="1"/>
<feComposite in2="hardAlpha" operator="out"/>
<feColorMatrix type="matrix" values="0 0 0 0 0 0 0 0 0 0 0 0 0 0 0 0 0 0 0.1 0"/>
<feBlend mode="normal" in2="effect1_backgroundBlur_5082_12711" result="effect2_dropShadow_5082_12711"/>
<feBlend mode="normal" in="SourceGraphic" in2="effect2_dropShadow_5082_12711" result="shape"/>
</filter>
<filter id="filter2_bdd_5082_12711" x="22.9119" y="46.8179" width="96.2546" height="93.6646" filterUnits="userSpaceOnUse" color-interpolation-filters="sRGB">
<feFlood flood-opacity="0" result="BackgroundImageFix"/>
<feGaussianBlur in="BackgroundImageFix" stdDeviation="10"/>
<feComposite in2="SourceAlpha" operator="in" result="effect1_backgroundBlur_5082_12711"/>
<feColorMatrix in="SourceAlpha" type="matrix" values="0 0 0 0 0 0 0 0 0 0 0 0 0 0 0 0 0 0 127 0" result="hardAlpha"/>
<feOffset dx="4" dy="4"/>
<feGaussianBlur stdDeviation="10"/>
<feColorMatrix type="matrix" values="0 0 0 0 0 0 0 0 0 0 0 0 0 0 0 0 0 0 0.05 0"/>
<feBlend mode="normal" in2="effect1_backgroundBlur_5082_12711" result="effect2_dropShadow_5082_12711"/>
<feColorMatrix in="SourceAlpha" type="matrix" values="0 0 0 0 0 0 0 0 0 0 0 0 0 0 0 0 0 0 127 0" result="hardAlpha"/>
<feOffset/>
<feGaussianBlur stdDeviation="1"/>
<feColorMatrix type="matrix" values="0 0 0 0 0 0 0 0 0 0 0 0 0 0 0 0 0 0 0.05 0"/>
<feBlend mode="normal" in2="effect2_dropShadow_5082_12711" result="effect3_dropShadow_5082_12711"/>
<feBlend mode="normal" in="SourceGraphic" in2="effect3_dropShadow_5082_12711" result="shape"/>
</filter>
<linearGradient id="paint0_linear_5082_12711" x1="28.0455" y1="16" x2="137.125" y2="165.064" gradientUnits="userSpaceOnUse">
<stop stop-color="white"/>
<stop offset="1" stop-color="white" stop-opacity="0"/>
</linearGradient>
<clipPath id="clip0_5082_12711">
<rect x="16" y="16" width="106" height="118" rx="16" fill="white"/>
</clipPath>
</defs>
</svg>
