<svg width="146" height="158" viewBox="0 0 146 158" fill="none" xmlns="http://www.w3.org/2000/svg">
<g filter="url(#filter0_bdd_5082_12718)">
<g clip-path="url(#clip0_5082_12718)">
<rect x="16" y="16" width="106" height="118" rx="16" fill="white" fill-opacity="0.4" shape-rendering="crispEdges"/>
<path d="M61.5609 31.916C63.1569 31.916 64.2849 33.392 64.2849 35.696C64.2849 38.012 63.1569 39.488 61.5609 39.488C59.9649 39.488 58.8369 38.012 58.8369 35.696C58.8369 33.392 59.9649 31.916 61.5609 31.916ZM61.5609 32.816C60.5049 32.816 59.7849 33.944 59.7849 35.696C59.7849 37.46 60.5049 38.612 61.5609 38.612C62.6049 38.612 63.3369 37.46 63.3369 35.696C63.3369 33.944 62.6049 32.816 61.5609 32.816ZM66.7449 33.812H68.7369V34.652H66.7449V33.812ZM66.7449 37.04H68.7369V37.88H66.7449V37.04ZM66.0129 31.088H67.0209V41.936H66.0129V31.088ZM72.108 31.652H72.936V32.756C72.936 34.844 71.76 36.572 69.948 37.28L69.42 36.476C71.052 35.876 72.108 34.412 72.108 32.756V31.652ZM72.288 31.652H73.104V32.828C73.104 34.292 74.184 35.648 75.744 36.188L75.216 36.968C73.476 36.32 72.288 34.712 72.288 32.828V31.652ZM76.896 31.088H77.892V37.664H76.896V31.088ZM77.616 33.884H79.5V34.724H77.616V33.884ZM74.436 37.964C76.656 37.964 78 38.696 78 39.944C78 41.192 76.656 41.912 74.436 41.912C72.216 41.912 70.872 41.192 70.872 39.944C70.872 38.696 72.216 37.964 74.436 37.964ZM74.436 38.756C72.828 38.756 71.844 39.188 71.844 39.944C71.844 40.7 72.828 41.132 74.436 41.132C76.044 41.132 77.028 40.7 77.028 39.944C77.028 39.188 76.044 38.756 74.436 38.756Z" fill="#121212" fill-opacity="0.7"/>
<g filter="url(#filter1_bd_5082_12718)">
<path d="M76.9167 73.5596C83.9231 74.4829 84.1398 68.9206 84.7564 66.9647C72.7945 62.4746 65.525 62.1379 51.1453 66.9647C52.6035 68.5066 54.4519 73.6185 58.4897 73.5012C58.8895 73.4896 59.2905 73.4467 59.6905 73.4467H67.6453H75.4766C75.9584 73.4467 76.439 73.4967 76.9167 73.5596Z" fill="#333722"/>
<path d="M52.8766 77.5717C51.4848 76.2123 51.7505 70.4753 51.1453 66.9647M51.1453 66.9647C52.6035 68.5066 54.4519 73.6185 58.4897 73.5012C58.8895 73.4896 59.2905 73.4467 59.6905 73.4467H67.6453H75.4766C75.9584 73.4467 76.439 73.4967 76.9167 73.5596C83.9231 74.4829 84.1398 68.9206 84.7564 66.9647M51.1453 66.9647C65.525 62.1379 72.7945 62.4746 84.7564 66.9647M84.7564 66.9647C84.2041 69.5956 85.577 75.4997 84.0134 77.5717" stroke="white" stroke-opacity="0.5" stroke-linecap="round"/>
<g filter="url(#filter2_bdd_5082_12718)">
<path d="M53.2293 73.7709C54.3771 73.0242 55.235 71.98 56.1289 70.7049C56.7253 69.8542 57.8609 69.5755 58.8512 69.8899C63.6727 71.4211 72.4376 71.1215 78.1551 69.7926C79.1591 69.5592 80.1898 70.0624 80.7099 70.9525C81.6221 72.5135 82.7478 73.5283 84.3342 74.1414C88.5313 75.7637 92.5369 78.5736 92.6304 83.0724L93.282 114.441C93.2998 115.299 92.769 116.072 91.9624 116.364L88.4229 117.643H49.2763L45.0482 115.82C44.3007 115.497 43.8232 114.754 43.8407 113.94L44.4922 83.6509C44.5936 78.9371 49.2773 76.3423 53.2293 73.7709Z" fill="#333722"/>
</g>
<path fill-rule="evenodd" clip-rule="evenodd" d="M71.2545 65.1844C70.6805 65.5003 70.0481 65.7103 69.3929 65.806V67.7545C69.5158 67.7898 69.6366 67.8333 69.7544 67.8849L91.132 77.2459C93.7598 78.3966 92.863 82.0046 89.9492 82.0046H47.1941C44.2803 82.0046 43.3835 78.3966 46.0113 77.2459L67.3889 67.8849C67.5067 67.8333 67.6275 67.7898 67.7504 67.7545V64.5929C67.7504 64.4667 67.8624 64.3643 68.0005 64.3643C68.7229 64.3388 69.8379 64.1143 70.3602 63.8268C70.9478 63.5035 71.4172 63.0281 71.7092 62.4609C72.0012 61.8937 72.1026 61.2601 72.0006 60.6403C71.8987 60.0204 71.5979 59.442 71.1363 58.9784C70.6747 58.5148 70.0731 58.1867 69.4075 58.0356C68.7419 57.8845 68.0423 57.9172 67.397 58.1295C66.7517 58.3419 66.1898 58.7244 65.7824 59.2286C65.4839 59.598 65.2781 60.0206 65.1767 60.4664C65.1152 60.7369 64.8631 60.9518 64.5611 60.9388L63.923 60.9113C63.621 60.8983 63.3847 60.6632 63.4306 60.39C63.5581 59.6309 63.8854 58.9088 64.3878 58.2871C64.9989 57.5308 65.8418 56.9571 66.8097 56.6385C67.7776 56.32 68.8271 56.271 69.8254 56.4976C70.8238 56.7243 71.7263 57.2164 72.4186 57.9119C73.111 58.6073 73.5622 59.4748 73.7151 60.4046C73.8681 61.3344 73.716 62.2848 73.278 63.1356C72.84 63.9864 72.1358 64.6994 71.2545 65.1844ZM69.0448 69.2388L90.4223 78.5998C91.4734 79.0601 91.1147 80.5033 89.9492 80.5033H47.1941C46.0286 80.5033 45.6699 79.0601 46.721 78.5998L68.0985 69.2388C68.3977 69.1078 68.7456 69.1078 69.0448 69.2388Z" fill="black"/>
<path d="M49.5392 73.206L55.5224 71.1648C56.4635 70.8438 57.4845 71.2737 58.0483 72.0928C59.9846 74.9056 62.9705 76.9072 66.423 77.5013V117.643H50.534H44.3585C43.3484 117.643 42.4929 116.892 42.3967 115.886C41.7999 109.65 42.0246 101.818 44.1711 79.9714C44.4769 76.8591 46.5794 74.2157 49.5392 73.206Z" fill="#444B28"/>
<path d="M93.0164 79.9912C95.3905 102.07 95.6851 107.545 95.2528 115.764C95.1972 116.82 94.3208 117.643 93.2636 117.643H87.2006H70.0896L69.4785 77.6518C73.413 77.3713 76.8599 75.2799 79.029 72.1867C79.5898 71.3869 80.5891 70.9659 81.5171 71.2706L87.5622 73.255C90.5449 74.2341 92.6808 76.8698 93.0164 79.9912Z" fill="#444B28"/>
<path d="M50.534 117.643H44.3585C43.3484 117.643 42.4929 116.892 42.3967 115.886C41.7999 109.65 42.0246 101.818 44.1711 79.9714C44.4769 76.8591 46.5794 74.2157 49.5392 73.206L55.5224 71.1648C56.4635 70.8438 57.4845 71.2737 58.0483 72.0928C59.9846 74.9056 62.9705 76.9072 66.423 77.5013V117.643H50.534ZM50.534 117.643L50.594 115.286M87.2006 117.643H93.2636C94.3208 117.643 95.1972 116.82 95.2528 115.764C95.6851 107.545 95.3905 102.07 93.0164 79.9912C92.6808 76.8698 90.5449 74.2341 87.5622 73.255L81.5171 71.2706C80.5891 70.9659 79.5898 71.3869 79.029 72.1867C76.8599 75.2799 73.413 77.3713 69.4785 77.6518L70.0896 117.643H87.2006ZM87.2006 117.643L87.1427 115.286M51.2549 89.3573L50.8644 104.679M86.5058 89.3573L86.8822 104.679M76.2008 108.214V105.079C76.2008 104.858 76.3799 104.679 76.6008 104.679H86.8822M76.2008 108.214V114.886C76.2008 115.107 76.3799 115.286 76.6008 115.286H87.1427M76.2008 108.214H86.969M60.923 108.214V105.079C60.923 104.858 60.744 104.679 60.523 104.679H50.8644M60.923 108.214V114.886C60.923 115.107 60.744 115.286 60.523 115.286H50.594M60.923 108.214H50.7743M50.8644 104.679L50.7743 108.214M50.7743 108.214L50.594 115.286M86.8822 104.679L86.969 108.214M86.969 108.214L87.1427 115.286" stroke="white" stroke-opacity="0.5" stroke-linecap="round"/>
<path d="M85.3674 72.8577L84.7563 66.9648C78.8992 69.8918 75.4443 71.8333 68.8674 73.447V78.1613C75.8525 77.1828 79.5243 76.1408 85.3674 72.8577Z" fill="#444B28" stroke="white" stroke-opacity="0.5" stroke-linecap="round" stroke-linejoin="round"/>
<path d="M50.5342 72.8577L51.1453 66.9648C57.0024 69.8918 60.4573 71.8333 67.0342 73.447V78.1613C60.0491 77.1828 56.3773 76.1408 50.5342 72.8577Z" fill="#444B28" stroke="white" stroke-opacity="0.5" stroke-linecap="round" stroke-linejoin="round"/>
</g>
</g>
<rect x="16.5" y="16.5" width="105" height="117" rx="15.5" stroke="url(#paint0_linear_5082_12718)" stroke-opacity="0.5" shape-rendering="crispEdges"/>
</g>
<defs>
<filter id="filter0_bdd_5082_12718" x="-4" y="-4" width="150" height="162" filterUnits="userSpaceOnUse" color-interpolation-filters="sRGB">
<feFlood flood-opacity="0" result="BackgroundImageFix"/>
<feGaussianBlur in="BackgroundImageFix" stdDeviation="10"/>
<feComposite in2="SourceAlpha" operator="in" result="effect1_backgroundBlur_5082_12718"/>
<feColorMatrix in="SourceAlpha" type="matrix" values="0 0 0 0 0 0 0 0 0 0 0 0 0 0 0 0 0 0 127 0" result="hardAlpha"/>
<feOffset dx="4" dy="4"/>
<feGaussianBlur stdDeviation="10"/>
<feComposite in2="hardAlpha" operator="out"/>
<feColorMatrix type="matrix" values="0 0 0 0 0 0 0 0 0 0 0 0 0 0 0 0 0 0 0.05 0"/>
<feBlend mode="normal" in2="effect1_backgroundBlur_5082_12718" result="effect2_dropShadow_5082_12718"/>
<feColorMatrix in="SourceAlpha" type="matrix" values="0 0 0 0 0 0 0 0 0 0 0 0 0 0 0 0 0 0 127 0" result="hardAlpha"/>
<feOffset/>
<feGaussianBlur stdDeviation="1"/>
<feComposite in2="hardAlpha" operator="out"/>
<feColorMatrix type="matrix" values="0 0 0 0 0 0 0 0 0 0 0 0 0 0 0 0 0 0 0.05 0"/>
<feBlend mode="normal" in2="effect2_dropShadow_5082_12718" result="effect3_dropShadow_5082_12718"/>
<feBlend mode="normal" in="SourceGraphic" in2="effect3_dropShadow_5082_12718" result="shape"/>
</filter>
<filter id="filter1_bd_5082_12718" x="31.6111" y="46.3574" width="74.3086" height="81.7852" filterUnits="userSpaceOnUse" color-interpolation-filters="sRGB">
<feFlood flood-opacity="0" result="BackgroundImageFix"/>
<feGaussianBlur in="BackgroundImageFix" stdDeviation="5"/>
<feComposite in2="SourceAlpha" operator="in" result="effect1_backgroundBlur_5082_12718"/>
<feColorMatrix in="SourceAlpha" type="matrix" values="0 0 0 0 0 0 0 0 0 0 0 0 0 0 0 0 0 0 127 0" result="hardAlpha"/>
<feOffset dy="1"/>
<feGaussianBlur stdDeviation="1"/>
<feComposite in2="hardAlpha" operator="out"/>
<feColorMatrix type="matrix" values="0 0 0 0 0 0 0 0 0 0 0 0 0 0 0 0 0 0 0.1 0"/>
<feBlend mode="normal" in2="effect1_backgroundBlur_5082_12718" result="effect2_dropShadow_5082_12718"/>
<feBlend mode="normal" in="SourceGraphic" in2="effect2_dropShadow_5082_12718" result="shape"/>
</filter>
<filter id="filter2_bdd_5082_12718" x="23.8403" y="49.7354" width="93.4421" height="91.9082" filterUnits="userSpaceOnUse" color-interpolation-filters="sRGB">
<feFlood flood-opacity="0" result="BackgroundImageFix"/>
<feGaussianBlur in="BackgroundImageFix" stdDeviation="10"/>
<feComposite in2="SourceAlpha" operator="in" result="effect1_backgroundBlur_5082_12718"/>
<feColorMatrix in="SourceAlpha" type="matrix" values="0 0 0 0 0 0 0 0 0 0 0 0 0 0 0 0 0 0 127 0" result="hardAlpha"/>
<feOffset dx="4" dy="4"/>
<feGaussianBlur stdDeviation="10"/>
<feColorMatrix type="matrix" values="0 0 0 0 0 0 0 0 0 0 0 0 0 0 0 0 0 0 0.05 0"/>
<feBlend mode="normal" in2="effect1_backgroundBlur_5082_12718" result="effect2_dropShadow_5082_12718"/>
<feColorMatrix in="SourceAlpha" type="matrix" values="0 0 0 0 0 0 0 0 0 0 0 0 0 0 0 0 0 0 127 0" result="hardAlpha"/>
<feOffset/>
<feGaussianBlur stdDeviation="1"/>
<feColorMatrix type="matrix" values="0 0 0 0 0 0 0 0 0 0 0 0 0 0 0 0 0 0 0.05 0"/>
<feBlend mode="normal" in2="effect2_dropShadow_5082_12718" result="effect3_dropShadow_5082_12718"/>
<feBlend mode="normal" in="SourceGraphic" in2="effect3_dropShadow_5082_12718" result="shape"/>
</filter>
<linearGradient id="paint0_linear_5082_12718" x1="28.0455" y1="16" x2="137.125" y2="165.064" gradientUnits="userSpaceOnUse">
<stop stop-color="white"/>
<stop offset="1" stop-color="white" stop-opacity="0"/>
</linearGradient>
<clipPath id="clip0_5082_12718">
<rect x="16" y="16" width="106" height="118" rx="16" fill="white"/>
</clipPath>
</defs>
</svg>
