<svg width="66" height="68" viewBox="0 0 66 68" fill="none" xmlns="http://www.w3.org/2000/svg">
<g filter="url(#filter0_bd_5082_12720)">
<path d="M40.9167 19.5596C47.9231 20.4829 48.1398 14.9206 48.7564 12.9647C36.7945 8.47459 29.525 8.13792 15.1453 12.9647C16.6035 14.5066 18.4519 19.6185 22.4897 19.5012C22.8895 19.4896 23.2905 19.4467 23.6905 19.4467H31.6453H39.4766C39.9584 19.4467 40.439 19.4967 40.9167 19.5596Z" fill="#333722"/>
<path d="M16.8766 23.5717C15.4848 22.2123 15.7505 16.4753 15.1453 12.9647M15.1453 12.9647C16.6035 14.5066 18.4519 19.6185 22.4897 19.5012C22.8895 19.4896 23.2905 19.4467 23.6905 19.4467H31.6453H39.4766C39.9584 19.4467 40.439 19.4967 40.9167 19.5596C47.9231 20.4829 48.1398 14.9206 48.7564 12.9647M15.1453 12.9647C29.525 8.13792 36.7945 8.47459 48.7564 12.9647M48.7564 12.9647C48.2041 15.5956 49.577 21.4997 48.0134 23.5717" stroke="white" stroke-opacity="0.5" stroke-linecap="round"/>
<path d="M17.2293 19.7709C18.3771 19.0242 19.235 17.98 20.1289 16.7049C20.7253 15.8542 21.8609 15.5755 22.8512 15.8899C27.6727 17.4211 36.4376 17.1215 42.1551 15.7926C43.1591 15.5592 44.1898 16.0624 44.7099 16.9525C45.6221 18.5135 46.7478 19.5283 48.3342 20.1414C52.5313 21.7637 56.5369 24.5736 56.6304 29.0724L57.282 60.4412C57.2998 61.2986 56.769 62.0719 55.9624 62.3635L52.4229 63.6433H13.2763L9.04817 61.8197C8.30071 61.4973 7.82322 60.754 7.84072 59.9402L8.49223 29.6509C8.59362 24.9371 13.2773 22.3423 17.2293 19.7709Z" fill="#333722"/>
<path fill-rule="evenodd" clip-rule="evenodd" d="M35.2545 11.1844C34.6805 11.5003 34.0481 11.7103 33.3929 11.806V13.7545C33.5158 13.7898 33.6366 13.8333 33.7544 13.8849L55.132 23.2459C57.7598 24.3966 56.863 28.0046 53.9492 28.0046H11.1941C8.28027 28.0046 7.38351 24.3966 10.0113 23.2459L31.3889 13.8849C31.5067 13.8333 31.6275 13.7898 31.7504 13.7545V10.5929C31.7504 10.4667 31.8624 10.3643 32.0005 10.3643C32.7229 10.3388 33.8379 10.1143 34.3602 9.82678C34.9478 9.50345 35.4172 9.02813 35.7092 8.46093C36.0012 7.89373 36.1026 7.26013 36.0006 6.64025C35.8987 6.02037 35.5979 5.44205 35.1363 4.97842C34.6747 4.51479 34.0731 4.18668 33.4075 4.03558C32.7419 3.88448 32.0423 3.91717 31.397 4.12952C30.7517 4.34188 30.1898 4.72435 29.7824 5.22858C29.4839 5.59798 29.2781 6.02057 29.1767 6.46636C29.1152 6.73695 28.8631 6.95177 28.5611 6.93875L27.923 6.91127C27.621 6.89825 27.3847 6.66315 27.4306 6.38997C27.5581 5.63095 27.8854 4.90881 28.3878 4.28711C28.9989 3.53076 29.8418 2.95705 30.8097 2.63852C31.7776 2.31999 32.8271 2.27096 33.8254 2.49761C34.8238 2.72426 35.7263 3.21643 36.4186 3.91187C37.111 4.60731 37.5622 5.47479 37.7151 6.40461C37.8681 7.33443 37.716 8.28483 37.278 9.13563C36.84 9.98643 36.1358 10.6994 35.2545 11.1844ZM33.0448 15.2388L54.4223 24.5998C55.4734 25.0601 55.1147 26.5033 53.9492 26.5033H11.1941C10.0286 26.5033 9.66986 25.0601 10.721 24.5998L32.0985 15.2388C32.3977 15.1078 32.7456 15.1078 33.0448 15.2388Z" fill="black"/>
<path d="M13.5392 19.206L19.5224 17.1648C20.4635 16.8438 21.4845 17.2737 22.0483 18.0928C23.9846 20.9056 26.9705 22.9072 30.423 23.5013V63.643H14.534H8.35851C7.34842 63.643 6.49291 62.8915 6.39669 61.886C5.79994 55.6501 6.02457 47.8177 8.17106 25.9714C8.47686 22.8591 10.5794 20.2157 13.5392 19.206Z" fill="#444B28"/>
<path d="M57.0164 25.9912C59.3905 48.0704 59.6851 53.545 59.2528 61.7637C59.1972 62.8195 58.3208 63.643 57.2636 63.643H51.2006H34.0896L33.4785 23.6518C37.413 23.3713 40.8599 21.2799 43.029 18.1867C43.5898 17.3869 44.5891 16.9659 45.5171 17.2706L51.5622 19.255C54.5449 20.2341 56.6808 22.8698 57.0164 25.9912Z" fill="#444B28"/>
<path d="M14.534 63.643H8.35851C7.34842 63.643 6.49291 62.8915 6.39669 61.886C5.79994 55.6501 6.02457 47.8177 8.17106 25.9714C8.47686 22.8591 10.5794 20.2157 13.5392 19.206L19.5224 17.1648C20.4635 16.8438 21.4845 17.2737 22.0483 18.0928C23.9846 20.9056 26.9705 22.9072 30.423 23.5013V63.643H14.534ZM14.534 63.643L14.594 61.2859M51.2006 63.643H57.2636C58.3208 63.643 59.1972 62.8195 59.2528 61.7637C59.6851 53.545 59.3905 48.0704 57.0164 25.9912C56.6808 22.8698 54.5449 20.2341 51.5622 19.255L45.5171 17.2706C44.5891 16.9659 43.5898 17.3869 43.029 18.1867C40.8599 21.2799 37.413 23.3713 33.4785 23.6518L34.0896 63.643H51.2006ZM51.2006 63.643L51.1427 61.2859M15.2549 35.3573L14.8644 50.6787M50.5058 35.3573L50.8822 50.6787M40.2008 54.2144V51.0787C40.2008 50.8578 40.3799 50.6787 40.6008 50.6787H50.8822M40.2008 54.2144V60.8859C40.2008 61.1068 40.3799 61.2859 40.6008 61.2859H51.1427M40.2008 54.2144H50.969M24.923 54.2144V51.0787C24.923 50.8578 24.744 50.6787 24.523 50.6787H14.8644M24.923 54.2144V60.8859C24.923 61.1068 24.744 61.2859 24.523 61.2859H14.594M24.923 54.2144H14.7743M14.8644 50.6787L14.7743 54.2144M14.7743 54.2144L14.594 61.2859M50.8822 50.6787L50.969 54.2144M50.969 54.2144L51.1427 61.2859" stroke="white" stroke-opacity="0.5" stroke-linecap="round"/>
<path d="M49.3674 18.8577L48.7563 12.9648C42.8992 15.8918 39.4443 17.8333 32.8674 19.447V24.1613C39.8525 23.1828 43.5243 22.1408 49.3674 18.8577Z" fill="#444B28" stroke="white" stroke-opacity="0.5" stroke-linecap="round" stroke-linejoin="round"/>
<path d="M14.5342 18.8577L15.1453 12.9648C21.0024 15.8918 24.4573 17.8333 31.0342 19.447V24.1613C24.0491 23.1828 20.3773 22.1408 14.5342 18.8577Z" fill="#444B28" stroke="white" stroke-opacity="0.5" stroke-linecap="round" stroke-linejoin="round"/>
</g>
<defs>
<filter id="filter0_bd_5082_12720" x="-4.38892" y="-7.64258" width="74.3086" height="81.7852" filterUnits="userSpaceOnUse" color-interpolation-filters="sRGB">
<feFlood flood-opacity="0" result="BackgroundImageFix"/>
<feGaussianBlur in="BackgroundImageFix" stdDeviation="5"/>
<feComposite in2="SourceAlpha" operator="in" result="effect1_backgroundBlur_5082_12720"/>
<feColorMatrix in="SourceAlpha" type="matrix" values="0 0 0 0 0 0 0 0 0 0 0 0 0 0 0 0 0 0 127 0" result="hardAlpha"/>
<feOffset dy="1"/>
<feGaussianBlur stdDeviation="1"/>
<feComposite in2="hardAlpha" operator="out"/>
<feColorMatrix type="matrix" values="0 0 0 0 0 0 0 0 0 0 0 0 0 0 0 0 0 0 0.1 0"/>
<feBlend mode="normal" in2="effect1_backgroundBlur_5082_12720" result="effect2_dropShadow_5082_12720"/>
<feBlend mode="normal" in="SourceGraphic" in2="effect2_dropShadow_5082_12720" result="shape"/>
</filter>
</defs>
</svg>
