<svg width="146" height="158" viewBox="0 0 146 158" fill="none" xmlns="http://www.w3.org/2000/svg">
<g filter="url(#filter0_bdd_5581_14099)">
<rect x="16" y="16" width="106" height="118" rx="16" fill="white" fill-opacity="0.4" shape-rendering="crispEdges"/>
<rect x="16.5" y="16.5" width="105" height="117" rx="15.5" stroke="url(#paint0_linear_5581_14099)" stroke-opacity="0.5" shape-rendering="crispEdges"/>
<path d="M61.5609 31.916C63.1569 31.916 64.2849 33.392 64.2849 35.696C64.2849 38.012 63.1569 39.488 61.5609 39.488C59.9649 39.488 58.8369 38.012 58.8369 35.696C58.8369 33.392 59.9649 31.916 61.5609 31.916ZM61.5609 32.816C60.5049 32.816 59.7849 33.944 59.7849 35.696C59.7849 37.46 60.5049 38.612 61.5609 38.612C62.6049 38.612 63.3369 37.46 63.3369 35.696C63.3369 33.944 62.6049 32.816 61.5609 32.816ZM66.7449 33.812H68.7369V34.652H66.7449V33.812ZM66.7449 37.04H68.7369V37.88H66.7449V37.04ZM66.0129 31.088H67.0209V41.936H66.0129V31.088ZM72.108 31.652H72.936V32.756C72.936 34.844 71.76 36.572 69.948 37.28L69.42 36.476C71.052 35.876 72.108 34.412 72.108 32.756V31.652ZM72.288 31.652H73.104V32.828C73.104 34.292 74.184 35.648 75.744 36.188L75.216 36.968C73.476 36.32 72.288 34.712 72.288 32.828V31.652ZM76.896 31.088H77.892V37.664H76.896V31.088ZM77.616 33.884H79.5V34.724H77.616V33.884ZM74.436 37.964C76.656 37.964 78 38.696 78 39.944C78 41.192 76.656 41.912 74.436 41.912C72.216 41.912 70.872 41.192 70.872 39.944C70.872 38.696 72.216 37.964 74.436 37.964ZM74.436 38.756C72.828 38.756 71.844 39.188 71.844 39.944C71.844 40.7 72.828 41.132 74.436 41.132C76.044 41.132 77.028 40.7 77.028 39.944C77.028 39.188 76.044 38.756 74.436 38.756Z" fill="#121212" fill-opacity="0.7"/>
<g filter="url(#filter1_bd_5581_14099)">
<path d="M76.9167 73.5591C83.9231 74.4825 84.1398 68.9201 84.7564 66.9642C72.7945 62.4741 65.525 62.1374 51.1453 66.9642C52.6035 68.5061 54.4519 73.6181 58.4897 73.5007C58.8895 73.4891 59.2905 73.4462 59.6905 73.4462H67.6453H75.4766C75.9584 73.4462 76.439 73.4962 76.9167 73.5591Z" fill="#333722"/>
<path d="M52.8766 77.5712C51.4848 76.2119 51.7505 70.4748 51.1453 66.9642M51.1453 66.9642C52.6035 68.5061 54.4519 73.6181 58.4897 73.5007C58.8895 73.4891 59.2905 73.4462 59.6905 73.4462H67.6453H75.4766C75.9584 73.4462 76.439 73.4962 76.9167 73.5592C83.9231 74.4825 84.1398 68.9201 84.7564 66.9642M51.1453 66.9642C65.525 62.1374 72.7945 62.4741 84.7564 66.9642M84.7564 66.9642C84.2041 69.5951 85.577 75.4992 84.0134 77.5712" stroke="white" stroke-opacity="0.5" stroke-linecap="round"/>
<path d="M53.2294 73.7704C54.3772 73.0237 55.2352 71.9795 56.129 70.7044C56.7254 69.8537 57.8611 69.575 58.8513 69.8895C63.6728 71.4206 72.4377 71.121 78.1552 69.7921C79.1593 69.5587 80.19 70.0619 80.7101 70.952C81.6222 72.513 82.7479 73.5278 84.3343 74.1409C88.5315 75.7632 92.537 78.5731 92.6305 83.0719L93.2821 114.441C93.2999 115.298 92.7691 116.071 91.9626 116.363L88.423 117.643H49.2764L45.0483 115.819C44.3008 115.497 43.8233 114.754 43.8408 113.94L44.4923 83.6504C44.5937 78.9366 49.2775 76.3418 53.2294 73.7704Z" fill="#333722"/>
<path fill-rule="evenodd" clip-rule="evenodd" d="M71.2545 65.1839C70.6805 65.4998 70.0481 65.7098 69.3929 65.8055V67.754C69.5158 67.7893 69.6366 67.8328 69.7544 67.8844L91.132 77.2454C93.7598 78.3961 92.863 82.0041 89.9492 82.0041H47.1941C44.2803 82.0041 43.3835 78.3961 46.0113 77.2454L67.3889 67.8844C67.5067 67.8328 67.6275 67.7893 67.7504 67.754V64.5925C67.7504 64.4662 67.8624 64.3639 68.0005 64.3639C68.7229 64.3383 69.8379 64.1138 70.3602 63.8263C70.9478 63.503 71.4172 63.0276 71.7092 62.4604C72.0012 61.8932 72.1026 61.2596 72.0006 60.6398C71.8987 60.0199 71.5979 59.4416 71.1363 58.9779C70.6747 58.5143 70.0731 58.1862 69.4075 58.0351C68.7419 57.884 68.0423 57.9167 67.397 58.129C66.7517 58.3414 66.1898 58.7239 65.7824 59.2281C65.4839 59.5975 65.2781 60.0201 65.1767 60.4659C65.1152 60.7365 64.8631 60.9513 64.5611 60.9383L63.923 60.9108C63.621 60.8978 63.3847 60.6627 63.4306 60.3895C63.5581 59.6305 63.8854 58.9083 64.3878 58.2866C64.9989 57.5303 65.8418 56.9566 66.8097 56.638C67.7776 56.3195 68.8271 56.2705 69.8254 56.4971C70.8238 56.7238 71.7263 57.2159 72.4186 57.9114C73.111 58.6068 73.5622 59.4743 73.7151 60.4041C73.8681 61.3339 73.716 62.2843 73.278 63.1351C72.84 63.9859 72.1358 64.6989 71.2545 65.1839ZM69.0448 69.2383L90.4223 78.5993C91.4734 79.0596 91.1147 80.5028 89.9492 80.5028H47.1941C46.0286 80.5028 45.6699 79.0596 46.721 78.5993L68.0985 69.2383C68.3977 69.1073 68.7456 69.1073 69.0448 69.2383Z" fill="black"/>
<path d="M49.5392 73.2055L55.5224 71.1643C56.4635 70.8433 57.4845 71.2732 58.0483 72.0923C59.9846 74.9051 62.9705 76.9067 66.423 77.5008V117.642H50.534H44.3585C43.3484 117.642 42.4929 116.891 42.3967 115.886C41.7999 109.65 42.0246 101.817 44.1711 79.9709C44.4769 76.8586 46.5794 74.2152 49.5392 73.2055Z" fill="#444B28"/>
<path d="M93.0164 79.9907C95.3905 102.07 95.6851 107.545 95.2528 115.763C95.1972 116.819 94.3208 117.642 93.2636 117.642H87.2006H70.0896L69.4785 77.6513C73.413 77.3708 76.8599 75.2794 79.029 72.1862C79.5898 71.3864 80.5891 70.9654 81.5171 71.2701L87.5622 73.2545C90.5449 74.2337 92.6808 76.8694 93.0164 79.9907Z" fill="#444B28"/>
<path d="M50.534 117.642H44.3585C43.3484 117.642 42.4929 116.891 42.3967 115.886C41.7999 109.65 42.0246 101.817 44.1711 79.9709C44.4769 76.8586 46.5794 74.2152 49.5392 73.2055L55.5224 71.1643C56.4635 70.8433 57.4845 71.2732 58.0483 72.0923C59.9846 74.9051 62.9705 76.9067 66.423 77.5008V117.642H50.534ZM50.534 117.642L50.594 115.285M87.2006 117.642H93.2636C94.3208 117.642 95.1972 116.819 95.2528 115.763C95.6851 107.545 95.3905 102.07 93.0164 79.9907C92.6808 76.8694 90.5449 74.2337 87.5622 73.2545L81.5171 71.2701C80.5891 70.9654 79.5898 71.3864 79.029 72.1862C76.8599 75.2794 73.413 77.3708 69.4785 77.6513L70.0896 117.642H87.2006ZM87.2006 117.642L87.1427 115.285M51.2549 89.3568L50.8644 104.678M86.5058 89.3568L86.8822 104.678M76.2008 108.214V105.078C76.2008 104.857 76.3799 104.678 76.6008 104.678H86.8822M76.2008 108.214V114.885C76.2008 115.106 76.3799 115.285 76.6008 115.285H87.1427M76.2008 108.214H86.969M60.923 108.214V105.078C60.923 104.857 60.744 104.678 60.523 104.678H50.8644M60.923 108.214V114.885C60.923 115.106 60.744 115.285 60.523 115.285H50.594M60.923 108.214H50.7743M50.8644 104.678L50.7743 108.214M50.7743 108.214L50.594 115.285M86.8822 104.678L86.969 108.214M86.969 108.214L87.1427 115.285" stroke="white" stroke-opacity="0.5" stroke-linecap="round"/>
<path d="M85.3674 72.8567L84.7563 66.9639C78.8992 69.8908 75.4443 71.8323 68.8674 73.446V78.1603C75.8525 77.1818 79.5243 76.1399 85.3674 72.8567Z" fill="#444B28" stroke="white" stroke-opacity="0.5" stroke-linecap="round" stroke-linejoin="round"/>
<path d="M50.5342 72.8567L51.1453 66.9639C57.0024 69.8908 60.4573 71.8323 67.0342 73.446V78.1603C60.0491 77.1818 56.3773 76.1399 50.5342 72.8567Z" fill="#444B28" stroke="white" stroke-opacity="0.5" stroke-linecap="round" stroke-linejoin="round"/>
</g>
</g>
<defs>
<filter id="filter0_bdd_5581_14099" x="-4" y="-4" width="150" height="162" filterUnits="userSpaceOnUse" color-interpolation-filters="sRGB">
<feFlood flood-opacity="0" result="BackgroundImageFix"/>
<feGaussianBlur in="BackgroundImageFix" stdDeviation="10"/>
<feComposite in2="SourceAlpha" operator="in" result="effect1_backgroundBlur_5581_14099"/>
<feColorMatrix in="SourceAlpha" type="matrix" values="0 0 0 0 0 0 0 0 0 0 0 0 0 0 0 0 0 0 127 0" result="hardAlpha"/>
<feOffset dx="4" dy="4"/>
<feGaussianBlur stdDeviation="10"/>
<feComposite in2="hardAlpha" operator="out"/>
<feColorMatrix type="matrix" values="0 0 0 0 0 0 0 0 0 0 0 0 0 0 0 0 0 0 0.05 0"/>
<feBlend mode="normal" in2="effect1_backgroundBlur_5581_14099" result="effect2_dropShadow_5581_14099"/>
<feColorMatrix in="SourceAlpha" type="matrix" values="0 0 0 0 0 0 0 0 0 0 0 0 0 0 0 0 0 0 127 0" result="hardAlpha"/>
<feOffset/>
<feGaussianBlur stdDeviation="1"/>
<feComposite in2="hardAlpha" operator="out"/>
<feColorMatrix type="matrix" values="0 0 0 0 0 0 0 0 0 0 0 0 0 0 0 0 0 0 0.05 0"/>
<feBlend mode="normal" in2="effect2_dropShadow_5581_14099" result="effect3_dropShadow_5581_14099"/>
<feBlend mode="normal" in="SourceGraphic" in2="effect3_dropShadow_5581_14099" result="shape"/>
</filter>
<filter id="filter1_bd_5581_14099" x="31.6111" y="46.3569" width="74.3086" height="81.7856" filterUnits="userSpaceOnUse" color-interpolation-filters="sRGB">
<feFlood flood-opacity="0" result="BackgroundImageFix"/>
<feGaussianBlur in="BackgroundImageFix" stdDeviation="5"/>
<feComposite in2="SourceAlpha" operator="in" result="effect1_backgroundBlur_5581_14099"/>
<feColorMatrix in="SourceAlpha" type="matrix" values="0 0 0 0 0 0 0 0 0 0 0 0 0 0 0 0 0 0 127 0" result="hardAlpha"/>
<feOffset dy="1"/>
<feGaussianBlur stdDeviation="1"/>
<feComposite in2="hardAlpha" operator="out"/>
<feColorMatrix type="matrix" values="0 0 0 0 0 0 0 0 0 0 0 0 0 0 0 0 0 0 0.1 0"/>
<feBlend mode="normal" in2="effect1_backgroundBlur_5581_14099" result="effect2_dropShadow_5581_14099"/>
<feBlend mode="normal" in="SourceGraphic" in2="effect2_dropShadow_5581_14099" result="shape"/>
</filter>
<linearGradient id="paint0_linear_5581_14099" x1="28.0455" y1="16" x2="137.125" y2="165.064" gradientUnits="userSpaceOnUse">
<stop stop-color="white"/>
<stop offset="1" stop-color="white" stop-opacity="0"/>
</linearGradient>
</defs>
</svg>
