<svg width="146" height="158" viewBox="0 0 146 158" fill="none" xmlns="http://www.w3.org/2000/svg">
<g filter="url(#filter0_d_5896_8437)">
<rect x="16" y="16" width="106" height="118" rx="16" fill="white" fill-opacity="0.4" shape-rendering="crispEdges"/>
<rect x="16.5" y="16.5" width="105" height="117" rx="15.5" stroke="url(#paint0_linear_5896_8437)" stroke-opacity="0.5" shape-rendering="crispEdges"/>
<path d="M66.9369 31.088H67.8969V41.936H66.9369V31.088ZM65.2209 35.444H67.2969V36.272H65.2209V35.444ZM64.5849 31.328H65.5209V41.384H64.5849V31.328ZM58.7769 32.444H63.7929V33.26H58.7769V32.444ZM58.6809 39.272L58.5609 38.432C59.9889 38.432 62.3409 38.384 63.9969 38.168L64.0689 38.9C62.3529 39.224 60.0969 39.272 58.6809 39.272ZM59.7009 32.972H60.6129V38.648H59.7009V32.972ZM61.9569 32.972H62.8689V38.648H61.9569V32.972ZM77.364 31.088H78.372V37.748H77.364V31.088ZM70.128 35.888H71.028C73.368 35.888 74.724 35.828 76.284 35.504L76.404 36.332C74.796 36.632 73.416 36.704 71.028 36.704H70.128V35.888ZM70.128 31.94H75.228V32.756H71.124V36.332H70.128V31.94ZM74.76 37.772C77.016 37.772 78.408 38.54 78.408 39.848C78.408 41.168 77.016 41.924 74.76 41.924C72.516 41.924 71.124 41.168 71.124 39.848C71.124 38.54 72.516 37.772 74.76 37.772ZM74.76 38.564C73.116 38.564 72.12 39.044 72.12 39.848C72.12 40.652 73.116 41.144 74.76 41.144C76.416 41.144 77.412 40.652 77.412 39.848C77.412 39.044 76.416 38.564 74.76 38.564Z" fill="#121212" fill-opacity="0.7"/>
<g filter="url(#filter1_bd_5896_8437)">
<path d="M83.7551 118.232H52.5002C52.1251 117.183 51.7577 116.592 51.4189 115.286L44.6054 114.212C44.2054 114.149 43.8818 113.851 43.7945 113.456C41.91 104.915 42.8456 95.0838 45.7656 80.1111C46.1577 78.1007 47.3237 76.3269 49.0007 75.1508L53.1111 72.2681L59.7628 69.0611C60.2021 68.8493 60.7048 68.8075 61.1762 68.9326C66.2898 70.2902 69.6857 70.2702 75.6049 68.9042C76.0744 68.7959 76.5689 68.8547 76.9965 69.0767L84.2778 72.8574L89.1979 76.4158C90.7544 77.5415 91.8608 79.1942 92.2803 81.0688C95.8406 96.9794 95.7608 104.63 93.6033 113.469C93.5088 113.856 93.19 114.149 92.7967 114.213L86.1861 115.286C86.0742 115.781 85.9658 116.163 85.8654 116.528C85.5998 117.492 84.7549 118.232 83.7551 118.232Z" fill="#5EB0FF" fill-opacity="0.8"/>
<path d="M51.889 82.8753C48.5415 96.9911 49.5462 108.067 51.4189 115.286M85.5002 82.8753C88.9713 103.445 87.3786 110.016 86.1861 115.286M51.4189 115.286C51.7577 116.592 52.1251 117.183 52.5002 118.232H83.7551C84.7549 118.232 85.5998 117.492 85.8654 116.528C85.9658 116.163 86.0742 115.781 86.1861 115.286M51.4189 115.286L44.6054 114.212C44.2054 114.149 43.8818 113.851 43.7945 113.456C41.91 104.915 42.8456 95.0838 45.7656 80.1111C46.1577 78.1007 47.3237 76.3269 49.0007 75.1508L53.1111 72.2681L59.7628 69.0611C60.2021 68.8493 60.7048 68.8075 61.1762 68.9326C66.2898 70.2902 69.6857 70.2702 75.6049 68.9042C76.0744 68.7959 76.5689 68.8547 76.9965 69.0767L84.2778 72.8574L89.1979 76.4158C90.7544 77.5415 91.8608 79.1942 92.2803 81.0688C95.8406 96.9794 95.7608 104.63 93.6033 113.469C93.5088 113.856 93.19 114.149 92.7967 114.213L86.1861 115.286" stroke="white" stroke-opacity="0.5" stroke-linecap="round"/>
<path d="M76.3333 65.4262C70.0379 62.3913 66.5589 62.5681 60.4445 65.4262V68.141L68.7067 75.214L76.3333 68.4648V65.4262Z" fill="#298CFF" fill-opacity="0.8" stroke="white" stroke-opacity="0.5"/>
<path fill-rule="evenodd" clip-rule="evenodd" d="M71.3872 64.0057C70.8131 64.3216 70.1807 64.5315 69.5255 64.6273V66.5758C69.6484 66.6111 69.7692 66.6546 69.887 66.7062L89.1271 76.0672C91.7549 77.2179 90.8581 80.8259 87.9443 80.8259H49.4445C46.5306 80.8259 45.6339 77.2179 48.2617 76.0672L67.5215 66.7062C67.6393 66.6546 67.7601 66.6111 67.883 66.5758V63.4142C67.883 63.288 67.995 63.1856 68.1331 63.1856C68.8555 63.1601 69.9705 62.9355 70.4929 62.6481C71.0804 62.3247 71.5499 61.8494 71.8418 61.2822C72.1338 60.715 72.2353 60.0814 72.1333 59.4615C72.0313 58.8417 71.7305 58.2633 71.2689 57.7997C70.8074 57.3361 70.2057 57.008 69.5401 56.8569C68.8745 56.7058 68.1749 56.7385 67.5296 56.9508C66.8844 57.1632 66.3225 57.5456 65.915 58.0499C65.6165 58.4193 65.4108 58.8419 65.3094 59.2876C65.2478 59.5582 64.9957 59.7731 64.6937 59.76L64.0557 59.7326C63.7536 59.7195 63.5174 59.4844 63.5632 59.2113C63.6908 58.4522 64.0181 57.7301 64.5204 57.1084C65.1316 56.3521 65.9744 55.7783 66.9423 55.4598C67.9102 55.1413 68.9597 55.0922 69.9581 55.3189C70.9564 55.5456 71.8589 56.0377 72.5512 56.7332C73.2436 57.4286 73.6948 58.2961 73.8478 59.2259C74.0007 60.1557 73.8486 61.1061 73.4106 61.9569C72.9726 62.8077 72.2685 63.5207 71.3872 64.0057ZM69.1774 68.0601L88.4174 77.4211C89.4685 77.8814 89.1098 79.3246 87.9443 79.3246H49.4445C48.2789 79.3246 47.9202 77.8814 48.9714 77.4211L68.2312 68.0601C68.5303 67.9291 68.8782 67.9291 69.1774 68.0601Z" fill="black"/>
<path d="M51.6115 117.498C51.3836 116.794 51.1617 116.043 50.9505 115.245L43.7146 114.126C43.4126 114.079 43.1457 113.899 43.0077 113.626C42.0012 111.636 41.6947 109.4 41.8746 106.898C41.1261 104.755 40.8778 102.311 41.4883 99.1467C40.4736 95.7273 40.6865 92.0481 42.5955 87.8184C41.8504 84.7541 42.3146 82.0002 44.1345 79.4713C45.1314 76.9814 46.4241 75.1619 48.6386 74.0255C51.286 71.8849 54.8546 70.2109 60.2657 68.1431V65.5111C60.2657 65.1639 60.679 64.9819 60.9389 65.2121C63.2775 67.2832 64.6574 68.1334 68.79 69.8346C72.6603 68.0226 74.28 67.4383 76.0667 65.2176C76.3229 64.8991 76.8714 65.0923 76.8437 65.5001L76.664 68.1431C81.6931 69.8436 85.035 71.4137 88.1827 74.0255C89.913 75.4611 91.5846 77.2115 93.4456 79.4713C94.7307 82.072 95.5192 84.9525 95.2413 87.8184C97.1391 91.8221 97.6545 95.3901 96.5004 99.1467C97.1326 102.5 96.7848 104.87 95.9196 106.898C96.94 109.4 96.1478 112.391 94.5255 113.878C94.3968 113.997 94.2329 114.067 94.0604 114.094L86.8326 115.245C86.6867 115.877 86.5466 116.491 86.4217 117.107C86.2236 118.085 85.382 118.822 84.3841 118.822H69.0955H53.4658C52.6255 118.822 51.8703 118.298 51.6115 117.498Z" fill="white"/>
<path d="M51.6115 117.498C51.3836 116.794 51.1617 116.043 50.9505 115.245L43.7146 114.126C43.4126 114.079 43.1457 113.899 43.0077 113.626C42.0012 111.636 41.6947 109.4 41.8746 106.898C41.1261 104.755 40.8778 102.311 41.4883 99.1467C40.4736 95.7273 40.6865 92.0481 42.5955 87.8184C41.8504 84.7541 42.3146 82.0002 44.1345 79.4713C45.1314 76.9814 46.4241 75.1619 48.6386 74.0255C51.286 71.8849 54.8546 70.2109 60.2657 68.1431V65.5111C60.2657 65.1639 60.679 64.9819 60.9389 65.2121C63.2775 67.2832 64.6574 68.1334 68.79 69.8346C72.6603 68.0226 74.28 67.4383 76.0667 65.2176C76.3229 64.8991 76.8714 65.0923 76.8437 65.5001L76.664 68.1431C81.6931 69.8436 85.035 71.4137 88.1827 74.0255C89.913 75.4611 91.5846 77.2115 93.4456 79.4713C94.7307 82.072 95.5192 84.9525 95.2413 87.8184C97.1391 91.8221 97.6545 95.3901 96.5004 99.1467C97.1326 102.5 96.7848 104.87 95.9196 106.898C96.94 109.4 96.1478 112.391 94.5255 113.878C94.3968 113.997 94.2329 114.067 94.0604 114.094L86.8326 115.245C86.6867 115.877 86.5466 116.491 86.4217 117.107C86.2236 118.085 85.382 118.822 84.3841 118.822H69.0955H53.4658C52.6255 118.822 51.8703 118.298 51.6115 117.498Z" fill="#5EB0FF" fill-opacity="0.8"/>
<path d="M76.664 68.1431C73.5091 72.8604 72.267 72.3729 68.79 72.8574M76.664 68.1431C81.6931 69.8436 85.035 71.4137 88.1827 74.0255M76.664 68.1431L76.8437 65.5001C76.8714 65.0923 76.3229 64.8991 76.0667 65.2176C74.28 67.4383 72.6603 68.0226 68.79 69.8346M68.79 72.8574C64.12 72.2343 62.8906 71.8357 60.2657 68.1431M68.79 72.8574L69.0955 118.822M68.79 72.8574C68.79 71.382 68.79 70.2275 68.79 69.8346M60.2657 68.1431C54.8546 70.2109 51.286 71.8849 48.6386 74.0255M60.2657 68.1431V65.5111C60.2657 65.1639 60.679 64.9819 60.9389 65.2121C63.2775 67.2832 64.6574 68.1334 68.79 69.8346M44.1345 79.4713C45.1314 76.9814 46.4241 75.1619 48.6386 74.0255M44.1345 79.4713L50.0556 85.2324M44.1345 79.4713C42.3146 82.0002 41.8504 84.7541 42.5955 87.8184M93.4456 79.4713C91.5846 77.2115 89.913 75.4611 88.1827 74.0255M93.4456 79.4713L87.3334 85.2324M93.4456 79.4713C94.7307 82.072 95.5192 84.9525 95.2413 87.8184M50.9505 115.245C51.1617 116.043 51.3836 116.794 51.6115 117.498C51.8703 118.298 52.6255 118.822 53.4658 118.822H69.0955M50.9505 115.245L43.7146 114.126C43.4126 114.079 43.1457 113.899 43.0077 113.626C42.0012 111.636 41.6947 109.4 41.8746 106.898M50.9505 115.245C50.8482 114.858 50.7484 114.461 50.6517 114.052M86.8326 115.245C86.6867 115.877 86.5466 116.491 86.4217 117.107C86.2236 118.085 85.382 118.822 84.3841 118.822H69.0955M86.8326 115.245L94.0604 114.094C94.2329 114.067 94.3968 113.997 94.5255 113.878C96.1478 112.391 96.94 109.4 95.9196 106.898M86.8326 115.245C86.9223 114.856 87.0143 114.46 87.1062 114.052M49.9356 90.2033H87.3122M49.9356 90.2033C48.6064 93.0418 48.3113 96.0228 49.1837 99.1467M49.9356 90.2033C50.1585 88.658 49.7206 86.8664 50.0556 85.2324M49.9356 90.2033L42.5955 87.8184M87.3122 90.2033C88.6846 92.9904 89.0327 95.8842 88.181 99.1467M87.3122 90.2033C87.1156 88.7099 87.6009 86.9216 87.3334 85.2324M87.3122 90.2033L95.2413 87.8184M49.1837 99.1467H88.181M49.1837 99.1467C48.4069 102.371 48.6003 104.756 49.4717 106.898M49.1837 99.1467H41.4883M88.181 99.1467C88.9254 102.461 88.9182 104.908 88.1827 106.898M88.181 99.1467H96.5004M49.4717 106.898H88.1827M49.4717 106.898C49.1259 110.278 49.6014 112.598 50.6517 114.052M49.4717 106.898H41.8746M88.1827 106.898C88.6808 110.356 88.3199 112.606 87.1062 114.052M88.1827 106.898H95.9196M50.6517 114.052H87.1062M88.1827 74.0255C86.8762 74.3117 86.3443 76.9814 86.174 79.4713M48.6386 74.0255C50.1013 75.1965 50.8453 77.4557 51.1866 79.4713M51.1866 79.4713C51.3827 80.6297 50.6767 81.5412 50.6667 82.2859C50.4226 83.2951 50.2561 84.2542 50.0556 85.2324M51.1866 79.4713H86.174M86.174 79.4713C86.0985 80.5747 86.6917 81.4762 86.7222 82.2859C86.8992 83.3137 87.1813 84.2722 87.3334 85.2324M42.5955 87.8184C40.6865 92.0481 40.4736 95.7273 41.4883 99.1467M41.4883 99.1467C40.8778 102.311 41.1261 104.755 41.8746 106.898M95.2413 87.8184C97.1391 91.8221 97.6545 95.3901 96.5004 99.1467M96.5004 99.1467C97.1326 102.5 96.7848 104.87 95.9196 106.898" stroke="white" stroke-opacity="0.5" stroke-linecap="round" stroke-linejoin="round"/>
</g>
</g>
<defs>
<filter id="filter0_d_5896_8437" x="0" y="0" width="146" height="158" filterUnits="userSpaceOnUse" color-interpolation-filters="sRGB">
<feFlood flood-opacity="0" result="BackgroundImageFix"/>
<feColorMatrix in="SourceAlpha" type="matrix" values="0 0 0 0 0 0 0 0 0 0 0 0 0 0 0 0 0 0 127 0" result="hardAlpha"/>
<feOffset dx="4" dy="4"/>
<feGaussianBlur stdDeviation="10"/>
<feComposite in2="hardAlpha" operator="out"/>
<feColorMatrix type="matrix" values="0 0 0 0 0 0 0 0 0 0 0 0 0 0 0 0 0 0 0.05 0"/>
<feBlend mode="normal" in2="BackgroundImageFix" result="effect1_dropShadow_5896_8437"/>
<feBlend mode="normal" in="SourceGraphic" in2="effect1_dropShadow_5896_8437" result="shape"/>
</filter>
<filter id="filter1_bd_5896_8437" x="30.3889" y="45.1787" width="77.2223" height="84.1431" filterUnits="userSpaceOnUse" color-interpolation-filters="sRGB">
<feFlood flood-opacity="0" result="BackgroundImageFix"/>
<feGaussianBlur in="BackgroundImageFix" stdDeviation="5"/>
<feComposite in2="SourceAlpha" operator="in" result="effect1_backgroundBlur_5896_8437"/>
<feColorMatrix in="SourceAlpha" type="matrix" values="0 0 0 0 0 0 0 0 0 0 0 0 0 0 0 0 0 0 127 0" result="hardAlpha"/>
<feOffset dy="1"/>
<feGaussianBlur stdDeviation="1"/>
<feComposite in2="hardAlpha" operator="out"/>
<feColorMatrix type="matrix" values="0 0 0 0 0 0 0 0 0 0 0 0 0 0 0 0 0 0 0.1 0"/>
<feBlend mode="normal" in2="effect1_backgroundBlur_5896_8437" result="effect2_dropShadow_5896_8437"/>
<feBlend mode="normal" in="SourceGraphic" in2="effect2_dropShadow_5896_8437" result="shape"/>
</filter>
<linearGradient id="paint0_linear_5896_8437" x1="28.0455" y1="16" x2="137.125" y2="165.064" gradientUnits="userSpaceOnUse">
<stop stop-color="white"/>
<stop offset="1" stop-color="white" stop-opacity="0"/>
</linearGradient>
</defs>
</svg>
