<svg width="146" height="158" viewBox="0 0 146 158" fill="none" xmlns="http://www.w3.org/2000/svg">
<g filter="url(#filter0_bdd_5082_12791)">
<g clip-path="url(#clip0_5082_12791)">
<rect x="16" y="16" width="106" height="118" rx="16" fill="white" fill-opacity="0.4" shape-rendering="crispEdges"/>
<path d="M66.9369 31.088H67.8969V41.936H66.9369V31.088ZM65.2209 35.444H67.2969V36.272H65.2209V35.444ZM64.5849 31.328H65.5209V41.384H64.5849V31.328ZM58.7769 32.444H63.7929V33.26H58.7769V32.444ZM58.6809 39.272L58.5609 38.432C59.9889 38.432 62.3409 38.384 63.9969 38.168L64.0689 38.9C62.3529 39.224 60.0969 39.272 58.6809 39.272ZM59.7009 32.972H60.6129V38.648H59.7009V32.972ZM61.9569 32.972H62.8689V38.648H61.9569V32.972ZM77.364 31.088H78.372V37.748H77.364V31.088ZM70.128 35.888H71.028C73.368 35.888 74.724 35.828 76.284 35.504L76.404 36.332C74.796 36.632 73.416 36.704 71.028 36.704H70.128V35.888ZM70.128 31.94H75.228V32.756H71.124V36.332H70.128V31.94ZM74.76 37.772C77.016 37.772 78.408 38.54 78.408 39.848C78.408 41.168 77.016 41.924 74.76 41.924C72.516 41.924 71.124 41.168 71.124 39.848C71.124 38.54 72.516 37.772 74.76 37.772ZM74.76 38.564C73.116 38.564 72.12 39.044 72.12 39.848C72.12 40.652 73.116 41.144 74.76 41.144C76.416 41.144 77.412 40.652 77.412 39.848C77.412 39.044 76.416 38.564 74.76 38.564Z" fill="#121212" fill-opacity="0.7"/>
<g filter="url(#filter1_bd_5082_12791)">
<g filter="url(#filter2_bdd_5082_12791)">
<path d="M83.755 118.232H52.5001C52.125 117.183 51.7576 116.592 51.4187 115.286L44.6053 114.212C44.2053 114.149 43.8817 113.851 43.7944 113.456C41.9098 104.915 42.8455 95.0838 45.7655 80.1111C46.1576 78.1007 47.3236 76.3269 49.0005 75.1508L53.111 72.2681L59.7627 69.0611C60.202 68.8493 60.7047 68.8075 61.1761 68.9326C66.2896 70.2902 69.6856 70.2702 75.6048 68.9042C76.0743 68.7959 76.5688 68.8547 76.9964 69.0767L84.2777 72.8574L89.1977 76.4158C90.7543 77.5415 91.8607 79.1942 92.2802 81.0688C95.8405 96.9794 95.7607 104.63 93.6031 113.469C93.5087 113.856 93.1899 114.149 92.7966 114.213L86.186 115.286C86.074 115.781 85.9656 116.163 85.8653 116.528C85.5997 117.492 84.7548 118.232 83.755 118.232Z" fill="#5EB0FF" fill-opacity="0.8"/>
<path d="M51.8889 82.8753C48.5414 96.9911 49.5461 108.067 51.4187 115.286M85.5 82.8753C88.9712 103.445 87.3784 110.016 86.186 115.286M51.4187 115.286C51.7576 116.592 52.125 117.183 52.5001 118.232H83.755C84.7548 118.232 85.5997 117.492 85.8653 116.528C85.9656 116.163 86.074 115.781 86.186 115.286M51.4187 115.286L44.6053 114.212C44.2053 114.149 43.8817 113.851 43.7944 113.456C41.9098 104.915 42.8455 95.0838 45.7655 80.1111C46.1576 78.1007 47.3236 76.3269 49.0005 75.1508L53.111 72.2681L59.7627 69.0611C60.202 68.8493 60.7047 68.8075 61.1761 68.9326C66.2897 70.2902 69.6856 70.2702 75.6048 68.9042C76.0743 68.7959 76.5688 68.8547 76.9964 69.0767L84.2777 72.8574L89.1977 76.4158C90.7543 77.5415 91.8607 79.1942 92.2802 81.0688C95.8405 96.9794 95.7607 104.63 93.6031 113.469C93.5087 113.856 93.1899 114.149 92.7966 114.213L86.186 115.286" stroke="white" stroke-opacity="0.5" stroke-linecap="round"/>
</g>
<path d="M76.3335 65.4262C70.038 62.3913 66.559 62.5681 60.4446 65.4262V68.141L68.7068 75.214L76.3335 68.4648V65.4262Z" fill="#298CFF" fill-opacity="0.8" stroke="white" stroke-opacity="0.5"/>
<path fill-rule="evenodd" clip-rule="evenodd" d="M71.387 64.0057C70.813 64.3216 70.1806 64.5315 69.5254 64.6273V66.5758C69.6483 66.6111 69.7691 66.6546 69.8869 66.7062L89.1269 76.0672C91.7548 77.2179 90.858 80.8259 87.9442 80.8259H49.4443C46.5305 80.8259 45.6338 77.2179 48.2616 76.0672L67.5214 66.7062C67.6392 66.6546 67.76 66.6111 67.8829 66.5758V63.4142C67.8829 63.288 67.9949 63.1856 68.133 63.1856C68.8554 63.1601 69.9704 62.9355 70.4927 62.6481C71.0803 62.3247 71.5497 61.8494 71.8417 61.2822C72.1337 60.715 72.2351 60.0814 72.1332 59.4615C72.0312 58.8417 71.7304 58.2633 71.2688 57.7997C70.8072 57.3361 70.2056 57.008 69.54 56.8569C68.8744 56.7058 68.1748 56.7385 67.5295 56.9508C66.8842 57.1632 66.3224 57.5456 65.9149 58.0499C65.6164 58.4193 65.4106 58.8419 65.3092 59.2876C65.2477 59.5582 64.9956 59.7731 64.6936 59.76L64.0555 59.7326C63.7535 59.7195 63.5172 59.4844 63.5631 59.2113C63.6906 58.4522 64.0179 57.7301 64.5203 57.1084C65.1315 56.3521 65.9743 55.7783 66.9422 55.4598C67.9101 55.1413 68.9596 55.0922 69.9579 55.3189C70.9563 55.5456 71.8588 56.0377 72.5511 56.7332C73.2435 57.4286 73.6947 58.2961 73.8476 59.2259C74.0006 60.1557 73.8485 61.1061 73.4105 61.9569C72.9725 62.8077 72.2683 63.5207 71.387 64.0057ZM69.1773 68.0601L88.4173 77.4211C89.4684 77.8814 89.1097 79.3246 87.9442 79.3246H49.4443C48.2788 79.3246 47.9201 77.8814 48.9712 77.4211L68.2311 68.0601C68.5302 67.9291 68.8781 67.9291 69.1773 68.0601Z" fill="black"/>
<path d="M51.6115 117.498C51.3836 116.794 51.1617 116.042 50.9505 115.244L43.7146 114.126C43.4126 114.079 43.1457 113.898 43.0077 113.625C42.0012 111.636 41.6947 109.4 41.8746 106.897C41.1261 104.754 40.8778 102.31 41.4883 99.1462C40.4736 95.7269 40.6865 92.0476 42.5955 87.8179C41.8504 84.7536 42.3146 81.9997 44.1345 79.4708C45.1314 76.9809 46.4241 75.1615 48.6386 74.025C51.286 71.8844 54.8546 70.2104 60.2657 68.1426V65.5106C60.2657 65.1635 60.679 64.9814 60.9389 65.2116C63.2775 67.2827 64.6574 68.1329 68.79 69.8341C72.6603 68.0221 74.28 67.4378 76.0667 65.2171C76.3229 64.8986 76.8714 65.0918 76.8437 65.4996L76.664 68.1426C81.6931 69.8432 85.035 71.4132 88.1827 74.025C89.913 75.4606 91.5846 77.211 93.4456 79.4708C94.7307 82.0715 95.5192 84.952 95.2413 87.8179C97.1391 91.8216 97.6545 95.3896 96.5004 99.1462C97.1326 102.499 96.7848 104.869 95.9196 106.897C96.94 109.4 96.1478 112.39 94.5255 113.878C94.3968 113.996 94.2329 114.066 94.0604 114.094L86.8326 115.244C86.6867 115.876 86.5466 116.49 86.4217 117.107C86.2236 118.085 85.382 118.821 84.3841 118.821H69.0955H53.4658C52.6255 118.821 51.8703 118.297 51.6115 117.498Z" fill="white"/>
<path d="M51.6115 117.498C51.3836 116.794 51.1617 116.042 50.9505 115.244L43.7146 114.126C43.4126 114.079 43.1457 113.898 43.0077 113.625C42.0012 111.636 41.6947 109.4 41.8746 106.897C41.1261 104.754 40.8778 102.31 41.4883 99.1462C40.4736 95.7269 40.6865 92.0476 42.5955 87.8179C41.8504 84.7536 42.3146 81.9997 44.1345 79.4708C45.1314 76.9809 46.4241 75.1615 48.6386 74.025C51.286 71.8844 54.8546 70.2104 60.2657 68.1426V65.5106C60.2657 65.1635 60.679 64.9814 60.9389 65.2116C63.2775 67.2827 64.6574 68.1329 68.79 69.8341C72.6603 68.0221 74.28 67.4378 76.0667 65.2171C76.3229 64.8986 76.8714 65.0918 76.8437 65.4996L76.664 68.1426C81.6931 69.8432 85.035 71.4132 88.1827 74.025C89.913 75.4606 91.5846 77.211 93.4456 79.4708C94.7307 82.0715 95.5192 84.952 95.2413 87.8179C97.1391 91.8216 97.6545 95.3896 96.5004 99.1462C97.1326 102.499 96.7848 104.869 95.9196 106.897C96.94 109.4 96.1478 112.39 94.5255 113.878C94.3968 113.996 94.2329 114.066 94.0604 114.094L86.8326 115.244C86.6867 115.876 86.5466 116.49 86.4217 117.107C86.2236 118.085 85.382 118.821 84.3841 118.821H69.0955H53.4658C52.6255 118.821 51.8703 118.297 51.6115 117.498Z" fill="#5EB0FF" fill-opacity="0.8"/>
<path d="M76.664 68.1426C73.5091 72.8599 72.267 72.3724 68.79 72.8569M76.664 68.1426C81.6931 69.8432 85.035 71.4132 88.1827 74.025M76.664 68.1426L76.8437 65.4996C76.8714 65.0918 76.3229 64.8986 76.0667 65.2171C74.28 67.4378 72.6603 68.0221 68.79 69.8341M68.79 72.8569C64.12 72.2338 62.8906 71.8352 60.2657 68.1426M68.79 72.8569L69.0955 118.821M68.79 72.8569C68.79 71.3815 68.79 70.227 68.79 69.8341M60.2657 68.1426C54.8546 70.2104 51.286 71.8844 48.6386 74.025M60.2657 68.1426V65.5106C60.2657 65.1635 60.679 64.9814 60.9389 65.2116C63.2775 67.2827 64.6574 68.1329 68.79 69.8341M44.1345 79.4708C45.1314 76.9809 46.4241 75.1615 48.6386 74.025M44.1345 79.4708L50.0556 85.2319M44.1345 79.4708C42.3146 81.9997 41.8504 84.7536 42.5955 87.8179M93.4456 79.4708C91.5846 77.211 89.913 75.4606 88.1827 74.025M93.4456 79.4708L87.3334 85.2319M93.4456 79.4708C94.7307 82.0715 95.5192 84.952 95.2413 87.8179M50.9505 115.244C51.1617 116.042 51.3836 116.794 51.6115 117.498C51.8703 118.297 52.6255 118.821 53.4658 118.821H69.0955M50.9505 115.244L43.7146 114.126C43.4126 114.079 43.1457 113.898 43.0077 113.625C42.0012 111.636 41.6947 109.4 41.8746 106.897M50.9505 115.244C50.8482 114.858 50.7484 114.46 50.6517 114.052M86.8326 115.244C86.6867 115.876 86.5466 116.49 86.4217 117.107C86.2236 118.085 85.382 118.821 84.3841 118.821H69.0955M86.8326 115.244L94.0604 114.094C94.2329 114.066 94.3968 113.996 94.5255 113.878C96.1478 112.39 96.94 109.4 95.9196 106.897M86.8326 115.244C86.9223 114.855 87.0143 114.46 87.1062 114.052M49.9356 90.2028H87.3122M49.9356 90.2028C48.6064 93.0413 48.3113 96.0223 49.1837 99.1462M49.9356 90.2028C50.1585 88.6575 49.7206 86.8659 50.0556 85.2319M49.9356 90.2028L42.5955 87.8179M87.3122 90.2028C88.6846 92.9899 89.0327 95.8837 88.181 99.1462M87.3122 90.2028C87.1156 88.7094 87.6009 86.9211 87.3334 85.2319M87.3122 90.2028L95.2413 87.8179M49.1837 99.1462H88.181M49.1837 99.1462C48.4069 102.37 48.6003 104.756 49.4717 106.897M49.1837 99.1462H41.4883M88.181 99.1462C88.9254 102.461 88.9182 104.908 88.1827 106.897M88.181 99.1462H96.5004M49.4717 106.897H88.1827M49.4717 106.897C49.1259 110.277 49.6014 112.598 50.6517 114.052M49.4717 106.897H41.8746M88.1827 106.897C88.6808 110.356 88.3199 112.605 87.1062 114.052M88.1827 106.897H95.9196M50.6517 114.052H87.1062M88.1827 74.025C86.8762 74.3112 86.3443 76.9809 86.174 79.4708M48.6386 74.025C50.1013 75.196 50.8453 77.4552 51.1866 79.4708M51.1866 79.4708C51.3827 80.6292 50.6767 81.5407 50.6667 82.2854C50.4226 83.2946 50.2561 84.2537 50.0556 85.2319M51.1866 79.4708H86.174M86.174 79.4708C86.0985 80.5742 86.6917 81.4757 86.7222 82.2854C86.8992 83.3132 87.1813 84.2717 87.3334 85.2319M42.5955 87.8179C40.6865 92.0476 40.4736 95.7269 41.4883 99.1462M41.4883 99.1462C40.8778 102.31 41.1261 104.754 41.8746 106.897M95.2413 87.8179C97.1391 91.8216 97.6545 95.3896 96.5004 99.1462M96.5004 99.1462C97.1326 102.499 96.7848 104.869 95.9196 106.897" stroke="white" stroke-opacity="0.5" stroke-linecap="round" stroke-linejoin="round"/>
</g>
</g>
<rect x="16.5" y="16.5" width="105" height="117" rx="15.5" stroke="url(#paint0_linear_5082_12791)" stroke-opacity="0.5" shape-rendering="crispEdges"/>
</g>
<defs>
<filter id="filter0_bdd_5082_12791" x="-4" y="-4" width="150" height="162" filterUnits="userSpaceOnUse" color-interpolation-filters="sRGB">
<feFlood flood-opacity="0" result="BackgroundImageFix"/>
<feGaussianBlur in="BackgroundImageFix" stdDeviation="10"/>
<feComposite in2="SourceAlpha" operator="in" result="effect1_backgroundBlur_5082_12791"/>
<feColorMatrix in="SourceAlpha" type="matrix" values="0 0 0 0 0 0 0 0 0 0 0 0 0 0 0 0 0 0 127 0" result="hardAlpha"/>
<feOffset dx="4" dy="4"/>
<feGaussianBlur stdDeviation="10"/>
<feComposite in2="hardAlpha" operator="out"/>
<feColorMatrix type="matrix" values="0 0 0 0 0 0 0 0 0 0 0 0 0 0 0 0 0 0 0.05 0"/>
<feBlend mode="normal" in2="effect1_backgroundBlur_5082_12791" result="effect2_dropShadow_5082_12791"/>
<feColorMatrix in="SourceAlpha" type="matrix" values="0 0 0 0 0 0 0 0 0 0 0 0 0 0 0 0 0 0 127 0" result="hardAlpha"/>
<feOffset/>
<feGaussianBlur stdDeviation="1"/>
<feComposite in2="hardAlpha" operator="out"/>
<feColorMatrix type="matrix" values="0 0 0 0 0 0 0 0 0 0 0 0 0 0 0 0 0 0 0.05 0"/>
<feBlend mode="normal" in2="effect2_dropShadow_5082_12791" result="effect3_dropShadow_5082_12791"/>
<feBlend mode="normal" in="SourceGraphic" in2="effect3_dropShadow_5082_12791" result="shape"/>
</filter>
<filter id="filter1_bd_5082_12791" x="30.3889" y="45.1787" width="77.2224" height="84.1426" filterUnits="userSpaceOnUse" color-interpolation-filters="sRGB">
<feFlood flood-opacity="0" result="BackgroundImageFix"/>
<feGaussianBlur in="BackgroundImageFix" stdDeviation="5"/>
<feComposite in2="SourceAlpha" operator="in" result="effect1_backgroundBlur_5082_12791"/>
<feColorMatrix in="SourceAlpha" type="matrix" values="0 0 0 0 0 0 0 0 0 0 0 0 0 0 0 0 0 0 127 0" result="hardAlpha"/>
<feOffset dy="1"/>
<feGaussianBlur stdDeviation="1"/>
<feComposite in2="hardAlpha" operator="out"/>
<feColorMatrix type="matrix" values="0 0 0 0 0 0 0 0 0 0 0 0 0 0 0 0 0 0 0.1 0"/>
<feBlend mode="normal" in2="effect1_backgroundBlur_5082_12791" result="effect2_dropShadow_5082_12791"/>
<feBlend mode="normal" in="SourceGraphic" in2="effect2_dropShadow_5082_12791" result="shape"/>
</filter>
<filter id="filter2_bdd_5082_12791" x="22.3162" y="48.3516" width="97.2954" height="94.3809" filterUnits="userSpaceOnUse" color-interpolation-filters="sRGB">
<feFlood flood-opacity="0" result="BackgroundImageFix"/>
<feGaussianBlur in="BackgroundImageFix" stdDeviation="10"/>
<feComposite in2="SourceAlpha" operator="in" result="effect1_backgroundBlur_5082_12791"/>
<feColorMatrix in="SourceAlpha" type="matrix" values="0 0 0 0 0 0 0 0 0 0 0 0 0 0 0 0 0 0 127 0" result="hardAlpha"/>
<feOffset dx="4" dy="4"/>
<feGaussianBlur stdDeviation="10"/>
<feColorMatrix type="matrix" values="0 0 0 0 0 0 0 0 0 0 0 0 0 0 0 0 0 0 0.05 0"/>
<feBlend mode="normal" in2="effect1_backgroundBlur_5082_12791" result="effect2_dropShadow_5082_12791"/>
<feColorMatrix in="SourceAlpha" type="matrix" values="0 0 0 0 0 0 0 0 0 0 0 0 0 0 0 0 0 0 127 0" result="hardAlpha"/>
<feOffset/>
<feGaussianBlur stdDeviation="1"/>
<feColorMatrix type="matrix" values="0 0 0 0 0 0 0 0 0 0 0 0 0 0 0 0 0 0 0.05 0"/>
<feBlend mode="normal" in2="effect2_dropShadow_5082_12791" result="effect3_dropShadow_5082_12791"/>
<feBlend mode="normal" in="SourceGraphic" in2="effect3_dropShadow_5082_12791" result="shape"/>
</filter>
<linearGradient id="paint0_linear_5082_12791" x1="28.0455" y1="16" x2="137.125" y2="165.064" gradientUnits="userSpaceOnUse">
<stop stop-color="white"/>
<stop offset="1" stop-color="white" stop-opacity="0"/>
</linearGradient>
<clipPath id="clip0_5082_12791">
<rect x="16" y="16" width="106" height="118" rx="16" fill="white"/>
</clipPath>
</defs>
</svg>
