<svg width="66" height="69" viewBox="0 0 66 69" fill="none" xmlns="http://www.w3.org/2000/svg">
<g id="Box" filter="url(#filter0_d_2138_298)">
<rect x="-20" y="-38" width="106" height="118" rx="16" fill="white" fill-opacity="0.4" shape-rendering="crispEdges"/>
<rect x="-19.5" y="-37.5" width="105" height="117" rx="15.5" stroke="url(#paint0_linear_2138_298)" stroke-opacity="0.5" shape-rendering="crispEdges"/>
<g id="&#237;&#140;&#168;&#235;&#148;&#169;">
<g id="Group 49" filter="url(#filter1_bd_2138_298)">
<g id="Subtract">
<path d="M47.755 64.2324H16.5001C16.125 63.1835 15.7576 62.5923 15.4187 61.286L8.60529 60.2117C8.20527 60.1486 7.88165 59.8511 7.7944 59.4557C5.90985 50.9147 6.84552 41.0838 9.76549 26.1111C10.1576 24.1007 11.3236 22.3269 13.0005 21.1508L17.111 18.2681L23.7627 15.0611C24.202 14.8493 24.7047 14.8075 25.1761 14.9326C30.2896 16.2902 33.6856 16.2702 39.6048 14.9042C40.0743 14.7959 40.5688 14.8547 40.9964 15.0767L48.2777 18.8574L53.1977 22.4158C54.7543 23.5415 55.8607 25.1942 56.2802 27.0688C59.8405 42.9794 59.7607 50.63 57.6031 59.4694C57.5087 59.8565 57.1899 60.1488 56.7966 60.2126L50.186 61.286C50.074 61.7808 49.9656 62.1634 49.8653 62.5276C49.5997 63.4915 48.7548 64.2324 47.755 64.2324Z" fill="#5EB0FF" fill-opacity="0.8"/>
<path d="M15.8889 28.8753C12.5414 42.9911 13.5461 54.0666 15.4187 61.286M49.5 28.8753C52.9712 49.4448 51.3784 56.0156 50.186 61.286M15.4187 61.286C15.7576 62.5923 16.125 63.1835 16.5001 64.2324H47.755C48.7548 64.2324 49.5997 63.4915 49.8653 62.5276C49.9656 62.1634 50.074 61.7808 50.186 61.286M15.4187 61.286L8.60529 60.2117C8.20527 60.1486 7.88165 59.8511 7.7944 59.4557C5.90985 50.9147 6.84552 41.0838 9.76549 26.1111C10.1576 24.1007 11.3236 22.3269 13.0005 21.1508L17.111 18.2681L23.7627 15.0611C24.202 14.8493 24.7047 14.8075 25.1761 14.9326C30.2897 16.2902 33.6856 16.2702 39.6048 14.9042C40.0743 14.7959 40.5688 14.8547 40.9964 15.0767L48.2777 18.8574L53.1977 22.4158C54.7543 23.5415 55.8607 25.1942 56.2802 27.0688C59.8405 42.9794 59.7607 50.63 57.6031 59.4694C57.5087 59.8565 57.1899 60.1487 56.7966 60.2126L50.186 61.286" stroke="white" stroke-opacity="0.5" stroke-linecap="round"/>
</g>
<path id="Vector 80" d="M40.3335 11.4262C34.038 8.39129 30.559 8.56808 24.4446 11.4262V14.141L32.7068 21.214L40.3335 14.4648V11.4262Z" fill="#298CFF" fill-opacity="0.8" stroke="white" stroke-opacity="0.5"/>
<path id="Union" fill-rule="evenodd" clip-rule="evenodd" d="M35.387 10.0057C34.813 10.3216 34.1806 10.5315 33.5254 10.6273V12.5758C33.6483 12.6111 33.7691 12.6546 33.8869 12.7062L53.1269 22.0672C55.7548 23.2179 54.858 26.8259 51.9442 26.8259H13.4443C10.5305 26.8259 9.63375 23.2179 12.2616 22.0672L31.5214 12.7062C31.6392 12.6546 31.76 12.6111 31.8829 12.5758V9.41423C31.8829 9.28798 31.9949 9.18564 32.133 9.18564C32.8554 9.1601 33.9704 8.93555 34.4927 8.64807C35.0803 8.32474 35.5497 7.84942 35.8417 7.28222C36.1337 6.71502 36.2351 6.08142 36.1332 5.46154C36.0312 4.84166 35.7304 4.26334 35.2688 3.79971C34.8072 3.33608 34.2056 3.00797 33.54 2.85687C32.8744 2.70577 32.1748 2.73846 31.5295 2.95081C30.8842 3.16316 30.3224 3.54564 29.9149 4.04987C29.6164 4.41927 29.4106 4.84186 29.3092 5.28764C29.2477 5.55824 28.9956 5.77305 28.6936 5.76004L28.0555 5.73255C27.7535 5.71954 27.5172 5.48444 27.5631 5.21126C27.6906 4.45224 28.0179 3.7301 28.5203 3.1084C29.1315 2.35205 29.9743 1.77834 30.9422 1.45981C31.9101 1.14128 32.9596 1.09224 33.9579 1.3189C34.9563 1.54555 35.8588 2.03772 36.5511 2.73316C37.2435 3.4286 37.6947 4.29608 37.8476 5.2259C38.0006 6.15572 37.8485 7.10612 37.4105 7.95692C36.9725 8.80771 36.2683 9.52069 35.387 10.0057ZM33.1773 14.0601L52.4173 23.4211C53.4684 23.8814 53.1097 25.3246 51.9442 25.3246H13.4443C12.2788 25.3246 11.9201 23.8814 12.9712 23.4211L32.2311 14.0601C32.5302 13.9291 32.8781 13.9291 33.1773 14.0601Z" fill="black"/>
<g id="Subtract_2">
<path d="M15.6115 63.4979C15.3836 62.7939 15.1617 62.0424 14.9505 61.2442L7.71462 60.1257C7.41256 60.079 7.14568 59.898 7.0077 59.6253C6.00117 57.6358 5.6947 55.3999 5.87465 52.8971C5.12606 50.7544 4.87776 48.31 5.48833 45.1462C4.47356 41.7269 4.68645 38.0476 6.59551 33.8179C5.85035 30.7536 6.31459 27.9997 8.13451 25.4708C9.1314 22.9809 10.4241 21.1615 12.6386 20.025C15.286 17.8844 18.8546 16.2104 24.2657 14.1426V11.5106C24.2657 11.1635 24.679 10.9814 24.9389 11.2116C27.2775 13.2827 28.6574 14.1329 32.79 15.8341C36.6603 14.0221 38.28 13.4378 40.0667 11.2171C40.3229 10.8986 40.8714 11.0918 40.8437 11.4996L40.664 14.1426C45.6931 15.8432 49.035 17.4132 52.1827 20.025C53.913 21.4606 55.5846 23.211 57.4456 25.4708C58.7307 28.0715 59.5192 30.952 59.2413 33.8179C61.1391 37.8216 61.6545 41.3896 60.5004 45.1462C61.1326 48.4992 60.7848 50.8691 59.9196 52.8971C60.94 55.3998 60.1478 58.3905 58.5255 59.878C58.3968 59.996 58.2329 60.0662 58.0604 60.0937L50.8326 61.2442C50.6867 61.8764 50.5466 62.49 50.4217 63.1066C50.2236 64.0846 49.382 64.8212 48.3841 64.8212H33.0955H17.4658C16.6255 64.8212 15.8703 64.2973 15.6115 63.4979Z" fill="white"/>
<path d="M15.6115 63.4979C15.3836 62.7939 15.1617 62.0424 14.9505 61.2442L7.71462 60.1257C7.41256 60.079 7.14568 59.898 7.0077 59.6253C6.00117 57.6358 5.6947 55.3999 5.87465 52.8971C5.12606 50.7544 4.87776 48.31 5.48833 45.1462C4.47356 41.7269 4.68645 38.0476 6.59551 33.8179C5.85035 30.7536 6.31459 27.9997 8.13451 25.4708C9.1314 22.9809 10.4241 21.1615 12.6386 20.025C15.286 17.8844 18.8546 16.2104 24.2657 14.1426V11.5106C24.2657 11.1635 24.679 10.9814 24.9389 11.2116C27.2775 13.2827 28.6574 14.1329 32.79 15.8341C36.6603 14.0221 38.28 13.4378 40.0667 11.2171C40.3229 10.8986 40.8714 11.0918 40.8437 11.4996L40.664 14.1426C45.6931 15.8432 49.035 17.4132 52.1827 20.025C53.913 21.4606 55.5846 23.211 57.4456 25.4708C58.7307 28.0715 59.5192 30.952 59.2413 33.8179C61.1391 37.8216 61.6545 41.3896 60.5004 45.1462C61.1326 48.4992 60.7848 50.8691 59.9196 52.8971C60.94 55.3998 60.1478 58.3905 58.5255 59.878C58.3968 59.996 58.2329 60.0662 58.0604 60.0937L50.8326 61.2442C50.6867 61.8764 50.5466 62.49 50.4217 63.1066C50.2236 64.0846 49.382 64.8212 48.3841 64.8212H33.0955H17.4658C16.6255 64.8212 15.8703 64.2973 15.6115 63.4979Z" fill="#5EB0FF" fill-opacity="0.8"/>
<path d="M40.664 14.1426C37.5091 18.8599 36.267 18.3724 32.79 18.8569M40.664 14.1426C45.6931 15.8432 49.035 17.4132 52.1827 20.025M40.664 14.1426L40.8437 11.4996C40.8714 11.0918 40.3229 10.8986 40.0667 11.2171C38.28 13.4378 36.6603 14.0221 32.79 15.8341M32.79 18.8569C28.12 18.2338 26.8906 17.8352 24.2657 14.1426M32.79 18.8569L33.0955 64.8212M32.79 18.8569C32.79 17.3815 32.79 16.227 32.79 15.8341M24.2657 14.1426C18.8546 16.2104 15.286 17.8844 12.6386 20.025M24.2657 14.1426V11.5106C24.2657 11.1635 24.679 10.9814 24.9389 11.2116C27.2775 13.2827 28.6574 14.1329 32.79 15.8341M8.13451 25.4708C9.1314 22.9809 10.4241 21.1615 12.6386 20.025M8.13451 25.4708L14.0556 31.2319M8.13451 25.4708C6.31459 27.9997 5.85035 30.7536 6.59551 33.8179M57.4456 25.4708C55.5846 23.211 53.913 21.4606 52.1827 20.025M57.4456 25.4708L51.3334 31.2319M57.4456 25.4708C58.7307 28.0715 59.5192 30.952 59.2413 33.8179M14.9505 61.2442C15.1617 62.0424 15.3836 62.7939 15.6115 63.4979C15.8703 64.2973 16.6255 64.8212 17.4658 64.8212H33.0955M14.9505 61.2442L7.71462 60.1257C7.41256 60.079 7.14568 59.898 7.0077 59.6253C6.00117 57.6358 5.6947 55.3999 5.87465 52.8971M14.9505 61.2442C14.8482 60.8576 14.7484 60.4601 14.6517 60.0518M50.8326 61.2442C50.6867 61.8764 50.5466 62.49 50.4217 63.1066C50.2236 64.0846 49.382 64.8212 48.3841 64.8212H33.0955M50.8326 61.2442L58.0604 60.0937C58.2329 60.0662 58.3968 59.996 58.5255 59.878C60.1478 58.3905 60.94 55.3998 59.9196 52.8971M50.8326 61.2442C50.9223 60.8554 51.0143 60.4595 51.1062 60.0518M13.9356 36.2028H51.3122M13.9356 36.2028C12.6064 39.0413 12.3113 42.0223 13.1837 45.1462M13.9356 36.2028C14.1585 34.6575 13.7206 32.8659 14.0556 31.2319M13.9356 36.2028L6.59551 33.8179M51.3122 36.2028C52.6846 38.9899 53.0327 41.8837 52.181 45.1462M51.3122 36.2028C51.1156 34.7094 51.6009 32.9211 51.3334 31.2319M51.3122 36.2028L59.2413 33.8179M13.1837 45.1462H52.181M13.1837 45.1462C12.4069 48.3701 12.6003 50.7555 13.4717 52.8971M13.1837 45.1462H5.48833M52.181 45.1462C52.9254 48.4606 52.9182 50.908 52.1827 52.8971M52.181 45.1462H60.5004M13.4717 52.8971H52.1827M13.4717 52.8971C13.1259 56.2771 13.6014 58.5977 14.6517 60.0518M13.4717 52.8971H5.87465M52.1827 52.8971C52.6808 56.356 52.3199 58.6052 51.1062 60.0518M52.1827 52.8971H59.9196M14.6517 60.0518H51.1062M52.1827 20.025C50.8762 20.3112 50.3443 22.9809 50.174 25.4708M12.6386 20.025C14.1013 21.196 14.8453 23.4552 15.1866 25.4708M15.1866 25.4708C15.3827 26.6292 14.6767 27.5407 14.6667 28.2854C14.4226 29.2946 14.2561 30.2537 14.0556 31.2319M15.1866 25.4708H50.174M50.174 25.4708C50.0985 26.5742 50.6917 27.4757 50.7222 28.2854C50.8992 29.3132 51.1813 30.2717 51.3334 31.2319M6.59551 33.8179C4.68645 38.0476 4.47356 41.7269 5.48833 45.1462M5.48833 45.1462C4.87776 48.31 5.12606 50.7544 5.87465 52.8971M59.2413 33.8179C61.1391 37.8216 61.6545 41.3896 60.5004 45.1462M60.5004 45.1462C61.1326 48.4992 60.7848 50.8691 59.9196 52.8971" stroke="white" stroke-opacity="0.5" stroke-linecap="round" stroke-linejoin="round"/>
</g>
</g>
</g>
</g>
<defs>
<filter id="filter0_d_2138_298" x="-36" y="-54" width="146" height="158" filterUnits="userSpaceOnUse" color-interpolation-filters="sRGB">
<feFlood flood-opacity="0" result="BackgroundImageFix"/>
<feColorMatrix in="SourceAlpha" type="matrix" values="0 0 0 0 0 0 0 0 0 0 0 0 0 0 0 0 0 0 127 0" result="hardAlpha"/>
<feOffset dx="4" dy="4"/>
<feGaussianBlur stdDeviation="10"/>
<feComposite in2="hardAlpha" operator="out"/>
<feColorMatrix type="matrix" values="0 0 0 0 0 0 0 0 0 0 0 0 0 0 0 0 0 0 0.05 0"/>
<feBlend mode="normal" in2="BackgroundImageFix" result="effect1_dropShadow_2138_298"/>
<feBlend mode="normal" in="SourceGraphic" in2="effect1_dropShadow_2138_298" result="shape"/>
</filter>
<filter id="filter1_bd_2138_298" x="-5.61108" y="-8.82129" width="77.2224" height="84.1426" filterUnits="userSpaceOnUse" color-interpolation-filters="sRGB">
<feFlood flood-opacity="0" result="BackgroundImageFix"/>
<feGaussianBlur in="BackgroundImageFix" stdDeviation="5"/>
<feComposite in2="SourceAlpha" operator="in" result="effect1_backgroundBlur_2138_298"/>
<feColorMatrix in="SourceAlpha" type="matrix" values="0 0 0 0 0 0 0 0 0 0 0 0 0 0 0 0 0 0 127 0" result="hardAlpha"/>
<feOffset dy="1"/>
<feGaussianBlur stdDeviation="1"/>
<feComposite in2="hardAlpha" operator="out"/>
<feColorMatrix type="matrix" values="0 0 0 0 0 0 0 0 0 0 0 0 0 0 0 0 0 0 0.1 0"/>
<feBlend mode="normal" in2="effect1_backgroundBlur_2138_298" result="effect2_dropShadow_2138_298"/>
<feBlend mode="normal" in="SourceGraphic" in2="effect2_dropShadow_2138_298" result="shape"/>
</filter>
<linearGradient id="paint0_linear_2138_298" x1="-7.95455" y1="-38" x2="101.125" y2="111.064" gradientUnits="userSpaceOnUse">
<stop stop-color="white"/>
<stop offset="1" stop-color="white" stop-opacity="0"/>
</linearGradient>
</defs>
</svg>
