<svg width="66" height="70" viewBox="0 0 66 70" fill="none" xmlns="http://www.w3.org/2000/svg">
<g filter="url(#filter0_bd_5082_12507)">
<path d="M10.4953 65.8214C9.33994 65.8214 8.42491 64.8453 8.49943 63.6924L10.4916 32.871C10.5596 31.8187 11.433 31 12.4875 31H53.7525C54.807 31 55.6804 31.8187 55.7484 32.871L57.7405 63.6924C57.815 64.8454 56.9 65.8214 55.7447 65.8214H37.0385C36.0725 65.8214 35.2446 65.131 35.071 64.1808L33.12 53.5L31.1689 64.1808C30.9953 65.1311 30.1674 65.8214 29.2015 65.8214H10.4953Z" fill="#FFB751" stroke="white" stroke-opacity="0.5" stroke-linejoin="round"/>
<path fill-rule="evenodd" clip-rule="evenodd" d="M36.1243 11.1242C35.4816 11.4866 34.7733 11.7274 34.0397 11.8372V14.072C34.1772 14.1125 34.3125 14.1624 34.4444 14.2216L58.3835 24.9583C61.3262 26.2781 60.3219 30.4165 57.059 30.4165H49.9804V31.9949C49.9804 32.6289 49.4314 33.1429 48.7542 33.1429H47.528C46.8508 33.1429 46.3018 32.6289 46.3018 31.9949V30.4165H19.3251V31.9949C19.3251 32.6289 18.7761 33.1429 18.0989 33.1429H16.8727C16.1955 33.1429 15.6465 32.6289 15.6465 31.9949V30.4165H9.18105C5.91809 30.4165 4.91386 26.2781 7.85649 24.9583L31.7956 14.2216C31.8435 14.2001 31.8919 14.1798 31.9407 14.1607C32.0261 14.1274 32.1128 14.0978 32.2004 14.072V10.4459C32.2004 10.301 32.3258 10.1837 32.4804 10.1837C33.2893 10.1544 34.538 9.89682 35.1229 9.56709C35.7808 9.19623 36.3065 8.65104 36.6335 8.00048C36.9605 7.34999 37.0741 6.62327 36.9599 5.91224C36.8457 5.20128 36.5089 4.53797 35.992 4.00617C35.4751 3.47444 34.8014 3.09811 34.056 2.92477C33.3107 2.7515 32.5271 2.78898 31.8046 3.03253C31.0821 3.27608 30.4528 3.71476 29.9966 4.29309C29.6623 4.71677 29.4318 5.20149 29.3183 5.71283C29.2493 6.02315 28.9672 6.26957 28.6289 6.25465L27.9145 6.22312C27.5762 6.2082 27.3115 5.93851 27.363 5.62518C27.5058 4.75461 27.8722 3.92636 28.4349 3.2133C29.1193 2.34574 30.063 1.68776 31.1469 1.32243C32.2307 0.957039 33.4061 0.900846 34.5241 1.16079C35.642 1.42073 36.6526 1.98526 37.4279 2.78289C38.2033 3.58052 38.7085 4.57552 38.8799 5.64199C39.0511 6.70847 38.8808 7.79855 38.3902 8.77436C37.8999 9.75017 37.1112 10.568 36.1243 11.1242ZM49.9804 28.6945V27.4031C49.9804 26.769 49.4314 26.2551 48.7542 26.2551H47.528C46.8508 26.2551 46.3018 26.769 46.3018 27.4031V28.6945H19.3251V27.4031C19.3251 26.769 18.7761 26.2551 18.0989 26.2551H16.8727C16.1955 26.2551 15.6465 26.769 15.6465 27.4031V28.6945H9.18105C7.8758 28.6945 7.4742 27.0392 8.65117 26.5113L32.5903 15.7745C32.9251 15.6243 33.3149 15.6243 33.6497 15.7745L57.5889 26.5113C58.7658 27.0392 58.3642 28.6945 57.059 28.6945H49.9804Z" fill="black"/>
<path d="M9.77783 31.6431H56.2223H9.77783ZM56.2223 35.6788H9.77783V34.6788H56.2223V35.6788ZM9.77783 35.1788V31.6431V35.1788ZM56.2223 31.6431V35.1788V31.6431Z" fill="white" fill-opacity="0.5"/>
<path d="M33 35.1787H35.4444V48.3216C35.4444 48.8739 34.9967 49.3216 34.4444 49.3216H33V35.1787Z" stroke="white" stroke-opacity="0.5"/>
</g>
<defs>
<filter id="filter0_bd_5082_12507" x="-3.88892" y="-9" width="74.0178" height="85.3213" filterUnits="userSpaceOnUse" color-interpolation-filters="sRGB">
<feFlood flood-opacity="0" result="BackgroundImageFix"/>
<feGaussianBlur in="BackgroundImageFix" stdDeviation="5"/>
<feComposite in2="SourceAlpha" operator="in" result="effect1_backgroundBlur_5082_12507"/>
<feColorMatrix in="SourceAlpha" type="matrix" values="0 0 0 0 0 0 0 0 0 0 0 0 0 0 0 0 0 0 127 0" result="hardAlpha"/>
<feOffset dy="1"/>
<feGaussianBlur stdDeviation="1"/>
<feComposite in2="hardAlpha" operator="out"/>
<feColorMatrix type="matrix" values="0 0 0 0 0 0 0 0 0 0 0 0 0 0 0 0 0 0 0.1 0"/>
<feBlend mode="normal" in2="effect1_backgroundBlur_5082_12507" result="effect2_dropShadow_5082_12507"/>
<feBlend mode="normal" in="SourceGraphic" in2="effect2_dropShadow_5082_12507" result="shape"/>
</filter>
</defs>
</svg>
