<svg width="146" height="158" viewBox="0 0 146 158" fill="none" xmlns="http://www.w3.org/2000/svg">
<g filter="url(#filter0_bdd_5082_12513)">
<rect x="16" y="16" width="106" height="118" rx="16" fill="white" fill-opacity="0.4" shape-rendering="crispEdges"/>
<rect x="16.5" y="16.5" width="105" height="117" rx="15.5" stroke="url(#paint0_linear_5082_12513)" stroke-opacity="0.5" shape-rendering="crispEdges"/>
<path d="M48.2681 32.18H48.9881V33.128C48.9881 34.328 48.4361 35.9 47.0321 36.572L46.5521 35.84C47.7281 35.252 48.2681 33.992 48.2681 33.128V32.18ZM48.5081 32.18H49.2041V33.128C49.2041 33.896 49.5161 35.252 50.6201 35.924L50.2001 36.68C48.8321 35.912 48.5081 34.184 48.5081 33.128V32.18ZM51.1961 32.18H51.8921V33.128C51.8921 34.244 51.5681 35.924 50.2001 36.68L49.7801 35.924C50.8721 35.264 51.1961 33.956 51.1961 33.128V32.18ZM51.4121 32.18H52.1441V33.128C52.1441 34.04 52.6721 35.276 53.8601 35.84L53.3681 36.572C51.9761 35.9 51.4121 34.364 51.4121 33.128V32.18ZM46.9121 31.7H49.9721V32.504H46.9121V31.7ZM50.4401 31.7H53.4521V32.504H50.4401V31.7ZM51.8561 37.316H52.7681V38.72H54.4001V37.316H55.3001V41.816H51.8561V37.316ZM52.7681 39.464V41.036H54.4001V39.464H52.7681ZM54.3041 31.088H55.3001V36.74H54.3041V31.088ZM54.6401 33.38H56.6681V34.208H54.6401V33.38ZM47.8001 37.424H51.1961V39.896H48.7841V41.42H47.8361V39.188H50.2361V38.18H47.8001V37.424ZM47.8361 41.06H48.3881C49.7441 41.06 50.4881 41.048 51.4361 40.856L51.5321 41.612C50.5241 41.804 49.7801 41.816 48.3881 41.816H47.8361V41.06ZM57.4471 36.788H67.2511V37.604H57.4471V36.788ZM58.7191 40.88H66.1711V41.696H58.7191V40.88ZM58.7191 38.552H59.7151V41.132H58.7191V38.552ZM62.3551 31.448C64.6711 31.448 66.1711 32.264 66.1711 33.62C66.1711 34.964 64.6711 35.78 62.3551 35.78C60.0271 35.78 58.5391 34.964 58.5391 33.62C58.5391 32.264 60.0271 31.448 62.3551 31.448ZM62.3551 32.264C60.6511 32.264 59.5591 32.768 59.5591 33.62C59.5591 34.472 60.6511 34.976 62.3551 34.976C64.0591 34.976 65.1511 34.472 65.1511 33.62C65.1511 32.768 64.0591 32.264 62.3551 32.264ZM78.5858 31.088H79.5818V41.936H78.5858V31.088ZM73.7018 33.668H74.5058V34.592C74.5058 36.908 73.1978 39.008 71.4578 39.848L70.8938 39.08C72.5018 38.336 73.7018 36.488 73.7018 34.592V33.668ZM73.8938 33.668H74.6858V34.592C74.6858 36.404 75.9218 38.168 77.5418 38.876L76.9778 39.656C75.2258 38.864 73.8938 36.836 73.8938 34.592V33.668ZM71.1938 32.972H77.1698V33.776H71.1938V32.972ZM73.7018 31.28H74.6978V33.416H73.7018V31.28ZM81.9209 32.168H86.9009V39.188H81.9209V32.168ZM85.9289 32.972H82.8929V38.384H85.9289V32.972ZM88.8329 31.088H89.8409V41.936H88.8329V31.088ZM89.6009 35.42H91.6169V36.26H89.6009V35.42Z" fill="#121212" fill-opacity="0.7"/>
<g filter="url(#filter1_bd_5082_12513)">
<path d="M44.4994 116.692L46.4916 85.871C46.5596 84.8187 47.433 84 48.4875 84H89.7525C90.807 84 91.6804 84.8187 91.7484 85.871L93.7405 116.692C93.815 117.845 92.9 118.821 91.7447 118.821H71.3707H66.8692H46.4953C45.3399 118.821 44.4249 117.845 44.4994 116.692Z" fill="#333333" stroke="white" stroke-opacity="0.5" stroke-linejoin="round"/>
<path fill-rule="evenodd" clip-rule="evenodd" d="M72.1243 64.1242C71.4816 64.4866 70.7733 64.7274 70.0397 64.8372V67.072C70.1772 67.1125 70.3125 67.1624 70.4444 67.2216L94.3835 77.9583C97.3262 79.2781 96.3219 83.4165 93.059 83.4165H85.9804V84.9949C85.9804 85.6289 85.4314 86.1429 84.7542 86.1429H83.528C82.8508 86.1429 82.3018 85.6289 82.3018 84.9949V83.4165H55.3251V84.9949C55.3251 85.6289 54.7761 86.1429 54.0989 86.1429H52.8727C52.1955 86.1429 51.6465 85.6289 51.6465 84.9949V83.4165H45.181C41.9181 83.4165 40.9139 79.2781 43.8565 77.9583L67.7956 67.2216C67.8435 67.2001 67.8919 67.1798 67.9407 67.1607C68.0261 67.1274 68.1128 67.0978 68.2004 67.072V63.4459C68.2004 63.301 68.3258 63.1837 68.4804 63.1837C69.2893 63.1544 70.538 62.8968 71.1229 62.5671C71.7808 62.1962 72.3065 61.651 72.6335 61.0005C72.9605 60.35 73.0741 59.6233 72.9599 58.9122C72.8457 58.2013 72.5089 57.538 71.992 57.0062C71.4751 56.4744 70.8014 56.0981 70.056 55.9248C69.3107 55.7515 68.5271 55.789 67.8046 56.0325C67.0821 56.2761 66.4528 56.7148 65.9966 57.2931C65.6623 57.7168 65.4318 58.2015 65.3183 58.7128C65.2493 59.0232 64.9672 59.2696 64.6289 59.2547L63.9145 59.2231C63.5762 59.2082 63.3115 58.9385 63.363 58.6252C63.5058 57.7546 63.8722 56.9264 64.4349 56.2133C65.1193 55.3457 66.063 54.6878 67.1469 54.3224C68.2307 53.957 69.4061 53.9008 70.5241 54.1608C71.642 54.4207 72.6526 54.9853 73.4279 55.7829C74.2033 56.5805 74.7085 57.5755 74.8799 58.642C75.0511 59.7085 74.8808 60.7986 74.3902 61.7744C73.8999 62.7502 73.1112 63.568 72.1243 64.1242ZM85.9804 81.6945V80.4031C85.9804 79.769 85.4314 79.2551 84.7542 79.2551H83.528C82.8508 79.2551 82.3018 79.769 82.3018 80.4031V81.6945H55.3251V80.4031C55.3251 79.769 54.7761 79.2551 54.0989 79.2551H52.8727C52.1955 79.2551 51.6465 79.769 51.6465 80.4031V81.6945H45.181C43.8758 81.6945 43.4742 80.0392 44.6512 79.5113L68.5903 68.7745C68.9251 68.6243 69.3149 68.6243 69.6497 68.7745L93.5889 79.5113C94.7658 80.0392 94.3642 81.6945 93.059 81.6945H85.9804Z" fill="black"/>
<path d="M45.7778 84.6431H92.2223H45.7778ZM92.2223 88.6788H45.7778V87.6788H92.2223V88.6788ZM45.7778 88.1788V84.6431V88.1788ZM92.2223 84.6431V88.1788V84.6431Z" fill="white" fill-opacity="0.5"/>
<path d="M69 84.6431V84.1431H68.5V84.6431H69ZM71.4444 84.6431H71.9444V84.1431H71.4444V84.6431ZM71.4444 88.1788V88.6788H71.9444V88.1788H71.4444ZM69 88.1788H68.5V88.6788H69V88.1788ZM69 85.1431H71.4444V84.1431H69V85.1431ZM70.9444 84.6431V88.1788H71.9444V84.6431H70.9444ZM71.4444 87.6788H69V88.6788H71.4444V87.6788ZM69.5 88.1788V84.6431H68.5V88.1788H69.5Z" fill="#989898"/>
</g>
</g>
<defs>
<filter id="filter0_bdd_5082_12513" x="-4" y="-4" width="150" height="162" filterUnits="userSpaceOnUse" color-interpolation-filters="sRGB">
<feFlood flood-opacity="0" result="BackgroundImageFix"/>
<feGaussianBlur in="BackgroundImageFix" stdDeviation="10"/>
<feComposite in2="SourceAlpha" operator="in" result="effect1_backgroundBlur_5082_12513"/>
<feColorMatrix in="SourceAlpha" type="matrix" values="0 0 0 0 0 0 0 0 0 0 0 0 0 0 0 0 0 0 127 0" result="hardAlpha"/>
<feOffset dx="4" dy="4"/>
<feGaussianBlur stdDeviation="10"/>
<feComposite in2="hardAlpha" operator="out"/>
<feColorMatrix type="matrix" values="0 0 0 0 0 0 0 0 0 0 0 0 0 0 0 0 0 0 0.05 0"/>
<feBlend mode="normal" in2="effect1_backgroundBlur_5082_12513" result="effect2_dropShadow_5082_12513"/>
<feColorMatrix in="SourceAlpha" type="matrix" values="0 0 0 0 0 0 0 0 0 0 0 0 0 0 0 0 0 0 127 0" result="hardAlpha"/>
<feOffset/>
<feGaussianBlur stdDeviation="1"/>
<feComposite in2="hardAlpha" operator="out"/>
<feColorMatrix type="matrix" values="0 0 0 0 0 0 0 0 0 0 0 0 0 0 0 0 0 0 0.05 0"/>
<feBlend mode="normal" in2="effect2_dropShadow_5082_12513" result="effect3_dropShadow_5082_12513"/>
<feBlend mode="normal" in="SourceGraphic" in2="effect3_dropShadow_5082_12513" result="shape"/>
</filter>
<filter id="filter1_bd_5082_12513" x="32.1111" y="44" width="74.0178" height="85.3213" filterUnits="userSpaceOnUse" color-interpolation-filters="sRGB">
<feFlood flood-opacity="0" result="BackgroundImageFix"/>
<feGaussianBlur in="BackgroundImageFix" stdDeviation="5"/>
<feComposite in2="SourceAlpha" operator="in" result="effect1_backgroundBlur_5082_12513"/>
<feColorMatrix in="SourceAlpha" type="matrix" values="0 0 0 0 0 0 0 0 0 0 0 0 0 0 0 0 0 0 127 0" result="hardAlpha"/>
<feOffset dy="1"/>
<feGaussianBlur stdDeviation="1"/>
<feComposite in2="hardAlpha" operator="out"/>
<feColorMatrix type="matrix" values="0 0 0 0 0 0 0 0 0 0 0 0 0 0 0 0 0 0 0.1 0"/>
<feBlend mode="normal" in2="effect1_backgroundBlur_5082_12513" result="effect2_dropShadow_5082_12513"/>
<feBlend mode="normal" in="SourceGraphic" in2="effect2_dropShadow_5082_12513" result="shape"/>
</filter>
<linearGradient id="paint0_linear_5082_12513" x1="28.0455" y1="16" x2="137.125" y2="165.064" gradientUnits="userSpaceOnUse">
<stop stop-color="white"/>
<stop offset="1" stop-color="white" stop-opacity="0"/>
</linearGradient>
</defs>
</svg>
