<svg width="146" height="158" viewBox="0 0 146 158" fill="none" xmlns="http://www.w3.org/2000/svg">
<g filter="url(#filter0_bdd_5082_12505)">
<g clip-path="url(#clip0_5082_12505)">
<rect x="16" y="16" width="106" height="118" rx="16" fill="white" fill-opacity="0.4" shape-rendering="crispEdges"/>
<path d="M61.1974 31.1H62.1934V39.056H61.1974V31.1ZM61.8814 34.376H63.8014V35.204H61.8814V34.376ZM55.4374 40.88H62.6854V41.696H55.4374V40.88ZM55.4374 38.288H56.4334V41.072H55.4374V38.288ZM54.2254 31.868H55.2094V33.68H58.2694V31.868H59.2414V37.244H54.2254V31.868ZM55.2094 34.46V36.44H58.2694V34.46H55.2094ZM71.9125 31.088H72.9205V41.936H71.9125V31.088ZM72.6805 35.348H74.6965V36.2H72.6805V35.348ZM65.0005 32H65.9845V34.868H69.0805V32H70.0645V39.332H65.0005V32ZM65.9845 35.66V38.516H69.0805V35.66H65.9845ZM78.2475 32.636H79.0515V34.4C79.0515 36.692 77.6715 38.996 75.9435 39.848L75.3675 39.056C76.9395 38.312 78.2475 36.272 78.2475 34.4V32.636ZM78.4395 32.636H79.2435V34.4C79.2435 36.236 80.5515 38.108 82.1475 38.792L81.5835 39.584C79.8315 38.768 78.4395 36.656 78.4395 34.4V32.636ZM75.7275 32.192H81.7875V33.032H75.7275V32.192ZM83.2515 31.088H84.2475V41.936H83.2515V31.088Z" fill="#121212" fill-opacity="0.7"/>
<g filter="url(#filter1_bdd_5082_12505)">
<g filter="url(#filter2_bd_5082_12505)">
<g filter="url(#filter3_bd_5082_12505)">
<path d="M46.4953 118.821C45.3399 118.821 44.4249 117.845 44.4994 116.692L46.4916 85.871C46.5596 84.8187 47.433 84 48.4875 84H89.7525C90.807 84 91.6804 84.8187 91.7484 85.871L93.7405 116.692C93.815 117.845 92.9 118.821 91.7447 118.821H73.0385C72.0725 118.821 71.2446 118.131 71.071 117.181L69.12 106.5L67.1689 117.181C66.9953 118.131 66.1674 118.821 65.2015 118.821H46.4953Z" fill="#FFB751" shape-rendering="crispEdges"/>
<path d="M46.4953 118.821C45.3399 118.821 44.4249 117.845 44.4994 116.692L46.4916 85.871C46.5596 84.8187 47.433 84 48.4875 84H89.7525C90.807 84 91.6804 84.8187 91.7484 85.871L93.7405 116.692C93.815 117.845 92.9 118.821 91.7447 118.821H73.0385C72.0725 118.821 71.2446 118.131 71.071 117.181L69.12 106.5L67.1689 117.181C66.9953 118.131 66.1674 118.821 65.2015 118.821H46.4953Z" stroke="white" stroke-opacity="0.5" stroke-linejoin="round" shape-rendering="crispEdges"/>
</g>
<path fill-rule="evenodd" clip-rule="evenodd" d="M72.1243 64.1242C71.4816 64.4866 70.7733 64.7274 70.0397 64.8372V67.072C70.1772 67.1125 70.3125 67.1624 70.4444 67.2216L94.3835 77.9583C97.3262 79.2781 96.3219 83.4165 93.059 83.4165H85.9804V84.9949C85.9804 85.6289 85.4314 86.1429 84.7542 86.1429H83.528C82.8508 86.1429 82.3018 85.6289 82.3018 84.9949V83.4165H55.3251V84.9949C55.3251 85.6289 54.7761 86.1429 54.0989 86.1429H52.8727C52.1955 86.1429 51.6465 85.6289 51.6465 84.9949V83.4165H45.181C41.9181 83.4165 40.9139 79.2781 43.8565 77.9583L67.7956 67.2216C67.8435 67.2001 67.8919 67.1798 67.9407 67.1607C68.0261 67.1274 68.1128 67.0978 68.2004 67.072V63.4459C68.2004 63.301 68.3258 63.1837 68.4804 63.1837C69.2893 63.1544 70.538 62.8968 71.1229 62.5671C71.7808 62.1962 72.3065 61.651 72.6335 61.0005C72.9605 60.35 73.0741 59.6233 72.9599 58.9122C72.8457 58.2013 72.5089 57.538 71.992 57.0062C71.4751 56.4744 70.8014 56.0981 70.056 55.9248C69.3107 55.7515 68.5271 55.789 67.8046 56.0325C67.0821 56.2761 66.4528 56.7148 65.9966 57.2931C65.6623 57.7168 65.4318 58.2015 65.3183 58.7128C65.2493 59.0232 64.9672 59.2696 64.6289 59.2547L63.9145 59.2231C63.5762 59.2082 63.3115 58.9385 63.363 58.6252C63.5058 57.7546 63.8722 56.9264 64.4349 56.2133C65.1193 55.3457 66.063 54.6878 67.1469 54.3224C68.2307 53.957 69.4061 53.9008 70.5241 54.1608C71.642 54.4207 72.6526 54.9853 73.4279 55.7829C74.2033 56.5805 74.7085 57.5755 74.8799 58.642C75.0511 59.7085 74.8808 60.7986 74.3902 61.7744C73.8999 62.7502 73.1112 63.568 72.1243 64.1242ZM85.9804 81.6945V80.4031C85.9804 79.769 85.4314 79.2551 84.7542 79.2551H83.528C82.8508 79.2551 82.3018 79.769 82.3018 80.4031V81.6945H55.3251V80.4031C55.3251 79.769 54.7761 79.2551 54.0989 79.2551H52.8727C52.1955 79.2551 51.6465 79.769 51.6465 80.4031V81.6945H45.181C43.8758 81.6945 43.4742 80.0392 44.6512 79.5113L68.5903 68.7745C68.9251 68.6243 69.3149 68.6243 69.6497 68.7745L93.5889 79.5113C94.7658 80.0392 94.3642 81.6945 93.059 81.6945H85.9804Z" fill="black"/>
<path d="M45.7778 84.6431H92.2223H45.7778ZM92.2223 88.6788H45.7778V87.6788H92.2223V88.6788ZM45.7778 88.1788V84.6431V88.1788ZM92.2223 84.6431V88.1788V84.6431Z" fill="white" fill-opacity="0.5"/>
<path d="M69 88.1787H71.4444V101.322C71.4444 101.874 70.9967 102.322 70.4444 102.322H69V88.1787Z" stroke="white" stroke-opacity="0.5"/>
</g>
</g>
</g>
<rect x="16.5" y="16.5" width="105" height="117" rx="15.5" stroke="url(#paint0_linear_5082_12505)" stroke-opacity="0.5" shape-rendering="crispEdges"/>
</g>
<defs>
<filter id="filter0_bdd_5082_12505" x="-4" y="-4" width="150" height="162" filterUnits="userSpaceOnUse" color-interpolation-filters="sRGB">
<feFlood flood-opacity="0" result="BackgroundImageFix"/>
<feGaussianBlur in="BackgroundImageFix" stdDeviation="10"/>
<feComposite in2="SourceAlpha" operator="in" result="effect1_backgroundBlur_5082_12505"/>
<feColorMatrix in="SourceAlpha" type="matrix" values="0 0 0 0 0 0 0 0 0 0 0 0 0 0 0 0 0 0 127 0" result="hardAlpha"/>
<feOffset dx="4" dy="4"/>
<feGaussianBlur stdDeviation="10"/>
<feComposite in2="hardAlpha" operator="out"/>
<feColorMatrix type="matrix" values="0 0 0 0 0 0 0 0 0 0 0 0 0 0 0 0 0 0 0.05 0"/>
<feBlend mode="normal" in2="effect1_backgroundBlur_5082_12505" result="effect2_dropShadow_5082_12505"/>
<feColorMatrix in="SourceAlpha" type="matrix" values="0 0 0 0 0 0 0 0 0 0 0 0 0 0 0 0 0 0 127 0" result="hardAlpha"/>
<feOffset/>
<feGaussianBlur stdDeviation="1"/>
<feComposite in2="hardAlpha" operator="out"/>
<feColorMatrix type="matrix" values="0 0 0 0 0 0 0 0 0 0 0 0 0 0 0 0 0 0 0.05 0"/>
<feBlend mode="normal" in2="effect2_dropShadow_5082_12505" result="effect3_dropShadow_5082_12505"/>
<feBlend mode="normal" in="SourceGraphic" in2="effect3_dropShadow_5082_12505" result="shape"/>
</filter>
<filter id="filter1_bdd_5082_12505" x="-4" y="14" width="146" height="146" filterUnits="userSpaceOnUse" color-interpolation-filters="sRGB">
<feFlood flood-opacity="0" result="BackgroundImageFix"/>
<feGaussianBlur in="BackgroundImageFix" stdDeviation="20"/>
<feComposite in2="SourceAlpha" operator="in" result="effect1_backgroundBlur_5082_12505"/>
<feColorMatrix in="SourceAlpha" type="matrix" values="0 0 0 0 0 0 0 0 0 0 0 0 0 0 0 0 0 0 127 0" result="hardAlpha"/>
<feOffset dx="4" dy="4"/>
<feGaussianBlur stdDeviation="10"/>
<feComposite in2="hardAlpha" operator="out"/>
<feColorMatrix type="matrix" values="0 0 0 0 0 0 0 0 0 0 0 0 0 0 0 0 0 0 0.05 0"/>
<feBlend mode="normal" in2="effect1_backgroundBlur_5082_12505" result="effect2_dropShadow_5082_12505"/>
<feColorMatrix in="SourceAlpha" type="matrix" values="0 0 0 0 0 0 0 0 0 0 0 0 0 0 0 0 0 0 127 0" result="hardAlpha"/>
<feOffset/>
<feGaussianBlur stdDeviation="1"/>
<feComposite in2="hardAlpha" operator="out"/>
<feColorMatrix type="matrix" values="0 0 0 0 0 0 0 0 0 0 0 0 0 0 0 0 0 0 0.05 0"/>
<feBlend mode="normal" in2="effect2_dropShadow_5082_12505" result="effect3_dropShadow_5082_12505"/>
<feBlend mode="normal" in="SourceGraphic" in2="effect3_dropShadow_5082_12505" result="shape"/>
</filter>
<filter id="filter2_bd_5082_12505" x="32.1111" y="44" width="74.0178" height="85.3213" filterUnits="userSpaceOnUse" color-interpolation-filters="sRGB">
<feFlood flood-opacity="0" result="BackgroundImageFix"/>
<feGaussianBlur in="BackgroundImageFix" stdDeviation="5"/>
<feComposite in2="SourceAlpha" operator="in" result="effect1_backgroundBlur_5082_12505"/>
<feColorMatrix in="SourceAlpha" type="matrix" values="0 0 0 0 0 0 0 0 0 0 0 0 0 0 0 0 0 0 127 0" result="hardAlpha"/>
<feOffset dy="1"/>
<feGaussianBlur stdDeviation="1"/>
<feComposite in2="hardAlpha" operator="out"/>
<feColorMatrix type="matrix" values="0 0 0 0 0 0 0 0 0 0 0 0 0 0 0 0 0 0 0.1 0"/>
<feBlend mode="normal" in2="effect1_backgroundBlur_5082_12505" result="effect2_dropShadow_5082_12505"/>
<feBlend mode="normal" in="SourceGraphic" in2="effect2_dropShadow_5082_12505" result="shape"/>
</filter>
<filter id="filter3_bd_5082_12505" x="33.9951" y="73.5" width="70.2498" height="55.8213" filterUnits="userSpaceOnUse" color-interpolation-filters="sRGB">
<feFlood flood-opacity="0" result="BackgroundImageFix"/>
<feGaussianBlur in="BackgroundImageFix" stdDeviation="5"/>
<feComposite in2="SourceAlpha" operator="in" result="effect1_backgroundBlur_5082_12505"/>
<feColorMatrix in="SourceAlpha" type="matrix" values="0 0 0 0 0 0 0 0 0 0 0 0 0 0 0 0 0 0 127 0" result="hardAlpha"/>
<feOffset dy="1"/>
<feGaussianBlur stdDeviation="1"/>
<feComposite in2="hardAlpha" operator="out"/>
<feColorMatrix type="matrix" values="0 0 0 0 0 0 0 0 0 0 0 0 0 0 0 0 0 0 0.1 0"/>
<feBlend mode="normal" in2="effect1_backgroundBlur_5082_12505" result="effect2_dropShadow_5082_12505"/>
<feBlend mode="normal" in="SourceGraphic" in2="effect2_dropShadow_5082_12505" result="shape"/>
</filter>
<linearGradient id="paint0_linear_5082_12505" x1="28.0455" y1="16" x2="137.125" y2="165.064" gradientUnits="userSpaceOnUse">
<stop stop-color="white"/>
<stop offset="1" stop-color="white" stop-opacity="0"/>
</linearGradient>
<clipPath id="clip0_5082_12505">
<rect x="16" y="16" width="106" height="118" rx="16" fill="white"/>
</clipPath>
</defs>
</svg>
