<svg width="147" height="159" viewBox="0 0 147 159" fill="none" xmlns="http://www.w3.org/2000/svg">
<g filter="url(#filter0_bdd_5082_12491)">
<rect x="16" y="16" width="106" height="118" rx="16" fill="white" fill-opacity="0.4" shape-rendering="crispEdges"/>
<rect x="16.6023" y="16.6023" width="104.795" height="116.795" rx="15.3977" stroke="url(#paint0_linear_5082_12491)" stroke-opacity="0.5" stroke-width="1.20455" shape-rendering="crispEdges"/>
<path d="M61.9247 33.1454H62.9207V41.1014H61.9247V33.1454ZM62.6087 36.4214H64.5287V37.2494H62.6087V36.4214ZM56.1647 42.9254H63.4127V43.7414H56.1647V42.9254ZM56.1647 40.3334H57.1607V43.1174H56.1647V40.3334ZM54.9527 33.9134H55.9367V35.7254H58.9967V33.9134H59.9687V39.2894H54.9527V33.9134ZM55.9367 36.5054V38.4854H58.9967V36.5054H55.9367ZM65.6318 33.8654H71.4278V34.6574H65.6318V33.8654ZM65.4398 38.3894L65.3318 37.5614C67.2278 37.5614 69.8078 37.5374 71.9318 37.2854L71.9918 38.0174C69.8078 38.3534 67.3118 38.3774 65.4398 38.3894ZM66.6998 34.2014H67.6598V38.0294H66.6998V34.2014ZM69.3878 34.2014H70.3478V38.0294H69.3878V34.2014ZM72.7238 33.1334H73.7198V38.7494H72.7238V33.1334ZM73.2878 35.4974H75.3158V36.3254H73.2878V35.4974ZM66.8318 39.2774H73.7198V41.8934H67.8398V43.5014H66.8558V41.1374H72.7478V40.0694H66.8318V39.2774ZM66.8558 43.0694H74.1158V43.8614H66.8558V43.0694ZM76.7908 40.5494H77.6548C79.6828 40.5494 81.0988 40.4894 82.7668 40.2134L82.8628 41.0174C81.1588 41.3174 79.7188 41.3774 77.6548 41.3774H76.7908V40.5494ZM76.7908 34.1174H82.0468V34.9454H77.7748V40.8374H76.7908V34.1174ZM77.5348 37.1534H81.6508V37.9574H77.5348V37.1534ZM84.0028 33.1334H84.9988V43.9814H84.0028V33.1334Z" fill="#121212" fill-opacity="0.7"/>
<g filter="url(#filter1_bd_5082_12491)">
<path d="M53.296 70.1463L56.9119 68.898C57.1937 68.8007 57.49 68.7519 57.7882 68.7537L80.262 68.891C80.539 68.8927 80.8141 68.9381 81.077 69.0254L84.6201 70.2025C90.309 72.0923 94.9247 76.3139 97.3135 81.8119L100.935 90.1467C101.538 91.5348 100.851 93.1445 99.4316 93.6695L88.8454 97.5853V117.409C88.8454 118.865 87.6652 120.045 86.2093 120.045H51.8815C50.4256 120.045 49.2454 118.865 49.2454 117.409V97.5853L38.6592 93.6695C37.2397 93.1445 36.5529 91.5348 37.156 90.1467L40.8361 81.6767C43.1907 76.2574 47.7108 72.0745 53.296 70.1463Z" fill="#FFC329" fill-opacity="0.8"/>
<path d="M49.2454 97.5853L38.6592 93.6695C37.2397 93.1445 36.5529 91.5348 37.156 90.1467L40.8361 81.6767C43.1907 76.2574 47.7108 72.0745 53.296 70.1463L56.9119 68.898C57.1937 68.8007 57.49 68.7519 57.7882 68.7537L80.262 68.891C80.539 68.8927 80.8141 68.9381 81.077 69.0254L84.6201 70.2025C90.309 72.0923 94.9247 76.3139 97.3135 81.8119L100.935 90.1467C101.538 91.5348 100.851 93.1445 99.4316 93.6695L88.8454 97.5853M49.2454 97.5853V117.409C49.2454 118.865 50.4256 120.045 51.8815 120.045H86.2093C87.6652 120.045 88.8454 118.865 88.8454 117.409V97.5853M49.2454 97.5853V88.7966M88.8454 97.5853V88.7966" stroke="white" stroke-opacity="0.4" stroke-width="1.31805" stroke-linecap="round"/>
<path fill-rule="evenodd" clip-rule="evenodd" d="M71.7987 63.1211C71.2097 63.4491 70.5607 63.6672 69.8884 63.7666V65.79C70.0145 65.8267 70.1385 65.8718 70.2594 65.9254L92.1962 75.6464C94.8927 76.8414 93.9725 80.5882 90.9825 80.5882H47.1088C44.1188 80.5882 43.1986 76.8414 45.8951 75.6464L67.832 65.9254C67.9528 65.8718 68.0768 65.8267 68.2029 65.79V62.5069C68.2029 62.3758 68.3178 62.2695 68.4596 62.2695C69.2008 62.243 70.345 62.0098 70.881 61.7112C71.484 61.3755 71.9657 60.8819 72.2653 60.2929C72.5649 59.7038 72.669 59.0459 72.5644 58.4021C72.4597 57.7584 72.1511 57.1579 71.6774 56.6764C71.2038 56.1949 70.5864 55.8542 69.9034 55.6973C69.2204 55.5404 68.5024 55.5743 67.8403 55.7948C67.1781 56.0154 66.6015 56.4126 66.1834 56.9362C65.8771 57.3198 65.666 57.7586 65.5619 58.2216C65.4988 58.5026 65.2401 58.7256 64.9302 58.7121L64.2754 58.6836C63.9655 58.6701 63.723 58.4259 63.7701 58.1422C63.901 57.354 64.2368 56.6041 64.7523 55.9585C65.3795 55.1731 66.2444 54.5773 67.2376 54.2465C68.2308 53.9157 69.3077 53.8648 70.3322 54.1002C71.3568 54.3355 72.2828 54.8466 72.9933 55.5688C73.7037 56.291 74.1667 57.1919 74.3237 58.1574C74.4807 59.123 74.3246 60.11 73.8751 60.9935C73.4257 61.877 72.7031 62.6174 71.7987 63.1211ZM69.5311 67.3314L91.468 77.0525C92.5466 77.5304 92.1785 79.0292 90.9825 79.0292H47.1088C45.9128 79.0292 45.5447 77.5304 46.6234 77.0525L68.5602 67.3314C68.8671 67.1954 69.2242 67.1954 69.5311 67.3314Z" fill="black"/>
<path fill-rule="evenodd" clip-rule="evenodd" d="M79.6922 68.6323C78.4649 68.2305 77.1406 68.7854 76.5196 69.9177C74.8065 73.041 73.2021 74.9259 68.9965 74.9259C64.7495 74.9259 63.1586 73.0996 61.4675 69.9555C60.8494 68.8063 59.5124 68.2376 58.273 68.6458L53.5087 70.2151C47.7974 72.0964 43.1607 76.3263 40.7645 81.8414L37.156 90.1467C36.5529 91.5348 37.2397 93.1445 38.6592 93.6696L49.2454 97.5854V117.409C49.2454 118.865 50.4256 120.045 51.8815 120.045H86.2093C87.6652 120.045 88.8454 118.865 88.8454 117.409V97.5854L99.4316 93.6696C100.851 93.1445 101.538 91.5348 100.935 90.1467L97.3355 81.8625C94.9339 76.3352 90.2823 72.0993 84.5549 70.2243L79.6922 68.6323Z" fill="white"/>
<path fill-rule="evenodd" clip-rule="evenodd" d="M79.6922 68.6323C78.4649 68.2305 77.1406 68.7854 76.5196 69.9177C74.8065 73.041 73.2021 74.9259 68.9965 74.9259C64.7495 74.9259 63.1586 73.0996 61.4675 69.9555C60.8494 68.8063 59.5124 68.2376 58.273 68.6458L53.5087 70.2151C47.7974 72.0964 43.1607 76.3263 40.7645 81.8414L37.156 90.1467C36.5529 91.5348 37.2397 93.1445 38.6592 93.6696L49.2454 97.5854V117.409C49.2454 118.865 50.4256 120.045 51.8815 120.045H86.2093C87.6652 120.045 88.8454 118.865 88.8454 117.409V97.5854L99.4316 93.6696C100.851 93.1445 101.538 91.5348 100.935 90.1467L97.3355 81.8625C94.9339 76.3352 90.2823 72.0993 84.5549 70.2243L79.6922 68.6323Z" fill="#FFD65E" fill-opacity="0.8"/>
<path d="M49.2454 97.5854L38.6592 93.6696C37.2397 93.1445 36.5529 91.5348 37.156 90.1467L40.7645 81.8414C43.1607 76.3263 47.7974 72.0964 53.5087 70.2151L58.273 68.6458C59.5124 68.2376 60.8494 68.8063 61.4675 69.9555C63.1586 73.0996 64.7495 74.9259 68.9965 74.9259C73.2021 74.9259 74.8065 73.041 76.5196 69.9177C77.1406 68.7854 78.4649 68.2305 79.6922 68.6323L84.5549 70.2243C90.2823 72.0993 94.9339 76.3352 97.3355 81.8625L100.935 90.1467C101.538 91.5348 100.851 93.1445 99.4316 93.6696L88.8454 97.5854M49.2454 97.5854V117.409C49.2454 118.865 50.4256 120.045 51.8815 120.045H86.2093C87.6652 120.045 88.8454 118.865 88.8454 117.409V97.5854M49.2454 97.5854V88.7966M88.8454 97.5854V88.7966" stroke="white" stroke-opacity="0.4" stroke-width="1.31805" stroke-linecap="round"/>
</g>
</g>
<defs>
<filter id="filter0_bdd_5082_12491" x="-4" y="-4" width="150.818" height="162.818" filterUnits="userSpaceOnUse" color-interpolation-filters="sRGB">
<feFlood flood-opacity="0" result="BackgroundImageFix"/>
<feGaussianBlur in="BackgroundImageFix" stdDeviation="10"/>
<feComposite in2="SourceAlpha" operator="in" result="effect1_backgroundBlur_5082_12491"/>
<feColorMatrix in="SourceAlpha" type="matrix" values="0 0 0 0 0 0 0 0 0 0 0 0 0 0 0 0 0 0 127 0" result="hardAlpha"/>
<feOffset dx="4.81818" dy="4.81818"/>
<feGaussianBlur stdDeviation="10"/>
<feComposite in2="hardAlpha" operator="out"/>
<feColorMatrix type="matrix" values="0 0 0 0 0 0 0 0 0 0 0 0 0 0 0 0 0 0 0.05 0"/>
<feBlend mode="normal" in2="effect1_backgroundBlur_5082_12491" result="effect2_dropShadow_5082_12491"/>
<feColorMatrix in="SourceAlpha" type="matrix" values="0 0 0 0 0 0 0 0 0 0 0 0 0 0 0 0 0 0 127 0" result="hardAlpha"/>
<feOffset/>
<feGaussianBlur stdDeviation="1.20455"/>
<feComposite in2="hardAlpha" operator="out"/>
<feColorMatrix type="matrix" values="0 0 0 0 0 0 0 0 0 0 0 0 0 0 0 0 0 0 0.05 0"/>
<feBlend mode="normal" in2="effect2_dropShadow_5082_12491" result="effect3_dropShadow_5082_12491"/>
<feBlend mode="normal" in="SourceGraphic" in2="effect3_dropShadow_5082_12491" result="shape"/>
</filter>
<filter id="filter1_bd_5082_12491" x="26.2776" y="43.9546" width="85.5356" height="86.75" filterUnits="userSpaceOnUse" color-interpolation-filters="sRGB">
<feFlood flood-opacity="0" result="BackgroundImageFix"/>
<feGaussianBlur in="BackgroundImageFix" stdDeviation="5"/>
<feComposite in2="SourceAlpha" operator="in" result="effect1_backgroundBlur_5082_12491"/>
<feColorMatrix in="SourceAlpha" type="matrix" values="0 0 0 0 0 0 0 0 0 0 0 0 0 0 0 0 0 0 127 0" result="hardAlpha"/>
<feOffset dy="1"/>
<feGaussianBlur stdDeviation="1"/>
<feComposite in2="hardAlpha" operator="out"/>
<feColorMatrix type="matrix" values="0 0 0 0 0 0 0 0 0 0 0 0 0 0 0 0 0 0 0.1 0"/>
<feBlend mode="normal" in2="effect1_backgroundBlur_5082_12491" result="effect2_dropShadow_5082_12491"/>
<feBlend mode="normal" in="SourceGraphic" in2="effect2_dropShadow_5082_12491" result="shape"/>
</filter>
<linearGradient id="paint0_linear_5082_12491" x1="28.0455" y1="16" x2="137.125" y2="165.064" gradientUnits="userSpaceOnUse">
<stop stop-color="white"/>
<stop offset="1" stop-color="white" stop-opacity="0"/>
</linearGradient>
</defs>
</svg>
