<svg width="70" height="72" viewBox="0 0 70 72" fill="none" xmlns="http://www.w3.org/2000/svg">
<g id="Box" filter="url(#filter0_bdd_2138_298)">
<rect x="-18" y="-36" width="106" height="118" rx="16" fill="white" fill-opacity="0.4" shape-rendering="crispEdges"/>
<rect x="-17.3977" y="-35.3977" width="104.795" height="116.795" rx="15.3977" stroke="url(#paint0_linear_2138_298)" stroke-opacity="0.5" stroke-width="1.20455" shape-rendering="crispEdges"/>
<g id="&#235;&#176;&#152;&#237;&#140;&#148;&#237;&#139;&#176;">
<g id="Group 65" filter="url(#filter1_bd_2138_298)">
<g id="Subtract">
<path d="M19.296 18.1463L22.9119 16.898C23.1937 16.8007 23.49 16.7519 23.7882 16.7537L46.262 16.891C46.539 16.8927 46.8141 16.9381 47.077 17.0254L50.6201 18.2025C56.309 20.0923 60.9247 24.3139 63.3135 29.8119L66.9349 38.1467C67.5379 39.5348 66.8511 41.1445 65.4316 41.6695L54.8454 45.5853V65.4093C54.8454 66.8651 53.6652 68.0453 52.2093 68.0453H17.8815C16.4256 68.0453 15.2454 66.8651 15.2454 65.4093V45.5853L4.65919 41.6695C3.23975 41.1445 2.55287 39.5348 3.15597 38.1467L6.83606 29.6767C9.19066 24.2574 13.7108 20.0745 19.296 18.1463Z" fill="#FFC329" fill-opacity="0.8"/>
<path d="M15.2454 45.5853L4.65919 41.6695C3.23975 41.1445 2.55287 39.5348 3.15597 38.1467L6.83606 29.6767C9.19066 24.2574 13.7108 20.0745 19.296 18.1463L22.9119 16.898C23.1937 16.8007 23.49 16.7519 23.7882 16.7537L46.262 16.891C46.539 16.8927 46.8141 16.9381 47.077 17.0254L50.6201 18.2025C56.309 20.0923 60.9247 24.3139 63.3135 29.8119L66.9349 38.1467C67.538 39.5348 66.8511 41.1445 65.4316 41.6695L54.8454 45.5853M15.2454 45.5853V65.4093C15.2454 66.8651 16.4256 68.0453 17.8815 68.0453H52.2093C53.6652 68.0453 54.8454 66.8651 54.8454 65.4093V45.5853M15.2454 45.5853V36.7966M54.8454 45.5853V36.7966" stroke="white" stroke-opacity="0.4" stroke-width="1.31805" stroke-linecap="round"/>
</g>
<path id="Union" fill-rule="evenodd" clip-rule="evenodd" d="M37.7987 11.1211C37.2097 11.4491 36.5607 11.6672 35.8884 11.7666V13.79C36.0145 13.8267 36.1385 13.8718 36.2594 13.9254L58.1962 23.6464C60.8927 24.8414 59.9725 28.5882 56.9825 28.5882H13.1088C10.1188 28.5882 9.19856 24.8414 11.8951 23.6464L33.832 13.9254C33.9528 13.8718 34.0768 13.8267 34.2029 13.79V10.5069C34.2029 10.3758 34.3178 10.2695 34.4596 10.2695C35.2008 10.243 36.345 10.0098 36.881 9.71124C37.484 9.37547 37.9657 8.88187 38.2653 8.29285C38.5649 7.70384 38.669 7.04587 38.5644 6.40214C38.4597 5.75842 38.1511 5.15786 37.6774 4.6764C37.2038 4.19494 36.5864 3.85421 35.9034 3.69729C35.2204 3.54038 34.5024 3.57433 33.8403 3.79485C33.1781 4.01537 32.6015 4.41255 32.1834 4.93618C31.8771 5.31979 31.666 5.75863 31.5619 6.22156C31.4988 6.50256 31.2401 6.72564 30.9302 6.71213L30.2754 6.68358C29.9655 6.67007 29.723 6.42593 29.7701 6.14224C29.901 5.35402 30.2368 4.60411 30.7523 3.9585C31.3795 3.17306 32.2444 2.57728 33.2376 2.2465C34.2308 1.91572 35.3077 1.8648 36.3322 2.10017C37.3568 2.33554 38.2828 2.84664 38.9933 3.56882C39.7037 4.29101 40.1667 5.19186 40.3237 6.15744C40.4807 7.12302 40.3246 8.10998 39.8751 8.9935C39.4257 9.87702 38.7031 10.6174 37.7987 11.1211ZM35.5311 15.3314L57.468 25.0525C58.5466 25.5304 58.1785 27.0292 56.9825 27.0292H13.1088C11.9128 27.0292 11.5447 25.5304 12.6234 25.0525L34.5602 15.3314C34.8671 15.1954 35.2242 15.1954 35.5311 15.3314Z" fill="black"/>
<g id="Subtract_2">
<path fill-rule="evenodd" clip-rule="evenodd" d="M45.6922 16.6323C44.4649 16.2305 43.1406 16.7854 42.5196 17.9177C40.8065 21.041 39.2021 22.9259 34.9965 22.9259C30.7495 22.9259 29.1586 21.0996 27.4675 17.9555C26.8494 16.8063 25.5124 16.2376 24.273 16.6458L19.5087 18.2151C13.7974 20.0964 9.16075 24.3263 6.76451 29.8414L3.15597 38.1467C2.55287 39.5348 3.23975 41.1445 4.65919 41.6696L15.2454 45.5854V65.4093C15.2454 66.8652 16.4256 68.0454 17.8815 68.0454H52.2093C53.6652 68.0454 54.8454 66.8652 54.8454 65.4093V45.5854L65.4316 41.6696C66.8511 41.1445 67.5379 39.5348 66.9349 38.1467L63.3355 29.8625C60.9339 24.3352 56.2823 20.0993 50.5549 18.2243L45.6922 16.6323Z" fill="white"/>
<path fill-rule="evenodd" clip-rule="evenodd" d="M45.6922 16.6323C44.4649 16.2305 43.1406 16.7854 42.5196 17.9177C40.8065 21.041 39.2021 22.9259 34.9965 22.9259C30.7495 22.9259 29.1586 21.0996 27.4675 17.9555C26.8494 16.8063 25.5124 16.2376 24.273 16.6458L19.5087 18.2151C13.7974 20.0964 9.16075 24.3263 6.76451 29.8414L3.15597 38.1467C2.55287 39.5348 3.23975 41.1445 4.65919 41.6696L15.2454 45.5854V65.4093C15.2454 66.8652 16.4256 68.0454 17.8815 68.0454H52.2093C53.6652 68.0454 54.8454 66.8652 54.8454 65.4093V45.5854L65.4316 41.6696C66.8511 41.1445 67.5379 39.5348 66.9349 38.1467L63.3355 29.8625C60.9339 24.3352 56.2823 20.0993 50.5549 18.2243L45.6922 16.6323Z" fill="#FFD65E" fill-opacity="0.8"/>
<path d="M15.2454 45.5854L4.65919 41.6696C3.23975 41.1445 2.55287 39.5348 3.15597 38.1467L6.76451 29.8414C9.16075 24.3263 13.7974 20.0964 19.5087 18.2151L24.273 16.6458C25.5124 16.2376 26.8494 16.8063 27.4675 17.9555C29.1586 21.0996 30.7495 22.9259 34.9965 22.9259C39.2021 22.9259 40.8065 21.041 42.5196 17.9177C43.1406 16.7854 44.4649 16.2305 45.6922 16.6323L50.5549 18.2243C56.2823 20.0993 60.9339 24.3352 63.3355 29.8625L66.9349 38.1467C67.538 39.5348 66.8511 41.1445 65.4316 41.6696L54.8454 45.5854M15.2454 45.5854V65.4093C15.2454 66.8652 16.4256 68.0454 17.8815 68.0454H52.2093C53.6652 68.0454 54.8454 66.8652 54.8454 65.4093V45.5854M15.2454 45.5854V36.7966M54.8454 45.5854V36.7966" stroke="white" stroke-opacity="0.4" stroke-width="1.31805" stroke-linecap="round"/>
</g>
</g>
</g>
</g>
<defs>
<filter id="filter0_bdd_2138_298" x="-38" y="-56" width="150.818" height="162.818" filterUnits="userSpaceOnUse" color-interpolation-filters="sRGB">
<feFlood flood-opacity="0" result="BackgroundImageFix"/>
<feGaussianBlur in="BackgroundImageFix" stdDeviation="10"/>
<feComposite in2="SourceAlpha" operator="in" result="effect1_backgroundBlur_2138_298"/>
<feColorMatrix in="SourceAlpha" type="matrix" values="0 0 0 0 0 0 0 0 0 0 0 0 0 0 0 0 0 0 127 0" result="hardAlpha"/>
<feOffset dx="4.81818" dy="4.81818"/>
<feGaussianBlur stdDeviation="10"/>
<feComposite in2="hardAlpha" operator="out"/>
<feColorMatrix type="matrix" values="0 0 0 0 0 0 0 0 0 0 0 0 0 0 0 0 0 0 0.05 0"/>
<feBlend mode="normal" in2="effect1_backgroundBlur_2138_298" result="effect2_dropShadow_2138_298"/>
<feColorMatrix in="SourceAlpha" type="matrix" values="0 0 0 0 0 0 0 0 0 0 0 0 0 0 0 0 0 0 127 0" result="hardAlpha"/>
<feOffset/>
<feGaussianBlur stdDeviation="1.20455"/>
<feComposite in2="hardAlpha" operator="out"/>
<feColorMatrix type="matrix" values="0 0 0 0 0 0 0 0 0 0 0 0 0 0 0 0 0 0 0.05 0"/>
<feBlend mode="normal" in2="effect2_dropShadow_2138_298" result="effect3_dropShadow_2138_298"/>
<feBlend mode="normal" in="SourceGraphic" in2="effect3_dropShadow_2138_298" result="shape"/>
</filter>
<filter id="filter1_bd_2138_298" x="-7.72241" y="-8.04541" width="85.5356" height="86.75" filterUnits="userSpaceOnUse" color-interpolation-filters="sRGB">
<feFlood flood-opacity="0" result="BackgroundImageFix"/>
<feGaussianBlur in="BackgroundImageFix" stdDeviation="5"/>
<feComposite in2="SourceAlpha" operator="in" result="effect1_backgroundBlur_2138_298"/>
<feColorMatrix in="SourceAlpha" type="matrix" values="0 0 0 0 0 0 0 0 0 0 0 0 0 0 0 0 0 0 127 0" result="hardAlpha"/>
<feOffset dy="1"/>
<feGaussianBlur stdDeviation="1"/>
<feComposite in2="hardAlpha" operator="out"/>
<feColorMatrix type="matrix" values="0 0 0 0 0 0 0 0 0 0 0 0 0 0 0 0 0 0 0.1 0"/>
<feBlend mode="normal" in2="effect1_backgroundBlur_2138_298" result="effect2_dropShadow_2138_298"/>
<feBlend mode="normal" in="SourceGraphic" in2="effect2_dropShadow_2138_298" result="shape"/>
</filter>
<linearGradient id="paint0_linear_2138_298" x1="-5.95455" y1="-36" x2="103.125" y2="113.064" gradientUnits="userSpaceOnUse">
<stop stop-color="white"/>
<stop offset="1" stop-color="white" stop-opacity="0"/>
</linearGradient>
</defs>
</svg>
