<svg width="69" height="68" viewBox="0 0 69 68" fill="none" xmlns="http://www.w3.org/2000/svg">
<g filter="url(#filter0_bd_5082_12562)">
<path d="M3 38.3096H22.186L23.4339 40.7811L34.9767 63.6431H15.7907L3 38.3096Z" fill="#121212" stroke="white" stroke-opacity="0.5"/>
<path d="M26.0232 38.3096H45.2092L57.9999 63.6431H38.8139L26.0232 38.3096Z" fill="#121212" stroke="white" stroke-opacity="0.5"/>
<g filter="url(#filter1_b_5082_12562)">
<path d="M36.8954 22.8618H21.0109C20.4994 22.8618 20.0703 23.2478 20.0164 23.7565L15.9079 62.5373C15.8453 63.128 16.3083 63.6427 16.9023 63.6427H25.3838H34.0749C34.5874 63.6427 35.0169 63.2553 35.0696 62.7456L35.9007 54.7134C36.0245 53.5173 37.7663 53.5173 37.8901 54.7134L38.7212 62.7456C38.7739 63.2553 39.2035 63.6427 39.7159 63.6427H48.407H56.9061C57.4938 63.6427 57.9547 63.1384 57.9021 62.5531L54.4153 23.7723C54.369 23.2568 53.9369 22.8618 53.4193 22.8618H36.8954Z" fill="black" fill-opacity="0.8"/>
<path d="M36.8954 22.8618H21.0109C20.4994 22.8618 20.0703 23.2478 20.0164 23.7565L15.9079 62.5373C15.8453 63.128 16.3083 63.6427 16.9023 63.6427H25.3838M36.8954 22.8618H53.4193C53.9369 22.8618 54.369 23.2568 54.4153 23.7723L57.9021 62.5531C57.9547 63.1384 57.4938 63.6427 56.9061 63.6427H48.407M36.8954 22.8618V37.7142M25.3838 63.6427H34.0749C34.5874 63.6427 35.0169 63.2553 35.0696 62.7456L35.9007 54.7134C36.0245 53.5173 37.7663 53.5173 37.8901 54.7134L38.7212 62.7456C38.7739 63.2553 39.2035 63.6427 39.7159 63.6427H48.407M25.3838 63.6427L27.4446 48.3214M48.407 63.6427L47.0001 48.3214" stroke="white" stroke-opacity="0.5" stroke-linecap="round" stroke-linejoin="round"/>
</g>
<path fill-rule="evenodd" clip-rule="evenodd" d="M38.9902 9.34559C38.4812 9.63791 37.9203 9.83211 37.3394 9.92074V11.7235C37.4483 11.7562 37.5554 11.7964 37.6599 11.8441L56.6177 18.1479C58.9481 19.2126 58.1528 22.5508 55.5688 22.5508H49.9631V23.8241C49.9631 24.3356 49.5283 24.7501 48.9921 24.7501H48.021C47.4848 24.7501 47.05 24.3356 47.05 23.8241V22.5508H25.6866V23.8241C25.6866 24.3356 25.2518 24.7501 24.7156 24.7501H23.7445C23.2082 24.7501 22.7734 24.3356 22.7734 23.8241V22.5508H17.6533C15.0693 22.5508 14.2741 19.2126 16.6044 18.1479L35.5622 11.8441C35.6002 11.8268 35.6385 11.8104 35.6771 11.795C35.7448 11.7681 35.8134 11.7443 35.8828 11.7235V8.79837C35.8828 8.68154 35.9821 8.58687 36.1045 8.58687C36.7451 8.56324 37.734 8.35548 38.1972 8.08949C38.7182 7.79033 39.1345 7.35055 39.3935 6.82577C39.6524 6.30104 39.7423 5.71481 39.6519 5.14125C39.5615 4.56774 39.2948 4.03267 38.8854 3.60369C38.4761 3.17476 37.9426 2.87119 37.3523 2.73136C36.7621 2.59158 36.1415 2.62182 35.5693 2.81829C34.9972 3.01475 34.4988 3.36862 34.1375 3.83513C33.8728 4.17691 33.6903 4.56791 33.6004 4.98039C33.5458 5.23072 33.3224 5.4295 33.0545 5.41746L32.4887 5.39203C32.2208 5.37999 32.0112 5.16245 32.052 4.90969C32.1651 4.20743 32.4552 3.53931 32.9008 2.96411C33.4428 2.26428 34.1902 1.7335 35.0485 1.43881C35.9068 1.14406 36.8376 1.09873 37.7229 1.30841C38.6083 1.5181 39.4085 1.97348 40.0226 2.61691C40.6366 3.26033 41.0367 4.06297 41.1724 4.92325C41.308 5.78354 41.1731 6.66288 40.7847 7.45003C40.3963 8.23718 39.7717 8.89688 38.9902 9.34559ZM49.9631 21.1618V20.12C49.9631 19.6086 49.5283 19.194 48.9921 19.194H48.021C47.4848 19.194 47.05 19.6086 47.05 20.12V21.1618H25.6866V20.12C25.6866 19.6086 25.2518 19.194 24.7156 19.194H23.7445C23.2082 19.194 22.7734 19.6086 22.7734 20.12V21.1618H17.6533C16.6197 21.1618 16.3016 19.8265 17.2337 19.4007L36.1916 13.0968C36.4567 12.9756 36.7654 12.9756 37.0306 13.0968L55.9884 19.4007C56.9205 19.8265 56.6024 21.1618 55.5688 21.1618H49.9631Z" fill="black"/>
</g>
<defs>
<filter id="filter0_bd_5082_12562" x="-7.8125" y="-8.82129" width="76.625" height="82.9644" filterUnits="userSpaceOnUse" color-interpolation-filters="sRGB">
<feFlood flood-opacity="0" result="BackgroundImageFix"/>
<feGaussianBlur in="BackgroundImageFix" stdDeviation="5"/>
<feComposite in2="SourceAlpha" operator="in" result="effect1_backgroundBlur_5082_12562"/>
<feColorMatrix in="SourceAlpha" type="matrix" values="0 0 0 0 0 0 0 0 0 0 0 0 0 0 0 0 0 0 127 0" result="hardAlpha"/>
<feOffset dy="1"/>
<feGaussianBlur stdDeviation="1"/>
<feComposite in2="hardAlpha" operator="out"/>
<feColorMatrix type="matrix" values="0 0 0 0 0 0 0 0 0 0 0 0 0 0 0 0 0 0 0.1 0"/>
<feBlend mode="normal" in2="effect1_backgroundBlur_5082_12562" result="effect2_dropShadow_5082_12562"/>
<feBlend mode="normal" in="SourceGraphic" in2="effect2_dropShadow_5082_12562" result="shape"/>
</filter>
<filter id="filter1_b_5082_12562" x="11.4021" y="18.3618" width="51.0042" height="49.7808" filterUnits="userSpaceOnUse" color-interpolation-filters="sRGB">
<feFlood flood-opacity="0" result="BackgroundImageFix"/>
<feGaussianBlur in="BackgroundImageFix" stdDeviation="2"/>
<feComposite in2="SourceAlpha" operator="in" result="effect1_backgroundBlur_5082_12562"/>
<feBlend mode="normal" in="SourceGraphic" in2="effect1_backgroundBlur_5082_12562" result="shape"/>
</filter>
</defs>
</svg>
