<svg width="146" height="158" viewBox="0 0 146 158" fill="none" xmlns="http://www.w3.org/2000/svg">
<g filter="url(#filter0_bdd_5082_12560)">
<rect x="16" y="16" width="106" height="118" rx="16" fill="white" fill-opacity="0.4" shape-rendering="crispEdges"/>
<rect x="16.5" y="16.5" width="105" height="117" rx="15.5" stroke="url(#paint0_linear_5082_12560)" stroke-opacity="0.5" shape-rendering="crispEdges"/>
<path d="M57.1734 31.16H58.0134V31.556C58.0134 33.416 55.9014 34.664 53.6574 34.964L53.3094 34.196C55.2894 33.98 57.1734 32.912 57.1734 31.556V31.16ZM57.3414 31.16H58.1814V31.556C58.1814 32.912 60.0654 33.98 62.0334 34.196L61.6974 34.964C59.4414 34.664 57.3414 33.416 57.3414 31.556V31.16ZM52.7694 35.648H62.5734V36.452H52.7694V35.648ZM53.9574 37.436H61.3254V39.932H54.9654V41.228H53.9814V39.212H60.3414V38.216H53.9574V37.436ZM53.9814 41.036H61.6494V41.816H53.9814V41.036ZM71.7645 31.088H72.7125V37.88H71.7645V31.088ZM70.0245 33.98H72.0645V34.796H70.0245V33.98ZM69.3765 31.292H70.3125V37.772H69.3765V31.292ZM65.4405 38.408H72.7125V41.936H71.7285V39.224H65.4405V38.408ZM64.0725 36.512H64.7685C66.2925 36.512 67.4205 36.452 68.7525 36.188L68.8485 36.992C67.4805 37.256 66.3405 37.316 64.7685 37.316H64.0725V36.512ZM64.0485 31.88H68.1285V34.916H65.0325V37.028H64.0725V34.172H67.1685V32.684H64.0485V31.88ZM78.7235 31.832H79.5875V32.66C79.5875 35.024 77.3915 36.86 75.2195 37.352L74.7755 36.524C76.6835 36.164 78.7235 34.508 78.7235 32.66V31.832ZM78.9035 31.832H79.7675V32.66C79.7675 34.52 81.8195 36.164 83.7155 36.524L83.2715 37.352C81.1115 36.86 78.9035 35.036 78.9035 32.66V31.832ZM74.3795 39.656H84.2075V40.472H74.3795V39.656Z" fill="#121212" fill-opacity="0.7"/>
<g filter="url(#filter1_bd_5082_12560)">
<path d="M36 92.3096H55.186L56.4339 94.7811L67.9767 117.643H48.7907L36 92.3096Z" fill="#121212" stroke="white" stroke-opacity="0.5"/>
<path d="M59.0232 92.3096H78.2092L90.9999 117.643H71.8139L59.0232 92.3096Z" fill="#121212" stroke="white" stroke-opacity="0.5"/>
<g filter="url(#filter2_b_5082_12560)">
<path d="M69.8954 76.8618H54.0109C53.4994 76.8618 53.0703 77.2478 53.0164 77.7565L48.9079 116.537C48.8453 117.128 49.3083 117.643 49.9023 117.643H58.3838H67.0749C67.5874 117.643 68.0169 117.255 68.0696 116.746L68.9007 108.713C69.0245 107.517 70.7663 107.517 70.8901 108.713L71.7212 116.746C71.7739 117.255 72.2035 117.643 72.7159 117.643H81.407H89.9061C90.4938 117.643 90.9547 117.138 90.9021 116.553L87.4153 77.7723C87.369 77.2568 86.9369 76.8618 86.4193 76.8618H69.8954Z" fill="black" fill-opacity="0.8"/>
<path d="M69.8954 76.8618H54.0109C53.4994 76.8618 53.0703 77.2478 53.0164 77.7565L48.9079 116.537C48.8453 117.128 49.3083 117.643 49.9023 117.643H58.3838M69.8954 76.8618H86.4193C86.9369 76.8618 87.369 77.2568 87.4153 77.7723L90.9021 116.553C90.9547 117.138 90.4938 117.643 89.9061 117.643H81.407M69.8954 76.8618V91.7142M58.3838 117.643H67.0749C67.5874 117.643 68.0169 117.255 68.0696 116.746L68.9007 108.713C69.0245 107.517 70.7663 107.517 70.8901 108.713L71.7212 116.746C71.7739 117.255 72.2035 117.643 72.7159 117.643H81.407M58.3838 117.643L60.4446 102.321M81.407 117.643L80.0001 102.321" stroke="white" stroke-opacity="0.5" stroke-linecap="round" stroke-linejoin="round"/>
</g>
<path fill-rule="evenodd" clip-rule="evenodd" d="M71.9902 63.3456C71.4812 63.6379 70.9203 63.8321 70.3394 63.9207V65.7235C70.4483 65.7562 70.5554 65.7964 70.6599 65.8441L89.6177 72.1479C91.9481 73.2126 91.1528 76.5508 88.5688 76.5508H82.9631V77.8241C82.9631 78.3356 82.5283 78.7501 81.9921 78.7501H81.021C80.4848 78.7501 80.05 78.3356 80.05 77.8241V76.5508H58.6866V77.8241C58.6866 78.3356 58.2518 78.7501 57.7156 78.7501H56.7445C56.2082 78.7501 55.7734 78.3356 55.7734 77.8241V76.5508H50.6533C48.0693 76.5508 47.2741 73.2126 49.6044 72.1479L68.5622 65.8441C68.6002 65.8268 68.6385 65.8104 68.6771 65.795C68.7448 65.7681 68.8134 65.7443 68.8828 65.7235V62.7984C68.8828 62.6815 68.9821 62.5869 69.1045 62.5869C69.7451 62.5632 70.734 62.3555 71.1972 62.0895C71.7182 61.7903 72.1345 61.3506 72.3935 60.8258C72.6524 60.301 72.7423 59.7148 72.6519 59.1413C72.5615 58.5677 72.2948 58.0327 71.8854 57.6037C71.4761 57.1748 70.9426 56.8712 70.3523 56.7314C69.7621 56.5916 69.1415 56.6218 68.5693 56.8183C67.9972 57.0147 67.4988 57.3686 67.1375 57.8351C66.8728 58.1769 66.6903 58.5679 66.6004 58.9804C66.5458 59.2307 66.3224 59.4295 66.0545 59.4175L65.4887 59.392C65.2208 59.38 65.0112 59.1624 65.052 58.9097C65.1651 58.2074 65.4552 57.5393 65.9008 56.9641C66.4428 56.2643 67.1902 55.7335 68.0485 55.4388C68.9068 55.1441 69.8376 55.0987 70.7229 55.3084C71.6083 55.5181 72.4085 55.9735 73.0226 56.6169C73.6366 57.2603 74.0367 58.063 74.1724 58.9233C74.308 59.7835 74.1731 60.6629 73.7847 61.45C73.3963 62.2372 72.7717 62.8969 71.9902 63.3456ZM82.9631 75.1618V74.12C82.9631 73.6086 82.5283 73.194 81.9921 73.194H81.021C80.4848 73.194 80.05 73.6086 80.05 74.12V75.1618H58.6866V74.12C58.6866 73.6086 58.2518 73.194 57.7156 73.194H56.7445C56.2082 73.194 55.7734 73.6086 55.7734 74.12V75.1618H50.6533C49.6197 75.1618 49.3016 73.8265 50.2337 73.4007L69.1916 67.0968C69.4567 66.9756 69.7654 66.9756 70.0306 67.0968L88.9884 73.4007C89.9205 73.8265 89.6024 75.1618 88.5688 75.1618H82.9631Z" fill="black"/>
</g>
</g>
<defs>
<filter id="filter0_bdd_5082_12560" x="-4" y="-4" width="150" height="162" filterUnits="userSpaceOnUse" color-interpolation-filters="sRGB">
<feFlood flood-opacity="0" result="BackgroundImageFix"/>
<feGaussianBlur in="BackgroundImageFix" stdDeviation="10"/>
<feComposite in2="SourceAlpha" operator="in" result="effect1_backgroundBlur_5082_12560"/>
<feColorMatrix in="SourceAlpha" type="matrix" values="0 0 0 0 0 0 0 0 0 0 0 0 0 0 0 0 0 0 127 0" result="hardAlpha"/>
<feOffset dx="4" dy="4"/>
<feGaussianBlur stdDeviation="10"/>
<feComposite in2="hardAlpha" operator="out"/>
<feColorMatrix type="matrix" values="0 0 0 0 0 0 0 0 0 0 0 0 0 0 0 0 0 0 0.05 0"/>
<feBlend mode="normal" in2="effect1_backgroundBlur_5082_12560" result="effect2_dropShadow_5082_12560"/>
<feColorMatrix in="SourceAlpha" type="matrix" values="0 0 0 0 0 0 0 0 0 0 0 0 0 0 0 0 0 0 127 0" result="hardAlpha"/>
<feOffset/>
<feGaussianBlur stdDeviation="1"/>
<feComposite in2="hardAlpha" operator="out"/>
<feColorMatrix type="matrix" values="0 0 0 0 0 0 0 0 0 0 0 0 0 0 0 0 0 0 0.05 0"/>
<feBlend mode="normal" in2="effect2_dropShadow_5082_12560" result="effect3_dropShadow_5082_12560"/>
<feBlend mode="normal" in="SourceGraphic" in2="effect3_dropShadow_5082_12560" result="shape"/>
</filter>
<filter id="filter1_bd_5082_12560" x="25.1875" y="45.1787" width="76.625" height="82.9644" filterUnits="userSpaceOnUse" color-interpolation-filters="sRGB">
<feFlood flood-opacity="0" result="BackgroundImageFix"/>
<feGaussianBlur in="BackgroundImageFix" stdDeviation="5"/>
<feComposite in2="SourceAlpha" operator="in" result="effect1_backgroundBlur_5082_12560"/>
<feColorMatrix in="SourceAlpha" type="matrix" values="0 0 0 0 0 0 0 0 0 0 0 0 0 0 0 0 0 0 127 0" result="hardAlpha"/>
<feOffset dy="1"/>
<feGaussianBlur stdDeviation="1"/>
<feComposite in2="hardAlpha" operator="out"/>
<feColorMatrix type="matrix" values="0 0 0 0 0 0 0 0 0 0 0 0 0 0 0 0 0 0 0.1 0"/>
<feBlend mode="normal" in2="effect1_backgroundBlur_5082_12560" result="effect2_dropShadow_5082_12560"/>
<feBlend mode="normal" in="SourceGraphic" in2="effect2_dropShadow_5082_12560" result="shape"/>
</filter>
<filter id="filter2_b_5082_12560" x="44.4021" y="72.3618" width="51.0042" height="49.7808" filterUnits="userSpaceOnUse" color-interpolation-filters="sRGB">
<feFlood flood-opacity="0" result="BackgroundImageFix"/>
<feGaussianBlur in="BackgroundImageFix" stdDeviation="2"/>
<feComposite in2="SourceAlpha" operator="in" result="effect1_backgroundBlur_5082_12560"/>
<feBlend mode="normal" in="SourceGraphic" in2="effect1_backgroundBlur_5082_12560" result="shape"/>
</filter>
<linearGradient id="paint0_linear_5082_12560" x1="28.0455" y1="16" x2="137.125" y2="165.064" gradientUnits="userSpaceOnUse">
<stop stop-color="white"/>
<stop offset="1" stop-color="white" stop-opacity="0"/>
</linearGradient>
</defs>
</svg>
