<svg width="146" height="158" viewBox="0 0 146 158" fill="none" xmlns="http://www.w3.org/2000/svg">
<g filter="url(#filter0_bdd_5082_12498)">
<rect x="16" y="16" width="106" height="118" rx="16" fill="white" fill-opacity="0.4" shape-rendering="crispEdges"/>
<rect x="16.5" y="16.5" width="105" height="117" rx="15.5" stroke="url(#paint0_linear_5082_12498)" stroke-opacity="0.5" shape-rendering="crispEdges"/>
<path d="M54.3454 32.024H59.3974V37.076H54.3454V32.024ZM58.4374 32.828H55.3054V36.272H58.4374V32.828ZM61.6654 31.1H62.6734V38.888H61.6654V31.1ZM55.7014 40.76H62.9974V41.588H55.7014V40.76ZM55.7014 38.144H56.6854V41.096H55.7014V38.144ZM64.5805 39.704H74.4085V40.532H64.5805V39.704ZM68.9485 37.076H69.9325V39.98H68.9485V37.076ZM68.9245 31.808H69.7885V32.648C69.7885 34.964 67.5685 36.752 65.3845 37.208L64.9645 36.38C66.8725 36.032 68.9245 34.436 68.9245 32.648V31.808ZM69.1045 31.808H69.9685V32.648C69.9685 34.448 72.0325 36.032 73.9405 36.38L73.5085 37.208C71.3245 36.752 69.1045 34.964 69.1045 32.648V31.808ZM83.6355 31.088H84.5955V41.936H83.6355V31.088ZM81.9195 35.384H83.9955V36.2H81.9195V35.384ZM81.2355 31.316H82.1835V41.396H81.2355V31.316ZM75.7635 32.336H79.9035V39.032H75.7635V32.336ZM78.9675 33.128H76.6995V38.24H78.9675V33.128Z" fill="#121212" fill-opacity="0.7"/>
<g filter="url(#filter1_bd_5082_12498)">
<path d="M51.9044 119H85.7664C86.3708 119 86.8366 118.467 86.7611 117.867C85.6859 109.329 85.522 102.61 86.7154 90.7921C86.8379 89.5788 86.7485 88.3482 86.438 87.1689L86.2619 86.5C85.4441 81.0253 85.2338 77.8323 85.5639 72.5703C85.5928 72.1093 85.3059 71.6848 84.8655 71.5453L80.7588 70.2453C80.2321 70.0786 79.6685 70.3742 79.5036 70.9016C78.1435 75.2506 78.7781 73.5874 77.6638 77.136C77.4031 77.9659 76.6317 78.5283 75.7618 78.5283H61.9292C61.0425 78.5283 60.2606 77.9426 60.0119 77.0915C58.8935 73.2649 59.5203 75.2291 58.1536 70.9012C57.9872 70.3743 57.4238 70.0786 56.8971 70.2453L52.78 71.5486C52.3444 71.6865 52.0582 72.1038 52.0819 72.5601C52.3567 77.8333 52.262 81.0109 51.394 86.5L51.2508 87.044C50.919 88.3044 50.8401 89.6201 51.0014 90.9134C52.3262 101.532 52.3051 107.859 50.9116 117.854C50.8274 118.458 51.2948 119 51.9044 119Z" fill="#298CFF" fill-opacity="0.8" stroke="white" stroke-opacity="0.5" stroke-linejoin="round"/>
<path fill-rule="evenodd" clip-rule="evenodd" d="M71.7011 63.7082C71.0864 64.0557 70.4091 64.2866 69.7075 64.3919V66.5349C69.8391 66.5737 69.9685 66.6215 70.0947 66.6783L92.987 76.9738C95.8011 78.2394 94.8408 82.2076 91.7205 82.2076H45.9357C42.8154 82.2076 41.8551 78.2394 44.6692 76.9738L67.5615 66.6783C67.6877 66.6215 67.817 66.5737 67.9486 66.5349V63.0577C67.9486 62.9188 68.0686 62.8063 68.2165 62.8063C68.99 62.7782 70.184 62.5312 70.7434 62.215C71.3726 61.8594 71.8753 61.3367 72.188 60.7128C72.5007 60.089 72.6093 59.3922 72.5001 58.7104C72.3909 58.0286 72.0688 57.3926 71.5745 56.8827C71.0802 56.3727 70.4359 56.0119 69.7232 55.8457C69.0104 55.6795 68.2612 55.7155 67.5702 55.949C66.8792 56.1826 66.2775 56.6032 65.8412 57.1578C65.5216 57.5641 65.3012 58.0289 65.1926 58.5191C65.1267 58.8167 64.8568 59.053 64.5333 59.0387L63.8501 59.0085C63.5266 58.9942 63.2736 58.7356 63.3228 58.4351C63.4593 57.6003 63.8098 56.8061 64.3478 56.1223C65.0022 55.2905 65.9048 54.6595 66.9413 54.3092C67.9777 53.9588 69.1016 53.9049 70.1707 54.1542C71.2399 54.4035 72.2062 54.9448 72.9477 55.7096C73.6891 56.4745 74.1722 57.4286 74.3361 58.4512C74.4999 59.4739 74.337 60.5192 73.8679 61.4549C73.3989 62.3906 72.6448 63.1748 71.7011 63.7082ZM69.3347 68.1674L92.2271 78.4629C93.3527 78.9691 92.9686 80.5564 91.7205 80.5564H45.9357C44.6876 80.5564 44.3035 78.9691 45.4291 78.4629L68.3215 68.1674C68.6418 68.0233 69.0144 68.0233 69.3347 68.1674Z" fill="black"/>
<path d="M52.0819 72.5601C52.0582 72.1038 52.3444 71.6865 52.78 71.5486L56.63 70.3299C57.2502 70.1335 57.8896 70.5736 57.9329 71.2227C58.2857 76.5124 58.7173 79.8856 60.209 85.1122C60.35 85.6063 60.6929 86.0193 61.1503 86.2532C65.9718 88.7187 71.7029 88.7091 76.5244 86.2436C76.9699 86.0158 77.3097 85.6178 77.4557 85.1392C78.9588 80.209 79.2751 76.7061 79.7067 71.1994C79.757 70.5576 80.3916 70.1291 81.0054 70.3234L84.8655 71.5453C85.3059 71.6848 85.5928 72.1093 85.5639 72.5703C85.2338 77.8323 85.4441 81.0253 86.2619 86.5L86.438 87.1689C86.7485 88.3482 86.8379 89.5788 86.7154 90.7921C85.522 102.61 85.6859 109.329 86.7611 117.867C86.8366 118.467 86.3708 119 85.7664 119H51.9044C51.2948 119 50.8274 118.458 50.9116 117.854C52.3051 107.859 52.3262 101.532 51.0014 90.9134C50.8401 89.6201 50.919 88.3044 51.2508 87.044L51.394 86.5C52.262 81.0109 52.3567 77.8333 52.0819 72.5601Z" fill="white"/>
<path d="M52.0819 72.5601C52.0582 72.1038 52.3444 71.6865 52.78 71.5486L56.63 70.3299C57.2502 70.1335 57.8896 70.5736 57.9329 71.2227C58.2857 76.5124 58.7173 79.8856 60.209 85.1122C60.35 85.6063 60.6929 86.0193 61.1503 86.2532C65.9718 88.7187 71.7029 88.7091 76.5244 86.2436C76.9699 86.0158 77.3097 85.6178 77.4557 85.1392C78.9588 80.209 79.2751 76.7061 79.7067 71.1994C79.757 70.5576 80.3916 70.1291 81.0054 70.3234L84.8655 71.5453C85.3059 71.6848 85.5928 72.1093 85.5639 72.5703C85.2338 77.8323 85.4441 81.0253 86.2619 86.5L86.438 87.1689C86.7485 88.3482 86.8379 89.5788 86.7154 90.7921C85.522 102.61 85.6859 109.329 86.7611 117.867C86.8366 118.467 86.3708 119 85.7664 119H51.9044C51.2948 119 50.8274 118.458 50.9116 117.854C52.3051 107.859 52.3262 101.532 51.0014 90.9134C50.8401 89.6201 50.919 88.3044 51.2508 87.044L51.394 86.5C52.262 81.0109 52.3567 77.8333 52.0819 72.5601Z" fill="#5EB0FF" fill-opacity="0.8"/>
<path d="M52.0819 72.5601C52.0582 72.1038 52.3444 71.6865 52.78 71.5486L56.63 70.3299C57.2502 70.1335 57.8896 70.5736 57.9329 71.2227C58.2857 76.5124 58.7173 79.8856 60.209 85.1122C60.35 85.6063 60.6929 86.0193 61.1503 86.2532C65.9718 88.7187 71.7029 88.7091 76.5244 86.2436C76.9699 86.0158 77.3097 85.6178 77.4557 85.1392C78.9588 80.209 79.2751 76.7061 79.7067 71.1994C79.757 70.5576 80.3916 70.1291 81.0054 70.3234L84.8655 71.5453C85.3059 71.6848 85.5928 72.1093 85.5639 72.5703C85.2338 77.8323 85.4441 81.0253 86.2619 86.5L86.438 87.1689C86.7485 88.3482 86.8379 89.5788 86.7154 90.7921C85.522 102.61 85.6859 109.329 86.7611 117.867C86.8366 118.467 86.3708 119 85.7664 119H51.9044C51.2948 119 50.8274 118.458 50.9116 117.854C52.3051 107.859 52.3262 101.532 51.0014 90.9134C50.8401 89.6201 50.919 88.3044 51.2508 87.044L51.394 86.5C52.262 81.0109 52.3567 77.8333 52.0819 72.5601Z" stroke="white" stroke-opacity="0.5" stroke-linejoin="round"/>
</g>
</g>
<defs>
<filter id="filter0_bdd_5082_12498" x="-4" y="-4" width="150" height="162" filterUnits="userSpaceOnUse" color-interpolation-filters="sRGB">
<feFlood flood-opacity="0" result="BackgroundImageFix"/>
<feGaussianBlur in="BackgroundImageFix" stdDeviation="10"/>
<feComposite in2="SourceAlpha" operator="in" result="effect1_backgroundBlur_5082_12498"/>
<feColorMatrix in="SourceAlpha" type="matrix" values="0 0 0 0 0 0 0 0 0 0 0 0 0 0 0 0 0 0 127 0" result="hardAlpha"/>
<feOffset dx="4" dy="4"/>
<feGaussianBlur stdDeviation="10"/>
<feComposite in2="hardAlpha" operator="out"/>
<feColorMatrix type="matrix" values="0 0 0 0 0 0 0 0 0 0 0 0 0 0 0 0 0 0 0.05 0"/>
<feBlend mode="normal" in2="effect1_backgroundBlur_5082_12498" result="effect2_dropShadow_5082_12498"/>
<feColorMatrix in="SourceAlpha" type="matrix" values="0 0 0 0 0 0 0 0 0 0 0 0 0 0 0 0 0 0 127 0" result="hardAlpha"/>
<feOffset/>
<feGaussianBlur stdDeviation="1"/>
<feComposite in2="hardAlpha" operator="out"/>
<feColorMatrix type="matrix" values="0 0 0 0 0 0 0 0 0 0 0 0 0 0 0 0 0 0 0.05 0"/>
<feBlend mode="normal" in2="effect2_dropShadow_5082_12498" result="effect3_dropShadow_5082_12498"/>
<feBlend mode="normal" in="SourceGraphic" in2="effect3_dropShadow_5082_12498" result="shape"/>
</filter>
<filter id="filter1_bd_5082_12498" x="33" y="44" width="71.6562" height="85.5" filterUnits="userSpaceOnUse" color-interpolation-filters="sRGB">
<feFlood flood-opacity="0" result="BackgroundImageFix"/>
<feGaussianBlur in="BackgroundImageFix" stdDeviation="5"/>
<feComposite in2="SourceAlpha" operator="in" result="effect1_backgroundBlur_5082_12498"/>
<feColorMatrix in="SourceAlpha" type="matrix" values="0 0 0 0 0 0 0 0 0 0 0 0 0 0 0 0 0 0 127 0" result="hardAlpha"/>
<feOffset dy="1"/>
<feGaussianBlur stdDeviation="1"/>
<feComposite in2="hardAlpha" operator="out"/>
<feColorMatrix type="matrix" values="0 0 0 0 0 0 0 0 0 0 0 0 0 0 0 0 0 0 0.1 0"/>
<feBlend mode="normal" in2="effect1_backgroundBlur_5082_12498" result="effect2_dropShadow_5082_12498"/>
<feBlend mode="normal" in="SourceGraphic" in2="effect2_dropShadow_5082_12498" result="shape"/>
</filter>
<linearGradient id="paint0_linear_5082_12498" x1="28.0455" y1="16" x2="137.125" y2="165.064" gradientUnits="userSpaceOnUse">
<stop stop-color="white"/>
<stop offset="1" stop-color="white" stop-opacity="0"/>
</linearGradient>
</defs>
</svg>
