<svg width="146" height="158" viewBox="0 0 146 158" fill="none" xmlns="http://www.w3.org/2000/svg">
<g filter="url(#filter0_bdd_5082_12734)">
<rect x="16" y="16" width="106" height="118" rx="16" fill="white" fill-opacity="0.4" shape-rendering="crispEdges"/>
<rect x="16.5" y="16.5" width="105" height="117" rx="15.5" stroke="url(#paint0_linear_5082_12734)" stroke-opacity="0.5" shape-rendering="crispEdges"/>
<path d="M42.1045 35.12H49.3525V35.936H42.1045V35.12ZM40.7485 37.34H50.5885V38.168H40.7485V37.34ZM45.1405 37.796H46.1245V41.9H45.1405V37.796ZM42.1045 31.724H49.2085V32.54H43.1125V35.516H42.1045V31.724ZM59.4436 31.088H60.4396V41.936H59.4436V31.088ZM56.9956 35.324H59.7916V36.14H56.9956V35.324ZM53.8876 32.252H54.7996C54.7996 34.868 54.2476 37.4 52.3036 39.5L51.4996 38.936C53.2876 37.076 53.8876 34.82 53.8876 32.36V32.252ZM51.8476 32.252H54.2596V33.08H51.8476V32.252ZM56.8156 32.252H57.7396C57.7396 34.88 57.3676 37.856 55.3756 40.22L54.5716 39.668C56.4076 37.544 56.8156 34.856 56.8156 32.348V32.252ZM55.1236 32.252H57.2236V33.08H55.1236V32.252ZM62.3467 36.584H72.1867V37.4H62.3467V36.584ZM66.8347 37.1H67.8427V39.596H66.8347V37.1ZM63.5947 40.868H71.0947V41.696H63.5947V40.868ZM63.5947 38.528H64.5907V41.096H63.5947V38.528ZM67.2547 31.352C69.5467 31.352 71.0587 32.192 71.0587 33.536C71.0587 34.88 69.5467 35.72 67.2547 35.72C64.9507 35.72 63.4507 34.88 63.4507 33.536C63.4507 32.192 64.9507 31.352 67.2547 31.352ZM67.2547 32.168C65.5987 32.168 64.5067 32.696 64.5067 33.536C64.5067 34.388 65.5987 34.904 67.2547 34.904C68.9107 34.904 70.0027 34.388 70.0027 33.536C70.0027 32.696 68.9107 32.168 67.2547 32.168ZM76.7653 32.144H83.6533V32.96H76.7653V32.144ZM75.5893 39.644H85.3933V40.46H75.5893V39.644ZM83.2453 32.144H84.2173V33.176C84.2173 34.496 84.2173 35.984 83.7733 38.204L82.7773 38.084C83.2453 35.984 83.2453 34.46 83.2453 33.176V32.144ZM83.4613 34.748V35.504L76.6213 35.888L76.4653 35.024L83.4613 34.748ZM79.4053 36.836H80.4013V39.944H79.4053V36.836ZM87.6604 36.932H95.1124V37.736H87.6604V36.932ZM86.4004 39.716H96.2284V40.544H86.4004V39.716ZM87.6604 32.012H94.9924V32.828H88.6684V37.184H87.6604V32.012ZM88.3444 34.436H94.7644V35.228H88.3444V34.436Z" fill="#121212" fill-opacity="0.7"/>
<g filter="url(#filter1_bd_5082_12734)">
<path d="M81.9588 97.3818L81.8624 97.5136V97.677V99.1951C81.8624 100.023 81.1908 100.695 80.3624 100.695H68.8974H57.4324C56.604 100.695 55.9324 100.023 55.9324 99.1951V97.677V97.4427L55.7524 97.2928L53.9791 95.8158C53.6033 95.5028 53.4037 95.0261 53.4443 94.5387L55.2206 73.209C55.3502 71.6526 56.1354 70.2248 57.3802 69.2816L63.2663 64.822C63.527 64.6245 63.8451 64.5176 64.1721 64.5176H72.6112C72.9358 64.5176 73.2516 64.6228 73.5112 64.8176L81.6672 70.9346C83.0058 71.9385 83.8145 73.4971 83.8648 75.1695L84.4149 93.4875C84.4249 93.8211 84.3234 94.1486 84.1263 94.418L81.9588 97.3818Z" fill="white"/>
<path d="M81.9588 97.3818L81.8624 97.5136V97.677V99.1951C81.8624 100.023 81.1908 100.695 80.3624 100.695H68.8974H57.4324C56.604 100.695 55.9324 100.023 55.9324 99.1951V97.677V97.4427L55.7524 97.2928L53.9791 95.8158C53.6033 95.5028 53.4037 95.0261 53.4443 94.5387L55.2206 73.209C55.3502 71.6526 56.1354 70.2248 57.3802 69.2816L63.2663 64.822C63.527 64.6245 63.8451 64.5176 64.1721 64.5176H72.6112C72.9358 64.5176 73.2516 64.6228 73.5112 64.8176L81.6672 70.9346C83.0058 71.9385 83.8145 73.4971 83.8648 75.1695L84.4149 93.4875C84.4249 93.8211 84.3234 94.1486 84.1263 94.418L81.9588 97.3818Z" fill="#BABABA"/>
<path d="M81.9588 97.3818L81.8624 97.5136V97.677V99.1951C81.8624 100.023 81.1908 100.695 80.3624 100.695H68.8974H57.4324C56.604 100.695 55.9324 100.023 55.9324 99.1951V97.677V97.4427L55.7524 97.2928L53.9791 95.8158C53.6033 95.5028 53.4037 95.0261 53.4443 94.5387L55.2206 73.209C55.3502 71.6526 56.1354 70.2248 57.3802 69.2816L63.2663 64.822C63.527 64.6245 63.8451 64.5176 64.1721 64.5176H72.6112C72.9358 64.5176 73.2516 64.6228 73.5112 64.8176L81.6672 70.9346C83.0058 71.9385 83.8145 73.4971 83.8648 75.1695L84.4149 93.4875C84.4249 93.8211 84.3234 94.1486 84.1263 94.418L81.9588 97.3818Z" stroke="#121212" stroke-linecap="round"/>
<path fill-rule="evenodd" clip-rule="evenodd" d="M70.7912 61.2631C70.6163 61.3625 70.4332 61.4467 70.2443 61.5151C69.8555 61.6559 69.5483 61.9974 69.5483 62.4109V62.777C69.5483 62.9298 69.6503 63.0616 69.7896 63.1246L82.6259 69.5771C84.3804 70.3703 83.7817 72.8573 81.8362 72.8573H56.1636C54.2181 72.8573 53.6194 70.3703 55.3739 69.5771L68.2103 63.1246C68.3496 63.0616 68.4516 62.9298 68.4516 62.777V60.8554C68.4516 60.7684 68.5264 60.6979 68.6186 60.6979C69.1009 60.6803 69.8454 60.5255 70.1941 60.3273C70.5864 60.1045 70.8998 59.7768 71.0948 59.3859C71.2897 58.9949 71.3575 58.5581 71.2894 58.1309C71.2213 57.7036 71.0204 57.3049 70.7123 56.9854C70.4041 56.6658 70.0024 56.4396 69.558 56.3355C69.1136 56.2313 68.6465 56.2538 68.2157 56.4002C67.7848 56.5466 67.4097 56.8102 67.1377 57.1578C66.9384 57.4124 66.801 57.7037 66.7333 58.011C66.6922 58.1975 66.5239 58.3456 66.3222 58.3366L65.8962 58.3177C65.6946 58.3087 65.5368 58.1466 65.5675 57.9583C65.6526 57.4351 65.8711 56.9374 66.2065 56.5088C66.6146 55.9875 67.1773 55.592 67.8235 55.3725C68.4698 55.1529 69.1705 55.1191 69.8371 55.2753C70.5036 55.4316 71.1062 55.7708 71.5684 56.2502C72.0307 56.7296 72.3319 57.3275 72.4341 57.9684C72.5362 58.6094 72.4346 59.2645 72.1422 59.8509C71.8498 60.4374 71.3796 60.9288 70.7912 61.2631ZM69.3158 64.0578L82.1521 70.5104C82.8539 70.8276 82.6144 71.8224 81.8362 71.8224H56.1636C55.3854 71.8224 55.1459 70.8276 55.8477 70.5104L68.6841 64.0578C68.8838 63.9675 69.1161 63.9675 69.3158 64.0578Z" fill="black"/>
<path d="M63.5 64.2861L69 84.5228L73.2778 64.2861C81.696 66.4087 87.8808 73.6192 88.9194 82.2385C89.7641 89.2487 90.6343 95.9962 90.9104 98.4649C90.9703 99.0009 90.5722 99.4303 90.0331 99.4482L83.3524 99.6698L84.2107 117.774C84.2377 118.344 83.7827 118.822 83.2118 118.822H70.9556H54.7882C54.2173 118.822 53.7623 118.344 53.7893 117.774L54.6476 99.6698L48.1064 99.4528C47.5144 99.4332 47.0691 98.9061 47.1486 98.3191L49.5699 80.4406C50.6082 72.774 56.0695 66.4407 63.5 64.2861Z" fill="white"/>
<path d="M63.5 64.2861L69 84.5228L73.2778 64.2861C81.696 66.4087 87.8808 73.6192 88.9194 82.2385C89.7641 89.2487 90.6343 95.9962 90.9104 98.4649C90.9703 99.0009 90.5722 99.4303 90.0331 99.4482L83.3524 99.6698L84.2107 117.774C84.2377 118.344 83.7827 118.822 83.2118 118.822H70.9556H54.7882C54.2173 118.822 53.7623 118.344 53.7893 117.774L54.6476 99.6698L48.1064 99.4528C47.5144 99.4332 47.0691 98.9061 47.1486 98.3191L49.5699 80.4406C50.6082 72.774 56.0695 66.4407 63.5 64.2861Z" fill="black"/>
<path d="M63.5 64.2861V64.2861C56.0695 66.4407 50.6082 72.774 49.5699 80.4406L47.1486 98.3191C47.0691 98.9061 47.5144 99.4332 48.1064 99.4528L54.6476 99.6697M63.5 64.2861L69 84.5228M63.5 64.2861L59.2222 69.3215L62.0512 71.3546L59.9129 74.0358L70.9556 87.7598M73.2778 64.2861V64.2861C81.696 66.4087 87.8808 73.6192 88.9194 82.2385C89.7641 89.2487 90.6343 95.9962 90.9104 98.4649C90.9703 99.0009 90.5722 99.4303 90.0331 99.4482L83.3524 99.6697M73.2778 64.2861L69 84.5228M73.2778 64.2861L78.1667 69.3215L74.7971 71.3546L77.5556 74.0358L69.6515 85.6012M70.9556 87.7598V118.822M70.9556 87.7598L69.6515 85.6012M69 84.5228L69.6515 85.6012M81.2222 78.1608L83.3524 99.6697M83.3524 99.6697L84.2107 117.774C84.2377 118.344 83.7827 118.822 83.2118 118.822H54.7882C54.2173 118.822 53.7623 118.344 53.7893 117.774L54.6476 99.6697M56.7778 78.1608L54.6476 99.6697" stroke="white" stroke-opacity="0.5" stroke-linecap="round" stroke-linejoin="round"/>
<ellipse cx="69.0001" cy="90.536" rx="1.22222" ry="1.17857" fill="white" fill-opacity="0.5"/>
<ellipse cx="69.0001" cy="98.786" rx="1.22222" ry="1.17857" fill="white" fill-opacity="0.5"/>
</g>
</g>
<defs>
<filter id="filter0_bdd_5082_12734" x="-4" y="-4" width="150" height="162" filterUnits="userSpaceOnUse" color-interpolation-filters="sRGB">
<feFlood flood-opacity="0" result="BackgroundImageFix"/>
<feGaussianBlur in="BackgroundImageFix" stdDeviation="10"/>
<feComposite in2="SourceAlpha" operator="in" result="effect1_backgroundBlur_5082_12734"/>
<feColorMatrix in="SourceAlpha" type="matrix" values="0 0 0 0 0 0 0 0 0 0 0 0 0 0 0 0 0 0 127 0" result="hardAlpha"/>
<feOffset dx="4" dy="4"/>
<feGaussianBlur stdDeviation="10"/>
<feComposite in2="hardAlpha" operator="out"/>
<feColorMatrix type="matrix" values="0 0 0 0 0 0 0 0 0 0 0 0 0 0 0 0 0 0 0.05 0"/>
<feBlend mode="normal" in2="effect1_backgroundBlur_5082_12734" result="effect2_dropShadow_5082_12734"/>
<feColorMatrix in="SourceAlpha" type="matrix" values="0 0 0 0 0 0 0 0 0 0 0 0 0 0 0 0 0 0 127 0" result="hardAlpha"/>
<feOffset/>
<feGaussianBlur stdDeviation="1"/>
<feComposite in2="hardAlpha" operator="out"/>
<feColorMatrix type="matrix" values="0 0 0 0 0 0 0 0 0 0 0 0 0 0 0 0 0 0 0.05 0"/>
<feBlend mode="normal" in2="effect2_dropShadow_5082_12734" result="effect3_dropShadow_5082_12734"/>
<feBlend mode="normal" in="SourceGraphic" in2="effect3_dropShadow_5082_12734" result="shape"/>
</filter>
<filter id="filter1_bd_5082_12734" x="36.6394" y="45.1787" width="64.7771" height="84.1426" filterUnits="userSpaceOnUse" color-interpolation-filters="sRGB">
<feFlood flood-opacity="0" result="BackgroundImageFix"/>
<feGaussianBlur in="BackgroundImageFix" stdDeviation="5"/>
<feComposite in2="SourceAlpha" operator="in" result="effect1_backgroundBlur_5082_12734"/>
<feColorMatrix in="SourceAlpha" type="matrix" values="0 0 0 0 0 0 0 0 0 0 0 0 0 0 0 0 0 0 127 0" result="hardAlpha"/>
<feOffset dy="1"/>
<feGaussianBlur stdDeviation="1"/>
<feComposite in2="hardAlpha" operator="out"/>
<feColorMatrix type="matrix" values="0 0 0 0 0 0 0 0 0 0 0 0 0 0 0 0 0 0 0.1 0"/>
<feBlend mode="normal" in2="effect1_backgroundBlur_5082_12734" result="effect2_dropShadow_5082_12734"/>
<feBlend mode="normal" in="SourceGraphic" in2="effect2_dropShadow_5082_12734" result="shape"/>
</filter>
<linearGradient id="paint0_linear_5082_12734" x1="28.0455" y1="16" x2="137.125" y2="165.064" gradientUnits="userSpaceOnUse">
<stop stop-color="white"/>
<stop offset="1" stop-color="white" stop-opacity="0"/>
</linearGradient>
</defs>
</svg>
