<svg width="66" height="69" viewBox="0 0 66 69" fill="none" xmlns="http://www.w3.org/2000/svg">
<g filter="url(#filter0_bd_5082_12736)">
<path d="M45.9588 43.3818L45.8624 43.5136V43.677V45.1951C45.8624 46.0235 45.1908 46.6951 44.3624 46.6951H32.8974H21.4324C20.604 46.6951 19.9324 46.0235 19.9324 45.1951V43.677V43.4427L19.7524 43.2928L17.9791 41.8158C17.6033 41.5028 17.4037 41.0261 17.4443 40.5387L19.2206 19.209C19.3502 17.6526 20.1354 16.2248 21.3802 15.2816L27.2663 10.822C27.527 10.6245 27.8451 10.5176 28.1721 10.5176H36.6112C36.9358 10.5176 37.2516 10.6228 37.5112 10.8176L45.6672 16.9346C47.0058 17.9385 47.8145 19.4971 47.8648 21.1695L48.4149 39.4875C48.4249 39.8211 48.3234 40.1486 48.1263 40.418L45.9588 43.3818Z" fill="white"/>
<path d="M45.9588 43.3818L45.8624 43.5136V43.677V45.1951C45.8624 46.0235 45.1908 46.6951 44.3624 46.6951H32.8974H21.4324C20.604 46.6951 19.9324 46.0235 19.9324 45.1951V43.677V43.4427L19.7524 43.2928L17.9791 41.8158C17.6033 41.5028 17.4037 41.0261 17.4443 40.5387L19.2206 19.209C19.3502 17.6526 20.1354 16.2248 21.3802 15.2816L27.2663 10.822C27.527 10.6245 27.8451 10.5176 28.1721 10.5176H36.6112C36.9358 10.5176 37.2516 10.6228 37.5112 10.8176L45.6672 16.9346C47.0058 17.9385 47.8145 19.4971 47.8648 21.1695L48.4149 39.4875C48.4249 39.8211 48.3234 40.1486 48.1263 40.418L45.9588 43.3818Z" fill="#BABABA"/>
<path d="M45.9588 43.3818L45.8624 43.5136V43.677V45.1951C45.8624 46.0235 45.1908 46.6951 44.3624 46.6951H32.8974H21.4324C20.604 46.6951 19.9324 46.0235 19.9324 45.1951V43.677V43.4427L19.7524 43.2928L17.9791 41.8158C17.6033 41.5028 17.4037 41.0261 17.4443 40.5387L19.2206 19.209C19.3502 17.6526 20.1354 16.2248 21.3802 15.2816L27.2663 10.822C27.527 10.6245 27.8451 10.5176 28.1721 10.5176H36.6112C36.9358 10.5176 37.2516 10.6228 37.5112 10.8176L45.6672 16.9346C47.0058 17.9385 47.8145 19.4971 47.8648 21.1695L48.4149 39.4875C48.4249 39.8211 48.3234 40.1486 48.1263 40.418L45.9588 43.3818Z" stroke="#121212" stroke-linecap="round"/>
<path fill-rule="evenodd" clip-rule="evenodd" d="M34.7912 7.26314C34.6163 7.36253 34.4332 7.4467 34.2443 7.51512C33.8555 7.65593 33.5483 7.99736 33.5483 8.41085V8.77696C33.5483 8.92984 33.6503 9.06158 33.7896 9.12456L46.6259 15.5771C48.3804 16.3703 47.7817 18.8573 45.8362 18.8573H20.1636C18.2181 18.8573 17.6194 16.3703 19.3739 15.5771L32.2103 9.12456C32.3496 9.06158 32.4516 8.92984 32.4516 8.77696V6.85545C32.4516 6.76842 32.5264 6.69788 32.6186 6.69788C33.1009 6.68027 33.8454 6.52549 34.1941 6.32733C34.5864 6.10446 34.8998 5.77682 35.0948 5.38585C35.2897 4.99488 35.3575 4.55814 35.2894 4.13086C35.2213 3.70358 35.0204 3.30494 34.7123 2.98536C34.4041 2.66579 34.0024 2.43962 33.558 2.33546C33.1136 2.23131 32.6465 2.25384 32.2157 2.40022C31.7848 2.54659 31.4097 2.81023 31.1377 3.1578C30.9384 3.41243 30.801 3.70372 30.7333 4.01099C30.6922 4.19751 30.5239 4.34559 30.3222 4.33662L29.8962 4.31767C29.6946 4.3087 29.5368 4.14665 29.5675 3.95834C29.6526 3.43515 29.8711 2.93738 30.2065 2.50884C30.6146 1.98749 31.1773 1.59203 31.8235 1.37247C32.4698 1.15291 33.1705 1.11911 33.8371 1.27534C34.5036 1.43157 35.1062 1.77082 35.5684 2.25019C36.0307 2.72956 36.3319 3.32751 36.4341 3.96843C36.5362 4.60936 36.4346 5.26447 36.1422 5.85092C35.8498 6.43737 35.3796 6.92883 34.7912 7.26314ZM33.3158 10.0578L46.1521 16.5104C46.8539 16.8276 46.6144 17.8224 45.8362 17.8224H20.1636C19.3854 17.8224 19.1459 16.8276 19.8477 16.5104L32.6841 10.0578C32.8838 9.96754 33.1161 9.96754 33.3158 10.0578Z" fill="black"/>
<path d="M27.5 10.2861L33 30.5228L37.2778 10.2861C45.696 12.4087 51.8808 19.6192 52.9194 28.2385C53.7641 35.2487 54.6343 41.9962 54.9104 44.4649C54.9703 45.0009 54.5722 45.4303 54.0331 45.4482L47.3524 45.6698L48.2107 63.7742C48.2377 64.3444 47.7827 64.8215 47.2118 64.8215H34.9556H18.7882C18.2173 64.8215 17.7623 64.3444 17.7893 63.7742L18.6476 45.6698L12.1064 45.4528C11.5144 45.4332 11.0691 44.9061 11.1486 44.3191L13.5699 26.4406C14.6082 18.774 20.0695 12.4407 27.5 10.2861Z" fill="white"/>
<path d="M27.5 10.2861L33 30.5228L37.2778 10.2861C45.696 12.4087 51.8808 19.6192 52.9194 28.2385C53.7641 35.2487 54.6343 41.9962 54.9104 44.4649C54.9703 45.0009 54.5722 45.4303 54.0331 45.4482L47.3524 45.6698L48.2107 63.7742C48.2377 64.3444 47.7827 64.8215 47.2118 64.8215H34.9556H18.7882C18.2173 64.8215 17.7623 64.3444 17.7893 63.7742L18.6476 45.6698L12.1064 45.4528C11.5144 45.4332 11.0691 44.9061 11.1486 44.3191L13.5699 26.4406C14.6082 18.774 20.0695 12.4407 27.5 10.2861Z" fill="black"/>
<path d="M27.5 10.2861V10.2861C20.0695 12.4407 14.6082 18.774 13.5699 26.4406L11.1486 44.3191C11.0691 44.9061 11.5144 45.4332 12.1064 45.4528L18.6476 45.6697M27.5 10.2861L33 30.5228M27.5 10.2861L23.2222 15.3215L26.0512 17.3546L23.9129 20.0358L34.9556 33.7598M37.2778 10.2861V10.2861C45.696 12.4087 51.8808 19.6192 52.9194 28.2385C53.7641 35.2487 54.6343 41.9962 54.9104 44.4649C54.9703 45.0009 54.5722 45.4303 54.0331 45.4482L47.3524 45.6697M37.2778 10.2861L33 30.5228M37.2778 10.2861L42.1667 15.3215L38.7971 17.3546L41.5556 20.0358L33.6515 31.6012M34.9556 33.7598V64.8215M34.9556 33.7598L33.6515 31.6012M33 30.5228L33.6515 31.6012M45.2222 24.1608L47.3524 45.6697M47.3524 45.6697L48.2107 63.7742C48.2377 64.3444 47.7827 64.8215 47.2118 64.8215H18.7882C18.2173 64.8215 17.7623 64.3444 17.7893 63.7742L18.6476 45.6697M20.7778 24.1608L18.6476 45.6697" stroke="white" stroke-opacity="0.5" stroke-linecap="round" stroke-linejoin="round"/>
<ellipse cx="33.0001" cy="36.536" rx="1.22222" ry="1.17857" fill="white" fill-opacity="0.5"/>
<ellipse cx="33.0001" cy="44.786" rx="1.22222" ry="1.17857" fill="white" fill-opacity="0.5"/>
</g>
<defs>
<filter id="filter0_bd_5082_12736" x="0.639404" y="-8.82129" width="64.7771" height="84.1426" filterUnits="userSpaceOnUse" color-interpolation-filters="sRGB">
<feFlood flood-opacity="0" result="BackgroundImageFix"/>
<feGaussianBlur in="BackgroundImageFix" stdDeviation="5"/>
<feComposite in2="SourceAlpha" operator="in" result="effect1_backgroundBlur_5082_12736"/>
<feColorMatrix in="SourceAlpha" type="matrix" values="0 0 0 0 0 0 0 0 0 0 0 0 0 0 0 0 0 0 127 0" result="hardAlpha"/>
<feOffset dy="1"/>
<feGaussianBlur stdDeviation="1"/>
<feComposite in2="hardAlpha" operator="out"/>
<feColorMatrix type="matrix" values="0 0 0 0 0 0 0 0 0 0 0 0 0 0 0 0 0 0 0.1 0"/>
<feBlend mode="normal" in2="effect1_backgroundBlur_5082_12736" result="effect2_dropShadow_5082_12736"/>
<feBlend mode="normal" in="SourceGraphic" in2="effect2_dropShadow_5082_12736" result="shape"/>
</filter>
</defs>
</svg>
