<svg width="146" height="158" viewBox="0 0 146 158" fill="none" xmlns="http://www.w3.org/2000/svg">
<g filter="url(#filter0_bdd_5082_12528)">
<rect x="16" y="16" width="106" height="118" rx="16" fill="white" fill-opacity="0.4" shape-rendering="crispEdges"/>
<rect x="16.5" y="16.5" width="105" height="117" rx="15.5" stroke="url(#paint0_linear_5082_12528)" stroke-opacity="0.5" shape-rendering="crispEdges"/>
<path d="M54.6401 32.42H56.6681V33.224H54.6401V32.42ZM54.6401 34.46H56.6681V35.264H54.6401V34.46ZM51.6281 37.292H52.5401V38.696H54.1721V37.292H55.0721V41.792H51.6281V37.292ZM52.5401 39.452V41.012H54.1721V39.452H52.5401ZM47.5841 37.412H50.9801V39.872H48.5681V41.396H47.6081V39.164H50.0081V38.156H47.5841V37.412ZM47.6081 41.036H48.1721C49.5281 41.036 50.2601 41.024 51.2201 40.832L51.3161 41.6C50.3081 41.78 49.5521 41.792 48.1721 41.792H47.6081V41.036ZM54.0761 31.088H55.0721V36.788H54.0761V31.088ZM49.6481 31.568C51.2801 31.568 52.4561 32.564 52.4561 34.016C52.4561 35.468 51.2801 36.476 49.6481 36.476C48.0401 36.476 46.8521 35.468 46.8521 34.016C46.8521 32.564 48.0401 31.568 49.6481 31.568ZM49.6481 32.372C48.6041 32.372 47.8241 33.056 47.8241 34.016C47.8241 34.976 48.6041 35.66 49.6481 35.66C50.7041 35.66 51.4961 34.976 51.4961 34.016C51.4961 33.056 50.7041 32.372 49.6481 32.372ZM57.4471 36.788H67.2511V37.604H57.4471V36.788ZM58.7191 40.88H66.1711V41.696H58.7191V40.88ZM58.7191 38.552H59.7151V41.132H58.7191V38.552ZM62.3551 31.448C64.6711 31.448 66.1711 32.264 66.1711 33.62C66.1711 34.964 64.6711 35.78 62.3551 35.78C60.0271 35.78 58.5391 34.964 58.5391 33.62C58.5391 32.264 60.0271 31.448 62.3551 31.448ZM62.3551 32.264C60.6511 32.264 59.5591 32.768 59.5591 33.62C59.5591 34.472 60.6511 34.976 62.3551 34.976C64.0591 34.976 65.1511 34.472 65.1511 33.62C65.1511 32.768 64.0591 32.264 62.3551 32.264ZM78.6218 31.076H79.6298V41.948H78.6218V31.076ZM76.2818 33.44H79.1618V34.268H76.2818V33.44ZM76.2818 36.14H79.1618V36.98H76.2818V36.14ZM73.4978 32.024H74.3018V33.956C74.3018 36.392 73.0298 38.72 71.3138 39.644L70.6778 38.852C72.2738 38.06 73.4978 35.972 73.4978 33.956V32.024ZM73.6898 32.024H74.4938V33.956C74.4938 35.948 75.7178 37.94 77.2898 38.684L76.6898 39.488C74.9498 38.588 73.6898 36.344 73.6898 33.956V32.024ZM81.5009 39.728H91.3289V40.556H81.5009V39.728ZM85.9049 33.392H86.7809V33.632C86.7809 35.924 84.8009 37.46 82.4729 37.928L82.0769 37.112C84.1529 36.74 85.9049 35.384 85.9049 33.632V33.392ZM86.0369 33.392H86.9009V33.632C86.9009 35.384 88.6529 36.74 90.7289 37.112L90.3329 37.928C88.0049 37.46 86.0369 35.924 86.0369 33.632V33.392ZM82.4009 32.816H90.3929V33.632H82.4009V32.816ZM85.9049 31.34H86.9009V33.116H85.9049V31.34Z" fill="#121212" fill-opacity="0.7"/>
<g filter="url(#filter1_bd_5082_12528)">
<path d="M79.316 68.5122H58.6834C58.368 68.5122 58.1767 68.8601 58.3456 69.1264L68.1552 84.5952C68.5479 85.2145 69.4515 85.2145 69.8442 84.5952L79.6538 69.1264C79.8227 68.8601 79.6314 68.5122 79.316 68.5122Z" fill="#5EB0FF" fill-opacity="0.8"/>
<path d="M79.316 68.0122H58.6834C57.9738 68.0122 57.5433 68.795 57.9233 69.3942L67.7329 84.863C68.322 85.7919 69.6774 85.7919 70.2665 84.863L80.0761 69.3942C80.4561 68.795 80.0256 68.0122 79.316 68.0122Z" stroke="white" stroke-opacity="0.5" stroke-linecap="square"/>
<path fill-rule="evenodd" clip-rule="evenodd" d="M71.6803 62.9904C71.1068 63.3122 70.475 63.526 69.8205 63.6235V65.6081C69.9432 65.6441 70.0639 65.6883 70.1816 65.7409L91.5381 75.2752C94.1633 76.4472 93.2675 80.1221 90.3565 80.1221H47.6435C44.7326 80.1221 43.8367 76.4472 46.4619 75.2752L67.8184 65.7409C67.9361 65.6883 68.0568 65.6441 68.1796 65.6081V62.388C68.1796 62.2594 68.2914 62.1552 68.4294 62.1552C69.1511 62.1292 70.265 61.9005 70.7869 61.6077C71.3738 61.2783 71.8428 60.7942 72.1345 60.2165C72.4262 59.6388 72.5275 58.9935 72.4256 58.3621C72.3238 57.7308 72.0233 57.1417 71.5621 56.6695C71.101 56.1973 70.5 55.8631 69.8351 55.7092C69.1701 55.5553 68.4712 55.5886 67.8265 55.8049C67.1819 56.0212 66.6206 56.4108 66.2135 56.9243C65.9153 57.3006 65.7098 57.731 65.6084 58.185C65.547 58.4606 65.2951 58.6794 64.9934 58.6662L64.356 58.6382C64.0542 58.6249 63.8182 58.3855 63.8641 58.1072C63.9914 57.3341 64.3184 56.5986 64.8203 55.9654C65.4308 55.1951 66.2728 54.6107 67.2398 54.2863C68.2067 53.9619 69.2552 53.9119 70.2526 54.1428C71.25 54.3736 72.1515 54.8749 72.8432 55.5832C73.5349 56.2915 73.9856 57.1751 74.1384 58.1221C74.2913 59.0692 74.1393 60.0372 73.7017 60.9037C73.2642 61.7703 72.5607 62.4964 71.6803 62.9904ZM69.4727 67.1199L90.8291 76.6542C91.8792 77.123 91.5209 78.593 90.3565 78.593H47.6435C46.4792 78.593 46.1208 77.123 47.1709 76.6542L68.5274 67.1199C68.8262 66.9865 69.1738 66.9865 69.4727 67.1199Z" fill="black"/>
<path d="M57.9564 68.5122L69 83.992L80.0437 68.5122L89.5472 72.0346C91.715 72.8381 93.2284 74.8156 93.4374 77.118L96.6092 112.049L97.0185 115.993C97.0712 116.501 96.7326 116.967 96.2332 117.074L88.0754 118.821H69H49.9246L41.7668 117.074C41.2674 116.967 40.9289 116.501 40.9816 115.993L41.3909 112.049L44.5626 77.118C44.7717 74.8156 46.285 72.8381 48.4528 72.0346L57.9564 68.5122Z" fill="white"/>
<path d="M57.9564 68.5122L69 83.992L80.0437 68.5122L89.5472 72.0346C91.715 72.8381 93.2284 74.8156 93.4374 77.118L96.6092 112.049L97.0185 115.993C97.0712 116.501 96.7326 116.967 96.2332 117.074L88.0754 118.821H69H49.9246L41.7668 117.074C41.2674 116.967 40.9289 116.501 40.9816 115.993L41.3909 112.049L44.5626 77.118C44.7717 74.8156 46.285 72.8381 48.4528 72.0346L57.9564 68.5122Z" fill="#7EC5FF" fill-opacity="0.6"/>
<path d="M69 118.821V83.9919M69 118.821H49.9246M69 118.821H88.0754M69 83.9919L57.9564 68.5122M69 83.9919L55.9484 76.2521L57.9564 68.5122M69 83.9919L80.0437 68.5122M69 83.9919L82.0516 76.2521L80.0437 68.5122M57.9564 68.5122L48.4528 72.0346C46.285 72.8381 44.7717 74.8156 44.5626 77.118L41.3909 112.049M49.9246 118.821L41.7668 117.074C41.2674 116.967 40.9289 116.501 40.9816 115.993L41.3909 112.049M49.9246 118.821V113.984M50.9286 83.9919L49.9246 113.984M41.3909 112.049L49.9246 113.984M80.0437 68.5122L89.5472 72.0346C91.715 72.8381 93.2284 74.8156 93.4374 77.118L96.6092 112.049M88.0754 118.821L96.2332 117.074C96.7326 116.967 97.0712 116.501 97.0185 115.993L96.6092 112.049M88.0754 118.821V113.984M87.0715 83.9919L88.0754 113.984M96.6092 112.049L88.0754 113.984" stroke="white" stroke-opacity="0.5" stroke-linecap="round"/>
</g>
</g>
<defs>
<filter id="filter0_bdd_5082_12528" x="-4" y="-4" width="150" height="162" filterUnits="userSpaceOnUse" color-interpolation-filters="sRGB">
<feFlood flood-opacity="0" result="BackgroundImageFix"/>
<feGaussianBlur in="BackgroundImageFix" stdDeviation="10"/>
<feComposite in2="SourceAlpha" operator="in" result="effect1_backgroundBlur_5082_12528"/>
<feColorMatrix in="SourceAlpha" type="matrix" values="0 0 0 0 0 0 0 0 0 0 0 0 0 0 0 0 0 0 127 0" result="hardAlpha"/>
<feOffset dx="4" dy="4"/>
<feGaussianBlur stdDeviation="10"/>
<feComposite in2="hardAlpha" operator="out"/>
<feColorMatrix type="matrix" values="0 0 0 0 0 0 0 0 0 0 0 0 0 0 0 0 0 0 0.05 0"/>
<feBlend mode="normal" in2="effect1_backgroundBlur_5082_12528" result="effect2_dropShadow_5082_12528"/>
<feColorMatrix in="SourceAlpha" type="matrix" values="0 0 0 0 0 0 0 0 0 0 0 0 0 0 0 0 0 0 127 0" result="hardAlpha"/>
<feOffset/>
<feGaussianBlur stdDeviation="1"/>
<feComposite in2="hardAlpha" operator="out"/>
<feColorMatrix type="matrix" values="0 0 0 0 0 0 0 0 0 0 0 0 0 0 0 0 0 0 0.05 0"/>
<feBlend mode="normal" in2="effect2_dropShadow_5082_12528" result="effect3_dropShadow_5082_12528"/>
<feBlend mode="normal" in="SourceGraphic" in2="effect3_dropShadow_5082_12528" result="shape"/>
</filter>
<filter id="filter1_bd_5082_12528" x="30.4761" y="44" width="77.0479" height="85.3213" filterUnits="userSpaceOnUse" color-interpolation-filters="sRGB">
<feFlood flood-opacity="0" result="BackgroundImageFix"/>
<feGaussianBlur in="BackgroundImageFix" stdDeviation="5"/>
<feComposite in2="SourceAlpha" operator="in" result="effect1_backgroundBlur_5082_12528"/>
<feColorMatrix in="SourceAlpha" type="matrix" values="0 0 0 0 0 0 0 0 0 0 0 0 0 0 0 0 0 0 127 0" result="hardAlpha"/>
<feOffset dy="1"/>
<feGaussianBlur stdDeviation="1"/>
<feComposite in2="hardAlpha" operator="out"/>
<feColorMatrix type="matrix" values="0 0 0 0 0 0 0 0 0 0 0 0 0 0 0 0 0 0 0.1 0"/>
<feBlend mode="normal" in2="effect1_backgroundBlur_5082_12528" result="effect2_dropShadow_5082_12528"/>
<feBlend mode="normal" in="SourceGraphic" in2="effect2_dropShadow_5082_12528" result="shape"/>
</filter>
<linearGradient id="paint0_linear_5082_12528" x1="28.0455" y1="16" x2="137.125" y2="165.064" gradientUnits="userSpaceOnUse">
<stop stop-color="white"/>
<stop offset="1" stop-color="white" stop-opacity="0"/>
</linearGradient>
</defs>
</svg>
