<svg width="66" height="70" viewBox="0 0 66 70" fill="none" xmlns="http://www.w3.org/2000/svg">
<g filter="url(#filter0_bd_5082_12530)">
<path d="M43.316 15.5122H22.6834C22.368 15.5122 22.1767 15.8601 22.3456 16.1264L32.1552 31.5952C32.5479 32.2145 33.4515 32.2145 33.8442 31.5952L43.6538 16.1264C43.8227 15.8601 43.6314 15.5122 43.316 15.5122Z" fill="#5EB0FF" fill-opacity="0.8"/>
<path d="M43.316 15.0122H22.6834C21.9738 15.0122 21.5433 15.795 21.9233 16.3942L31.7329 31.863C32.322 32.7919 33.6774 32.7919 34.2665 31.863L44.0761 16.3942C44.4561 15.795 44.0256 15.0122 43.316 15.0122Z" stroke="white" stroke-opacity="0.5" stroke-linecap="square"/>
<path fill-rule="evenodd" clip-rule="evenodd" d="M35.6803 9.99043C35.1068 10.3122 34.475 10.526 33.8205 10.6235V12.6081C33.9432 12.6441 34.0639 12.6883 34.1816 12.7409L55.5381 22.2752C58.1633 23.4472 57.2675 27.1221 54.3565 27.1221H11.6435C8.73258 27.1221 7.83671 23.4472 10.4619 22.2752L31.8184 12.7409C31.9361 12.6883 32.0568 12.6441 32.1796 12.6081V9.38801C32.1796 9.25942 32.2914 9.15518 32.4294 9.15518C33.1511 9.12918 34.265 8.90046 34.7869 8.60767C35.3738 8.27835 35.8428 7.79422 36.1345 7.21652C36.4262 6.63882 36.5275 5.99349 36.4256 5.36213C36.3238 4.73077 36.0233 4.14174 35.5621 3.66953C35.101 3.19732 34.5 2.86313 33.8351 2.70923C33.1701 2.55533 32.4712 2.58863 31.8265 2.80491C31.1819 3.0212 30.6206 3.41076 30.2135 3.92432C29.9153 4.30056 29.7098 4.73098 29.6084 5.18502C29.547 5.46062 29.2951 5.67941 28.9934 5.66616L28.356 5.63816C28.0542 5.62491 27.8182 5.38546 27.8641 5.10722C27.9914 4.33414 28.3184 3.59863 28.8203 2.96542C29.4308 2.19507 30.2728 1.61073 31.2398 1.28631C32.2067 0.961879 33.2552 0.911933 34.2526 1.14278C35.25 1.37363 36.1515 1.87491 36.8432 2.58323C37.5349 3.29155 37.9856 4.17509 38.1384 5.12213C38.2913 6.06917 38.1393 7.03716 37.7017 7.90371C37.2642 8.77026 36.5607 9.49644 35.6803 9.99043ZM33.4727 14.1199L54.8291 23.6542C55.8792 24.123 55.5209 25.593 54.3565 25.593H11.6435C10.4792 25.593 10.1208 24.123 11.1709 23.6542L32.5274 14.1199C32.8262 13.9865 33.1738 13.9865 33.4727 14.1199Z" fill="black"/>
<path d="M21.9564 15.5122L33 30.992L44.0437 15.5122L53.5472 19.0346C55.715 19.8381 57.2284 21.8156 57.4374 24.118L60.6092 59.049L61.0185 62.9934C61.0712 63.5014 60.7326 63.9675 60.2332 64.0744L52.0754 65.8214H33H13.9246L5.76685 64.0744C5.26744 63.9675 4.92887 63.5014 4.98159 62.9934L5.3909 59.049L8.56262 24.118C8.77168 21.8156 10.285 19.8381 12.4528 19.0346L21.9564 15.5122Z" fill="white"/>
<path d="M21.9564 15.5122L33 30.992L44.0437 15.5122L53.5472 19.0346C55.715 19.8381 57.2284 21.8156 57.4374 24.118L60.6092 59.049L61.0185 62.9934C61.0712 63.5014 60.7326 63.9675 60.2332 64.0744L52.0754 65.8214H33H13.9246L5.76685 64.0744C5.26744 63.9675 4.92887 63.5014 4.98159 62.9934L5.3909 59.049L8.56262 24.118C8.77168 21.8156 10.285 19.8381 12.4528 19.0346L21.9564 15.5122Z" fill="#7EC5FF" fill-opacity="0.6"/>
<path d="M33 65.8214V30.9919M33 65.8214H13.9246M33 65.8214H52.0754M33 30.9919L21.9564 15.5122M33 30.9919L19.9484 23.2521L21.9564 15.5122M33 30.9919L44.0437 15.5122M33 30.9919L46.0516 23.2521L44.0437 15.5122M21.9564 15.5122L12.4528 19.0346C10.285 19.8381 8.77168 21.8156 8.56262 24.118L5.3909 59.049M13.9246 65.8214L5.76685 64.0744C5.26744 63.9675 4.92887 63.5014 4.98159 62.9934L5.3909 59.049M13.9246 65.8214V60.984M14.9286 30.9919L13.9246 60.984M5.3909 59.049L13.9246 60.984M44.0437 15.5122L53.5472 19.0346C55.715 19.8381 57.2284 21.8156 57.4374 24.118L60.6092 59.049M52.0754 65.8214L60.2332 64.0744C60.7326 63.9675 61.0712 63.5014 61.0185 62.9934L60.6092 59.049M52.0754 65.8214V60.984M51.0715 30.9919L52.0754 60.984M60.6092 59.049L52.0754 60.984" stroke="white" stroke-opacity="0.5" stroke-linecap="round"/>
</g>
<defs>
<filter id="filter0_bd_5082_12530" x="-5.52393" y="-9" width="77.0479" height="85.3213" filterUnits="userSpaceOnUse" color-interpolation-filters="sRGB">
<feFlood flood-opacity="0" result="BackgroundImageFix"/>
<feGaussianBlur in="BackgroundImageFix" stdDeviation="5"/>
<feComposite in2="SourceAlpha" operator="in" result="effect1_backgroundBlur_5082_12530"/>
<feColorMatrix in="SourceAlpha" type="matrix" values="0 0 0 0 0 0 0 0 0 0 0 0 0 0 0 0 0 0 127 0" result="hardAlpha"/>
<feOffset dy="1"/>
<feGaussianBlur stdDeviation="1"/>
<feComposite in2="hardAlpha" operator="out"/>
<feColorMatrix type="matrix" values="0 0 0 0 0 0 0 0 0 0 0 0 0 0 0 0 0 0 0.1 0"/>
<feBlend mode="normal" in2="effect1_backgroundBlur_5082_12530" result="effect2_dropShadow_5082_12530"/>
<feBlend mode="normal" in="SourceGraphic" in2="effect2_dropShadow_5082_12530" result="shape"/>
</filter>
</defs>
</svg>
