<svg width="66" height="70" viewBox="0 0 66 70" fill="none" xmlns="http://www.w3.org/2000/svg">
<g filter="url(#filter0_bd_5082_12767)">
<path d="M17.7074 14.0421L24.3571 11.6074H41.6429L48.2926 14.0421C50.4694 14.839 51.9924 16.8187 52.2046 19.1271L54.6071 45.2647L54.9058 48.1081C54.9594 48.6175 54.6194 49.0849 54.1183 49.1909L47.9286 50.5003V64.8217C47.9286 65.374 47.4809 65.8217 46.9286 65.8217H35.4444H30.5556H19.0714C18.5191 65.8217 18.0714 65.374 18.0714 64.8217V50.5003L11.8817 49.1909C11.3806 49.0849 11.0406 48.6175 11.0942 48.1081L11.3929 45.2647L13.7954 19.1271C14.0076 16.8187 15.5306 14.839 17.7074 14.0421Z" fill="white"/>
<path d="M17.7074 14.0421L24.3571 11.6074H41.6429L48.2926 14.0421C50.4694 14.839 51.9924 16.8187 52.2046 19.1271L54.6071 45.2647L54.9058 48.1081C54.9594 48.6175 54.6194 49.0849 54.1183 49.1909L47.9286 50.5003V64.8217C47.9286 65.374 47.4809 65.8217 46.9286 65.8217H35.4444H30.5556H19.0714C18.5191 65.8217 18.0714 65.374 18.0714 64.8217V50.5003L11.8817 49.1909C11.3806 49.0849 11.0406 48.6175 11.0942 48.1081L11.3929 45.2647L13.7954 19.1271C14.0076 16.8187 15.5306 14.839 17.7074 14.0421Z" fill="#BAA582"/>
<path d="M24.3571 11.6074L17.7074 14.0421C15.5306 14.839 14.0076 16.8187 13.7954 19.1271L11.3929 45.2647M24.3571 11.6074L21.4839 20.7341C21.4282 20.911 21.5014 21.103 21.6608 21.1979L24.0142 22.5996C24.2037 22.7125 24.2661 22.9575 24.1537 23.1472L22.7401 25.5326C22.6613 25.6655 22.6662 25.832 22.7525 25.9601L30.5556 37.536M24.3571 11.6074L30.5556 37.536M24.3571 11.6074H41.6429M18.0714 50.5003L11.8817 49.1909C11.3806 49.0849 11.0406 48.6175 11.0942 48.1081L11.3929 45.2647M18.0714 50.5003V46.7606M18.0714 50.5003V64.8217C18.0714 65.374 18.5191 65.8217 19.0714 65.8217H30.5556M18.8571 23.5745L18.0714 46.7606M11.3929 45.2647L18.0714 46.7606M41.6429 11.6074L48.2926 14.0421C50.4694 14.839 51.9924 16.8187 52.2046 19.1271L54.6071 45.2647M41.6429 11.6074L44.5161 20.7341C44.5718 20.911 44.4986 21.103 44.3392 21.1979L41.9858 22.5996C41.7963 22.7125 41.7339 22.9575 41.8463 23.1472L43.2599 25.5326C43.3387 25.6655 43.3338 25.832 43.2475 25.9601L35.4444 37.536M41.6429 11.6074L35.4444 37.536M47.9286 50.5003L54.1183 49.1909C54.6194 49.0849 54.9594 48.6175 54.9058 48.1081L54.6071 45.2647M47.9286 50.5003V46.7606M47.9286 50.5003V64.8217C47.9286 65.374 47.4809 65.8217 46.9286 65.8217H35.4444M47.1429 23.5745L47.9286 46.7606M54.6071 45.2647L47.9286 46.7606M30.5556 37.536V65.8217M30.5556 65.8217H35.4444M35.4444 37.536V65.8217" stroke="white" stroke-opacity="0.5" stroke-linecap="round"/>
<path fill-rule="evenodd" clip-rule="evenodd" d="M35.0394 7.89569C34.603 8.14248 34.1223 8.30649 33.6243 8.38129V9.90346C33.7178 9.93106 33.8096 9.965 33.8991 10.0053L50.1486 17.3182C52.1461 18.2171 51.4644 21.0357 49.2496 21.0357H16.7506C14.5357 21.0357 13.8541 18.2171 15.8515 17.3182L32.101 10.0053C32.1906 9.965 32.2824 9.93106 32.3758 9.90346V7.43363C32.3758 7.33501 32.4609 7.25505 32.5659 7.25505C33.115 7.23511 33.9626 7.05968 34.3596 6.83511C34.8062 6.58252 35.1631 6.21119 35.385 5.7681C35.607 5.325 35.684 4.83002 35.6065 4.34577C35.529 3.86151 35.3004 3.40973 34.9495 3.04754C34.5987 2.68535 34.1414 2.42903 33.6354 2.31099C33.1295 2.19294 32.5977 2.21848 32.1072 2.38437C31.6167 2.55027 31.1896 2.84906 30.8799 3.24297C30.653 3.53154 30.4966 3.86167 30.4195 4.20992C30.3727 4.42131 30.1812 4.58913 29.9516 4.57896L29.4666 4.55749C29.237 4.54732 29.0574 4.36366 29.0923 4.15025C29.1892 3.5573 29.438 2.99316 29.8198 2.50748C30.2844 1.91662 30.925 1.46843 31.6608 1.2196C32.3965 0.970761 33.1942 0.932452 33.9531 1.10952C34.712 1.28658 35.398 1.67106 35.9242 2.21434C36.4505 2.75762 36.7935 3.4353 36.9097 4.16169C37.026 4.88807 36.9104 5.63053 36.5775 6.29517C36.2445 6.95982 35.7093 7.5168 35.0394 7.89569ZM33.3597 11.063L49.6092 18.3759C50.4082 18.7354 50.1355 19.8629 49.2496 19.8629H16.7506C15.8646 19.8629 15.592 18.7354 16.391 18.3759L32.6405 11.063C32.8678 10.9607 33.1323 10.9607 33.3597 11.063Z" fill="black"/>
<path d="M17.7074 14.0421L24.3571 11.6074L30.5556 37.536V65.8217H35.4444V37.536L41.6429 11.6074L48.2926 14.0421C50.4694 14.839 51.9924 16.8187 52.2046 19.1271L54.4384 43.4289L54.6905 46.058L54.9058 48.1081C54.9594 48.6175 54.6194 49.0849 54.1183 49.1909L47.9286 50.5003V64.8217C47.9286 65.374 47.4809 65.8217 46.9286 65.8217H35.4444H30.5556H19.0714C18.5191 65.8217 18.0714 65.374 18.0714 64.8217V50.5003L11.9068 49.1962C11.3952 49.088 11.0534 48.604 11.1225 48.0857L11.3929 46.058L11.5616 43.4289L13.7954 19.1271C14.0076 16.8187 15.5306 14.839 17.7074 14.0421Z" fill="white"/>
<path d="M17.7074 14.0421L24.3571 11.6074L30.5556 37.536V65.8217H35.4444V37.536L41.6429 11.6074L48.2926 14.0421C50.4694 14.839 51.9924 16.8187 52.2046 19.1271L54.4384 43.4289L54.6905 46.058L54.9058 48.1081C54.9594 48.6175 54.6194 49.0849 54.1183 49.1909L47.9286 50.5003V64.8217C47.9286 65.374 47.4809 65.8217 46.9286 65.8217H35.4444H30.5556H19.0714C18.5191 65.8217 18.0714 65.374 18.0714 64.8217V50.5003L11.9068 49.1962C11.3952 49.088 11.0534 48.604 11.1225 48.0857L11.3929 46.058L11.5616 43.4289L13.7954 19.1271C14.0076 16.8187 15.5306 14.839 17.7074 14.0421Z" fill="#B59E72"/>
<path d="M24.3571 11.6074L17.7074 14.0421C15.5306 14.839 14.0076 16.8187 13.7954 19.1271L11.5616 43.4289M24.3571 11.6074L21.4839 20.7341C21.4282 20.911 21.5014 21.103 21.6608 21.1979L24.0142 22.5996C24.2037 22.7125 24.2661 22.9575 24.1537 23.1472L22.7401 25.5326C22.6613 25.6655 22.6662 25.832 22.7525 25.9601L30.5556 37.536M24.3571 11.6074L30.5556 37.536M18.0714 50.5003L11.9068 49.1962C11.3952 49.088 11.0534 48.604 11.1225 48.0857L11.3929 46.058M18.0714 50.5003V47.5539M18.0714 50.5003V64.8217C18.0714 65.374 18.5191 65.8217 19.0714 65.8217H30.5556M18.8571 23.5745L18.1444 44.6074M11.3929 46.058L18.0714 47.5539M11.3929 46.058L11.5616 43.4289M18.0714 47.5539L18.1444 44.6074M41.6429 11.6074L48.2926 14.0421C50.4694 14.839 51.9924 16.8187 52.2046 19.1271L54.4384 43.4289M41.6429 11.6074L44.5161 20.7341C44.5718 20.911 44.4986 21.103 44.3392 21.1979L41.9858 22.5996C41.7963 22.7125 41.7339 22.9575 41.8463 23.1472L43.2599 25.5326C43.3387 25.6655 43.3338 25.832 43.2475 25.9601L35.4444 37.536M41.6429 11.6074L35.4444 37.536M47.9286 50.5003L54.1183 49.1909C54.6194 49.0849 54.9594 48.6175 54.9058 48.1081L54.6905 46.058M47.9286 50.5003L48.0119 47.5539M47.9286 50.5003V64.8217C47.9286 65.374 47.4809 65.8217 46.9286 65.8217H35.4444M47.1429 23.5745L47.8556 44.6074M54.6905 46.058L48.0119 47.5539M54.6905 46.058L54.4384 43.4289M48.0119 47.5539L47.8556 44.6074M30.5556 37.536V65.8217M30.5556 65.8217H35.4444M35.4444 37.536V65.8217M54.4384 43.4289L47.8556 44.6074M18.1444 44.6074L11.5616 43.4289" stroke="white" stroke-opacity="0.5" stroke-linecap="round"/>
</g>
<ellipse cx="42.1668" cy="32.2319" rx="0.611111" ry="0.589286" fill="white" fill-opacity="0.5"/>
<ellipse cx="23.8333" cy="32.2319" rx="0.611111" ry="0.589286" fill="white" fill-opacity="0.5"/>
<ellipse cx="42.1668" cy="40.4819" rx="0.611111" ry="0.589286" fill="white" fill-opacity="0.5"/>
<ellipse cx="23.8333" cy="40.4819" rx="0.611111" ry="0.589286" fill="white" fill-opacity="0.5"/>
<ellipse cx="42.1668" cy="48.7319" rx="0.611111" ry="0.589286" fill="white" fill-opacity="0.5"/>
<ellipse cx="12.8333" cy="45.1967" rx="0.611111" ry="0.589286" fill="white" fill-opacity="0.5"/>
<ellipse cx="53.1668" cy="45.1967" rx="0.611111" ry="0.589286" fill="white" fill-opacity="0.5"/>
<ellipse cx="42.1668" cy="56.9819" rx="0.611111" ry="0.589286" fill="white" fill-opacity="0.5"/>
<ellipse cx="23.8333" cy="48.7319" rx="0.611111" ry="0.589286" fill="white" fill-opacity="0.5"/>
<ellipse cx="23.8333" cy="56.9819" rx="0.611111" ry="0.589286" fill="white" fill-opacity="0.5"/>
<defs>
<filter id="filter0_bd_5082_12767" x="0.588623" y="-9" width="64.8228" height="85.3213" filterUnits="userSpaceOnUse" color-interpolation-filters="sRGB">
<feFlood flood-opacity="0" result="BackgroundImageFix"/>
<feGaussianBlur in="BackgroundImageFix" stdDeviation="5"/>
<feComposite in2="SourceAlpha" operator="in" result="effect1_backgroundBlur_5082_12767"/>
<feColorMatrix in="SourceAlpha" type="matrix" values="0 0 0 0 0 0 0 0 0 0 0 0 0 0 0 0 0 0 127 0" result="hardAlpha"/>
<feOffset dy="1"/>
<feGaussianBlur stdDeviation="1"/>
<feComposite in2="hardAlpha" operator="out"/>
<feColorMatrix type="matrix" values="0 0 0 0 0 0 0 0 0 0 0 0 0 0 0 0 0 0 0.1 0"/>
<feBlend mode="normal" in2="effect1_backgroundBlur_5082_12767" result="effect2_dropShadow_5082_12767"/>
<feBlend mode="normal" in="SourceGraphic" in2="effect2_dropShadow_5082_12767" result="shape"/>
</filter>
</defs>
</svg>
