<svg width="146" height="158" viewBox="0 0 146 158" fill="none" xmlns="http://www.w3.org/2000/svg">
<g filter="url(#filter0_bdd_5082_12765)">
<rect x="16" y="16" width="106" height="118" rx="16" fill="white" fill-opacity="0.4" shape-rendering="crispEdges"/>
<rect x="16.5" y="16.5" width="105" height="117" rx="15.5" stroke="url(#paint0_linear_5082_12765)" stroke-opacity="0.5" shape-rendering="crispEdges"/>
<path d="M42.0205 36.932H49.4725V37.736H42.0205V36.932ZM40.7605 39.716H50.5885V40.544H40.7605V39.716ZM42.0205 32.012H49.3525V32.828H43.0285V37.184H42.0205V32.012ZM42.7045 34.436H49.1245V35.228H42.7045V34.436ZM52.0516 36.764H52.7476C54.2596 36.764 55.3756 36.728 56.6956 36.464L56.8036 37.256C55.4356 37.52 54.2956 37.58 52.7476 37.58H52.0516V36.764ZM52.0276 31.964H55.8676V35.096H53.0116V37.16H52.0516V34.328H54.8956V32.768H52.0276V31.964ZM56.2876 34.088H58.2916V34.904H56.2876V34.088ZM59.7436 31.088H60.6916V39.248H59.7436V31.088ZM57.6196 31.292H58.5556V38.972H57.6196V31.292ZM53.6236 40.88H61.0276V41.696H53.6236V40.88ZM53.6236 38.444H54.6196V41.396H53.6236V38.444ZM70.2427 31.088H71.2387V41.936H70.2427V31.088ZM65.3587 33.668H66.1627V34.592C66.1627 36.908 64.8547 39.008 63.1147 39.848L62.5507 39.08C64.1587 38.336 65.3587 36.488 65.3587 34.592V33.668ZM65.5507 33.668H66.3427V34.592C66.3427 36.404 67.5787 38.168 69.1987 38.876L68.6347 39.656C66.8827 38.864 65.5507 36.836 65.5507 34.592V33.668ZM62.8507 32.972H68.8267V33.776H62.8507V32.972ZM65.3587 31.28H66.3547V33.416H65.3587V31.28ZM76.7653 32.144H83.6533V32.96H76.7653V32.144ZM75.5893 39.644H85.3933V40.46H75.5893V39.644ZM83.2453 32.144H84.2173V33.176C84.2173 34.496 84.2173 35.984 83.7733 38.204L82.7773 38.084C83.2453 35.984 83.2453 34.46 83.2453 33.176V32.144ZM83.4613 34.748V35.504L76.6213 35.888L76.4653 35.024L83.4613 34.748ZM79.4053 36.836H80.4013V39.944H79.4053V36.836ZM87.6604 36.932H95.1124V37.736H87.6604V36.932ZM86.4004 39.716H96.2284V40.544H86.4004V39.716ZM87.6604 32.012H94.9924V32.828H88.6684V37.184H87.6604V32.012ZM88.3444 34.436H94.7644V35.228H88.3444V34.436Z" fill="#121212" fill-opacity="0.7"/>
<g filter="url(#filter1_bd_5082_12765)">
<path d="M53.7074 67.0421L60.3571 64.6074H77.6429L84.2926 67.0421C86.4694 67.839 87.9924 69.8187 88.2046 72.1271L90.6071 98.2647L90.9058 101.108C90.9594 101.617 90.6194 102.085 90.1183 102.191L83.9286 103.5V117.822C83.9286 118.374 83.4809 118.822 82.9286 118.822H71.4444H66.5556H55.0714C54.5191 118.822 54.0714 118.374 54.0714 117.822V103.5L47.8817 102.191C47.3806 102.085 47.0406 101.617 47.0942 101.108L47.3929 98.2647L49.7954 72.1271C50.0076 69.8187 51.5306 67.839 53.7074 67.0421Z" fill="white"/>
<path d="M53.7074 67.0421L60.3571 64.6074H77.6429L84.2926 67.0421C86.4694 67.839 87.9924 69.8187 88.2046 72.1271L90.6071 98.2647L90.9058 101.108C90.9594 101.617 90.6194 102.085 90.1183 102.191L83.9286 103.5V117.822C83.9286 118.374 83.4809 118.822 82.9286 118.822H71.4444H66.5556H55.0714C54.5191 118.822 54.0714 118.374 54.0714 117.822V103.5L47.8817 102.191C47.3806 102.085 47.0406 101.617 47.0942 101.108L47.3929 98.2647L49.7954 72.1271C50.0076 69.8187 51.5306 67.839 53.7074 67.0421Z" fill="#BAA582"/>
<path d="M60.3571 64.6074L53.7074 67.0421C51.5306 67.839 50.0076 69.8187 49.7954 72.1271L47.3929 98.2647M60.3571 64.6074L57.4839 73.7341C57.4282 73.911 57.5014 74.103 57.6608 74.1979L60.0142 75.5996C60.2037 75.7125 60.2661 75.9575 60.1537 76.1472L58.7401 78.5326C58.6613 78.6655 58.6662 78.832 58.7525 78.9601L66.5556 90.536M60.3571 64.6074L66.5556 90.536M60.3571 64.6074H77.6429M54.0714 103.5L47.8817 102.191C47.3806 102.085 47.0406 101.617 47.0942 101.108L47.3929 98.2647M54.0714 103.5V99.7606M54.0714 103.5V117.822C54.0714 118.374 54.5191 118.822 55.0714 118.822H66.5556M54.8571 76.5745L54.0714 99.7606M47.3929 98.2647L54.0714 99.7606M77.6429 64.6074L84.2926 67.0421C86.4694 67.839 87.9924 69.8187 88.2046 72.1271L90.6071 98.2647M77.6429 64.6074L80.5161 73.7341C80.5718 73.911 80.4986 74.103 80.3392 74.1979L77.9858 75.5996C77.7963 75.7125 77.7339 75.9575 77.8463 76.1472L79.2599 78.5326C79.3387 78.6655 79.3338 78.832 79.2475 78.9601L71.4444 90.536M77.6429 64.6074L71.4444 90.536M83.9286 103.5L90.1183 102.191C90.6194 102.085 90.9594 101.617 90.9058 101.108L90.6071 98.2647M83.9286 103.5V99.7606M83.9286 103.5V117.822C83.9286 118.374 83.4809 118.822 82.9286 118.822H71.4444M83.1429 76.5745L83.9286 99.7606M90.6071 98.2647L83.9286 99.7606M66.5556 90.536V118.822M66.5556 118.822H71.4444M71.4444 90.536V118.822" stroke="white" stroke-opacity="0.5" stroke-linecap="round"/>
<path fill-rule="evenodd" clip-rule="evenodd" d="M71.0394 60.8957C70.603 61.1425 70.1223 61.3065 69.6243 61.3813V62.9035C69.7178 62.9311 69.8096 62.965 69.8991 63.0053L86.1486 70.3182C88.1461 71.2171 87.4644 74.0357 85.2496 74.0357H52.7506C50.5357 74.0357 49.8541 71.2171 51.8515 70.3182L68.101 63.0053C68.1906 62.965 68.2824 62.9311 68.3758 62.9035V60.4336C68.3758 60.335 68.4609 60.2551 68.5659 60.2551C69.115 60.2351 69.9626 60.0597 70.3596 59.8351C70.8062 59.5825 71.1631 59.2112 71.385 58.7681C71.607 58.325 71.684 57.83 71.6065 57.3458C71.529 56.8615 71.3004 56.4097 70.9495 56.0475C70.5987 55.6854 70.1414 55.429 69.6354 55.311C69.1295 55.1929 68.5977 55.2185 68.1072 55.3844C67.6167 55.5503 67.1896 55.8491 66.8799 56.243C66.653 56.5315 66.4966 56.8617 66.4195 57.2099C66.3727 57.4213 66.1812 57.5891 65.9516 57.579L65.4666 57.5575C65.237 57.5473 65.0574 57.3637 65.0923 57.1503C65.1892 56.5573 65.438 55.9932 65.8198 55.5075C66.2844 54.9166 66.925 54.4684 67.6608 54.2196C68.3965 53.9708 69.1942 53.9325 69.9531 54.1095C70.712 54.2866 71.398 54.6711 71.9242 55.2143C72.4505 55.7576 72.7935 56.4353 72.9097 57.1617C73.026 57.8881 72.9104 58.6305 72.5775 59.2952C72.2445 59.9598 71.7093 60.5168 71.0394 60.8957ZM69.3597 64.063L85.6092 71.3759C86.4082 71.7354 86.1355 72.8629 85.2496 72.8629H52.7506C51.8646 72.8629 51.592 71.7354 52.391 71.3759L68.6405 64.063C68.8678 63.9607 69.1323 63.9607 69.3597 64.063Z" fill="black"/>
<path d="M53.7074 67.0421L60.3571 64.6074L66.5556 90.536V118.822H71.4444V90.536L77.6429 64.6074L84.2926 67.0421C86.4694 67.839 87.9924 69.8187 88.2046 72.1271L90.4384 96.4289L90.6905 99.058L90.9058 101.108C90.9594 101.617 90.6194 102.085 90.1183 102.191L83.9286 103.5V117.822C83.9286 118.374 83.4809 118.822 82.9286 118.822H71.4444H66.5556H55.0714C54.5191 118.822 54.0714 118.374 54.0714 117.822V103.5L47.9068 102.196C47.3952 102.088 47.0534 101.604 47.1225 101.086L47.3929 99.058L47.5616 96.4289L49.7954 72.1271C50.0076 69.8187 51.5306 67.839 53.7074 67.0421Z" fill="white"/>
<path d="M53.7074 67.0421L60.3571 64.6074L66.5556 90.536V118.822H71.4444V90.536L77.6429 64.6074L84.2926 67.0421C86.4694 67.839 87.9924 69.8187 88.2046 72.1271L90.4384 96.4289L90.6905 99.058L90.9058 101.108C90.9594 101.617 90.6194 102.085 90.1183 102.191L83.9286 103.5V117.822C83.9286 118.374 83.4809 118.822 82.9286 118.822H71.4444H66.5556H55.0714C54.5191 118.822 54.0714 118.374 54.0714 117.822V103.5L47.9068 102.196C47.3952 102.088 47.0534 101.604 47.1225 101.086L47.3929 99.058L47.5616 96.4289L49.7954 72.1271C50.0076 69.8187 51.5306 67.839 53.7074 67.0421Z" fill="#B59E72"/>
<path d="M60.3571 64.6074L53.7074 67.0421C51.5306 67.839 50.0076 69.8187 49.7954 72.1271L47.5616 96.4289M60.3571 64.6074L57.4839 73.7341C57.4282 73.911 57.5014 74.103 57.6608 74.1979L60.0142 75.5996C60.2037 75.7125 60.2661 75.9575 60.1537 76.1472L58.7401 78.5326C58.6613 78.6655 58.6662 78.832 58.7525 78.9601L66.5556 90.536M60.3571 64.6074L66.5556 90.536M54.0714 103.5L47.9068 102.196C47.3952 102.088 47.0534 101.604 47.1225 101.086L47.3929 99.058M54.0714 103.5V100.554M54.0714 103.5V117.822C54.0714 118.374 54.5191 118.822 55.0714 118.822H66.5556M54.8571 76.5745L54.1444 97.6074M47.3929 99.058L54.0714 100.554M47.3929 99.058L47.5616 96.4289M54.0714 100.554L54.1444 97.6074M77.6429 64.6074L84.2926 67.0421C86.4694 67.839 87.9924 69.8187 88.2046 72.1271L90.4384 96.4289M77.6429 64.6074L80.5161 73.7341C80.5718 73.911 80.4986 74.103 80.3392 74.1979L77.9858 75.5996C77.7963 75.7125 77.7339 75.9575 77.8463 76.1472L79.2599 78.5326C79.3387 78.6655 79.3338 78.832 79.2475 78.9601L71.4444 90.536M77.6429 64.6074L71.4444 90.536M83.9286 103.5L90.1183 102.191C90.6194 102.085 90.9594 101.617 90.9058 101.108L90.6905 99.058M83.9286 103.5L84.0119 100.554M83.9286 103.5V117.822C83.9286 118.374 83.4809 118.822 82.9286 118.822H71.4444M83.1429 76.5745L83.8556 97.6074M90.6905 99.058L84.0119 100.554M90.6905 99.058L90.4384 96.4289M84.0119 100.554L83.8556 97.6074M66.5556 90.536V118.822M66.5556 118.822H71.4444M71.4444 90.536V118.822M90.4384 96.4289L83.8556 97.6074M54.1444 97.6074L47.5616 96.4289" stroke="white" stroke-opacity="0.5" stroke-linecap="round"/>
</g>
<ellipse cx="78.1668" cy="85.2319" rx="0.611111" ry="0.589286" fill="white" fill-opacity="0.5"/>
<ellipse cx="59.8333" cy="85.2319" rx="0.611111" ry="0.589286" fill="white" fill-opacity="0.5"/>
<ellipse cx="78.1668" cy="93.4819" rx="0.611111" ry="0.589286" fill="white" fill-opacity="0.5"/>
<ellipse cx="59.8333" cy="93.4819" rx="0.611111" ry="0.589286" fill="white" fill-opacity="0.5"/>
<ellipse cx="78.1668" cy="101.732" rx="0.611111" ry="0.589286" fill="white" fill-opacity="0.5"/>
<ellipse cx="48.8333" cy="98.1967" rx="0.611111" ry="0.589286" fill="white" fill-opacity="0.5"/>
<ellipse cx="89.1668" cy="98.1967" rx="0.611111" ry="0.589286" fill="white" fill-opacity="0.5"/>
<ellipse cx="78.1668" cy="109.982" rx="0.611111" ry="0.589286" fill="white" fill-opacity="0.5"/>
<ellipse cx="59.8333" cy="101.732" rx="0.611111" ry="0.589286" fill="white" fill-opacity="0.5"/>
<ellipse cx="59.8333" cy="109.982" rx="0.611111" ry="0.589286" fill="white" fill-opacity="0.5"/>
</g>
<defs>
<filter id="filter0_bdd_5082_12765" x="-4" y="-4" width="150" height="162" filterUnits="userSpaceOnUse" color-interpolation-filters="sRGB">
<feFlood flood-opacity="0" result="BackgroundImageFix"/>
<feGaussianBlur in="BackgroundImageFix" stdDeviation="10"/>
<feComposite in2="SourceAlpha" operator="in" result="effect1_backgroundBlur_5082_12765"/>
<feColorMatrix in="SourceAlpha" type="matrix" values="0 0 0 0 0 0 0 0 0 0 0 0 0 0 0 0 0 0 127 0" result="hardAlpha"/>
<feOffset dx="4" dy="4"/>
<feGaussianBlur stdDeviation="10"/>
<feComposite in2="hardAlpha" operator="out"/>
<feColorMatrix type="matrix" values="0 0 0 0 0 0 0 0 0 0 0 0 0 0 0 0 0 0 0.05 0"/>
<feBlend mode="normal" in2="effect1_backgroundBlur_5082_12765" result="effect2_dropShadow_5082_12765"/>
<feColorMatrix in="SourceAlpha" type="matrix" values="0 0 0 0 0 0 0 0 0 0 0 0 0 0 0 0 0 0 127 0" result="hardAlpha"/>
<feOffset/>
<feGaussianBlur stdDeviation="1"/>
<feComposite in2="hardAlpha" operator="out"/>
<feColorMatrix type="matrix" values="0 0 0 0 0 0 0 0 0 0 0 0 0 0 0 0 0 0 0.05 0"/>
<feBlend mode="normal" in2="effect2_dropShadow_5082_12765" result="effect3_dropShadow_5082_12765"/>
<feBlend mode="normal" in="SourceGraphic" in2="effect3_dropShadow_5082_12765" result="shape"/>
</filter>
<filter id="filter1_bd_5082_12765" x="36.5886" y="44" width="64.8228" height="85.3213" filterUnits="userSpaceOnUse" color-interpolation-filters="sRGB">
<feFlood flood-opacity="0" result="BackgroundImageFix"/>
<feGaussianBlur in="BackgroundImageFix" stdDeviation="5"/>
<feComposite in2="SourceAlpha" operator="in" result="effect1_backgroundBlur_5082_12765"/>
<feColorMatrix in="SourceAlpha" type="matrix" values="0 0 0 0 0 0 0 0 0 0 0 0 0 0 0 0 0 0 127 0" result="hardAlpha"/>
<feOffset dy="1"/>
<feGaussianBlur stdDeviation="1"/>
<feComposite in2="hardAlpha" operator="out"/>
<feColorMatrix type="matrix" values="0 0 0 0 0 0 0 0 0 0 0 0 0 0 0 0 0 0 0.1 0"/>
<feBlend mode="normal" in2="effect1_backgroundBlur_5082_12765" result="effect2_dropShadow_5082_12765"/>
<feBlend mode="normal" in="SourceGraphic" in2="effect2_dropShadow_5082_12765" result="shape"/>
</filter>
<linearGradient id="paint0_linear_5082_12765" x1="28.0455" y1="16" x2="137.125" y2="165.064" gradientUnits="userSpaceOnUse">
<stop stop-color="white"/>
<stop offset="1" stop-color="white" stop-opacity="0"/>
</linearGradient>
</defs>
</svg>
