<svg width="66" height="70" viewBox="0 0 66 70" fill="none" xmlns="http://www.w3.org/2000/svg">
<g filter="url(#filter0_bd_5082_12500)">
<path d="M15.9044 66.0001H49.7664C50.3708 66.0001 50.8366 65.4667 50.7611 64.8669C49.6859 56.3287 49.522 49.6096 50.7154 37.7921C50.8379 36.5788 50.7485 35.3482 50.438 34.1689L50.2619 33.5C49.4441 28.0253 49.2338 24.8323 49.5639 19.5703C49.5928 19.1093 49.3059 18.6848 48.8655 18.5453L44.7588 17.2453C44.2321 17.0786 43.6685 17.3742 43.5036 17.9016C42.1435 22.2506 42.7781 20.5874 41.6638 24.136C41.4031 24.9659 40.6317 25.5283 39.7618 25.5283H25.9292C25.0425 25.5283 24.2606 24.9426 24.0119 24.0915C22.8935 20.2649 23.5203 22.2291 22.1536 17.9012C21.9872 17.3743 21.4238 17.0786 20.8971 17.2453L16.78 18.5486C16.3444 18.6865 16.0582 19.1038 16.0819 19.5601C16.3567 24.8333 16.262 28.0109 15.394 33.5L15.2508 34.044C14.919 35.3044 14.8401 36.6201 15.0014 37.9134C16.3262 48.5321 16.3051 54.859 14.9116 64.8544C14.8274 65.4582 15.2948 66.0001 15.9044 66.0001Z" fill="#298CFF" fill-opacity="0.8" stroke="white" stroke-opacity="0.5" stroke-linejoin="round"/>
<path fill-rule="evenodd" clip-rule="evenodd" d="M35.7011 10.7082C35.0864 11.0557 34.4091 11.2866 33.7075 11.3919V13.5349C33.8391 13.5737 33.9685 13.6215 34.0947 13.6783L56.987 23.9738C59.8011 25.2394 58.8408 29.2076 55.7205 29.2076H9.93572C6.81542 29.2076 5.85511 25.2394 8.66915 23.9738L31.5615 13.6783C31.6877 13.6215 31.817 13.5737 31.9486 13.5349V10.0577C31.9486 9.91884 32.0686 9.80628 32.2165 9.80628C32.99 9.7782 34.184 9.53122 34.7434 9.21505C35.3726 8.85944 35.8753 8.33666 36.188 7.71284C36.5007 7.08902 36.6093 6.39216 36.5001 5.7104C36.3909 5.02863 36.0688 4.39257 35.5745 3.88266C35.0802 3.37275 34.4359 3.01188 33.7232 2.84569C33.0104 2.67951 32.2612 2.71546 31.5702 2.94901C30.8792 3.18257 30.2775 3.60323 29.8412 4.1578C29.5216 4.56407 29.3012 5.02885 29.1926 5.51914C29.1267 5.81675 28.8568 6.05301 28.5333 6.0387L27.8501 6.00847C27.5266 5.99415 27.2736 5.73558 27.3228 5.43513C27.4593 4.60033 27.8098 3.8061 28.3478 3.12234C29.0022 2.29048 29.9048 1.65949 30.9413 1.30916C31.9777 0.958835 33.1016 0.904901 34.1707 1.15418C35.2399 1.40346 36.2062 1.94476 36.9477 2.70963C37.6891 3.4745 38.1722 4.42858 38.3361 5.45123C38.4999 6.47388 38.337 7.51916 37.8679 8.45489C37.3989 9.39063 36.6448 10.1748 35.7011 10.7082ZM33.3347 15.1674L56.2271 25.4629C57.3527 25.9691 56.9686 27.5564 55.7205 27.5564H9.93572C8.6876 27.5564 8.30347 25.9691 9.42909 25.4629L32.3215 15.1674C32.6418 15.0233 33.0144 15.0233 33.3347 15.1674Z" fill="black"/>
<path d="M16.0819 19.5601C16.0582 19.1038 16.3444 18.6865 16.78 18.5486L20.63 17.3299C21.2502 17.1335 21.8896 17.5736 21.9329 18.2227C22.2857 23.5124 22.7173 26.8856 24.209 32.1122C24.35 32.6063 24.6929 33.0193 25.1503 33.2532C29.9718 35.7187 35.7029 35.7091 40.5244 33.2436C40.9699 33.0158 41.3097 32.6178 41.4557 32.1392C42.9588 27.209 43.2751 23.7061 43.7067 18.1994C43.757 17.5576 44.3916 17.1291 45.0054 17.3234L48.8655 18.5453C49.3059 18.6848 49.5928 19.1093 49.5639 19.5703C49.2338 24.8323 49.4441 28.0253 50.2619 33.5L50.438 34.1689C50.7485 35.3482 50.8379 36.5788 50.7154 37.7921C49.522 49.6096 49.6859 56.3287 50.7611 64.8669C50.8366 65.4667 50.3708 66.0001 49.7664 66.0001H15.9044C15.2948 66.0001 14.8274 65.4582 14.9116 64.8544C16.3051 54.859 16.3262 48.5321 15.0014 37.9134C14.8401 36.6201 14.919 35.3044 15.2508 34.044L15.394 33.5C16.262 28.0109 16.3567 24.8333 16.0819 19.5601Z" fill="white"/>
<path d="M16.0819 19.5601C16.0582 19.1038 16.3444 18.6865 16.78 18.5486L20.63 17.3299C21.2502 17.1335 21.8896 17.5736 21.9329 18.2227C22.2857 23.5124 22.7173 26.8856 24.209 32.1122C24.35 32.6063 24.6929 33.0193 25.1503 33.2532C29.9718 35.7187 35.7029 35.7091 40.5244 33.2436C40.9699 33.0158 41.3097 32.6178 41.4557 32.1392C42.9588 27.209 43.2751 23.7061 43.7067 18.1994C43.757 17.5576 44.3916 17.1291 45.0054 17.3234L48.8655 18.5453C49.3059 18.6848 49.5928 19.1093 49.5639 19.5703C49.2338 24.8323 49.4441 28.0253 50.2619 33.5L50.438 34.1689C50.7485 35.3482 50.8379 36.5788 50.7154 37.7921C49.522 49.6096 49.6859 56.3287 50.7611 64.8669C50.8366 65.4667 50.3708 66.0001 49.7664 66.0001H15.9044C15.2948 66.0001 14.8274 65.4582 14.9116 64.8544C16.3051 54.859 16.3262 48.5321 15.0014 37.9134C14.8401 36.6201 14.919 35.3044 15.2508 34.044L15.394 33.5C16.262 28.0109 16.3567 24.8333 16.0819 19.5601Z" fill="#5EB0FF" fill-opacity="0.8"/>
<path d="M16.0819 19.5601C16.0582 19.1038 16.3444 18.6865 16.78 18.5486L20.63 17.3299C21.2502 17.1335 21.8896 17.5736 21.9329 18.2227C22.2857 23.5124 22.7173 26.8856 24.209 32.1122C24.35 32.6063 24.6929 33.0193 25.1503 33.2532C29.9718 35.7187 35.7029 35.7091 40.5244 33.2436C40.9699 33.0158 41.3097 32.6178 41.4557 32.1392C42.9588 27.209 43.2751 23.7061 43.7067 18.1994C43.757 17.5576 44.3916 17.1291 45.0054 17.3234L48.8655 18.5453C49.3059 18.6848 49.5928 19.1093 49.5639 19.5703C49.2338 24.8323 49.4441 28.0253 50.2619 33.5L50.438 34.1689C50.7485 35.3482 50.8379 36.5788 50.7154 37.7921C49.522 49.6096 49.6859 56.3287 50.7611 64.8669C50.8366 65.4667 50.3708 66.0001 49.7664 66.0001H15.9044C15.2948 66.0001 14.8274 65.4582 14.9116 64.8544C16.3051 54.859 16.3262 48.5321 15.0014 37.9134C14.8401 36.6201 14.919 35.3044 15.2508 34.044L15.394 33.5C16.262 28.0109 16.3567 24.8333 16.0819 19.5601Z" stroke="white" stroke-opacity="0.5" stroke-linejoin="round"/>
</g>
<defs>
<filter id="filter0_bd_5082_12500" x="-3" y="-9" width="71.6562" height="85.5" filterUnits="userSpaceOnUse" color-interpolation-filters="sRGB">
<feFlood flood-opacity="0" result="BackgroundImageFix"/>
<feGaussianBlur in="BackgroundImageFix" stdDeviation="5"/>
<feComposite in2="SourceAlpha" operator="in" result="effect1_backgroundBlur_5082_12500"/>
<feColorMatrix in="SourceAlpha" type="matrix" values="0 0 0 0 0 0 0 0 0 0 0 0 0 0 0 0 0 0 127 0" result="hardAlpha"/>
<feOffset dy="1"/>
<feGaussianBlur stdDeviation="1"/>
<feComposite in2="hardAlpha" operator="out"/>
<feColorMatrix type="matrix" values="0 0 0 0 0 0 0 0 0 0 0 0 0 0 0 0 0 0 0.1 0"/>
<feBlend mode="normal" in2="effect1_backgroundBlur_5082_12500" result="effect2_dropShadow_5082_12500"/>
<feBlend mode="normal" in="SourceGraphic" in2="effect2_dropShadow_5082_12500" result="shape"/>
</filter>
</defs>
</svg>
