<svg width="66" height="70" viewBox="0 0 66 70" fill="none" xmlns="http://www.w3.org/2000/svg">
<g filter="url(#filter0_bd_5082_12784)">
<path d="M45.4815 44.083L45.3851 44.2148V44.3781V45.8962C45.3851 46.7247 44.7135 47.3962 43.8851 47.3962H32.4201H20.9551C20.1267 47.3962 19.4551 46.7247 19.4551 45.8962V44.3781V44.1439L19.2751 43.9939L17.5018 42.517C17.126 42.2039 16.9264 41.7273 16.9669 41.2399L18.7433 19.9102C18.8729 18.3538 19.6581 16.9259 20.9029 15.9828L26.789 11.5232C27.0497 11.3256 27.3678 11.2188 27.6948 11.2188H36.7978C37.1387 11.2188 37.4694 11.3349 37.7355 11.548L45.3247 17.6264C46.5828 18.6341 47.3356 20.1429 47.384 21.7541L47.9376 40.1887C47.9476 40.5223 47.8461 40.8497 47.649 41.1192L45.4815 44.083Z" fill="white"/>
<path d="M45.4815 44.083L45.3851 44.2148V44.3781V45.8962C45.3851 46.7247 44.7135 47.3962 43.8851 47.3962H32.4201H20.9551C20.1267 47.3962 19.4551 46.7247 19.4551 45.8962V44.3781V44.1439L19.2751 43.9939L17.5018 42.517C17.126 42.2039 16.9264 41.7273 16.9669 41.2399L18.7433 19.9102C18.8729 18.3538 19.6581 16.9259 20.9029 15.9828L26.789 11.5232C27.0497 11.3256 27.3678 11.2188 27.6948 11.2188H36.7978C37.1387 11.2188 37.4694 11.3349 37.7355 11.548L45.3247 17.6264C46.5828 18.6341 47.3356 20.1429 47.384 21.7541L47.9376 40.1887C47.9476 40.5223 47.8461 40.8497 47.649 41.1192L45.4815 44.083Z" fill="#B9A784"/>
<path d="M45.4815 44.083L45.3851 44.2148V44.3781V45.8962C45.3851 46.7247 44.7135 47.3962 43.8851 47.3962H32.4201H20.9551C20.1267 47.3962 19.4551 46.7247 19.4551 45.8962V44.3781V44.1439L19.2751 43.9939L17.5018 42.517C17.126 42.2039 16.9264 41.7273 16.9669 41.2399L18.7433 19.9102C18.8729 18.3538 19.6581 16.9259 20.9029 15.9828L26.789 11.5232C27.0497 11.3256 27.3678 11.2188 27.6948 11.2188H36.7978C37.1387 11.2188 37.4694 11.3349 37.7355 11.548L45.3247 17.6264C46.5828 18.6341 47.3356 20.1429 47.384 21.7541L47.9376 40.1887C47.9476 40.5223 47.8461 40.8497 47.649 41.1192L45.4815 44.083Z" stroke="#6B5032" stroke-linecap="round"/>
<path fill-rule="evenodd" clip-rule="evenodd" d="M34.3139 7.96431C34.139 8.0637 33.9559 8.14787 33.767 8.21629C33.3783 8.3571 33.071 8.69853 33.071 9.11203V9.47813C33.071 9.63102 33.173 9.76275 33.3124 9.82573L46.1486 16.2783C47.9031 17.0714 47.3044 19.5585 45.3589 19.5585H19.6863C17.7409 19.5585 17.1421 17.0714 18.8966 16.2783L31.733 9.82573C31.8723 9.76275 31.9743 9.63102 31.9743 9.47813V7.55662C31.9743 7.46959 32.0491 7.39905 32.1413 7.39905C32.6236 7.38145 33.3681 7.22666 33.7168 7.02851C34.1091 6.80563 34.4226 6.47799 34.6175 6.08703C34.8125 5.69606 34.8802 5.25932 34.8121 4.83203C34.744 4.40475 34.5432 4.00611 34.235 3.68653C33.9268 3.36696 33.5251 3.14079 33.0808 3.03664C32.6364 2.93248 32.1692 2.95502 31.7384 3.10139C31.3076 3.24776 30.9324 3.5114 30.6604 3.85897C30.4611 4.1136 30.3237 4.40489 30.256 4.71217C30.2149 4.89869 30.0466 5.04676 29.845 5.03779L29.419 5.01884C29.2173 5.00987 29.0596 4.84782 29.0902 4.65952C29.1753 4.13632 29.3939 3.63855 29.7293 3.21002C30.1373 2.68867 30.7 2.29321 31.3463 2.07365C31.9925 1.85408 32.6932 1.82028 33.3598 1.97651C34.0264 2.13275 34.6289 2.472 35.0912 2.95136C35.5534 3.43073 35.8547 4.02868 35.9568 4.66961C36.0589 5.31053 35.9573 5.96564 35.6649 6.55209C35.3725 7.13855 34.9023 7.63 34.3139 7.96431ZM32.8385 10.759L45.6748 17.2115C46.3766 17.5288 46.1371 18.5236 45.3589 18.5236H19.6863C18.9081 18.5236 18.6687 17.5288 19.3705 17.2115L32.2068 10.759C32.4065 10.6687 32.6388 10.6687 32.8385 10.759Z" fill="black"/>
<path d="M27.0227 10.9873L32.5227 31.224L37.5 10.9873C45.5185 13.1149 51.3731 20.0301 52.3612 28.267C53.2306 35.5143 54.1482 42.6185 54.4331 45.1661C54.4931 45.7021 54.0949 46.1315 53.5559 46.1493L46.8751 46.3709L47.7334 64.4753C47.7604 65.0456 47.3054 65.5227 46.7345 65.5227H34.4783H18.3109C17.74 65.5227 17.285 65.0456 17.312 64.4753L18.1703 46.3709L11.6291 46.154C11.0371 46.1343 10.5918 45.6073 10.6713 45.0203L13.0926 27.1418C14.1309 19.4752 19.5922 13.1418 27.0227 10.9873Z" fill="white"/>
<path d="M27.0227 10.9873L32.5227 31.224L37.5 10.9873C45.5185 13.1149 51.3731 20.0301 52.3612 28.267C53.2306 35.5143 54.1482 42.6185 54.4331 45.1661C54.4931 45.7021 54.0949 46.1315 53.5559 46.1493L46.8751 46.3709L47.7334 64.4753C47.7604 65.0456 47.3054 65.5227 46.7345 65.5227H34.4783H18.3109C17.74 65.5227 17.285 65.0456 17.312 64.4753L18.1703 46.3709L11.6291 46.154C11.0371 46.1343 10.5918 45.6073 10.6713 45.0203L13.0926 27.1418C14.1309 19.4752 19.5922 13.1418 27.0227 10.9873Z" fill="#784E0F"/>
<path d="M27.0227 10.9873V10.9873C19.5922 13.1418 14.1309 19.4752 13.0926 27.1418L10.6713 45.0203C10.5918 45.6073 11.0371 46.1343 11.6291 46.154L18.1703 46.3709M27.0227 10.9873L32.5227 31.224M27.0227 10.9873L22.7449 16.0227L25.5739 18.0558L23.4356 20.737L34.4783 34.461M37.5 10.9873V10.9873C45.5185 13.1149 51.3731 20.0301 52.3612 28.267C53.2306 35.5143 54.1482 42.6185 54.4331 45.1661C54.4931 45.7021 54.0949 46.1315 53.5559 46.1493L46.8751 46.3709M37.5 10.9873L32.5227 31.224M37.5 10.9873L41.6894 16.0227L38.3198 18.0558L41.0783 20.737L33.1742 32.3024M34.4783 34.461V65.5227M34.4783 34.461L33.1742 32.3024M32.5227 31.224L33.1742 32.3024M44.7449 24.862L46.8751 46.3709M46.8751 46.3709L47.7334 64.4754C47.7604 65.0456 47.3054 65.5227 46.7345 65.5227H18.3109C17.74 65.5227 17.285 65.0456 17.312 64.4754L18.1703 46.3709M20.3005 24.862L18.1703 46.3709" stroke="white" stroke-opacity="0.5" stroke-linecap="round" stroke-linejoin="round"/>
<ellipse cx="32.5228" cy="37.2372" rx="1.22222" ry="1.17857" fill="white" fill-opacity="0.5"/>
<ellipse cx="32.5228" cy="45.4872" rx="1.22222" ry="1.17857" fill="white" fill-opacity="0.5"/>
</g>
<defs>
<filter id="filter0_bd_5082_12784" x="0.162109" y="-8.12012" width="64.7771" height="84.1426" filterUnits="userSpaceOnUse" color-interpolation-filters="sRGB">
<feFlood flood-opacity="0" result="BackgroundImageFix"/>
<feGaussianBlur in="BackgroundImageFix" stdDeviation="5"/>
<feComposite in2="SourceAlpha" operator="in" result="effect1_backgroundBlur_5082_12784"/>
<feColorMatrix in="SourceAlpha" type="matrix" values="0 0 0 0 0 0 0 0 0 0 0 0 0 0 0 0 0 0 127 0" result="hardAlpha"/>
<feOffset dy="1"/>
<feGaussianBlur stdDeviation="1"/>
<feComposite in2="hardAlpha" operator="out"/>
<feColorMatrix type="matrix" values="0 0 0 0 0 0 0 0 0 0 0 0 0 0 0 0 0 0 0.1 0"/>
<feBlend mode="normal" in2="effect1_backgroundBlur_5082_12784" result="effect2_dropShadow_5082_12784"/>
<feBlend mode="normal" in="SourceGraphic" in2="effect2_dropShadow_5082_12784" result="shape"/>
</filter>
</defs>
</svg>
