<svg width="146" height="158" viewBox="0 0 146 158" fill="none" xmlns="http://www.w3.org/2000/svg">
<g filter="url(#filter0_bdd_5082_12782)">
<rect x="16" y="16" width="106" height="118" rx="16" fill="white" fill-opacity="0.4" shape-rendering="crispEdges"/>
<rect x="16.5" y="16.5" width="105" height="117" rx="15.5" stroke="url(#paint0_linear_5082_12782)" stroke-opacity="0.5" shape-rendering="crispEdges"/>
<path d="M56.4516 36.188H57.4356V37.856H56.4516V36.188ZM56.9556 31.22C59.3436 31.22 60.7716 31.88 60.7716 33.092C60.7716 34.304 59.3436 34.976 56.9556 34.976C54.5556 34.976 53.1396 34.304 53.1396 33.092C53.1396 31.88 54.5556 31.22 56.9556 31.22ZM56.9556 31.976C55.1796 31.976 54.1596 32.384 54.1596 33.092C54.1596 33.812 55.1796 34.22 56.9556 34.22C58.7196 34.22 59.7396 33.812 59.7396 33.092C59.7396 32.384 58.7196 31.976 56.9556 31.976ZM52.0476 35.672H61.8516V36.488H52.0476V35.672ZM53.2356 37.484H60.6036V39.932H54.2436V41.252H53.2596V39.212H59.6196V38.252H53.2356V37.484ZM53.2596 41.036H60.9276V41.816H53.2596V41.036ZM66.4663 32.144H73.3543V32.96H66.4663V32.144ZM65.2903 39.644H75.0943V40.46H65.2903V39.644ZM72.9463 32.144H73.9183V33.176C73.9183 34.496 73.9183 35.984 73.4743 38.204L72.4783 38.084C72.9463 35.984 72.9463 34.46 72.9463 33.176V32.144ZM73.1623 34.748V35.504L66.3223 35.888L66.1663 35.024L73.1623 34.748ZM69.1063 36.836H70.1023V39.944H69.1063V36.836ZM77.3613 36.932H84.8133V37.736H77.3613V36.932ZM76.1013 39.716H85.9293V40.544H76.1013V39.716ZM77.3613 32.012H84.6933V32.828H78.3693V37.184H77.3613V32.012ZM78.0453 34.436H84.4653V35.228H78.0453V34.436Z" fill="#121212" fill-opacity="0.7"/>
<g filter="url(#filter1_bd_5082_12782)">
<path d="M81.4815 97.083L81.3851 97.2148V97.3781V98.8962C81.3851 99.7247 80.7135 100.396 79.8851 100.396H68.4201H56.9551C56.1267 100.396 55.4551 99.7247 55.4551 98.8962V97.3781V97.1439L55.2751 96.9939L53.5018 95.517C53.126 95.2039 52.9264 94.7273 52.9669 94.2399L54.7433 72.9102C54.8729 71.3538 55.6581 69.9259 56.9029 68.9828L62.789 64.5232C63.0497 64.3256 63.3678 64.2188 63.6948 64.2188H72.7978C73.1387 64.2188 73.4694 64.3349 73.7355 64.548L81.3247 70.6264C82.5828 71.6341 83.3356 73.1429 83.384 74.7541L83.9376 93.1887C83.9476 93.5223 83.8461 93.8497 83.649 94.1192L81.4815 97.083Z" fill="white"/>
<path d="M81.4815 97.083L81.3851 97.2148V97.3781V98.8962C81.3851 99.7247 80.7135 100.396 79.8851 100.396H68.4201H56.9551C56.1267 100.396 55.4551 99.7247 55.4551 98.8962V97.3781V97.1439L55.2751 96.9939L53.5018 95.517C53.126 95.2039 52.9264 94.7273 52.9669 94.2399L54.7433 72.9102C54.8729 71.3538 55.6581 69.9259 56.9029 68.9828L62.789 64.5232C63.0497 64.3256 63.3678 64.2188 63.6948 64.2188H72.7978C73.1387 64.2188 73.4694 64.3349 73.7355 64.548L81.3247 70.6264C82.5828 71.6341 83.3356 73.1429 83.384 74.7541L83.9376 93.1887C83.9476 93.5223 83.8461 93.8497 83.649 94.1192L81.4815 97.083Z" fill="#B9A784"/>
<path d="M81.4815 97.083L81.3851 97.2148V97.3781V98.8962C81.3851 99.7247 80.7135 100.396 79.8851 100.396H68.4201H56.9551C56.1267 100.396 55.4551 99.7247 55.4551 98.8962V97.3781V97.1439L55.2751 96.9939L53.5018 95.517C53.126 95.2039 52.9264 94.7273 52.9669 94.2399L54.7433 72.9102C54.8729 71.3538 55.6581 69.9259 56.9029 68.9828L62.789 64.5232C63.0497 64.3256 63.3678 64.2188 63.6948 64.2188H72.7978C73.1387 64.2188 73.4694 64.3349 73.7355 64.548L81.3247 70.6264C82.5828 71.6341 83.3356 73.1429 83.384 74.7541L83.9376 93.1887C83.9476 93.5223 83.8461 93.8497 83.649 94.1192L81.4815 97.083Z" stroke="#6B5032" stroke-linecap="round"/>
<path fill-rule="evenodd" clip-rule="evenodd" d="M70.3139 60.9643C70.139 61.0637 69.9559 61.1479 69.767 61.2163C69.3783 61.3571 69.071 61.6985 69.071 62.112V62.4781C69.071 62.631 69.173 62.7628 69.3124 62.8257L82.1486 69.2783C83.9031 70.0714 83.3044 72.5585 81.3589 72.5585H55.6863C53.7409 72.5585 53.1421 70.0714 54.8966 69.2783L67.733 62.8257C67.8723 62.7628 67.9743 62.631 67.9743 62.4781V60.5566C67.9743 60.4696 68.0491 60.399 68.1413 60.399C68.6236 60.3814 69.3681 60.2267 69.7168 60.0285C70.1091 59.8056 70.4226 59.478 70.6175 59.087C70.8125 58.6961 70.8802 58.2593 70.8121 57.832C70.744 57.4047 70.5432 57.0061 70.235 56.6865C69.9268 56.367 69.5251 56.1408 69.0808 56.0366C68.6364 55.9325 68.1692 55.955 67.7384 56.1014C67.3076 56.2478 66.9324 56.5114 66.6604 56.859C66.4611 57.1136 66.3237 57.4049 66.256 57.7122C66.2149 57.8987 66.0466 58.0468 65.845 58.0378L65.419 58.0188C65.2173 58.0099 65.0596 57.8478 65.0902 57.6595C65.1753 57.1363 65.3939 56.6386 65.7293 56.21C66.1373 55.6887 66.7 55.2932 67.3463 55.0736C67.9925 54.8541 68.6932 54.8203 69.3598 54.9765C70.0264 55.1327 70.6289 55.472 71.0912 55.9514C71.5534 56.4307 71.8547 57.0287 71.9568 57.6696C72.0589 58.3105 71.9573 58.9656 71.6649 59.5521C71.3725 60.1385 70.9023 60.63 70.3139 60.9643ZM68.8385 63.759L81.6748 70.2115C82.3766 70.5288 82.1371 71.5236 81.3589 71.5236H55.6863C54.9081 71.5236 54.6687 70.5288 55.3705 70.2115L68.2068 63.759C68.4065 63.6687 68.6388 63.6687 68.8385 63.759Z" fill="black"/>
<path d="M63.0227 63.9873L68.5227 84.224L73.5 63.9873C81.5185 66.1149 87.3731 73.0301 88.3612 81.267C89.2306 88.5143 90.1482 95.6185 90.4331 98.1661C90.4931 98.7021 90.0949 99.1315 89.5559 99.1493L82.8751 99.3709L83.7334 117.475C83.7604 118.046 83.3054 118.523 82.7345 118.523H70.4783H54.3109C53.74 118.523 53.285 118.046 53.312 117.475L54.1703 99.3709L47.6291 99.154C47.0371 99.1343 46.5918 98.6073 46.6713 98.0203L49.0926 80.1418C50.1309 72.4752 55.5922 66.1418 63.0227 63.9873Z" fill="white"/>
<path d="M63.0227 63.9873L68.5227 84.224L73.5 63.9873C81.5185 66.1149 87.3731 73.0301 88.3612 81.267C89.2306 88.5143 90.1482 95.6185 90.4331 98.1661C90.4931 98.7021 90.0949 99.1315 89.5559 99.1493L82.8751 99.3709L83.7334 117.475C83.7604 118.046 83.3054 118.523 82.7345 118.523H70.4783H54.3109C53.74 118.523 53.285 118.046 53.312 117.475L54.1703 99.3709L47.6291 99.154C47.0371 99.1343 46.5918 98.6073 46.6713 98.0203L49.0926 80.1418C50.1309 72.4752 55.5922 66.1418 63.0227 63.9873Z" fill="#784E0F"/>
<path d="M63.0227 63.9873V63.9873C55.5922 66.1418 50.1309 72.4752 49.0926 80.1418L46.6713 98.0203C46.5918 98.6073 47.0371 99.1343 47.6291 99.154L54.1703 99.3709M63.0227 63.9873L68.5227 84.224M63.0227 63.9873L58.7449 69.0227L61.5739 71.0558L59.4356 73.737L70.4783 87.461M73.5 63.9873V63.9873C81.5185 66.1149 87.3731 73.0301 88.3612 81.267C89.2306 88.5143 90.1482 95.6185 90.4331 98.1661C90.4931 98.7021 90.0949 99.1315 89.5559 99.1493L82.8751 99.3709M73.5 63.9873L68.5227 84.224M73.5 63.9873L77.6894 69.0227L74.3198 71.0558L77.0783 73.737L69.1742 85.3024M70.4783 87.461V118.523M70.4783 87.461L69.1742 85.3024M68.5227 84.224L69.1742 85.3024M80.7449 77.862L82.8751 99.3709M82.8751 99.3709L83.7334 117.475C83.7604 118.046 83.3054 118.523 82.7345 118.523H54.3109C53.74 118.523 53.285 118.046 53.312 117.475L54.1703 99.3709M56.3005 77.862L54.1703 99.3709" stroke="white" stroke-opacity="0.5" stroke-linecap="round" stroke-linejoin="round"/>
<ellipse cx="68.5228" cy="90.2372" rx="1.22222" ry="1.17857" fill="white" fill-opacity="0.5"/>
<ellipse cx="68.5228" cy="98.4872" rx="1.22222" ry="1.17857" fill="white" fill-opacity="0.5"/>
</g>
</g>
<defs>
<filter id="filter0_bdd_5082_12782" x="-4" y="-4" width="150" height="162" filterUnits="userSpaceOnUse" color-interpolation-filters="sRGB">
<feFlood flood-opacity="0" result="BackgroundImageFix"/>
<feGaussianBlur in="BackgroundImageFix" stdDeviation="10"/>
<feComposite in2="SourceAlpha" operator="in" result="effect1_backgroundBlur_5082_12782"/>
<feColorMatrix in="SourceAlpha" type="matrix" values="0 0 0 0 0 0 0 0 0 0 0 0 0 0 0 0 0 0 127 0" result="hardAlpha"/>
<feOffset dx="4" dy="4"/>
<feGaussianBlur stdDeviation="10"/>
<feComposite in2="hardAlpha" operator="out"/>
<feColorMatrix type="matrix" values="0 0 0 0 0 0 0 0 0 0 0 0 0 0 0 0 0 0 0.05 0"/>
<feBlend mode="normal" in2="effect1_backgroundBlur_5082_12782" result="effect2_dropShadow_5082_12782"/>
<feColorMatrix in="SourceAlpha" type="matrix" values="0 0 0 0 0 0 0 0 0 0 0 0 0 0 0 0 0 0 127 0" result="hardAlpha"/>
<feOffset/>
<feGaussianBlur stdDeviation="1"/>
<feComposite in2="hardAlpha" operator="out"/>
<feColorMatrix type="matrix" values="0 0 0 0 0 0 0 0 0 0 0 0 0 0 0 0 0 0 0.05 0"/>
<feBlend mode="normal" in2="effect2_dropShadow_5082_12782" result="effect3_dropShadow_5082_12782"/>
<feBlend mode="normal" in="SourceGraphic" in2="effect3_dropShadow_5082_12782" result="shape"/>
</filter>
<filter id="filter1_bd_5082_12782" x="36.1621" y="44.8799" width="64.7771" height="84.1426" filterUnits="userSpaceOnUse" color-interpolation-filters="sRGB">
<feFlood flood-opacity="0" result="BackgroundImageFix"/>
<feGaussianBlur in="BackgroundImageFix" stdDeviation="5"/>
<feComposite in2="SourceAlpha" operator="in" result="effect1_backgroundBlur_5082_12782"/>
<feColorMatrix in="SourceAlpha" type="matrix" values="0 0 0 0 0 0 0 0 0 0 0 0 0 0 0 0 0 0 127 0" result="hardAlpha"/>
<feOffset dy="1"/>
<feGaussianBlur stdDeviation="1"/>
<feComposite in2="hardAlpha" operator="out"/>
<feColorMatrix type="matrix" values="0 0 0 0 0 0 0 0 0 0 0 0 0 0 0 0 0 0 0.1 0"/>
<feBlend mode="normal" in2="effect1_backgroundBlur_5082_12782" result="effect2_dropShadow_5082_12782"/>
<feBlend mode="normal" in="SourceGraphic" in2="effect2_dropShadow_5082_12782" result="shape"/>
</filter>
<linearGradient id="paint0_linear_5082_12782" x1="28.0455" y1="16" x2="137.125" y2="165.064" gradientUnits="userSpaceOnUse">
<stop stop-color="white"/>
<stop offset="1" stop-color="white" stop-opacity="0"/>
</linearGradient>
</defs>
</svg>
