<svg width="16" height="16" viewBox="0 0 16 16" fill="none" xmlns="http://www.w3.org/2000/svg">
<path fill-rule="evenodd" clip-rule="evenodd" d="M12.6667 8C12.6667 10.5773 10.5773 12.6667 8 12.6667C5.42267 12.6667 3.33333 10.5773 3.33333 8C3.33333 5.42267 5.42267 3.33333 8 3.33333C10.5773 3.33333 12.6667 5.42267 12.6667 8ZM14 8C14 11.3137 11.3137 14 8 14C4.68629 14 2 11.3137 2 8C2 4.68629 4.68629 2 8 2C11.3137 2 14 4.68629 14 8ZM8 4C8.36819 4 8.66667 4.29848 8.66667 4.66667V9.33333C8.66667 9.70152 8.36819 10 8 10C7.63181 10 7.33333 9.70152 7.33333 9.33333V4.66667C7.33333 4.29848 7.63181 4 8 4ZM8 10.6667C8.36819 10.6667 8.66667 10.9651 8.66667 11.3333V11.3334C8.66667 11.7016 8.36819 12.0001 8 12.0001C7.63181 12.0001 7.33333 11.7016 7.33333 11.3334V11.3333C7.33333 10.9651 7.63181 10.6667 8 10.6667Z" fill="#4D4D4D"/>
</svg>
