<svg width="320" height="344" viewBox="0 0 320 344" fill="none" xmlns="http://www.w3.org/2000/svg">
<path d="M65.1521 101.936C71.7637 100.882 75.3949 100.199 79.0632 95.5569C82.7709 102.452 85.2528 106.013 92.7632 110.054C92.7632 110.054 83.517 120.384 78.5579 119.077C73.5989 117.771 65.1521 101.936 65.1521 101.936Z" fill="#FFC329" fill-opacity="0.7"/>
<path d="M65.0765 101.438L64.3807 101.549L64.7151 102.176L65.1521 101.936C64.7151 102.176 64.7152 102.176 64.7153 102.176L64.7156 102.177L64.7168 102.179L64.7216 102.188L64.7403 102.223C64.7567 102.254 64.781 102.299 64.8128 102.357C64.8765 102.475 64.9703 102.647 65.0913 102.866C65.3333 103.304 65.6842 103.93 66.1207 104.686C66.9933 106.196 68.2096 108.226 69.5829 110.298C70.9545 112.368 72.4904 114.492 74.0025 116.186C74.7585 117.033 75.5163 117.781 76.2518 118.363C76.9825 118.941 77.7188 119.377 78.4316 119.564C79.8497 119.938 81.4951 119.469 83.0888 118.669C84.7004 117.861 86.3539 116.666 87.833 115.445C89.3152 114.222 90.6383 112.96 91.5899 112.005C92.0661 111.527 92.4502 111.125 92.7156 110.842C92.8484 110.7 92.9515 110.588 93.0218 110.511C93.0569 110.473 93.0838 110.443 93.1021 110.423L93.1229 110.4L93.1284 110.394L93.1299 110.392L93.1303 110.392C93.1304 110.392 93.1305 110.392 92.7632 110.054L93.1305 110.392L93.5598 109.912L92.9971 109.609C89.2773 107.608 86.8297 105.74 84.8553 103.537C82.8751 101.327 81.3511 98.7585 79.4994 95.315L79.143 94.6521L78.676 95.243C76.8919 97.5004 75.136 98.7759 73.0293 99.624C70.8976 100.482 68.3945 100.91 65.0765 101.438Z" stroke="white" stroke-opacity="0.5"/>
<path d="M15.074 60.2818C21.6856 59.228 25.3168 58.5447 28.9851 53.9031C32.6928 60.7981 35.1747 64.3593 42.6851 68.4003C42.6851 68.4003 33.4389 78.7297 28.4798 77.4233C23.5207 76.1169 15.074 60.2818 15.074 60.2818Z" fill="#298CFF" fill-opacity="0.7"/>
<path d="M14.9984 59.7845L14.3026 59.8954L14.637 60.5223L15.074 60.2818C14.637 60.5223 14.637 60.5224 14.6371 60.5225L14.6375 60.5232L14.6387 60.5255L14.6435 60.5345L14.6622 60.5692C14.6786 60.5997 14.7029 60.6448 14.7347 60.7035C14.7984 60.8209 14.8922 60.9928 15.0132 61.2118C15.2551 61.6497 15.606 62.2762 16.0425 63.0318C16.9152 64.5424 18.1315 66.572 19.5047 68.6442C20.8764 70.7141 22.4122 72.8384 23.9243 74.5322C24.6804 75.3792 25.4382 76.1272 26.1737 76.7089C26.9044 77.2868 27.6407 77.7228 28.3535 77.9105C29.7715 78.2841 31.417 77.8151 33.0106 77.0156C34.6223 76.2071 36.2758 75.0122 37.7549 73.7916C39.2371 72.5686 40.5602 71.3062 41.5118 70.3509C41.988 69.8729 42.372 69.4708 42.6375 69.1878C42.7703 69.0462 42.8734 68.9344 42.9437 68.8576C42.9788 68.8192 43.0057 68.7896 43.0239 68.7694L43.0448 68.7463L43.0503 68.7402L43.0518 68.7386L43.0522 68.7381C43.0523 68.7379 43.0524 68.7378 42.6851 68.4003L43.0524 68.7378L43.4817 68.2582L42.919 67.9555C39.1992 65.954 36.7515 64.0862 34.7771 61.8828C32.797 59.6731 31.273 57.1047 29.4213 53.6611L29.0648 52.9983L28.5979 53.5892C26.8138 55.8466 25.0579 57.1221 22.9512 57.9701C20.8195 58.8283 18.3164 59.2557 14.9984 59.7845Z" stroke="white" stroke-opacity="0.5"/>
<path d="M269.47 25.7398C276.082 24.686 279.713 24.0027 283.382 19.3611C287.089 26.2561 289.571 29.8173 297.082 33.8583C297.082 33.8583 287.835 44.1877 282.876 42.8813C277.917 41.5749 269.47 25.7398 269.47 25.7398Z" fill="#8ADC02" fill-opacity="0.7"/>
<path d="M269.395 25.2425L268.699 25.3534L269.033 25.9803L269.47 25.7398C269.033 25.9803 269.034 25.9804 269.034 25.9805L269.034 25.9812L269.035 25.9835L269.04 25.9925L269.059 26.0272C269.075 26.0577 269.099 26.1028 269.131 26.1615C269.195 26.2789 269.289 26.4508 269.41 26.6698C269.652 27.1077 270.003 27.7342 270.439 28.4898C271.312 30.0004 272.528 32.03 273.901 34.1022C275.273 36.1721 276.809 38.2964 278.321 39.9902C279.077 40.8372 279.835 41.5852 280.57 42.1669C281.301 42.7448 282.037 43.1808 282.75 43.3685C284.168 43.7421 285.813 43.2731 287.407 42.4736C289.019 41.6651 290.672 40.4702 292.151 39.2497C293.634 38.0266 294.957 36.7642 295.908 35.8089C296.384 35.3309 296.769 34.9288 297.034 34.6458C297.167 34.5042 297.27 34.3924 297.34 34.3156C297.375 34.2772 297.402 34.2476 297.42 34.2274L297.441 34.2043L297.447 34.1982L297.448 34.1966L297.449 34.1961C297.449 34.196 297.449 34.1959 297.082 33.8583L297.449 34.1959L297.878 33.7162L297.315 33.4135C293.596 31.4121 291.148 29.5442 289.174 27.3409C287.193 25.1311 285.67 22.5627 283.818 19.1191L283.461 18.4563L282.994 19.0472C281.21 21.3046 279.454 22.5801 277.348 23.4282C275.216 24.2863 272.713 24.7137 269.395 25.2425Z" stroke="white" stroke-opacity="0.5"/>
<path d="M18.0786 261.439C24.6902 260.385 28.3214 259.702 31.9897 255.06C35.6974 261.955 38.1793 265.517 45.6897 269.557C45.6897 269.557 36.4435 279.887 31.4844 278.581C26.5254 277.274 18.0786 261.439 18.0786 261.439Z" fill="#8ADC02" fill-opacity="0.7"/>
<path d="M18.003 260.942L17.3073 261.053L17.6416 261.679L18.0786 261.439C17.6416 261.679 17.6417 261.68 17.6418 261.68L17.6421 261.68L17.6434 261.683L17.6482 261.692L17.6668 261.726C17.6832 261.757 17.7075 261.802 17.7394 261.861C17.803 261.978 17.8968 262.15 18.0178 262.369C18.2598 262.807 18.6107 263.433 19.0472 264.189C19.9198 265.7 21.1362 267.729 22.5094 269.801C23.881 271.871 25.4169 273.996 26.929 275.689C27.685 276.536 28.4428 277.284 29.1784 277.866C29.909 278.444 30.6453 278.88 31.3581 279.068C32.7762 279.441 34.4216 278.972 36.0153 278.173C37.627 277.364 39.2805 276.169 40.7595 274.949C42.2417 273.726 43.5648 272.463 44.5164 271.508C44.9926 271.03 45.3767 270.628 45.6422 270.345C45.7749 270.203 45.8781 270.092 45.9483 270.015C45.9834 269.976 46.0103 269.947 46.0286 269.927L46.0494 269.904L46.0549 269.897L46.0564 269.896L46.0568 269.895C46.0569 269.895 46.057 269.895 45.6897 269.557L46.057 269.895L46.4863 269.415L45.9236 269.113C42.2038 267.111 39.7562 265.243 37.7818 263.04C35.8016 260.83 34.2777 258.262 32.4259 254.818L32.0695 254.156L31.6025 254.746C29.8184 257.004 28.0625 258.279 25.9559 259.127C23.8241 259.986 21.321 260.413 18.003 260.942Z" stroke="white" stroke-opacity="0.5"/>
<path d="M216.388 250.264C222.999 249.21 226.63 248.527 230.299 243.885C234.006 250.78 236.488 254.341 243.999 258.382C243.999 258.382 234.753 268.712 229.794 267.405C224.834 266.099 216.388 250.264 216.388 250.264Z" fill="#8ADC02" fill-opacity="0.7"/>
<path d="M216.312 249.766L215.616 249.877L215.951 250.504L216.388 250.264C215.951 250.504 215.951 250.504 215.951 250.504L215.951 250.505L215.952 250.507L215.957 250.516L215.976 250.551C215.992 250.582 216.017 250.627 216.048 250.685C216.112 250.803 216.206 250.975 216.327 251.194C216.569 251.632 216.92 252.258 217.356 253.014C218.229 254.524 219.445 256.554 220.818 258.626C222.19 260.696 223.726 262.82 225.238 264.514C225.994 265.361 226.752 266.109 227.487 266.691C228.218 267.269 228.954 267.705 229.667 267.892C231.085 268.266 232.731 267.797 234.324 266.998C235.936 266.189 237.59 264.994 239.069 263.774C240.551 262.55 241.874 261.288 242.825 260.333C243.302 259.855 243.686 259.453 243.951 259.17C244.084 259.028 244.187 258.916 244.257 258.84C244.293 258.801 244.319 258.772 244.338 258.751L244.359 258.728L244.364 258.722L244.365 258.72L244.366 258.72C244.366 258.72 244.366 258.72 243.999 258.382L244.366 258.72L244.795 258.24L244.233 257.937C240.513 255.936 238.065 254.068 236.091 251.865C234.111 249.655 232.587 247.087 230.735 243.643L230.379 242.98L229.912 243.571C228.128 245.829 226.372 247.104 224.265 247.952C222.133 248.81 219.63 249.238 216.312 249.766Z" stroke="white" stroke-opacity="0.5"/>
<path d="M77.653 277.566C83.0231 273.515 85.9244 271.197 87.044 265.357C93.4874 269.712 97.3173 271.694 105.819 271.729C105.819 271.729 102.369 285.235 97.3796 286.418C92.3905 287.6 77.653 277.566 77.653 277.566Z" fill="#9747FF" fill-opacity="0.7"/>
<path d="M77.3527 277.164L76.794 277.585L77.3762 277.981L77.653 277.566C77.3762 277.981 77.3763 277.982 77.3764 277.982L77.377 277.982L77.3792 277.984L77.3876 277.989L77.42 278.011C77.4486 278.03 77.4908 278.059 77.5459 278.096C77.656 278.17 77.8179 278.278 78.0254 278.415C78.4405 278.688 79.0384 279.077 79.7713 279.54C81.2365 280.466 83.2439 281.689 85.4099 282.876C87.5733 284.062 89.9073 285.218 92.0231 286.004C93.0811 286.398 94.0954 286.703 95.0139 286.871C95.9264 287.038 96.7791 287.077 97.4969 286.906C98.9236 286.568 100.164 285.377 101.208 283.919C102.263 282.444 103.179 280.607 103.929 278.829C104.68 277.047 105.272 275.306 105.677 274.011C105.879 273.364 106.035 272.827 106.14 272.451C106.193 272.263 106.233 272.115 106.26 272.014C106.273 271.964 106.284 271.925 106.29 271.898L106.298 271.868L106.3 271.86L106.301 271.858L106.301 271.857C106.301 271.857 106.301 271.857 105.819 271.729L106.301 271.857L106.461 271.229L105.817 271.227C101.607 271.21 98.5849 270.711 95.8281 269.692C93.0632 268.67 90.5374 267.116 87.3194 264.941L86.6966 264.52L86.555 265.259C86.0102 268.1 85.0398 270.059 83.5625 271.805C82.0681 273.571 80.0475 275.13 77.3527 277.164Z" stroke="white" stroke-opacity="0.5"/>
<path d="M272.95 160.897C266.446 159.296 262.882 158.312 259.602 153.38C255.349 159.943 252.587 163.285 244.774 166.687C244.774 166.687 253.152 177.752 258.201 176.863C263.249 175.974 272.95 160.897 272.95 160.897Z" fill="#FF1717" fill-opacity="0.7"/>
<path d="M273.066 160.408L273.749 160.576L273.365 161.172L272.95 160.897C273.365 161.172 273.365 161.172 273.365 161.173L273.365 161.173L273.363 161.175L273.358 161.184L273.337 161.217C273.318 161.246 273.29 161.289 273.253 161.345C273.18 161.456 273.073 161.62 272.935 161.828C272.658 162.244 272.258 162.84 271.761 163.556C270.769 164.989 269.393 166.91 267.856 168.861C266.321 170.81 264.619 172.799 262.974 174.361C262.152 175.142 261.336 175.825 260.556 176.343C259.781 176.858 259.012 177.231 258.286 177.359C256.842 177.613 255.241 177.009 253.717 176.079C252.177 175.139 250.626 173.811 249.251 172.471C247.873 171.129 246.656 169.76 245.785 168.729C245.349 168.213 244.999 167.78 244.758 167.476C244.637 167.324 244.543 167.204 244.479 167.121C244.447 167.08 244.423 167.048 244.406 167.027L244.387 167.002L244.383 166.996L244.381 166.994L244.381 166.993C244.381 166.993 244.381 166.993 244.774 166.687L244.381 166.993L243.992 166.479L244.578 166.224C248.447 164.539 251.038 162.882 253.184 160.851C255.336 158.813 257.063 156.381 259.187 153.103L259.597 152.472L260.014 153.099C261.609 155.498 263.256 156.915 265.287 157.936C267.342 158.969 269.802 159.604 273.066 160.408Z" stroke="white" stroke-opacity="0.5"/>
<path d="M286.972 311.257C280.468 309.655 276.904 308.672 273.624 303.74C269.371 310.303 266.609 313.645 258.796 317.046C258.796 317.046 267.174 328.112 272.223 327.223C277.271 326.334 286.972 311.257 286.972 311.257Z" fill="#298CFF" fill-opacity="0.7"/>
<path d="M287.088 310.767L287.771 310.936L287.387 311.532L286.972 311.257C287.387 311.532 287.387 311.532 287.387 311.532L287.387 311.533L287.385 311.535L287.38 311.544L287.358 311.577C287.34 311.606 287.312 311.649 287.275 311.705C287.202 311.816 287.095 311.98 286.957 312.188C286.68 312.604 286.279 313.199 285.783 313.916C284.791 315.349 283.415 317.27 281.878 319.221C280.343 321.17 278.641 323.159 276.996 324.721C276.174 325.502 275.358 326.185 274.578 326.703C273.803 327.218 273.034 327.591 272.308 327.719C270.864 327.973 269.263 327.369 267.739 326.439C266.199 325.499 264.648 324.171 263.273 322.831C261.895 321.488 260.678 320.12 259.807 319.089C259.371 318.573 259.021 318.14 258.78 317.836C258.659 317.684 258.565 317.564 258.501 317.481C258.469 317.44 258.445 317.408 258.428 317.387L258.409 317.362L258.405 317.355L258.403 317.354L258.403 317.353C258.403 317.353 258.403 317.353 258.796 317.046L258.403 317.353L258.014 316.839L258.6 316.584C262.469 314.899 265.06 313.242 267.206 311.21C269.358 309.173 271.085 306.741 273.209 303.463L273.619 302.832L274.036 303.459C275.631 305.858 277.278 307.275 279.309 308.296C281.364 309.329 283.824 309.964 287.088 310.767Z" stroke="white" stroke-opacity="0.5"/>
<path d="M66.6281 204.661C60.1242 206.263 56.5606 207.246 53.2807 212.178C49.0271 205.615 46.2651 202.273 38.4527 198.872C38.4527 198.872 46.8309 187.806 51.879 188.695C56.9272 189.584 66.6281 204.661 66.6281 204.661Z" fill="#FF1717" fill-opacity="0.7"/>
<path d="M66.7447 205.151L67.4277 204.982L67.0439 204.386L66.6281 204.661C67.0439 204.386 67.0438 204.386 67.0437 204.386L67.0433 204.385L67.0419 204.383L67.0364 204.374L67.015 204.341C66.9961 204.312 66.9683 204.269 66.9318 204.213C66.8588 204.102 66.7514 203.938 66.6131 203.73C66.3365 203.314 65.936 202.719 65.4398 202.002C64.4477 200.569 63.071 198.648 61.5346 196.697C59.9999 194.748 58.2971 192.759 56.6528 191.197C55.8306 190.416 55.0147 189.733 54.2345 189.215C53.4594 188.7 52.6901 188.327 51.9644 188.199C50.5208 187.945 48.9191 188.549 47.3959 189.479C45.8553 190.419 44.3043 191.747 42.9291 193.087C41.5511 194.43 40.3347 195.798 39.4638 196.829C39.0279 197.345 38.6777 197.778 38.4361 198.082C38.3153 198.234 38.2215 198.354 38.1577 198.437C38.1258 198.478 38.1014 198.51 38.0849 198.531L38.066 198.556L38.061 198.563L38.0597 198.564L38.0593 198.565C38.0592 198.565 38.0591 198.565 38.4527 198.872L38.0591 198.565L37.67 199.079L38.2565 199.334C42.1258 201.019 44.7163 202.676 46.8624 204.708C49.0147 206.745 50.7414 209.177 52.8658 212.455L53.2752 213.086L53.6922 212.459C55.2875 210.06 56.9344 208.643 58.9655 207.622C61.0207 206.589 63.4808 205.954 66.7447 205.151Z" stroke="white" stroke-opacity="0.5"/>
<path d="M305 79.6214C298.496 78.0202 294.932 77.0365 291.652 72.1049C287.399 78.6675 284.637 82.0098 276.824 85.4111C276.824 85.4111 285.202 96.4763 290.251 95.5877C295.299 94.699 305 79.6214 305 79.6214Z" fill="#9747FF" fill-opacity="0.7"/>
<path d="M305.116 79.1321L305.799 79.3003L305.415 79.8969L305 79.6214C305.415 79.8969 305.415 79.897 305.415 79.8972L305.415 79.8978L305.413 79.9L305.408 79.9085L305.387 79.9416C305.368 79.9707 305.34 80.0136 305.303 80.0694C305.23 80.1811 305.123 80.3446 304.985 80.5527C304.708 80.9691 304.308 81.5642 303.811 82.2809C302.819 83.7136 301.443 85.635 299.906 87.5858C298.371 89.5344 296.669 91.5235 295.024 93.0857C294.202 93.8668 293.386 94.5493 292.606 95.0678C291.831 95.5828 291.062 95.956 290.336 96.0838C288.892 96.3379 287.291 95.7333 285.767 94.8039C284.227 93.8639 282.676 92.5353 281.301 91.1957C279.923 89.8532 278.706 88.4849 277.835 87.4536C277.4 86.9375 277.049 86.5048 276.808 86.2005C276.687 86.0484 276.593 85.9284 276.529 85.846C276.497 85.8048 276.473 85.7731 276.456 85.7514L276.438 85.7267L276.433 85.7201L276.431 85.7184L276.431 85.7179C276.431 85.7177 276.431 85.7176 276.824 85.4111L276.431 85.7176L276.042 85.2037L276.628 84.9484C280.497 83.2638 283.088 81.6064 285.234 79.5752C287.386 77.5381 289.113 75.1056 291.237 71.828L291.647 71.1965L292.064 71.8236C293.659 74.2223 295.306 75.64 297.337 76.6609C299.392 77.6939 301.852 78.3285 305.116 79.1321Z" stroke="white" stroke-opacity="0.5"/>
<path d="M54.6095 308.209C48.1056 306.608 44.5421 305.624 41.2622 300.692C37.0085 307.255 34.2465 310.597 26.4341 313.999C26.4341 313.999 34.8123 325.064 39.8605 324.175C44.9086 323.286 54.6095 308.209 54.6095 308.209Z" fill="#FFC329" fill-opacity="0.7"/>
<path d="M54.7262 307.72L55.4092 307.888L55.0253 308.484L54.6095 308.209C55.0253 308.484 55.0253 308.484 55.0252 308.485L55.0248 308.485L55.0233 308.487L55.0178 308.496L54.9964 308.529C54.9776 308.558 54.9497 308.601 54.9132 308.657C54.8403 308.768 54.7329 308.932 54.5945 309.14C54.3179 309.556 53.9174 310.152 53.4212 310.868C52.4291 312.301 51.0525 314.222 49.516 316.173C47.9813 318.122 46.2785 320.111 44.6342 321.673C43.8121 322.454 42.9962 323.137 42.2159 323.655C41.4408 324.17 40.6715 324.543 39.9458 324.671C38.5023 324.925 36.9006 324.321 35.3773 323.391C33.8367 322.451 32.2857 321.123 30.9105 319.783C29.5325 318.441 28.3162 317.072 27.4452 316.041C27.0094 315.525 26.6592 315.092 26.4175 314.788C26.2967 314.636 26.203 314.516 26.1392 314.433C26.1073 314.392 26.0829 314.36 26.0663 314.339L26.0474 314.314L26.0424 314.308L26.0411 314.306L26.0407 314.305C26.0406 314.305 26.0405 314.305 26.4341 313.999L26.0405 314.305L25.6514 313.791L26.238 313.536C30.1072 311.851 32.6978 310.194 34.8438 308.163C36.9961 306.125 38.7229 303.693 40.8473 300.415L41.2566 299.784L41.6737 300.411C43.269 302.81 44.9159 304.227 46.947 305.248C49.0021 306.281 51.4623 306.916 54.7262 307.72Z" stroke="white" stroke-opacity="0.5"/>
<path d="M292.981 209.662C286.477 208.061 282.913 207.078 279.634 202.146C275.38 208.709 272.618 212.051 264.805 215.452C264.805 215.452 273.184 226.517 278.232 225.629C283.28 224.74 292.981 209.662 292.981 209.662Z" fill="#FFC329" fill-opacity="0.7"/>
<path d="M293.098 209.173L293.781 209.341L293.397 209.938L292.981 209.662C293.397 209.938 293.397 209.938 293.396 209.938L293.396 209.939L293.395 209.941L293.389 209.95L293.368 209.983C293.349 210.012 293.321 210.055 293.285 210.11C293.212 210.222 293.104 210.386 292.966 210.594C292.689 211.01 292.289 211.605 291.793 212.322C290.8 213.755 289.424 215.676 287.887 217.627C286.353 219.575 284.65 221.565 283.006 223.127C282.183 223.908 281.367 224.59 280.587 225.109C279.812 225.624 279.043 225.997 278.317 226.125C276.874 226.379 275.272 225.774 273.749 224.845C272.208 223.905 270.657 222.576 269.282 221.237C267.904 219.894 266.688 218.526 265.817 217.495C265.381 216.978 265.031 216.546 264.789 216.242C264.668 216.089 264.574 215.969 264.511 215.887C264.479 215.846 264.454 215.814 264.438 215.792L264.419 215.768L264.414 215.761L264.412 215.759L264.412 215.759C264.412 215.759 264.412 215.759 264.805 215.452L264.412 215.759L264.023 215.245L264.609 214.989C268.479 213.305 271.069 211.647 273.215 209.616C275.367 207.579 277.094 205.147 279.219 201.869L279.628 201.238L280.045 201.865C281.64 204.263 283.287 205.681 285.318 206.702C287.373 207.735 289.834 208.37 293.098 209.173Z" stroke="white" stroke-opacity="0.5"/>
<path d="M98.6781 18.7433C92.1742 20.3445 88.6107 21.3282 85.3308 26.2598C81.0771 19.6973 78.3151 16.3549 70.5027 12.9536C70.5027 12.9536 78.8809 1.88842 83.9291 2.77707C88.9772 3.66571 98.6781 18.7433 98.6781 18.7433Z" fill="#FF1717" fill-opacity="0.7"/>
<path d="M98.7948 19.2326L99.4778 19.0645L99.0939 18.4678L98.6781 18.7433C99.0939 18.4678 99.0939 18.4677 99.0938 18.4676L99.0934 18.467L99.0919 18.4647L99.0864 18.4562L99.065 18.4231C99.0462 18.3941 99.0183 18.3512 98.9818 18.2954C98.9089 18.1837 98.8015 18.0202 98.6631 17.812C98.3865 17.3957 97.986 16.8006 97.4898 16.0839C96.4977 14.6511 95.1211 12.7297 93.5846 10.7789C92.0499 8.83031 90.3471 6.84121 88.7028 5.27904C87.8807 4.49792 87.0648 3.81548 86.2845 3.29699C85.5094 2.78191 84.7401 2.4087 84.0144 2.28094C82.5709 2.02683 80.9692 2.6314 79.4459 3.56084C77.9053 4.50083 76.3543 5.82942 74.9791 7.16909C73.6011 8.51154 72.3848 9.87985 71.5138 10.9112C71.078 11.4273 70.7278 11.86 70.4861 12.1642C70.3653 12.3163 70.2716 12.4364 70.2078 12.5187C70.1759 12.5599 70.1515 12.5917 70.1349 12.6133L70.116 12.6381L70.111 12.6446L70.1097 12.6464L70.1093 12.6469C70.1092 12.647 70.1091 12.6471 70.5027 12.9536L70.1091 12.6471L69.7201 13.161L70.3066 13.4164C74.1759 15.1009 76.7664 16.7584 78.9124 18.7896C81.0647 20.8267 82.7915 23.2592 84.9159 26.5367L85.3252 27.1682L85.7423 26.5412C87.3376 24.1424 88.9845 22.7247 91.0156 21.7038C93.0707 20.6708 95.5309 20.0362 98.7948 19.2326Z" stroke="white" stroke-opacity="0.5"/>
<path d="M224.875 14.6009C218.371 12.9997 214.807 12.016 211.527 7.08439C207.274 13.647 204.512 16.9893 196.699 20.3906C196.699 20.3906 205.077 31.4558 210.126 30.5672C215.174 29.6785 224.875 14.6009 224.875 14.6009Z" fill="#FFC329" fill-opacity="0.7"/>
<path d="M224.991 14.1116L225.674 14.2798L225.29 14.8764L224.875 14.6009C225.29 14.8764 225.29 14.8765 225.29 14.8767L225.29 14.8773L225.288 14.8795L225.283 14.888L225.262 14.9211C225.243 14.9502 225.215 14.993 225.178 15.0489C225.105 15.1606 224.998 15.3241 224.86 15.5322C224.583 15.9485 224.183 16.5437 223.686 17.2603C222.694 18.6931 221.318 20.6145 219.781 22.5653C218.246 24.5139 216.544 26.503 214.899 28.0652C214.077 28.8463 213.261 29.5288 212.481 30.0473C211.706 30.5623 210.937 30.9355 210.211 31.0633C208.767 31.3174 207.166 30.7128 205.642 29.7834C204.102 28.8434 202.551 27.5148 201.176 26.1751C199.798 24.8327 198.581 23.4644 197.71 22.433C197.275 21.917 196.924 21.4842 196.683 21.18C196.562 21.0279 196.468 20.9078 196.404 20.8255C196.372 20.7843 196.348 20.7526 196.331 20.7309L196.313 20.7062L196.308 20.6996L196.306 20.6979L196.306 20.6973C196.306 20.6972 196.306 20.6971 196.699 20.3906L196.306 20.6971L195.917 20.1832L196.503 19.9279C200.372 18.2433 202.963 16.5859 205.109 14.5547C207.261 12.5176 208.988 10.0851 211.112 6.8075L211.522 6.17599L211.939 6.80306C213.534 9.2018 215.181 10.6195 217.212 11.6404C219.267 12.6734 221.727 13.308 224.991 14.1116Z" stroke="white" stroke-opacity="0.5"/>
</svg>
