<svg width="313" height="357" viewBox="0 0 313 357" fill="none" xmlns="http://www.w3.org/2000/svg">
<g filter="url(#filter0_bd_3955_6551)">
<path d="M54.0723 130.336C60.6736 129.299 64.2991 128.626 67.9617 124.057C71.6636 130.844 74.1417 134.349 81.6404 138.327C81.6404 138.327 72.4086 148.494 67.4572 147.208C62.5059 145.922 54.0723 130.336 54.0723 130.336Z" fill="#FFC329" fill-opacity="0.7"/>
<path d="M53.9947 129.842L53.296 129.952L53.6326 130.574L54.0723 130.336C53.6326 130.574 53.6326 130.574 53.6327 130.574L53.6331 130.575L53.6343 130.577L53.6391 130.586L53.6577 130.62C53.6741 130.65 53.6984 130.694 53.7302 130.752C53.7937 130.868 53.8874 131.037 54.0082 131.253C54.2498 131.684 54.6002 132.3 55.036 133.044C55.9074 134.531 57.1219 136.529 58.4931 138.569C59.8627 140.606 61.3963 142.698 62.9064 144.365C63.6614 145.199 64.4183 145.936 65.1531 146.509C65.883 147.078 66.6189 147.507 67.3316 147.692C68.749 148.06 70.3928 147.598 71.9839 146.811C73.5932 146.015 75.2443 144.839 76.7211 143.638C78.201 142.434 79.5221 141.191 80.4723 140.251C80.9477 139.78 81.3312 139.385 81.5963 139.106C81.7288 138.967 81.8318 138.857 81.902 138.781C81.937 138.743 81.9639 138.714 81.9821 138.694L82.003 138.671L82.0084 138.665L82.0099 138.664L82.0103 138.663C82.0105 138.663 82.0106 138.663 81.6404 138.327L82.0106 138.663L82.4431 138.187L81.8747 137.885C78.1611 135.915 75.7179 134.077 73.7472 131.909C71.7707 129.735 70.2495 127.207 68.4007 123.818L68.0412 123.159L67.5716 123.745C65.7905 125.966 64.0376 127.222 61.9346 128.056C59.8065 128.901 57.3076 129.321 53.9947 129.842Z" stroke="white" stroke-opacity="0.5"/>
</g>
<g filter="url(#filter1_bd_3955_6551)">
<path d="M4.07233 89.3359C10.6736 88.2987 14.2991 87.6261 17.9617 83.0573C21.6636 89.844 24.1417 93.3494 31.6404 97.3269C31.6404 97.3269 22.4086 107.494 17.4572 106.208C12.5059 104.922 4.07233 89.3359 4.07233 89.3359Z" fill="#298CFF" fill-opacity="0.7"/>
<path d="M3.99472 88.8419L3.29597 88.9517L3.63257 89.5738L4.07233 89.3359C3.63257 89.5738 3.63263 89.5739 3.63272 89.5741L3.63306 89.5747L3.63431 89.577L3.6391 89.5858L3.65773 89.62C3.67411 89.6501 3.69838 89.6945 3.73017 89.7522C3.79374 89.8678 3.88739 90.037 4.00821 90.2526C4.24983 90.6837 4.60021 91.3004 5.03604 92.0441C5.90736 93.5311 7.12189 95.529 8.49306 97.5688C9.86266 99.6064 11.3963 101.698 12.9064 103.365C13.6614 104.199 14.4183 104.936 15.1531 105.509C15.883 106.078 16.6189 106.507 17.3316 106.692C18.749 107.06 20.3928 106.598 21.9839 105.811C23.5932 105.015 25.2443 103.839 26.7211 102.638C28.201 101.434 29.5221 100.191 30.4723 99.2509C30.9477 98.7803 31.3312 98.3846 31.5963 98.1059C31.7288 97.9666 31.8318 97.8565 31.902 97.7809C31.937 97.7432 31.9639 97.714 31.9821 97.6941L32.003 97.6714L32.0084 97.6654L32.0099 97.6637L32.0103 97.6633C32.0105 97.6631 32.0106 97.663 31.6404 97.3269L32.0106 97.663L32.4431 97.1867L31.8747 96.8852C28.1611 94.9154 25.7179 93.0773 23.7472 90.9093C21.7707 88.7348 20.2495 86.2074 18.4007 82.8179L18.0412 82.1588L17.5716 82.7446C15.7905 84.9663 14.0376 86.2216 11.9346 87.0562C9.8065 87.9008 7.30761 88.3214 3.99472 88.8419Z" stroke="white" stroke-opacity="0.5"/>
</g>
<g filter="url(#filter2_bd_3955_6551)">
<path d="M258.072 55.3359C264.674 54.2987 268.299 53.6261 271.962 49.0573C275.664 55.844 278.142 59.3494 285.64 63.3269C285.64 63.3269 276.409 73.4943 271.457 72.2084C266.506 70.9225 258.072 55.3359 258.072 55.3359Z" fill="#8ADC02" fill-opacity="0.7"/>
<path d="M257.995 54.8419L257.296 54.9517L257.633 55.5738L258.072 55.3359C257.633 55.5738 257.633 55.5739 257.633 55.5741L257.633 55.5747L257.634 55.577L257.639 55.5858L257.658 55.62C257.674 55.6501 257.698 55.6945 257.73 55.7522C257.794 55.8678 257.887 56.037 258.008 56.2526C258.25 56.6837 258.6 57.3004 259.036 58.0441C259.907 59.5311 261.122 61.529 262.493 63.5688C263.863 65.6064 265.396 67.6976 266.906 69.3652C267.661 70.199 268.418 70.9356 269.153 71.5085C269.883 72.0776 270.619 72.5072 271.332 72.6923C272.749 73.0604 274.393 72.5982 275.984 71.8113C277.593 71.0154 279.244 69.8392 280.721 68.6377C282.201 67.4338 283.522 66.1912 284.472 65.2509C284.948 64.7803 285.331 64.3846 285.596 64.1059C285.729 63.9666 285.832 63.8565 285.902 63.7809C285.937 63.7432 285.964 63.714 285.982 63.6941L286.003 63.6714L286.008 63.6654L286.01 63.6637L286.01 63.6633C286.01 63.6631 286.011 63.663 285.64 63.3269L286.011 63.663L286.443 63.1867L285.875 62.8852C282.161 60.9154 279.718 59.0773 277.747 56.9093C275.771 54.7348 274.249 52.2074 272.401 48.8179L272.041 48.1588L271.572 48.7446C269.79 50.9663 268.038 52.2216 265.935 53.0562C263.807 53.9008 261.308 54.3214 257.995 54.8419Z" stroke="white" stroke-opacity="0.5"/>
</g>
<g filter="url(#filter3_bd_3955_6551)">
<path d="M7.07233 287.336C13.6736 286.299 17.2991 285.626 20.9617 281.057C24.6636 287.844 27.1417 291.349 34.6404 295.327C34.6404 295.327 25.4086 305.494 20.4572 304.208C15.5059 302.922 7.07233 287.336 7.07233 287.336Z" fill="#8ADC02" fill-opacity="0.7"/>
<path d="M6.99472 286.842L6.29597 286.952L6.63257 287.574L7.07233 287.336C6.63257 287.574 6.63263 287.574 6.63272 287.574L6.63306 287.575L6.63431 287.577L6.6391 287.586L6.65773 287.62C6.67411 287.65 6.69838 287.694 6.73017 287.752C6.79374 287.868 6.88739 288.037 7.00821 288.253C7.24983 288.684 7.60021 289.3 8.03604 290.044C8.90736 291.531 10.1219 293.529 11.4931 295.569C12.8627 297.606 14.3963 299.698 15.9064 301.365C16.6614 302.199 17.4183 302.936 18.1531 303.509C18.883 304.078 19.6189 304.507 20.3316 304.692C21.749 305.06 23.3928 304.598 24.9839 303.811C26.5932 303.015 28.2443 301.839 29.7211 300.638C31.201 299.434 32.5221 298.191 33.4723 297.251C33.9477 296.78 34.3312 296.385 34.5963 296.106C34.7288 295.967 34.8318 295.857 34.902 295.781C34.937 295.743 34.9639 295.714 34.9821 295.694L35.003 295.671L35.0084 295.665L35.0099 295.664L35.0103 295.663C35.0105 295.663 35.0106 295.663 34.6404 295.327L35.0106 295.663L35.4431 295.187L34.8747 294.885C31.1611 292.915 28.7179 291.077 26.7472 288.909C24.7707 286.735 23.2495 284.207 21.4007 280.818L21.0412 280.159L20.5716 280.745C18.7905 282.966 17.0376 284.222 14.9346 285.056C12.8065 285.901 10.3076 286.321 6.99472 286.842Z" stroke="white" stroke-opacity="0.5"/>
</g>
<g filter="url(#filter4_bd_3955_6551)">
<path d="M66.5537 303.21C71.9154 299.222 74.8123 296.94 75.9301 291.192C82.3635 295.479 86.1874 297.43 94.6756 297.464C94.6756 297.464 91.231 310.758 86.2496 311.922C81.2683 313.086 66.5537 303.21 66.5537 303.21Z" fill="#9747FF" fill-opacity="0.7"/>
<path d="M66.2553 302.808L65.6878 303.231L66.2751 303.625L66.5537 303.21C66.2751 303.625 66.2752 303.625 66.2753 303.625L66.2759 303.625L66.2781 303.627L66.2864 303.632L66.3188 303.654C66.3473 303.673 66.3894 303.701 66.4444 303.737C66.5545 303.81 66.7161 303.916 66.9233 304.051C67.3377 304.32 67.9346 304.703 68.6664 305.159C70.1292 306.07 72.1335 307.274 74.296 308.442C76.456 309.609 78.7863 310.747 80.8986 311.522C81.9548 311.909 82.9674 312.209 83.8843 312.374C84.7951 312.539 85.6464 312.577 86.3634 312.409C87.7894 312.076 89.0297 310.902 90.0724 309.466C91.127 308.013 92.0416 306.204 92.7904 304.453C93.5406 302.699 94.1323 300.985 94.5362 299.71C94.7383 299.073 94.8938 298.544 94.9989 298.174C95.0514 297.989 95.0914 297.844 95.1183 297.744C95.1318 297.694 95.142 297.656 95.1489 297.63L95.1568 297.6L95.1588 297.592L95.1594 297.59L95.1596 297.59C95.1596 297.589 95.1596 297.589 94.6756 297.464L95.1596 297.589L95.321 296.966L94.6776 296.964C90.474 296.947 87.4563 296.456 84.7034 295.453C81.9424 294.447 79.4203 292.917 76.2074 290.776L75.5826 290.36L75.4393 291.097C74.8957 293.892 73.9276 295.818 72.454 297.535C70.9628 299.273 68.9461 300.807 66.2553 302.808Z" stroke="white" stroke-opacity="0.5"/>
</g>
<g filter="url(#filter5_bd_3955_6551)">
<path d="M245.546 188.372C239.052 186.796 235.494 185.827 232.22 180.973C227.973 187.433 225.215 190.723 217.415 194.071C217.415 194.071 225.78 204.962 230.82 204.087C235.86 203.213 245.546 188.372 245.546 188.372Z" fill="#FF1717" fill-opacity="0.7"/>
<path d="M245.664 187.886L246.351 188.053L245.965 188.645L245.546 188.372C245.965 188.645 245.965 188.645 245.965 188.645L245.964 188.646L245.963 188.648L245.957 188.656L245.936 188.689C245.917 188.718 245.889 188.76 245.853 188.815C245.78 188.925 245.673 189.086 245.535 189.291C245.258 189.7 244.859 190.286 244.363 190.992C243.373 192.402 241.998 194.293 240.464 196.214C238.931 198.132 237.231 200.09 235.589 201.628C234.768 202.397 233.953 203.069 233.174 203.579C232.4 204.086 231.631 204.454 230.906 204.58C229.463 204.83 227.862 204.235 226.341 203.32C224.803 202.394 223.254 201.086 221.881 199.768C220.505 198.446 219.29 197.099 218.421 196.084C217.986 195.576 217.636 195.15 217.395 194.851C217.274 194.701 217.18 194.583 217.117 194.502C217.085 194.461 217.06 194.43 217.044 194.408L217.025 194.384L217.02 194.378L217.019 194.376L217.018 194.375C217.018 194.375 217.018 194.375 217.415 194.071L217.018 194.375L216.626 193.865L217.217 193.611C221.08 191.953 223.666 190.322 225.808 188.323C227.957 186.318 229.681 183.925 231.802 180.698L232.214 180.071L232.634 180.694C234.227 183.054 235.87 184.449 237.898 185.454C239.949 186.47 242.405 187.095 245.664 187.886Z" stroke="white" stroke-opacity="0.5"/>
</g>
<g filter="url(#filter6_bd_3955_6551)">
<path d="M275.546 336.372C269.052 334.796 265.494 333.827 262.22 328.973C257.973 335.433 255.215 338.723 247.415 342.071C247.415 342.071 255.78 352.962 260.82 352.087C265.86 351.213 275.546 336.372 275.546 336.372Z" fill="#298CFF" fill-opacity="0.7"/>
<path d="M275.664 335.886L276.351 336.053L275.965 336.645L275.546 336.372C275.965 336.645 275.965 336.645 275.965 336.645L275.964 336.646L275.963 336.648L275.957 336.656L275.936 336.689C275.917 336.718 275.889 336.76 275.853 336.815C275.78 336.925 275.673 337.086 275.535 337.291C275.258 337.7 274.859 338.286 274.363 338.992C273.373 340.402 271.998 342.293 270.464 344.214C268.931 346.132 267.231 348.09 265.589 349.628C264.768 350.397 263.953 351.069 263.174 351.579C262.4 352.086 261.631 352.454 260.906 352.58C259.463 352.83 257.862 352.235 256.341 351.32C254.803 350.394 253.254 349.086 251.881 347.768C250.505 346.446 249.29 345.099 248.421 344.084C247.986 343.576 247.636 343.15 247.395 342.851C247.274 342.701 247.18 342.583 247.117 342.502C247.085 342.461 247.06 342.43 247.044 342.408L247.025 342.384L247.02 342.378L247.019 342.376L247.018 342.375C247.018 342.375 247.018 342.375 247.415 342.071L247.018 342.375L246.626 341.865L247.217 341.611C251.08 339.953 253.666 338.322 255.808 336.323C257.957 334.318 259.681 331.925 261.802 328.698L262.214 328.071L262.634 328.694C264.227 331.054 265.87 332.449 267.898 333.454C269.949 334.47 272.405 335.095 275.664 335.886Z" stroke="white" stroke-opacity="0.5"/>
</g>
<g filter="url(#filter7_bd_3955_6551)">
<path d="M71.5461 231.449C65.0524 233.025 61.4944 233.993 58.2196 238.848C53.9726 232.388 51.2149 229.098 43.4147 225.75C43.4147 225.75 51.7798 214.859 56.8201 215.733C61.8603 216.608 71.5461 231.449 71.5461 231.449Z" fill="#FF1717" fill-opacity="0.7"/>
<path d="M71.6641 231.935L72.3514 231.768L71.9648 231.176L71.5461 231.449C71.9648 231.176 71.9648 231.176 71.9647 231.176L71.9643 231.175L71.9628 231.173L71.9573 231.164L71.936 231.132C71.9172 231.103 71.8893 231.061 71.8529 231.006C71.7801 230.896 71.6728 230.735 71.5347 230.53C71.2585 230.12 70.8586 229.535 70.3631 228.829C69.3726 227.419 67.998 225.527 66.4638 223.607C64.9315 221.689 63.2312 219.731 61.5892 218.193C60.7682 217.424 59.9533 216.752 59.1739 216.242C58.3998 215.734 57.6311 215.367 56.9056 215.241C55.4627 214.99 53.8625 215.586 52.3414 216.501C50.8029 217.427 49.2541 218.734 47.8809 220.053C46.505 221.375 45.2904 222.722 44.4208 223.737C43.9856 224.245 43.6359 224.671 43.3946 224.97C43.2739 225.12 43.1803 225.238 43.1167 225.319C43.0848 225.36 43.0604 225.391 43.0439 225.412L43.025 225.437L43.0201 225.443L43.0187 225.445L43.0183 225.445C43.0182 225.446 43.0181 225.446 43.4147 225.75L43.0181 225.446L42.6262 225.956L43.2175 226.21C47.0804 227.868 49.6663 229.499 51.8085 231.498C53.9569 233.502 55.6807 235.896 57.8018 239.122L58.2142 239.75L58.6341 239.127C60.2266 236.767 61.8705 235.372 63.8978 234.367C65.9493 233.351 68.4051 232.726 71.6641 231.935Z" stroke="white" stroke-opacity="0.5"/>
</g>
<g filter="url(#filter8_bd_3955_6551)">
<path d="M293.546 108.372C287.052 106.796 283.494 105.827 280.22 100.973C275.973 107.433 273.215 110.723 265.415 114.071C265.415 114.071 273.78 124.962 278.82 124.087C283.86 123.213 293.546 108.372 293.546 108.372Z" fill="#9747FF" fill-opacity="0.7"/>
<path d="M293.664 107.886L294.351 108.053L293.965 108.645L293.546 108.372C293.965 108.645 293.965 108.645 293.965 108.645L293.964 108.646L293.963 108.648L293.957 108.656L293.936 108.689C293.917 108.718 293.889 108.76 293.853 108.815C293.78 108.925 293.673 109.086 293.535 109.291C293.258 109.7 292.859 110.286 292.363 110.992C291.373 112.402 289.998 114.293 288.464 116.214C286.931 118.132 285.231 120.09 283.589 121.628C282.768 122.397 281.953 123.069 281.174 123.579C280.4 124.086 279.631 124.454 278.906 124.58C277.463 124.83 275.862 124.235 274.341 123.32C272.803 122.394 271.254 121.086 269.881 119.768C268.505 118.446 267.29 117.099 266.421 116.084C265.986 115.576 265.636 115.15 265.395 114.851C265.274 114.701 265.18 114.583 265.117 114.502C265.085 114.461 265.06 114.43 265.044 114.408L265.025 114.384L265.02 114.378L265.019 114.376L265.018 114.375C265.018 114.375 265.018 114.375 265.415 114.071L265.018 114.375L264.626 113.865L265.217 113.611C269.08 111.953 271.666 110.322 273.808 108.323C275.957 106.318 277.681 103.925 279.802 100.698L280.214 100.071L280.634 100.694C282.227 103.054 283.87 104.449 285.898 105.454C287.949 106.47 290.405 107.095 293.664 107.886Z" stroke="white" stroke-opacity="0.5"/>
</g>
<g filter="url(#filter9_bd_3955_6551)">
<path d="M43.5461 333.372C37.0524 331.796 33.4944 330.827 30.2196 325.973C25.9726 332.433 23.2149 335.723 15.4147 339.071C15.4147 339.071 23.7798 349.962 28.8201 349.087C33.8603 348.213 43.5461 333.372 43.5461 333.372Z" fill="#FFC329" fill-opacity="0.7"/>
<path d="M43.6641 332.886L44.3514 333.053L43.9648 333.645L43.5461 333.372C43.9648 333.645 43.9648 333.645 43.9647 333.645L43.9643 333.646L43.9628 333.648L43.9573 333.656L43.936 333.689C43.9172 333.718 43.8893 333.76 43.8529 333.815C43.7801 333.925 43.6728 334.086 43.5347 334.291C43.2585 334.7 42.8586 335.286 42.3631 335.992C41.3726 337.402 39.998 339.293 38.4638 341.214C36.9315 343.132 35.2312 345.09 33.5892 346.628C32.7682 347.397 31.9533 348.069 31.1739 348.579C30.3998 349.086 29.6311 349.454 28.9056 349.58C27.4627 349.83 25.8625 349.235 24.3414 348.32C22.8029 347.394 21.2541 346.086 19.8809 344.768C18.505 343.446 17.2904 342.099 16.4208 341.084C15.9856 340.576 15.6359 340.15 15.3946 339.851C15.2739 339.701 15.1803 339.583 15.1167 339.502C15.0848 339.461 15.0604 339.43 15.0439 339.408L15.025 339.384L15.0201 339.378L15.0187 339.376L15.0183 339.375C15.0182 339.375 15.0181 339.375 15.4147 339.071L15.0181 339.375L14.6262 338.865L15.2175 338.611C19.0804 336.953 21.6663 335.322 23.8085 333.323C25.9569 331.318 27.6807 328.925 29.8018 325.698L30.2142 325.071L30.6341 325.694C32.2266 328.054 33.8705 329.449 35.8978 330.454C37.9493 331.47 40.4051 332.095 43.6641 332.886Z" stroke="white" stroke-opacity="0.5"/>
</g>
<g filter="url(#filter10_bd_3955_6551)">
<path d="M281.546 236.372C275.052 234.796 271.494 233.827 268.22 228.973C263.973 235.433 261.215 238.723 253.415 242.071C253.415 242.071 261.78 252.962 266.82 252.087C271.86 251.213 281.546 236.372 281.546 236.372Z" fill="#FFC329" fill-opacity="0.7"/>
<path d="M281.664 235.886L282.351 236.053L281.965 236.645L281.546 236.372C281.965 236.645 281.965 236.645 281.965 236.645L281.964 236.646L281.963 236.648L281.957 236.656L281.936 236.689C281.917 236.718 281.889 236.76 281.853 236.815C281.78 236.925 281.673 237.086 281.535 237.291C281.258 237.7 280.859 238.286 280.363 238.992C279.373 240.402 277.998 242.293 276.464 244.214C274.931 246.132 273.231 248.09 271.589 249.628C270.768 250.397 269.953 251.069 269.174 251.579C268.4 252.086 267.631 252.454 266.906 252.58C265.463 252.83 263.862 252.235 262.341 251.32C260.803 250.394 259.254 249.086 257.881 247.768C256.505 246.446 255.29 245.099 254.421 244.084C253.986 243.576 253.636 243.15 253.395 242.851C253.274 242.701 253.18 242.583 253.117 242.502C253.085 242.461 253.06 242.43 253.044 242.408L253.025 242.384L253.02 242.378L253.019 242.376L253.018 242.375C253.018 242.375 253.018 242.375 253.415 242.071L253.018 242.375L252.626 241.865L253.217 241.611C257.08 239.953 259.666 238.322 261.808 236.323C263.957 234.318 265.681 231.925 267.802 228.698L268.214 228.071L268.634 228.694C270.227 231.054 271.87 232.449 273.898 233.454C275.949 234.47 278.405 235.095 281.664 235.886Z" stroke="white" stroke-opacity="0.5"/>
</g>
<g filter="url(#filter11_bd_3955_6551)">
<path d="M87.5461 48.4491C81.0524 50.0252 77.4944 50.9934 74.2196 55.8477C69.9726 49.3881 67.2149 46.0982 59.4147 42.7503C59.4147 42.7503 67.7798 31.8587 72.8201 32.7334C77.8603 33.6081 87.5461 48.4491 87.5461 48.4491Z" fill="#FF1717" fill-opacity="0.7"/>
<path d="M87.6641 48.935L88.3514 48.7681L87.9648 48.1758L87.5461 48.4491C87.9648 48.1758 87.9648 48.1757 87.9647 48.1756L87.9643 48.175L87.9628 48.1728L87.9573 48.1644L87.936 48.1318C87.9172 48.1032 87.8893 48.061 87.8529 48.006C87.7801 47.8961 87.6728 47.7351 87.5347 47.5302C87.2585 47.1204 86.8586 46.5346 86.3631 45.8291C85.3726 44.4188 83.998 42.5275 82.4638 40.6072C80.9315 38.6891 79.2312 36.731 77.5892 35.1931C76.7682 34.4241 75.9533 33.7522 75.1739 33.2416C74.3998 32.7344 73.6311 32.3667 72.9056 32.2408C71.4627 31.9904 69.8625 32.5862 68.3414 33.5011C66.8029 34.4265 65.2541 35.7345 63.8809 37.0532C62.505 38.3747 61.2904 39.7216 60.4208 40.7368C59.9856 41.2449 59.6359 41.6708 59.3946 41.9703C59.2739 42.12 59.1803 42.2382 59.1167 42.3193C59.0848 42.3598 59.0604 42.3911 59.0439 42.4124L59.025 42.4368L59.0201 42.4432L59.0187 42.445L59.0183 42.4455C59.0182 42.4456 59.0181 42.4457 59.4147 42.7503L59.0181 42.4457L58.6262 42.956L59.2175 43.2097C63.0804 44.8677 65.6663 46.4989 67.8085 48.4977C69.9569 50.5024 71.6807 52.8963 73.8018 56.1223L74.2142 56.7496L74.6341 56.1273C76.2266 53.7667 77.8705 52.3717 79.8978 51.3671C81.9493 50.3505 84.4051 49.726 87.6641 48.935Z" stroke="white" stroke-opacity="0.5"/>
</g>
<g filter="url(#filter12_bd_3955_6551)">
<path d="M323.546 18.4491C317.052 20.0252 313.494 20.9934 310.22 25.8477C305.973 19.3881 303.215 16.0982 295.415 12.7503C295.415 12.7503 303.78 1.85874 308.82 2.73344C313.86 3.60813 323.546 18.4491 323.546 18.4491Z" fill="#FF1717" fill-opacity="0.7"/>
<path d="M323.664 18.935L324.351 18.7681L323.965 18.1758L323.546 18.4491C323.965 18.1758 323.965 18.1757 323.965 18.1756L323.964 18.175L323.963 18.1728L323.957 18.1644L323.936 18.1318C323.917 18.1032 323.889 18.061 323.853 18.006C323.78 17.8961 323.673 17.7351 323.535 17.5302C323.258 17.1204 322.859 16.5346 322.363 15.8291C321.373 14.4188 319.998 12.5275 318.464 10.6072C316.931 8.68907 315.231 6.73098 313.589 5.19309C312.768 4.42412 311.953 3.75218 311.174 3.24161C310.4 2.73444 309.631 2.3667 308.906 2.2408C307.463 1.9904 305.862 2.58615 304.341 3.50109C302.803 4.42654 301.254 5.73448 299.881 7.05322C298.505 8.3747 297.29 9.72164 296.421 10.7368C295.986 11.2449 295.636 11.6708 295.395 11.9703C295.274 12.12 295.18 12.2382 295.117 12.3193C295.085 12.3598 295.06 12.3911 295.044 12.4124L295.025 12.4368L295.02 12.4432L295.019 12.445L295.018 12.4455C295.018 12.4456 295.018 12.4457 295.415 12.7503L295.018 12.4457L294.626 12.956L295.217 13.2097C299.08 14.8677 301.666 16.4989 303.808 18.4977C305.957 20.5024 307.681 22.8963 309.802 26.1223L310.214 26.7496L310.634 26.1273C312.227 23.7667 313.87 22.3717 315.898 21.3671C317.949 20.3505 320.405 19.726 323.664 18.935Z" stroke="white" stroke-opacity="0.5"/>
</g>
<g filter="url(#filter13_bd_3955_6551)">
<path d="M213.546 44.3717C207.052 42.7956 203.494 41.8274 200.22 36.9731C195.973 43.4327 193.215 46.7226 185.415 50.0705C185.415 50.0705 193.78 60.9621 198.82 60.0874C203.86 59.2127 213.546 44.3717 213.546 44.3717Z" fill="#FFC329" fill-opacity="0.7"/>
<path d="M213.664 43.8858L214.351 44.0527L213.965 44.645L213.546 44.3717C213.965 44.645 213.965 44.6451 213.965 44.6452L213.964 44.6458L213.963 44.648L213.957 44.6564L213.936 44.689C213.917 44.7176 213.889 44.7598 213.853 44.8148C213.78 44.9247 213.673 45.0857 213.535 45.2906C213.258 45.7004 212.859 46.2862 212.363 46.9917C211.373 48.402 209.998 50.2933 208.464 52.2136C206.931 54.1317 205.231 56.0898 203.589 57.6277C202.768 58.3967 201.953 59.0686 201.174 59.5792C200.4 60.0864 199.631 60.4541 198.906 60.58C197.463 60.8304 195.862 60.2346 194.341 59.3197C192.803 58.3943 191.254 57.0863 189.881 55.7676C188.505 54.4461 187.29 53.0992 186.421 52.084C185.986 51.5759 185.636 51.15 185.395 50.8505C185.274 50.7008 185.18 50.5826 185.117 50.5015C185.085 50.461 185.06 50.4297 185.044 50.4084L185.025 50.384L185.02 50.3776L185.019 50.3758L185.018 50.3753C185.018 50.3752 185.018 50.3751 185.415 50.0705L185.018 50.3751L184.626 49.8648L185.217 49.6111C189.08 47.9531 191.666 46.3219 193.808 44.3231C195.957 42.3184 197.681 39.9245 199.802 36.6985L200.214 36.0712L200.634 36.6935C202.227 39.0541 203.87 40.4491 205.898 41.4537C207.949 42.4703 210.405 43.0948 213.664 43.8858Z" stroke="white" stroke-opacity="0.5"/>
</g>
<defs>
<filter id="filter0_bd_3955_6551" x="42.5195" y="112.26" width="50.7263" height="46.0605" filterUnits="userSpaceOnUse" color-interpolation-filters="sRGB">
<feFlood flood-opacity="0" result="BackgroundImageFix"/>
<feGaussianBlur in="BackgroundImageFix" stdDeviation="5"/>
<feComposite in2="SourceAlpha" operator="in" result="effect1_backgroundBlur_3955_6551"/>
<feColorMatrix in="SourceAlpha" type="matrix" values="0 0 0 0 0 0 0 0 0 0 0 0 0 0 0 0 0 0 127 0" result="hardAlpha"/>
<feOffset dy="1"/>
<feGaussianBlur stdDeviation="1"/>
<feColorMatrix type="matrix" values="0 0 0 0 0 0 0 0 0 0 0 0 0 0 0 0 0 0 0.1 0"/>
<feBlend mode="normal" in2="effect1_backgroundBlur_3955_6551" result="effect2_dropShadow_3955_6551"/>
<feBlend mode="normal" in="SourceGraphic" in2="effect2_dropShadow_3955_6551" result="shape"/>
</filter>
<filter id="filter1_bd_3955_6551" x="-7.48047" y="71.2603" width="50.7263" height="46.0605" filterUnits="userSpaceOnUse" color-interpolation-filters="sRGB">
<feFlood flood-opacity="0" result="BackgroundImageFix"/>
<feGaussianBlur in="BackgroundImageFix" stdDeviation="5"/>
<feComposite in2="SourceAlpha" operator="in" result="effect1_backgroundBlur_3955_6551"/>
<feColorMatrix in="SourceAlpha" type="matrix" values="0 0 0 0 0 0 0 0 0 0 0 0 0 0 0 0 0 0 127 0" result="hardAlpha"/>
<feOffset dy="1"/>
<feGaussianBlur stdDeviation="1"/>
<feColorMatrix type="matrix" values="0 0 0 0 0 0 0 0 0 0 0 0 0 0 0 0 0 0 0.1 0"/>
<feBlend mode="normal" in2="effect1_backgroundBlur_3955_6551" result="effect2_dropShadow_3955_6551"/>
<feBlend mode="normal" in="SourceGraphic" in2="effect2_dropShadow_3955_6551" result="shape"/>
</filter>
<filter id="filter2_bd_3955_6551" x="246.52" y="37.2603" width="50.7263" height="46.0605" filterUnits="userSpaceOnUse" color-interpolation-filters="sRGB">
<feFlood flood-opacity="0" result="BackgroundImageFix"/>
<feGaussianBlur in="BackgroundImageFix" stdDeviation="5"/>
<feComposite in2="SourceAlpha" operator="in" result="effect1_backgroundBlur_3955_6551"/>
<feColorMatrix in="SourceAlpha" type="matrix" values="0 0 0 0 0 0 0 0 0 0 0 0 0 0 0 0 0 0 127 0" result="hardAlpha"/>
<feOffset dy="1"/>
<feGaussianBlur stdDeviation="1"/>
<feColorMatrix type="matrix" values="0 0 0 0 0 0 0 0 0 0 0 0 0 0 0 0 0 0 0.1 0"/>
<feBlend mode="normal" in2="effect1_backgroundBlur_3955_6551" result="effect2_dropShadow_3955_6551"/>
<feBlend mode="normal" in="SourceGraphic" in2="effect2_dropShadow_3955_6551" result="shape"/>
</filter>
<filter id="filter3_bd_3955_6551" x="-4.48047" y="269.26" width="50.7263" height="46.0605" filterUnits="userSpaceOnUse" color-interpolation-filters="sRGB">
<feFlood flood-opacity="0" result="BackgroundImageFix"/>
<feGaussianBlur in="BackgroundImageFix" stdDeviation="5"/>
<feComposite in2="SourceAlpha" operator="in" result="effect1_backgroundBlur_3955_6551"/>
<feColorMatrix in="SourceAlpha" type="matrix" values="0 0 0 0 0 0 0 0 0 0 0 0 0 0 0 0 0 0 127 0" result="hardAlpha"/>
<feOffset dy="1"/>
<feGaussianBlur stdDeviation="1"/>
<feColorMatrix type="matrix" values="0 0 0 0 0 0 0 0 0 0 0 0 0 0 0 0 0 0 0.1 0"/>
<feBlend mode="normal" in2="effect1_backgroundBlur_3955_6551" result="effect2_dropShadow_3955_6551"/>
<feBlend mode="normal" in="SourceGraphic" in2="effect2_dropShadow_3955_6551" result="shape"/>
</filter>
<filter id="filter4_bd_3955_6551" x="54.8218" y="279.527" width="51.1445" height="43.4902" filterUnits="userSpaceOnUse" color-interpolation-filters="sRGB">
<feFlood flood-opacity="0" result="BackgroundImageFix"/>
<feGaussianBlur in="BackgroundImageFix" stdDeviation="5"/>
<feComposite in2="SourceAlpha" operator="in" result="effect1_backgroundBlur_3955_6551"/>
<feColorMatrix in="SourceAlpha" type="matrix" values="0 0 0 0 0 0 0 0 0 0 0 0 0 0 0 0 0 0 127 0" result="hardAlpha"/>
<feOffset dy="1"/>
<feGaussianBlur stdDeviation="1"/>
<feColorMatrix type="matrix" values="0 0 0 0 0 0 0 0 0 0 0 0 0 0 0 0 0 0 0.1 0"/>
<feBlend mode="normal" in2="effect1_backgroundBlur_3955_6551" result="effect2_dropShadow_3955_6551"/>
<feBlend mode="normal" in="SourceGraphic" in2="effect2_dropShadow_3955_6551" result="shape"/>
</filter>
<filter id="filter5_bd_3955_6551" x="205.838" y="169.169" width="51.3188" height="45.9688" filterUnits="userSpaceOnUse" color-interpolation-filters="sRGB">
<feFlood flood-opacity="0" result="BackgroundImageFix"/>
<feGaussianBlur in="BackgroundImageFix" stdDeviation="5"/>
<feComposite in2="SourceAlpha" operator="in" result="effect1_backgroundBlur_3955_6551"/>
<feColorMatrix in="SourceAlpha" type="matrix" values="0 0 0 0 0 0 0 0 0 0 0 0 0 0 0 0 0 0 127 0" result="hardAlpha"/>
<feOffset dy="1"/>
<feGaussianBlur stdDeviation="1"/>
<feColorMatrix type="matrix" values="0 0 0 0 0 0 0 0 0 0 0 0 0 0 0 0 0 0 0.1 0"/>
<feBlend mode="normal" in2="effect1_backgroundBlur_3955_6551" result="effect2_dropShadow_3955_6551"/>
<feBlend mode="normal" in="SourceGraphic" in2="effect2_dropShadow_3955_6551" result="shape"/>
</filter>
<filter id="filter6_bd_3955_6551" x="235.838" y="317.169" width="51.3188" height="45.9688" filterUnits="userSpaceOnUse" color-interpolation-filters="sRGB">
<feFlood flood-opacity="0" result="BackgroundImageFix"/>
<feGaussianBlur in="BackgroundImageFix" stdDeviation="5"/>
<feComposite in2="SourceAlpha" operator="in" result="effect1_backgroundBlur_3955_6551"/>
<feColorMatrix in="SourceAlpha" type="matrix" values="0 0 0 0 0 0 0 0 0 0 0 0 0 0 0 0 0 0 127 0" result="hardAlpha"/>
<feOffset dy="1"/>
<feGaussianBlur stdDeviation="1"/>
<feColorMatrix type="matrix" values="0 0 0 0 0 0 0 0 0 0 0 0 0 0 0 0 0 0 0.1 0"/>
<feBlend mode="normal" in2="effect1_backgroundBlur_3955_6551" result="effect2_dropShadow_3955_6551"/>
<feBlend mode="normal" in="SourceGraphic" in2="effect2_dropShadow_3955_6551" result="shape"/>
</filter>
<filter id="filter7_bd_3955_6551" x="31.8379" y="204.683" width="51.3188" height="45.9688" filterUnits="userSpaceOnUse" color-interpolation-filters="sRGB">
<feFlood flood-opacity="0" result="BackgroundImageFix"/>
<feGaussianBlur in="BackgroundImageFix" stdDeviation="5"/>
<feComposite in2="SourceAlpha" operator="in" result="effect1_backgroundBlur_3955_6551"/>
<feColorMatrix in="SourceAlpha" type="matrix" values="0 0 0 0 0 0 0 0 0 0 0 0 0 0 0 0 0 0 127 0" result="hardAlpha"/>
<feOffset dy="1"/>
<feGaussianBlur stdDeviation="1"/>
<feColorMatrix type="matrix" values="0 0 0 0 0 0 0 0 0 0 0 0 0 0 0 0 0 0 0.1 0"/>
<feBlend mode="normal" in2="effect1_backgroundBlur_3955_6551" result="effect2_dropShadow_3955_6551"/>
<feBlend mode="normal" in="SourceGraphic" in2="effect2_dropShadow_3955_6551" result="shape"/>
</filter>
<filter id="filter8_bd_3955_6551" x="253.838" y="89.1689" width="51.3188" height="45.9688" filterUnits="userSpaceOnUse" color-interpolation-filters="sRGB">
<feFlood flood-opacity="0" result="BackgroundImageFix"/>
<feGaussianBlur in="BackgroundImageFix" stdDeviation="5"/>
<feComposite in2="SourceAlpha" operator="in" result="effect1_backgroundBlur_3955_6551"/>
<feColorMatrix in="SourceAlpha" type="matrix" values="0 0 0 0 0 0 0 0 0 0 0 0 0 0 0 0 0 0 127 0" result="hardAlpha"/>
<feOffset dy="1"/>
<feGaussianBlur stdDeviation="1"/>
<feColorMatrix type="matrix" values="0 0 0 0 0 0 0 0 0 0 0 0 0 0 0 0 0 0 0.1 0"/>
<feBlend mode="normal" in2="effect1_backgroundBlur_3955_6551" result="effect2_dropShadow_3955_6551"/>
<feBlend mode="normal" in="SourceGraphic" in2="effect2_dropShadow_3955_6551" result="shape"/>
</filter>
<filter id="filter9_bd_3955_6551" x="3.83789" y="314.169" width="51.3188" height="45.9688" filterUnits="userSpaceOnUse" color-interpolation-filters="sRGB">
<feFlood flood-opacity="0" result="BackgroundImageFix"/>
<feGaussianBlur in="BackgroundImageFix" stdDeviation="5"/>
<feComposite in2="SourceAlpha" operator="in" result="effect1_backgroundBlur_3955_6551"/>
<feColorMatrix in="SourceAlpha" type="matrix" values="0 0 0 0 0 0 0 0 0 0 0 0 0 0 0 0 0 0 127 0" result="hardAlpha"/>
<feOffset dy="1"/>
<feGaussianBlur stdDeviation="1"/>
<feColorMatrix type="matrix" values="0 0 0 0 0 0 0 0 0 0 0 0 0 0 0 0 0 0 0.1 0"/>
<feBlend mode="normal" in2="effect1_backgroundBlur_3955_6551" result="effect2_dropShadow_3955_6551"/>
<feBlend mode="normal" in="SourceGraphic" in2="effect2_dropShadow_3955_6551" result="shape"/>
</filter>
<filter id="filter10_bd_3955_6551" x="241.838" y="217.169" width="51.3188" height="45.9688" filterUnits="userSpaceOnUse" color-interpolation-filters="sRGB">
<feFlood flood-opacity="0" result="BackgroundImageFix"/>
<feGaussianBlur in="BackgroundImageFix" stdDeviation="5"/>
<feComposite in2="SourceAlpha" operator="in" result="effect1_backgroundBlur_3955_6551"/>
<feColorMatrix in="SourceAlpha" type="matrix" values="0 0 0 0 0 0 0 0 0 0 0 0 0 0 0 0 0 0 127 0" result="hardAlpha"/>
<feOffset dy="1"/>
<feGaussianBlur stdDeviation="1"/>
<feColorMatrix type="matrix" values="0 0 0 0 0 0 0 0 0 0 0 0 0 0 0 0 0 0 0.1 0"/>
<feBlend mode="normal" in2="effect1_backgroundBlur_3955_6551" result="effect2_dropShadow_3955_6551"/>
<feBlend mode="normal" in="SourceGraphic" in2="effect2_dropShadow_3955_6551" result="shape"/>
</filter>
<filter id="filter11_bd_3955_6551" x="47.8379" y="21.6831" width="51.3188" height="45.9688" filterUnits="userSpaceOnUse" color-interpolation-filters="sRGB">
<feFlood flood-opacity="0" result="BackgroundImageFix"/>
<feGaussianBlur in="BackgroundImageFix" stdDeviation="5"/>
<feComposite in2="SourceAlpha" operator="in" result="effect1_backgroundBlur_3955_6551"/>
<feColorMatrix in="SourceAlpha" type="matrix" values="0 0 0 0 0 0 0 0 0 0 0 0 0 0 0 0 0 0 127 0" result="hardAlpha"/>
<feOffset dy="1"/>
<feGaussianBlur stdDeviation="1"/>
<feColorMatrix type="matrix" values="0 0 0 0 0 0 0 0 0 0 0 0 0 0 0 0 0 0 0.1 0"/>
<feBlend mode="normal" in2="effect1_backgroundBlur_3955_6551" result="effect2_dropShadow_3955_6551"/>
<feBlend mode="normal" in="SourceGraphic" in2="effect2_dropShadow_3955_6551" result="shape"/>
</filter>
<filter id="filter12_bd_3955_6551" x="283.838" y="-8.31689" width="51.3188" height="45.9688" filterUnits="userSpaceOnUse" color-interpolation-filters="sRGB">
<feFlood flood-opacity="0" result="BackgroundImageFix"/>
<feGaussianBlur in="BackgroundImageFix" stdDeviation="5"/>
<feComposite in2="SourceAlpha" operator="in" result="effect1_backgroundBlur_3955_6551"/>
<feColorMatrix in="SourceAlpha" type="matrix" values="0 0 0 0 0 0 0 0 0 0 0 0 0 0 0 0 0 0 127 0" result="hardAlpha"/>
<feOffset dy="1"/>
<feGaussianBlur stdDeviation="1"/>
<feColorMatrix type="matrix" values="0 0 0 0 0 0 0 0 0 0 0 0 0 0 0 0 0 0 0.1 0"/>
<feBlend mode="normal" in2="effect1_backgroundBlur_3955_6551" result="effect2_dropShadow_3955_6551"/>
<feBlend mode="normal" in="SourceGraphic" in2="effect2_dropShadow_3955_6551" result="shape"/>
</filter>
<filter id="filter13_bd_3955_6551" x="173.838" y="25.1689" width="51.3188" height="45.9688" filterUnits="userSpaceOnUse" color-interpolation-filters="sRGB">
<feFlood flood-opacity="0" result="BackgroundImageFix"/>
<feGaussianBlur in="BackgroundImageFix" stdDeviation="5"/>
<feComposite in2="SourceAlpha" operator="in" result="effect1_backgroundBlur_3955_6551"/>
<feColorMatrix in="SourceAlpha" type="matrix" values="0 0 0 0 0 0 0 0 0 0 0 0 0 0 0 0 0 0 127 0" result="hardAlpha"/>
<feOffset dy="1"/>
<feGaussianBlur stdDeviation="1"/>
<feColorMatrix type="matrix" values="0 0 0 0 0 0 0 0 0 0 0 0 0 0 0 0 0 0 0.1 0"/>
<feBlend mode="normal" in2="effect1_backgroundBlur_3955_6551" result="effect2_dropShadow_3955_6551"/>
<feBlend mode="normal" in="SourceGraphic" in2="effect2_dropShadow_3955_6551" result="shape"/>
</filter>
</defs>
</svg>
