<svg width="298" height="332" viewBox="0 0 298 332" fill="none" xmlns="http://www.w3.org/2000/svg">
<g filter="url(#filter0_bd_7763_22726)">
<mask id="path-1-outside-1_7763_22726" maskUnits="userSpaceOnUse" x="51.067" y="88.686" width="33.6099" height="35.2213" fill="black">
<rect fill="white" x="51.067" y="88.686" width="33.6099" height="35.2213"/>
<path d="M54.1521 101.936C60.7637 100.882 64.3949 100.199 68.0632 95.5569C71.7709 102.452 74.2528 106.013 81.7632 110.054C81.7632 110.054 72.517 120.384 67.5579 119.077C62.5989 117.771 54.1521 101.936 54.1521 101.936Z"/>
</mask>
<path d="M54.1521 101.936C60.7637 100.882 64.3949 100.199 68.0632 95.5569C71.7709 102.452 74.2528 106.013 81.7632 110.054C81.7632 110.054 72.517 120.384 67.5579 119.077C62.5989 117.771 54.1521 101.936 54.1521 101.936Z" fill="#FFC329" fill-opacity="0.7" style="fill:#FFC329;fill:color(display-p3 1.0000 0.7656 0.1627);fill-opacity:0.7;" shape-rendering="crispEdges"/>
<path d="M54.1521 101.936C60.7637 100.882 64.3949 100.199 68.0632 95.5569C71.7709 102.452 74.2528 106.013 81.7632 110.054C81.7632 110.054 72.517 120.384 67.5579 119.077C62.5989 117.771 54.1521 101.936 54.1521 101.936Z" stroke="white" stroke-opacity="0.5" style="stroke:white;stroke-opacity:0.5;" stroke-width="2" shape-rendering="crispEdges" mask="url(#path-1-outside-1_7763_22726)"/>
</g>
<g filter="url(#filter1_bd_7763_22726)">
<mask id="path-2-outside-2_7763_22726" maskUnits="userSpaceOnUse" x="0.988836" y="47.0322" width="33.6099" height="35.2213" fill="black">
<rect fill="white" x="0.988836" y="47.0322" width="33.6099" height="35.2213"/>
<path d="M4.074 60.2818C10.6856 59.228 14.3168 58.5447 17.9851 53.9031C21.6928 60.7981 24.1747 64.3593 31.6851 68.4003C31.6851 68.4003 22.4389 78.7297 17.4798 77.4233C12.5207 76.1169 4.074 60.2818 4.074 60.2818Z"/>
</mask>
<path d="M4.074 60.2818C10.6856 59.228 14.3168 58.5447 17.9851 53.9031C21.6928 60.7981 24.1747 64.3593 31.6851 68.4003C31.6851 68.4003 22.4389 78.7297 17.4798 77.4233C12.5207 76.1169 4.074 60.2818 4.074 60.2818Z" fill="#298CFF" fill-opacity="0.7" style="fill:#298CFF;fill:color(display-p3 0.1627 0.5479 1.0000);fill-opacity:0.7;" shape-rendering="crispEdges"/>
<path d="M4.074 60.2818C10.6856 59.228 14.3168 58.5447 17.9851 53.9031C21.6928 60.7981 24.1747 64.3593 31.6851 68.4003C31.6851 68.4003 22.4389 78.7297 17.4798 77.4233C12.5207 76.1169 4.074 60.2818 4.074 60.2818Z" stroke="white" stroke-opacity="0.5" style="stroke:white;stroke-opacity:0.5;" stroke-width="2" shape-rendering="crispEdges" mask="url(#path-2-outside-2_7763_22726)"/>
</g>
<g filter="url(#filter2_bd_7763_22726)">
<mask id="path-3-outside-3_7763_22726" maskUnits="userSpaceOnUse" x="255.385" y="12.4902" width="33.6099" height="35.2213" fill="black">
<rect fill="white" x="255.385" y="12.4902" width="33.6099" height="35.2213"/>
<path d="M258.47 25.7398C265.082 24.686 268.713 24.0027 272.382 19.3611C276.089 26.2561 278.571 29.8173 286.082 33.8583C286.082 33.8583 276.835 44.1877 271.876 42.8813C266.917 41.5749 258.47 25.7398 258.47 25.7398Z"/>
</mask>
<path d="M258.47 25.7398C265.082 24.686 268.713 24.0027 272.382 19.3611C276.089 26.2561 278.571 29.8173 286.082 33.8583C286.082 33.8583 276.835 44.1877 271.876 42.8813C266.917 41.5749 258.47 25.7398 258.47 25.7398Z" fill="#8ADC02" fill-opacity="0.7" style="fill:#8ADC02;fill:color(display-p3 0.5396 0.8643 0.0098);fill-opacity:0.7;" shape-rendering="crispEdges"/>
<path d="M258.47 25.7398C265.082 24.686 268.713 24.0027 272.382 19.3611C276.089 26.2561 278.571 29.8173 286.082 33.8583C286.082 33.8583 276.835 44.1877 271.876 42.8813C266.917 41.5749 258.47 25.7398 258.47 25.7398Z" stroke="white" stroke-opacity="0.5" style="stroke:white;stroke-opacity:0.5;" stroke-width="2" shape-rendering="crispEdges" mask="url(#path-3-outside-3_7763_22726)"/>
</g>
<g filter="url(#filter3_bd_7763_22726)">
<mask id="path-4-outside-4_7763_22726" maskUnits="userSpaceOnUse" x="3.99348" y="248.189" width="33.6099" height="35.2213" fill="black">
<rect fill="white" x="3.99348" y="248.189" width="33.6099" height="35.2213"/>
<path d="M7.07864 261.439C13.6902 260.385 17.3214 259.702 20.9897 255.06C24.6974 261.955 27.1793 265.517 34.6897 269.557C34.6897 269.557 25.4435 279.887 20.4844 278.581C15.5254 277.274 7.07864 261.439 7.07864 261.439Z"/>
</mask>
<path d="M7.07864 261.439C13.6902 260.385 17.3214 259.702 20.9897 255.06C24.6974 261.955 27.1793 265.517 34.6897 269.557C34.6897 269.557 25.4435 279.887 20.4844 278.581C15.5254 277.274 7.07864 261.439 7.07864 261.439Z" fill="#8ADC02" fill-opacity="0.7" style="fill:#8ADC02;fill:color(display-p3 0.5396 0.8643 0.0098);fill-opacity:0.7;" shape-rendering="crispEdges"/>
<path d="M7.07864 261.439C13.6902 260.385 17.3214 259.702 20.9897 255.06C24.6974 261.955 27.1793 265.517 34.6897 269.557C34.6897 269.557 25.4435 279.887 20.4844 278.581C15.5254 277.274 7.07864 261.439 7.07864 261.439Z" stroke="white" stroke-opacity="0.5" style="stroke:white;stroke-opacity:0.5;" stroke-width="2" shape-rendering="crispEdges" mask="url(#path-4-outside-4_7763_22726)"/>
</g>
<g filter="url(#filter4_bd_7763_22726)">
<mask id="path-5-outside-5_7763_22726" maskUnits="userSpaceOnUse" x="202.303" y="237.014" width="33.6099" height="35.2213" fill="black">
<rect fill="white" x="202.303" y="237.014" width="33.6099" height="35.2213"/>
<path d="M205.388 250.264C211.999 249.21 215.63 248.527 219.299 243.885C223.006 250.78 225.488 254.341 232.999 258.382C232.999 258.382 223.753 268.712 218.794 267.405C213.834 266.099 205.388 250.264 205.388 250.264Z"/>
</mask>
<path d="M205.388 250.264C211.999 249.21 215.63 248.527 219.299 243.885C223.006 250.78 225.488 254.341 232.999 258.382C232.999 258.382 223.753 268.712 218.794 267.405C213.834 266.099 205.388 250.264 205.388 250.264Z" fill="#8ADC02" fill-opacity="0.7" style="fill:#8ADC02;fill:color(display-p3 0.5396 0.8643 0.0098);fill-opacity:0.7;" shape-rendering="crispEdges"/>
<path d="M205.388 250.264C211.999 249.21 215.63 248.527 219.299 243.885C223.006 250.78 225.488 254.341 232.999 258.382C232.999 258.382 223.753 268.712 218.794 267.405C213.834 266.099 205.388 250.264 205.388 250.264Z" stroke="white" stroke-opacity="0.5" style="stroke:white;stroke-opacity:0.5;" stroke-width="2" shape-rendering="crispEdges" mask="url(#path-5-outside-5_7763_22726)"/>
</g>
<g filter="url(#filter5_bd_7763_22726)">
<mask id="path-6-outside-6_7763_22726" maskUnits="userSpaceOnUse" x="63.8739" y="259.687" width="33.9406" height="30.7121" fill="black">
<rect fill="white" x="63.8739" y="259.687" width="33.9406" height="30.7121"/>
<path d="M66.653 277.566C72.0231 273.515 74.9244 271.197 76.044 265.357C82.4874 269.712 86.3173 271.694 94.8188 271.729C94.8188 271.729 91.3688 285.235 86.3796 286.418C81.3905 287.6 66.653 277.566 66.653 277.566Z"/>
</mask>
<path d="M66.653 277.566C72.0231 273.515 74.9244 271.197 76.044 265.357C82.4874 269.712 86.3173 271.694 94.8188 271.729C94.8188 271.729 91.3688 285.235 86.3796 286.418C81.3905 287.6 66.653 277.566 66.653 277.566Z" fill="#9747FF" fill-opacity="0.7" style="fill:#9747FF;fill:color(display-p3 0.5922 0.2784 1.0000);fill-opacity:0.7;" shape-rendering="crispEdges"/>
<path d="M66.653 277.566C72.0231 273.515 74.9244 271.197 76.044 265.357C82.4874 269.712 86.3173 271.694 94.8188 271.729C94.8188 271.729 91.3688 285.235 86.3796 286.418C81.3905 287.6 66.653 277.566 66.653 277.566Z" stroke="white" stroke-opacity="0.5" style="stroke:white;stroke-opacity:0.5;" stroke-width="2" shape-rendering="crispEdges" mask="url(#path-6-outside-6_7763_22726)"/>
</g>
<g filter="url(#filter6_bd_7763_22726)">
<mask id="path-7-outside-7_7763_22726" maskUnits="userSpaceOnUse" x="230.811" y="146.6" width="34.2207" height="35.0351" fill="black">
<rect fill="white" x="230.811" y="146.6" width="34.2207" height="35.0351"/>
<path d="M261.95 160.897C255.446 159.296 251.882 158.312 248.602 153.38C244.349 159.943 241.587 163.285 233.774 166.687C233.774 166.687 242.152 177.752 247.201 176.863C252.249 175.974 261.95 160.897 261.95 160.897Z"/>
</mask>
<path d="M261.95 160.897C255.446 159.296 251.882 158.312 248.602 153.38C244.349 159.943 241.587 163.285 233.774 166.687C233.774 166.687 242.152 177.752 247.201 176.863C252.249 175.974 261.95 160.897 261.95 160.897Z" fill="#FF1717" fill-opacity="0.7" style="fill:#FF1717;fill:color(display-p3 1.0000 0.0905 0.0905);fill-opacity:0.7;" shape-rendering="crispEdges"/>
<path d="M261.95 160.897C255.446 159.296 251.882 158.312 248.602 153.38C244.349 159.943 241.587 163.285 233.774 166.687C233.774 166.687 242.152 177.752 247.201 176.863C252.249 175.974 261.95 160.897 261.95 160.897Z" stroke="white" stroke-opacity="0.5" style="stroke:white;stroke-opacity:0.5;" stroke-width="2" shape-rendering="crispEdges" mask="url(#path-7-outside-7_7763_22726)"/>
</g>
<g filter="url(#filter7_bd_7763_22726)">
<mask id="path-8-outside-8_7763_22726" maskUnits="userSpaceOnUse" x="244.833" y="296.96" width="34.2207" height="35.0351" fill="black">
<rect fill="white" x="244.833" y="296.96" width="34.2207" height="35.0351"/>
<path d="M275.972 311.257C269.468 309.655 265.904 308.672 262.624 303.74C258.371 310.303 255.609 313.645 247.796 317.046C247.796 317.046 256.174 328.112 261.223 327.223C266.271 326.334 275.972 311.257 275.972 311.257Z"/>
</mask>
<path d="M275.972 311.257C269.468 309.655 265.904 308.672 262.624 303.74C258.371 310.303 255.609 313.645 247.796 317.046C247.796 317.046 256.174 328.112 261.223 327.223C266.271 326.334 275.972 311.257 275.972 311.257Z" fill="#298CFF" fill-opacity="0.7" style="fill:#298CFF;fill:color(display-p3 0.1627 0.5479 1.0000);fill-opacity:0.7;" shape-rendering="crispEdges"/>
<path d="M275.972 311.257C269.468 309.655 265.904 308.672 262.624 303.74C258.371 310.303 255.609 313.645 247.796 317.046C247.796 317.046 256.174 328.112 261.223 327.223C266.271 326.334 275.972 311.257 275.972 311.257Z" stroke="white" stroke-opacity="0.5" style="stroke:white;stroke-opacity:0.5;" stroke-width="2" shape-rendering="crispEdges" mask="url(#path-8-outside-8_7763_22726)"/>
</g>
<g filter="url(#filter8_bd_7763_22726)">
<mask id="path-9-outside-9_7763_22726" maskUnits="userSpaceOnUse" x="24.4896" y="183.923" width="34.2207" height="35.0351" fill="black">
<rect fill="white" x="24.4896" y="183.923" width="34.2207" height="35.0351"/>
<path d="M55.6281 204.661C49.1242 206.263 45.5606 207.246 42.2807 212.178C38.0271 205.615 35.2651 202.273 27.4527 198.872C27.4527 198.872 35.8309 187.806 40.879 188.695C45.9272 189.584 55.6281 204.661 55.6281 204.661Z"/>
</mask>
<path d="M55.6281 204.661C49.1242 206.263 45.5606 207.246 42.2807 212.178C38.0271 205.615 35.2651 202.273 27.4527 198.872C27.4527 198.872 35.8309 187.806 40.879 188.695C45.9272 189.584 55.6281 204.661 55.6281 204.661Z" fill="#FF1717" fill-opacity="0.7" style="fill:#FF1717;fill:color(display-p3 1.0000 0.0905 0.0905);fill-opacity:0.7;" shape-rendering="crispEdges"/>
<path d="M55.6281 204.661C49.1242 206.263 45.5606 207.246 42.2807 212.178C38.0271 205.615 35.2651 202.273 27.4527 198.872C27.4527 198.872 35.8309 187.806 40.879 188.695C45.9272 189.584 55.6281 204.661 55.6281 204.661Z" stroke="white" stroke-opacity="0.5" style="stroke:white;stroke-opacity:0.5;" stroke-width="2" shape-rendering="crispEdges" mask="url(#path-9-outside-9_7763_22726)"/>
</g>
<g filter="url(#filter9_bd_7763_22726)">
<mask id="path-10-outside-10_7763_22726" maskUnits="userSpaceOnUse" x="262.861" y="65.3245" width="34.2207" height="35.0351" fill="black">
<rect fill="white" x="262.861" y="65.3245" width="34.2207" height="35.0351"/>
<path d="M294 79.6214C287.496 78.0202 283.932 77.0365 280.652 72.1049C276.399 78.6675 273.637 82.0098 265.824 85.4111C265.824 85.4111 274.202 96.4763 279.251 95.5877C284.299 94.699 294 79.6214 294 79.6214Z"/>
</mask>
<path d="M294 79.6214C287.496 78.0202 283.932 77.0365 280.652 72.1049C276.399 78.6675 273.637 82.0098 265.824 85.4111C265.824 85.4111 274.202 96.4763 279.251 95.5877C284.299 94.699 294 79.6214 294 79.6214Z" fill="#9747FF" fill-opacity="0.7" style="fill:#9747FF;fill:color(display-p3 0.5922 0.2784 1.0000);fill-opacity:0.7;" shape-rendering="crispEdges"/>
<path d="M294 79.6214C287.496 78.0202 283.932 77.0365 280.652 72.1049C276.399 78.6675 273.637 82.0098 265.824 85.4111C265.824 85.4111 274.202 96.4763 279.251 95.5877C284.299 94.699 294 79.6214 294 79.6214Z" stroke="white" stroke-opacity="0.5" style="stroke:white;stroke-opacity:0.5;" stroke-width="2" shape-rendering="crispEdges" mask="url(#path-10-outside-10_7763_22726)"/>
</g>
<g filter="url(#filter10_bd_7763_22726)">
<mask id="path-11-outside-11_7763_22726" maskUnits="userSpaceOnUse" x="12.4711" y="293.912" width="34.2207" height="35.0351" fill="black">
<rect fill="white" x="12.4711" y="293.912" width="34.2207" height="35.0351"/>
<path d="M43.6095 308.209C37.1056 306.608 33.5421 305.624 30.2622 300.692C26.0085 307.255 23.2465 310.597 15.4341 313.999C15.4341 313.999 23.8123 325.064 28.8605 324.175C33.9086 323.286 43.6095 308.209 43.6095 308.209Z"/>
</mask>
<path d="M43.6095 308.209C37.1056 306.608 33.5421 305.624 30.2622 300.692C26.0085 307.255 23.2465 310.597 15.4341 313.999C15.4341 313.999 23.8123 325.064 28.8605 324.175C33.9086 323.286 43.6095 308.209 43.6095 308.209Z" fill="#FFC329" fill-opacity="0.7" style="fill:#FFC329;fill:color(display-p3 1.0000 0.7656 0.1627);fill-opacity:0.7;" shape-rendering="crispEdges"/>
<path d="M43.6095 308.209C37.1056 306.608 33.5421 305.624 30.2622 300.692C26.0085 307.255 23.2465 310.597 15.4341 313.999C15.4341 313.999 23.8123 325.064 28.8605 324.175C33.9086 323.286 43.6095 308.209 43.6095 308.209Z" stroke="white" stroke-opacity="0.5" style="stroke:white;stroke-opacity:0.5;" stroke-width="2" shape-rendering="crispEdges" mask="url(#path-11-outside-11_7763_22726)"/>
</g>
<g filter="url(#filter11_bd_7763_22726)">
<mask id="path-12-outside-12_7763_22726" maskUnits="userSpaceOnUse" x="250.842" y="195.366" width="34.2207" height="35.0351" fill="black">
<rect fill="white" x="250.842" y="195.366" width="34.2207" height="35.0351"/>
<path d="M281.981 209.662C275.477 208.061 271.913 207.078 268.634 202.146C264.38 208.709 261.618 212.051 253.805 215.452C253.805 215.452 262.184 226.517 267.232 225.629C272.28 224.74 281.981 209.662 281.981 209.662Z"/>
</mask>
<path d="M281.981 209.662C275.477 208.061 271.913 207.078 268.634 202.146C264.38 208.709 261.618 212.051 253.805 215.452C253.805 215.452 262.184 226.517 267.232 225.629C272.28 224.74 281.981 209.662 281.981 209.662Z" fill="#FFC329" fill-opacity="0.7" style="fill:#FFC329;fill:color(display-p3 1.0000 0.7656 0.1627);fill-opacity:0.7;" shape-rendering="crispEdges"/>
<path d="M281.981 209.662C275.477 208.061 271.913 207.078 268.634 202.146C264.38 208.709 261.618 212.051 253.805 215.452C253.805 215.452 262.184 226.517 267.232 225.629C272.28 224.74 281.981 209.662 281.981 209.662Z" stroke="white" stroke-opacity="0.5" style="stroke:white;stroke-opacity:0.5;" stroke-width="2" shape-rendering="crispEdges" mask="url(#path-12-outside-12_7763_22726)"/>
</g>
<g filter="url(#filter12_bd_7763_22726)">
<mask id="path-13-outside-13_7763_22726" maskUnits="userSpaceOnUse" x="56.5397" y="-1.99489" width="34.2207" height="35.0351" fill="black">
<rect fill="white" x="56.5397" y="-1.99489" width="34.2207" height="35.0351"/>
<path d="M87.6781 18.7433C81.1742 20.3445 77.6107 21.3282 74.3308 26.2598C70.0771 19.6973 67.3151 16.3549 59.5027 12.9536C59.5027 12.9536 67.8809 1.88842 72.9291 2.77707C77.9772 3.66571 87.6781 18.7433 87.6781 18.7433Z"/>
</mask>
<path d="M87.6781 18.7433C81.1742 20.3445 77.6107 21.3282 74.3308 26.2598C70.0771 19.6973 67.3151 16.3549 59.5027 12.9536C59.5027 12.9536 67.8809 1.88842 72.9291 2.77707C77.9772 3.66571 87.6781 18.7433 87.6781 18.7433Z" fill="#FF1717" fill-opacity="0.7" style="fill:#FF1717;fill:color(display-p3 1.0000 0.0905 0.0905);fill-opacity:0.7;" shape-rendering="crispEdges"/>
<path d="M87.6781 18.7433C81.1742 20.3445 77.6107 21.3282 74.3308 26.2598C70.0771 19.6973 67.3151 16.3549 59.5027 12.9536C59.5027 12.9536 67.8809 1.88842 72.9291 2.77707C77.9772 3.66571 87.6781 18.7433 87.6781 18.7433Z" stroke="white" stroke-opacity="0.5" style="stroke:white;stroke-opacity:0.5;" stroke-width="2" shape-rendering="crispEdges" mask="url(#path-13-outside-13_7763_22726)"/>
</g>
<g filter="url(#filter13_bd_7763_22726)">
<mask id="path-14-outside-14_7763_22726" maskUnits="userSpaceOnUse" x="182.736" y="0.304004" width="34.2207" height="35.0351" fill="black">
<rect fill="white" x="182.736" y="0.304004" width="34.2207" height="35.0351"/>
<path d="M213.875 14.6009C207.371 12.9997 203.807 12.016 200.527 7.08439C196.274 13.647 193.512 16.9893 185.699 20.3906C185.699 20.3906 194.077 31.4558 199.126 30.5672C204.174 29.6785 213.875 14.6009 213.875 14.6009Z"/>
</mask>
<path d="M213.875 14.6009C207.371 12.9997 203.807 12.016 200.527 7.08439C196.274 13.647 193.512 16.9893 185.699 20.3906C185.699 20.3906 194.077 31.4558 199.126 30.5672C204.174 29.6785 213.875 14.6009 213.875 14.6009Z" fill="#FFC329" fill-opacity="0.7" style="fill:#FFC329;fill:color(display-p3 1.0000 0.7656 0.1627);fill-opacity:0.7;" shape-rendering="crispEdges"/>
<path d="M213.875 14.6009C207.371 12.9997 203.807 12.016 200.527 7.08439C196.274 13.647 193.512 16.9893 185.699 20.3906C185.699 20.3906 194.077 31.4558 199.126 30.5672C204.174 29.6785 213.875 14.6009 213.875 14.6009Z" stroke="white" stroke-opacity="0.5" style="stroke:white;stroke-opacity:0.5;" stroke-width="2" shape-rendering="crispEdges" mask="url(#path-14-outside-14_7763_22726)"/>
</g>
<defs>
<filter id="filter0_bd_7763_22726" x="42.6094" y="83.7471" width="50.7471" height="46.4512" filterUnits="userSpaceOnUse" color-interpolation-filters="sRGB">
<feFlood flood-opacity="0" result="BackgroundImageFix"/>
<feGaussianBlur in="BackgroundImageFix" stdDeviation="5"/>
<feComposite in2="SourceAlpha" operator="in" result="effect1_backgroundBlur_7763_22726"/>
<feColorMatrix in="SourceAlpha" type="matrix" values="0 0 0 0 0 0 0 0 0 0 0 0 0 0 0 0 0 0 127 0" result="hardAlpha"/>
<feOffset dy="1"/>
<feGaussianBlur stdDeviation="1"/>
<feComposite in2="hardAlpha" operator="out"/>
<feColorMatrix type="matrix" values="0 0 0 0 0 0 0 0 0 0 0 0 0 0 0 0 0 0 0.1 0"/>
<feBlend mode="normal" in2="effect1_backgroundBlur_7763_22726" result="effect2_dropShadow_7763_22726"/>
<feBlend mode="normal" in="SourceGraphic" in2="effect2_dropShadow_7763_22726" result="shape"/>
</filter>
<filter id="filter1_bd_7763_22726" x="-7.46875" y="42.0933" width="50.7471" height="46.4512" filterUnits="userSpaceOnUse" color-interpolation-filters="sRGB">
<feFlood flood-opacity="0" result="BackgroundImageFix"/>
<feGaussianBlur in="BackgroundImageFix" stdDeviation="5"/>
<feComposite in2="SourceAlpha" operator="in" result="effect1_backgroundBlur_7763_22726"/>
<feColorMatrix in="SourceAlpha" type="matrix" values="0 0 0 0 0 0 0 0 0 0 0 0 0 0 0 0 0 0 127 0" result="hardAlpha"/>
<feOffset dy="1"/>
<feGaussianBlur stdDeviation="1"/>
<feComposite in2="hardAlpha" operator="out"/>
<feColorMatrix type="matrix" values="0 0 0 0 0 0 0 0 0 0 0 0 0 0 0 0 0 0 0.1 0"/>
<feBlend mode="normal" in2="effect1_backgroundBlur_7763_22726" result="effect2_dropShadow_7763_22726"/>
<feBlend mode="normal" in="SourceGraphic" in2="effect2_dropShadow_7763_22726" result="shape"/>
</filter>
<filter id="filter2_bd_7763_22726" x="246.928" y="7.55127" width="50.7471" height="46.4512" filterUnits="userSpaceOnUse" color-interpolation-filters="sRGB">
<feFlood flood-opacity="0" result="BackgroundImageFix"/>
<feGaussianBlur in="BackgroundImageFix" stdDeviation="5"/>
<feComposite in2="SourceAlpha" operator="in" result="effect1_backgroundBlur_7763_22726"/>
<feColorMatrix in="SourceAlpha" type="matrix" values="0 0 0 0 0 0 0 0 0 0 0 0 0 0 0 0 0 0 127 0" result="hardAlpha"/>
<feOffset dy="1"/>
<feGaussianBlur stdDeviation="1"/>
<feComposite in2="hardAlpha" operator="out"/>
<feColorMatrix type="matrix" values="0 0 0 0 0 0 0 0 0 0 0 0 0 0 0 0 0 0 0.1 0"/>
<feBlend mode="normal" in2="effect1_backgroundBlur_7763_22726" result="effect2_dropShadow_7763_22726"/>
<feBlend mode="normal" in="SourceGraphic" in2="effect2_dropShadow_7763_22726" result="shape"/>
</filter>
<filter id="filter3_bd_7763_22726" x="-4.46411" y="243.25" width="50.7471" height="46.4512" filterUnits="userSpaceOnUse" color-interpolation-filters="sRGB">
<feFlood flood-opacity="0" result="BackgroundImageFix"/>
<feGaussianBlur in="BackgroundImageFix" stdDeviation="5"/>
<feComposite in2="SourceAlpha" operator="in" result="effect1_backgroundBlur_7763_22726"/>
<feColorMatrix in="SourceAlpha" type="matrix" values="0 0 0 0 0 0 0 0 0 0 0 0 0 0 0 0 0 0 127 0" result="hardAlpha"/>
<feOffset dy="1"/>
<feGaussianBlur stdDeviation="1"/>
<feComposite in2="hardAlpha" operator="out"/>
<feColorMatrix type="matrix" values="0 0 0 0 0 0 0 0 0 0 0 0 0 0 0 0 0 0 0.1 0"/>
<feBlend mode="normal" in2="effect1_backgroundBlur_7763_22726" result="effect2_dropShadow_7763_22726"/>
<feBlend mode="normal" in="SourceGraphic" in2="effect2_dropShadow_7763_22726" result="shape"/>
</filter>
<filter id="filter4_bd_7763_22726" x="193.845" y="232.075" width="50.7471" height="46.4512" filterUnits="userSpaceOnUse" color-interpolation-filters="sRGB">
<feFlood flood-opacity="0" result="BackgroundImageFix"/>
<feGaussianBlur in="BackgroundImageFix" stdDeviation="5"/>
<feComposite in2="SourceAlpha" operator="in" result="effect1_backgroundBlur_7763_22726"/>
<feColorMatrix in="SourceAlpha" type="matrix" values="0 0 0 0 0 0 0 0 0 0 0 0 0 0 0 0 0 0 127 0" result="hardAlpha"/>
<feOffset dy="1"/>
<feGaussianBlur stdDeviation="1"/>
<feComposite in2="hardAlpha" operator="out"/>
<feColorMatrix type="matrix" values="0 0 0 0 0 0 0 0 0 0 0 0 0 0 0 0 0 0 0.1 0"/>
<feBlend mode="normal" in2="effect1_backgroundBlur_7763_22726" result="effect2_dropShadow_7763_22726"/>
<feBlend mode="normal" in="SourceGraphic" in2="effect2_dropShadow_7763_22726" result="shape"/>
</filter>
<filter id="filter5_bd_7763_22726" x="54.9351" y="253.683" width="51.1692" height="43.8359" filterUnits="userSpaceOnUse" color-interpolation-filters="sRGB">
<feFlood flood-opacity="0" result="BackgroundImageFix"/>
<feGaussianBlur in="BackgroundImageFix" stdDeviation="5"/>
<feComposite in2="SourceAlpha" operator="in" result="effect1_backgroundBlur_7763_22726"/>
<feColorMatrix in="SourceAlpha" type="matrix" values="0 0 0 0 0 0 0 0 0 0 0 0 0 0 0 0 0 0 127 0" result="hardAlpha"/>
<feOffset dy="1"/>
<feGaussianBlur stdDeviation="1"/>
<feComposite in2="hardAlpha" operator="out"/>
<feColorMatrix type="matrix" values="0 0 0 0 0 0 0 0 0 0 0 0 0 0 0 0 0 0 0.1 0"/>
<feBlend mode="normal" in2="effect1_backgroundBlur_7763_22726" result="effect2_dropShadow_7763_22726"/>
<feBlend mode="normal" in="SourceGraphic" in2="effect2_dropShadow_7763_22726" result="shape"/>
</filter>
<filter id="filter6_bd_7763_22726" x="222.209" y="141.563" width="51.3403" height="46.3574" filterUnits="userSpaceOnUse" color-interpolation-filters="sRGB">
<feFlood flood-opacity="0" result="BackgroundImageFix"/>
<feGaussianBlur in="BackgroundImageFix" stdDeviation="5"/>
<feComposite in2="SourceAlpha" operator="in" result="effect1_backgroundBlur_7763_22726"/>
<feColorMatrix in="SourceAlpha" type="matrix" values="0 0 0 0 0 0 0 0 0 0 0 0 0 0 0 0 0 0 127 0" result="hardAlpha"/>
<feOffset dy="1"/>
<feGaussianBlur stdDeviation="1"/>
<feComposite in2="hardAlpha" operator="out"/>
<feColorMatrix type="matrix" values="0 0 0 0 0 0 0 0 0 0 0 0 0 0 0 0 0 0 0.1 0"/>
<feBlend mode="normal" in2="effect1_backgroundBlur_7763_22726" result="effect2_dropShadow_7763_22726"/>
<feBlend mode="normal" in="SourceGraphic" in2="effect2_dropShadow_7763_22726" result="shape"/>
</filter>
<filter id="filter7_bd_7763_22726" x="236.231" y="291.923" width="51.3403" height="46.3574" filterUnits="userSpaceOnUse" color-interpolation-filters="sRGB">
<feFlood flood-opacity="0" result="BackgroundImageFix"/>
<feGaussianBlur in="BackgroundImageFix" stdDeviation="5"/>
<feComposite in2="SourceAlpha" operator="in" result="effect1_backgroundBlur_7763_22726"/>
<feColorMatrix in="SourceAlpha" type="matrix" values="0 0 0 0 0 0 0 0 0 0 0 0 0 0 0 0 0 0 127 0" result="hardAlpha"/>
<feOffset dy="1"/>
<feGaussianBlur stdDeviation="1"/>
<feComposite in2="hardAlpha" operator="out"/>
<feColorMatrix type="matrix" values="0 0 0 0 0 0 0 0 0 0 0 0 0 0 0 0 0 0 0.1 0"/>
<feBlend mode="normal" in2="effect1_backgroundBlur_7763_22726" result="effect2_dropShadow_7763_22726"/>
<feBlend mode="normal" in="SourceGraphic" in2="effect2_dropShadow_7763_22726" result="shape"/>
</filter>
<filter id="filter8_bd_7763_22726" x="15.8872" y="177.637" width="51.3403" height="46.3574" filterUnits="userSpaceOnUse" color-interpolation-filters="sRGB">
<feFlood flood-opacity="0" result="BackgroundImageFix"/>
<feGaussianBlur in="BackgroundImageFix" stdDeviation="5"/>
<feComposite in2="SourceAlpha" operator="in" result="effect1_backgroundBlur_7763_22726"/>
<feColorMatrix in="SourceAlpha" type="matrix" values="0 0 0 0 0 0 0 0 0 0 0 0 0 0 0 0 0 0 127 0" result="hardAlpha"/>
<feOffset dy="1"/>
<feGaussianBlur stdDeviation="1"/>
<feComposite in2="hardAlpha" operator="out"/>
<feColorMatrix type="matrix" values="0 0 0 0 0 0 0 0 0 0 0 0 0 0 0 0 0 0 0.1 0"/>
<feBlend mode="normal" in2="effect1_backgroundBlur_7763_22726" result="effect2_dropShadow_7763_22726"/>
<feBlend mode="normal" in="SourceGraphic" in2="effect2_dropShadow_7763_22726" result="shape"/>
</filter>
<filter id="filter9_bd_7763_22726" x="254.259" y="60.2881" width="51.3403" height="46.3574" filterUnits="userSpaceOnUse" color-interpolation-filters="sRGB">
<feFlood flood-opacity="0" result="BackgroundImageFix"/>
<feGaussianBlur in="BackgroundImageFix" stdDeviation="5"/>
<feComposite in2="SourceAlpha" operator="in" result="effect1_backgroundBlur_7763_22726"/>
<feColorMatrix in="SourceAlpha" type="matrix" values="0 0 0 0 0 0 0 0 0 0 0 0 0 0 0 0 0 0 127 0" result="hardAlpha"/>
<feOffset dy="1"/>
<feGaussianBlur stdDeviation="1"/>
<feComposite in2="hardAlpha" operator="out"/>
<feColorMatrix type="matrix" values="0 0 0 0 0 0 0 0 0 0 0 0 0 0 0 0 0 0 0.1 0"/>
<feBlend mode="normal" in2="effect1_backgroundBlur_7763_22726" result="effect2_dropShadow_7763_22726"/>
<feBlend mode="normal" in="SourceGraphic" in2="effect2_dropShadow_7763_22726" result="shape"/>
</filter>
<filter id="filter10_bd_7763_22726" x="3.86865" y="288.875" width="51.3403" height="46.3574" filterUnits="userSpaceOnUse" color-interpolation-filters="sRGB">
<feFlood flood-opacity="0" result="BackgroundImageFix"/>
<feGaussianBlur in="BackgroundImageFix" stdDeviation="5"/>
<feComposite in2="SourceAlpha" operator="in" result="effect1_backgroundBlur_7763_22726"/>
<feColorMatrix in="SourceAlpha" type="matrix" values="0 0 0 0 0 0 0 0 0 0 0 0 0 0 0 0 0 0 127 0" result="hardAlpha"/>
<feOffset dy="1"/>
<feGaussianBlur stdDeviation="1"/>
<feComposite in2="hardAlpha" operator="out"/>
<feColorMatrix type="matrix" values="0 0 0 0 0 0 0 0 0 0 0 0 0 0 0 0 0 0 0.1 0"/>
<feBlend mode="normal" in2="effect1_backgroundBlur_7763_22726" result="effect2_dropShadow_7763_22726"/>
<feBlend mode="normal" in="SourceGraphic" in2="effect2_dropShadow_7763_22726" result="shape"/>
</filter>
<filter id="filter11_bd_7763_22726" x="242.24" y="190.329" width="51.3403" height="46.3574" filterUnits="userSpaceOnUse" color-interpolation-filters="sRGB">
<feFlood flood-opacity="0" result="BackgroundImageFix"/>
<feGaussianBlur in="BackgroundImageFix" stdDeviation="5"/>
<feComposite in2="SourceAlpha" operator="in" result="effect1_backgroundBlur_7763_22726"/>
<feColorMatrix in="SourceAlpha" type="matrix" values="0 0 0 0 0 0 0 0 0 0 0 0 0 0 0 0 0 0 127 0" result="hardAlpha"/>
<feOffset dy="1"/>
<feGaussianBlur stdDeviation="1"/>
<feComposite in2="hardAlpha" operator="out"/>
<feColorMatrix type="matrix" values="0 0 0 0 0 0 0 0 0 0 0 0 0 0 0 0 0 0 0.1 0"/>
<feBlend mode="normal" in2="effect1_backgroundBlur_7763_22726" result="effect2_dropShadow_7763_22726"/>
<feBlend mode="normal" in="SourceGraphic" in2="effect2_dropShadow_7763_22726" result="shape"/>
</filter>
<filter id="filter12_bd_7763_22726" x="47.9373" y="-8.28076" width="51.3403" height="46.3574" filterUnits="userSpaceOnUse" color-interpolation-filters="sRGB">
<feFlood flood-opacity="0" result="BackgroundImageFix"/>
<feGaussianBlur in="BackgroundImageFix" stdDeviation="5"/>
<feComposite in2="SourceAlpha" operator="in" result="effect1_backgroundBlur_7763_22726"/>
<feColorMatrix in="SourceAlpha" type="matrix" values="0 0 0 0 0 0 0 0 0 0 0 0 0 0 0 0 0 0 127 0" result="hardAlpha"/>
<feOffset dy="1"/>
<feGaussianBlur stdDeviation="1"/>
<feComposite in2="hardAlpha" operator="out"/>
<feColorMatrix type="matrix" values="0 0 0 0 0 0 0 0 0 0 0 0 0 0 0 0 0 0 0.1 0"/>
<feBlend mode="normal" in2="effect1_backgroundBlur_7763_22726" result="effect2_dropShadow_7763_22726"/>
<feBlend mode="normal" in="SourceGraphic" in2="effect2_dropShadow_7763_22726" result="shape"/>
</filter>
<filter id="filter13_bd_7763_22726" x="174.134" y="-4.73242" width="51.3403" height="46.3574" filterUnits="userSpaceOnUse" color-interpolation-filters="sRGB">
<feFlood flood-opacity="0" result="BackgroundImageFix"/>
<feGaussianBlur in="BackgroundImageFix" stdDeviation="5"/>
<feComposite in2="SourceAlpha" operator="in" result="effect1_backgroundBlur_7763_22726"/>
<feColorMatrix in="SourceAlpha" type="matrix" values="0 0 0 0 0 0 0 0 0 0 0 0 0 0 0 0 0 0 127 0" result="hardAlpha"/>
<feOffset dy="1"/>
<feGaussianBlur stdDeviation="1"/>
<feComposite in2="hardAlpha" operator="out"/>
<feColorMatrix type="matrix" values="0 0 0 0 0 0 0 0 0 0 0 0 0 0 0 0 0 0 0.1 0"/>
<feBlend mode="normal" in2="effect1_backgroundBlur_7763_22726" result="effect2_dropShadow_7763_22726"/>
<feBlend mode="normal" in="SourceGraphic" in2="effect2_dropShadow_7763_22726" result="shape"/>
</filter>
</defs>
</svg>
