<svg width="319" height="373" viewBox="0 0 319 373" fill="none" xmlns="http://www.w3.org/2000/svg">
<g opacity="0.5" filter="url(#filter0_f_3955_6550)">
<path d="M62.0723 139.336C68.6736 138.299 72.2991 137.626 75.9617 133.057C79.6636 139.844 82.1417 143.349 89.6404 147.327C89.6404 147.327 80.4086 157.494 75.4572 156.208C70.5059 154.922 62.0723 139.336 62.0723 139.336Z" fill="#FFC329" fill-opacity="0.7"/>
<path d="M61.9947 138.842L61.296 138.952L61.6326 139.574L62.0723 139.336C61.6326 139.574 61.6326 139.574 61.6327 139.574L61.6331 139.575L61.6343 139.577L61.6391 139.586L61.6577 139.62C61.6741 139.65 61.6984 139.694 61.7302 139.752C61.7937 139.868 61.8874 140.037 62.0082 140.253C62.2498 140.684 62.6002 141.3 63.036 142.044C63.9074 143.531 65.1219 145.529 66.4931 147.569C67.8627 149.606 69.3963 151.698 70.9064 153.365C71.6614 154.199 72.4183 154.936 73.1531 155.509C73.883 156.078 74.6189 156.507 75.3316 156.692C76.749 157.06 78.3928 156.598 79.9839 155.811C81.5932 155.015 83.2443 153.839 84.7211 152.638C86.201 151.434 87.5221 150.191 88.4723 149.251C88.9477 148.78 89.3312 148.385 89.5963 148.106C89.7288 147.967 89.8318 147.857 89.902 147.781C89.937 147.743 89.9639 147.714 89.9821 147.694L90.003 147.671L90.0084 147.665L90.0099 147.664L90.0103 147.663C90.0105 147.663 90.0106 147.663 89.6404 147.327L90.0106 147.663L90.4431 147.187L89.8747 146.885C86.1611 144.915 83.7179 143.077 81.7472 140.909C79.7707 138.735 78.2495 136.207 76.4007 132.818L76.0412 132.159L75.5716 132.745C73.7905 134.966 72.0376 136.222 69.9346 137.056C67.8065 137.901 65.3076 138.321 61.9947 138.842Z" stroke="white" stroke-opacity="0.5"/>
</g>
<g opacity="0.5" filter="url(#filter1_f_3955_6550)">
<path d="M12.0723 98.3359C18.6736 97.2987 22.2991 96.6261 25.9617 92.0573C29.6636 98.844 32.1417 102.349 39.6404 106.327C39.6404 106.327 30.4086 116.494 25.4572 115.208C20.5059 113.922 12.0723 98.3359 12.0723 98.3359Z" fill="#298CFF" fill-opacity="0.7"/>
<path d="M11.9947 97.8419L11.296 97.9517L11.6326 98.5738L12.0723 98.3359C11.6326 98.5738 11.6326 98.5739 11.6327 98.5741L11.6331 98.5747L11.6343 98.577L11.6391 98.5858L11.6577 98.62C11.6741 98.6501 11.6984 98.6945 11.7302 98.7522C11.7937 98.8678 11.8874 99.037 12.0082 99.2526C12.2498 99.6837 12.6002 100.3 13.036 101.044C13.9074 102.531 15.1219 104.529 16.4931 106.569C17.8627 108.606 19.3963 110.698 20.9064 112.365C21.6614 113.199 22.4183 113.936 23.1531 114.509C23.883 115.078 24.6189 115.507 25.3316 115.692C26.749 116.06 28.3928 115.598 29.9839 114.811C31.5932 114.015 33.2443 112.839 34.7211 111.638C36.201 110.434 37.5221 109.191 38.4723 108.251C38.9477 107.78 39.3312 107.385 39.5963 107.106C39.7288 106.967 39.8318 106.857 39.902 106.781C39.937 106.743 39.9639 106.714 39.9821 106.694L40.003 106.671L40.0084 106.665L40.0099 106.664L40.0103 106.663C40.0105 106.663 40.0106 106.663 39.6404 106.327L40.0106 106.663L40.4431 106.187L39.8747 105.885C36.1611 103.915 33.7179 102.077 31.7472 99.9093C29.7707 97.7348 28.2495 95.2074 26.4007 91.8179L26.0412 91.1588L25.5716 91.7446C23.7905 93.9663 22.0376 95.2216 19.9346 96.0562C17.8065 96.9008 15.3076 97.3214 11.9947 97.8419Z" stroke="white" stroke-opacity="0.5"/>
</g>
<g opacity="0.5" filter="url(#filter2_f_3955_6550)">
<path d="M266.072 64.3359C272.674 63.2987 276.299 62.6261 279.962 58.0573C283.664 64.844 286.142 68.3494 293.64 72.3269C293.64 72.3269 284.409 82.4943 279.457 81.2084C274.506 79.9225 266.072 64.3359 266.072 64.3359Z" fill="#8ADC02" fill-opacity="0.7"/>
<path d="M265.995 63.8419L265.296 63.9517L265.633 64.5738L266.072 64.3359C265.633 64.5738 265.633 64.5739 265.633 64.5741L265.633 64.5747L265.634 64.577L265.639 64.5858L265.658 64.62C265.674 64.6501 265.698 64.6945 265.73 64.7522C265.794 64.8678 265.887 65.037 266.008 65.2526C266.25 65.6837 266.6 66.3004 267.036 67.0441C267.907 68.5311 269.122 70.529 270.493 72.5688C271.863 74.6064 273.396 76.6976 274.906 78.3652C275.661 79.199 276.418 79.9356 277.153 80.5085C277.883 81.0776 278.619 81.5072 279.332 81.6923C280.749 82.0604 282.393 81.5982 283.984 80.8113C285.593 80.0154 287.244 78.8392 288.721 77.6377C290.201 76.4338 291.522 75.1912 292.472 74.2509C292.948 73.7803 293.331 73.3846 293.596 73.1059C293.729 72.9666 293.832 72.8565 293.902 72.7809C293.937 72.7432 293.964 72.714 293.982 72.6941L294.003 72.6714L294.008 72.6654L294.01 72.6637L294.01 72.6633C294.01 72.6631 294.011 72.663 293.64 72.3269L294.011 72.663L294.443 72.1867L293.875 71.8852C290.161 69.9154 287.718 68.0773 285.747 65.9093C283.771 63.7348 282.249 61.2074 280.401 57.8179L280.041 57.1588L279.572 57.7446C277.79 59.9663 276.038 61.2216 273.935 62.0562C271.807 62.9008 269.308 63.3214 265.995 63.8419Z" stroke="white" stroke-opacity="0.5"/>
</g>
<g opacity="0.5" filter="url(#filter3_f_3955_6550)">
<path d="M15.0723 296.336C21.6736 295.299 25.2991 294.626 28.9617 290.057C32.6636 296.844 35.1417 300.349 42.6404 304.327C42.6404 304.327 33.4086 314.494 28.4572 313.208C23.5059 311.922 15.0723 296.336 15.0723 296.336Z" fill="#8ADC02" fill-opacity="0.7"/>
<path d="M14.9947 295.842L14.296 295.952L14.6326 296.574L15.0723 296.336C14.6326 296.574 14.6326 296.574 14.6327 296.574L14.6331 296.575L14.6343 296.577L14.6391 296.586L14.6577 296.62C14.6741 296.65 14.6984 296.694 14.7302 296.752C14.7937 296.868 14.8874 297.037 15.0082 297.253C15.2498 297.684 15.6002 298.3 16.036 299.044C16.9074 300.531 18.1219 302.529 19.4931 304.569C20.8627 306.606 22.3963 308.698 23.9064 310.365C24.6614 311.199 25.4183 311.936 26.1531 312.509C26.883 313.078 27.6189 313.507 28.3316 313.692C29.749 314.06 31.3928 313.598 32.9839 312.811C34.5932 312.015 36.2443 310.839 37.7211 309.638C39.201 308.434 40.5221 307.191 41.4723 306.251C41.9477 305.78 42.3312 305.385 42.5963 305.106C42.7288 304.967 42.8318 304.857 42.902 304.781C42.937 304.743 42.9639 304.714 42.9821 304.694L43.003 304.671L43.0084 304.665L43.0099 304.664L43.0103 304.663C43.0105 304.663 43.0106 304.663 42.6404 304.327L43.0106 304.663L43.4431 304.187L42.8747 303.885C39.1611 301.915 36.7179 300.077 34.7472 297.909C32.7707 295.735 31.2495 293.207 29.4007 289.818L29.0412 289.159L28.5716 289.745C26.7905 291.966 25.0376 293.222 22.9346 294.056C20.8065 294.901 18.3076 295.321 14.9947 295.842Z" stroke="white" stroke-opacity="0.5"/>
</g>
<g opacity="0.5" filter="url(#filter4_f_3955_6550)">
<path d="M74.5537 312.21C79.9154 308.222 82.8123 305.94 83.9301 300.192C90.3635 304.479 94.1874 306.43 102.676 306.464C102.676 306.464 99.231 319.758 94.2496 320.922C89.2683 322.086 74.5537 312.21 74.5537 312.21Z" fill="#9747FF" fill-opacity="0.7"/>
<path d="M74.2553 311.808L73.6878 312.231L74.2751 312.625L74.5537 312.21C74.2751 312.625 74.2752 312.625 74.2753 312.625L74.2759 312.625L74.2781 312.627L74.2864 312.632L74.3188 312.654C74.3473 312.673 74.3894 312.701 74.4444 312.737C74.5545 312.81 74.7161 312.916 74.9233 313.051C75.3377 313.32 75.9346 313.703 76.6664 314.159C78.1292 315.07 80.1335 316.274 82.296 317.442C84.456 318.609 86.7863 319.747 88.8986 320.522C89.9548 320.909 90.9674 321.209 91.8843 321.374C92.7951 321.539 93.6464 321.577 94.3634 321.409C95.7894 321.076 97.0297 319.902 98.0724 318.466C99.127 317.013 100.042 315.204 100.79 313.453C101.541 311.699 102.132 309.985 102.536 308.71C102.738 308.073 102.894 307.544 102.999 307.174C103.051 306.989 103.091 306.844 103.118 306.744C103.132 306.694 103.142 306.656 103.149 306.63L103.157 306.6L103.159 306.592L103.159 306.59L103.16 306.59C103.16 306.589 103.16 306.589 102.676 306.464L103.16 306.589L103.321 305.966L102.678 305.964C98.474 305.947 95.4563 305.456 92.7034 304.453C89.9424 303.447 87.4203 301.917 84.2074 299.776L83.5826 299.36L83.4393 300.097C82.8957 302.892 81.9276 304.818 80.454 306.535C78.9628 308.273 76.9461 309.807 74.2553 311.808Z" stroke="white" stroke-opacity="0.5"/>
</g>
<g opacity="0.5" filter="url(#filter5_f_3955_6550)">
<path d="M253.546 197.372C247.052 195.796 243.494 194.827 240.22 189.973C235.973 196.433 233.215 199.723 225.415 203.071C225.415 203.071 233.78 213.962 238.82 213.087C243.86 212.213 253.546 197.372 253.546 197.372Z" fill="#FF1717" fill-opacity="0.7"/>
<path d="M253.664 196.886L254.351 197.053L253.965 197.645L253.546 197.372C253.965 197.645 253.965 197.645 253.965 197.645L253.964 197.646L253.963 197.648L253.957 197.656L253.936 197.689C253.917 197.718 253.889 197.76 253.853 197.815C253.78 197.925 253.673 198.086 253.535 198.291C253.258 198.7 252.859 199.286 252.363 199.992C251.373 201.402 249.998 203.293 248.464 205.214C246.931 207.132 245.231 209.09 243.589 210.628C242.768 211.397 241.953 212.069 241.174 212.579C240.4 213.086 239.631 213.454 238.906 213.58C237.463 213.83 235.862 213.235 234.341 212.32C232.803 211.394 231.254 210.086 229.881 208.768C228.505 207.446 227.29 206.099 226.421 205.084C225.986 204.576 225.636 204.15 225.395 203.851C225.274 203.701 225.18 203.583 225.117 203.502C225.085 203.461 225.06 203.43 225.044 203.408L225.025 203.384L225.02 203.378L225.019 203.376L225.018 203.375C225.018 203.375 225.018 203.375 225.415 203.071L225.018 203.375L224.626 202.865L225.217 202.611C229.08 200.953 231.666 199.322 233.808 197.323C235.957 195.318 237.681 192.925 239.802 189.698L240.214 189.071L240.634 189.694C242.227 192.054 243.87 193.449 245.898 194.454C247.949 195.47 250.405 196.095 253.664 196.886Z" stroke="white" stroke-opacity="0.5"/>
</g>
<g opacity="0.5" filter="url(#filter6_f_3955_6550)">
<path d="M283.546 345.372C277.052 343.796 273.494 342.827 270.22 337.973C265.973 344.433 263.215 347.723 255.415 351.071C255.415 351.071 263.78 361.962 268.82 361.087C273.86 360.213 283.546 345.372 283.546 345.372Z" fill="#298CFF" fill-opacity="0.7"/>
<path d="M283.664 344.886L284.351 345.053L283.965 345.645L283.546 345.372C283.965 345.645 283.965 345.645 283.965 345.645L283.964 345.646L283.963 345.648L283.957 345.656L283.936 345.689C283.917 345.718 283.889 345.76 283.853 345.815C283.78 345.925 283.673 346.086 283.535 346.291C283.258 346.7 282.859 347.286 282.363 347.992C281.373 349.402 279.998 351.293 278.464 353.214C276.931 355.132 275.231 357.09 273.589 358.628C272.768 359.397 271.953 360.069 271.174 360.579C270.4 361.086 269.631 361.454 268.906 361.58C267.463 361.83 265.862 361.235 264.341 360.32C262.803 359.394 261.254 358.086 259.881 356.768C258.505 355.446 257.29 354.099 256.421 353.084C255.986 352.576 255.636 352.15 255.395 351.851C255.274 351.701 255.18 351.583 255.117 351.502C255.085 351.461 255.06 351.43 255.044 351.408L255.025 351.384L255.02 351.378L255.019 351.376L255.018 351.375C255.018 351.375 255.018 351.375 255.415 351.071L255.018 351.375L254.626 350.865L255.217 350.611C259.08 348.953 261.666 347.322 263.808 345.323C265.957 343.318 267.681 340.925 269.802 337.698L270.214 337.071L270.634 337.694C272.227 340.054 273.87 341.449 275.898 342.454C277.949 343.47 280.405 344.095 283.664 344.886Z" stroke="white" stroke-opacity="0.5"/>
</g>
<g opacity="0.5" filter="url(#filter7_f_3955_6550)">
<path d="M79.5461 240.449C73.0524 242.025 69.4944 242.993 66.2196 247.848C61.9726 241.388 59.2149 238.098 51.4147 234.75C51.4147 234.75 59.7798 223.859 64.8201 224.733C69.8603 225.608 79.5461 240.449 79.5461 240.449Z" fill="#FF1717" fill-opacity="0.7"/>
<path d="M79.6641 240.935L80.3514 240.768L79.9648 240.176L79.5461 240.449C79.9648 240.176 79.9648 240.176 79.9647 240.176L79.9643 240.175L79.9628 240.173L79.9573 240.164L79.936 240.132C79.9172 240.103 79.8893 240.061 79.8529 240.006C79.7801 239.896 79.6728 239.735 79.5347 239.53C79.2585 239.12 78.8586 238.535 78.3631 237.829C77.3726 236.419 75.998 234.527 74.4638 232.607C72.9315 230.689 71.2312 228.731 69.5892 227.193C68.7682 226.424 67.9533 225.752 67.1739 225.242C66.3998 224.734 65.6311 224.367 64.9056 224.241C63.4627 223.99 61.8625 224.586 60.3414 225.501C58.8029 226.427 57.2541 227.734 55.8809 229.053C54.505 230.375 53.2904 231.722 52.4208 232.737C51.9856 233.245 51.6359 233.671 51.3946 233.97C51.2739 234.12 51.1803 234.238 51.1167 234.319C51.0848 234.36 51.0604 234.391 51.0439 234.412L51.025 234.437L51.0201 234.443L51.0187 234.445L51.0183 234.445C51.0182 234.446 51.0181 234.446 51.4147 234.75L51.0181 234.446L50.6262 234.956L51.2175 235.21C55.0804 236.868 57.6663 238.499 59.8085 240.498C61.9569 242.502 63.6807 244.896 65.8018 248.122L66.2142 248.75L66.6341 248.127C68.2266 245.767 69.8705 244.372 71.8978 243.367C73.9493 242.351 76.4051 241.726 79.6641 240.935Z" stroke="white" stroke-opacity="0.5"/>
</g>
<g opacity="0.5" filter="url(#filter8_f_3955_6550)">
<path d="M301.546 117.372C295.052 115.796 291.494 114.827 288.22 109.973C283.973 116.433 281.215 119.723 273.415 123.071C273.415 123.071 281.78 133.962 286.82 133.087C291.86 132.213 301.546 117.372 301.546 117.372Z" fill="#9747FF" fill-opacity="0.7"/>
<path d="M301.664 116.886L302.351 117.053L301.965 117.645L301.546 117.372C301.965 117.645 301.965 117.645 301.965 117.645L301.964 117.646L301.963 117.648L301.957 117.656L301.936 117.689C301.917 117.718 301.889 117.76 301.853 117.815C301.78 117.925 301.673 118.086 301.535 118.291C301.258 118.7 300.859 119.286 300.363 119.992C299.373 121.402 297.998 123.293 296.464 125.214C294.931 127.132 293.231 129.09 291.589 130.628C290.768 131.397 289.953 132.069 289.174 132.579C288.4 133.086 287.631 133.454 286.906 133.58C285.463 133.83 283.862 133.235 282.341 132.32C280.803 131.394 279.254 130.086 277.881 128.768C276.505 127.446 275.29 126.099 274.421 125.084C273.986 124.576 273.636 124.15 273.395 123.851C273.274 123.701 273.18 123.583 273.117 123.502C273.085 123.461 273.06 123.43 273.044 123.408L273.025 123.384L273.02 123.378L273.019 123.376L273.018 123.375C273.018 123.375 273.018 123.375 273.415 123.071L273.018 123.375L272.626 122.865L273.217 122.611C277.08 120.953 279.666 119.322 281.808 117.323C283.957 115.318 285.681 112.925 287.802 109.698L288.214 109.071L288.634 109.694C290.227 112.054 291.87 113.449 293.898 114.454C295.949 115.47 298.405 116.095 301.664 116.886Z" stroke="white" stroke-opacity="0.5"/>
</g>
<g opacity="0.5" filter="url(#filter9_f_3955_6550)">
<path d="M51.5461 342.372C45.0524 340.796 41.4944 339.827 38.2196 334.973C33.9726 341.433 31.2149 344.723 23.4147 348.071C23.4147 348.071 31.7798 358.962 36.8201 358.087C41.8603 357.213 51.5461 342.372 51.5461 342.372Z" fill="#FFC329" fill-opacity="0.7"/>
<path d="M51.6641 341.886L52.3514 342.053L51.9648 342.645L51.5461 342.372C51.9648 342.645 51.9648 342.645 51.9647 342.645L51.9643 342.646L51.9628 342.648L51.9573 342.656L51.936 342.689C51.9172 342.718 51.8893 342.76 51.8529 342.815C51.7801 342.925 51.6728 343.086 51.5347 343.291C51.2585 343.7 50.8586 344.286 50.3631 344.992C49.3726 346.402 47.998 348.293 46.4638 350.214C44.9315 352.132 43.2312 354.09 41.5892 355.628C40.7682 356.397 39.9533 357.069 39.1739 357.579C38.3998 358.086 37.6311 358.454 36.9056 358.58C35.4627 358.83 33.8625 358.235 32.3414 357.32C30.8029 356.394 29.2541 355.086 27.8809 353.768C26.505 352.446 25.2904 351.099 24.4208 350.084C23.9856 349.576 23.6359 349.15 23.3946 348.851C23.2739 348.701 23.1803 348.583 23.1167 348.502C23.0848 348.461 23.0604 348.43 23.0439 348.408L23.025 348.384L23.0201 348.378L23.0187 348.376L23.0183 348.375C23.0182 348.375 23.0181 348.375 23.4147 348.071L23.0181 348.375L22.6262 347.865L23.2175 347.611C27.0804 345.953 29.6663 344.322 31.8085 342.323C33.9569 340.318 35.6807 337.925 37.8018 334.698L38.2142 334.071L38.6341 334.694C40.2266 337.054 41.8705 338.449 43.8978 339.454C45.9493 340.47 48.4051 341.095 51.6641 341.886Z" stroke="white" stroke-opacity="0.5"/>
</g>
<g opacity="0.5" filter="url(#filter10_f_3955_6550)">
<path d="M289.546 245.372C283.052 243.796 279.494 242.827 276.22 237.973C271.973 244.433 269.215 247.723 261.415 251.071C261.415 251.071 269.78 261.962 274.82 261.087C279.86 260.213 289.546 245.372 289.546 245.372Z" fill="#FFC329" fill-opacity="0.7"/>
<path d="M289.664 244.886L290.351 245.053L289.965 245.645L289.546 245.372C289.965 245.645 289.965 245.645 289.965 245.645L289.964 245.646L289.963 245.648L289.957 245.656L289.936 245.689C289.917 245.718 289.889 245.76 289.853 245.815C289.78 245.925 289.673 246.086 289.535 246.291C289.258 246.7 288.859 247.286 288.363 247.992C287.373 249.402 285.998 251.293 284.464 253.214C282.931 255.132 281.231 257.09 279.589 258.628C278.768 259.397 277.953 260.069 277.174 260.579C276.4 261.086 275.631 261.454 274.906 261.58C273.463 261.83 271.862 261.235 270.341 260.32C268.803 259.394 267.254 258.086 265.881 256.768C264.505 255.446 263.29 254.099 262.421 253.084C261.986 252.576 261.636 252.15 261.395 251.851C261.274 251.701 261.18 251.583 261.117 251.502C261.085 251.461 261.06 251.43 261.044 251.408L261.025 251.384L261.02 251.378L261.019 251.376L261.018 251.375C261.018 251.375 261.018 251.375 261.415 251.071L261.018 251.375L260.626 250.865L261.217 250.611C265.08 248.953 267.666 247.322 269.808 245.323C271.957 243.318 273.681 240.925 275.802 237.698L276.214 237.071L276.634 237.694C278.227 240.054 279.87 241.449 281.898 242.454C283.949 243.47 286.405 244.095 289.664 244.886Z" stroke="white" stroke-opacity="0.5"/>
</g>
<g opacity="0.5" filter="url(#filter11_f_3955_6550)">
<path d="M95.5461 57.4491C89.0524 59.0252 85.4944 59.9934 82.2196 64.8477C77.9726 58.3881 75.2149 55.0982 67.4147 51.7503C67.4147 51.7503 75.7798 40.8587 80.8201 41.7334C85.8603 42.6081 95.5461 57.4491 95.5461 57.4491Z" fill="#FF1717" fill-opacity="0.7"/>
<path d="M95.6641 57.935L96.3514 57.7681L95.9648 57.1758L95.5461 57.4491C95.9648 57.1758 95.9648 57.1757 95.9647 57.1756L95.9643 57.175L95.9628 57.1728L95.9573 57.1644L95.936 57.1318C95.9172 57.1032 95.8893 57.061 95.8529 57.006C95.7801 56.8961 95.6728 56.7351 95.5347 56.5302C95.2585 56.1204 94.8586 55.5346 94.3631 54.8291C93.3726 53.4188 91.998 51.5275 90.4638 49.6072C88.9315 47.6891 87.2312 45.731 85.5892 44.1931C84.7682 43.4241 83.9533 42.7522 83.1739 42.2416C82.3998 41.7344 81.6311 41.3667 80.9056 41.2408C79.4627 40.9904 77.8625 41.5862 76.3414 42.5011C74.8029 43.4265 73.2541 44.7345 71.8809 46.0532C70.505 47.3747 69.2904 48.7216 68.4208 49.7368C67.9856 50.2449 67.6359 50.6708 67.3946 50.9703C67.2739 51.12 67.1803 51.2382 67.1167 51.3193C67.0848 51.3598 67.0604 51.3911 67.0439 51.4124L67.025 51.4368L67.0201 51.4432L67.0187 51.445L67.0183 51.4455C67.0182 51.4456 67.0181 51.4457 67.4147 51.7503L67.0181 51.4457L66.6262 51.956L67.2175 52.2097C71.0804 53.8677 73.6663 55.4989 75.8085 57.4977C77.9569 59.5024 79.6807 61.8963 81.8018 65.1223L82.2142 65.7496L82.6341 65.1273C84.2266 62.7667 85.8705 61.3717 87.8978 60.3671C89.9493 59.3505 92.4051 58.726 95.6641 57.935Z" stroke="white" stroke-opacity="0.5"/>
</g>
<g opacity="0.5" filter="url(#filter12_f_3955_6550)">
<path d="M331.546 27.4491C325.052 29.0252 321.494 29.9934 318.22 34.8477C313.973 28.3881 311.215 25.0982 303.415 21.7503C303.415 21.7503 311.78 10.8587 316.82 11.7334C321.86 12.6081 331.546 27.4491 331.546 27.4491Z" fill="#FF1717" fill-opacity="0.7"/>
<path d="M331.664 27.935L332.351 27.7681L331.965 27.1758L331.546 27.4491C331.965 27.1758 331.965 27.1757 331.965 27.1756L331.964 27.175L331.963 27.1728L331.957 27.1644L331.936 27.1318C331.917 27.1032 331.889 27.061 331.853 27.006C331.78 26.8961 331.673 26.7351 331.535 26.5302C331.258 26.1204 330.859 25.5346 330.363 24.8291C329.373 23.4188 327.998 21.5275 326.464 19.6072C324.931 17.6891 323.231 15.731 321.589 14.1931C320.768 13.4241 319.953 12.7522 319.174 12.2416C318.4 11.7344 317.631 11.3667 316.906 11.2408C315.463 10.9904 313.862 11.5862 312.341 12.5011C310.803 13.4265 309.254 14.7345 307.881 16.0532C306.505 17.3747 305.29 18.7216 304.421 19.7368C303.986 20.2449 303.636 20.6708 303.395 20.9703C303.274 21.12 303.18 21.2382 303.117 21.3193C303.085 21.3598 303.06 21.3911 303.044 21.4124L303.025 21.4368L303.02 21.4432L303.019 21.445L303.018 21.4455C303.018 21.4456 303.018 21.4457 303.415 21.7503L303.018 21.4457L302.626 21.956L303.217 22.2097C307.08 23.8677 309.666 25.4989 311.808 27.4977C313.957 29.5024 315.681 31.8963 317.802 35.1223L318.214 35.7496L318.634 35.1273C320.227 32.7667 321.87 31.3717 323.898 30.3671C325.949 29.3505 328.405 28.726 331.664 27.935Z" stroke="white" stroke-opacity="0.5"/>
</g>
<g opacity="0.5" filter="url(#filter13_f_3955_6550)">
<path d="M221.546 53.3717C215.052 51.7956 211.494 50.8274 208.22 45.9731C203.973 52.4327 201.215 55.7226 193.415 59.0705C193.415 59.0705 201.78 69.9621 206.82 69.0874C211.86 68.2127 221.546 53.3717 221.546 53.3717Z" fill="#FFC329" fill-opacity="0.7"/>
<path d="M221.664 52.8858L222.351 53.0527L221.965 53.645L221.546 53.3717C221.965 53.645 221.965 53.6451 221.965 53.6452L221.964 53.6458L221.963 53.648L221.957 53.6564L221.936 53.689C221.917 53.7176 221.889 53.7598 221.853 53.8148C221.78 53.9247 221.673 54.0857 221.535 54.2906C221.258 54.7004 220.859 55.2862 220.363 55.9917C219.373 57.402 217.998 59.2933 216.464 61.2136C214.931 63.1317 213.231 65.0898 211.589 66.6277C210.768 67.3967 209.953 68.0686 209.174 68.5792C208.4 69.0864 207.631 69.4541 206.906 69.58C205.463 69.8304 203.862 69.2346 202.341 68.3197C200.803 67.3943 199.254 66.0863 197.881 64.7676C196.505 63.4461 195.29 62.0992 194.421 61.084C193.986 60.5759 193.636 60.15 193.395 59.8505C193.274 59.7008 193.18 59.5826 193.117 59.5015C193.085 59.461 193.06 59.4297 193.044 59.4084L193.025 59.384L193.02 59.3776L193.019 59.3758L193.018 59.3753C193.018 59.3752 193.018 59.3751 193.415 59.0705L193.018 59.3751L192.626 58.8648L193.217 58.6111C197.08 56.9531 199.666 55.3219 201.808 53.3231C203.957 51.3184 205.681 48.9245 207.802 45.6985L208.214 45.0712L208.634 45.6935C210.227 48.0541 211.87 49.4491 213.898 50.4537C215.949 51.4703 218.405 52.0948 221.664 52.8858Z" stroke="white" stroke-opacity="0.5"/>
</g>
<defs>
<filter id="filter0_f_3955_6550" x="50.5195" y="121.26" width="50.7263" height="46.0605" filterUnits="userSpaceOnUse" color-interpolation-filters="sRGB">
<feFlood flood-opacity="0" result="BackgroundImageFix"/>
<feBlend mode="normal" in="SourceGraphic" in2="BackgroundImageFix" result="shape"/>
<feGaussianBlur stdDeviation="5" result="effect1_foregroundBlur_3955_6550"/>
</filter>
<filter id="filter1_f_3955_6550" x="0.519531" y="80.2603" width="50.7263" height="46.0605" filterUnits="userSpaceOnUse" color-interpolation-filters="sRGB">
<feFlood flood-opacity="0" result="BackgroundImageFix"/>
<feBlend mode="normal" in="SourceGraphic" in2="BackgroundImageFix" result="shape"/>
<feGaussianBlur stdDeviation="5" result="effect1_foregroundBlur_3955_6550"/>
</filter>
<filter id="filter2_f_3955_6550" x="254.52" y="46.2603" width="50.7263" height="46.0605" filterUnits="userSpaceOnUse" color-interpolation-filters="sRGB">
<feFlood flood-opacity="0" result="BackgroundImageFix"/>
<feBlend mode="normal" in="SourceGraphic" in2="BackgroundImageFix" result="shape"/>
<feGaussianBlur stdDeviation="5" result="effect1_foregroundBlur_3955_6550"/>
</filter>
<filter id="filter3_f_3955_6550" x="3.51953" y="278.26" width="50.7263" height="46.0605" filterUnits="userSpaceOnUse" color-interpolation-filters="sRGB">
<feFlood flood-opacity="0" result="BackgroundImageFix"/>
<feBlend mode="normal" in="SourceGraphic" in2="BackgroundImageFix" result="shape"/>
<feGaussianBlur stdDeviation="5" result="effect1_foregroundBlur_3955_6550"/>
</filter>
<filter id="filter4_f_3955_6550" x="62.8218" y="288.527" width="51.1445" height="43.4902" filterUnits="userSpaceOnUse" color-interpolation-filters="sRGB">
<feFlood flood-opacity="0" result="BackgroundImageFix"/>
<feBlend mode="normal" in="SourceGraphic" in2="BackgroundImageFix" result="shape"/>
<feGaussianBlur stdDeviation="5" result="effect1_foregroundBlur_3955_6550"/>
</filter>
<filter id="filter5_f_3955_6550" x="213.838" y="178.169" width="51.3188" height="45.9688" filterUnits="userSpaceOnUse" color-interpolation-filters="sRGB">
<feFlood flood-opacity="0" result="BackgroundImageFix"/>
<feBlend mode="normal" in="SourceGraphic" in2="BackgroundImageFix" result="shape"/>
<feGaussianBlur stdDeviation="5" result="effect1_foregroundBlur_3955_6550"/>
</filter>
<filter id="filter6_f_3955_6550" x="243.838" y="326.169" width="51.3188" height="45.9688" filterUnits="userSpaceOnUse" color-interpolation-filters="sRGB">
<feFlood flood-opacity="0" result="BackgroundImageFix"/>
<feBlend mode="normal" in="SourceGraphic" in2="BackgroundImageFix" result="shape"/>
<feGaussianBlur stdDeviation="5" result="effect1_foregroundBlur_3955_6550"/>
</filter>
<filter id="filter7_f_3955_6550" x="39.8379" y="213.683" width="51.3188" height="45.9688" filterUnits="userSpaceOnUse" color-interpolation-filters="sRGB">
<feFlood flood-opacity="0" result="BackgroundImageFix"/>
<feBlend mode="normal" in="SourceGraphic" in2="BackgroundImageFix" result="shape"/>
<feGaussianBlur stdDeviation="5" result="effect1_foregroundBlur_3955_6550"/>
</filter>
<filter id="filter8_f_3955_6550" x="261.838" y="98.1689" width="51.3188" height="45.9688" filterUnits="userSpaceOnUse" color-interpolation-filters="sRGB">
<feFlood flood-opacity="0" result="BackgroundImageFix"/>
<feBlend mode="normal" in="SourceGraphic" in2="BackgroundImageFix" result="shape"/>
<feGaussianBlur stdDeviation="5" result="effect1_foregroundBlur_3955_6550"/>
</filter>
<filter id="filter9_f_3955_6550" x="11.8379" y="323.169" width="51.3188" height="45.9688" filterUnits="userSpaceOnUse" color-interpolation-filters="sRGB">
<feFlood flood-opacity="0" result="BackgroundImageFix"/>
<feBlend mode="normal" in="SourceGraphic" in2="BackgroundImageFix" result="shape"/>
<feGaussianBlur stdDeviation="5" result="effect1_foregroundBlur_3955_6550"/>
</filter>
<filter id="filter10_f_3955_6550" x="249.838" y="226.169" width="51.3188" height="45.9688" filterUnits="userSpaceOnUse" color-interpolation-filters="sRGB">
<feFlood flood-opacity="0" result="BackgroundImageFix"/>
<feBlend mode="normal" in="SourceGraphic" in2="BackgroundImageFix" result="shape"/>
<feGaussianBlur stdDeviation="5" result="effect1_foregroundBlur_3955_6550"/>
</filter>
<filter id="filter11_f_3955_6550" x="55.8379" y="30.6831" width="51.3188" height="45.9688" filterUnits="userSpaceOnUse" color-interpolation-filters="sRGB">
<feFlood flood-opacity="0" result="BackgroundImageFix"/>
<feBlend mode="normal" in="SourceGraphic" in2="BackgroundImageFix" result="shape"/>
<feGaussianBlur stdDeviation="5" result="effect1_foregroundBlur_3955_6550"/>
</filter>
<filter id="filter12_f_3955_6550" x="291.838" y="0.683105" width="51.3188" height="45.9688" filterUnits="userSpaceOnUse" color-interpolation-filters="sRGB">
<feFlood flood-opacity="0" result="BackgroundImageFix"/>
<feBlend mode="normal" in="SourceGraphic" in2="BackgroundImageFix" result="shape"/>
<feGaussianBlur stdDeviation="5" result="effect1_foregroundBlur_3955_6550"/>
</filter>
<filter id="filter13_f_3955_6550" x="181.838" y="34.1689" width="51.3188" height="45.9688" filterUnits="userSpaceOnUse" color-interpolation-filters="sRGB">
<feFlood flood-opacity="0" result="BackgroundImageFix"/>
<feBlend mode="normal" in="SourceGraphic" in2="BackgroundImageFix" result="shape"/>
<feGaussianBlur stdDeviation="5" result="effect1_foregroundBlur_3955_6550"/>
</filter>
</defs>
</svg>
