<svg width="314" height="348" viewBox="0 0 314 348" fill="none" xmlns="http://www.w3.org/2000/svg">
<g opacity="0.5" filter="url(#filter0_f_7763_22711)">
<path d="M62.1521 110.936C68.7637 109.882 72.3949 109.199 76.0632 104.557C79.7709 111.452 82.2528 115.013 89.7632 119.054C89.7632 119.054 80.517 129.384 75.5579 128.077C70.5989 126.771 62.1521 110.936 62.1521 110.936Z" fill="#FFC329" fill-opacity="0.7"/>
<path d="M62.0765 110.438L61.3807 110.549L61.7151 111.176L62.1521 110.936C61.7151 111.176 61.7152 111.176 61.7153 111.176L61.7156 111.177L61.7168 111.179L61.7216 111.188L61.7403 111.223C61.7567 111.254 61.781 111.299 61.8128 111.357C61.8765 111.475 61.9703 111.647 62.0913 111.866C62.3333 112.304 62.6842 112.93 63.1207 113.686C63.9933 115.196 65.2096 117.226 66.5829 119.298C67.9545 121.368 69.4904 123.492 71.0025 125.186C71.7585 126.033 72.5163 126.781 73.2518 127.363C73.9825 127.941 74.7188 128.377 75.4316 128.564C76.8497 128.938 78.4951 128.469 80.0888 127.669C81.7004 126.861 83.3539 125.666 84.833 124.445C86.3152 123.222 87.6383 121.96 88.5899 121.005C89.0661 120.527 89.4502 120.125 89.7156 119.842C89.8484 119.7 89.9515 119.588 90.0218 119.511C90.0569 119.473 90.0838 119.443 90.1021 119.423L90.1229 119.4L90.1284 119.394L90.1299 119.392L90.1303 119.392C90.1304 119.392 90.1305 119.392 89.7632 119.054L90.1305 119.392L90.5598 118.912L89.9971 118.609C86.2773 116.608 83.8297 114.74 81.8553 112.537C79.8751 110.327 78.3511 107.759 76.4994 104.315L76.143 103.652L75.676 104.243C73.8919 106.5 72.136 107.776 70.0293 108.624C67.8976 109.482 65.3945 109.91 62.0765 110.438Z" stroke="white" stroke-opacity="0.5"/>
</g>
<g opacity="0.5" filter="url(#filter1_f_7763_22711)">
<path d="M12.074 69.2818C18.6856 68.228 22.3168 67.5447 25.9851 62.9031C29.6928 69.7981 32.1747 73.3593 39.6851 77.4003C39.6851 77.4003 30.4389 87.7297 25.4798 86.4233C20.5207 85.1169 12.074 69.2818 12.074 69.2818Z" fill="#298CFF" fill-opacity="0.7"/>
<path d="M11.9984 68.7845L11.3026 68.8954L11.637 69.5223L12.074 69.2818C11.637 69.5223 11.637 69.5224 11.6371 69.5225L11.6375 69.5232L11.6387 69.5255L11.6435 69.5345L11.6622 69.5692C11.6786 69.5997 11.7029 69.6448 11.7347 69.7035C11.7984 69.8209 11.8922 69.9928 12.0132 70.2118C12.2551 70.6497 12.606 71.2762 13.0425 72.0318C13.9152 73.5424 15.1315 75.572 16.5047 77.6442C17.8764 79.7141 19.4122 81.8384 20.9243 83.5322C21.6804 84.3792 22.4382 85.1272 23.1737 85.7089C23.9044 86.2868 24.6407 86.7228 25.3535 86.9105C26.7715 87.2841 28.417 86.8151 30.0106 86.0156C31.6223 85.2071 33.2758 84.0122 34.7549 82.7917C36.2371 81.5686 37.5602 80.3062 38.5118 79.3509C38.988 78.8729 39.372 78.4708 39.6375 78.1878C39.7703 78.0462 39.8734 77.9344 39.9437 77.8576C39.9788 77.8192 40.0057 77.7896 40.0239 77.7694L40.0448 77.7463L40.0503 77.7402L40.0518 77.7386L40.0522 77.7381C40.0523 77.738 40.0524 77.7379 39.6851 77.4003L40.0524 77.7379L40.4817 77.2582L39.919 76.9555C36.1992 74.9541 33.7515 73.0862 31.7771 70.8828C29.797 68.6731 28.273 66.1047 26.4213 62.6611L26.0648 61.9983L25.5979 62.5892C23.8138 64.8466 22.0579 66.1221 19.9512 66.9701C17.8195 67.8283 15.3164 68.2557 11.9984 68.7845Z" stroke="white" stroke-opacity="0.5"/>
</g>
<g opacity="0.5" filter="url(#filter2_f_7763_22711)">
<path d="M266.47 34.7398C273.082 33.686 276.713 33.0027 280.382 28.3611C284.089 35.2561 286.571 38.8173 294.082 42.8583C294.082 42.8583 284.835 53.1877 279.876 51.8813C274.917 50.5749 266.47 34.7398 266.47 34.7398Z" fill="#8ADC02" fill-opacity="0.7"/>
<path d="M266.395 34.2425L265.699 34.3534L266.033 34.9803L266.47 34.7398C266.033 34.9803 266.034 34.9804 266.034 34.9805L266.034 34.9812L266.035 34.9835L266.04 34.9925L266.059 35.0272C266.075 35.0577 266.099 35.1028 266.131 35.1615C266.195 35.2789 266.289 35.4508 266.41 35.6698C266.652 36.1077 267.003 36.7342 267.439 37.4898C268.312 39.0004 269.528 41.03 270.901 43.1022C272.273 45.1721 273.809 47.2964 275.321 48.9902C276.077 49.8372 276.835 50.5852 277.57 51.1669C278.301 51.7448 279.037 52.1808 279.75 52.3685C281.168 52.7421 282.813 52.2731 284.407 51.4736C286.019 50.6651 287.672 49.4702 289.151 48.2497C290.634 47.0266 291.957 45.7642 292.908 44.8089C293.384 44.3309 293.769 43.9288 294.034 43.6458C294.167 43.5042 294.27 43.3924 294.34 43.3156C294.375 43.2772 294.402 43.2476 294.42 43.2274L294.441 43.2043L294.447 43.1982L294.448 43.1966L294.449 43.1961C294.449 43.196 294.449 43.1959 294.082 42.8583L294.449 43.1959L294.878 42.7163L294.315 42.4135C290.596 40.4121 288.148 38.5442 286.174 36.3409C284.193 34.1311 282.67 31.5627 280.818 28.1192L280.461 27.4563L279.994 28.0472C278.21 30.3046 276.454 31.5801 274.348 32.4282C272.216 33.2863 269.713 33.7137 266.395 34.2425Z" stroke="white" stroke-opacity="0.5"/>
</g>
<g opacity="0.5" filter="url(#filter3_f_7763_22711)">
<path d="M15.0786 270.439C21.6902 269.385 25.3214 268.702 28.9897 264.06C32.6974 270.955 35.1793 274.517 42.6897 278.557C42.6897 278.557 33.4435 288.887 28.4844 287.581C23.5254 286.274 15.0786 270.439 15.0786 270.439Z" fill="#8ADC02" fill-opacity="0.7"/>
<path d="M15.003 269.942L14.3073 270.053L14.6416 270.679L15.0786 270.439C14.6416 270.679 14.6417 270.68 14.6418 270.68L14.6421 270.68L14.6434 270.683L14.6482 270.692L14.6668 270.726C14.6832 270.757 14.7075 270.802 14.7394 270.861C14.803 270.978 14.8968 271.15 15.0178 271.369C15.2598 271.807 15.6107 272.433 16.0472 273.189C16.9198 274.7 18.1362 276.729 19.5094 278.801C20.881 280.871 22.4169 282.996 23.929 284.689C24.685 285.536 25.4429 286.284 26.1784 286.866C26.909 287.444 27.6453 287.88 28.3581 288.068C29.7762 288.441 31.4216 287.972 33.0153 287.173C34.627 286.364 36.2805 285.169 37.7595 283.949C39.2417 282.726 40.5648 281.463 41.5164 280.508C41.9926 280.03 42.3767 279.628 42.6422 279.345C42.7749 279.203 42.8781 279.092 42.9483 279.015C42.9834 278.976 43.0103 278.947 43.0286 278.927L43.0494 278.904L43.0549 278.897L43.0564 278.896L43.0568 278.895C43.0569 278.895 43.057 278.895 42.6897 278.557L43.057 278.895L43.4863 278.415L42.9236 278.113C39.2038 276.111 36.7562 274.243 34.7818 272.04C32.8016 269.83 31.2777 267.262 29.4259 263.818L29.0695 263.156L28.6025 263.746C26.8184 266.004 25.0625 267.279 22.9559 268.127C20.8241 268.986 18.321 269.413 15.003 269.942Z" stroke="white" stroke-opacity="0.5"/>
</g>
<g opacity="0.5" filter="url(#filter4_f_7763_22711)">
<path d="M211.385 262.312C217.996 261.258 221.627 260.574 225.296 255.933C229.003 262.828 231.485 266.389 238.996 270.43C238.996 270.43 229.749 280.76 224.79 279.453C219.831 278.147 211.385 262.312 211.385 262.312Z" fill="#8ADC02" fill-opacity="0.7"/>
<path d="M211.309 261.814L210.613 261.925L210.948 262.552L211.385 262.312C210.948 262.552 210.948 262.552 210.948 262.552L210.948 262.553L210.949 262.555L210.954 262.564L210.973 262.599C210.989 262.63 211.013 262.675 211.045 262.733C211.109 262.851 211.203 263.023 211.324 263.242C211.566 263.679 211.917 264.306 212.353 265.062C213.226 266.572 214.442 268.602 215.815 270.674C217.187 272.744 218.723 274.868 220.235 276.562C220.991 277.409 221.749 278.157 222.484 278.739C223.215 279.317 223.951 279.753 224.664 279.94C226.082 280.314 227.728 279.845 229.321 279.045C230.933 278.237 232.586 277.042 234.065 275.821C235.548 274.598 236.871 273.336 237.822 272.381C238.299 271.903 238.683 271.501 238.948 271.218C239.081 271.076 239.184 270.964 239.254 270.887C239.289 270.849 239.316 270.819 239.334 270.799L239.355 270.776L239.361 270.77L239.362 270.768L239.363 270.768C239.363 270.768 239.363 270.768 238.996 270.43L239.363 270.768L239.792 270.288L239.23 269.985C235.51 267.984 233.062 266.116 231.088 263.913C229.108 261.703 227.584 259.134 225.732 255.691L225.375 255.028L224.908 255.619C223.124 257.876 221.368 259.152 219.262 260C217.13 260.858 214.627 261.285 211.309 261.814Z" stroke="white" stroke-opacity="0.5"/>
</g>
<g opacity="0.5" filter="url(#filter5_f_7763_22711)">
<path d="M74.653 286.566C80.0231 282.515 82.9244 280.197 84.044 274.357C90.4874 278.712 94.3173 280.694 102.819 280.729C102.819 280.729 99.3688 294.235 94.3796 295.418C89.3905 296.6 74.653 286.566 74.653 286.566Z" fill="#9747FF" fill-opacity="0.7"/>
<path d="M74.3527 286.164L73.794 286.585L74.3762 286.981L74.653 286.566C74.3762 286.981 74.3763 286.982 74.3764 286.982L74.377 286.982L74.3792 286.984L74.3876 286.989L74.42 287.011C74.4486 287.03 74.4908 287.059 74.5459 287.096C74.656 287.17 74.8179 287.278 75.0254 287.415C75.4405 287.688 76.0384 288.077 76.7713 288.54C78.2365 289.466 80.2439 290.689 82.4099 291.876C84.5733 293.062 86.9073 294.218 89.0231 295.004C90.0811 295.398 91.0954 295.703 92.0139 295.871C92.9264 296.038 93.7791 296.077 94.4969 295.906C95.9236 295.568 97.1642 294.377 98.2077 292.919C99.2633 291.444 100.179 289.607 100.929 287.829C101.68 286.047 102.272 284.306 102.677 283.011C102.879 282.364 103.035 281.827 103.14 281.451C103.193 281.263 103.233 281.115 103.26 281.014C103.273 280.964 103.284 280.925 103.29 280.898L103.298 280.868L103.3 280.86L103.301 280.858L103.301 280.857C103.301 280.857 103.301 280.857 102.819 280.729L103.301 280.857L103.461 280.229L102.817 280.227C98.6071 280.21 95.5849 279.711 92.8281 278.692C90.0632 277.67 87.5374 276.116 84.3194 273.941L83.6966 273.52L83.555 274.259C83.0102 277.1 82.0398 279.059 80.5625 280.805C79.0681 282.571 77.0475 284.13 74.3527 286.164Z" stroke="white" stroke-opacity="0.5"/>
</g>
<g opacity="0.5" filter="url(#filter6_f_7763_22711)">
<path d="M269.95 169.897C263.446 168.296 259.882 167.312 256.602 162.38C252.349 168.943 249.587 172.285 241.774 175.687C241.774 175.687 250.152 186.752 255.201 185.863C260.249 184.974 269.95 169.897 269.95 169.897Z" fill="#FF1717" fill-opacity="0.7"/>
<path d="M270.066 169.408L270.749 169.576L270.365 170.172L269.95 169.897C270.365 170.172 270.365 170.172 270.365 170.173L270.365 170.173L270.363 170.175L270.358 170.184L270.337 170.217C270.318 170.246 270.29 170.289 270.253 170.345C270.18 170.456 270.073 170.62 269.935 170.828C269.658 171.244 269.258 171.84 268.761 172.556C267.769 173.989 266.393 175.91 264.856 177.861C263.321 179.81 261.619 181.799 259.974 183.361C259.152 184.142 258.336 184.825 257.556 185.343C256.781 185.858 256.012 186.231 255.286 186.359C253.842 186.613 252.241 186.009 250.717 185.079C249.177 184.139 247.626 182.811 246.251 181.471C244.873 180.129 243.656 178.76 242.785 177.729C242.349 177.213 241.999 176.78 241.758 176.476C241.637 176.324 241.543 176.204 241.479 176.121C241.447 176.08 241.423 176.048 241.406 176.027L241.387 176.002L241.383 175.996L241.381 175.994L241.381 175.993C241.381 175.993 241.381 175.993 241.774 175.687L241.381 175.993L240.992 175.479L241.578 175.224C245.447 173.539 248.038 171.882 250.184 169.851C252.336 167.813 254.063 165.381 256.187 162.103L256.597 161.472L257.014 162.099C258.609 164.498 260.256 165.915 262.287 166.936C264.342 167.969 266.802 168.604 270.066 169.408Z" stroke="white" stroke-opacity="0.5"/>
</g>
<g opacity="0.5" filter="url(#filter7_f_7763_22711)">
<path d="M283.972 320.257C277.468 318.655 273.904 317.672 270.624 312.74C266.371 319.303 263.609 322.645 255.796 326.046C255.796 326.046 264.174 337.112 269.223 336.223C274.271 335.334 283.972 320.257 283.972 320.257Z" fill="#298CFF" fill-opacity="0.7"/>
<path d="M284.088 319.767L284.771 319.936L284.387 320.532L283.972 320.257C284.387 320.532 284.387 320.532 284.387 320.532L284.387 320.533L284.385 320.535L284.38 320.544L284.358 320.577C284.34 320.606 284.312 320.649 284.275 320.705C284.202 320.816 284.095 320.98 283.957 321.188C283.68 321.604 283.279 322.199 282.783 322.916C281.791 324.349 280.415 326.27 278.878 328.221C277.343 330.17 275.641 332.159 273.996 333.721C273.174 334.502 272.358 335.185 271.578 335.703C270.803 336.218 270.034 336.591 269.308 336.719C267.864 336.973 266.263 336.369 264.739 335.439C263.199 334.499 261.648 333.171 260.273 331.831C258.895 330.488 257.678 329.12 256.807 328.089C256.371 327.573 256.021 327.14 255.78 326.836C255.659 326.684 255.565 326.564 255.501 326.481C255.469 326.44 255.445 326.408 255.428 326.387L255.409 326.362L255.405 326.355L255.403 326.354L255.403 326.353C255.403 326.353 255.403 326.353 255.796 326.046L255.403 326.353L255.014 325.839L255.6 325.584C259.469 323.899 262.06 322.242 264.206 320.21C266.358 318.173 268.085 315.741 270.209 312.463L270.619 311.832L271.036 312.459C272.631 314.858 274.278 316.275 276.309 317.296C278.364 318.329 280.824 318.964 284.088 319.767Z" stroke="white" stroke-opacity="0.5"/>
</g>
<g opacity="0.5" filter="url(#filter8_f_7763_22711)">
<path d="M63.6281 213.661C57.1242 215.263 53.5606 216.246 50.2807 221.178C46.0271 214.615 43.2651 211.273 35.4527 207.872C35.4527 207.872 43.8309 196.806 48.879 197.695C53.9272 198.584 63.6281 213.661 63.6281 213.661Z" fill="#FF1717" fill-opacity="0.7"/>
<path d="M63.7447 214.151L64.4277 213.982L64.0439 213.386L63.6281 213.661C64.0439 213.386 64.0438 213.386 64.0437 213.386L64.0433 213.385L64.0419 213.383L64.0364 213.374L64.015 213.341C63.9961 213.312 63.9683 213.269 63.9318 213.213C63.8588 213.102 63.7514 212.938 63.6131 212.73C63.3365 212.314 62.936 211.719 62.4398 211.002C61.4477 209.569 60.071 207.648 58.5346 205.697C56.9999 203.748 55.2971 201.759 53.6528 200.197C52.8306 199.416 52.0147 198.733 51.2345 198.215C50.4594 197.7 49.6901 197.327 48.9644 197.199C47.5208 196.945 45.9191 197.549 44.3959 198.479C42.8553 199.419 41.3043 200.747 39.9291 202.087C38.5511 203.43 37.3347 204.798 36.4638 205.829C36.0279 206.345 35.6777 206.778 35.4361 207.082C35.3153 207.234 35.2215 207.354 35.1577 207.437C35.1258 207.478 35.1014 207.51 35.0849 207.531L35.066 207.556L35.061 207.563L35.0597 207.564L35.0593 207.565C35.0592 207.565 35.0591 207.565 35.4527 207.872L35.0591 207.565L34.67 208.079L35.2565 208.334C39.1258 210.019 41.7163 211.676 43.8624 213.708C46.0147 215.745 47.7414 218.177 49.8658 221.455L50.2752 222.086L50.6922 221.459C52.2875 219.06 53.9344 217.643 55.9655 216.622C58.0207 215.589 60.4808 214.954 63.7447 214.151Z" stroke="white" stroke-opacity="0.5"/>
</g>
<g opacity="0.5" filter="url(#filter9_f_7763_22711)">
<path d="M302 88.6214C295.496 87.0202 291.932 86.0365 288.652 81.1049C284.399 87.6675 281.637 91.0098 273.824 94.4111C273.824 94.4111 282.202 105.476 287.251 104.588C292.299 103.699 302 88.6214 302 88.6214Z" fill="#9747FF" fill-opacity="0.7"/>
<path d="M302.116 88.1321L302.799 88.3003L302.415 88.8969L302 88.6214C302.415 88.8969 302.415 88.897 302.415 88.8972L302.415 88.8978L302.413 88.9L302.408 88.9085L302.387 88.9416C302.368 88.9707 302.34 89.0136 302.303 89.0694C302.23 89.1811 302.123 89.3446 301.985 89.5527C301.708 89.9691 301.308 90.5642 300.811 91.2809C299.819 92.7136 298.443 94.635 296.906 96.5858C295.371 98.5344 293.669 100.524 292.024 102.086C291.202 102.867 290.386 103.549 289.606 104.068C288.831 104.583 288.062 104.956 287.336 105.084C285.892 105.338 284.291 104.733 282.767 103.804C281.227 102.864 279.676 101.535 278.301 100.196C276.923 98.8532 275.706 97.4849 274.835 96.4536C274.4 95.9375 274.049 95.5048 273.808 95.2005C273.687 95.0484 273.593 94.9284 273.529 94.846C273.497 94.8048 273.473 94.7731 273.456 94.7514L273.438 94.7267L273.433 94.7201L273.431 94.7184L273.431 94.7179C273.431 94.7177 273.431 94.7176 273.824 94.4111L273.431 94.7176L273.042 94.2037L273.628 93.9484C277.497 92.2638 280.088 90.6064 282.234 88.5752C284.386 86.5381 286.113 84.1056 288.237 80.828L288.647 80.1965L289.064 80.8236C290.659 83.2223 292.306 84.64 294.337 85.6609C296.392 86.6939 298.852 87.3285 302.116 88.1321Z" stroke="white" stroke-opacity="0.5"/>
</g>
<g opacity="0.5" filter="url(#filter10_f_7763_22711)">
<path d="M51.6095 317.209C45.1056 315.608 41.5421 314.624 38.2622 309.692C34.0085 316.255 31.2465 319.597 23.4341 322.999C23.4341 322.999 31.8123 334.064 36.8605 333.175C41.9086 332.286 51.6095 317.209 51.6095 317.209Z" fill="#FFC329" fill-opacity="0.7"/>
<path d="M51.7262 316.72L52.4092 316.888L52.0253 317.484L51.6095 317.209C52.0253 317.484 52.0253 317.484 52.0252 317.485L52.0248 317.485L52.0233 317.487L52.0178 317.496L51.9964 317.529C51.9776 317.558 51.9497 317.601 51.9132 317.657C51.8403 317.768 51.7329 317.932 51.5945 318.14C51.3179 318.556 50.9174 319.152 50.4212 319.868C49.4291 321.301 48.0525 323.222 46.516 325.173C44.9813 327.122 43.2785 329.111 41.6342 330.673C40.8121 331.454 39.9962 332.137 39.2159 332.655C38.4408 333.17 37.6715 333.543 36.9458 333.671C35.5023 333.925 33.9006 333.321 32.3773 332.391C30.8367 331.451 29.2857 330.123 27.9105 328.783C26.5325 327.441 25.3162 326.072 24.4452 325.041C24.0094 324.525 23.6592 324.092 23.4175 323.788C23.2967 323.636 23.203 323.516 23.1392 323.433C23.1073 323.392 23.0829 323.36 23.0663 323.339L23.0474 323.314L23.0424 323.308L23.0411 323.306L23.0407 323.305C23.0406 323.305 23.0405 323.305 23.4341 322.999L23.0405 323.305L22.6514 322.791L23.238 322.536C27.1072 320.851 29.6978 319.194 31.8438 317.163C33.9961 315.125 35.7229 312.693 37.8473 309.415L38.2566 308.784L38.6737 309.411C40.269 311.81 41.9159 313.227 43.947 314.248C46.0021 315.281 48.4623 315.916 51.7262 316.72Z" stroke="white" stroke-opacity="0.5"/>
</g>
<g opacity="0.5" filter="url(#filter11_f_7763_22711)">
<path d="M289.981 218.662C283.477 217.061 279.913 216.078 276.634 211.146C272.38 217.709 269.618 221.051 261.805 224.452C261.805 224.452 270.184 235.517 275.232 234.629C280.28 233.74 289.981 218.662 289.981 218.662Z" fill="#FFC329" fill-opacity="0.7"/>
<path d="M290.098 218.173L290.781 218.341L290.397 218.938L289.981 218.662C290.397 218.938 290.397 218.938 290.396 218.938L290.396 218.939L290.395 218.941L290.389 218.95L290.368 218.983C290.349 219.012 290.321 219.055 290.285 219.11C290.212 219.222 290.104 219.386 289.966 219.594C289.689 220.01 289.289 220.605 288.793 221.322C287.8 222.755 286.424 224.676 284.887 226.627C283.353 228.575 281.65 230.565 280.006 232.127C279.183 232.908 278.367 233.59 277.587 234.109C276.812 234.624 276.043 234.997 275.317 235.125C273.874 235.379 272.272 234.774 270.749 233.845C269.208 232.905 267.657 231.576 266.282 230.237C264.904 228.894 263.688 227.526 262.817 226.495C262.381 225.978 262.031 225.546 261.789 225.242C261.668 225.089 261.574 224.969 261.511 224.887C261.479 224.846 261.454 224.814 261.438 224.792L261.419 224.768L261.414 224.761L261.412 224.759L261.412 224.759C261.412 224.759 261.412 224.759 261.805 224.452L261.412 224.759L261.023 224.245L261.609 223.989C265.479 222.305 268.069 220.647 270.215 218.616C272.367 216.579 274.094 214.147 276.219 210.869L276.628 210.238L277.045 210.865C278.64 213.263 280.287 214.681 282.318 215.702C284.373 216.735 286.834 217.37 290.098 218.173Z" stroke="white" stroke-opacity="0.5"/>
</g>
<g opacity="0.5" filter="url(#filter12_f_7763_22711)">
<path d="M95.6781 27.7433C89.1742 29.3445 85.6107 30.3282 82.3308 35.2598C78.0771 28.6973 75.3151 25.3549 67.5027 21.9536C67.5027 21.9536 75.8809 10.8884 80.9291 11.7771C85.9772 12.6657 95.6781 27.7433 95.6781 27.7433Z" fill="#FF1717" fill-opacity="0.7"/>
<path d="M95.7948 28.2326L96.4778 28.0645L96.0939 27.4678L95.6781 27.7433C96.0939 27.4678 96.0939 27.4677 96.0938 27.4676L96.0934 27.467L96.0919 27.4647L96.0864 27.4562L96.065 27.4231C96.0462 27.3941 96.0183 27.3512 95.9818 27.2954C95.9089 27.1837 95.8015 27.0202 95.6631 26.812C95.3865 26.3957 94.986 25.8006 94.4898 25.0839C93.4977 23.6511 92.1211 21.7297 90.5846 19.7789C89.0499 17.8303 87.3471 15.8412 85.7028 14.279C84.8807 13.4979 84.0648 12.8155 83.2845 12.297C82.5094 11.7819 81.7401 11.4087 81.0144 11.2809C79.5709 11.0268 77.9692 11.6314 76.4459 12.5608C74.9053 13.5008 73.3543 14.8294 71.9791 16.1691C70.6011 17.5115 69.3848 18.8799 68.5138 19.9112C68.078 20.4273 67.7278 20.86 67.4861 21.1642C67.3653 21.3163 67.2716 21.4364 67.2078 21.5187C67.1759 21.5599 67.1515 21.5917 67.1349 21.6133L67.116 21.6381L67.111 21.6446L67.1097 21.6464L67.1093 21.6469C67.1092 21.647 67.1091 21.6471 67.5027 21.9536L67.1091 21.6471L66.7201 22.161L67.3066 22.4164C71.1759 24.1009 73.7664 25.7584 75.9124 27.7896C78.0647 29.8267 79.7915 32.2592 81.9159 35.5367L82.3252 36.1682L82.7423 35.5412C84.3376 33.1424 85.9845 31.7247 88.0156 30.7038C90.0707 29.6708 92.5309 29.0362 95.7948 28.2326Z" stroke="white" stroke-opacity="0.5"/>
</g>
<g opacity="0.5" filter="url(#filter13_f_7763_22711)">
<path d="M221.875 23.6009C215.371 21.9997 211.807 21.016 208.527 16.0844C204.274 22.647 201.512 25.9893 193.699 29.3906C193.699 29.3906 202.077 40.4558 207.126 39.5672C212.174 38.6785 221.875 23.6009 221.875 23.6009Z" fill="#FFC329" fill-opacity="0.7"/>
<path d="M221.991 23.1116L222.674 23.2798L222.29 23.8764L221.875 23.6009C222.29 23.8764 222.29 23.8765 222.29 23.8767L222.29 23.8773L222.288 23.8795L222.283 23.888L222.262 23.9211C222.243 23.9502 222.215 23.993 222.178 24.0489C222.105 24.1606 221.998 24.3241 221.86 24.5322C221.583 24.9485 221.183 25.5437 220.686 26.2603C219.694 27.6931 218.318 29.6145 216.781 31.5653C215.246 33.5139 213.544 35.503 211.899 37.0652C211.077 37.8463 210.261 38.5288 209.481 39.0473C208.706 39.5623 207.937 39.9355 207.211 40.0633C205.767 40.3174 204.166 39.7128 202.642 38.7834C201.102 37.8434 199.551 36.5148 198.176 35.1751C196.798 33.8327 195.581 32.4644 194.71 31.433C194.275 30.917 193.924 30.4843 193.683 30.18C193.562 30.0279 193.468 29.9079 193.404 29.8255C193.372 29.7843 193.348 29.7526 193.331 29.7309L193.313 29.7062L193.308 29.6996L193.306 29.6979L193.306 29.6973C193.306 29.6972 193.306 29.6971 193.699 29.3906L193.306 29.6971L192.917 29.1832L193.503 28.9279C197.372 27.2433 199.963 25.5859 202.109 23.5547C204.261 21.5176 205.988 19.0851 208.112 15.8075L208.522 15.176L208.939 15.8031C210.534 18.2018 212.181 19.6195 214.212 20.6404C216.267 21.6734 218.727 22.308 221.991 23.1116Z" stroke="white" stroke-opacity="0.5"/>
</g>
<defs>
<filter id="filter0_f_7763_22711" x="50.6094" y="92.7471" width="50.7471" height="46.4512" filterUnits="userSpaceOnUse" color-interpolation-filters="sRGB">
<feFlood flood-opacity="0" result="BackgroundImageFix"/>
<feBlend mode="normal" in="SourceGraphic" in2="BackgroundImageFix" result="shape"/>
<feGaussianBlur stdDeviation="5" result="effect1_foregroundBlur_7763_22711"/>
</filter>
<filter id="filter1_f_7763_22711" x="0.53125" y="51.0933" width="50.7471" height="46.4512" filterUnits="userSpaceOnUse" color-interpolation-filters="sRGB">
<feFlood flood-opacity="0" result="BackgroundImageFix"/>
<feBlend mode="normal" in="SourceGraphic" in2="BackgroundImageFix" result="shape"/>
<feGaussianBlur stdDeviation="5" result="effect1_foregroundBlur_7763_22711"/>
</filter>
<filter id="filter2_f_7763_22711" x="254.928" y="16.5513" width="50.7471" height="46.4512" filterUnits="userSpaceOnUse" color-interpolation-filters="sRGB">
<feFlood flood-opacity="0" result="BackgroundImageFix"/>
<feBlend mode="normal" in="SourceGraphic" in2="BackgroundImageFix" result="shape"/>
<feGaussianBlur stdDeviation="5" result="effect1_foregroundBlur_7763_22711"/>
</filter>
<filter id="filter3_f_7763_22711" x="3.53589" y="252.25" width="50.7471" height="46.4512" filterUnits="userSpaceOnUse" color-interpolation-filters="sRGB">
<feFlood flood-opacity="0" result="BackgroundImageFix"/>
<feBlend mode="normal" in="SourceGraphic" in2="BackgroundImageFix" result="shape"/>
<feGaussianBlur stdDeviation="5" result="effect1_foregroundBlur_7763_22711"/>
</filter>
<filter id="filter4_f_7763_22711" x="199.842" y="244.123" width="50.7471" height="46.4512" filterUnits="userSpaceOnUse" color-interpolation-filters="sRGB">
<feFlood flood-opacity="0" result="BackgroundImageFix"/>
<feBlend mode="normal" in="SourceGraphic" in2="BackgroundImageFix" result="shape"/>
<feGaussianBlur stdDeviation="5" result="effect1_foregroundBlur_7763_22711"/>
</filter>
<filter id="filter5_f_7763_22711" x="62.9351" y="262.683" width="51.1692" height="43.8359" filterUnits="userSpaceOnUse" color-interpolation-filters="sRGB">
<feFlood flood-opacity="0" result="BackgroundImageFix"/>
<feBlend mode="normal" in="SourceGraphic" in2="BackgroundImageFix" result="shape"/>
<feGaussianBlur stdDeviation="5" result="effect1_foregroundBlur_7763_22711"/>
</filter>
<filter id="filter6_f_7763_22711" x="230.209" y="150.563" width="51.3403" height="46.3574" filterUnits="userSpaceOnUse" color-interpolation-filters="sRGB">
<feFlood flood-opacity="0" result="BackgroundImageFix"/>
<feBlend mode="normal" in="SourceGraphic" in2="BackgroundImageFix" result="shape"/>
<feGaussianBlur stdDeviation="5" result="effect1_foregroundBlur_7763_22711"/>
</filter>
<filter id="filter7_f_7763_22711" x="244.231" y="300.923" width="51.3403" height="46.3574" filterUnits="userSpaceOnUse" color-interpolation-filters="sRGB">
<feFlood flood-opacity="0" result="BackgroundImageFix"/>
<feBlend mode="normal" in="SourceGraphic" in2="BackgroundImageFix" result="shape"/>
<feGaussianBlur stdDeviation="5" result="effect1_foregroundBlur_7763_22711"/>
</filter>
<filter id="filter8_f_7763_22711" x="23.8872" y="186.637" width="51.3403" height="46.3574" filterUnits="userSpaceOnUse" color-interpolation-filters="sRGB">
<feFlood flood-opacity="0" result="BackgroundImageFix"/>
<feBlend mode="normal" in="SourceGraphic" in2="BackgroundImageFix" result="shape"/>
<feGaussianBlur stdDeviation="5" result="effect1_foregroundBlur_7763_22711"/>
</filter>
<filter id="filter9_f_7763_22711" x="262.259" y="69.2881" width="51.3403" height="46.3574" filterUnits="userSpaceOnUse" color-interpolation-filters="sRGB">
<feFlood flood-opacity="0" result="BackgroundImageFix"/>
<feBlend mode="normal" in="SourceGraphic" in2="BackgroundImageFix" result="shape"/>
<feGaussianBlur stdDeviation="5" result="effect1_foregroundBlur_7763_22711"/>
</filter>
<filter id="filter10_f_7763_22711" x="11.8687" y="297.875" width="51.3403" height="46.3574" filterUnits="userSpaceOnUse" color-interpolation-filters="sRGB">
<feFlood flood-opacity="0" result="BackgroundImageFix"/>
<feBlend mode="normal" in="SourceGraphic" in2="BackgroundImageFix" result="shape"/>
<feGaussianBlur stdDeviation="5" result="effect1_foregroundBlur_7763_22711"/>
</filter>
<filter id="filter11_f_7763_22711" x="250.24" y="199.329" width="51.3403" height="46.3574" filterUnits="userSpaceOnUse" color-interpolation-filters="sRGB">
<feFlood flood-opacity="0" result="BackgroundImageFix"/>
<feBlend mode="normal" in="SourceGraphic" in2="BackgroundImageFix" result="shape"/>
<feGaussianBlur stdDeviation="5" result="effect1_foregroundBlur_7763_22711"/>
</filter>
<filter id="filter12_f_7763_22711" x="55.9373" y="0.719238" width="51.3403" height="46.3574" filterUnits="userSpaceOnUse" color-interpolation-filters="sRGB">
<feFlood flood-opacity="0" result="BackgroundImageFix"/>
<feBlend mode="normal" in="SourceGraphic" in2="BackgroundImageFix" result="shape"/>
<feGaussianBlur stdDeviation="5" result="effect1_foregroundBlur_7763_22711"/>
</filter>
<filter id="filter13_f_7763_22711" x="182.134" y="4.26758" width="51.3403" height="46.3574" filterUnits="userSpaceOnUse" color-interpolation-filters="sRGB">
<feFlood flood-opacity="0" result="BackgroundImageFix"/>
<feBlend mode="normal" in="SourceGraphic" in2="BackgroundImageFix" result="shape"/>
<feGaussianBlur stdDeviation="5" result="effect1_foregroundBlur_7763_22711"/>
</filter>
</defs>
</svg>
